<?xml version="1.0" encoding="utf-8"?>
<!-- Generator: Adobe Illustrator 24.1.2, SVG Export Plug-In . SVG Version: 6.00 Build 0)  -->
<svg version="1.1" id="Layer_1" xmlns="http://www.w3.org/2000/svg" xmlns:xlink="http://www.w3.org/1999/xlink" x="0px" y="0px"
	 viewBox="0 0 375 250" style="enable-background:new 0 0 375 250;" xml:space="preserve">
<style type="text/css">
	.st0{clip-path:url(#SVGID_2_);}
	.st1{fill:#3E416D;}
	.st2{clip-path:url(#SVGID_4_);}
	.st3{fill:#4D4D87;}
	.st4{clip-path:url(#SVGID_4_);fill:#2F3152;}
	.st5{fill:#2F3152;}
	.st6{clip-path:url(#SVGID_4_);fill:#646AA1;}
	.st7{clip-path:url(#SVGID_4_);fill:#4D4D87;}
	.st8{clip-path:url(#SVGID_4_);fill:#3E416D;}
	.st9{fill:#646AA1;}
	.st10{fill:#F0F5FD;}
	.st11{fill:#D9E8FB;}
	.st12{fill:#96BCEF;}
	.st13{fill:#62D76B;}
	.st14{fill:#BFDAF9;}
</style>
<g>
	<defs>
		<path id="SVGID_1_" d="M375,0H0v250h375V0z"/>
	</defs>
	<clipPath id="SVGID_2_">
		<use xlink:href="#SVGID_1_"  style="overflow:visible;"/>
	</clipPath>
	<g class="st0">
		<path class="st1" d="M375,0H0v250h375V0z"/>
		<g>
			<defs>
				<rect id="SVGID_3_" width="375" height="250"/>
			</defs>
			<clipPath id="SVGID_4_">
				<use xlink:href="#SVGID_3_"  style="overflow:visible;"/>
			</clipPath>
			<g class="st2">
				<path class="st3" d="M73.24,210.43c-5,0.17-8.83-3.83-9.17-8.67c-0.33-4.83-0.83-31.33-0.83-38.33s7-7.17,11.17-7.33
					c4.17-0.17,118.58-1.42,124.83-1.67s9,2,9.25,6s-0.25,36.75,0,40.5s-1.25,7-5.25,7.25S78.24,210.27,73.24,210.43z"/>
				<path class="st1" d="M200.55,166.62c-0.24-1.18-1.26-2.02-2.46-2.02c-14.09,0.03-122.76,0.22-125.05,0.31
					c-1.62,0.06-2.97,1.03-2.88,2.66c0.09,1.69,0.59,2.88,3.34,2.88c2.46,0,108.06-0.68,124.6-0.82
					C199.69,169.61,200.86,168.17,200.55,166.62L200.55,166.62z"/>
				<path class="st1" d="M201.7,177.8c-0.13-1.36-1.27-2.39-2.63-2.38c-15.03,0.08-123.68,0.56-125.5,0.56c-2,0-3.29,0.88-3.17,2.88
					s1.54,2.88,3.79,2.88c2.02,0,108.83-0.88,124.92-1.04C200.65,180.67,201.85,179.34,201.7,177.8L201.7,177.8z"/>
				<path class="st1" d="M200.9,188.67c0.31-1.56-0.88-3.01-2.47-2.99c-16.66,0.13-123.4,0.86-124.74,0.86
					c-1.5,0-3.25,0.42-3.17,2.42c0.08,2,1.08,3,3,3.08c1.75,0.08,111.03-1.16,124.96-1.35C199.67,190.67,200.67,189.83,200.9,188.67
					L200.9,188.67z"/>
				<path class="st1" d="M201.15,197.67c-0.24-1.26-1.34-2.17-2.62-2.15c-14.52,0.19-121.99,1.33-123.58,1.33
					c-1.75,0-4.12,0.38-4.12,2.5s0.54,3.33,3.17,3.46c2.35,0.11,107.8-1.65,124.63-2C200.25,200.77,201.46,199.28,201.15,197.67
					L201.15,197.67z"/>
			</g>
			<path class="st4" d="M13.83,126.83c-5,46.17,15.5,65.5,9,121.5l6,0.67c6.33-47.67-14.67-75.67-8.67-122.33"/>
			<g class="st2">
				<path class="st5" d="M281.5-31.5c0,0-2,162.5-1.5,285.5h270.5c0,0,1.5-148-2-285.5H281.5z"/>
				<path class="st1" d="M308.5-12c-7.32,0.43-11.33,2-11.33,10.33s-0.33,19.67-0.33,24.33s1.67,8.33,10,8.67
					c8.33,0.33,208.33-0.33,216.33,0.33s11.33-3.33,11-9.67c-0.33-6.33-0.33-23.67-0.67-28.33s-2.67-6-10-6.33
					C516.17-13,314.17-12.33,308.5-12z"/>
				<path class="st1" d="M304,40.25c-5.75-0.15-7.5,2.75-7.5,7.25s0.5,24.5,0.5,29s1.5,9.25,8.25,9.25s213.5-0.5,219.5-0.5
					s9-3.25,9-8.5s-0.5-24.5-0.75-29.25s-1-7.25-7.75-7.25S313.75,40.5,304,40.25z"/>
				<path class="st1" d="M303.75,93.75c-4.75,0.12-7.75,1.75-8,7.5s0,21,0,26.25s1.75,10.5,9,10.5s213.25,0.75,220,0.75
					s8.25-3.75,8.25-9.5s0.5-20.5,0.25-26.25s-2-9-9-9.25S314,93.5,303.75,93.75z"/>
				<path class="st1" d="M305.5,146c-6.25,0.11-9.25,2.25-9.25,9s0.5,20,0.5,24.25s0.75,9.5,8.75,9.5s213.75,1,218.75,1
					s9.25-2.5,9.25-8.25s0.5-23.75,0.5-28.25s-2.5-7.25-7.75-7.25S319.75,145.75,305.5,146z"/>
				<path class="st1" d="M295.75,207.5c0-5.75,2.25-8.25,9-8.5s213,1,219,1s9.75,1.75,9.75,7.5s-0.25,22.5,0,26.75s-1,8.5-8.5,9
					s-216.56-0.38-222.75-0.5s-6.75-4.5-6.75-8.5S295.75,214.75,295.75,207.5z"/>
			</g>
			<path class="st6" d="M309.46,46.72c-1.74-2.3-6.17-2.5-7.56,1.26c-1.11,3.02,1.98,6.39,4.88,5.64
				C309.76,52.83,311.8,49.8,309.46,46.72z"/>
			<path class="st7" d="M322.5-1.83l0.12,14.04c0.03,2.94,2.4,5.32,5.34,5.34l86.59,0.74c3,0.03,5.44-2.4,5.44-5.4V-3L322.5-1.83z"
				/>
			<path class="st7" d="M414.69,50.57c3.82-0.03,6.74,0.66,6.74,3.77s-0.6,12.46-0.52,15.09c0.07,2.63-0.97,4.85-4.27,4.85
				s-82.35-0.36-85.04-0.24c-2.7,0.12-4.42-0.72-4.35-4.01c0.07-3.29-0.37-12.75-0.22-14.97c0.15-2.22,1.05-3.29,4.35-3.35
				C334.67,51.64,406.3,50.63,414.69,50.57z"/>
			<path class="st7" d="M415.32,105.82c3.78-0.01,5.44,0.56,5.52,3.52c0.08,2.96,0.16,13.58,0.08,16.17
				c-0.08,2.59-1.66,3.58-5.91,3.52s-85.91-0.8-89.14-0.68c-3.23,0.12-4.89-1.11-4.97-3.33s0.63-12.84,0.63-14.81
				s1.02-3.52,4.81-3.7C330.12,106.32,398.45,105.89,415.32,105.82z"/>
			<path class="st7" d="M414.61,156.81c3,0.07,5.44,0.85,5.52,3.75c0.08,2.9,0.16,13.39,0.16,15.3c0,1.91-0.24,3.97-3.63,4.11
				s-89.46-0.71-92.93-0.71s-4.81-0.99-4.73-4.04c0.08-3.05,0.16-13.88,0.24-16.01c0.08-2.13,1.1-3.33,4.41-3.4
				C326.96,155.75,408.22,156.67,414.61,156.81z"/>
			<path class="st7" d="M326.17,232.75c-3-0.07-5.44-0.85-5.52-3.75c-0.08-2.9-0.16-13.39-0.16-15.3c0-1.91,0.24-3.97,3.63-4.11
				c3.39-0.14,89.46,0.71,92.93,0.71c3.47,0,4.81,0.99,4.73,4.04c-0.08,3.05-0.16,13.88-0.24,16.01c-0.08,2.13-1.1,3.33-4.41,3.4
				C413.82,233.81,332.56,232.89,326.17,232.75z"/>
			<path class="st4" d="M284.33,10c-24.17,0-40.67,38.67,0.17,44.5l0.17-3.67c-31.67-2.17-25.33-37.5-0.67-37"/>
			<path class="st4" d="M284-10.5c-22.17,0.5-19,30,0.5,41.83l0.5-2.46c-13.92-10.46-19.83-34.71-0.83-36.29L284-10.5z"/>
			<path class="st7" d="M-124.54-39.07c-7.65-0.12-10.64,3.13-10.26,10c4,74.02,5.31,141.09,5.65,149.44s2.87,13.48,14.18,13.4
				c11.31-0.09,172.23-2.52,246.86-2.09c15.74,0.09,15.74-8.61,16-18.35c0.26-9.74,1.65-121.25,1.91-134.65
				c0.26-13.4-6.87-14.27-15.05-14.18C71.87-34.81-9.9-37.33-124.54-39.07z"/>
			<path class="st8" d="M-117.41,111.32c0.17,4.7,0,8.09,7.05,8.35c7.05,0.26,237.42-0.36,242.64-0.3c2.04,0.02,3.65-0.59,3.72-3.78
				c1.04-46.12,3.72-132.3,3.72-137.43c0-1.96-0.3-3.06-2-3.04c-157.96,1.91-247.46,0.26-252.68,0.35s-6.35,0.87-6.18,5.22
				S-117.67,104.19-117.41,111.32z"/>
			<g class="st2">
				<path class="st9" d="M107.22,63.44c-5.59,2.47-18.97,8.27-26.37,10.47c-0.86,0.25-2.65-0.6-2.8-2.24
					c-0.62-7.14-0.62-21.89-0.59-27.16c0.01-1.22-1.44-1.82-2.15-1.73c-13.05,1.57-23.81,10.17-25.59,22.76
					c-1.58,11.22,2.88,33.68,28.46,33.92c25.59,0.23,34.04-19.48,33.1-30.51c-0.12-1.45-0.39-2.94-0.8-4.44
					C110.29,63.76,108.82,62.73,107.22,63.44z"/>
				<path class="st3" d="M83.37,70.09c5.24-2.15,16.1-6.61,23.21-9.54c1.48-0.61,1.33-2.38,0.89-3.13
					c-4.38-7.38-12.5-13.73-24.59-14.78c-0.81-0.07-2.32,0.73-2.42,2.55c-0.31,5.62-0.23,17.21-0.17,22.88
					C80.31,70.07,81.49,70.86,83.37,70.09z"/>
			</g>
			<g class="st2">
				<path class="st9" d="M27.64,53.76c-4.49,4.15-15.27,13.96-21.56,18.43c-0.73,0.52-3,0.66-4.36-0.27
					c-9.08-6.25-16.15-9.67-17.83-14.67c-0.39-1.15-2.98-4.44-3.62-4.12c-11.84,5.71-8.73,8.71-6.34,21.2
					c2.13,11.13,13.62,30.94,37.9,22.89c24.29-8.05,25.9-29.44,21.45-39.58c-0.58-1.33-1.32-2.65-2.2-3.94
					C30.64,53.07,28.92,52.57,27.64,53.76z"/>
				<path class="st3" d="M7.22,67.76c4.26-3.73,13.09-11.46,18.88-16.53c1.2-1.06,0.49-2.69-0.17-3.25
					c-6.53-5.56-16.21-8.69-28.04-6.03c-8.01,1.8-14.12,9.43-13.63,11.18c1.52,5.42,12.72,11.78,17.62,15.12
					C3.53,69.38,5.69,69.1,7.22,67.76z"/>
			</g>
			<path class="st7" d="M108.85,21.79c0.02,3.82-0.38,6.74-2.19,6.74c-1.81,0-7.23-0.6-8.76-0.52c-1.53,0.07-2.82-0.97-2.82-4.27
				s-0.34-8.29-0.41-10.98C94.6,10.05,95.08,8.33,97,8.4c1.91,0.07,8.52-0.4,9.81-0.25c1.29,0.15,1.91,1.05,1.95,4.35
				S108.81,13.39,108.85,21.79z"/>
			<path class="st7" d="M86.75,24.06c0,2.38-0.31,4.13-2.04,4.2s-7.89,0.16-9.39,0.08c-1.51-0.08-2.08-1.66-2.04-5.91
				s-0.04-2.2-0.11-5.43c-0.07-3.23,0.79-3.78,2.08-3.86c1.29-0.08,8.44,0.02,9.59,0.02c1.15,0,2.05,0.17,2,3.96
				C86.81,19.15,86.75,21.06,86.75,24.06z"/>
			<path class="st7" d="M65.81,23.04c-0.04,3-0.49,5.44-2.18,5.52c-1.69,0.08-7.78,0.16-8.89,0.16c-1.11,0-2.3-0.24-2.39-3.63
				c-0.08-3.39,0.41-89.46,0.41-92.93s0.58-4.81,2.35-4.73c1.77,0.08,8.06,0.16,9.3,0.24c1.23,0.08,1.93,1.1,1.97,4.41
				C66.43-64.61,65.9,16.65,65.81,23.04z"/>
			<path class="st7" d="M32,10.62c0.04-1.13,0.55-3.04,2.24-3.07c1.69-0.03,7.78-0.06,8.89-0.06s2.25,1.07,2.33,2.35
				c0.08,1.28-0.03,15.6-0.03,16.91c0,1.31-0.58,1.81-2.35,1.78c-1.77-0.03-8.06-0.06-9.3-0.09c-1.23-0.03-1.93-0.42-1.97-1.67
				C31.76,25.54,31.92,13.03,32,10.62z"/>
			<path class="st7" d="M20.35,21.29c0.02,3.82-0.38,6.74-2.19,6.74s-7.23-0.6-8.76-0.52c-1.53,0.07-2.82-0.97-2.82-4.27
				s0.21-82.35,0.14-85.04c-0.07-2.7,0.42-4.42,2.33-4.35s7.41-0.37,8.69-0.22s1.91,1.05,1.95,4.35
				C19.72-58.74,20.31,12.89,20.35,21.29z"/>
			<path class="st6" d="M308.61,102.07c-1.74-2.3-6.17-2.5-7.56,1.26c-1.11,3.02,1.98,6.39,4.88,5.64
				C308.91,108.19,310.95,105.16,308.61,102.07z"/>
			<path class="st6" d="M308.61,154.53c-1.74-2.3-6.17-2.5-7.56,1.26c-1.11,3.02,1.98,6.39,4.88,5.64
				C308.91,160.65,310.95,157.61,308.61,154.53z"/>
			<path class="st6" d="M308.8,207.17c-1.74-2.3-6.17-2.5-7.56,1.26c-1.11,3.02,1.98,6.39,4.88,5.64
				C309.09,213.29,311.13,210.25,308.8,207.17z"/>
			<path id="Path_91_" class="st4" d="M285.73,123.93c-20.86,0-35.1-33.26,0.14-38.28l0.14,3.15c-27.33,1.86-21.86,32.26-0.58,31.83
				"/>
			<path id="Path_63_" class="st4" d="M281.57,103.95c-19.13-0.43-16.4-25.8,0.43-35.98l0.43,2.11c-12.01,9-17.12,29.85-0.72,31.22
				L281.57,103.95z"/>
			<path id="Path_93_" class="st4" d="M283.13,185.64c-20.86,0-35.1,33.26,0.14,38.28l0.14-3.15c-27.33-1.86-21.86-32.26-0.58-31.83
				"/>
			<path id="Path_92_" class="st4" d="M282.84,168.01c-19.13,0.43-16.4,25.8,0.43,35.98l0.43-2.11c-12.01-9-17.12-29.85-0.72-31.22
				L282.84,168.01z"/>
			<g class="st2">
				<path class="st5" d="M241.84-21.85c15.39,19.86,7.64,41.29-6.6,52.32c-14.41,11.17-38.64,11.68-52.23-5.86
					c-13.59-17.54-9.17-40.97,7.03-53.52S229.78-37.41,241.84-21.85z"/>
				<path class="st3" d="M213.94,0.39c4.95-4.46,22.62-22.54,28.64-8.81S225.64,6.65,215.26,3.5L213.94,0.39z"/>
				<path class="st3" d="M213.8,4.41c0.08,6.67,1.99,31.87-12.29,27.32c-14.28-4.55-0.14-22.66,9.08-28.38L213.8,4.41z"/>
				<path class="st3" d="M209.55,1.29c-6.22-2.41-30.31-10.05-20.76-21.6c9.55-11.55,21.08,8.33,22.94,19.01L209.55,1.29z"/>
				<path class="st3" d="M217.49-2.99c2.82,3.64,1.4,7.56-1.21,9.58c-2.64,2.04-7.07,2.14-9.56-1.07s-1.68-7.5,1.29-9.8
					C210.97-6.58,215.28-5.84,217.49-2.99z"/>
			</g>
		</g>
		<path class="st10" d="M-18.8,299.1L-6.3,250c138-28.6,280.7-26.3,417.7,6.8L375,299.1H-18.8z"/>
		<g>
			<g>
				<path class="st11" d="M136.48,192.75c0,0,3.14,18.56,4.13,22.29c1.45,5.45,29.99,8.02,63.11,0.74
					c33.12-7.27,56.98-17.37,55.72-24.52c-1.01-5.69-4.07-21.09-4.07-21.09L136.48,192.75z"/>
				<path class="st10" d="M136.48,192.75c1.07,5.98,29.29,5.44,63.73-1.5c29.32-5.9,56.17-16.14,55.17-21.08
					c-1.23-6.1-43.92-1.43-59.23,1.8S135.07,184.87,136.48,192.75z"/>
				<path class="st12" d="M198.06,187.87c-19.43,3.91-52.93,6.46-54.09,1.56c-1.16-4.9-1.46-6.36-1.46-6.36l102.23-20.36
					c0,0,1,5.2,1.39,7.54C246.7,173.77,223.12,182.82,198.06,187.87z"/>
				<path class="st13" d="M149.32,203.01c-2.72,0.5-4.47,4.21-1.8,6.96c2.68,2.75,5.22,0.41,5.84-1.69
					C153.97,206.18,152.97,202.35,149.32,203.01z"/>
				<path class="st14" d="M223.11,197.07c4.05-1.01,16.65-4.74,26.39-9.72c1.74-0.89,3.5,0.9,1.22,2.4
					c-3.15,2.07-13.79,7.28-27.1,10.62C220.45,201.16,220.03,197.83,223.11,197.07z"/>
			</g>
			<g>
				<path class="st11" d="M250.28,137.81c0,0,3.16,17.2,3.55,20.14c0.69,5.3-16.74,16.52-57.34,24.54s-62.48,5.17-63.69-1.69
					c-1.2-6.86-3.54-20.4-3.54-20.4L250.28,137.81z"/>
				<path class="st10" d="M129.26,160.4c0.63,5.93,33.24,6.08,66.87-0.69c26.22-5.28,54.95-16.5,54.15-21.91s-34.74-3.96-59.56,1.03
					C165.9,143.84,128.26,150.99,129.26,160.4z"/>
				<path class="st12" d="M191.07,156.97c23.35-4.7,52.13-13.81,50.9-19.27l-1.29-6.43L137.01,150.9l1.68,7.03
					C139.73,163.05,168.27,161.57,191.07,156.97z"/>
				<path class="st13" d="M142.1,171.54c-2.72,0.5-4.47,4.21-1.8,6.96c2.68,2.75,5.22,0.41,5.84-1.69
					C146.76,174.71,145.75,170.87,142.1,171.54z"/>
				<path class="st14" d="M218.1,162.87c7.13-1.84,20.37-6.26,25.43-9.05c2.48-1.37,4.04,0.93,1.67,2.29
					c-2.37,1.36-14.88,7.11-26.73,10.23C216.11,166.96,215.03,163.67,218.1,162.87z"/>
			</g>
			<polyline class="st11" points="246.99,124.2 236.84,73.83 115.65,95.6 125.79,145.97 			"/>
			<path class="st10" d="M115.61,95.35c1.45,9.98,34.62,9.75,59.52,5.17c24.9-4.59,63.28-17.46,61.74-26.58
				c-1.54-9.12-37.68-11.71-62.5-6.71C149.54,72.23,113.31,79.52,115.61,95.35z"/>
			<path class="st11" d="M125.75,145.73c1.45,9.98,35.74,11.78,60.57,6.8c34.95-7.02,62.23-19.09,60.69-28.21
				s-37.68-11.71-62.5-6.71S123.45,129.9,125.75,145.73z"/>
			<path class="st11" d="M127.87,93.02c0.96,6.97,27.27,6.17,47.11,2.47c19.84-3.7,50.53-13.46,49.49-19.83s-29.67-7.48-49.45-3.5
				C155.24,76.14,126.36,81.96,127.87,93.02z"/>
			<path class="st12" d="M212.74,84.53c-10.2-0.95-23.88-0.31-34.85,1.89c-13.18,2.65-30.38,6.12-39.96,11.41
				c9.69,1.15,24.63-0.03,37.05-2.34C186.71,93.31,202.23,89,212.74,84.53z"/>
			<g>
				<path class="st14" d="M200.19,109.87c-0.27-1.43-0.24-1.77,1.19-2.17c1.43-0.41,2.73-0.6,3.42-0.81
					c0.7-0.21,1.26-0.16,1.53,1.34c0.26,1.5,2.75,18.6,3.01,20.06c0.26,1.47,0.34,2.05,1.67,1.49c1.34-0.53,7.92-3.36,9.46-4.08
					c1.56-0.68,1.81-0.66,2.19,0.84c0.23,0.94,0.59,2.29,0.89,3.44c0.16,0.64-0.22,1.37-0.85,1.61c-3.5,1.41-14.14,4.8-15.08,5.02
					c-1.11,0.36-1.67,0.54-1.97-0.98C205.32,134.1,200.71,112.65,200.19,109.87z"/>
				<path class="st14" d="M162.89,120.29c-0.69-0.66-1.55-1.02-2.92-0.87c-2.09,0.23-2.87,1.44-2.48,3.42
					c0.88,4.53,12.79,3.28,14.91,11.82c1.1,4.44-0.93,9.71-9.11,9.78c-6.14,0-8.3-5.55-9.01-8.01c-0.24-0.83-0.05-1.4,1.86-1.38
					c2.43,0.02,2.69,0.81,2.87,1.2c0.88,1.91,2.45,3.24,4.33,3.16c1.55-0.05,4.48-0.31,3.45-4.2c-1.43-5.36-12.09-3.4-14.06-11.82
					c-1.14-4.86,1.66-7.99,6.51-8.53c4.5-0.52,6.84,2.07,7.78,3.19c0.68,0.79,0,1.46-1.09,2.02
					C164.38,120.87,163.65,121.03,162.89,120.29z"/>
				<path class="st14" d="M200.67,135.9c-1.38-1.02-2.55-1.82-3.68-2.53c0.96-2.88,1.12-6.05,0.59-8.57
					c-1.75-8.35-7.29-14.44-14.53-13.18c-8.12,1.37-10.88,8.57-9.27,16.99c1.6,8.37,6.32,13.16,14.44,12.47
					c2.47-0.22,4.41-1.28,5.89-2.8c0.98,0.79,2.03,1.63,3.24,2.6c0.75,0.6,1.49,0.36,2-0.25c0.58-0.69,1.5-2.26,1.92-3.06
					C201.56,137.02,201.23,136.32,200.67,135.9z M186.76,135.85c-3.2,0.49-6.65-3-7.47-8.47c-0.83-5.47,1.28-9.46,5.25-9.91
					c3.01-0.34,6.32,2.8,7.25,8.47c0.26,1.6,0.22,3.04-0.03,4.31c-0.69-0.41-1.42-0.84-2.23-1.34c-0.54-0.34-1.24-0.22-1.71,0.2
					c-0.48,0.43-1.25,1.36-1.63,1.85c-0.49,0.63-0.17,1.12,0.2,1.4c1.12,0.82,2.09,1.55,2.99,2.23
					C188.61,135.27,187.71,135.7,186.76,135.85z"/>
			</g>
		</g>
		<path class="st5" d="M110.39,79.52c-2.89-3.91-8.62-10.46-11.88-14.63c-1.23-1.57,0.67-3.62,4.39-4.05
			c1.98-0.23,3.34,0.4,3.84,1.16c3.28,4.98,6.12,10.03,7.57,16.71c0.13,0.61,0.23,1.41-1.13,1.73
			C111.87,80.74,111.22,80.64,110.39,79.52z"/>
		<path class="st5" d="M108.95,91.05c0.14,2.19-1.31,3.11-1.98,3.33c-9.29,3.08-15.15,4.13-21.51,4.77
			c-0.87,0.09-1.41-0.46-1.89-1.19c-1.43-2.15-2.2-4.86-2.15-6.92c0.02-0.97,0.82-2.27,2.14-2.14c8.06,0.79,17.35,0.32,23.07-0.25
			C107.55,88.56,108.81,88.9,108.95,91.05z"/>
	</g>
</g>
</svg>
