<svg width="300" height="180" fill="none" xmlns="http://www.w3.org/2000/svg"><path fill="#fff" d="M0 0h300v180H0z"/><path d="m29.531 34.488 3.594-8.73h5.39v.361h-.43c-.39 0-.702.069-.937.205-.162.091-.293.244-.39.46-.072.155-.108.562-.108 1.22v8.73c0 .677.036 1.1.108 1.27.071.17.218.319.44.45.22.123.517.185.888.185h.43V39h-6.914v-.361h.43c.39 0 .702-.069.937-.205.163-.092.293-.248.39-.47.072-.155.108-.566.108-1.23V26.92L28.389 39h-.235l-5.156-11.992v9.326c0 .651.016 1.051.049 1.201.084.326.267.593.547.8.286.203.732.304 1.338.304V39H20.4v-.361h.137c.293.006.567-.04.82-.137.254-.104.446-.24.577-.41.13-.17.23-.407.302-.713.013-.072.02-.404.02-.996v-8.38c0-.67-.036-1.086-.108-1.25-.071-.168-.218-.315-.439-.439-.221-.13-.518-.195-.889-.195h-.42v-.361h5.41l3.721 8.73Zm14.219 4.883-2.95-6.768c-.442-1.022-.77-1.65-.985-1.884a1.64 1.64 0 0 0-.762-.489v-.36h4.853v.36c-.319.014-.543.075-.674.186a.508.508 0 0 0-.195.4c0 .248.163.736.488 1.465l1.563 3.575 1.064-2.764c.384-.983.576-1.667.576-2.051a.73.73 0 0 0-.244-.576c-.156-.143-.436-.221-.84-.235v-.36h3.057v.36c-.3.033-.543.15-.732.352-.19.195-.505.87-.947 2.021l-2.608 6.768c-.657 1.693-1.146 2.734-1.465 3.125-.449.547-1.012.82-1.69.82-.54 0-.98-.156-1.318-.468a1.459 1.459 0 0 1-.498-1.114c0-.377.114-.69.342-.937.235-.247.521-.371.86-.371.325 0 .585.104.78.312.203.209.307.53.313.967.007.248.036.407.088.479a.26.26 0 0 0 .225.107c.156 0 .322-.094.498-.283.26-.274.566-.899.918-1.875l.283-.762Zm23.486-13.916v4.59h-.38c-.287-1.198-.82-2.116-1.602-2.754a4.087 4.087 0 0 0-2.656-.957 3.93 3.93 0 0 0-2.276.713 4.157 4.157 0 0 0-1.513 1.865c-.41.983-.616 2.077-.616 3.281 0 1.185.15 2.266.45 3.242.3.97.768 1.706 1.406 2.208.638.494 1.465.742 2.48.742.834 0 1.595-.182 2.285-.547.697-.365 1.43-.993 2.198-1.885v1.143c-.743.774-1.517 1.338-2.325 1.69-.8.344-1.738.517-2.812.517-1.413 0-2.67-.283-3.77-.85a6.043 6.043 0 0 1-2.539-2.441 6.846 6.846 0 0 1-.888-3.389c0-1.263.329-2.46.986-3.594a7.03 7.03 0 0 1 2.676-2.636 7.276 7.276 0 0 1 3.584-.938c.93 0 1.914.202 2.949.606.599.234.98.351 1.143.351a.733.733 0 0 0 .537-.224c.156-.157.257-.4.303-.733h.38Zm5.508.303v5.283c.501-.527.96-.898 1.377-1.113.417-.222.85-.332 1.299-.332.573 0 1.061.163 1.465.488.41.326.68.71.81 1.152.137.436.205 1.175.205 2.217v3.565c0 .696.066 1.132.196 1.308.13.17.394.277.79.322V39h-4.628v-.352c.325-.045.57-.175.732-.39.117-.17.176-.583.176-1.24v-4.073c0-.755-.03-1.227-.088-1.416a.829.829 0 0 0-.303-.449.724.724 0 0 0-.468-.166c-.26 0-.515.091-.762.273-.248.176-.514.489-.8.938v4.893c0 .65.048 1.057.146 1.22.123.222.377.358.761.41V39h-4.629v-.352c.385-.039.658-.162.82-.37.111-.144.167-.564.167-1.26V27.74c0-.69-.065-1.12-.196-1.289-.123-.17-.387-.28-.79-.332v-.361h3.72Zm11.71 3.838c.793 0 1.532.205 2.216.615.683.41 1.201.993 1.553 1.748.358.755.537 1.582.537 2.48 0 1.296-.329 2.38-.987 3.252-.794 1.055-1.89 1.582-3.29 1.582-1.374 0-2.432-.481-3.174-1.445-.743-.963-1.114-2.08-1.114-3.35 0-1.308.378-2.447 1.133-3.418.762-.976 1.803-1.464 3.125-1.464Zm.038.693a1.15 1.15 0 0 0-.86.38c-.234.248-.39.743-.468 1.485-.072.736-.107 1.761-.107 3.076 0 .697.045 1.348.136 1.954.072.462.225.813.46 1.054.234.241.5.362.8.362.293 0 .537-.082.733-.245.253-.22.423-.53.507-.927.13-.619.196-1.869.196-3.75 0-1.107-.062-1.865-.186-2.276-.124-.416-.306-.72-.547-.908-.169-.137-.39-.205-.664-.205Zm9.444-.42v2.07c.605-.944 1.136-1.569 1.591-1.875.456-.312.895-.468 1.319-.468.364 0 .654.114.869.341.221.222.332.538.332.948 0 .436-.108.774-.322 1.015a.97.97 0 0 1-.762.362c-.345 0-.645-.111-.898-.332a5.464 5.464 0 0 0-.45-.371.427.427 0 0 0-.224-.059.82.82 0 0 0-.538.215c-.266.221-.468.537-.605.947a6.641 6.641 0 0 0-.313 2.09v2.1l.01.546c0 .371.023.61.069.713a.809.809 0 0 0 .342.391c.156.078.416.127.78.146V39h-4.93v-.352c.396-.032.663-.14.8-.322.143-.189.215-.68.215-1.474v-5.05c0-.52-.026-.852-.078-.995a.785.785 0 0 0-.284-.4c-.123-.085-.341-.144-.654-.177v-.36h3.73Zm12.46 4.238h-5.009c.058 1.211.381 2.168.967 2.871.449.54.989.811 1.621.811.39 0 .745-.107 1.064-.322.319-.222.661-.615 1.025-1.182l.332.215c-.494 1.01-1.041 1.725-1.64 2.148-.599.417-1.292.625-2.08.625-1.354 0-2.38-.52-3.076-1.562-.56-.84-.84-1.882-.84-3.125 0-1.523.41-2.734 1.23-3.633.827-.905 1.794-1.357 2.901-1.357.924 0 1.725.38 2.402 1.142.684.756 1.051 1.879 1.103 3.37Zm-2.402-.654c0-1.048-.058-1.768-.176-2.158-.11-.39-.286-.687-.527-.889-.137-.117-.319-.175-.547-.175-.338 0-.615.165-.83.497-.384.58-.576 1.374-.576 2.383v.342h2.656Zm9.326-3.838.147 3.116h-.332c-.397-.925-.811-1.557-1.24-1.895-.424-.339-.847-.508-1.27-.508a.95.95 0 0 0-.684.274.819.819 0 0 0-.283.615.8.8 0 0 0 .196.508c.208.266.791.725 1.748 1.377.957.644 1.585 1.194 1.884 1.65.306.45.459.954.459 1.514 0 .507-.127 1.006-.381 1.494a2.667 2.667 0 0 1-1.074 1.123c-.462.26-.973.39-1.533.39-.436 0-1.019-.136-1.748-.41-.195-.071-.329-.107-.4-.107-.215 0-.394.163-.538.488h-.322l-.156-3.281h.332c.293.86.693 1.504 1.201 1.934.514.43 1 .644 1.455.644.313 0 .567-.094.762-.283a.943.943 0 0 0 .303-.703c0-.313-.098-.583-.293-.81-.196-.229-.632-.574-1.309-1.036-.996-.69-1.64-1.218-1.933-1.582-.43-.534-.645-1.123-.645-1.768 0-.703.241-1.338.723-1.904.488-.573 1.191-.86 2.109-.86.495 0 .973.121 1.436.362.175.098.319.146.429.146a.52.52 0 0 0 .283-.068c.072-.052.186-.192.342-.42h.332ZM29.66 59.519v3.267h-.254c-.305-.893-.763-1.572-1.374-2.037-.61-.465-1.278-.697-2.003-.697-.692 0-1.269.196-1.73.588-.46.387-.785.93-.977 1.627a8.072 8.072 0 0 0-.287 2.146c0 .889.105 1.668.315 2.338.21.67.546 1.162 1.011 1.477.47.314 1.026.471 1.668.471.224 0 .451-.023.684-.068.237-.05.478-.12.724-.212V66.49c0-.364-.025-.6-.075-.704-.05-.11-.155-.207-.314-.294a1.148 1.148 0 0 0-.567-.13h-.24v-.253h4.505v.253c-.342.023-.581.07-.718.144a.688.688 0 0 0-.307.349c-.041.086-.062.298-.062.635v1.928a8.965 8.965 0 0 1-1.852.595 9.47 9.47 0 0 1-1.99.205c-.88 0-1.61-.119-2.194-.356a5.647 5.647 0 0 1-1.538-.943 4.522 4.522 0 0 1-1.04-1.32c-.318-.628-.478-1.332-.478-2.112 0-1.394.49-2.572 1.47-3.534.98-.962 2.213-1.442 3.698-1.442.46 0 .875.036 1.245.11.2.036.524.14.97.313.451.17.718.253.8.253a.545.545 0 0 0 .355-.136c.11-.096.21-.274.301-.533h.253Zm5.235 8.538c-.779.688-1.478 1.032-2.098 1.032a1.225 1.225 0 0 1-1.271-1.258c0-.488.209-.925.628-1.312.42-.392 1.333-.912 2.741-1.559v-.643c0-.483-.027-.786-.082-.909a.692.692 0 0 0-.294-.328.877.877 0 0 0-.492-.143c-.296 0-.54.066-.731.198-.119.082-.178.178-.178.287 0 .096.064.214.192.355.173.196.26.385.26.568a.763.763 0 0 1-.254.574c-.164.155-.38.232-.649.232-.287 0-.529-.086-.725-.26a.797.797 0 0 1-.287-.608c0-.328.13-.64.39-.936.26-.301.622-.531 1.087-.69.465-.16.948-.24 1.45-.24.605 0 1.084.13 1.435.39.355.255.585.533.69.834.064.191.096.63.096 1.319v2.481c0 .292.011.477.034.554a.329.329 0 0 0 .102.164.245.245 0 0 0 .158.055c.118 0 .239-.084.362-.253l.205.164c-.228.337-.465.583-.71.738a1.54 1.54 0 0 1-.828.226c-.365 0-.65-.084-.854-.253-.206-.173-.33-.433-.377-.78Zm0-.5v-2.139c-.55.323-.961.67-1.23 1.039-.178.246-.267.495-.267.745 0 .21.076.394.226.554.114.123.273.184.478.184.228 0 .493-.127.794-.382Zm6.125-4.949v1.45c.424-.661.796-1.099 1.115-1.313.319-.219.626-.328.923-.328.255 0 .458.08.608.24.155.154.232.375.232.662 0 .306-.075.543-.225.711a.68.68 0 0 1-.533.253.927.927 0 0 1-.63-.232 3.817 3.817 0 0 0-.314-.26.3.3 0 0 0-.157-.041.574.574 0 0 0-.376.15c-.187.155-.328.376-.424.664-.146.442-.218.93-.218 1.462v1.47l.006.383c0 .26.016.426.048.499a.566.566 0 0 0 .24.273c.109.055.291.09.546.103V69H38.41v-.246c.278-.023.465-.098.56-.226.101-.132.151-.476.151-1.032v-3.534c0-.365-.018-.597-.055-.697a.549.549 0 0 0-.198-.28c-.086-.06-.24-.1-.458-.124v-.253h2.611Zm9.783-2.877v7.355c0 .497.013.79.04.882.037.15.106.262.206.335.105.073.285.118.54.136v.226l-2.7.526V68.18c-.324.392-.613.658-.869.8a1.71 1.71 0 0 1-.854.211c-.816 0-1.46-.364-1.935-1.093-.382-.593-.574-1.32-.574-2.181 0-.688.119-1.303.356-1.846.237-.547.56-.959.97-1.237a2.35 2.35 0 0 1 1.333-.417c.306 0 .577.06.814.178s.49.326.759.622v-1.928c0-.488-.02-.782-.062-.882a.586.586 0 0 0-.246-.294c-.11-.063-.314-.095-.615-.095v-.288h2.837Zm-1.914 4.333c-.338-.647-.75-.97-1.238-.97a.629.629 0 0 0-.417.136c-.168.142-.307.39-.417.746-.104.355-.157.9-.157 1.633 0 .807.06 1.404.178 1.791.118.388.28.668.485.841.105.087.249.13.43.13.402 0 .78-.314 1.136-.943v-3.364Zm8.907 1.511h-3.507c.041.848.267 1.518.677 2.01.314.378.692.567 1.135.567.273 0 .521-.075.745-.225.223-.155.462-.43.718-.827l.232.15c-.346.706-.73 1.208-1.148 1.504-.42.292-.905.437-1.457.437-.948 0-1.665-.364-2.153-1.093-.392-.588-.588-1.317-.588-2.188 0-1.066.287-1.914.861-2.543.58-.633 1.256-.95 2.03-.95.648 0 1.209.267 1.682.8.479.528.736 1.315.773 2.358Zm-1.682-.458c0-.734-.04-1.237-.123-1.51-.077-.274-.2-.481-.369-.623a.568.568 0 0 0-.383-.123c-.237 0-.43.117-.58.349-.27.406-.404.961-.404 1.668v.24h1.86Zm5.1-2.509v.828c.328-.356.642-.613.943-.773.301-.164.625-.246.97-.246.416 0 .76.116 1.033.349.274.227.456.512.547.854.073.26.11.759.11 1.497v2.489c0 .492.043.8.13.922.09.119.277.194.56.226V69h-3.234v-.246c.242-.032.415-.132.52-.3.073-.115.11-.397.11-.848v-2.844c0-.524-.021-.855-.062-.992a.58.58 0 0 0-.212-.314.498.498 0 0 0-.321-.116c-.392 0-.757.28-1.094.84v3.425c0 .479.043.782.13.91.09.127.257.207.499.239V69h-3.234v-.246c.27-.027.46-.114.575-.26.077-.1.116-.396.116-.888v-3.61c0-.483-.046-.784-.137-.902-.086-.119-.271-.196-.554-.233v-.253h2.605ZM26.082 96h-1.59l-2.018-2.786a9.45 9.45 0 0 1-.365.009h-.123a21.17 21.17 0 0 0-.136-.01v1.732c0 .375.041.608.123.699.111.129.279.193.501.193h.233V96h-2.553v-.163h.224c.252 0 .432-.082.54-.246.062-.09.093-.306.093-.646v-3.85c0-.374-.041-.607-.123-.698-.115-.129-.285-.193-.51-.193h-.224v-.163h2.17c.633 0 1.1.047 1.398.14.302.091.557.261.765.51.21.246.316.54.316.884 0 .366-.12.684-.36.953-.237.27-.607.46-1.108.572l1.23 1.71c.282.392.524.652.726.781.202.13.466.211.791.246V96Zm-4.232-3.063c.056 0 .104.002.145.004h.101c.569 0 .996-.123 1.283-.369.29-.246.435-.56.435-.94 0-.372-.117-.674-.351-.905-.232-.235-.54-.352-.923-.352-.17 0-.4.028-.69.084v2.478Zm5.11.554c-.002.597.143 1.066.436 1.406.293.34.637.51 1.033.51.263 0 .492-.072.685-.216.197-.146.36-.395.492-.747l.137.088c-.062.402-.24.768-.537 1.099a1.434 1.434 0 0 1-1.111.492c-.484 0-.898-.188-1.244-.563-.343-.377-.514-.884-.514-1.52 0-.688.176-1.225.527-1.608a1.73 1.73 0 0 1 1.332-.58c.451 0 .822.149 1.112.448.29.296.435.693.435 1.19H26.96Zm0-.255h1.864c-.014-.258-.045-.44-.092-.545a.868.868 0 0 0-.33-.387.814.814 0 0 0-.452-.14.91.91 0 0 0-.655.285c-.19.188-.302.45-.334.787Zm4.518-.523c.293-.293.466-.462.52-.505.13-.112.273-.198.425-.26.153-.061.304-.092.453-.092.252 0 .469.073.65.22.182.146.304.359.365.637.302-.352.557-.582.765-.69.208-.111.422-.167.641-.167.214 0 .403.056.567.167.167.108.3.287.396.536.064.17.096.437.096.8v1.731c0 .252.02.425.058.519.029.064.083.12.162.167.08.044.208.066.387.066V96h-1.986v-.158h.083c.173 0 .308-.034.404-.101a.392.392 0 0 0 .145-.224 2.82 2.82 0 0 0 .018-.427v-1.73c0-.328-.04-.56-.119-.694-.114-.188-.297-.282-.549-.282-.155 0-.312.04-.47.119-.155.076-.344.22-.567.43l-.009.049.009.189v1.92c0 .276.015.447.044.514a.39.39 0 0 0 .176.172c.085.044.23.066.435.066V96h-2.035v-.158c.223 0 .375-.027.457-.08a.407.407 0 0 0 .176-.237c.015-.05.022-.194.022-.435v-1.73c0-.328-.049-.564-.145-.708a.62.62 0 0 0-.54-.28.97.97 0 0 0-.471.127c-.243.128-.43.273-.562.435v2.157c0 .264.017.435.052.514.038.08.093.14.163.18.073.039.22.058.44.058V96h-1.991v-.158c.184 0 .313-.02.386-.057a.393.393 0 0 0 .167-.19c.038-.087.057-.256.057-.505v-1.538c0-.442-.013-.728-.04-.857-.02-.096-.052-.162-.096-.197a.266.266 0 0 0-.18-.058.845.845 0 0 0-.294.066l-.066-.158 1.213-.492h.189v.857Zm7.779-.857c.61 0 1.099.231 1.468.694.313.396.47.85.47 1.363 0 .36-.087.725-.26 1.094a1.882 1.882 0 0 1-.716.835 1.876 1.876 0 0 1-1.01.281c-.607 0-1.089-.242-1.446-.725a2.246 2.246 0 0 1-.453-1.371c0-.37.09-.736.273-1.099.184-.366.426-.635.725-.808.298-.176.615-.264.949-.264Zm-.136.286a.918.918 0 0 0-.47.14c-.156.091-.282.252-.379.484-.096.231-.145.528-.145.892 0 .586.116 1.091.348 1.516.234.425.542.637.922.637a.858.858 0 0 0 .704-.352c.184-.234.276-.637.276-1.208 0-.715-.153-1.277-.461-1.688-.208-.28-.473-.421-.795-.421Zm2.46-.167h1.895v.162h-.123c-.115 0-.203.028-.264.084a.295.295 0 0 0-.088.224c0 .102.03.224.092.365l.936 2.223.94-2.307c.068-.164.102-.288.102-.373a.146.146 0 0 0-.035-.102.23.23 0 0 0-.123-.087 1.102 1.102 0 0 0-.304-.027v-.162h1.314v.162c-.152.012-.258.043-.316.093-.103.087-.195.234-.277.439l-1.428 3.454h-.18l-1.437-3.397a1.267 1.267 0 0 0-.185-.338.713.713 0 0 0-.224-.176 1.098 1.098 0 0 0-.294-.075v-.162Zm5.384 1.516c-.003.597.142 1.066.435 1.406.293.34.637.51 1.033.51.263 0 .492-.072.685-.216.197-.146.36-.395.492-.747l.137.088c-.062.402-.24.768-.537 1.099a1.434 1.434 0 0 1-1.111.492c-.484 0-.898-.188-1.244-.563-.343-.377-.514-.884-.514-1.52 0-.688.176-1.225.527-1.608a1.73 1.73 0 0 1 1.332-.58c.45 0 .822.149 1.111.448.29.296.436.693.436 1.19h-2.782Zm0-.255h1.863c-.015-.258-.045-.44-.092-.545a.868.868 0 0 0-.33-.387.814.814 0 0 0-.452-.14.91.91 0 0 0-.655.285c-.19.188-.302.45-.334.787Zm5.344-1.261h1.876v.162h-.092c-.132 0-.232.03-.3.088a.267.267 0 0 0-.096.211c0 .114.049.272.145.475l.98 2.03.901-2.224a.925.925 0 0 0 .075-.356c0-.052-.01-.092-.03-.118a.221.221 0 0 0-.11-.075.776.776 0 0 0-.264-.03v-.163h1.31v.162a.625.625 0 0 0-.251.07.729.729 0 0 0-.194.198 2.729 2.729 0 0 0-.15.339l-1.638 4.016c-.158.39-.366.684-.624.884-.255.199-.501.298-.739.298a.615.615 0 0 1-.426-.149.45.45 0 0 1-.167-.343c0-.123.04-.222.119-.299a.483.483 0 0 1 .334-.11c.096 0 .228.033.395.097.117.044.19.066.22.066.088 0 .183-.045.286-.136.105-.09.21-.267.316-.528l.286-.698-1.446-3.037a2.437 2.437 0 0 0-.211-.338.994.994 0 0 0-.18-.207.991.991 0 0 0-.325-.123v-.162Zm5.405 1.516c-.003.597.142 1.066.435 1.406.293.34.637.51 1.033.51.263 0 .492-.072.685-.216.197-.146.36-.395.492-.747l.137.088c-.062.402-.24.768-.537 1.099a1.434 1.434 0 0 1-1.111.492c-.484 0-.898-.188-1.244-.563-.343-.377-.514-.884-.514-1.52 0-.688.176-1.225.527-1.608a1.73 1.73 0 0 1 1.332-.58c.45 0 .822.149 1.111.448.29.296.436.693.436 1.19h-2.782Zm0-.255h1.863c-.014-.258-.045-.44-.092-.545a.868.868 0 0 0-.33-.387.815.815 0 0 0-.452-.14.91.91 0 0 0-.655.285c-.19.188-.302.45-.334.787Zm4.706-3.485v5.34c0 .251.018.418.053.5a.414.414 0 0 0 .172.19c.076.04.218.06.426.06V96h-1.973v-.158c.184 0 .31-.02.378-.057a.381.381 0 0 0 .158-.19c.038-.087.057-.256.057-.505v-3.656c0-.454-.01-.732-.03-.835-.021-.105-.055-.177-.102-.215a.252.252 0 0 0-.171-.057.82.82 0 0 0-.29.07l-.075-.154 1.2-.492h.197Zm2.505 0v5.34c0 .251.018.418.053.5a.414.414 0 0 0 .171.19c.077.04.219.06.427.06V96h-1.973v-.158c.184 0 .31-.02.377-.057a.381.381 0 0 0 .159-.19c.038-.087.057-.256.057-.505v-3.656c0-.454-.01-.732-.031-.835-.02-.105-.054-.177-.101-.215a.252.252 0 0 0-.171-.057.82.82 0 0 0-.29.07l-.075-.154 1.2-.492h.197Zm3.09 2.105c.609 0 1.098.231 1.467.694.314.396.47.85.47 1.363 0 .36-.086.725-.259 1.094a1.882 1.882 0 0 1-.716.835 1.877 1.877 0 0 1-1.01.281c-.607 0-1.09-.242-1.447-.725a2.247 2.247 0 0 1-.452-1.371c0-.37.09-.736.272-1.099.185-.366.427-.635.725-.808.3-.176.616-.264.95-.264Zm-.137.286a.918.918 0 0 0-.47.14c-.155.091-.281.252-.378.484-.096.231-.145.528-.145.892 0 .586.116 1.091.347 1.516.235.425.542.637.923.637a.858.858 0 0 0 .703-.352c.185-.234.277-.637.277-1.208 0-.715-.154-1.277-.461-1.688-.208-.28-.473-.421-.796-.421Zm2.444-.167h1.687v.162c-.155.012-.258.04-.307.084-.047.044-.07.107-.07.189 0 .09.024.2.074.33l.861 2.315.866-1.885-.228-.593c-.07-.176-.163-.298-.277-.365-.065-.041-.185-.066-.36-.075v-.162h1.915v.162c-.21.009-.36.047-.448.114-.058.047-.088.122-.088.225 0 .058.012.118.035.18l.915 2.311.848-2.228c.058-.158.087-.284.087-.378 0-.055-.029-.105-.087-.15-.056-.043-.167-.068-.334-.074v-.162h1.27v.162c-.255.038-.443.211-.563.519l-1.345 3.467h-.18l-1.006-2.57-1.173 2.57h-.163l-1.292-3.384c-.085-.214-.169-.357-.25-.43-.083-.077-.211-.134-.387-.172v-.162Zm10.362-2.224v5.34c0 .251.018.418.053.5a.414.414 0 0 0 .171.19c.076.04.218.06.427.06V96H79.36v-.158c.185 0 .31-.02.378-.057a.381.381 0 0 0 .158-.19c.038-.087.058-.256.058-.505v-3.656c0-.454-.01-.732-.031-.835-.02-.105-.054-.177-.101-.215a.252.252 0 0 0-.172-.057.82.82 0 0 0-.29.07l-.074-.154 1.2-.492h.197Zm1.797 3.74c-.002.597.143 1.066.436 1.406.293.34.637.51 1.032.51.264 0 .492-.072.686-.216.196-.146.36-.395.492-.747l.136.088a2.1 2.1 0 0 1-.536 1.099 1.435 1.435 0 0 1-1.112.492c-.483 0-.898-.188-1.243-.563-.343-.377-.515-.884-.515-1.52 0-.688.176-1.225.528-1.608a1.73 1.73 0 0 1 1.331-.58c.452 0 .822.149 1.112.448.29.296.435.693.435 1.19h-2.782Zm0-.255h1.864c-.015-.258-.046-.44-.093-.545a.868.868 0 0 0-.33-.387.815.815 0 0 0-.452-.14.91.91 0 0 0-.655.285c-.19.188-.301.45-.334.787Zm5.604 2.184c-.414.32-.673.504-.778.554-.159.073-.327.11-.506.11a.913.913 0 0 1-.69-.286c-.178-.19-.268-.441-.268-.752 0-.196.044-.366.132-.51.12-.199.328-.386.624-.562.299-.176.794-.39 1.486-.642v-.158c0-.401-.065-.676-.194-.826-.126-.15-.31-.224-.554-.224a.624.624 0 0 0-.44.15.45.45 0 0 0-.166.342l.009.255c0 .135-.035.239-.106.312a.347.347 0 0 1-.268.11.349.349 0 0 1-.268-.114.455.455 0 0 1-.1-.312c0-.252.128-.484.386-.695.258-.21.62-.316 1.085-.316.358 0 .65.06.88.18.172.091.3.233.382.426.052.126.079.384.079.774v1.367c0 .383.007.62.022.707.014.085.038.142.07.171a.18.18 0 0 0 .118.044.24.24 0 0 0 .124-.03c.061-.038.18-.145.355-.321v.246c-.328.44-.641.66-.94.66a.428.428 0 0 1-.343-.15c-.085-.1-.129-.27-.131-.51Zm0-.286v-1.533c-.443.175-.729.3-.857.373-.232.129-.397.264-.497.404a.78.78 0 0 0-.15.462.76.76 0 0 0 .19.527.575.575 0 0 0 .435.207c.222 0 .515-.147.879-.44Zm1.511-3.16h1.894v.163h-.123a.38.38 0 0 0-.264.084.295.295 0 0 0-.087.224c0 .102.03.224.092.365l.936 2.223.94-2.307c.068-.164.101-.288.101-.373a.146.146 0 0 0-.035-.102.23.23 0 0 0-.123-.087 1.102 1.102 0 0 0-.303-.027v-.162h1.314v.162c-.152.012-.258.043-.316.093-.103.087-.195.234-.277.439l-1.428 3.454h-.18l-1.438-3.397a1.264 1.264 0 0 0-.184-.338.712.712 0 0 0-.224-.176 1.097 1.097 0 0 0-.295-.075v-.162Zm5.383 1.517c-.002.597.143 1.066.436 1.406.292.34.637.51 1.032.51.264 0 .492-.072.686-.216.196-.146.36-.395.492-.747l.136.088a2.1 2.1 0 0 1-.536 1.099 1.434 1.434 0 0 1-1.112.492c-.483 0-.898-.188-1.243-.563-.343-.377-.514-.884-.514-1.52 0-.688.175-1.225.527-1.608a1.73 1.73 0 0 1 1.331-.58c.451 0 .822.149 1.112.448.29.296.435.693.435 1.19H94.98Zm0-.255h1.864c-.015-.258-.046-.44-.093-.545a.868.868 0 0 0-.33-.387.815.815 0 0 0-.452-.14.91.91 0 0 0-.654.285c-.191.188-.302.45-.334.787Zm5.924-1.38v1.371h-.145c-.111-.43-.255-.724-.43-.879a.957.957 0 0 0-.664-.233.735.735 0 0 0-.496.163c-.127.108-.19.228-.19.36 0 .164.047.305.141.422.091.12.275.248.554.382l.641.312c.595.29.893.673.893 1.147 0 .367-.14.663-.418.888a1.436 1.436 0 0 1-.927.334c-.246 0-.527-.044-.844-.132a.857.857 0 0 0-.237-.044c-.068 0-.12.038-.158.114h-.145v-1.437h.145c.082.41.238.72.47.928.231.208.49.312.778.312a.694.694 0 0 0 .492-.176.568.568 0 0 0 .193-.43.68.68 0 0 0-.215-.51c-.141-.138-.423-.313-.848-.523-.425-.211-.703-.402-.835-.572a.99.99 0 0 1-.198-.633c0-.33.113-.607.338-.83.229-.223.523-.334.884-.334.158 0 .35.034.575.101.15.044.249.066.299.066.047 0 .084-.01.11-.03a.426.426 0 0 0 .092-.137h.145Zm-72.479 17.185v.163a.749.749 0 0 0-.378.083.827.827 0 0 0-.276.312c-.06.103-.151.347-.277.734l-1.662 4.803h-.175l-1.358-3.81-1.35 3.81h-.157l-1.771-4.948a8.403 8.403 0 0 0-.251-.655.564.564 0 0 0-.242-.246.838.838 0 0 0-.408-.083v-.163h2.206v.163h-.106c-.155 0-.274.035-.356.105a.323.323 0 0 0-.123.255c0 .103.065.338.194.707l1.173 3.345.989-2.844-.176-.501-.14-.399a2.152 2.152 0 0 0-.207-.387.53.53 0 0 0-.14-.141.797.797 0 0 0-.22-.114.94.94 0 0 0-.264-.026v-.163h2.32v.163h-.158c-.164 0-.284.035-.36.105a.37.37 0 0 0-.115.286c0 .149.066.41.198.782l1.143 3.239 1.133-3.283c.13-.363.194-.615.194-.756a.311.311 0 0 0-.066-.189.333.333 0 0 0-.158-.123 1.283 1.283 0 0 0-.435-.061v-.163h1.78Zm1.916 5.379c-.413.319-.672.504-.777.554a1.191 1.191 0 0 1-.506.109.914.914 0 0 1-.69-.285c-.178-.191-.268-.441-.268-.752 0-.196.044-.366.132-.509.12-.2.328-.387.624-.563.299-.176.794-.39 1.485-.641v-.159c0-.401-.064-.676-.193-.826-.126-.149-.31-.224-.554-.224a.627.627 0 0 0-.44.149.45.45 0 0 0-.166.343l.009.255a.433.433 0 0 1-.106.312.348.348 0 0 1-.268.11.35.35 0 0 1-.268-.114.454.454 0 0 1-.101-.312c0-.252.129-.484.387-.695.258-.211.62-.316 1.085-.316.357 0 .65.06.879.18a.83.83 0 0 1 .382.426c.053.126.08.384.08.774v1.367c0 .383.007.619.021.707.015.085.038.142.07.171a.18.18 0 0 0 .12.044c.046 0 .087-.01.122-.03a2.73 2.73 0 0 0 .356-.321v.246c-.328.439-.641.659-.94.659a.429.429 0 0 1-.343-.149c-.085-.1-.129-.27-.132-.51Zm0-.286v-1.533c-.442.175-.728.3-.857.373-.231.129-.397.264-.496.404a.784.784 0 0 0-.15.462c0 .211.063.387.19.527a.574.574 0 0 0 .434.207c.223 0 .516-.147.88-.44Zm2.887-4.482v1.323h.941v.307h-.94v2.611c0 .26.036.436.11.527a.362.362 0 0 0 .29.136.51.51 0 0 0 .28-.088.592.592 0 0 0 .212-.268h.171c-.102.287-.247.504-.435.651a.947.947 0 0 1-.58.215.794.794 0 0 1-.396-.11.69.69 0 0 1-.285-.321c-.062-.14-.093-.356-.093-.646v-2.707h-.637v-.145c.161-.064.325-.173.492-.325.17-.155.321-.338.453-.549a4.98 4.98 0 0 0 .281-.611h.136Zm2.013 2.839c-.003.597.142 1.066.435 1.406.293.34.638.51 1.033.51.264 0 .492-.072.686-.216.196-.146.36-.395.492-.747l.136.088c-.062.402-.24.768-.536 1.099a1.435 1.435 0 0 1-1.112.492c-.483 0-.898-.187-1.244-.562-.342-.378-.514-.885-.514-1.521 0-.688.176-1.225.528-1.608a1.73 1.73 0 0 1 1.331-.58c.451 0 .822.149 1.112.448.29.296.435.693.435 1.191H35.24Zm0-.255h1.863c-.014-.258-.045-.44-.092-.545a.87.87 0 0 0-.33-.387.812.812 0 0 0-.452-.14.911.911 0 0 0-.655.285c-.19.188-.301.45-.334.787Zm4.5-1.38v.905c.337-.603.683-.905 1.037-.905.161 0 .295.05.4.149.106.097.158.21.158.339a.402.402 0 0 1-.114.29.365.365 0 0 1-.272.118c-.103 0-.218-.049-.347-.149-.126-.103-.22-.154-.282-.154-.052 0-.11.03-.171.088-.132.12-.268.318-.409.593v1.93c0 .222.028.391.084.505a.458.458 0 0 0 .202.198.898.898 0 0 0 .417.079V115h-2.06v-.158c.204 0 .357-.032.456-.097a.374.374 0 0 0 .154-.224c.015-.05.022-.192.022-.426v-1.56c0-.469-.01-.747-.03-.835a.316.316 0 0 0-.106-.198.288.288 0 0 0-.19-.062.868.868 0 0 0-.307.066l-.044-.158 1.218-.492h.184Zm5.238-1.204v1.323h.94v.307h-.94v2.611c0 .26.037.436.11.527a.361.361 0 0 0 .29.136.51.51 0 0 0 .282-.088.592.592 0 0 0 .21-.268h.172c-.102.287-.248.504-.435.651a.947.947 0 0 1-.58.215.795.795 0 0 1-.396-.11.69.69 0 0 1-.285-.321c-.062-.14-.093-.356-.093-.646v-2.707h-.637v-.145c.161-.064.325-.173.492-.325.17-.155.321-.338.453-.549a5.02 5.02 0 0 0 .281-.611h.136Zm2.519-.901v2.944c.325-.357.583-.586.773-.685.19-.103.38-.154.571-.154.229 0 .425.063.59.189.163.126.285.324.364.593.056.188.083.53.083 1.029v1.423c0 .255.02.43.062.523a.34.34 0 0 0 .15.167c.07.041.199.062.386.062V115H48.5v-.158h.092c.187 0 .318-.028.39-.084a.462.462 0 0 0 .155-.255c.008-.046.013-.184.013-.413v-1.423c0-.44-.023-.729-.07-.866a.564.564 0 0 0-.576-.413c-.144 0-.293.038-.448.114-.156.076-.342.23-.558.461v2.127c0 .276.014.447.044.514a.4.4 0 0 0 .17.172c.086.044.23.066.436.066V115h-1.995v-.158c.179 0 .32-.028.422-.084a.313.313 0 0 0 .14-.167c.035-.082.053-.249.053-.501v-3.643c0-.46-.012-.742-.035-.848-.02-.105-.054-.177-.101-.215a.266.266 0 0 0-.18-.057c-.062 0-.161.023-.3.07l-.06-.154 1.203-.492h.203Zm3.994 3.74c-.003.597.142 1.066.435 1.406.293.34.637.51 1.033.51.264 0 .492-.072.685-.216.197-.146.36-.395.493-.747l.136.088c-.062.402-.24.768-.536 1.099a1.435 1.435 0 0 1-1.112.492c-.483 0-.898-.187-1.244-.562-.342-.378-.514-.885-.514-1.521 0-.688.176-1.225.528-1.608a1.73 1.73 0 0 1 1.331-.58c.451 0 .822.149 1.112.448.29.296.435.693.435 1.191H51.49Zm0-.255h1.864c-.015-.258-.046-.44-.093-.545a.87.87 0 0 0-.33-.387.812.812 0 0 0-.452-.14.911.911 0 0 0-.655.285c-.19.188-.302.45-.334.787Zm7.146-.945v2.646c0 .375.04.612.123.711a.54.54 0 0 0 .435.194h.365V115h-2.404v-.158h.18c.117 0 .224-.03.32-.088a.45.45 0 0 0 .199-.237c.038-.1.057-.293.057-.58v-2.646h-.783v-.316h.783v-.264c0-.401.064-.741.193-1.02.129-.278.325-.502.589-.672.266-.173.565-.259.896-.259.308 0 .59.099.848.299.17.131.255.279.255.443a.36.36 0 0 1-.114.251.345.345 0 0 1-.246.114.412.412 0 0 1-.215-.07c-.074-.05-.164-.154-.273-.312-.108-.161-.208-.27-.299-.325a.566.566 0 0 0-.303-.084.541.541 0 0 0-.343.11.593.593 0 0 0-.202.334c-.04.149-.061.538-.061 1.165v.29h1.037v.316h-1.037Zm2.808-2.54v5.339c0 .252.017.419.053.501a.414.414 0 0 0 .17.189c.077.041.22.062.427.062V115h-1.973v-.158c.185 0 .31-.019.378-.057a.38.38 0 0 0 .158-.189c.038-.088.057-.257.057-.506v-3.656c0-.454-.01-.732-.03-.835-.02-.105-.055-.177-.102-.215a.253.253 0 0 0-.17-.057.816.816 0 0 0-.29.07l-.076-.154 1.2-.492h.198Zm3.09 2.105c.609 0 1.098.231 1.467.694.313.396.47.85.47 1.363 0 .36-.086.725-.26 1.094a1.89 1.89 0 0 1-.715.835 1.88 1.88 0 0 1-1.011.281c-.607 0-1.089-.242-1.446-.725a2.246 2.246 0 0 1-.453-1.371c0-.369.091-.735.273-1.099a1.841 1.841 0 0 1 1.674-1.072Zm-.137.286a.914.914 0 0 0-.47.14c-.155.091-.281.252-.378.484-.097.231-.145.528-.145.892 0 .586.115 1.091.347 1.516.234.425.542.637.923.637a.857.857 0 0 0 .703-.352c.184-.234.277-.637.277-1.208 0-.715-.154-1.277-.462-1.688-.208-.281-.473-.421-.795-.421Zm2.443-.167h1.688v.162c-.155.012-.258.04-.308.084-.047.044-.07.107-.07.189 0 .09.025.2.075.329l.86 2.316.867-1.885-.229-.593c-.07-.176-.163-.298-.277-.365-.064-.041-.184-.066-.36-.075v-.162h1.916v.162c-.211.009-.36.047-.448.114-.059.047-.088.122-.088.225 0 .058.011.118.035.18l.914 2.311.848-2.228c.059-.158.088-.284.088-.378 0-.055-.03-.105-.088-.149-.055-.044-.167-.069-.334-.075v-.162h1.27v.162c-.255.038-.442.211-.562.519l-1.345 3.467h-.18l-1.007-2.571-1.173 2.571h-.163l-1.291-3.384c-.085-.214-.169-.357-.251-.43-.082-.077-.21-.134-.387-.172v-.162Zm7.405 1.516c-.003.597.142 1.066.435 1.406.293.34.637.51 1.033.51.264 0 .492-.072.685-.216.197-.146.36-.395.493-.747l.136.088c-.062.402-.24.768-.536 1.099a1.435 1.435 0 0 1-1.112.492c-.483 0-.898-.187-1.244-.562-.343-.378-.514-.885-.514-1.521 0-.688.176-1.225.527-1.608a1.73 1.73 0 0 1 1.332-.58c.451 0 .822.149 1.112.448.29.296.435.693.435 1.191h-2.782Zm0-.255h1.863c-.014-.258-.045-.44-.092-.545a.87.87 0 0 0-.33-.387.812.812 0 0 0-.452-.14.911.911 0 0 0-.655.285c-.19.188-.302.45-.334.787Zm4.5-1.38v.905c.337-.603.683-.905 1.037-.905.161 0 .295.05.4.149.106.097.158.21.158.339a.403.403 0 0 1-.114.29.365.365 0 0 1-.272.118c-.103 0-.219-.049-.348-.149-.126-.103-.22-.154-.28-.154-.054 0-.11.03-.172.088-.132.12-.268.318-.409.593v1.93c0 .222.028.391.084.505a.458.458 0 0 0 .202.198c.096.052.236.079.417.079V115h-2.06v-.158c.204 0 .357-.032.456-.097a.374.374 0 0 0 .154-.224c.015-.05.022-.192.022-.426v-1.56c0-.469-.01-.747-.03-.835a.315.315 0 0 0-.106-.198.288.288 0 0 0-.19-.062.868.868 0 0 0-.307.066l-.044-.158 1.218-.492h.184Zm4.421 0v1.371h-.145c-.111-.431-.255-.724-.43-.879a.957.957 0 0 0-.664-.233.732.732 0 0 0-.497.163c-.126.108-.189.228-.189.36 0 .164.047.305.14.422.092.12.276.248.554.382l.642.312c.595.29.892.673.892 1.147 0 .367-.139.662-.417.888a1.435 1.435 0 0 1-.927.334c-.247 0-.528-.044-.844-.132a.868.868 0 0 0-.238-.044c-.067 0-.12.038-.158.115h-.145v-1.437h.145c.082.41.239.719.47.927.232.208.491.312.778.312a.695.695 0 0 0 .492-.176.569.569 0 0 0 .194-.431.676.676 0 0 0-.215-.509c-.141-.138-.424-.312-.849-.523-.424-.211-.703-.402-.835-.572a.99.99 0 0 1-.197-.632c0-.332.112-.608.338-.831.228-.223.523-.334.883-.334.159 0 .35.034.576.101.15.044.249.066.299.066.047 0 .083-.01.11-.031a.418.418 0 0 0 .092-.136h.145ZM20 80h260v.5H20zm5.831 56.278 3.26 4.081c.461.575.858.964 1.19 1.169.242.146.497.219.766.219V142H26.22v-.253c.305-.027.501-.075.588-.143a.308.308 0 0 0 .136-.253c0-.192-.21-.552-.629-1.08l-2.126-2.673-.341.287v2.529c0 .483.027.784.082.902.054.119.16.221.314.308.155.082.403.123.745.123V142h-4.675v-.253h.307c.269 0 .485-.048.65-.143a.625.625 0 0 0 .273-.329c.05-.109.075-.396.075-.861v-6.098c0-.474-.025-.77-.075-.888-.05-.119-.153-.221-.308-.308-.15-.091-.355-.137-.615-.137h-.308v-.253h4.615v.253c-.315 0-.554.046-.718.137a.657.657 0 0 0-.28.321c-.055.114-.082.406-.082.875v2.885l3.438-2.782c.479-.387.718-.697.718-.93 0-.173-.098-.31-.294-.41-.1-.05-.349-.082-.745-.096v-.253h3.616v.253c-.323.023-.579.082-.766.178-.182.091-.606.406-1.271.943l-2.714 2.174Zm7.075-3.766c.297 0 .547.105.752.314.205.205.308.454.308.745 0 .292-.105.54-.315.745a1.016 1.016 0 0 1-.745.308c-.291 0-.54-.103-.745-.308a1.014 1.014 0 0 1-.308-.745c0-.291.103-.54.308-.745.205-.209.454-.314.745-.314Zm.957 3.096v5.066c0 .451.053.74.157.868.105.123.31.194.616.212V142h-3.452v-.246c.282-.009.492-.091.628-.246.092-.105.137-.383.137-.834v-3.733c0-.451-.052-.738-.157-.861-.105-.128-.308-.2-.608-.219v-.253h2.68Zm3.938-2.337v2.337h1.517v.677h-1.517v3.944c0 .37.016.609.048.718a.556.556 0 0 0 .184.26.414.414 0 0 0 .24.096c.296 0 .576-.226.84-.677l.205.15c-.369.875-.968 1.313-1.797 1.313-.406 0-.75-.112-1.033-.335-.278-.228-.455-.481-.533-.759-.045-.155-.068-.574-.068-1.258v-3.452h-.834v-.239a8.74 8.74 0 0 0 1.463-1.278 7.726 7.726 0 0 0 1.06-1.497h.225Zm7.342 7.082.212.164c-.301.565-.677.986-1.128 1.264-.447.274-.923.41-1.43.41-.851 0-1.533-.321-2.043-.963-.51-.643-.766-1.416-.766-2.318 0-.87.233-1.636.697-2.297.561-.797 1.334-1.196 2.318-1.196.66 0 1.185.166 1.572.499.392.333.588.704.588 1.114 0 .26-.08.467-.24.622-.154.155-.36.233-.614.233a.908.908 0 0 1-.67-.267c-.174-.178-.28-.494-.322-.95-.027-.287-.093-.488-.198-.602a.485.485 0 0 0-.369-.17c-.219 0-.406.116-.56.348-.237.351-.356.889-.356 1.613 0 .602.096 1.178.287 1.73.191.547.453.955.786 1.224a1.4 1.4 0 0 0 .889.293c.223 0 .435-.052.636-.157.2-.105.437-.303.71-.594Zm3.616-7.623v3.699c.35-.369.672-.629.964-.78.291-.155.594-.232.909-.232.4 0 .743.114 1.025.342.287.228.477.497.568.806.095.306.143.823.143 1.552v2.495c0 .488.046.793.137.916.091.119.276.194.554.226V142h-3.24v-.246c.227-.032.398-.123.512-.274.082-.118.123-.407.123-.868v-2.85c0-.529-.02-.859-.061-.991a.581.581 0 0 0-.212-.315.51.51 0 0 0-.328-.116.893.893 0 0 0-.534.191c-.173.123-.36.342-.56.657v3.424c0 .456.034.741.102.855.087.155.265.25.534.287V142h-3.24v-.246c.268-.027.46-.114.573-.26.078-.1.117-.394.117-.882v-6.494c0-.483-.046-.784-.137-.902-.087-.119-.271-.196-.554-.233v-.253h2.605Zm10.596 5.845h-3.507c.04.848.266 1.518.676 2.01.315.378.693.567 1.135.567.274 0 .522-.075.745-.225.224-.155.463-.431.718-.827l.233.15c-.347.706-.73 1.208-1.149 1.504-.42.292-.905.437-1.456.437-.948 0-1.666-.364-2.153-1.093-.392-.588-.588-1.317-.588-2.188 0-1.066.287-1.914.861-2.543.579-.633 1.256-.95 2.03-.95.648 0 1.208.267 1.682.8.478.528.736 1.315.773 2.358Zm-1.682-.458c0-.734-.041-1.237-.123-1.511-.078-.273-.2-.48-.37-.622a.568.568 0 0 0-.382-.123c-.237 0-.43.117-.581.349-.27.406-.404.962-.404 1.668v.239h1.86Zm5.1-2.509v.828c.328-.356.642-.613.943-.773.3-.164.624-.246.97-.246.415 0 .76.116 1.033.349.273.227.456.512.547.854.072.26.109.759.109 1.497v2.488c0 .493.043.8.13.923.091.119.278.194.56.226V142h-3.233v-.246c.242-.032.415-.132.52-.301.072-.114.109-.396.109-.848v-2.843c0-.524-.02-.855-.062-.991a.58.58 0 0 0-.212-.315.5.5 0 0 0-.32-.116c-.393 0-.757.28-1.094.841v3.424c0 .479.043.782.13.91.09.127.257.207.498.239V142h-3.233v-.246c.269-.027.46-.114.574-.26.078-.1.116-.396.116-.889v-3.609c0-.483-.045-.784-.136-.902-.087-.119-.272-.196-.554-.233v-.253h2.605Zm-38.77 30.232c.566.132.963.292 1.191.479.329.267.492.613.492 1.037 0 .449-.18.819-.54 1.112-.442.355-1.085.532-1.93.532H20.19v-.163c.275 0 .461-.025.558-.074.1-.053.169-.12.207-.202.04-.082.061-.285.061-.607v-3.867c0-.322-.02-.525-.061-.607a.425.425 0 0 0-.207-.202c-.1-.049-.286-.074-.558-.074v-.163h2.856c.683 0 1.166.062 1.45.185.285.12.509.301.673.545.164.24.246.496.246.769 0 .287-.104.543-.312.769-.208.222-.574.399-1.099.531Zm-1.6-.118c.417 0 .723-.047.92-.141.198-.094.35-.226.456-.395.106-.17.159-.387.159-.651s-.053-.479-.159-.646a.974.974 0 0 0-.444-.387c-.193-.087-.504-.13-.931-.127v2.347Zm0 .342v1.912l-.004.22c0 .158.04.278.12.36.081.079.201.119.36.119.234 0 .45-.051.645-.154.2-.105.352-.256.457-.453.106-.199.159-.42.159-.663 0-.279-.065-.528-.194-.747a1.04 1.04 0 0 0-.531-.466c-.226-.088-.563-.13-1.011-.128Zm6.17 2.33c-.5.442-.95.663-1.348.663a.802.802 0 0 1-.585-.228.79.79 0 0 1-.233-.58c0-.314.135-.595.404-.844.27-.252.858-.586 1.763-1.002v-.413c0-.311-.018-.506-.053-.585a.447.447 0 0 0-.189-.211.568.568 0 0 0-.316-.092.817.817 0 0 0-.47.127c-.077.053-.115.115-.115.185 0 .062.041.138.123.229.112.126.167.247.167.364a.488.488 0 0 1-.162.369.582.582 0 0 1-.418.15.68.68 0 0 1-.466-.167.512.512 0 0 1-.184-.391c0-.211.083-.412.25-.602.167-.194.4-.342.699-.444.299-.103.61-.154.932-.154.39 0 .697.084.922.251.229.164.377.342.444.536.041.123.062.405.062.848v1.595c0 .188.007.306.022.356a.207.207 0 0 0 .066.105.154.154 0 0 0 .1.036c.077 0 .155-.055.234-.163l.131.106a1.63 1.63 0 0 1-.457.474.982.982 0 0 1-.531.145c-.235 0-.418-.054-.55-.162-.131-.112-.212-.279-.241-.501Zm0-.321v-1.376c-.354.208-.617.431-.79.668a.813.813 0 0 0-.172.479c0 .135.049.254.145.356a.4.4 0 0 0 .308.119c.146 0 .316-.082.51-.246Zm3.903-5.032v3.92l.954-.936c.196-.191.318-.328.364-.413a.487.487 0 0 0 .075-.246.246.246 0 0 0-.096-.198c-.065-.053-.191-.091-.379-.114v-.163h1.842v.163c-.176.008-.33.051-.462.127-.131.073-.39.298-.773.673l-.448.439.967 1.415c.39.574.62.896.694.967.1.099.226.155.378.167V169h-2.123v-.158c.094 0 .161-.018.202-.053.044-.035.066-.073.066-.114 0-.068-.061-.192-.184-.374l-.813-1.191-.264.26v.738c0 .313.03.51.088.589.059.076.179.124.36.145V169h-2.122v-.158c.173-.018.296-.073.369-.167.05-.065.075-.254.075-.567v-4.175c0-.31-.03-.504-.088-.58-.056-.076-.175-.126-.356-.149v-.163h1.674Zm6.82 3.757h-2.254c.026.545.171.976.435 1.292.202.243.445.365.73.365a.836.836 0 0 0 .478-.145c.144-.1.298-.277.462-.532l.15.097c-.223.454-.47.776-.739.967-.27.187-.581.281-.936.281-.61 0-1.07-.234-1.384-.703-.252-.378-.378-.847-.378-1.406 0-.686.184-1.231.554-1.635.372-.407.807-.611 1.305-.611.416 0 .776.171 1.08.514.308.34.474.845.497 1.516Zm-1.08-.294c0-.472-.027-.796-.08-.971a.783.783 0 0 0-.237-.4.364.364 0 0 0-.246-.079c-.152 0-.277.074-.374.224-.173.261-.259.618-.259 1.072v.154h1.195Zm9.228.404L47.22 169h-5.291v-.163h.197a.82.82 0 0 0 .418-.092.399.399 0 0 0 .176-.211c.032-.07.048-.255.048-.554v-3.919c0-.305-.016-.496-.048-.572a.424.424 0 0 0-.198-.197.757.757 0 0 0-.395-.088h-.198v-.163h3.177v.163h-.26a.82.82 0 0 0-.417.092.419.419 0 0 0-.18.211c-.032.07-.048.255-.048.554v3.796c0 .305.017.5.052.585a.351.351 0 0 0 .207.184c.073.027.25.04.532.04h.496c.317 0 .58-.056.791-.167.211-.111.393-.287.545-.527.156-.241.302-.595.44-1.064h.18Zm4.104-.11h-2.254c.026.545.171.976.435 1.292.202.243.445.365.73.365a.836.836 0 0 0 .478-.145c.144-.1.298-.277.462-.532l.15.097c-.223.454-.47.776-.739.967-.27.187-.582.281-.936.281-.61 0-1.07-.234-1.384-.703-.252-.378-.378-.847-.378-1.406 0-.686.184-1.231.553-1.635.373-.407.808-.611 1.306-.611.416 0 .776.171 1.08.514.308.34.474.845.497 1.516Zm-1.08-.294c0-.472-.027-.796-.08-.971a.783.783 0 0 0-.237-.4.364.364 0 0 0-.246-.079c-.153 0-.277.074-.374.224-.173.261-.259.618-.259 1.072v.154h1.195Zm3.537-1.736c.357 0 .69.092.997.277.308.184.541.447.7.787.16.339.24.711.24 1.116 0 .583-.147 1.071-.443 1.463-.357.475-.851.712-1.48.712-.62 0-1.095-.217-1.43-.65a2.403 2.403 0 0 1-.5-1.508c0-.589.17-1.101.51-1.538.342-.439.811-.659 1.406-.659Zm.017.312a.516.516 0 0 0-.386.171c-.106.112-.176.334-.211.668-.032.331-.048.793-.048 1.385 0 .313.02.606.061.879.032.208.101.366.206.474a.489.489 0 0 0 .36.163.499.499 0 0 0 .33-.11.74.74 0 0 0 .229-.418c.059-.278.088-.84.088-1.687 0-.498-.028-.839-.084-1.024-.055-.187-.137-.324-.246-.409a.464.464 0 0 0-.298-.092Zm3.068.752v-.194c.34-.146.586-.335.738-.567a1.29 1.29 0 0 0 .233-.72.174.174 0 0 0-.03-.11c-.021-.024-.042-.035-.062-.035a.186.186 0 0 0-.08.03.615.615 0 0 1-.316.075.606.606 0 0 1-.452-.202.698.698 0 0 1 .03-.984.723.723 0 0 1 .532-.22c.252 0 .467.098.646.294.179.194.268.46.268.8 0 .419-.127.791-.382 1.116-.252.325-.627.564-1.125.717Zm4.737-1.055.066 1.402h-.15c-.178-.416-.364-.7-.558-.853-.19-.152-.38-.228-.57-.228a.427.427 0 0 0-.308.123.367.367 0 0 0-.128.277c0 .079.03.155.088.228.094.12.356.327.787.62.43.29.713.537.848.742.138.203.206.43.206.682 0 .228-.057.452-.171.672-.114.22-.275.388-.483.505a1.383 1.383 0 0 1-.69.176c-.197 0-.459-.061-.787-.185a.659.659 0 0 0-.18-.048c-.097 0-.177.073-.242.22h-.145l-.07-1.477h.15c.131.387.311.677.54.87.231.194.45.29.655.29a.47.47 0 0 0 .342-.127.424.424 0 0 0 .137-.316.541.541 0 0 0-.132-.365c-.088-.103-.284-.258-.59-.466-.447-.311-.737-.548-.87-.712a1.238 1.238 0 0 1-.29-.795c0-.317.11-.602.326-.857.22-.258.536-.387.95-.387.222 0 .437.054.645.163.08.044.144.066.194.066a.239.239 0 0 0 .127-.031.938.938 0 0 0 .154-.189h.15Zm4.75-1.736v2.263c.346-.357.724-.536 1.134-.536.282 0 .547.084.796.251.249.164.444.398.584.703.14.304.211.656.211 1.054 0 .449-.09.856-.268 1.222a2.027 2.027 0 0 1-.716.839 1.86 1.86 0 0 1-1.024.286 1.57 1.57 0 0 1-.593-.105 1.677 1.677 0 0 1-.51-.343l-.681.444h-.15v-5.225c0-.238-.01-.384-.03-.44a.327.327 0 0 0-.141-.18c-.062-.041-.167-.065-.316-.07v-.163h1.705Zm0 2.654v1.828c0 .373.01.61.027.712.03.173.1.314.21.422a.593.593 0 0 0 .427.158.59.59 0 0 0 .383-.127c.108-.085.197-.253.268-.505.073-.252.11-.706.11-1.363 0-.63-.08-1.062-.238-1.296a.53.53 0 0 0-.461-.255c-.252 0-.494.142-.725.426Zm4.408-2.795a.65.65 0 0 1 .484.203.65.65 0 0 1 .198.479.647.647 0 0 1-.203.479.655.655 0 0 1-.479.197.655.655 0 0 1-.479-.197.654.654 0 0 1-.197-.479.65.65 0 0 1 .197-.479.646.646 0 0 1 .48-.203Zm.616 1.991v3.256c0 .291.033.477.1.559.068.079.2.124.396.136V169h-2.22v-.158c.183-.006.317-.059.405-.158.059-.068.088-.246.088-.537v-2.399c0-.29-.034-.475-.101-.554-.067-.082-.198-.129-.391-.14v-.163H71.6Zm2.606 0v.932c.272-.425.51-.706.716-.844.205-.141.403-.211.593-.211a.51.51 0 0 1 .391.154c.1.099.15.242.15.426 0 .196-.049.349-.145.457a.435.435 0 0 1-.343.163.594.594 0 0 1-.404-.15 2.706 2.706 0 0 0-.203-.167.198.198 0 0 0-.1-.026.367.367 0 0 0-.242.097.905.905 0 0 0-.273.426c-.094.284-.14.598-.14.94v.945l.004.246c0 .167.01.274.03.321a.365.365 0 0 0 .154.176.97.97 0 0 0 .352.066V169h-2.22v-.158c.18-.015.3-.063.361-.145.065-.085.097-.306.097-.664v-2.272c0-.234-.012-.384-.035-.448a.353.353 0 0 0-.128-.18.67.67 0 0 0-.294-.079v-.163h1.678Zm3.924-1.503v1.503h.975v.435h-.975v2.536c0 .237.01.391.03.461a.356.356 0 0 0 .12.167.267.267 0 0 0 .153.062c.19 0 .37-.145.54-.435l.132.096c-.237.563-.622.844-1.155.844a1.04 1.04 0 0 1-.664-.215.977.977 0 0 1-.343-.488c-.029-.1-.044-.369-.044-.809v-2.219h-.536v-.154c.37-.26.683-.534.94-.821.261-.288.489-.608.682-.963h.145Zm3.045-.347v2.377c.226-.237.432-.404.62-.501.187-.099.382-.149.584-.149.258 0 .478.073.66.22.184.146.306.319.364.518.062.197.093.529.093.998v1.604c0 .313.029.51.088.589.058.076.177.124.355.145V169h-2.083v-.158a.476.476 0 0 0 .33-.176c.053-.076.08-.262.08-.558v-1.833c0-.339-.014-.552-.04-.637a.373.373 0 0 0-.137-.202.325.325 0 0 0-.21-.075.572.572 0 0 0-.343.123c-.112.079-.232.22-.36.422v2.202c0 .293.021.476.065.549.056.1.17.161.343.185V169h-2.083v-.158c.173-.018.296-.073.37-.167.049-.065.074-.254.074-.567v-4.175c0-.31-.03-.504-.088-.58-.056-.076-.174-.126-.356-.149v-.163h1.674Zm7.326 0v4.729c0 .319.009.508.026.566a.36.36 0 0 0 .132.216c.068.047.183.076.347.088v.145l-1.736.338v-.65c-.207.252-.394.423-.558.514a1.097 1.097 0 0 1-.549.136c-.524 0-.939-.234-1.244-.703-.246-.381-.369-.848-.369-1.402 0-.442.076-.838.229-1.186.152-.352.36-.617.624-.796.266-.179.552-.268.857-.268.196 0 .37.038.523.114.152.076.315.21.487.4v-1.239c0-.314-.013-.502-.04-.567a.377.377 0 0 0-.157-.189c-.07-.041-.202-.061-.396-.061v-.185h1.824Zm-1.23 2.786c-.217-.416-.482-.624-.796-.624a.403.403 0 0 0-.268.088c-.108.091-.198.251-.268.479-.067.229-.101.579-.101 1.05 0 .519.038.903.114 1.152.076.249.18.429.312.54a.42.42 0 0 0 .277.084c.258 0 .501-.202.73-.607v-2.162Zm4.513 2.567c-.501.442-.951.663-1.35.663a.802.802 0 0 1-.584-.228.789.789 0 0 1-.233-.58c0-.314.135-.595.404-.844.27-.252.857-.586 1.763-1.002v-.413c0-.311-.018-.506-.053-.585a.447.447 0 0 0-.189-.211.568.568 0 0 0-.316-.092.817.817 0 0 0-.47.127c-.077.053-.115.115-.115.185 0 .062.041.138.123.229.111.126.167.247.167.364a.488.488 0 0 1-.163.369.582.582 0 0 1-.417.15.68.68 0 0 1-.466-.167.512.512 0 0 1-.184-.391c0-.211.083-.412.25-.602.167-.194.4-.342.699-.444.299-.103.61-.154.931-.154.39 0 .698.084.923.251.229.164.377.342.444.536.041.123.062.405.062.848v1.595c0 .188.007.306.022.356a.207.207 0 0 0 .066.105.154.154 0 0 0 .1.036c.077 0 .154-.055.234-.163l.131.106a1.63 1.63 0 0 1-.457.474.982.982 0 0 1-.531.145c-.235 0-.418-.054-.55-.162-.132-.112-.212-.279-.241-.501Zm0-.321v-1.376c-.355.208-.618.431-.791.668a.812.812 0 0 0-.172.479c0 .135.049.254.145.356a.399.399 0 0 0 .308.119c.146 0 .316-.082.51-.246Zm4.117 1.094-1.327-3.045c-.199-.46-.347-.743-.444-.849a.74.74 0 0 0-.342-.219v-.163h2.184v.163c-.144.006-.245.033-.304.083a.23.23 0 0 0-.087.18c0 .112.073.331.22.66l.702 1.608.48-1.244c.172-.442.259-.75.259-.923a.329.329 0 0 0-.11-.259c-.07-.064-.197-.099-.378-.105v-.163h1.375v.163a.506.506 0 0 0-.33.158c-.084.088-.226.391-.425.91l-1.174 3.045c-.296.762-.515 1.23-.659 1.406a.945.945 0 0 1-.76.369c-.243 0-.441-.07-.593-.211a.654.654 0 0 1-.225-.501.6.6 0 0 1 .154-.421.51.51 0 0 1 .387-.167c.146 0 .264.046.351.14.091.094.138.239.141.435.003.112.016.183.04.216a.118.118 0 0 0 .1.048c.071 0 .146-.043.225-.127.117-.124.255-.405.413-.844l.127-.343Zm8.218-1.226.136.105c-.193.364-.435.635-.725.813a1.727 1.727 0 0 1-.918.264c-.548 0-.986-.206-1.314-.62-.328-.413-.492-.909-.492-1.489 0-.56.149-1.052.448-1.477.36-.513.857-.769 1.49-.769.424 0 .761.107 1.01.321.252.214.378.453.378.716 0 .167-.051.3-.154.4a.53.53 0 0 1-.395.149.586.586 0 0 1-.431-.171c-.111-.114-.18-.318-.206-.611-.018-.184-.06-.313-.128-.386a.309.309 0 0 0-.237-.11c-.141 0-.261.074-.36.224-.153.225-.229.571-.229 1.037 0 .387.062.757.185 1.112.123.351.291.613.505.786a.9.9 0 0 0 .571.189c.144 0 .28-.033.409-.101.129-.067.281-.195.457-.382Zm2.914.453c-.501.442-.951.663-1.349.663a.802.802 0 0 1-.585-.228.79.79 0 0 1-.233-.58c0-.314.135-.595.404-.844.27-.252.857-.586 1.763-1.002v-.413c0-.311-.018-.506-.053-.585a.445.445 0 0 0-.189-.211.568.568 0 0 0-.316-.092.818.818 0 0 0-.471.127c-.076.053-.114.115-.114.185 0 .062.041.138.123.229.111.126.167.247.167.364a.49.49 0 0 1-.162.369.584.584 0 0 1-.418.15.681.681 0 0 1-.466-.167.512.512 0 0 1-.184-.391c0-.211.083-.412.25-.602.167-.194.4-.342.699-.444.299-.103.609-.154.932-.154.389 0 .697.084.922.251.229.164.377.342.444.536.041.123.062.405.062.848v1.595c0 .188.007.306.022.356a.199.199 0 0 0 .066.105.154.154 0 0 0 .101.036c.076 0 .154-.055.233-.163l.131.106a1.613 1.613 0 0 1-.457.474.98.98 0 0 1-.531.145c-.235 0-.418-.054-.55-.162-.131-.112-.212-.279-.241-.501Zm0-.321v-1.376c-.355.208-.618.431-.791.668a.809.809 0 0 0-.172.479c0 .135.049.254.145.356a.4.4 0 0 0 .308.119c.146 0 .316-.082.51-.246Zm3.902-5.032v3.92l.954-.936c.196-.191.318-.328.364-.413a.486.486 0 0 0 .075-.246.245.245 0 0 0-.097-.198c-.064-.053-.19-.091-.378-.114v-.163h1.842v.163c-.176.008-.33.051-.462.127-.131.073-.389.298-.773.673l-.448.439.966 1.415c.39.574.622.896.695.967a.58.58 0 0 0 .378.167V169h-2.123v-.158c.094 0 .161-.018.202-.053.044-.035.066-.073.066-.114 0-.068-.061-.192-.184-.374l-.813-1.191-.264.26v.738c0 .313.029.51.088.589.059.076.179.124.36.145V169h-2.122v-.158c.173-.018.296-.073.369-.167.05-.065.075-.254.075-.567v-4.175c0-.31-.03-.504-.088-.58-.056-.076-.175-.126-.356-.149v-.163h1.674Zm6.82 3.757h-2.254c.026.545.171.976.435 1.292.202.243.445.365.73.365a.839.839 0 0 0 .479-.145c.143-.1.297-.277.461-.532l.149.097c-.222.454-.468.776-.738.967a1.6 1.6 0 0 1-.936.281c-.609 0-1.071-.234-1.384-.703-.252-.378-.378-.847-.378-1.406 0-.686.184-1.231.554-1.635.372-.407.807-.611 1.305-.611.416 0 .776.171 1.081.514.307.34.473.845.496 1.516Zm-1.081-.294c0-.472-.026-.796-.079-.971a.787.787 0 0 0-.237-.4.365.365 0 0 0-.246-.079c-.153 0-.277.074-.374.224-.173.261-.259.618-.259 1.072v.154h1.195ZM20 153h260v.5H20z" fill="#000"/></svg>