<svg width="300" height="180" viewBox="0 0 300 180" fill="none" xmlns="http://www.w3.org/2000/svg">
<rect width="300" height="180" fill="#F5F5F5"/>
<path d="M113.066 25.7578V29.3418H112.715C112.507 28.515 112.275 27.9225 112.021 27.5645C111.768 27.1999 111.419 26.9102 110.977 26.6953C110.729 26.5781 110.296 26.5195 109.678 26.5195H108.691V36.7344C108.691 37.4115 108.727 37.8346 108.799 38.0039C108.877 38.1732 109.023 38.3229 109.238 38.4531C109.46 38.5768 109.759 38.6387 110.137 38.6387H110.576V39H103.643V38.6387H104.082C104.466 38.6387 104.775 38.5703 105.01 38.4336C105.179 38.3424 105.312 38.1862 105.41 37.9648C105.482 37.8086 105.518 37.3984 105.518 36.7344V26.5195H104.561C103.669 26.5195 103.021 26.7083 102.617 27.0859C102.051 27.6133 101.693 28.3652 101.543 29.3418H101.172V25.7578H113.066ZM116.768 29.8691V31.9395C117.373 30.9954 117.904 30.3704 118.359 30.0645C118.815 29.752 119.255 29.5957 119.678 29.5957C120.042 29.5957 120.332 29.7096 120.547 29.9375C120.768 30.1589 120.879 30.4746 120.879 30.8848C120.879 31.321 120.771 31.6595 120.557 31.9004C120.348 32.1413 120.094 32.2617 119.795 32.2617C119.45 32.2617 119.15 32.151 118.896 31.9297C118.643 31.7083 118.493 31.5846 118.447 31.5586C118.382 31.5195 118.307 31.5 118.223 31.5C118.034 31.5 117.855 31.5716 117.686 31.7148C117.419 31.9362 117.217 32.252 117.08 32.6621C116.872 33.2936 116.768 33.9902 116.768 34.752V36.8516L116.777 37.3984C116.777 37.7695 116.8 38.0072 116.846 38.1113C116.924 38.2871 117.038 38.4173 117.188 38.502C117.344 38.5801 117.604 38.6289 117.969 38.6484V39H113.037V38.6484C113.434 38.6159 113.701 38.5085 113.838 38.3262C113.981 38.1374 114.053 37.6458 114.053 36.8516V31.8027C114.053 31.2819 114.027 30.9499 113.975 30.8066C113.91 30.6243 113.815 30.4909 113.691 30.4062C113.568 30.3216 113.35 30.263 113.037 30.2305V29.8691H116.768ZM126.904 37.6523C125.791 38.6354 124.792 39.127 123.906 39.127C123.385 39.127 122.952 38.9577 122.607 38.6191C122.262 38.2741 122.09 37.8444 122.09 37.3301C122.09 36.6335 122.389 36.0085 122.988 35.4551C123.587 34.8952 124.893 34.153 126.904 33.2285V32.3105C126.904 31.6204 126.865 31.1875 126.787 31.0117C126.715 30.8294 126.576 30.6732 126.367 30.543C126.159 30.4062 125.924 30.3379 125.664 30.3379C125.241 30.3379 124.893 30.4323 124.619 30.6211C124.45 30.7383 124.365 30.875 124.365 31.0312C124.365 31.168 124.456 31.3372 124.639 31.5391C124.886 31.819 125.01 32.0892 125.01 32.3496C125.01 32.6686 124.889 32.9421 124.648 33.1699C124.414 33.3913 124.105 33.502 123.721 33.502C123.311 33.502 122.965 33.3783 122.686 33.1309C122.412 32.8835 122.275 32.5938 122.275 32.2617C122.275 31.793 122.461 31.347 122.832 30.9238C123.203 30.4941 123.721 30.1654 124.385 29.9375C125.049 29.7096 125.739 29.5957 126.455 29.5957C127.321 29.5957 128.005 29.7812 128.506 30.1523C129.014 30.5169 129.342 30.9141 129.492 31.3438C129.583 31.6172 129.629 32.2454 129.629 33.2285V36.7734C129.629 37.1901 129.645 37.4538 129.678 37.5645C129.71 37.6686 129.759 37.7467 129.824 37.7988C129.889 37.8509 129.964 37.877 130.049 37.877C130.218 37.877 130.391 37.7565 130.566 37.5156L130.859 37.75C130.534 38.2318 130.195 38.5833 129.844 38.8047C129.499 39.0195 129.105 39.127 128.662 39.127C128.141 39.127 127.734 39.0065 127.441 38.7656C127.148 38.5182 126.969 38.1471 126.904 37.6523ZM126.904 36.9395V33.8828C126.117 34.3451 125.531 34.8398 125.146 35.3672C124.893 35.7188 124.766 36.0736 124.766 36.4316C124.766 36.7311 124.873 36.9948 125.088 37.2227C125.251 37.3984 125.479 37.4863 125.771 37.4863C126.097 37.4863 126.475 37.304 126.904 36.9395ZM135.986 39.2734L132.91 32.1934C132.539 31.3405 132.249 30.8001 132.041 30.5723C131.891 30.403 131.67 30.2891 131.377 30.2305V29.8691H136.23V30.2305C135.924 30.2305 135.716 30.2858 135.605 30.3965C135.449 30.5397 135.371 30.709 135.371 30.9043C135.371 31.1452 135.514 31.5977 135.801 32.2617L137.305 35.6895L138.506 32.7305C138.851 31.8841 139.023 31.2852 139.023 30.9336C139.023 30.7318 138.949 30.569 138.799 30.4453C138.656 30.3151 138.398 30.2435 138.027 30.2305V29.8691H141.016V30.2305C140.729 30.2695 140.495 30.377 140.312 30.5527C140.13 30.7285 139.857 31.2461 139.492 32.1055L136.445 39.2734H135.986ZM149.6 34.1074H144.59C144.648 35.3184 144.971 36.2754 145.557 36.9785C146.006 37.5189 146.546 37.7891 147.178 37.7891C147.568 37.7891 147.923 37.6816 148.242 37.4668C148.561 37.2454 148.903 36.8516 149.268 36.2852L149.6 36.5C149.105 37.5091 148.558 38.2253 147.959 38.6484C147.36 39.0651 146.667 39.2734 145.879 39.2734C144.525 39.2734 143.499 38.7526 142.803 37.7109C142.243 36.8711 141.963 35.8294 141.963 34.5859C141.963 33.0625 142.373 31.8516 143.193 30.9531C144.02 30.0482 144.987 29.5957 146.094 29.5957C147.018 29.5957 147.819 29.9766 148.496 30.7383C149.18 31.4935 149.548 32.6165 149.6 34.1074ZM147.197 33.4531C147.197 32.4049 147.139 31.6855 147.021 31.2949C146.911 30.9043 146.735 30.6081 146.494 30.4062C146.357 30.2891 146.175 30.2305 145.947 30.2305C145.609 30.2305 145.332 30.3965 145.117 30.7285C144.733 31.3079 144.541 32.1022 144.541 33.1113V33.4531H147.197ZM154.326 25.7578V37.1055C154.326 37.75 154.401 38.1634 154.551 38.3457C154.701 38.5215 154.993 38.6224 155.43 38.6484V39H150.498V38.6484C150.902 38.6354 151.201 38.5182 151.396 38.2969C151.527 38.1471 151.592 37.75 151.592 37.1055V27.6523C151.592 27.0143 151.517 26.6074 151.367 26.4316C151.217 26.2493 150.928 26.1452 150.498 26.1191V25.7578H154.326ZM169.541 31.9785C170.798 32.2715 171.68 32.6263 172.188 33.043C172.917 33.6354 173.281 34.4036 173.281 35.3477C173.281 36.3438 172.881 37.1673 172.08 37.8184C171.097 38.6061 169.668 39 167.793 39H161.064V38.6387C161.676 38.6387 162.09 38.5833 162.305 38.4727C162.526 38.3555 162.679 38.2057 162.764 38.0234C162.855 37.8411 162.9 37.3919 162.9 36.6758V28.082C162.9 27.3659 162.855 26.9167 162.764 26.7344C162.679 26.5456 162.526 26.3958 162.305 26.2852C162.083 26.1745 161.67 26.1191 161.064 26.1191V25.7578H167.412C168.929 25.7578 170.003 25.8945 170.635 26.168C171.266 26.4349 171.764 26.8385 172.129 27.3789C172.493 27.9128 172.676 28.4824 172.676 29.0879C172.676 29.7259 172.445 30.2956 171.982 30.7969C171.52 31.2917 170.706 31.6855 169.541 31.9785ZM165.986 31.7148C166.911 31.7148 167.591 31.6107 168.027 31.4023C168.47 31.194 168.809 30.901 169.043 30.5234C169.277 30.1458 169.395 29.6641 169.395 29.0781C169.395 28.4922 169.277 28.0137 169.043 27.6426C168.815 27.265 168.486 26.9785 168.057 26.7832C167.627 26.5879 166.937 26.4935 165.986 26.5V31.7148ZM165.986 32.4766V36.7246L165.977 37.2129C165.977 37.5645 166.064 37.8314 166.24 38.0137C166.423 38.1895 166.689 38.2773 167.041 38.2773C167.562 38.2773 168.04 38.1634 168.477 37.9355C168.919 37.7012 169.258 37.3659 169.492 36.9297C169.727 36.487 169.844 35.9954 169.844 35.4551C169.844 34.8366 169.701 34.2832 169.414 33.7949C169.128 33.3001 168.734 32.9551 168.232 32.7598C167.731 32.5645 166.982 32.4701 165.986 32.4766ZM178.232 25.7578V37.1055C178.232 37.75 178.307 38.1634 178.457 38.3457C178.607 38.5215 178.9 38.6224 179.336 38.6484V39H174.404V38.6484C174.808 38.6354 175.107 38.5182 175.303 38.2969C175.433 38.1471 175.498 37.75 175.498 37.1055V27.6523C175.498 27.0143 175.423 26.6074 175.273 26.4316C175.124 26.2493 174.834 26.1452 174.404 26.1191V25.7578H178.232ZM184.531 29.5957C185.326 29.5957 186.064 29.8008 186.748 30.2109C187.432 30.6211 187.949 31.2038 188.301 31.959C188.659 32.7142 188.838 33.541 188.838 34.4395C188.838 35.735 188.509 36.819 187.852 37.6914C187.057 38.7461 185.96 39.2734 184.561 39.2734C183.187 39.2734 182.129 38.7917 181.387 37.8281C180.645 36.8646 180.273 35.748 180.273 34.4785C180.273 33.1699 180.651 32.0306 181.406 31.0605C182.168 30.084 183.21 29.5957 184.531 29.5957ZM184.57 30.2891C184.238 30.2891 183.952 30.416 183.711 30.6699C183.477 30.9173 183.32 31.4121 183.242 32.1543C183.171 32.89 183.135 33.9154 183.135 35.2305C183.135 35.9271 183.18 36.5781 183.271 37.1836C183.343 37.6458 183.496 37.9974 183.73 38.2383C183.965 38.4792 184.232 38.5996 184.531 38.5996C184.824 38.5996 185.068 38.5182 185.264 38.3555C185.518 38.1341 185.687 37.8249 185.771 37.4277C185.902 36.8092 185.967 35.5592 185.967 33.6777C185.967 32.571 185.905 31.8125 185.781 31.4023C185.658 30.9857 185.475 30.6829 185.234 30.4941C185.065 30.3574 184.844 30.2891 184.57 30.2891ZM196.084 29.9766H199.16V31.0508H197.412C197.731 31.3698 197.952 31.6595 198.076 31.9199C198.232 32.2715 198.311 32.6393 198.311 33.0234C198.311 33.6745 198.128 34.2409 197.764 34.7227C197.406 35.1979 196.914 35.5723 196.289 35.8457C195.671 36.1126 195.12 36.2461 194.639 36.2461C194.6 36.2461 194.209 36.2298 193.467 36.1973C193.174 36.1973 192.926 36.2949 192.725 36.4902C192.529 36.679 192.432 36.9069 192.432 37.1738C192.432 37.4082 192.52 37.6003 192.695 37.75C192.878 37.8997 193.171 37.9746 193.574 37.9746L195.264 37.9551C196.631 37.9551 197.572 38.1048 198.086 38.4043C198.822 38.821 199.189 39.4622 199.189 40.3281C199.189 40.8815 199.02 41.3828 198.682 41.832C198.343 42.2878 197.897 42.623 197.344 42.8379C196.504 43.1569 195.537 43.3164 194.443 43.3164C193.623 43.3164 192.874 43.235 192.197 43.0723C191.52 42.916 191.035 42.6947 190.742 42.4082C190.449 42.1283 190.303 41.832 190.303 41.5195C190.303 41.2201 190.413 40.9499 190.635 40.709C190.863 40.4746 191.283 40.276 191.895 40.1133C191.048 39.6966 190.625 39.1172 190.625 38.375C190.625 37.9258 190.798 37.4896 191.143 37.0664C191.488 36.6432 192.035 36.2754 192.783 35.9629C191.911 35.6439 191.279 35.224 190.889 34.7031C190.498 34.1823 190.303 33.5801 190.303 32.8965C190.303 32.0046 190.667 31.2331 191.396 30.582C192.126 29.9245 193.063 29.5957 194.209 29.5957C194.814 29.5957 195.439 29.7227 196.084 29.9766ZM194.395 30.2012C194.017 30.2012 193.698 30.3932 193.438 30.7773C193.177 31.1549 193.047 31.9427 193.047 33.1406C193.047 34.1107 193.174 34.778 193.428 35.1426C193.688 35.5007 193.994 35.6797 194.346 35.6797C194.736 35.6797 195.062 35.5007 195.322 35.1426C195.583 34.7845 195.713 34.0879 195.713 33.0527C195.713 31.8874 195.566 31.0931 195.273 30.6699C195.065 30.3574 194.772 30.2012 194.395 30.2012ZM193.818 40.3477C193.154 40.3477 192.715 40.403 192.5 40.5137C192.129 40.7155 191.943 40.9889 191.943 41.334C191.943 41.666 192.135 41.9655 192.52 42.2324C192.904 42.5059 193.626 42.6426 194.688 42.6426C195.592 42.6426 196.302 42.5221 196.816 42.2812C197.337 42.0404 197.598 41.7018 197.598 41.2656C197.598 41.1029 197.549 40.9661 197.451 40.8555C197.275 40.6602 197.008 40.5267 196.65 40.4551C196.299 40.3835 195.355 40.3477 193.818 40.3477Z" fill="black"/>
<path d="M139.158 65.8418L141.674 59.7305H145.447V59.9834H145.146C144.873 59.9834 144.654 60.0312 144.49 60.127C144.376 60.1908 144.285 60.2979 144.217 60.4482C144.167 60.5576 144.142 60.8424 144.142 61.3027V67.4141C144.142 67.888 144.167 68.1842 144.217 68.3027C144.267 68.4212 144.369 68.526 144.524 68.6172C144.679 68.7038 144.887 68.7471 145.146 68.7471H145.447V69H140.607V68.7471H140.908C141.182 68.7471 141.4 68.6992 141.564 68.6035C141.678 68.5397 141.77 68.4303 141.838 68.2754C141.888 68.166 141.913 67.8789 141.913 67.4141V60.5439L138.358 69H138.194L134.585 60.6055V67.1338C134.585 67.5895 134.596 67.8698 134.619 67.9746C134.678 68.2025 134.806 68.3893 135.002 68.5352C135.202 68.6764 135.515 68.7471 135.938 68.7471V69H132.767V68.7471H132.862C133.067 68.7516 133.259 68.7197 133.437 68.6514C133.614 68.5785 133.749 68.4827 133.84 68.3643C133.931 68.2458 134.002 68.0794 134.052 67.8652C134.061 67.8151 134.065 67.5827 134.065 67.168V61.3027C134.065 60.8333 134.04 60.5417 133.99 60.4277C133.94 60.3092 133.838 60.2067 133.683 60.1201C133.528 60.029 133.32 59.9834 133.061 59.9834H132.767V59.7305H136.554L139.158 65.8418ZM151.593 65.5752H148.086C148.127 66.4229 148.353 67.0928 148.763 67.585C149.077 67.9632 149.455 68.1523 149.897 68.1523C150.171 68.1523 150.419 68.0771 150.643 67.9268C150.866 67.7718 151.105 67.4961 151.36 67.0996L151.593 67.25C151.246 67.9564 150.864 68.4577 150.444 68.7539C150.025 69.0456 149.54 69.1914 148.988 69.1914C148.04 69.1914 147.323 68.8268 146.835 68.0977C146.443 67.5098 146.247 66.7806 146.247 65.9102C146.247 64.8438 146.534 63.9961 147.108 63.3672C147.687 62.7337 148.364 62.417 149.139 62.417C149.786 62.417 150.346 62.6836 150.82 63.2168C151.299 63.7454 151.556 64.5316 151.593 65.5752ZM149.911 65.1172C149.911 64.3835 149.87 63.8799 149.788 63.6064C149.711 63.333 149.588 63.1257 149.419 62.9844C149.323 62.9023 149.196 62.8613 149.036 62.8613C148.799 62.8613 148.605 62.9775 148.455 63.21C148.186 63.6156 148.052 64.1715 148.052 64.8779V65.1172H149.911ZM155.011 62.6084V63.4355C155.339 63.0801 155.653 62.8226 155.954 62.6631C156.255 62.499 156.578 62.417 156.925 62.417C157.34 62.417 157.684 62.5332 157.957 62.7656C158.23 62.9935 158.413 63.2783 158.504 63.6201C158.577 63.8799 158.613 64.3789 158.613 65.1172V67.6055C158.613 68.0977 158.657 68.4053 158.743 68.5283C158.834 68.6468 159.021 68.722 159.304 68.7539V69H156.07V68.7539C156.312 68.722 156.485 68.6217 156.59 68.4531C156.663 68.3392 156.699 68.0566 156.699 67.6055V64.7617C156.699 64.2376 156.679 63.9072 156.638 63.7705C156.597 63.6338 156.526 63.529 156.426 63.4561C156.33 63.3786 156.223 63.3398 156.104 63.3398C155.713 63.3398 155.348 63.6201 155.011 64.1807V67.6055C155.011 68.084 155.054 68.387 155.141 68.5146C155.232 68.6423 155.398 68.722 155.64 68.7539V69H152.406V68.7539C152.675 68.7266 152.867 68.64 152.98 68.4941C153.058 68.3939 153.097 68.0977 153.097 67.6055V63.9961C153.097 63.513 153.051 63.2122 152.96 63.0938C152.873 62.9753 152.689 62.8978 152.406 62.8613V62.6084H155.011ZM166.365 62.6084V67.6123C166.365 68.0999 166.411 68.4053 166.502 68.5283C166.593 68.6468 166.778 68.722 167.056 68.7539V69H164.451V68.1455C164.146 68.5101 163.84 68.7767 163.535 68.9453C163.23 69.1094 162.888 69.1914 162.51 69.1914C162.15 69.1914 161.828 69.082 161.546 68.8633C161.268 68.64 161.081 68.3802 160.985 68.084C160.89 67.7878 160.842 67.2705 160.842 66.5322V63.9961C160.842 63.513 160.796 63.2122 160.705 63.0938C160.618 62.9753 160.434 62.8978 160.151 62.8613V62.6084H162.756V66.9766C162.756 67.4323 162.776 67.7262 162.817 67.8584C162.863 67.9906 162.931 68.0908 163.022 68.1592C163.118 68.2275 163.228 68.2617 163.351 68.2617C163.515 68.2617 163.663 68.2184 163.795 68.1318C163.977 68.0133 164.196 67.7741 164.451 67.4141V63.9961C164.451 63.513 164.406 63.2122 164.314 63.0938C164.228 62.9753 164.043 62.8978 163.761 62.8613V62.6084H166.365Z" fill="#555050"/>
<path d="M132.486 71.1875H167.507V72.5205H132.486V71.1875Z" fill="#555050"/>
<path d="M96.1875 142.73V145.239H95.9414C95.7956 144.66 95.6338 144.246 95.4561 143.995C95.2783 143.74 95.0345 143.537 94.7246 143.387C94.5514 143.305 94.2484 143.264 93.8154 143.264H93.125V150.414C93.125 150.888 93.1501 151.184 93.2002 151.303C93.2549 151.421 93.3574 151.526 93.5078 151.617C93.6628 151.704 93.8724 151.747 94.1367 151.747H94.4443V152H89.5908V151.747H89.8984C90.1673 151.747 90.3838 151.699 90.5479 151.604C90.6663 151.54 90.7598 151.43 90.8281 151.275C90.8783 151.166 90.9033 150.879 90.9033 150.414V143.264H90.2334C89.609 143.264 89.1556 143.396 88.873 143.66C88.4766 144.029 88.2259 144.556 88.1211 145.239H87.8613V142.73H96.1875ZM98.7783 145.608V147.058C99.2021 146.397 99.5736 145.959 99.8926 145.745C100.212 145.526 100.519 145.417 100.815 145.417C101.071 145.417 101.273 145.497 101.424 145.656C101.579 145.811 101.656 146.032 101.656 146.319C101.656 146.625 101.581 146.862 101.431 147.03C101.285 147.199 101.107 147.283 100.897 147.283C100.656 147.283 100.446 147.206 100.269 147.051C100.091 146.896 99.986 146.809 99.9541 146.791C99.9085 146.764 99.8561 146.75 99.7969 146.75C99.6647 146.75 99.5394 146.8 99.4209 146.9C99.234 147.055 99.0928 147.276 98.9971 147.563C98.8512 148.006 98.7783 148.493 98.7783 149.026V150.496L98.7852 150.879C98.7852 151.139 98.8011 151.305 98.833 151.378C98.8877 151.501 98.9674 151.592 99.0723 151.651C99.1816 151.706 99.3639 151.74 99.6191 151.754V152H96.167V151.754C96.445 151.731 96.6318 151.656 96.7275 151.528C96.8278 151.396 96.8779 151.052 96.8779 150.496V146.962C96.8779 146.597 96.8597 146.365 96.8232 146.265C96.7777 146.137 96.7116 146.044 96.625 145.984C96.5384 145.925 96.3857 145.884 96.167 145.861V145.608H98.7783ZM105.874 151.057C105.095 151.745 104.395 152.089 103.775 152.089C103.411 152.089 103.108 151.97 102.866 151.733C102.625 151.492 102.504 151.191 102.504 150.831C102.504 150.343 102.714 149.906 103.133 149.519C103.552 149.127 104.466 148.607 105.874 147.96V147.317C105.874 146.834 105.847 146.531 105.792 146.408C105.742 146.281 105.644 146.171 105.498 146.08C105.352 145.984 105.188 145.937 105.006 145.937C104.71 145.937 104.466 146.003 104.274 146.135C104.156 146.217 104.097 146.312 104.097 146.422C104.097 146.518 104.16 146.636 104.288 146.777C104.461 146.973 104.548 147.162 104.548 147.345C104.548 147.568 104.464 147.759 104.295 147.919C104.131 148.074 103.914 148.151 103.646 148.151C103.358 148.151 103.117 148.065 102.921 147.892C102.729 147.718 102.634 147.516 102.634 147.283C102.634 146.955 102.764 146.643 103.023 146.347C103.283 146.046 103.646 145.816 104.11 145.656C104.575 145.497 105.058 145.417 105.56 145.417C106.166 145.417 106.644 145.547 106.995 145.807C107.351 146.062 107.581 146.34 107.686 146.641C107.749 146.832 107.781 147.272 107.781 147.96V150.441C107.781 150.733 107.793 150.918 107.815 150.995C107.838 151.068 107.872 151.123 107.918 151.159C107.964 151.196 108.016 151.214 108.075 151.214C108.194 151.214 108.314 151.13 108.438 150.961L108.643 151.125C108.415 151.462 108.178 151.708 107.932 151.863C107.69 152.014 107.414 152.089 107.104 152.089C106.74 152.089 106.455 152.005 106.25 151.836C106.045 151.663 105.92 151.403 105.874 151.057ZM105.874 150.558V148.418C105.323 148.742 104.912 149.088 104.644 149.457C104.466 149.703 104.377 149.951 104.377 150.202C104.377 150.412 104.452 150.596 104.603 150.756C104.716 150.879 104.876 150.94 105.081 150.94C105.309 150.94 105.573 150.813 105.874 150.558ZM112.231 152.191L110.078 147.235C109.818 146.638 109.616 146.26 109.47 146.101C109.365 145.982 109.21 145.902 109.005 145.861V145.608H112.402V145.861C112.188 145.861 112.042 145.9 111.965 145.978C111.855 146.078 111.801 146.196 111.801 146.333C111.801 146.502 111.901 146.818 112.102 147.283L113.154 149.683L113.995 147.611C114.237 147.019 114.357 146.6 114.357 146.354C114.357 146.212 114.305 146.098 114.2 146.012C114.1 145.921 113.92 145.87 113.66 145.861V145.608H115.752V145.861C115.551 145.889 115.387 145.964 115.26 146.087C115.132 146.21 114.941 146.572 114.686 147.174L112.553 152.191H112.231ZM121.761 148.575H118.254C118.295 149.423 118.521 150.093 118.931 150.585C119.245 150.963 119.623 151.152 120.065 151.152C120.339 151.152 120.587 151.077 120.811 150.927C121.034 150.772 121.273 150.496 121.528 150.1L121.761 150.25C121.414 150.956 121.032 151.458 120.612 151.754C120.193 152.046 119.708 152.191 119.156 152.191C118.208 152.191 117.491 151.827 117.003 151.098C116.611 150.51 116.415 149.781 116.415 148.91C116.415 147.844 116.702 146.996 117.276 146.367C117.855 145.734 118.532 145.417 119.307 145.417C119.954 145.417 120.514 145.684 120.988 146.217C121.467 146.745 121.724 147.532 121.761 148.575ZM120.079 148.117C120.079 147.383 120.038 146.88 119.956 146.606C119.879 146.333 119.756 146.126 119.587 145.984C119.491 145.902 119.364 145.861 119.204 145.861C118.967 145.861 118.773 145.978 118.623 146.21C118.354 146.616 118.22 147.172 118.22 147.878V148.117H120.079ZM125.069 142.73V150.674C125.069 151.125 125.122 151.414 125.227 151.542C125.331 151.665 125.536 151.736 125.842 151.754V152H122.39V151.754C122.672 151.745 122.882 151.663 123.019 151.508C123.11 151.403 123.155 151.125 123.155 150.674V144.057C123.155 143.61 123.103 143.325 122.998 143.202C122.893 143.075 122.69 143.002 122.39 142.983V142.73H125.069ZM128.002 142.512C128.298 142.512 128.549 142.617 128.754 142.826C128.959 143.031 129.062 143.28 129.062 143.571C129.062 143.863 128.957 144.111 128.747 144.316C128.542 144.521 128.294 144.624 128.002 144.624C127.71 144.624 127.462 144.521 127.257 144.316C127.052 144.111 126.949 143.863 126.949 143.571C126.949 143.28 127.052 143.031 127.257 142.826C127.462 142.617 127.71 142.512 128.002 142.512ZM128.959 145.608V150.674C128.959 151.125 129.011 151.414 129.116 151.542C129.221 151.665 129.426 151.736 129.731 151.754V152H126.279V151.754C126.562 151.745 126.771 151.663 126.908 151.508C126.999 151.403 127.045 151.125 127.045 150.674V146.941C127.045 146.49 126.993 146.203 126.888 146.08C126.783 145.952 126.58 145.88 126.279 145.861V145.608H128.959ZM132.972 145.608V146.436C133.3 146.08 133.614 145.823 133.915 145.663C134.216 145.499 134.539 145.417 134.886 145.417C135.3 145.417 135.645 145.533 135.918 145.766C136.191 145.993 136.374 146.278 136.465 146.62C136.538 146.88 136.574 147.379 136.574 148.117V150.605C136.574 151.098 136.618 151.405 136.704 151.528C136.795 151.647 136.982 151.722 137.265 151.754V152H134.031V151.754C134.273 151.722 134.446 151.622 134.551 151.453C134.624 151.339 134.66 151.057 134.66 150.605V147.762C134.66 147.238 134.64 146.907 134.599 146.771C134.558 146.634 134.487 146.529 134.387 146.456C134.291 146.379 134.184 146.34 134.065 146.34C133.674 146.34 133.309 146.62 132.972 147.181V150.605C132.972 151.084 133.015 151.387 133.102 151.515C133.193 151.642 133.359 151.722 133.601 151.754V152H130.367V151.754C130.636 151.727 130.827 151.64 130.941 151.494C131.019 151.394 131.058 151.098 131.058 150.605V146.996C131.058 146.513 131.012 146.212 130.921 146.094C130.834 145.975 130.65 145.898 130.367 145.861V145.608H132.972ZM142.255 145.684H144.408V146.436H143.185C143.408 146.659 143.563 146.862 143.649 147.044C143.759 147.29 143.813 147.548 143.813 147.816C143.813 148.272 143.686 148.669 143.431 149.006C143.18 149.339 142.836 149.601 142.398 149.792C141.965 149.979 141.58 150.072 141.243 150.072C141.216 150.072 140.942 150.061 140.423 150.038C140.218 150.038 140.045 150.106 139.903 150.243C139.767 150.375 139.698 150.535 139.698 150.722C139.698 150.886 139.76 151.02 139.883 151.125C140.01 151.23 140.215 151.282 140.498 151.282L141.681 151.269C142.638 151.269 143.296 151.373 143.656 151.583C144.171 151.875 144.429 152.324 144.429 152.93C144.429 153.317 144.31 153.668 144.073 153.982C143.836 154.301 143.524 154.536 143.137 154.687C142.549 154.91 141.872 155.021 141.106 155.021C140.532 155.021 140.008 154.965 139.534 154.851C139.06 154.741 138.721 154.586 138.516 154.386C138.311 154.19 138.208 153.982 138.208 153.764C138.208 153.554 138.285 153.365 138.44 153.196C138.6 153.032 138.894 152.893 139.322 152.779C138.73 152.488 138.434 152.082 138.434 151.562C138.434 151.248 138.554 150.943 138.796 150.646C139.037 150.35 139.42 150.093 139.944 149.874C139.334 149.651 138.892 149.357 138.618 148.992C138.345 148.628 138.208 148.206 138.208 147.728C138.208 147.103 138.463 146.563 138.974 146.107C139.484 145.647 140.14 145.417 140.942 145.417C141.366 145.417 141.804 145.506 142.255 145.684ZM141.072 145.841C140.808 145.841 140.585 145.975 140.402 146.244C140.22 146.508 140.129 147.06 140.129 147.898C140.129 148.577 140.218 149.045 140.396 149.3C140.578 149.55 140.792 149.676 141.038 149.676C141.312 149.676 141.539 149.55 141.722 149.3C141.904 149.049 141.995 148.562 141.995 147.837C141.995 147.021 141.893 146.465 141.688 146.169C141.542 145.95 141.337 145.841 141.072 145.841ZM140.669 152.943C140.204 152.943 139.896 152.982 139.746 153.06C139.486 153.201 139.356 153.392 139.356 153.634C139.356 153.866 139.491 154.076 139.76 154.263C140.029 154.454 140.535 154.55 141.277 154.55C141.911 154.55 142.408 154.465 142.768 154.297C143.132 154.128 143.314 153.891 143.314 153.586C143.314 153.472 143.28 153.376 143.212 153.299C143.089 153.162 142.902 153.069 142.651 153.019C142.405 152.968 141.744 152.943 140.669 152.943ZM156.754 142.73V145.239H156.508C156.362 144.66 156.2 144.246 156.022 143.995C155.845 143.74 155.601 143.537 155.291 143.387C155.118 143.305 154.815 143.264 154.382 143.264H153.691V150.414C153.691 150.888 153.716 151.184 153.767 151.303C153.821 151.421 153.924 151.526 154.074 151.617C154.229 151.704 154.439 151.747 154.703 151.747H155.011V152H150.157V151.747H150.465C150.734 151.747 150.95 151.699 151.114 151.604C151.233 151.54 151.326 151.43 151.395 151.275C151.445 151.166 151.47 150.879 151.47 150.414V143.264H150.8C150.175 143.264 149.722 143.396 149.439 143.66C149.043 144.029 148.792 144.556 148.688 145.239H148.428V142.73H156.754ZM160.343 142.73V146.429C160.694 146.06 161.015 145.8 161.307 145.649C161.598 145.494 161.901 145.417 162.216 145.417C162.617 145.417 162.959 145.531 163.241 145.759C163.528 145.987 163.717 146.256 163.809 146.565C163.904 146.871 163.952 147.388 163.952 148.117V150.612C163.952 151.1 163.998 151.405 164.089 151.528C164.18 151.647 164.365 151.722 164.643 151.754V152H161.402V151.754C161.63 151.722 161.801 151.631 161.915 151.48C161.997 151.362 162.038 151.073 162.038 150.612V147.762C162.038 147.233 162.018 146.903 161.977 146.771C161.936 146.634 161.865 146.529 161.765 146.456C161.669 146.379 161.56 146.34 161.437 146.34C161.254 146.34 161.076 146.404 160.903 146.531C160.73 146.654 160.543 146.873 160.343 147.188V150.612C160.343 151.068 160.377 151.353 160.445 151.467C160.532 151.622 160.71 151.717 160.979 151.754V152H157.738V151.754C158.007 151.727 158.199 151.64 158.312 151.494C158.39 151.394 158.429 151.1 158.429 150.612V144.118C158.429 143.635 158.383 143.334 158.292 143.216C158.205 143.097 158.021 143.02 157.738 142.983V142.73H160.343ZM170.938 148.575H167.432C167.473 149.423 167.698 150.093 168.108 150.585C168.423 150.963 168.801 151.152 169.243 151.152C169.517 151.152 169.765 151.077 169.988 150.927C170.212 150.772 170.451 150.496 170.706 150.1L170.938 150.25C170.592 150.956 170.209 151.458 169.79 151.754C169.371 152.046 168.885 152.191 168.334 152.191C167.386 152.191 166.668 151.827 166.181 151.098C165.789 150.51 165.593 149.781 165.593 148.91C165.593 147.844 165.88 146.996 166.454 146.367C167.033 145.734 167.71 145.417 168.484 145.417C169.132 145.417 169.692 145.684 170.166 146.217C170.645 146.745 170.902 147.532 170.938 148.575ZM169.257 148.117C169.257 147.383 169.216 146.88 169.134 146.606C169.056 146.333 168.933 146.126 168.765 145.984C168.669 145.902 168.541 145.861 168.382 145.861C168.145 145.861 167.951 145.978 167.801 146.21C167.532 146.616 167.397 147.172 167.397 147.878V148.117H169.257ZM188.391 142.73V142.983C188.217 142.997 188.072 143.045 187.953 143.127C187.835 143.209 187.73 143.334 187.639 143.503C187.611 143.558 187.468 143.911 187.208 144.562L184.303 152.212H184.036L181.739 146.237L179.21 152.212H178.957L175.908 144.645C175.598 143.883 175.382 143.423 175.259 143.264C175.136 143.104 174.928 143.011 174.637 142.983V142.73H178.656V142.983C178.333 142.993 178.116 143.043 178.007 143.134C177.902 143.22 177.85 143.33 177.85 143.462C177.85 143.635 177.961 144.002 178.185 144.562L180.003 149.061L181.459 145.547L181.076 144.562C180.867 144.025 180.705 143.667 180.591 143.489C180.477 143.307 180.345 143.177 180.194 143.1C180.049 143.022 179.832 142.983 179.545 142.983V142.73H184.036V142.983C183.722 142.988 183.496 143.013 183.359 143.059C183.264 143.09 183.188 143.145 183.134 143.223C183.079 143.296 183.052 143.38 183.052 143.476C183.052 143.58 183.154 143.902 183.359 144.439L185.048 148.828L186.559 144.856C186.718 144.446 186.816 144.166 186.853 144.016C186.889 143.865 186.907 143.726 186.907 143.599C186.907 143.412 186.843 143.266 186.716 143.161C186.588 143.052 186.344 142.993 185.984 142.983V142.73H188.391ZM191.221 145.417C191.777 145.417 192.294 145.561 192.772 145.848C193.251 146.135 193.613 146.543 193.859 147.071C194.11 147.6 194.235 148.179 194.235 148.808C194.235 149.715 194.005 150.473 193.545 151.084C192.989 151.822 192.221 152.191 191.241 152.191C190.28 152.191 189.539 151.854 189.02 151.18C188.5 150.505 188.24 149.724 188.24 148.835C188.24 147.919 188.505 147.121 189.033 146.442C189.566 145.759 190.296 145.417 191.221 145.417ZM191.248 145.902C191.016 145.902 190.815 145.991 190.646 146.169C190.482 146.342 190.373 146.688 190.318 147.208C190.268 147.723 190.243 148.441 190.243 149.361C190.243 149.849 190.275 150.305 190.339 150.729C190.389 151.052 190.496 151.298 190.66 151.467C190.824 151.635 191.011 151.72 191.221 151.72C191.426 151.72 191.597 151.663 191.733 151.549C191.911 151.394 192.03 151.177 192.089 150.899C192.18 150.466 192.226 149.591 192.226 148.274C192.226 147.5 192.182 146.969 192.096 146.682C192.009 146.39 191.882 146.178 191.713 146.046C191.594 145.95 191.439 145.902 191.248 145.902ZM197.858 145.608V147.058C198.282 146.397 198.654 145.959 198.973 145.745C199.292 145.526 199.599 145.417 199.896 145.417C200.151 145.417 200.354 145.497 200.504 145.656C200.659 145.811 200.736 146.032 200.736 146.319C200.736 146.625 200.661 146.862 200.511 147.03C200.365 147.199 200.187 147.283 199.978 147.283C199.736 147.283 199.526 147.206 199.349 147.051C199.171 146.896 199.066 146.809 199.034 146.791C198.989 146.764 198.936 146.75 198.877 146.75C198.745 146.75 198.619 146.8 198.501 146.9C198.314 147.055 198.173 147.276 198.077 147.563C197.931 148.006 197.858 148.493 197.858 149.026V150.496L197.865 150.879C197.865 151.139 197.881 151.305 197.913 151.378C197.968 151.501 198.048 151.592 198.152 151.651C198.262 151.706 198.444 151.74 198.699 151.754V152H195.247V151.754C195.525 151.731 195.712 151.656 195.808 151.528C195.908 151.396 195.958 151.052 195.958 150.496V146.962C195.958 146.597 195.94 146.365 195.903 146.265C195.858 146.137 195.792 146.044 195.705 145.984C195.618 145.925 195.466 145.884 195.247 145.861V145.608H197.858ZM203.929 142.73V150.674C203.929 151.125 203.981 151.414 204.086 151.542C204.191 151.665 204.396 151.736 204.701 151.754V152H201.249V151.754C201.532 151.745 201.741 151.663 201.878 151.508C201.969 151.403 202.015 151.125 202.015 150.674V144.057C202.015 143.61 201.962 143.325 201.857 143.202C201.753 143.075 201.55 143.002 201.249 142.983V142.73H203.929ZM211.537 142.73V150.086C211.537 150.583 211.551 150.877 211.578 150.968C211.615 151.118 211.683 151.23 211.783 151.303C211.888 151.376 212.068 151.421 212.323 151.439V151.665L209.623 152.191V151.18C209.299 151.572 209.01 151.838 208.755 151.979C208.504 152.121 208.219 152.191 207.9 152.191C207.085 152.191 206.44 151.827 205.966 151.098C205.583 150.505 205.392 149.778 205.392 148.917C205.392 148.229 205.51 147.614 205.747 147.071C205.984 146.524 206.308 146.112 206.718 145.834C207.132 145.556 207.577 145.417 208.051 145.417C208.356 145.417 208.627 145.476 208.864 145.595C209.101 145.713 209.354 145.921 209.623 146.217V144.289C209.623 143.801 209.603 143.507 209.562 143.407C209.507 143.275 209.425 143.177 209.315 143.113C209.206 143.049 209.001 143.018 208.7 143.018V142.73H211.537ZM209.623 147.064C209.286 146.417 208.873 146.094 208.386 146.094C208.217 146.094 208.078 146.139 207.969 146.23C207.8 146.372 207.661 146.62 207.552 146.976C207.447 147.331 207.395 147.876 207.395 148.609C207.395 149.416 207.454 150.013 207.572 150.4C207.691 150.788 207.853 151.068 208.058 151.241C208.162 151.328 208.306 151.371 208.488 151.371C208.889 151.371 209.268 151.057 209.623 150.428V147.064Z" fill="#555050"/>
<path d="M87.3555 154.188H212.638V155.521H87.3555V154.188Z" fill="#555050"/>
<path d="M135.265 94.3521L135.41 94.3828L134.9 96H130.286V95.8374H130.51C130.762 95.8374 130.942 95.7554 131.051 95.5913C131.112 95.4976 131.143 95.2808 131.143 94.9409V91.0957C131.143 90.7236 131.102 90.4907 131.02 90.397C130.906 90.2681 130.736 90.2036 130.51 90.2036H130.286V90.041H132.984V90.2036C132.668 90.2007 132.445 90.23 132.316 90.2915C132.19 90.353 132.104 90.4307 132.057 90.5244C132.01 90.6182 131.987 90.8423 131.987 91.1968V94.9409C131.987 95.1841 132.01 95.3511 132.057 95.4419C132.092 95.5034 132.146 95.5488 132.22 95.5781C132.293 95.6074 132.521 95.6221 132.905 95.6221H133.34C133.797 95.6221 134.118 95.5884 134.303 95.521C134.487 95.4536 134.656 95.335 134.808 95.165C134.96 94.9922 135.113 94.7212 135.265 94.3521ZM138.17 95.4199C137.757 95.7393 137.498 95.9238 137.392 95.9736C137.234 96.0469 137.065 96.0835 136.887 96.0835C136.608 96.0835 136.378 95.9883 136.197 95.7979C136.018 95.6074 135.929 95.3569 135.929 95.0464C135.929 94.8501 135.973 94.6802 136.061 94.5366C136.181 94.3374 136.389 94.1499 136.685 93.9741C136.983 93.7983 137.479 93.5845 138.17 93.3325V93.1743C138.17 92.7729 138.105 92.4976 137.977 92.3481C137.851 92.1987 137.666 92.124 137.423 92.124C137.238 92.124 137.092 92.1738 136.983 92.2734C136.872 92.373 136.816 92.4873 136.816 92.6162L136.825 92.8711C136.825 93.0059 136.79 93.1099 136.72 93.1831C136.652 93.2563 136.563 93.293 136.452 93.293C136.343 93.293 136.254 93.2549 136.184 93.1787C136.116 93.1025 136.083 92.9985 136.083 92.8667C136.083 92.6147 136.211 92.3833 136.469 92.1724C136.727 91.9614 137.089 91.856 137.555 91.856C137.912 91.856 138.205 91.916 138.434 92.0361C138.606 92.127 138.734 92.269 138.816 92.4624C138.869 92.5884 138.895 92.8462 138.895 93.2358V94.6025C138.895 94.9863 138.902 95.2222 138.917 95.3101C138.932 95.395 138.955 95.4521 138.987 95.4814C139.022 95.5107 139.062 95.5254 139.106 95.5254C139.153 95.5254 139.194 95.5151 139.229 95.4946C139.291 95.4565 139.409 95.3496 139.585 95.1738V95.4199C139.257 95.8594 138.943 96.0791 138.645 96.0791C138.501 96.0791 138.387 96.0293 138.302 95.9297C138.217 95.8301 138.173 95.6602 138.17 95.4199ZM138.17 95.1343V93.6006C137.728 93.7764 137.442 93.9009 137.313 93.9741C137.082 94.103 136.916 94.2378 136.816 94.3784C136.717 94.519 136.667 94.6729 136.667 94.8398C136.667 95.0508 136.73 95.2266 136.856 95.3672C136.982 95.5049 137.127 95.5737 137.291 95.5737C137.514 95.5737 137.807 95.4272 138.17 95.1343ZM141.057 90.6519V91.9746H141.998V92.2822H141.057V94.8926C141.057 95.1533 141.094 95.3291 141.167 95.4199C141.243 95.5107 141.34 95.5562 141.457 95.5562C141.554 95.5562 141.647 95.5269 141.738 95.4683C141.829 95.4067 141.899 95.3174 141.949 95.2002H142.121C142.018 95.4873 141.873 95.7041 141.686 95.8506C141.498 95.9941 141.305 96.0659 141.105 96.0659C140.971 96.0659 140.839 96.0293 140.71 95.9561C140.581 95.8799 140.486 95.7729 140.424 95.6353C140.363 95.4946 140.332 95.2793 140.332 94.9893V92.2822H139.695V92.1372C139.856 92.0728 140.02 91.9644 140.187 91.812C140.357 91.6567 140.508 91.4736 140.64 91.2627C140.707 91.1514 140.801 90.9478 140.921 90.6519H141.057ZM143.07 93.4907C143.067 94.0884 143.212 94.5571 143.505 94.897C143.798 95.2368 144.142 95.4067 144.538 95.4067C144.801 95.4067 145.03 95.335 145.223 95.1914C145.419 95.0449 145.583 94.7959 145.715 94.4443L145.852 94.5322C145.79 94.9336 145.611 95.2998 145.315 95.6309C145.02 95.959 144.649 96.123 144.204 96.123C143.72 96.123 143.306 95.9355 142.96 95.5605C142.617 95.1826 142.446 94.6758 142.446 94.04C142.446 93.3516 142.622 92.8154 142.973 92.4316C143.328 92.0449 143.771 91.8516 144.305 91.8516C144.756 91.8516 145.126 92.001 145.417 92.2998C145.707 92.5957 145.852 92.9927 145.852 93.4907H143.07ZM143.07 93.2358H144.933C144.918 92.978 144.888 92.7964 144.841 92.6909C144.768 92.5269 144.658 92.3979 144.511 92.3042C144.368 92.2104 144.217 92.1636 144.059 92.1636C143.815 92.1636 143.597 92.2588 143.404 92.4492C143.213 92.6367 143.102 92.8989 143.07 93.2358ZM148.994 91.856V93.2271H148.849C148.737 92.7964 148.594 92.5034 148.418 92.3481C148.245 92.1929 148.024 92.1152 147.754 92.1152C147.549 92.1152 147.384 92.1694 147.258 92.2778C147.132 92.3862 147.069 92.5063 147.069 92.6382C147.069 92.8022 147.116 92.9429 147.209 93.0601C147.3 93.1802 147.485 93.3076 147.763 93.4424L148.405 93.7544C149 94.0444 149.297 94.4268 149.297 94.9014C149.297 95.2676 149.158 95.5635 148.879 95.7891C148.604 96.0117 148.295 96.123 147.952 96.123C147.706 96.123 147.425 96.0791 147.108 95.9912C147.012 95.9619 146.933 95.9473 146.871 95.9473C146.804 95.9473 146.751 95.9854 146.713 96.0615H146.568V94.6245H146.713C146.795 95.0347 146.952 95.3438 147.183 95.5518C147.415 95.7598 147.674 95.8638 147.961 95.8638C148.163 95.8638 148.327 95.8052 148.453 95.688C148.582 95.5679 148.646 95.4243 148.646 95.2573C148.646 95.0552 148.575 94.8853 148.431 94.7476C148.291 94.6099 148.008 94.4355 147.583 94.2246C147.158 94.0137 146.88 93.8232 146.748 93.6533C146.616 93.4863 146.55 93.2754 146.55 93.0205C146.55 92.6895 146.663 92.4126 146.889 92.1899C147.117 91.9673 147.412 91.856 147.772 91.856C147.93 91.856 148.122 91.8896 148.348 91.957C148.497 92.001 148.597 92.0229 148.646 92.0229C148.693 92.0229 148.73 92.0127 148.756 91.9922C148.783 91.9717 148.813 91.9263 148.849 91.856H148.994ZM151.068 90.6519V91.9746H152.008V92.2822H151.068V94.8926C151.068 95.1533 151.104 95.3291 151.178 95.4199C151.254 95.5107 151.351 95.5562 151.468 95.5562C151.564 95.5562 151.658 95.5269 151.749 95.4683C151.84 95.4067 151.91 95.3174 151.96 95.2002H152.131C152.029 95.4873 151.884 95.7041 151.696 95.8506C151.509 95.9941 151.315 96.0659 151.116 96.0659C150.981 96.0659 150.85 96.0293 150.721 95.9561C150.592 95.8799 150.497 95.7729 150.435 95.6353C150.374 95.4946 150.343 95.2793 150.343 94.9893V92.2822H149.706V92.1372C149.867 92.0728 150.031 91.9644 150.198 91.812C150.368 91.6567 150.519 91.4736 150.65 91.2627C150.718 91.1514 150.812 90.9478 150.932 90.6519H151.068ZM156.218 93.2095V94.9453C156.218 95.3203 156.259 95.5532 156.341 95.644C156.453 95.7729 156.621 95.8374 156.847 95.8374H157.075V96H154.522V95.8374H154.746C154.998 95.8374 155.178 95.7554 155.287 95.5913C155.345 95.5005 155.375 95.2852 155.375 94.9453V91.0957C155.375 90.7207 155.335 90.4878 155.256 90.397C155.142 90.2681 154.972 90.2036 154.746 90.2036H154.522V90.041H156.706C157.239 90.041 157.66 90.0967 157.967 90.208C158.275 90.3164 158.534 90.501 158.745 90.7617C158.956 91.0225 159.062 91.3315 159.062 91.689C159.062 92.1753 158.9 92.5708 158.578 92.8755C158.259 93.1802 157.806 93.3325 157.22 93.3325C157.077 93.3325 156.921 93.3223 156.754 93.3018C156.587 93.2812 156.409 93.2505 156.218 93.2095ZM156.218 92.959C156.374 92.9883 156.511 93.0103 156.631 93.0249C156.751 93.0396 156.854 93.0469 156.939 93.0469C157.244 93.0469 157.506 92.9297 157.726 92.6953C157.948 92.458 158.06 92.1519 158.06 91.7769C158.06 91.519 158.007 91.2803 157.901 91.0605C157.796 90.8379 157.646 90.6724 157.453 90.564C157.26 90.4526 157.04 90.397 156.794 90.397C156.645 90.397 156.453 90.4248 156.218 90.4805V92.959ZM161.632 91.856C162.242 91.856 162.731 92.0874 163.1 92.5503C163.414 92.9458 163.57 93.3999 163.57 93.9126C163.57 94.2729 163.484 94.6377 163.311 95.0068C163.138 95.376 162.899 95.6543 162.595 95.8418C162.293 96.0293 161.956 96.123 161.584 96.123C160.978 96.123 160.496 95.8813 160.138 95.3979C159.836 94.9907 159.686 94.5337 159.686 94.0269C159.686 93.6577 159.776 93.2915 159.958 92.9282C160.143 92.562 160.384 92.2925 160.683 92.1196C160.982 91.9438 161.298 91.856 161.632 91.856ZM161.496 92.1416C161.341 92.1416 161.184 92.1885 161.026 92.2822C160.871 92.373 160.745 92.5342 160.648 92.7656C160.551 92.9971 160.503 93.2944 160.503 93.6577C160.503 94.2437 160.619 94.749 160.85 95.1738C161.084 95.5986 161.392 95.811 161.773 95.811C162.057 95.811 162.292 95.6938 162.476 95.4595C162.661 95.2251 162.753 94.8223 162.753 94.251C162.753 93.5361 162.599 92.9736 162.292 92.5635C162.083 92.2822 161.818 92.1416 161.496 92.1416ZM166.765 91.856V93.2271H166.62C166.509 92.7964 166.365 92.5034 166.189 92.3481C166.017 92.1929 165.795 92.1152 165.526 92.1152C165.321 92.1152 165.155 92.1694 165.029 92.2778C164.903 92.3862 164.84 92.5063 164.84 92.6382C164.84 92.8022 164.887 92.9429 164.981 93.0601C165.072 93.1802 165.256 93.3076 165.535 93.4424L166.176 93.7544C166.771 94.0444 167.068 94.4268 167.068 94.9014C167.068 95.2676 166.929 95.5635 166.651 95.7891C166.375 96.0117 166.066 96.123 165.724 96.123C165.478 96.123 165.196 96.0791 164.88 95.9912C164.783 95.9619 164.704 95.9473 164.643 95.9473C164.575 95.9473 164.522 95.9854 164.484 96.0615H164.339V94.6245H164.484C164.566 95.0347 164.723 95.3438 164.955 95.5518C165.186 95.7598 165.445 95.8638 165.732 95.8638C165.935 95.8638 166.099 95.8052 166.225 95.688C166.354 95.5679 166.418 95.4243 166.418 95.2573C166.418 95.0552 166.346 94.8853 166.203 94.7476C166.062 94.6099 165.779 94.4355 165.354 94.2246C164.93 94.0137 164.651 93.8232 164.52 93.6533C164.388 93.4863 164.322 93.2754 164.322 93.0205C164.322 92.6895 164.435 92.4126 164.66 92.1899C164.889 91.9673 165.183 91.856 165.543 91.856C165.702 91.856 165.894 91.8896 166.119 91.957C166.269 92.001 166.368 92.0229 166.418 92.0229C166.465 92.0229 166.501 92.0127 166.528 91.9922C166.554 91.9717 166.585 91.9263 166.62 91.856H166.765ZM168.839 90.6519V91.9746H169.78V92.2822H168.839V94.8926C168.839 95.1533 168.876 95.3291 168.949 95.4199C169.025 95.5107 169.122 95.5562 169.239 95.5562C169.336 95.5562 169.43 95.5269 169.521 95.4683C169.611 95.4067 169.682 95.3174 169.731 95.2002H169.903C169.8 95.4873 169.655 95.7041 169.468 95.8506C169.28 95.9941 169.087 96.0659 168.888 96.0659C168.753 96.0659 168.621 96.0293 168.492 95.9561C168.363 95.8799 168.268 95.7729 168.207 95.6353C168.145 95.4946 168.114 95.2793 168.114 94.9893V92.2822H167.477V92.1372C167.638 92.0728 167.802 91.9644 167.969 91.812C168.139 91.6567 168.29 91.4736 168.422 91.2627C168.489 91.1514 168.583 90.9478 168.703 90.6519H168.839Z" fill="#0000FF"/>
<path d="M130.106 97.1997H169.89V97.6392H130.106V97.1997Z" fill="#0000FF"/>
<path d="M121.198 104.366V106.708H122.284C122.533 106.708 122.714 106.654 122.829 106.546C122.946 106.435 123.023 106.216 123.062 105.891H123.224V107.908H123.062C123.059 107.677 123.028 107.507 122.969 107.398C122.914 107.29 122.834 107.209 122.732 107.157C122.632 107.101 122.483 107.073 122.284 107.073H121.198V108.945C121.198 109.247 121.217 109.446 121.255 109.543C121.285 109.616 121.346 109.679 121.44 109.732C121.569 109.802 121.704 109.837 121.844 109.837H122.06V110H119.502V109.837H119.713C119.959 109.837 120.138 109.766 120.249 109.622C120.319 109.528 120.354 109.303 120.354 108.945V105.096C120.354 104.794 120.335 104.595 120.297 104.498C120.268 104.425 120.208 104.362 120.117 104.309C119.991 104.239 119.856 104.204 119.713 104.204H119.502V104.041H123.936L123.993 105.351H123.839C123.763 105.072 123.674 104.869 123.571 104.74C123.472 104.608 123.347 104.513 123.198 104.454C123.051 104.396 122.823 104.366 122.512 104.366H121.198ZM126.929 109.42C126.516 109.739 126.256 109.924 126.151 109.974C125.993 110.047 125.824 110.083 125.646 110.083C125.367 110.083 125.137 109.988 124.956 109.798C124.777 109.607 124.688 109.357 124.688 109.046C124.688 108.85 124.731 108.68 124.819 108.537C124.939 108.337 125.147 108.15 125.443 107.974C125.742 107.798 126.237 107.584 126.929 107.333V107.174C126.929 106.773 126.864 106.498 126.735 106.348C126.609 106.199 126.425 106.124 126.182 106.124C125.997 106.124 125.851 106.174 125.742 106.273C125.631 106.373 125.575 106.487 125.575 106.616L125.584 106.871C125.584 107.006 125.549 107.11 125.479 107.183C125.411 107.256 125.322 107.293 125.21 107.293C125.102 107.293 125.013 107.255 124.942 107.179C124.875 107.103 124.841 106.999 124.841 106.867C124.841 106.615 124.97 106.383 125.228 106.172C125.486 105.961 125.848 105.856 126.313 105.856C126.671 105.856 126.964 105.916 127.192 106.036C127.365 106.127 127.493 106.269 127.575 106.462C127.627 106.588 127.654 106.846 127.654 107.236V108.603C127.654 108.986 127.661 109.222 127.676 109.31C127.69 109.395 127.714 109.452 127.746 109.481C127.781 109.511 127.821 109.525 127.865 109.525C127.912 109.525 127.953 109.515 127.988 109.495C128.049 109.457 128.168 109.35 128.344 109.174V109.42C128.016 109.859 127.702 110.079 127.403 110.079C127.26 110.079 127.146 110.029 127.061 109.93C126.976 109.83 126.932 109.66 126.929 109.42ZM126.929 109.134V107.601C126.486 107.776 126.201 107.901 126.072 107.974C125.84 108.103 125.675 108.238 125.575 108.378C125.476 108.519 125.426 108.673 125.426 108.84C125.426 109.051 125.489 109.227 125.615 109.367C125.741 109.505 125.886 109.574 126.05 109.574C126.272 109.574 126.565 109.427 126.929 109.134ZM128.44 105.975H130.334V106.137H130.211C130.097 106.137 130.009 106.165 129.948 106.221C129.889 106.276 129.86 106.351 129.86 106.445C129.86 106.547 129.891 106.669 129.952 106.81L130.888 109.033L131.829 106.726C131.896 106.562 131.93 106.438 131.93 106.353C131.93 106.312 131.918 106.278 131.895 106.251C131.862 106.208 131.821 106.178 131.771 106.164C131.722 106.146 131.621 106.137 131.468 106.137V105.975H132.782V106.137C132.63 106.149 132.524 106.18 132.466 106.229C132.363 106.317 132.271 106.464 132.189 106.669L130.761 110.123H130.581L129.144 106.726C129.079 106.568 129.018 106.455 128.959 106.388C128.9 106.317 128.826 106.259 128.735 106.212C128.685 106.186 128.587 106.161 128.44 106.137V105.975ZM135.116 105.856C135.725 105.856 136.214 106.087 136.583 106.55C136.897 106.946 137.054 107.4 137.054 107.913C137.054 108.273 136.967 108.638 136.794 109.007C136.622 109.376 136.383 109.654 136.078 109.842C135.776 110.029 135.439 110.123 135.067 110.123C134.461 110.123 133.979 109.881 133.622 109.398C133.32 108.991 133.169 108.534 133.169 108.027C133.169 107.658 133.26 107.292 133.441 106.928C133.626 106.562 133.868 106.292 134.167 106.12C134.465 105.944 134.782 105.856 135.116 105.856ZM134.979 106.142C134.824 106.142 134.667 106.188 134.509 106.282C134.354 106.373 134.228 106.534 134.131 106.766C134.035 106.997 133.986 107.294 133.986 107.658C133.986 108.244 134.102 108.749 134.333 109.174C134.568 109.599 134.875 109.811 135.256 109.811C135.541 109.811 135.775 109.694 135.959 109.459C136.144 109.225 136.236 108.822 136.236 108.251C136.236 107.536 136.083 106.974 135.775 106.563C135.567 106.282 135.302 106.142 134.979 106.142ZM138.825 105.856V106.761C139.162 106.158 139.507 105.856 139.862 105.856C140.023 105.856 140.156 105.906 140.262 106.005C140.367 106.102 140.42 106.215 140.42 106.344C140.42 106.458 140.382 106.555 140.306 106.634C140.229 106.713 140.139 106.752 140.033 106.752C139.931 106.752 139.815 106.703 139.686 106.603C139.56 106.5 139.466 106.449 139.405 106.449C139.352 106.449 139.295 106.479 139.233 106.537C139.102 106.657 138.965 106.855 138.825 107.13V109.06C138.825 109.282 138.853 109.451 138.908 109.565C138.946 109.644 139.014 109.71 139.11 109.763C139.207 109.815 139.346 109.842 139.528 109.842V110H137.467V109.842C137.672 109.842 137.824 109.81 137.924 109.745C137.997 109.698 138.048 109.624 138.078 109.521C138.092 109.471 138.1 109.329 138.1 109.095V107.535C138.1 107.066 138.089 106.788 138.069 106.7C138.051 106.609 138.016 106.543 137.963 106.502C137.914 106.461 137.851 106.44 137.774 106.44C137.684 106.44 137.581 106.462 137.467 106.506L137.423 106.348L138.64 105.856H138.825ZM141.668 103.751C141.791 103.751 141.895 103.795 141.98 103.883C142.068 103.968 142.112 104.072 142.112 104.195C142.112 104.318 142.068 104.423 141.98 104.511C141.895 104.599 141.791 104.643 141.668 104.643C141.545 104.643 141.439 104.599 141.352 104.511C141.264 104.423 141.22 104.318 141.22 104.195C141.22 104.072 141.262 103.968 141.347 103.883C141.435 103.795 141.542 103.751 141.668 103.751ZM142.033 105.856V109.09C142.033 109.342 142.05 109.511 142.085 109.596C142.124 109.678 142.178 109.739 142.248 109.78C142.321 109.821 142.453 109.842 142.644 109.842V110H140.688V109.842C140.884 109.842 141.016 109.823 141.083 109.785C141.151 109.747 141.204 109.684 141.242 109.596C141.283 109.508 141.303 109.339 141.303 109.09V107.539C141.303 107.103 141.29 106.82 141.264 106.691C141.243 106.597 141.211 106.533 141.167 106.498C141.123 106.459 141.063 106.44 140.987 106.44C140.905 106.44 140.805 106.462 140.688 106.506L140.626 106.348L141.839 105.856H142.033ZM144.318 104.652V105.975H145.258V106.282H144.318V108.893C144.318 109.153 144.354 109.329 144.428 109.42C144.504 109.511 144.601 109.556 144.718 109.556C144.814 109.556 144.908 109.527 144.999 109.468C145.09 109.407 145.16 109.317 145.21 109.2H145.381C145.279 109.487 145.134 109.704 144.946 109.851C144.759 109.994 144.565 110.066 144.366 110.066C144.231 110.066 144.1 110.029 143.971 109.956C143.842 109.88 143.747 109.773 143.685 109.635C143.624 109.495 143.593 109.279 143.593 108.989V106.282H142.956V106.137C143.117 106.073 143.281 105.964 143.448 105.812C143.618 105.657 143.769 105.474 143.9 105.263C143.968 105.151 144.062 104.948 144.182 104.652H144.318ZM146.331 107.491C146.328 108.088 146.473 108.557 146.766 108.897C147.059 109.237 147.403 109.407 147.798 109.407C148.062 109.407 148.291 109.335 148.484 109.191C148.68 109.045 148.844 108.796 148.976 108.444L149.112 108.532C149.051 108.934 148.872 109.3 148.576 109.631C148.28 109.959 147.91 110.123 147.464 110.123C146.981 110.123 146.566 109.936 146.221 109.561C145.878 109.183 145.707 108.676 145.707 108.04C145.707 107.352 145.882 106.815 146.234 106.432C146.588 106.045 147.032 105.852 147.565 105.852C148.017 105.852 148.387 106.001 148.677 106.3C148.967 106.596 149.112 106.993 149.112 107.491H146.331ZM146.331 107.236H148.194C148.179 106.978 148.148 106.796 148.102 106.691C148.028 106.527 147.918 106.398 147.772 106.304C147.628 106.21 147.478 106.164 147.319 106.164C147.076 106.164 146.858 106.259 146.665 106.449C146.474 106.637 146.363 106.899 146.331 107.236ZM153.467 107.209V108.945C153.467 109.32 153.508 109.553 153.59 109.644C153.702 109.773 153.87 109.837 154.096 109.837H154.324V110H151.771V109.837H151.995C152.247 109.837 152.427 109.755 152.536 109.591C152.594 109.5 152.624 109.285 152.624 108.945V105.096C152.624 104.721 152.584 104.488 152.505 104.397C152.391 104.268 152.221 104.204 151.995 104.204H151.771V104.041H153.955C154.488 104.041 154.909 104.097 155.216 104.208C155.524 104.316 155.783 104.501 155.994 104.762C156.205 105.022 156.311 105.332 156.311 105.689C156.311 106.175 156.149 106.571 155.827 106.875C155.508 107.18 155.055 107.333 154.469 107.333C154.326 107.333 154.17 107.322 154.003 107.302C153.836 107.281 153.658 107.25 153.467 107.209ZM153.467 106.959C153.623 106.988 153.76 107.01 153.88 107.025C154 107.04 154.103 107.047 154.188 107.047C154.493 107.047 154.755 106.93 154.975 106.695C155.197 106.458 155.309 106.152 155.309 105.777C155.309 105.519 155.256 105.28 155.15 105.061C155.045 104.838 154.896 104.672 154.702 104.564C154.509 104.453 154.289 104.397 154.043 104.397C153.894 104.397 153.702 104.425 153.467 104.48V106.959ZM157.937 103.751C158.06 103.751 158.164 103.795 158.249 103.883C158.336 103.968 158.38 104.072 158.38 104.195C158.38 104.318 158.336 104.423 158.249 104.511C158.164 104.599 158.06 104.643 157.937 104.643C157.813 104.643 157.708 104.599 157.62 104.511C157.532 104.423 157.488 104.318 157.488 104.195C157.488 104.072 157.531 103.968 157.616 103.883C157.704 103.795 157.811 103.751 157.937 103.751ZM158.301 105.856V109.09C158.301 109.342 158.319 109.511 158.354 109.596C158.392 109.678 158.446 109.739 158.517 109.78C158.59 109.821 158.722 109.842 158.912 109.842V110H156.957V109.842C157.153 109.842 157.285 109.823 157.352 109.785C157.419 109.747 157.472 109.684 157.51 109.596C157.551 109.508 157.572 109.339 157.572 109.09V107.539C157.572 107.103 157.559 106.82 157.532 106.691C157.512 106.597 157.479 106.533 157.436 106.498C157.392 106.459 157.332 106.44 157.255 106.44C157.173 106.44 157.074 106.462 156.957 106.506L156.895 106.348L158.108 105.856H158.301ZM162.836 108.471C162.728 109.001 162.516 109.41 162.199 109.697C161.883 109.981 161.533 110.123 161.149 110.123C160.692 110.123 160.293 109.931 159.954 109.547C159.614 109.164 159.444 108.645 159.444 107.992C159.444 107.359 159.631 106.845 160.006 106.449C160.384 106.054 160.837 105.856 161.364 105.856C161.76 105.856 162.085 105.961 162.34 106.172C162.595 106.38 162.722 106.597 162.722 106.823C162.722 106.934 162.686 107.025 162.612 107.095C162.542 107.163 162.442 107.196 162.313 107.196C162.141 107.196 162.01 107.141 161.922 107.029C161.873 106.968 161.839 106.851 161.821 106.678C161.807 106.505 161.748 106.373 161.646 106.282C161.543 106.194 161.401 106.15 161.219 106.15C160.926 106.15 160.69 106.259 160.512 106.476C160.274 106.763 160.156 107.142 160.156 107.614C160.156 108.094 160.273 108.519 160.507 108.888C160.745 109.254 161.064 109.438 161.465 109.438C161.752 109.438 162.01 109.339 162.239 109.143C162.4 109.008 162.557 108.764 162.709 108.409L162.836 108.471ZM164.585 104.652V105.975H165.526V106.282H164.585V108.893C164.585 109.153 164.622 109.329 164.695 109.42C164.771 109.511 164.868 109.556 164.985 109.556C165.082 109.556 165.176 109.527 165.267 109.468C165.357 109.407 165.428 109.317 165.478 109.2H165.649C165.546 109.487 165.401 109.704 165.214 109.851C165.026 109.994 164.833 110.066 164.634 110.066C164.499 110.066 164.367 110.029 164.238 109.956C164.109 109.88 164.014 109.773 163.953 109.635C163.891 109.495 163.86 109.279 163.86 108.989V106.282H163.223V106.137C163.384 106.073 163.548 105.964 163.715 105.812C163.885 105.657 164.036 105.474 164.168 105.263C164.235 105.151 164.329 104.948 164.449 104.652H164.585ZM169.45 105.975V108.414C169.45 108.879 169.46 109.165 169.481 109.271C169.504 109.373 169.54 109.445 169.586 109.486C169.636 109.527 169.693 109.547 169.758 109.547C169.849 109.547 169.951 109.522 170.065 109.473L170.127 109.626L168.923 110.123H168.725V109.271C168.379 109.646 168.116 109.881 167.934 109.978C167.752 110.075 167.561 110.123 167.358 110.123C167.133 110.123 166.937 110.059 166.77 109.93C166.605 109.798 166.491 109.629 166.427 109.424C166.362 109.219 166.33 108.929 166.33 108.554V106.757C166.33 106.566 166.31 106.435 166.269 106.361C166.228 106.288 166.166 106.232 166.084 106.194C166.005 106.153 165.86 106.134 165.649 106.137V105.975H167.06V108.668C167.06 109.043 167.124 109.29 167.253 109.407C167.385 109.524 167.543 109.583 167.728 109.583C167.854 109.583 167.996 109.543 168.154 109.464C168.315 109.385 168.505 109.234 168.725 109.011V106.73C168.725 106.502 168.683 106.348 168.598 106.269C168.516 106.187 168.343 106.143 168.079 106.137V105.975H169.45ZM171.599 105.856V106.761C171.936 106.158 172.282 105.856 172.636 105.856C172.797 105.856 172.931 105.906 173.036 106.005C173.142 106.102 173.194 106.215 173.194 106.344C173.194 106.458 173.156 106.555 173.08 106.634C173.004 106.713 172.913 106.752 172.808 106.752C172.705 106.752 172.589 106.703 172.46 106.603C172.334 106.5 172.241 106.449 172.179 106.449C172.126 106.449 172.069 106.479 172.008 106.537C171.876 106.657 171.74 106.855 171.599 107.13V109.06C171.599 109.282 171.627 109.451 171.683 109.565C171.721 109.644 171.788 109.71 171.885 109.763C171.981 109.815 172.121 109.842 172.302 109.842V110H170.241V109.842C170.446 109.842 170.599 109.81 170.698 109.745C170.771 109.698 170.823 109.624 170.852 109.521C170.867 109.471 170.874 109.329 170.874 109.095V107.535C170.874 107.066 170.864 106.788 170.843 106.7C170.826 106.609 170.791 106.543 170.738 106.502C170.688 106.461 170.625 106.44 170.549 106.44C170.458 106.44 170.355 106.462 170.241 106.506L170.197 106.348L171.415 105.856H171.599ZM174.095 107.491C174.092 108.088 174.237 108.557 174.53 108.897C174.823 109.237 175.167 109.407 175.563 109.407C175.827 109.407 176.055 109.335 176.249 109.191C176.445 109.045 176.609 108.796 176.741 108.444L176.877 108.532C176.815 108.934 176.637 109.3 176.341 109.631C176.045 109.959 175.674 110.123 175.229 110.123C174.746 110.123 174.331 109.936 173.985 109.561C173.643 109.183 173.471 108.676 173.471 108.04C173.471 107.352 173.647 106.815 173.999 106.432C174.353 106.045 174.797 105.852 175.33 105.852C175.781 105.852 176.152 106.001 176.442 106.3C176.732 106.596 176.877 106.993 176.877 107.491H174.095ZM174.095 107.236H175.958C175.944 106.978 175.913 106.796 175.866 106.691C175.793 106.527 175.683 106.398 175.537 106.304C175.393 106.21 175.242 106.164 175.084 106.164C174.841 106.164 174.623 106.259 174.429 106.449C174.239 106.637 174.127 106.899 174.095 107.236ZM180.019 105.856V107.227H179.874C179.763 106.796 179.619 106.503 179.443 106.348C179.271 106.193 179.049 106.115 178.78 106.115C178.575 106.115 178.409 106.169 178.283 106.278C178.157 106.386 178.094 106.506 178.094 106.638C178.094 106.802 178.141 106.943 178.235 107.06C178.326 107.18 178.51 107.308 178.789 107.442L179.43 107.754C180.025 108.044 180.322 108.427 180.322 108.901C180.322 109.268 180.183 109.563 179.905 109.789C179.629 110.012 179.32 110.123 178.978 110.123C178.731 110.123 178.45 110.079 178.134 109.991C178.037 109.962 177.958 109.947 177.896 109.947C177.829 109.947 177.776 109.985 177.738 110.062H177.593V108.625H177.738C177.82 109.035 177.977 109.344 178.208 109.552C178.44 109.76 178.699 109.864 178.986 109.864C179.188 109.864 179.353 109.805 179.479 109.688C179.607 109.568 179.672 109.424 179.672 109.257C179.672 109.055 179.6 108.885 179.457 108.748C179.316 108.61 179.033 108.436 178.608 108.225C178.184 108.014 177.905 107.823 177.773 107.653C177.642 107.486 177.576 107.275 177.576 107.021C177.576 106.689 177.688 106.413 177.914 106.19C178.143 105.967 178.437 105.856 178.797 105.856C178.956 105.856 179.147 105.89 179.373 105.957C179.522 106.001 179.622 106.023 179.672 106.023C179.719 106.023 179.755 106.013 179.782 105.992C179.808 105.972 179.839 105.926 179.874 105.856H180.019Z" fill="#0000FF"/>
<path d="M119.357 111.2H180.639V111.639H119.357V111.2Z" fill="#0000FF"/>
<path d="M141.913 117.905L142.049 119.931H141.913C141.731 119.324 141.472 118.888 141.135 118.621C140.798 118.354 140.394 118.221 139.922 118.221C139.527 118.221 139.169 118.322 138.85 118.524C138.531 118.724 138.279 119.043 138.094 119.482C137.913 119.922 137.822 120.468 137.822 121.122C137.822 121.661 137.908 122.128 138.081 122.523C138.254 122.919 138.513 123.222 138.859 123.433C139.208 123.644 139.604 123.75 140.05 123.75C140.437 123.75 140.778 123.667 141.074 123.503C141.37 123.336 141.695 123.007 142.049 122.515L142.186 122.603C141.887 123.133 141.538 123.521 141.14 123.767C140.741 124.013 140.268 124.136 139.72 124.136C138.733 124.136 137.968 123.77 137.426 123.038C137.022 122.493 136.82 121.851 136.82 121.113C136.82 120.518 136.953 119.972 137.22 119.474C137.486 118.976 137.853 118.59 138.318 118.318C138.787 118.042 139.298 117.905 139.852 117.905C140.283 117.905 140.708 118.01 141.126 118.221C141.25 118.286 141.337 118.318 141.39 118.318C141.469 118.318 141.538 118.29 141.597 118.234C141.673 118.155 141.727 118.045 141.759 117.905H141.913ZM144.748 119.856C145.357 119.856 145.846 120.087 146.215 120.55C146.529 120.946 146.686 121.4 146.686 121.913C146.686 122.273 146.599 122.638 146.426 123.007C146.253 123.376 146.015 123.654 145.71 123.842C145.408 124.029 145.071 124.123 144.699 124.123C144.093 124.123 143.611 123.881 143.253 123.398C142.952 122.991 142.801 122.534 142.801 122.027C142.801 121.658 142.892 121.292 143.073 120.928C143.258 120.562 143.5 120.292 143.798 120.12C144.097 119.944 144.414 119.856 144.748 119.856ZM144.611 120.142C144.456 120.142 144.299 120.188 144.141 120.282C143.986 120.373 143.86 120.534 143.763 120.766C143.667 120.997 143.618 121.294 143.618 121.658C143.618 122.244 143.734 122.749 143.965 123.174C144.2 123.599 144.507 123.811 144.888 123.811C145.172 123.811 145.407 123.694 145.591 123.459C145.776 123.225 145.868 122.822 145.868 122.251C145.868 121.536 145.714 120.974 145.407 120.563C145.199 120.282 144.934 120.142 144.611 120.142ZM148.452 120.708C148.924 120.14 149.374 119.856 149.801 119.856C150.021 119.856 150.21 119.912 150.368 120.023C150.526 120.131 150.652 120.312 150.746 120.563C150.811 120.739 150.843 121.009 150.843 121.372V123.09C150.843 123.345 150.863 123.518 150.904 123.609C150.937 123.682 150.988 123.739 151.058 123.78C151.131 123.821 151.265 123.842 151.458 123.842V124H149.467V123.842H149.551C149.738 123.842 149.869 123.814 149.942 123.758C150.018 123.7 150.071 123.615 150.1 123.503C150.112 123.459 150.118 123.322 150.118 123.09V121.442C150.118 121.076 150.069 120.811 149.973 120.647C149.879 120.48 149.719 120.396 149.494 120.396C149.145 120.396 148.798 120.587 148.452 120.968V123.09C148.452 123.363 148.468 123.531 148.5 123.596C148.542 123.681 148.597 123.744 148.667 123.785C148.741 123.823 148.887 123.842 149.107 123.842V124H147.116V123.842H147.204C147.409 123.842 147.547 123.791 147.617 123.688C147.69 123.583 147.727 123.383 147.727 123.09V121.596C147.727 121.113 147.715 120.818 147.692 120.713C147.671 120.607 147.638 120.536 147.591 120.498C147.547 120.459 147.487 120.44 147.411 120.44C147.329 120.44 147.23 120.462 147.116 120.506L147.05 120.348L148.263 119.856H148.452V120.708ZM152.948 118.652V119.975H153.888V120.282H152.948V122.893C152.948 123.153 152.984 123.329 153.058 123.42C153.134 123.511 153.23 123.556 153.348 123.556C153.444 123.556 153.538 123.527 153.629 123.468C153.72 123.407 153.79 123.317 153.84 123.2H154.011C153.909 123.487 153.764 123.704 153.576 123.851C153.389 123.994 153.195 124.066 152.996 124.066C152.861 124.066 152.729 124.029 152.601 123.956C152.472 123.88 152.376 123.773 152.315 123.635C152.253 123.495 152.223 123.279 152.223 122.989V120.282H151.585V120.137C151.747 120.073 151.911 119.964 152.078 119.812C152.248 119.657 152.398 119.474 152.53 119.263C152.598 119.151 152.691 118.948 152.812 118.652H152.948ZM156.564 123.42C156.151 123.739 155.892 123.924 155.787 123.974C155.628 124.047 155.46 124.083 155.281 124.083C155.003 124.083 154.773 123.988 154.591 123.798C154.413 123.607 154.323 123.357 154.323 123.046C154.323 122.85 154.367 122.68 154.455 122.537C154.575 122.337 154.783 122.15 155.079 121.974C155.378 121.798 155.873 121.584 156.564 121.333V121.174C156.564 120.773 156.5 120.498 156.371 120.348C156.245 120.199 156.061 120.124 155.817 120.124C155.633 120.124 155.486 120.174 155.378 120.273C155.267 120.373 155.211 120.487 155.211 120.616L155.22 120.871C155.22 121.006 155.185 121.11 155.114 121.183C155.047 121.256 154.958 121.293 154.846 121.293C154.738 121.293 154.648 121.255 154.578 121.179C154.511 121.103 154.477 120.999 154.477 120.867C154.477 120.615 154.606 120.383 154.864 120.172C155.122 119.961 155.483 119.856 155.949 119.856C156.307 119.856 156.6 119.916 156.828 120.036C157.001 120.127 157.128 120.269 157.21 120.462C157.263 120.588 157.29 120.846 157.29 121.236V122.603C157.29 122.986 157.297 123.222 157.312 123.31C157.326 123.395 157.35 123.452 157.382 123.481C157.417 123.511 157.457 123.525 157.5 123.525C157.547 123.525 157.588 123.515 157.624 123.495C157.685 123.457 157.804 123.35 157.979 123.174V123.42C157.651 123.859 157.338 124.079 157.039 124.079C156.896 124.079 156.781 124.029 156.696 123.93C156.611 123.83 156.567 123.66 156.564 123.42ZM156.564 123.134V121.601C156.122 121.776 155.836 121.901 155.708 121.974C155.476 122.103 155.311 122.238 155.211 122.378C155.111 122.519 155.062 122.673 155.062 122.84C155.062 123.051 155.125 123.227 155.25 123.367C155.376 123.505 155.521 123.574 155.686 123.574C155.908 123.574 156.201 123.427 156.564 123.134ZM161.702 122.471C161.593 123.001 161.381 123.41 161.064 123.697C160.748 123.981 160.398 124.123 160.014 124.123C159.557 124.123 159.159 123.931 158.819 123.547C158.479 123.164 158.309 122.645 158.309 121.992C158.309 121.359 158.497 120.845 158.872 120.449C159.25 120.054 159.702 119.856 160.229 119.856C160.625 119.856 160.95 119.961 161.205 120.172C161.46 120.38 161.587 120.597 161.587 120.823C161.587 120.934 161.551 121.025 161.478 121.095C161.407 121.163 161.308 121.196 161.179 121.196C161.006 121.196 160.875 121.141 160.788 121.029C160.738 120.968 160.704 120.851 160.687 120.678C160.672 120.505 160.613 120.373 160.511 120.282C160.408 120.194 160.266 120.15 160.084 120.15C159.792 120.15 159.556 120.259 159.377 120.476C159.14 120.763 159.021 121.142 159.021 121.614C159.021 122.094 159.138 122.519 159.373 122.888C159.61 123.254 159.929 123.438 160.331 123.438C160.618 123.438 160.875 123.339 161.104 123.143C161.265 123.008 161.422 122.764 161.574 122.409L161.702 122.471ZM163.451 118.652V119.975H164.391V120.282H163.451V122.893C163.451 123.153 163.487 123.329 163.561 123.42C163.637 123.511 163.733 123.556 163.851 123.556C163.947 123.556 164.041 123.527 164.132 123.468C164.223 123.407 164.293 123.317 164.343 123.2H164.514C164.412 123.487 164.267 123.704 164.079 123.851C163.892 123.994 163.698 124.066 163.499 124.066C163.364 124.066 163.232 124.029 163.104 123.956C162.975 123.88 162.879 123.773 162.818 123.635C162.756 123.495 162.726 123.279 162.726 122.989V120.282H162.088V120.137C162.25 120.073 162.414 119.964 162.581 119.812C162.75 119.657 162.901 119.474 163.033 119.263C163.101 119.151 163.194 118.948 163.314 118.652H163.451Z" fill="#0000FF"/>
<path d="M136.495 125.2H164.501V125.639H136.495V125.2Z" fill="#0000FF"/>
</svg>
