<svg width="300" height="180" fill="none" xmlns="http://www.w3.org/2000/svg"><g clip-path="url(#Sudoku Puzzle__a)"><path fill="#fff" d="M0 0h300v180H0z"/><path d="m29.395 24.455.107 4.414h-.4c-.19-1.107-.655-1.995-1.397-2.666-.736-.677-1.533-1.015-2.392-1.015-.665 0-1.192.178-1.582.537-.385.351-.577.758-.577 1.22 0 .293.069.554.205.782.19.306.492.608.909.908.306.215 1.012.595 2.119 1.142 1.55.762 2.594 1.482 3.134 2.159.534.677.801 1.451.801 2.324 0 1.107-.433 2.06-1.299 2.861-.859.794-1.953 1.191-3.28 1.191a5.3 5.3 0 0 1-1.182-.127c-.372-.084-.837-.244-1.397-.478-.312-.13-.57-.195-.771-.195-.17 0-.349.065-.538.195-.188.13-.341.329-.459.596h-.36v-5h.36c.287 1.406.837 2.48 1.65 3.222.821.736 1.703 1.104 2.647 1.104.73 0 1.309-.199 1.739-.596.436-.397.654-.86.654-1.386 0-.313-.085-.616-.254-.909-.163-.293-.413-.57-.752-.83-.338-.267-.937-.612-1.797-1.035-1.204-.592-2.07-1.097-2.598-1.514-.527-.416-.934-.882-1.22-1.396a3.497 3.497 0 0 1-.42-1.7c0-1.054.387-1.953 1.162-2.695.775-.742 1.751-1.113 2.93-1.113.43 0 .846.052 1.25.156.306.078.677.225 1.113.44.443.208.752.312.928.312a.523.523 0 0 0 .4-.156c.098-.104.189-.355.274-.752h.293Zm11.23 4.414v7.149c0 .696.065 1.132.195 1.308.13.17.394.277.791.322V38h-3.72v-1.22c-.437.52-.873.901-1.309 1.142a3.046 3.046 0 0 1-1.465.351 2.19 2.19 0 0 1-1.377-.468c-.397-.32-.664-.69-.8-1.114-.137-.423-.206-1.162-.206-2.216v-3.623c0-.69-.065-1.12-.195-1.29-.124-.169-.387-.28-.791-.332v-.36h3.72v6.24c0 .65.03 1.07.089 1.26a.875.875 0 0 0 .293.429.786.786 0 0 0 .468.146c.235 0 .446-.062.635-.185.26-.17.573-.511.938-1.026v-4.882c0-.69-.066-1.12-.196-1.29-.123-.169-.387-.28-.79-.332v-.36h3.72Zm11.191-4.111v10.508c0 .71.02 1.13.059 1.26.052.214.15.374.293.478.15.104.407.17.772.195v.323l-3.858.751v-1.445c-.462.56-.876.94-1.24 1.143a2.443 2.443 0 0 1-1.22.302c-1.166 0-2.087-.52-2.765-1.562-.547-.846-.82-1.885-.82-3.115 0-.983.17-1.862.508-2.637.338-.781.8-1.37 1.387-1.768a3.358 3.358 0 0 1 1.904-.595c.436 0 .824.084 1.162.254.339.169.7.465 1.084.888v-2.754c0-.696-.03-1.116-.088-1.26a.837.837 0 0 0-.351-.42c-.157-.09-.45-.136-.88-.136v-.41h4.053Zm-2.734 6.191c-.482-.924-1.07-1.387-1.767-1.387a.9.9 0 0 0-.596.196c-.241.202-.44.556-.596 1.064-.15.508-.225 1.286-.225 2.334 0 1.153.085 2.005.254 2.559.17.553.4.954.694 1.201.15.124.355.186.615.186.573 0 1.113-.45 1.621-1.348v-4.805Zm9.297-2.353c.794 0 1.533.205 2.217.615.683.41 1.2.993 1.552 1.748.358.755.537 1.582.537 2.48 0 1.296-.328 2.38-.986 3.252-.794 1.055-1.891 1.582-3.29 1.582-1.374 0-2.432-.481-3.175-1.445-.742-.963-1.113-2.08-1.113-3.35 0-1.308.378-2.447 1.133-3.418.762-.976 1.803-1.464 3.125-1.464Zm.039.693a1.15 1.15 0 0 0-.86.38c-.234.248-.39.743-.468 1.485-.072.736-.108 1.761-.108 3.076 0 .697.046 1.348.137 1.954.072.462.225.813.46 1.054.233.241.5.362.8.362.293 0 .537-.082.732-.245.254-.22.424-.53.508-.927.13-.619.196-1.869.196-3.75 0-1.107-.062-1.865-.186-2.276-.124-.416-.306-.72-.547-.908-.17-.137-.39-.205-.664-.205Zm9.365-4.531v8.71l2.12-2.08c.435-.423.706-.729.81-.917.11-.19.166-.371.166-.547a.545.545 0 0 0-.215-.44c-.143-.117-.423-.201-.84-.254v-.36h4.092v.36c-.39.02-.732.114-1.025.284-.293.162-.866.66-1.72 1.494l-.995.976 2.148 3.145c.866 1.276 1.38 1.992 1.543 2.148.221.222.501.345.84.371V38H69.99v-.352c.209 0 .358-.039.45-.117.097-.078.146-.163.146-.254 0-.15-.137-.426-.41-.83l-1.807-2.646-.586.576v1.64c0 .697.065 1.133.195 1.31.13.168.398.276.801.321V38h-4.716v-.352c.384-.039.657-.162.82-.37.11-.144.166-.564.166-1.26V26.74c0-.69-.065-1.12-.196-1.289-.123-.17-.387-.28-.79-.332v-.361h3.72Zm16.24 4.111v7.149c0 .696.066 1.132.196 1.308.13.17.394.277.79.322V38h-3.72v-1.22c-.436.52-.872.901-1.308 1.142a3.046 3.046 0 0 1-1.465.351 2.19 2.19 0 0 1-1.377-.468c-.397-.32-.664-.69-.801-1.114-.137-.423-.205-1.162-.205-2.216v-3.623c0-.69-.065-1.12-.195-1.29-.124-.169-.388-.28-.791-.332v-.36h3.72v6.24c0 .65.03 1.07.088 1.26a.874.874 0 0 0 .293.429.786.786 0 0 0 .469.146c.234 0 .446-.062.635-.185.26-.17.572-.511.937-1.026v-4.882c0-.69-.065-1.12-.195-1.29-.124-.169-.388-.28-.791-.332v-.36h3.72Zm12.041 3.135v3.672c0 .716.043 1.168.127 1.357a.998.998 0 0 0 .47.44c.227.11.64.166 1.24.166V38h-6.73v-.361c.613 0 1.026-.056 1.241-.166.221-.117.374-.267.46-.45.09-.182.136-.631.136-1.347v-8.594c0-.716-.046-1.165-.137-1.348a.933.933 0 0 0-.459-.449c-.221-.11-.635-.166-1.24-.166v-.361h5.771c1.901 0 3.265.338 4.092 1.015.827.678 1.24 1.524 1.24 2.54 0 .859-.267 1.595-.8 2.207-.534.611-1.27 1.028-2.207 1.25-.632.156-1.7.234-3.204.234Zm0-6.484v5.722c.215.013.378.02.489.02.794 0 1.406-.235 1.836-.703.43-.476.644-1.208.644-2.198 0-.983-.215-1.702-.644-2.158-.43-.456-1.071-.683-1.924-.683h-.4Zm16.319 3.35v7.148c0 .696.065 1.132.195 1.308.13.17.394.277.791.322V38h-3.721v-1.22c-.436.52-.872.901-1.308 1.142a3.047 3.047 0 0 1-1.465.351c-.514 0-.973-.156-1.377-.468-.397-.32-.664-.69-.801-1.114-.136-.423-.205-1.162-.205-2.216v-3.623c0-.69-.065-1.12-.195-1.29-.124-.169-.387-.28-.791-.332v-.36h3.721v6.24c0 .65.029 1.07.087 1.26a.882.882 0 0 0 .293.429.787.787 0 0 0 .469.146c.235 0 .446-.062.635-.185.26-.17.573-.511.937-1.026v-4.882c0-.69-.065-1.12-.195-1.29-.124-.169-.387-.28-.791-.332v-.36h3.721Zm9.795 9.13h-7.949v-.215l5.019-8.32h-1.465c-.631 0-1.084.058-1.357.176a1.42 1.42 0 0 0-.664.547c-.17.247-.345.693-.528 1.337h-.341V28.87h7.685v.264l-4.98 8.242h.625c1.25 0 2.151-.179 2.705-.537.553-.358.97-1.013 1.25-1.963h.273L122.178 38Zm8.886 0h-7.949v-.215l5.02-8.32h-1.465c-.632 0-1.084.058-1.358.176a1.43 1.43 0 0 0-.664.547c-.169.247-.345.693-.527 1.337h-.342V28.87h7.686v.264l-4.981 8.242h.625c1.25 0 2.152-.179 2.705-.537.554-.358.971-1.013 1.25-1.963h.274L131.064 38Zm4.981-13.242v11.348c0 .644.075 1.057.225 1.24.149.176.442.276.878.302V38h-4.931v-.352c.403-.013.703-.13.898-.351.13-.15.196-.547.196-1.191v-9.454c0-.638-.075-1.045-.225-1.22-.15-.183-.44-.287-.869-.313v-.361h3.828Zm9.726 8.35h-5.009c.058 1.21.381 2.167.967 2.87.449.54.989.811 1.621.811.39 0 .745-.107 1.064-.322.319-.222.661-.615 1.025-1.182l.332.215c-.494 1.01-1.041 1.725-1.64 2.148-.599.417-1.292.625-2.08.625-1.354 0-2.38-.52-3.076-1.562-.56-.84-.84-1.882-.84-3.125 0-1.523.41-2.734 1.23-3.633.827-.905 1.794-1.357 2.901-1.357.924 0 1.725.38 2.402 1.142.684.756 1.051 1.878 1.103 3.37Zm-2.402-.655c0-1.048-.058-1.768-.176-2.158-.11-.39-.286-.687-.527-.889-.137-.117-.319-.175-.547-.175-.338 0-.615.165-.83.497-.384.58-.576 1.374-.576 2.383v.342h2.656Z" fill="#2980B9"/><path fill="#D6EAF8" d="M20 58h35.429v20H20zm37.428 0h35.429v20H57.428zm37.429 0h35.429v20H94.857zM132 58h35.429v20H132z"/><path d="m149.127 72.164 2.162-6.557h-1.646c-.645 0-1.129.084-1.454.252-.226.118-.414.338-.562.663h-.223l.575-2.467h4.734l-2.666 8.11h-.92Z" fill="#2980B9"/><path fill="#D6EAF8" d="M170 58h35.429v20H170z"/><path d="m184.299 69.006 3.773-5.115h.715v5.115h.727v1.213h-.727V72h-1.611v-1.781h-2.877v-1.213Zm.568 0h2.309V65.87l-2.309 3.135Z" fill="#2980B9"/><path fill="#D6EAF8" d="M207.143 58h35.429v20h-35.429zm37.428 0H280v20h-35.429zM20 80h35.429v20H20zm37.428 0h35.429v20H57.428zm37.429 0h35.429v20H94.857zm37.429 0h35.429v20h-35.429zm37.428 0h35.429v20h-35.429zm37.429 0h35.429v20h-35.429zm37.428 0H280v20h-35.429z"/><path d="M260.828 86.055h3.721l-.592 1.511h-3.129l-.299.791c1.348.051 2.385.387 3.112 1.008.597.512.896 1.149.896 1.91 0 .489-.139.967-.416 1.436a2.794 2.794 0 0 1-1.172 1.078 3.677 3.677 0 0 1-1.658.375c-.648 0-1.146-.121-1.494-.363-.242-.172-.363-.367-.363-.586a.62.62 0 0 1 .187-.446.611.611 0 0 1 .445-.193c.153 0 .307.031.463.094.157.062.424.227.803.492.238.164.443.277.615.34.121.047.258.07.41.07.321 0 .592-.117.815-.351.226-.235.34-.516.34-.844 0-.688-.344-1.246-1.032-1.676-.687-.43-1.554-.644-2.601-.644-.106 0-.264.002-.475.005l1.424-4.007Zm-146.92-.165v6.499c0 .488.022.8.065.937a.604.604 0 0 0 .269.328c.137.086.356.13.656.13h.182V94h-4.184v-.217h.211c.34 0 .582-.039.727-.117a.6.6 0 0 0 .293-.322c.051-.137.076-.455.076-.955v-4.12c0-.367-.017-.595-.053-.685a.474.474 0 0 0-.199-.234.553.553 0 0 0-.328-.1c-.199 0-.441.063-.727.188l-.105-.211 2.924-1.336h.193Z" fill="#2980B9"/><path fill="#D6EAF8" d="M20 102h35.429v20H20zm37.428 0h35.429v20H57.428zm37.429 0h35.429v20H94.857zm37.429 0h35.429v20h-35.429zm37.428 0h35.429v20h-35.429zm37.429 0h35.429v20h-35.429z"/><path d="M185.775 112.016v-.205c.446-.129.754-.249.926-.358a1.4 1.4 0 0 0 .445-.51c.125-.23.188-.463.188-.697 0-.324-.119-.601-.357-.832a1.196 1.196 0 0 0-.879-.352c-.547 0-1.012.29-1.395.868l-.217-.076c.282-.653.641-1.143 1.078-1.471a2.41 2.41 0 0 1 1.471-.492c.551 0 1.004.168 1.36.504.359.335.539.728.539 1.177 0 .293-.084.576-.252.85-.164.269-.424.508-.78.715.457.222.805.498 1.043.826.243.324.364.732.364 1.225 0 .828-.301 1.533-.903 2.115-.597.578-1.4.867-2.408.867-.672 0-1.162-.111-1.471-.334-.222-.156-.334-.357-.334-.604 0-.179.065-.332.194-.457a.61.61 0 0 1 .445-.193c.129 0 .25.027.363.082.063.031.284.203.662.516.383.308.741.463 1.073.463a.975.975 0 0 0 .744-.34c.207-.231.31-.522.31-.873 0-.535-.187-1.028-.562-1.477-.375-.453-.924-.765-1.647-.937Z" fill="#2980B9"/><path fill="#D6EAF8" d="M244.571 102H280v20h-35.429zM20 124h35.429v20H20zm37.428 0h35.429v20H57.428zM95 124h35.429v20H95zm37.286 0h35.429v20h-35.429z"/><path d="M151.969 138h-4.676v-.129c1.434-1.707 2.303-2.855 2.607-3.445.309-.59.463-1.166.463-1.729 0-.41-.127-.75-.381-1.019a1.218 1.218 0 0 0-.931-.41c-.602 0-1.069.3-1.401.902l-.216-.076c.211-.75.531-1.305.961-1.664.429-.36.925-.539 1.488-.539.402 0 .769.093 1.101.281.332.187.592.445.78.773.187.325.281.629.281.914 0 .52-.145 1.047-.434 1.582-.394.723-1.256 1.731-2.584 3.024h1.717c.422 0 .695-.018.82-.053a.697.697 0 0 0 .317-.176c.082-.086.189-.263.322-.533h.211l-.445 2.297Zm-78.194-3.984v-.205c.446-.129.754-.249.926-.358a1.41 1.41 0 0 0 .446-.51c.124-.23.187-.463.187-.697 0-.324-.12-.601-.357-.832a1.194 1.194 0 0 0-.88-.352c-.546 0-1.011.29-1.394.868l-.217-.076c.282-.653.641-1.143 1.078-1.471a2.408 2.408 0 0 1 1.471-.492c.55 0 1.004.168 1.36.504.359.335.539.728.539 1.177 0 .293-.084.576-.252.85-.164.269-.424.508-.78.715.457.222.805.498 1.043.826.243.324.364.732.364 1.225 0 .828-.301 1.533-.903 2.115-.597.578-1.4.867-2.408.867-.672 0-1.162-.111-1.47-.334-.223-.156-.335-.357-.335-.604 0-.179.065-.332.194-.457a.611.611 0 0 1 .445-.193.82.82 0 0 1 .363.082c.063.031.284.203.662.516.383.308.74.463 1.073.463a.975.975 0 0 0 .744-.34c.207-.231.31-.522.31-.873 0-.535-.187-1.028-.562-1.477-.375-.453-.924-.765-1.647-.937Zm-38.476.99 3.773-5.115h.715v5.115h.727v1.213h-.727V138h-1.611v-1.781h-2.877v-1.213Zm.568 0h2.309v-3.135l-2.309 3.135Z" fill="#2980B9"/><path fill="#D6EAF8" d="M169.714 124h35.429v20h-35.429zm37.429 0h35.429v20h-35.429zm37.428 0H280v20h-35.429zM20 146h35.429v20H20zm37.428 0h35.429v20H57.428z"/><path d="M76.969 160h-4.676v-.129c1.434-1.707 2.303-2.855 2.607-3.445.309-.59.463-1.166.463-1.729 0-.41-.127-.75-.38-1.019a1.22 1.22 0 0 0-.932-.41c-.602 0-1.069.3-1.4.902l-.217-.076c.21-.75.53-1.305.96-1.664a2.25 2.25 0 0 1 1.489-.539c.402 0 .77.093 1.101.281.332.187.592.445.78.773.187.325.28.629.28.914 0 .52-.144 1.047-.433 1.582-.394.723-1.255 1.731-2.584 3.024h1.717c.422 0 .695-.018.82-.053a.696.696 0 0 0 .317-.176c.082-.086.19-.263.322-.533h.211L76.97 160Z" fill="#2980B9"/><path fill="#D6EAF8" d="M94.857 146h35.429v20H94.857zm37.429 0h35.429v20h-35.429zm37.428 0h35.429v20h-35.429zm37.429 0h35.429v20h-35.429zm37.428 0H280v20h-35.429zM20 168h35.429v20H20z"/><path d="M40.637 173.891v.164c-.707.179-1.276.412-1.705.697a3.311 3.311 0 0 0-1.014 1.031c-.246.403-.438.903-.574 1.5.172-.117.314-.193.428-.228a2.6 2.6 0 0 1 .767-.117 1.92 1.92 0 0 1 1.483.65c.398.43.597 1.017.597 1.764 0 .523-.107 1.003-.322 1.441a2.409 2.409 0 0 1-2.18 1.371 2.46 2.46 0 0 1-1.353-.398c-.414-.27-.739-.662-.973-1.178a4.074 4.074 0 0 1-.346-1.682c0-.89.213-1.718.639-2.484a4.774 4.774 0 0 1 1.822-1.834c.79-.457 1.7-.69 2.73-.697Zm-3.37 3.867c-.03.539-.046.933-.046 1.183 0 .539.05 1.061.152 1.565.105.504.248.857.428 1.06a.592.592 0 0 0 .457.217c.18 0 .34-.103.48-.31.14-.211.211-.637.211-1.278 0-1.078-.13-1.822-.392-2.232-.168-.266-.395-.399-.68-.399-.156 0-.36.065-.61.194Z" fill="#2980B9"/><path fill="#D6EAF8" d="M57.428 168h35.429v20H57.428zm37.429 0h35.429v20H94.857zm37.429 0h35.429v20h-35.429zm37.428 0h35.429v20h-35.429z"/><path d="M185.828 174.055h3.721l-.592 1.511h-3.129l-.299.791c1.348.051 2.385.387 3.112 1.008.597.512.896 1.149.896 1.91 0 .489-.139.967-.416 1.436a2.793 2.793 0 0 1-1.172 1.078 3.677 3.677 0 0 1-1.658.375c-.648 0-1.146-.121-1.494-.363-.242-.172-.363-.367-.363-.586 0-.168.062-.317.187-.445a.612.612 0 0 1 .445-.194c.153 0 .307.031.463.094.157.062.424.226.803.492.238.164.443.277.615.34.121.047.258.07.41.07.321 0 .592-.117.815-.351.226-.235.34-.516.34-.844 0-.688-.344-1.246-1.032-1.676-.687-.43-1.554-.644-2.601-.644-.106 0-.264.002-.475.005l1.424-4.007Z" fill="#2980B9"/><path fill="#D6EAF8" d="M207.143 168h35.429v20h-35.429zm37.428 0H280v20h-35.429z"/><path d="M262.908 173.891v6.498c0 .488.022.8.065.937a.604.604 0 0 0 .269.328c.137.086.356.129.656.129h.182V182h-4.184v-.217h.211c.34 0 .582-.039.727-.117a.602.602 0 0 0 .293-.322c.051-.137.076-.455.076-.955v-4.119c0-.368-.017-.596-.053-.686a.47.47 0 0 0-.199-.234.55.55 0 0 0-.328-.1c-.199 0-.441.062-.727.188l-.105-.211 2.924-1.336h.193Z" fill="#2980B9"/></g><defs><clipPath id="Sudoku Puzzle__a"><path fill="#fff" d="M0 0h300v180H0z"/></clipPath></defs></svg>