<svg width="300" height="180" viewBox="0 0 300 180" fill="none" xmlns="http://www.w3.org/2000/svg">
<rect width="300" height="180" fill="#F4D055"/>
<g filter="url(#filter0_d_1384_770)">
<rect x="34" y="11" width="231" height="158" rx="10" fill="white"/>
</g>
<rect x="65" y="129" width="169" height="24" rx="6" fill="#0000F5"/>
<path d="M118.135 139.199C118.099 138.858 117.945 138.592 117.674 138.402C117.406 138.212 117.057 138.117 116.627 138.117C116.325 138.117 116.066 138.163 115.85 138.254C115.634 138.345 115.469 138.469 115.354 138.625C115.239 138.781 115.181 138.96 115.178 139.16C115.178 139.327 115.216 139.471 115.292 139.594C115.37 139.716 115.475 139.82 115.608 139.906C115.741 139.99 115.888 140.06 116.049 140.117C116.211 140.174 116.374 140.223 116.538 140.262L117.288 140.449C117.59 140.52 117.88 140.615 118.159 140.734C118.44 140.854 118.691 141.005 118.913 141.188C119.137 141.37 119.314 141.59 119.444 141.848C119.574 142.105 119.639 142.408 119.639 142.754C119.639 143.223 119.519 143.635 119.28 143.992C119.04 144.346 118.694 144.624 118.241 144.824C117.79 145.022 117.245 145.121 116.604 145.121C115.982 145.121 115.441 145.025 114.983 144.832C114.527 144.639 114.17 144.358 113.913 143.988C113.657 143.618 113.519 143.168 113.499 142.637H114.924C114.945 142.915 115.031 143.147 115.182 143.332C115.333 143.517 115.53 143.655 115.772 143.746C116.017 143.837 116.29 143.883 116.592 143.883C116.907 143.883 117.183 143.836 117.42 143.742C117.66 143.646 117.847 143.513 117.983 143.344C118.118 143.172 118.187 142.971 118.19 142.742C118.187 142.534 118.126 142.362 118.006 142.227C117.887 142.089 117.719 141.974 117.502 141.883C117.289 141.789 117.039 141.706 116.752 141.633L115.842 141.398C115.183 141.229 114.663 140.973 114.28 140.629C113.9 140.283 113.709 139.823 113.709 139.25C113.709 138.779 113.837 138.366 114.092 138.012C114.35 137.658 114.7 137.383 115.143 137.187C115.586 136.99 116.087 136.891 116.647 136.891C117.215 136.891 117.712 136.99 118.139 137.187C118.569 137.383 118.906 137.655 119.151 138.004C119.396 138.35 119.522 138.749 119.53 139.199H118.135ZM124.693 142.477V139H126.107V145H124.736V143.934H124.673C124.538 144.27 124.315 144.544 124.005 144.758C123.698 144.971 123.319 145.078 122.869 145.078C122.475 145.078 122.128 144.991 121.826 144.816C121.526 144.639 121.292 144.383 121.123 144.047C120.953 143.708 120.869 143.299 120.869 142.82V139H122.283V142.602C122.283 142.982 122.387 143.284 122.595 143.508C122.804 143.732 123.077 143.844 123.416 143.844C123.624 143.844 123.826 143.793 124.021 143.691C124.216 143.59 124.376 143.439 124.501 143.238C124.629 143.035 124.693 142.781 124.693 142.477ZM127.624 145V137H129.038V139.992H129.096C129.169 139.846 129.272 139.691 129.405 139.527C129.538 139.361 129.717 139.219 129.944 139.102C130.17 138.982 130.459 138.922 130.811 138.922C131.275 138.922 131.693 139.04 132.065 139.277C132.44 139.512 132.737 139.859 132.956 140.32C133.177 140.779 133.288 141.341 133.288 142.008C133.288 142.667 133.18 143.227 132.963 143.687C132.747 144.148 132.453 144.5 132.081 144.742C131.708 144.984 131.286 145.105 130.815 145.105C130.471 145.105 130.186 145.048 129.959 144.934C129.733 144.819 129.551 144.681 129.413 144.52C129.277 144.355 129.172 144.201 129.096 144.055H129.014V145H127.624ZM129.01 142C129.01 142.388 129.065 142.728 129.174 143.02C129.286 143.311 129.446 143.539 129.655 143.703C129.866 143.865 130.121 143.945 130.42 143.945C130.733 143.945 130.995 143.862 131.206 143.695C131.417 143.526 131.575 143.296 131.682 143.004C131.792 142.71 131.846 142.375 131.846 142C131.846 141.628 131.793 141.297 131.686 141.008C131.579 140.719 131.42 140.492 131.209 140.328C130.999 140.164 130.736 140.082 130.42 140.082C130.118 140.082 129.862 140.161 129.651 140.32C129.44 140.479 129.28 140.702 129.17 140.988C129.064 141.275 129.01 141.612 129.01 142ZM134.49 145V139H135.841V140.02H135.912C136.037 139.676 136.244 139.408 136.533 139.215C136.822 139.02 137.167 138.922 137.568 138.922C137.974 138.922 138.317 139.021 138.595 139.219C138.876 139.414 139.074 139.681 139.189 140.02H139.251C139.384 139.686 139.608 139.421 139.923 139.223C140.241 139.022 140.617 138.922 141.052 138.922C141.604 138.922 142.055 139.096 142.404 139.445C142.753 139.794 142.927 140.303 142.927 140.973V145H141.509V141.191C141.509 140.819 141.41 140.547 141.212 140.375C141.014 140.201 140.772 140.113 140.486 140.113C140.145 140.113 139.878 140.22 139.685 140.434C139.495 140.645 139.4 140.919 139.4 141.258V145H138.013V141.133C138.013 140.823 137.919 140.576 137.732 140.391C137.547 140.206 137.305 140.113 137.005 140.113C136.802 140.113 136.617 140.165 136.451 140.27C136.284 140.371 136.151 140.516 136.052 140.703C135.953 140.888 135.904 141.104 135.904 141.352V145H134.49ZM144.362 145V139H145.776V145H144.362ZM145.073 138.148C144.849 138.148 144.656 138.074 144.495 137.926C144.333 137.775 144.252 137.594 144.252 137.383C144.252 137.169 144.333 136.988 144.495 136.84C144.656 136.689 144.849 136.613 145.073 136.613C145.299 136.613 145.492 136.689 145.651 136.84C145.812 136.988 145.893 137.169 145.893 137.383C145.893 137.594 145.812 137.775 145.651 137.926C145.492 138.074 145.299 138.148 145.073 138.148ZM150.226 139V140.094H146.777V139H150.226ZM147.628 137.562H149.042V143.195C149.042 143.385 149.071 143.531 149.128 143.633C149.188 143.732 149.266 143.799 149.363 143.836C149.459 143.872 149.566 143.891 149.683 143.891C149.772 143.891 149.852 143.884 149.925 143.871C150.001 143.858 150.058 143.846 150.097 143.836L150.335 144.941C150.26 144.967 150.152 144.996 150.011 145.027C149.873 145.059 149.704 145.077 149.503 145.082C149.149 145.092 148.83 145.039 148.546 144.922C148.263 144.802 148.037 144.617 147.871 144.367C147.707 144.117 147.626 143.805 147.628 143.43V137.562ZM159.559 139.555C159.494 139.344 159.404 139.155 159.29 138.988C159.178 138.819 159.042 138.674 158.883 138.555C158.727 138.435 158.547 138.345 158.344 138.285C158.141 138.223 157.92 138.191 157.68 138.191C157.25 138.191 156.868 138.299 156.532 138.516C156.196 138.732 155.931 139.049 155.739 139.469C155.549 139.885 155.454 140.393 155.454 140.992C155.454 141.596 155.549 142.108 155.739 142.527C155.929 142.947 156.193 143.266 156.532 143.484C156.87 143.701 157.264 143.809 157.711 143.809C158.118 143.809 158.469 143.73 158.766 143.574C159.066 143.418 159.296 143.197 159.458 142.91C159.619 142.621 159.7 142.283 159.7 141.895L160.028 141.945H157.856V140.812H161.102V141.773C161.102 142.458 160.956 143.051 160.665 143.551C160.373 144.051 159.972 144.436 159.461 144.707C158.951 144.975 158.365 145.109 157.704 145.109C156.967 145.109 156.319 144.944 155.762 144.613C155.208 144.28 154.774 143.807 154.461 143.195C154.152 142.581 153.997 141.852 153.997 141.008C153.997 140.362 154.088 139.785 154.27 139.277C154.455 138.77 154.713 138.339 155.043 137.984C155.374 137.628 155.762 137.357 156.208 137.172C156.653 136.984 157.137 136.891 157.661 136.891C158.103 136.891 158.516 136.956 158.899 137.086C159.282 137.214 159.622 137.396 159.918 137.633C160.218 137.87 160.464 138.151 160.657 138.477C160.849 138.802 160.976 139.161 161.036 139.555H159.559ZM166.265 142.477V139H167.679V145H166.308V143.934H166.246C166.11 144.27 165.888 144.544 165.578 144.758C165.27 144.971 164.891 145.078 164.441 145.078C164.048 145.078 163.7 144.991 163.398 144.816C163.098 144.639 162.864 144.383 162.695 144.047C162.526 143.708 162.441 143.299 162.441 142.82V139H163.855V142.602C163.855 142.982 163.959 143.284 164.167 143.508C164.376 143.732 164.649 143.844 164.988 143.844C165.196 143.844 165.398 143.793 165.593 143.691C165.789 143.59 165.949 143.439 166.074 143.238C166.201 143.035 166.265 142.781 166.265 142.477ZM171.79 145.117C171.188 145.117 170.668 144.992 170.231 144.742C169.796 144.49 169.461 144.133 169.227 143.672C168.993 143.208 168.875 142.663 168.875 142.035C168.875 141.418 168.993 140.876 169.227 140.41C169.464 139.941 169.795 139.577 170.219 139.316C170.644 139.053 171.142 138.922 171.715 138.922C172.085 138.922 172.434 138.982 172.762 139.102C173.093 139.219 173.385 139.401 173.637 139.648C173.892 139.896 174.093 140.211 174.239 140.594C174.385 140.974 174.458 141.427 174.458 141.953V142.387H169.54V141.434H173.102C173.099 141.163 173.041 140.922 172.926 140.711C172.812 140.497 172.652 140.329 172.446 140.207C172.243 140.085 172.006 140.023 171.735 140.023C171.446 140.023 171.192 140.094 170.973 140.234C170.754 140.372 170.584 140.555 170.461 140.781C170.342 141.005 170.28 141.251 170.278 141.52V142.352C170.278 142.701 170.342 143 170.469 143.25C170.597 143.497 170.775 143.687 171.004 143.82C171.234 143.951 171.502 144.016 171.809 144.016C172.015 144.016 172.201 143.987 172.368 143.93C172.534 143.87 172.679 143.783 172.801 143.668C172.924 143.553 173.016 143.411 173.079 143.242L174.399 143.391C174.316 143.74 174.157 144.044 173.922 144.305C173.691 144.562 173.394 144.763 173.032 144.906C172.67 145.047 172.256 145.117 171.79 145.117ZM180.396 140.586L179.107 140.727C179.07 140.596 179.007 140.474 178.916 140.359C178.827 140.245 178.707 140.152 178.556 140.082C178.405 140.012 178.22 139.977 178.001 139.977C177.707 139.977 177.46 140.04 177.259 140.168C177.061 140.296 176.964 140.461 176.966 140.664C176.964 140.839 177.028 140.98 177.158 141.09C177.291 141.199 177.509 141.289 177.814 141.359L178.837 141.578C179.405 141.701 179.827 141.895 180.103 142.16C180.382 142.426 180.522 142.773 180.525 143.203C180.522 143.581 180.412 143.914 180.193 144.203C179.977 144.49 179.676 144.714 179.291 144.875C178.905 145.036 178.462 145.117 177.962 145.117C177.228 145.117 176.637 144.964 176.189 144.656C175.741 144.346 175.474 143.915 175.388 143.363L176.767 143.23C176.83 143.501 176.962 143.706 177.166 143.844C177.369 143.982 177.633 144.051 177.958 144.051C178.294 144.051 178.564 143.982 178.767 143.844C178.973 143.706 179.076 143.535 179.076 143.332C179.076 143.16 179.009 143.018 178.876 142.906C178.746 142.794 178.543 142.708 178.267 142.648L177.244 142.434C176.668 142.314 176.242 142.112 175.966 141.828C175.69 141.542 175.554 141.18 175.556 140.742C175.554 140.372 175.654 140.052 175.857 139.781C176.063 139.508 176.348 139.297 176.712 139.148C177.08 138.997 177.503 138.922 177.982 138.922C178.685 138.922 179.238 139.072 179.642 139.371C180.048 139.671 180.3 140.076 180.396 140.586ZM186.433 140.586L185.144 140.727C185.108 140.596 185.044 140.474 184.953 140.359C184.864 140.245 184.744 140.152 184.593 140.082C184.442 140.012 184.257 139.977 184.039 139.977C183.744 139.977 183.497 140.04 183.296 140.168C183.098 140.296 183.001 140.461 183.003 140.664C183.001 140.839 183.065 140.98 183.195 141.09C183.328 141.199 183.546 141.289 183.851 141.359L184.875 141.578C185.442 141.701 185.864 141.895 186.14 142.16C186.419 142.426 186.559 142.773 186.562 143.203C186.559 143.581 186.449 143.914 186.23 144.203C186.014 144.49 185.713 144.714 185.328 144.875C184.942 145.036 184.5 145.117 184 145.117C183.265 145.117 182.674 144.964 182.226 144.656C181.778 144.346 181.511 143.915 181.425 143.363L182.804 143.23C182.867 143.501 183 143.706 183.203 143.844C183.406 143.982 183.67 144.051 183.996 144.051C184.332 144.051 184.601 143.982 184.804 143.844C185.01 143.706 185.113 143.535 185.113 143.332C185.113 143.16 185.046 143.018 184.914 142.906C184.783 142.794 184.58 142.708 184.304 142.648L183.281 142.434C182.705 142.314 182.279 142.112 182.003 141.828C181.727 141.542 181.591 141.18 181.593 140.742C181.591 140.372 181.691 140.052 181.894 139.781C182.1 139.508 182.385 139.297 182.75 139.148C183.117 138.997 183.54 138.922 184.019 138.922C184.722 138.922 185.276 139.072 185.679 139.371C186.085 139.671 186.337 140.076 186.433 140.586Z" fill="white"/>
<path d="M62.1426 60.5273C62.0671 60.2904 61.9655 60.0781 61.8379 59.8906C61.7129 59.7005 61.5632 59.5391 61.3887 59.4063C61.2142 59.2708 61.015 59.168 60.791 59.0977C60.5697 59.0273 60.3262 58.9922 60.0605 58.9922C59.61 58.9922 59.2038 59.1081 58.8418 59.3398C58.4798 59.5716 58.1934 59.9115 57.9824 60.3594C57.7741 60.8047 57.6699 61.3503 57.6699 61.9961C57.6699 62.6445 57.7754 63.1927 57.9863 63.6406C58.1973 64.0885 58.4863 64.4284 58.8535 64.6602C59.2207 64.8919 59.6387 65.0078 60.1074 65.0078C60.5423 65.0078 60.9212 64.9193 61.2441 64.7422C61.5697 64.5651 61.821 64.3151 61.998 63.9922C62.1777 63.6667 62.2676 63.2839 62.2676 62.8438L62.5801 62.9023H60.291V61.9062H63.4355V62.8164C63.4355 63.4883 63.2923 64.0716 63.0059 64.5664C62.722 65.0586 62.3288 65.4388 61.8262 65.707C61.3262 65.9753 60.7533 66.1094 60.1074 66.1094C59.3835 66.1094 58.748 65.9427 58.2012 65.6094C57.6569 65.276 57.2324 64.8034 56.9277 64.1914C56.623 63.5768 56.4707 62.8477 56.4707 62.0039C56.4707 61.3659 56.5592 60.793 56.7363 60.2852C56.9134 59.7773 57.1621 59.3464 57.4824 58.9922C57.8053 58.6354 58.1842 58.3633 58.6191 58.1758C59.0566 57.9857 59.5345 57.8906 60.0527 57.8906C60.485 57.8906 60.8874 57.9544 61.2598 58.082C61.6348 58.2096 61.9681 58.3906 62.2598 58.625C62.554 58.8594 62.7975 59.138 62.9902 59.4609C63.1829 59.7812 63.3132 60.1367 63.3809 60.5273H62.1426ZM68.6748 63.5117V60H69.8467V66H68.6982V64.9609H68.6357C68.4977 65.2813 68.2764 65.5482 67.9717 65.7617C67.6696 65.9727 67.2933 66.0781 66.8428 66.0781C66.4574 66.0781 66.1162 65.9935 65.8193 65.8242C65.5251 65.6523 65.2933 65.3984 65.124 65.0625C64.9574 64.7266 64.874 64.3112 64.874 63.8164V60H66.042V63.6758C66.042 64.0846 66.1553 64.4102 66.3818 64.6523C66.6084 64.8945 66.9027 65.0156 67.2646 65.0156C67.4834 65.0156 67.7008 64.9609 67.917 64.8516C68.1357 64.7422 68.3167 64.5768 68.46 64.3555C68.6058 64.1341 68.6774 63.8529 68.6748 63.5117ZM74.002 66.1211C73.4108 66.1211 72.9017 65.9948 72.4746 65.7422C72.0501 65.487 71.722 65.1289 71.4902 64.668C71.2611 64.2044 71.1465 63.6615 71.1465 63.0391C71.1465 62.4245 71.2611 61.8828 71.4902 61.4141C71.722 60.9453 72.0449 60.5794 72.459 60.3164C72.8757 60.0534 73.3626 59.9219 73.9199 59.9219C74.2585 59.9219 74.5866 59.9779 74.9043 60.0898C75.222 60.2018 75.5072 60.3776 75.7598 60.6172C76.0124 60.8568 76.2116 61.168 76.3574 61.5508C76.5033 61.931 76.5762 62.3932 76.5762 62.9375V63.3516H71.8066V62.4766H75.4316C75.4316 62.1693 75.3691 61.8971 75.2441 61.6602C75.1191 61.4206 74.9434 61.2318 74.7168 61.0937C74.4928 60.9557 74.2298 60.8867 73.9277 60.8867C73.5996 60.8867 73.3132 60.9674 73.0684 61.1289C72.8262 61.2878 72.6387 61.4961 72.5059 61.7539C72.3757 62.0091 72.3105 62.2865 72.3105 62.5859V63.2695C72.3105 63.6706 72.3809 64.0117 72.5215 64.293C72.6647 64.5742 72.8639 64.7891 73.1191 64.9375C73.3743 65.0833 73.6725 65.1562 74.0137 65.1562C74.235 65.1562 74.4368 65.125 74.6191 65.0625C74.8014 64.9974 74.959 64.901 75.0918 64.7734C75.2246 64.6458 75.3262 64.4883 75.3965 64.3008L76.502 64.5C76.4134 64.8255 76.2546 65.1107 76.0254 65.3555C75.7988 65.5977 75.5137 65.7865 75.1699 65.9219C74.8288 66.0547 74.4395 66.1211 74.002 66.1211ZM82.3682 61.4648L81.3096 61.6523C81.2653 61.5169 81.195 61.388 81.0986 61.2656C81.0049 61.1432 80.8773 61.043 80.7158 60.9648C80.5544 60.8867 80.3525 60.8477 80.1104 60.8477C79.7796 60.8477 79.5036 60.9219 79.2822 61.0703C79.0609 61.2161 78.9502 61.4049 78.9502 61.6367C78.9502 61.8372 79.0244 61.9987 79.1729 62.1211C79.3213 62.2435 79.5609 62.3437 79.8916 62.4219L80.8447 62.6406C81.3968 62.7682 81.8083 62.9648 82.0791 63.2305C82.3499 63.4961 82.4854 63.8411 82.4854 64.2656C82.4854 64.625 82.3812 64.9453 82.1729 65.2266C81.9671 65.5052 81.6794 65.724 81.3096 65.8828C80.9424 66.0417 80.5166 66.1211 80.0322 66.1211C79.3604 66.1211 78.8122 65.9779 78.3877 65.6914C77.9632 65.4023 77.7028 64.9922 77.6064 64.4609L78.7354 64.2891C78.8057 64.5833 78.9502 64.806 79.1689 64.957C79.3877 65.1055 79.6729 65.1797 80.0244 65.1797C80.4072 65.1797 80.7132 65.1003 80.9424 64.9414C81.1715 64.7799 81.2861 64.5833 81.2861 64.3516C81.2861 64.1641 81.2158 64.0065 81.0752 63.8789C80.9372 63.7513 80.7249 63.6549 80.4385 63.5898L79.4229 63.3672C78.863 63.2396 78.4489 63.0365 78.1807 62.7578C77.915 62.4792 77.7822 62.1263 77.7822 61.6992C77.7822 61.3451 77.8812 61.0352 78.0791 60.7695C78.277 60.5039 78.5505 60.2969 78.8994 60.1484C79.2484 59.9974 79.6481 59.9219 80.0986 59.9219C80.7471 59.9219 81.2575 60.0625 81.6299 60.3437C82.0023 60.6224 82.2484 60.9961 82.3682 61.4648ZM88.2656 61.4648L87.207 61.6523C87.1628 61.5169 87.0924 61.388 86.9961 61.2656C86.9023 61.1432 86.7747 61.043 86.6133 60.9648C86.4518 60.8867 86.25 60.8477 86.0078 60.8477C85.6771 60.8477 85.401 60.9219 85.1797 61.0703C84.9583 61.2161 84.8477 61.4049 84.8477 61.6367C84.8477 61.8372 84.9219 61.9987 85.0703 62.1211C85.2188 62.2435 85.4583 62.3437 85.7891 62.4219L86.7422 62.6406C87.2943 62.7682 87.7057 62.9648 87.9766 63.2305C88.2474 63.4961 88.3828 63.8411 88.3828 64.2656C88.3828 64.625 88.2786 64.9453 88.0703 65.2266C87.8646 65.5052 87.5768 65.724 87.207 65.8828C86.8398 66.0417 86.4141 66.1211 85.9297 66.1211C85.2578 66.1211 84.7096 65.9779 84.2852 65.6914C83.8607 65.4023 83.6003 64.9922 83.5039 64.4609L84.6328 64.2891C84.7031 64.5833 84.8477 64.806 85.0664 64.957C85.2852 65.1055 85.5703 65.1797 85.9219 65.1797C86.3047 65.1797 86.6107 65.1003 86.8398 64.9414C87.069 64.7799 87.1836 64.5833 87.1836 64.3516C87.1836 64.1641 87.1133 64.0065 86.9727 63.8789C86.8346 63.7513 86.6224 63.6549 86.3359 63.5898L85.3203 63.3672C84.7604 63.2396 84.3464 63.0365 84.0781 62.7578C83.8125 62.4792 83.6797 62.1263 83.6797 61.6992C83.6797 61.3451 83.7786 61.0352 83.9766 60.7695C84.1745 60.5039 84.4479 60.2969 84.7969 60.1484C85.1458 59.9974 85.5456 59.9219 85.9961 59.9219C86.6445 59.9219 87.1549 60.0625 87.5273 60.3437C87.8997 60.6224 88.1458 60.9961 88.2656 61.4648ZM94.3242 66.1328C93.944 66.1328 93.6003 66.0625 93.293 65.9219C92.9857 65.7786 92.7422 65.5716 92.5625 65.3008C92.3854 65.0299 92.2969 64.6979 92.2969 64.3047C92.2969 63.9661 92.362 63.6875 92.4922 63.4687C92.6224 63.25 92.7982 63.0768 93.0195 62.9492C93.2409 62.8216 93.4883 62.7253 93.7617 62.6602C94.0352 62.5951 94.3138 62.5456 94.5977 62.5117C94.957 62.4701 95.2487 62.4362 95.4727 62.4102C95.6966 62.3815 95.8594 62.3359 95.9609 62.2734C96.0625 62.2109 96.1133 62.1094 96.1133 61.9687V61.9414C96.1133 61.6003 96.0169 61.3359 95.8242 61.1484C95.6341 60.9609 95.3503 60.8672 94.9727 60.8672C94.5794 60.8672 94.2695 60.9544 94.043 61.1289C93.819 61.3008 93.6641 61.4922 93.5781 61.7031L92.4805 61.4531C92.6107 61.0885 92.8008 60.7943 93.0508 60.5703C93.3034 60.3437 93.5938 60.1797 93.9219 60.0781C94.25 59.974 94.5951 59.9219 94.957 59.9219C95.1966 59.9219 95.4505 59.9505 95.7188 60.0078C95.9896 60.0625 96.2422 60.1641 96.4766 60.3125C96.7135 60.4609 96.9076 60.6732 97.0586 60.9492C97.2096 61.2227 97.2852 61.5781 97.2852 62.0156V66H96.1445V65.1797H96.0977C96.0221 65.3307 95.9089 65.4792 95.7578 65.625C95.6068 65.7708 95.4128 65.8919 95.1758 65.9883C94.9388 66.0846 94.6549 66.1328 94.3242 66.1328ZM94.5781 65.1953C94.901 65.1953 95.1771 65.1315 95.4063 65.0039C95.638 64.8763 95.8138 64.7096 95.9336 64.5039C96.056 64.2956 96.1172 64.0729 96.1172 63.8359V63.0625C96.0755 63.1042 95.9948 63.1432 95.875 63.1797C95.7578 63.2135 95.6237 63.2435 95.4727 63.2695C95.3216 63.293 95.1745 63.3151 95.0313 63.3359C94.888 63.3542 94.7682 63.3698 94.6719 63.3828C94.4453 63.4115 94.2383 63.4596 94.0508 63.5273C93.8659 63.5951 93.7174 63.6927 93.6055 63.8203C93.4961 63.9453 93.4414 64.112 93.4414 64.3203C93.4414 64.6094 93.5482 64.8281 93.7617 64.9766C93.9753 65.1224 94.2474 65.1953 94.5781 65.1953ZM102.92 62.4375V66H101.752V60H102.873V60.9766H102.947C103.085 60.6589 103.301 60.4036 103.596 60.2109C103.893 60.0182 104.266 59.9219 104.717 59.9219C105.126 59.9219 105.484 60.0078 105.791 60.1797C106.098 60.349 106.337 60.6016 106.506 60.9375C106.675 61.2734 106.76 61.6888 106.76 62.1836V66H105.592V62.3242C105.592 61.8893 105.479 61.5495 105.252 61.3047C105.025 61.0573 104.714 60.9336 104.318 60.9336C104.048 60.9336 103.807 60.9922 103.596 61.1094C103.387 61.2266 103.222 61.3984 103.1 61.625C102.98 61.849 102.92 62.1198 102.92 62.4375ZM112.127 63.5117V60H113.299V66H112.15V64.9609H112.088C111.95 65.2813 111.729 65.5482 111.424 65.7617C111.122 65.9727 110.745 66.0781 110.295 66.0781C109.91 66.0781 109.568 65.9935 109.271 65.8242C108.977 65.6523 108.745 65.3984 108.576 65.0625C108.41 64.7266 108.326 64.3112 108.326 63.8164V60H109.494V63.6758C109.494 64.0846 109.607 64.4102 109.834 64.6523C110.061 64.8945 110.355 65.0156 110.717 65.0156C110.936 65.0156 111.153 64.9609 111.369 64.8516C111.588 64.7422 111.769 64.5768 111.912 64.3555C112.058 64.1341 112.13 63.8529 112.127 63.5117ZM114.868 66V60H115.989V60.9766H116.063C116.188 60.6458 116.393 60.388 116.677 60.2031C116.961 60.0156 117.3 59.9219 117.696 59.9219C118.097 59.9219 118.433 60.0156 118.704 60.2031C118.978 60.3906 119.179 60.6484 119.31 60.9766H119.372C119.515 60.6562 119.743 60.401 120.056 60.2109C120.368 60.0182 120.741 59.9219 121.173 59.9219C121.717 59.9219 122.161 60.0924 122.505 60.4336C122.851 60.7747 123.024 61.2891 123.024 61.9766V66H121.856V62.0859C121.856 61.6797 121.746 61.3854 121.524 61.2031C121.303 61.0208 121.039 60.9297 120.731 60.9297C120.351 60.9297 120.056 61.0469 119.845 61.2812C119.634 61.513 119.528 61.8112 119.528 62.1758V66H118.364V62.0117C118.364 61.6862 118.263 61.4245 118.06 61.2266C117.856 61.0286 117.592 60.9297 117.267 60.9297C117.045 60.9297 116.841 60.9883 116.653 61.1055C116.468 61.2201 116.319 61.3802 116.204 61.5859C116.092 61.7917 116.036 62.0299 116.036 62.3008V66H114.868ZM124.684 66V58H125.852V60.9727H125.922C125.99 60.8477 126.087 60.7031 126.215 60.5391C126.342 60.375 126.52 60.2318 126.746 60.1094C126.973 59.9844 127.272 59.9219 127.645 59.9219C128.129 59.9219 128.561 60.0443 128.941 60.2891C129.322 60.5339 129.62 60.8867 129.836 61.3477C130.055 61.8086 130.164 62.3633 130.164 63.0117C130.164 63.6602 130.056 64.2161 129.84 64.6797C129.624 65.1406 129.327 65.4961 128.949 65.7461C128.572 65.9935 128.141 66.1172 127.656 66.1172C127.292 66.1172 126.993 66.056 126.762 65.9336C126.533 65.8112 126.353 65.668 126.223 65.5039C126.092 65.3398 125.992 65.194 125.922 65.0664H125.824V66H124.684ZM125.828 63C125.828 63.4219 125.889 63.7917 126.012 64.1094C126.134 64.4271 126.311 64.6758 126.543 64.8555C126.775 65.0326 127.059 65.1211 127.395 65.1211C127.743 65.1211 128.035 65.0286 128.27 64.8437C128.504 64.6562 128.681 64.4023 128.801 64.082C128.923 63.7617 128.984 63.401 128.984 63C128.984 62.6042 128.924 62.2487 128.805 61.9336C128.688 61.6185 128.51 61.3698 128.273 61.1875C128.039 61.0052 127.746 60.9141 127.395 60.9141C127.056 60.9141 126.77 61.0013 126.535 61.1758C126.303 61.3503 126.128 61.5937 126.008 61.9062C125.888 62.2187 125.828 62.5833 125.828 63ZM134.062 66.1211C133.47 66.1211 132.961 65.9948 132.534 65.7422C132.11 65.487 131.782 65.1289 131.55 64.668C131.321 64.2044 131.206 63.6615 131.206 63.0391C131.206 62.4245 131.321 61.8828 131.55 61.4141C131.782 60.9453 132.104 60.5794 132.519 60.3164C132.935 60.0534 133.422 59.9219 133.979 59.9219C134.318 59.9219 134.646 59.9779 134.964 60.0898C135.282 60.2018 135.567 60.3776 135.819 60.6172C136.072 60.8568 136.271 61.168 136.417 61.5508C136.563 61.931 136.636 62.3932 136.636 62.9375V63.3516H131.866V62.4766H135.491C135.491 62.1693 135.429 61.8971 135.304 61.6602C135.179 61.4206 135.003 61.2318 134.776 61.0937C134.552 60.9557 134.289 60.8867 133.987 60.8867C133.659 60.8867 133.373 60.9674 133.128 61.1289C132.886 61.2878 132.698 61.4961 132.565 61.7539C132.435 62.0091 132.37 62.2865 132.37 62.5859V63.2695C132.37 63.6706 132.44 64.0117 132.581 64.293C132.724 64.5742 132.924 64.7891 133.179 64.9375C133.434 65.0833 133.732 65.1562 134.073 65.1562C134.295 65.1562 134.496 65.125 134.679 65.0625C134.861 64.9974 135.019 64.901 135.151 64.7734C135.284 64.6458 135.386 64.4883 135.456 64.3008L136.562 64.5C136.473 64.8255 136.314 65.1107 136.085 65.3555C135.858 65.5977 135.573 65.7865 135.229 65.9219C134.888 66.0547 134.499 66.1211 134.062 66.1211ZM137.932 66V60H139.061V60.9531H139.123C139.232 60.6302 139.425 60.3763 139.701 60.1914C139.98 60.0039 140.295 59.9102 140.646 59.9102C140.719 59.9102 140.805 59.9128 140.904 59.918C141.006 59.9232 141.085 59.9297 141.143 59.9375V61.0547C141.096 61.0417 141.012 61.0273 140.893 61.0117C140.773 60.9935 140.653 60.9844 140.533 60.9844C140.257 60.9844 140.011 61.043 139.795 61.1602C139.581 61.2747 139.412 61.4349 139.287 61.6406C139.162 61.8437 139.1 62.0755 139.1 62.3359V66H137.932ZM145.158 66V58H146.326V60.9727H146.396C146.464 60.8477 146.562 60.7031 146.689 60.5391C146.817 60.375 146.994 60.2318 147.221 60.1094C147.447 59.9844 147.747 59.9219 148.119 59.9219C148.604 59.9219 149.036 60.0443 149.416 60.2891C149.796 60.5339 150.094 60.8867 150.311 61.3477C150.529 61.8086 150.639 62.3633 150.639 63.0117C150.639 63.6602 150.531 64.2161 150.314 64.6797C150.098 65.1406 149.801 65.4961 149.424 65.7461C149.046 65.9935 148.615 66.1172 148.131 66.1172C147.766 66.1172 147.468 66.056 147.236 65.9336C147.007 65.8112 146.827 65.668 146.697 65.5039C146.567 65.3398 146.467 65.194 146.396 65.0664H146.299V66H145.158ZM146.303 63C146.303 63.4219 146.364 63.7917 146.486 64.1094C146.609 64.4271 146.786 64.6758 147.018 64.8555C147.249 65.0326 147.533 65.1211 147.869 65.1211C148.218 65.1211 148.51 65.0286 148.744 64.8437C148.979 64.6562 149.156 64.4023 149.275 64.082C149.398 63.7617 149.459 63.401 149.459 63C149.459 62.6042 149.399 62.2487 149.279 61.9336C149.162 61.6185 148.985 61.3698 148.748 61.1875C148.514 61.0052 148.221 60.9141 147.869 60.9141C147.531 60.9141 147.244 61.0013 147.01 61.1758C146.778 61.3503 146.602 61.5937 146.482 61.9062C146.363 62.2187 146.303 62.5833 146.303 63ZM154.536 66.1211C153.945 66.1211 153.436 65.9948 153.009 65.7422C152.584 65.487 152.256 65.1289 152.024 64.668C151.795 64.2044 151.681 63.6615 151.681 63.0391C151.681 62.4245 151.795 61.8828 152.024 61.4141C152.256 60.9453 152.579 60.5794 152.993 60.3164C153.41 60.0534 153.897 59.9219 154.454 59.9219C154.793 59.9219 155.121 59.9779 155.438 60.0898C155.756 60.2018 156.041 60.3776 156.294 60.6172C156.547 60.8568 156.746 61.168 156.892 61.5508C157.037 61.931 157.11 62.3932 157.11 62.9375V63.3516H152.341V62.4766H155.966C155.966 62.1693 155.903 61.8971 155.778 61.6602C155.653 61.4206 155.478 61.2318 155.251 61.0937C155.027 60.9557 154.764 60.8867 154.462 60.8867C154.134 60.8867 153.847 60.9674 153.603 61.1289C153.36 61.2878 153.173 61.4961 153.04 61.7539C152.91 62.0091 152.845 62.2865 152.845 62.5859V63.2695C152.845 63.6706 152.915 64.0117 153.056 64.293C153.199 64.5742 153.398 64.7891 153.653 64.9375C153.909 65.0833 154.207 65.1562 154.548 65.1562C154.769 65.1562 154.971 65.125 155.153 65.0625C155.336 64.9974 155.493 64.901 155.626 64.7734C155.759 64.6458 155.86 64.4883 155.931 64.3008L157.036 64.5C156.948 64.8255 156.789 65.1107 156.56 65.3555C156.333 65.5977 156.048 65.7865 155.704 65.9219C155.363 66.0547 154.974 66.1211 154.536 66.1211ZM161.207 60V60.9375H157.93V60H161.207ZM158.809 58.5625H159.977V64.2383C159.977 64.4648 160.01 64.6354 160.078 64.75C160.146 64.862 160.233 64.9388 160.34 64.9805C160.449 65.0195 160.568 65.0391 160.695 65.0391C160.789 65.0391 160.871 65.0326 160.941 65.0195C161.012 65.0065 161.066 64.9961 161.105 64.9883L161.316 65.9531C161.249 65.9792 161.152 66.0052 161.027 66.0313C160.902 66.0599 160.746 66.0755 160.559 66.0781C160.251 66.0833 159.965 66.0286 159.699 65.9141C159.434 65.7995 159.219 65.6224 159.055 65.3828C158.891 65.1432 158.809 64.8424 158.809 64.4805V58.5625ZM163.8 66L162.034 60H163.241L164.417 64.4062H164.476L165.655 60H166.862L168.034 64.3867H168.093L169.261 60H170.468L168.706 66H167.515L166.296 61.668H166.206L164.987 66H163.8ZM173.979 66.1211C173.388 66.1211 172.879 65.9948 172.452 65.7422C172.028 65.487 171.7 65.1289 171.468 64.668C171.239 64.2044 171.124 63.6615 171.124 63.0391C171.124 62.4245 171.239 61.8828 171.468 61.4141C171.7 60.9453 172.022 60.5794 172.437 60.3164C172.853 60.0534 173.34 59.9219 173.897 59.9219C174.236 59.9219 174.564 59.9779 174.882 60.0898C175.2 60.2018 175.485 60.3776 175.737 60.6172C175.99 60.8568 176.189 61.168 176.335 61.5508C176.481 61.931 176.554 62.3932 176.554 62.9375V63.3516H171.784V62.4766H175.409C175.409 62.1693 175.347 61.8971 175.222 61.6602C175.097 61.4206 174.921 61.2318 174.694 61.0937C174.47 60.9557 174.207 60.8867 173.905 60.8867C173.577 60.8867 173.291 60.9674 173.046 61.1289C172.804 61.2878 172.616 61.4961 172.483 61.7539C172.353 62.0091 172.288 62.2865 172.288 62.5859V63.2695C172.288 63.6706 172.358 64.0117 172.499 64.293C172.642 64.5742 172.841 64.7891 173.097 64.9375C173.352 65.0833 173.65 65.1562 173.991 65.1562C174.213 65.1562 174.414 65.125 174.597 65.0625C174.779 64.9974 174.937 64.901 175.069 64.7734C175.202 64.6458 175.304 64.4883 175.374 64.3008L176.479 64.5C176.391 64.8255 176.232 65.1107 176.003 65.3555C175.776 65.5977 175.491 65.7865 175.147 65.9219C174.806 66.0547 174.417 66.1211 173.979 66.1211ZM180.436 66.1211C179.844 66.1211 179.335 65.9948 178.908 65.7422C178.484 65.487 178.156 65.1289 177.924 64.668C177.695 64.2044 177.58 63.6615 177.58 63.0391C177.58 62.4245 177.695 61.8828 177.924 61.4141C178.156 60.9453 178.479 60.5794 178.893 60.3164C179.309 60.0534 179.796 59.9219 180.354 59.9219C180.692 59.9219 181.02 59.9779 181.338 60.0898C181.656 60.2018 181.941 60.3776 182.193 60.6172C182.446 60.8568 182.645 61.168 182.791 61.5508C182.937 61.931 183.01 62.3932 183.01 62.9375V63.3516H178.24V62.4766H181.865C181.865 62.1693 181.803 61.8971 181.678 61.6602C181.553 61.4206 181.377 61.2318 181.15 61.0937C180.926 60.9557 180.663 60.8867 180.361 60.8867C180.033 60.8867 179.747 60.9674 179.502 61.1289C179.26 61.2878 179.072 61.4961 178.939 61.7539C178.809 62.0091 178.744 62.2865 178.744 62.5859V63.2695C178.744 63.6706 178.814 64.0117 178.955 64.293C179.098 64.5742 179.298 64.7891 179.553 64.9375C179.808 65.0833 180.106 65.1562 180.447 65.1562C180.669 65.1562 180.87 65.125 181.053 65.0625C181.235 64.9974 181.393 64.901 181.525 64.7734C181.658 64.6458 181.76 64.4883 181.83 64.3008L182.936 64.5C182.847 64.8255 182.688 65.1107 182.459 65.3555C182.232 65.5977 181.947 65.7865 181.604 65.9219C181.262 66.0547 180.873 66.1211 180.436 66.1211ZM185.474 62.4375V66H184.306V60H185.427V60.9766H185.501C185.639 60.6589 185.855 60.4036 186.149 60.2109C186.446 60.0182 186.82 59.9219 187.271 59.9219C187.679 59.9219 188.037 60.0078 188.345 60.1797C188.652 60.349 188.89 60.6016 189.06 60.9375C189.229 61.2734 189.313 61.6888 189.313 62.1836V66H188.146V62.3242C188.146 61.8893 188.032 61.5495 187.806 61.3047C187.579 61.0573 187.268 60.9336 186.872 60.9336C186.601 60.9336 186.36 60.9922 186.149 61.1094C185.941 61.2266 185.776 61.3984 185.653 61.625C185.534 61.849 185.474 62.1198 185.474 62.4375ZM196.811 58V66H195.6V59.2109H195.553L193.639 60.4609V59.3047L195.635 58H196.811ZM203.647 66.1328C203.267 66.1328 202.924 66.0625 202.616 65.9219C202.309 65.7786 202.065 65.5716 201.886 65.3008C201.709 65.0299 201.62 64.6979 201.62 64.3047C201.62 63.9661 201.685 63.6875 201.815 63.4687C201.946 63.25 202.121 63.0768 202.343 62.9492C202.564 62.8216 202.812 62.7253 203.085 62.6602C203.358 62.5951 203.637 62.5456 203.921 62.5117C204.28 62.4701 204.572 62.4362 204.796 62.4102C205.02 62.3815 205.183 62.3359 205.284 62.2734C205.386 62.2109 205.437 62.1094 205.437 61.9687V61.9414C205.437 61.6003 205.34 61.3359 205.147 61.1484C204.957 60.9609 204.674 60.8672 204.296 60.8672C203.903 60.8672 203.593 60.9544 203.366 61.1289C203.142 61.3008 202.987 61.4922 202.901 61.7031L201.804 61.4531C201.934 61.0885 202.124 60.7943 202.374 60.5703C202.627 60.3437 202.917 60.1797 203.245 60.0781C203.573 59.974 203.918 59.9219 204.28 59.9219C204.52 59.9219 204.774 59.9505 205.042 60.0078C205.313 60.0625 205.565 60.1641 205.8 60.3125C206.037 60.4609 206.231 60.6732 206.382 60.9492C206.533 61.2227 206.608 61.5781 206.608 62.0156V66H205.468V65.1797H205.421C205.345 65.3307 205.232 65.4792 205.081 65.625C204.93 65.7708 204.736 65.8919 204.499 65.9883C204.262 66.0846 203.978 66.1328 203.647 66.1328ZM203.901 65.1953C204.224 65.1953 204.5 65.1315 204.729 65.0039C204.961 64.8763 205.137 64.7096 205.257 64.5039C205.379 64.2956 205.44 64.0729 205.44 63.8359V63.0625C205.399 63.1042 205.318 63.1432 205.198 63.1797C205.081 63.2135 204.947 63.2435 204.796 63.2695C204.645 63.293 204.498 63.3151 204.354 63.3359C204.211 63.3542 204.091 63.3698 203.995 63.3828C203.769 63.4115 203.562 63.4596 203.374 63.5273C203.189 63.5951 203.041 63.6927 202.929 63.8203C202.819 63.9453 202.765 64.112 202.765 64.3203C202.765 64.6094 202.871 64.8281 203.085 64.9766C203.299 65.1224 203.571 65.1953 203.901 65.1953ZM209.332 62.4375V66H208.164V60H209.285V60.9766H209.359C209.497 60.6589 209.714 60.4036 210.008 60.2109C210.305 60.0182 210.678 59.9219 211.129 59.9219C211.538 59.9219 211.896 60.0078 212.203 60.1797C212.51 60.349 212.749 60.6016 212.918 60.9375C213.087 61.2734 213.172 61.6888 213.172 62.1836V66H212.004V62.3242C212.004 61.8893 211.891 61.5495 211.664 61.3047C211.438 61.0573 211.126 60.9336 210.73 60.9336C210.46 60.9336 210.219 60.9922 210.008 61.1094C209.799 61.2266 209.634 61.3984 209.512 61.625C209.392 61.849 209.332 62.1198 209.332 62.4375ZM216.984 66.1172C216.5 66.1172 216.068 65.9935 215.687 65.7461C215.31 65.4961 215.013 65.1406 214.797 64.6797C214.583 64.2161 214.477 63.6602 214.477 63.0117C214.477 62.3633 214.585 61.8086 214.801 61.3477C215.02 60.8867 215.319 60.5339 215.699 60.2891C216.079 60.0443 216.51 59.9219 216.992 59.9219C217.365 59.9219 217.664 59.9844 217.891 60.1094C218.12 60.2318 218.297 60.375 218.422 60.5391C218.549 60.7031 218.648 60.8477 218.719 60.9727H218.789V58H219.957V66H218.816V65.0664H218.719C218.648 65.194 218.547 65.3398 218.414 65.5039C218.284 65.668 218.104 65.8112 217.875 65.9336C217.646 66.056 217.349 66.1172 216.984 66.1172ZM217.242 65.1211C217.578 65.1211 217.862 65.0326 218.094 64.8555C218.328 64.6758 218.505 64.4271 218.625 64.1094C218.747 63.7917 218.809 63.4219 218.809 63C218.809 62.5833 218.749 62.2187 218.629 61.9062C218.509 61.5937 218.333 61.3503 218.102 61.1758C217.87 61.0013 217.583 60.9141 217.242 60.9141C216.891 60.9141 216.598 61.0052 216.363 61.1875C216.129 61.3698 215.952 61.6185 215.832 61.9336C215.715 62.2487 215.656 62.6042 215.656 63C215.656 63.401 215.716 63.7617 215.836 64.082C215.956 64.4023 216.133 64.6562 216.367 64.8437C216.604 65.0286 216.896 65.1211 217.242 65.1211ZM227.555 58V66H226.344V59.2109H226.297L224.383 60.4609V59.3047L226.379 58H227.555ZM232.504 66.1328C231.887 66.1302 231.359 65.9674 230.922 65.6445C230.484 65.3216 230.15 64.8516 229.918 64.2344C229.686 63.6172 229.57 62.8737 229.57 62.0039C229.57 61.1367 229.686 60.3958 229.918 59.7812C230.152 59.1667 230.488 58.6979 230.926 58.375C231.366 58.0521 231.892 57.8906 232.504 57.8906C233.116 57.8906 233.641 58.0534 234.078 58.3789C234.516 58.7018 234.85 59.1706 235.082 59.7852C235.316 60.3971 235.434 61.1367 235.434 62.0039C235.434 62.8763 235.318 63.6211 235.086 64.2383C234.854 64.8529 234.52 65.3229 234.082 65.6484C233.645 65.9714 233.118 66.1328 232.504 66.1328ZM232.504 65.0898C233.046 65.0898 233.469 64.8255 233.773 64.2969C234.081 63.7682 234.234 63.0039 234.234 62.0039C234.234 61.3398 234.164 60.7786 234.023 60.3203C233.885 59.8594 233.686 59.5104 233.426 59.2734C233.168 59.0339 232.861 58.9141 232.504 58.9141C231.965 58.9141 231.542 59.1797 231.234 59.7109C230.927 60.2422 230.772 61.0065 230.77 62.0039C230.77 62.6706 230.839 63.2344 230.977 63.6953C231.117 64.1536 231.316 64.5013 231.574 64.7383C231.832 64.9727 232.142 65.0898 232.504 65.0898ZM239.604 66.1328C238.987 66.1302 238.46 65.9674 238.022 65.6445C237.585 65.3216 237.25 64.8516 237.019 64.2344C236.787 63.6172 236.671 62.8737 236.671 62.0039C236.671 61.1367 236.787 60.3958 237.019 59.7812C237.253 59.1667 237.589 58.6979 238.026 58.375C238.466 58.0521 238.993 57.8906 239.604 57.8906C240.216 57.8906 240.741 58.0534 241.179 58.3789C241.616 58.7018 241.951 59.1706 242.183 59.7852C242.417 60.3971 242.534 61.1367 242.534 62.0039C242.534 62.8763 242.418 63.6211 242.187 64.2383C241.955 64.8529 241.62 65.3229 241.183 65.6484C240.745 65.9714 240.219 66.1328 239.604 66.1328ZM239.604 65.0898C240.146 65.0898 240.569 64.8255 240.874 64.2969C241.181 63.7682 241.335 63.0039 241.335 62.0039C241.335 61.3398 241.265 60.7786 241.124 60.3203C240.986 59.8594 240.787 59.5104 240.526 59.2734C240.269 59.0339 239.961 58.9141 239.604 58.9141C239.065 58.9141 238.642 59.1797 238.335 59.7109C238.028 60.2422 237.873 61.0065 237.87 62.0039C237.87 62.6706 237.939 63.2344 238.077 63.6953C238.218 64.1536 238.417 64.5013 238.675 64.7383C238.933 64.9727 239.243 65.0898 239.604 65.0898Z" fill="black"/>
<path d="M99.8351 36.6172C99.7606 36.358 99.6558 36.1289 99.5209 35.93C99.3859 35.7276 99.2208 35.5572 99.0255 35.4187C98.8337 35.2766 98.6135 35.1683 98.365 35.0938C98.1199 35.0192 97.8483 34.9819 97.55 34.9819C96.9925 34.9819 96.5024 35.1204 96.0798 35.3974C95.6608 35.6744 95.3341 36.0774 95.0997 36.6065C94.8653 37.1321 94.7481 37.7749 94.7481 38.5348C94.7481 39.2947 94.8635 39.9411 95.0944 40.4737C95.3252 41.0064 95.6519 41.413 96.0745 41.6935C96.4971 41.9705 96.996 42.109 97.5713 42.109C98.0933 42.109 98.539 42.0167 98.9083 41.832C99.2812 41.6438 99.5653 41.3793 99.7606 41.0384C99.9594 40.6974 100.059 40.2944 100.059 39.8292L100.528 39.8984H97.7151V38.1619H102.28V39.5362C102.28 40.495 102.078 41.3189 101.673 42.0078C101.268 42.6932 100.71 43.2223 100 43.5952C99.29 43.9645 98.4768 44.1491 97.5606 44.1491C96.5379 44.1491 95.6395 43.9237 94.8653 43.4727C94.0912 43.0181 93.4875 42.3736 93.0542 41.5391C92.6246 40.701 92.4097 39.7067 92.4097 38.5561C92.4097 37.6719 92.5376 36.8835 92.7932 36.1911C93.0525 35.495 93.4147 34.9055 93.8799 34.4226C94.3451 33.9396 94.8866 33.5721 95.5045 33.32C96.1224 33.0678 96.7918 32.9418 97.5127 32.9418C98.1306 32.9418 98.7059 33.0323 99.2385 33.2134C99.7712 33.391 100.244 33.6431 100.655 33.9698C101.071 34.2965 101.41 34.6854 101.673 35.1364C101.936 35.5838 102.104 36.0774 102.179 36.6172H99.8351ZM109.217 40.5163V35.8182H111.486V44H109.307V42.5138H109.222C109.037 42.9933 108.73 43.3786 108.301 43.6697C107.874 43.9609 107.354 44.1065 106.74 44.1065C106.193 44.1065 105.712 43.9822 105.296 43.7337C104.881 43.4851 104.556 43.1317 104.322 42.6737C104.091 42.2156 103.974 41.6669 103.97 41.0277V35.8182H106.239V40.6229C106.243 41.1058 106.372 41.4876 106.628 41.7681C106.884 42.0487 107.226 42.1889 107.656 42.1889C107.93 42.1889 108.185 42.1268 108.423 42.0025C108.661 41.8746 108.853 41.6864 108.998 41.4379C109.148 41.1893 109.22 40.8821 109.217 40.5163ZM117.03 44.1598C116.188 44.1598 115.464 43.9893 114.856 43.6484C114.253 43.304 113.788 42.8175 113.461 42.1889C113.134 41.5568 112.971 40.8093 112.971 39.9464C112.971 39.1048 113.134 38.3661 113.461 37.7305C113.788 37.0948 114.247 36.5994 114.84 36.2443C115.437 35.8892 116.137 35.7116 116.939 35.7116C117.479 35.7116 117.981 35.7987 118.447 35.9727C118.915 36.1431 119.324 36.4006 119.672 36.745C120.023 37.0895 120.297 37.5227 120.492 38.0447C120.687 38.5632 120.785 39.1705 120.785 39.8665V40.4897H113.876V39.0835H118.649C118.649 38.7567 118.578 38.4673 118.436 38.2152C118.294 37.9631 118.097 37.766 117.845 37.6239C117.596 37.4783 117.307 37.4055 116.976 37.4055C116.632 37.4055 116.327 37.4854 116.06 37.6452C115.797 37.8015 115.592 38.0128 115.442 38.2791C115.293 38.5419 115.217 38.8349 115.213 39.158V40.495C115.213 40.8999 115.288 41.2496 115.437 41.5444C115.59 41.8391 115.805 42.0664 116.082 42.2262C116.359 42.386 116.687 42.4659 117.067 42.4659C117.319 42.4659 117.55 42.4304 117.759 42.3594C117.969 42.2884 118.148 42.1818 118.297 42.0398C118.447 41.8977 118.56 41.7237 118.638 41.5178L120.737 41.6562C120.631 42.1605 120.412 42.6009 120.082 42.9773C119.755 43.3501 119.333 43.6413 118.814 43.8509C118.299 44.0568 117.704 44.1598 117.03 44.1598ZM129.073 38.1513L126.996 38.2791C126.96 38.1016 126.884 37.9418 126.767 37.7997C126.65 37.6541 126.495 37.5387 126.304 37.4535C126.115 37.3647 125.89 37.3203 125.627 37.3203C125.275 37.3203 124.979 37.3949 124.737 37.544C124.496 37.6896 124.375 37.8849 124.375 38.13C124.375 38.3253 124.453 38.4904 124.61 38.6254C124.766 38.7603 125.034 38.8686 125.414 38.9503L126.895 39.2486C127.69 39.4119 128.283 39.6747 128.674 40.0369C129.065 40.3991 129.26 40.875 129.26 41.4645C129.26 42.0007 129.102 42.4712 128.786 42.8761C128.473 43.2809 128.044 43.5969 127.497 43.8242C126.953 44.0479 126.327 44.1598 125.616 44.1598C124.533 44.1598 123.67 43.9343 123.028 43.4833C122.388 43.0288 122.014 42.4109 121.904 41.6296L124.136 41.5124C124.203 41.8427 124.366 42.0948 124.626 42.2688C124.885 42.4393 125.217 42.5245 125.622 42.5245C126.019 42.5245 126.339 42.4482 126.581 42.2955C126.826 42.1392 126.95 41.9386 126.953 41.6935C126.95 41.4876 126.863 41.3189 126.692 41.1875C126.522 41.0526 126.259 40.9496 125.904 40.8786L124.487 40.5962C123.688 40.4364 123.093 40.1594 122.703 39.7653C122.316 39.3711 122.122 38.8686 122.122 38.2578C122.122 37.7322 122.264 37.2795 122.548 36.8995C122.836 36.5195 123.239 36.2266 123.757 36.0206C124.279 35.8146 124.89 35.7116 125.59 35.7116C126.623 35.7116 127.436 35.93 128.029 36.3668C128.626 36.8036 128.974 37.3984 129.073 38.1513ZM137.496 38.1513L135.419 38.2791C135.383 38.1016 135.307 37.9418 135.19 37.7997C135.073 37.6541 134.918 37.5387 134.726 37.4535C134.538 37.3647 134.313 37.3203 134.05 37.3203C133.698 37.3203 133.402 37.3949 133.16 37.544C132.919 37.6896 132.798 37.8849 132.798 38.13C132.798 38.3253 132.876 38.4904 133.032 38.6254C133.189 38.7603 133.457 38.8686 133.837 38.9503L135.318 39.2486C136.113 39.4119 136.706 39.6747 137.097 40.0369C137.487 40.3991 137.683 40.875 137.683 41.4645C137.683 42.0007 137.525 42.4712 137.209 42.8761C136.896 43.2809 136.466 43.5969 135.92 43.8242C135.376 44.0479 134.749 44.1598 134.039 44.1598C132.956 44.1598 132.093 43.9343 131.45 43.4833C130.811 43.0288 130.437 42.4109 130.327 41.6296L132.558 41.5124C132.626 41.8427 132.789 42.0948 133.048 42.2688C133.308 42.4393 133.64 42.5245 134.045 42.5245C134.442 42.5245 134.762 42.4482 135.003 42.2955C135.248 42.1392 135.373 41.9386 135.376 41.6935C135.373 41.4876 135.286 41.3189 135.115 41.1875C134.945 41.0526 134.682 40.9496 134.327 40.8786L132.91 40.5962C132.111 40.4364 131.516 40.1594 131.126 39.7653C130.738 39.3711 130.545 38.8686 130.545 38.2578C130.545 37.7322 130.687 37.2795 130.971 36.8995C131.259 36.5195 131.662 36.2266 132.18 36.0206C132.702 35.8146 133.313 35.7116 134.013 35.7116C135.046 35.7116 135.859 35.93 136.452 36.3668C137.049 36.8036 137.397 37.3984 137.496 38.1513ZM139.112 44V35.8182H141.381V44H139.112ZM140.252 34.7635C139.914 34.7635 139.625 34.6516 139.383 34.4279C139.145 34.2006 139.026 33.929 139.026 33.6129C139.026 33.3004 139.145 33.0323 139.383 32.8086C139.625 32.5813 139.914 32.4677 140.252 32.4677C140.589 32.4677 140.877 32.5813 141.114 32.8086C141.356 33.0323 141.477 33.3004 141.477 33.6129C141.477 33.929 141.356 34.2006 141.114 34.4279C140.877 34.6516 140.589 34.7635 140.252 34.7635ZM145.468 39.2699V44H143.199V35.8182H145.361V37.2617H145.457C145.638 36.7859 145.942 36.4094 146.368 36.1325C146.794 35.8519 147.311 35.7116 147.918 35.7116C148.486 35.7116 148.982 35.8359 149.404 36.0845C149.827 36.3331 150.155 36.6882 150.39 37.1499C150.624 37.608 150.741 38.1548 150.741 38.7905V44H148.472V39.1953C148.475 38.6946 148.348 38.304 148.088 38.0234C147.829 37.7393 147.472 37.5973 147.018 37.5973C146.712 37.5973 146.442 37.663 146.208 37.7944C145.977 37.9258 145.796 38.1175 145.665 38.3697C145.537 38.6183 145.471 38.9183 145.468 39.2699ZM156.216 47.2386C155.481 47.2386 154.85 47.1374 154.325 46.935C153.803 46.7362 153.387 46.4645 153.078 46.12C152.769 45.7756 152.569 45.3885 152.476 44.9588L154.575 44.6765C154.639 44.8398 154.74 44.9925 154.879 45.1346C155.017 45.2766 155.2 45.3903 155.427 45.4755C155.658 45.5643 155.939 45.6087 156.269 45.6087C156.763 45.6087 157.169 45.4879 157.489 45.2464C157.812 45.0085 157.973 44.609 157.973 44.0479V42.5511H157.878C157.778 42.7784 157.629 42.9933 157.43 43.1957C157.231 43.3981 156.976 43.5632 156.663 43.6911C156.351 43.8189 155.978 43.8828 155.544 43.8828C154.93 43.8828 154.371 43.7408 153.867 43.4567C153.366 43.169 152.966 42.7305 152.668 42.141C152.373 41.5479 152.226 40.7987 152.226 39.8931C152.226 38.9663 152.377 38.1921 152.679 37.5707C152.981 36.9492 153.382 36.484 153.883 36.1751C154.387 35.8661 154.939 35.7116 155.539 35.7116C155.997 35.7116 156.381 35.7898 156.69 35.946C156.999 36.0987 157.247 36.2905 157.435 36.5213C157.627 36.7486 157.775 36.9723 157.878 37.1925H157.963V35.8182H160.216V44.0799C160.216 44.7759 160.046 45.3583 159.705 45.8271C159.364 46.2958 158.891 46.6474 158.288 46.8817C157.688 47.1197 156.997 47.2386 156.216 47.2386ZM156.264 42.1783C156.629 42.1783 156.938 42.0877 157.19 41.9066C157.446 41.7219 157.641 41.4592 157.776 41.1183C157.915 40.7738 157.984 40.3619 157.984 39.8825C157.984 39.4031 157.917 38.9876 157.782 38.636C157.647 38.2809 157.451 38.0057 157.196 37.8104C156.94 37.6151 156.629 37.5174 156.264 37.5174C155.891 37.5174 155.576 37.6186 155.321 37.821C155.065 38.0199 154.872 38.2969 154.74 38.652C154.609 39.0071 154.543 39.4173 154.543 39.8825C154.543 40.3548 154.609 40.7631 154.74 41.1076C154.875 41.4485 155.069 41.7131 155.321 41.9013C155.576 42.0859 155.891 42.1783 156.264 42.1783ZM172.77 36.6172C172.695 36.358 172.59 36.1289 172.455 35.93C172.32 35.7276 172.155 35.5572 171.96 35.4187C171.768 35.2766 171.548 35.1683 171.3 35.0938C171.055 35.0192 170.783 34.9819 170.485 34.9819C169.927 34.9819 169.437 35.1204 169.014 35.3974C168.595 35.6744 168.269 36.0774 168.034 36.6065C167.8 37.1321 167.683 37.7749 167.683 38.5348C167.683 39.2947 167.798 39.9411 168.029 40.4737C168.26 41.0064 168.586 41.413 169.009 41.6935C169.432 41.9705 169.931 42.109 170.506 42.109C171.028 42.109 171.474 42.0167 171.843 41.832C172.216 41.6438 172.5 41.3793 172.695 41.0384C172.894 40.6974 172.993 40.2944 172.993 39.8292L173.462 39.8984H170.65V38.1619H175.215V39.5362C175.215 40.495 175.012 41.3189 174.607 42.0078C174.203 42.6932 173.645 43.2223 172.935 43.5952C172.225 43.9645 171.411 44.1491 170.495 44.1491C169.472 44.1491 168.574 43.9237 167.8 43.4727C167.026 43.0181 166.422 42.3736 165.989 41.5391C165.559 40.701 165.344 39.7067 165.344 38.5561C165.344 37.6719 165.472 36.8835 165.728 36.1911C165.987 35.495 166.349 34.9055 166.814 34.4226C167.28 33.9396 167.821 33.5721 168.439 33.32C169.057 33.0678 169.726 32.9418 170.447 32.9418C171.065 32.9418 171.64 33.0323 172.173 33.2134C172.706 33.391 173.178 33.6431 173.59 33.9698C174.006 34.2965 174.345 34.6854 174.607 35.1364C174.87 35.5838 175.039 36.0774 175.113 36.6172H172.77ZM179.238 44.1545C178.716 44.1545 178.25 44.0639 177.842 43.8828C177.434 43.6982 177.111 43.4265 176.873 43.0678C176.638 42.7056 176.521 42.2546 176.521 41.7148C176.521 41.2603 176.604 40.8786 176.771 40.5696C176.938 40.2607 177.166 40.0121 177.453 39.8239C177.741 39.6357 178.068 39.4936 178.433 39.3977C178.803 39.3018 179.19 39.2344 179.595 39.1953C180.07 39.1456 180.454 39.0994 180.745 39.0568C181.036 39.0107 181.248 38.9432 181.379 38.8544C181.51 38.7656 181.576 38.6342 181.576 38.4602V38.4283C181.576 38.0909 181.47 37.8299 181.256 37.6452C181.047 37.4606 180.749 37.3683 180.362 37.3683C179.953 37.3683 179.628 37.4588 179.387 37.6399C179.145 37.8175 178.986 38.0412 178.907 38.3111L176.809 38.1406C176.915 37.6435 177.125 37.2138 177.437 36.8516C177.75 36.4858 178.153 36.2053 178.646 36.0099C179.144 35.8111 179.719 35.7116 180.372 35.7116C180.827 35.7116 181.262 35.7649 181.677 35.8714C182.096 35.978 182.467 36.1431 182.791 36.3668C183.117 36.5906 183.375 36.8782 183.563 37.2298C183.751 37.5778 183.845 37.995 183.845 38.4815V44H181.693V42.8654H181.629C181.498 43.1211 181.322 43.3466 181.102 43.5419C180.882 43.7337 180.617 43.8846 180.308 43.9947C179.999 44.1012 179.642 44.1545 179.238 44.1545ZM179.888 42.5884C180.221 42.5884 180.516 42.5227 180.772 42.3913C181.027 42.2564 181.228 42.0753 181.374 41.848C181.519 41.6207 181.592 41.3633 181.592 41.0756V40.2074C181.521 40.2536 181.423 40.2962 181.299 40.3352C181.178 40.3707 181.042 40.4045 180.889 40.4364C180.736 40.4648 180.584 40.4915 180.431 40.5163C180.278 40.5376 180.14 40.5572 180.015 40.5749C179.749 40.614 179.516 40.6761 179.318 40.7614C179.119 40.8466 178.964 40.962 178.854 41.1076C178.744 41.2496 178.689 41.4272 178.689 41.6403C178.689 41.9492 178.801 42.1854 179.025 42.3487C179.252 42.5085 179.54 42.5884 179.888 42.5884ZM185.606 44V35.8182H187.768V37.2617H187.864C188.035 36.7823 188.319 36.4041 188.717 36.1271C189.114 35.8501 189.59 35.7116 190.144 35.7116C190.705 35.7116 191.183 35.8519 191.577 36.1325C191.971 36.4094 192.234 36.7859 192.365 37.2617H192.451C192.617 36.793 192.919 36.4183 193.356 36.1378C193.796 35.8537 194.317 35.7116 194.917 35.7116C195.68 35.7116 196.3 35.9549 196.776 36.4414C197.255 36.9244 197.495 37.6097 197.495 38.4975V44H195.231V38.945C195.231 38.4904 195.11 38.1495 194.869 37.9222C194.627 37.695 194.326 37.5813 193.963 37.5813C193.551 37.5813 193.23 37.7127 192.999 37.9755C192.768 38.2347 192.653 38.5774 192.653 39.0036V44H190.453V38.897C190.453 38.4957 190.338 38.1761 190.107 37.9382C189.88 37.7003 189.579 37.5813 189.207 37.5813C188.954 37.5813 188.727 37.6452 188.525 37.7731C188.326 37.8974 188.168 38.0732 188.051 38.3004C187.934 38.5241 187.875 38.7869 187.875 39.0888V44H185.606ZM203.016 44.1598C202.174 44.1598 201.45 43.9893 200.843 43.6484C200.239 43.304 199.774 42.8175 199.447 42.1889C199.12 41.5568 198.957 40.8093 198.957 39.9464C198.957 39.1048 199.12 38.3661 199.447 37.7305C199.774 37.0948 200.234 36.5994 200.827 36.2443C201.423 35.8892 202.123 35.7116 202.926 35.7116C203.465 35.7116 203.968 35.7987 204.433 35.9727C204.902 36.1431 205.31 36.4006 205.658 36.745C206.01 37.0895 206.283 37.5227 206.478 38.0447C206.674 38.5632 206.771 39.1705 206.771 39.8665V40.4897H199.863V39.0835H204.635C204.635 38.7567 204.564 38.4673 204.422 38.2152C204.28 37.9631 204.083 37.766 203.831 37.6239C203.582 37.4783 203.293 37.4055 202.963 37.4055C202.618 37.4055 202.313 37.4854 202.047 37.6452C201.784 37.8015 201.578 38.0128 201.429 38.2791C201.28 38.5419 201.203 38.8349 201.2 39.158V40.495C201.2 40.8999 201.274 41.2496 201.423 41.5444C201.576 41.8391 201.791 42.0664 202.068 42.2262C202.345 42.386 202.673 42.4659 203.053 42.4659C203.305 42.4659 203.536 42.4304 203.746 42.3594C203.955 42.2884 204.135 42.1818 204.284 42.0398C204.433 41.8977 204.547 41.7237 204.625 41.5178L206.723 41.6562C206.617 42.1605 206.399 42.6009 206.068 42.9773C205.742 43.3501 205.319 43.6413 204.801 43.8509C204.286 44.0568 203.691 44.1598 203.016 44.1598Z" fill="black"/>
<path d="M109.65 104.149C108.983 104.149 108.382 104.021 107.85 103.766C107.321 103.506 106.898 103.151 106.582 102.7C106.266 102.249 106.097 101.734 106.076 101.156H107.674C107.713 101.624 107.921 102.01 108.297 102.311C108.674 102.613 109.125 102.764 109.65 102.764C110.069 102.764 110.44 102.668 110.763 102.477C111.09 102.281 111.346 102.013 111.531 101.672C111.719 101.331 111.813 100.942 111.813 100.506C111.813 100.062 111.717 99.6658 111.525 99.3178C111.333 98.9698 111.069 98.6964 110.732 98.4975C110.398 98.2987 110.014 98.1974 109.581 98.1939C109.251 98.1939 108.919 98.2507 108.585 98.3643C108.251 98.478 107.981 98.6271 107.775 98.8118L106.268 98.5881L106.88 93.0909H112.878V94.5025H108.249L107.903 97.5547H107.967C108.18 97.3487 108.462 97.1765 108.814 97.038C109.169 96.8995 109.549 96.8303 109.954 96.8303C110.618 96.8303 111.209 96.9883 111.728 97.3043C112.25 97.6204 112.66 98.0518 112.958 98.5987C113.26 99.142 113.409 99.767 113.406 100.474C113.409 101.18 113.249 101.811 112.926 102.365C112.607 102.919 112.163 103.355 111.594 103.675C111.03 103.991 110.382 104.149 109.65 104.149ZM119.149 104.181C118.307 104.178 117.588 103.956 116.992 103.515C116.395 103.075 115.939 102.434 115.623 101.592C115.307 100.751 115.149 99.7369 115.149 98.5508C115.149 97.3683 115.307 96.358 115.623 95.5199C115.942 94.6818 116.4 94.0426 116.997 93.6023C117.597 93.1619 118.315 92.9418 119.149 92.9418C119.984 92.9418 120.699 93.1637 121.296 93.6076C121.892 94.0479 122.349 94.6871 122.665 95.5252C122.984 96.3597 123.144 97.3683 123.144 98.5508C123.144 99.7404 122.986 100.756 122.67 101.598C122.354 102.436 121.898 103.077 121.301 103.521C120.704 103.961 119.987 104.181 119.149 104.181ZM119.149 102.759C119.888 102.759 120.465 102.398 120.88 101.678C121.299 100.957 121.509 99.9144 121.509 98.5508C121.509 97.6452 121.413 96.88 121.221 96.255C121.033 95.6264 120.761 95.1506 120.406 94.8274C120.055 94.5007 119.636 94.3374 119.149 94.3374C118.414 94.3374 117.837 94.6996 117.418 95.424C116.999 96.1484 116.788 97.1907 116.784 98.5508C116.784 99.4599 116.878 100.229 117.066 100.857C117.258 101.482 117.53 101.956 117.881 102.279C118.233 102.599 118.655 102.759 119.149 102.759Z" fill="black"/>
<rect x="95.5" y="83.5" width="108" height="30" rx="1.5" stroke="#B0B0B0"/>
<defs>
<filter id="filter0_d_1384_770" x="26" y="4" width="247" height="174" filterUnits="userSpaceOnUse" color-interpolation-filters="sRGB">
<feFlood flood-opacity="0" result="BackgroundImageFix"/>
<feColorMatrix in="SourceAlpha" type="matrix" values="0 0 0 0 0 0 0 0 0 0 0 0 0 0 0 0 0 0 127 0" result="hardAlpha"/>
<feOffset dy="1"/>
<feGaussianBlur stdDeviation="4"/>
<feComposite in2="hardAlpha" operator="out"/>
<feColorMatrix type="matrix" values="0 0 0 0 0 0 0 0 0 0 0 0 0 0 0 0 0 0 0.25 0"/>
<feBlend mode="normal" in2="BackgroundImageFix" result="effect1_dropShadow_1384_770"/>
<feBlend mode="normal" in="SourceGraphic" in2="effect1_dropShadow_1384_770" result="shape"/>
</filter>
</defs>
</svg>
