<svg width="300" height="180" viewBox="0 0 300 180" fill="none" xmlns="http://www.w3.org/2000/svg">
<rect width="300" height="180" fill="#191B33"/>
<g clip-path="url(#clip0_1384_21)">
<rect width="220" height="24" transform="translate(40 20)" fill="#333661"/>
<g opacity="0.4">
<mask id="path-3-outside-1_1384_21" maskUnits="userSpaceOnUse" x="46.2354" y="26.9846" width="11" height="10" fill="black">
<rect fill="white" x="46.2354" y="26.9846" width="11" height="10"/>
<path fill-rule="evenodd" clip-rule="evenodd" d="M47.2354 34.4846L47.7654 35.0146L50.8379 31.9421C51.0804 31.6971 51.0804 31.2996 50.8379 31.0571L47.7654 27.9846L47.2354 28.5146L50.2204 31.4996L47.2354 34.4846ZM51.0004 35.2495H56.5004V35.9995H51.0004V35.2495Z"/>
</mask>
<path fill-rule="evenodd" clip-rule="evenodd" d="M47.2354 34.4846L47.7654 35.0146L50.8379 31.9421C51.0804 31.6971 51.0804 31.2996 50.8379 31.0571L47.7654 27.9846L47.2354 28.5146L50.2204 31.4996L47.2354 34.4846ZM51.0004 35.2495H56.5004V35.9995H51.0004V35.2495Z" fill="white"/>
<path d="M47.7654 35.0146L47.4118 35.3682L47.7654 35.7217L48.1189 35.3682L47.7654 35.0146ZM47.2354 34.4846L46.8818 34.1311L46.5282 34.4846L46.8818 34.8382L47.2354 34.4846ZM50.8379 31.9421L51.1914 32.2957L51.1932 32.2939L50.8379 31.9421ZM50.8379 31.0571L51.1914 30.7036L51.1914 30.7036L50.8379 31.0571ZM47.7654 27.9846L48.1189 27.6311L47.7654 27.2775L47.4118 27.6311L47.7654 27.9846ZM47.2354 28.5146L46.8818 28.1611L46.5282 28.5146L46.8818 28.8682L47.2354 28.5146ZM50.2204 31.4996L50.5739 31.8532L50.9275 31.4996L50.5739 31.1461L50.2204 31.4996ZM56.5004 35.2495H57.0004V34.7495H56.5004V35.2495ZM51.0004 35.2495V34.7495H50.5004V35.2495H51.0004ZM56.5004 35.9995V36.4995H57.0004V35.9995H56.5004ZM51.0004 35.9995H50.5004V36.4995H51.0004V35.9995ZM48.1189 34.6611L47.5889 34.1311L46.8818 34.8382L47.4118 35.3682L48.1189 34.6611ZM50.4843 31.5886L47.4118 34.6611L48.1189 35.3682L51.1914 32.2957L50.4843 31.5886ZM50.4843 31.4107C50.5305 31.4569 50.5331 31.5392 50.4825 31.5904L51.1932 32.2939C51.6276 31.855 51.6302 31.1423 51.1914 30.7036L50.4843 31.4107ZM47.4118 28.3382L50.4843 31.4107L51.1914 30.7036L48.1189 27.6311L47.4118 28.3382ZM47.5889 28.8682L48.1189 28.3382L47.4118 27.6311L46.8818 28.1611L47.5889 28.8682ZM50.5739 31.1461L47.5889 28.1611L46.8818 28.8682L49.8668 31.8532L50.5739 31.1461ZM47.5889 34.8382L50.5739 31.8532L49.8668 31.1461L46.8818 34.1311L47.5889 34.8382ZM56.5004 34.7495H51.0004V35.7495H56.5004V34.7495ZM57.0004 35.9995V35.2495H56.0004V35.9995H57.0004ZM51.0004 36.4995H56.5004V35.4995H51.0004V36.4995ZM50.5004 35.2495V35.9995H51.5004V35.2495H50.5004Z" fill="white" mask="url(#path-3-outside-1_1384_21)"/>
</g>
<rect width="220" height="116" transform="translate(40 44)" fill="#252746"/>
<path d="M231.883 115.333C223.417 115.333 223.95 119.017 223.95 119.017V122.833H232.033V123.983H220.75C220.75 123.983 215.333 123.367 215.333 131.95C215.333 140.533 220.067 140.233 220.067 140.233H222.883V136.25C222.883 136.25 222.733 131.5 227.533 131.5H235.55C235.55 131.5 240.05 131.567 240.05 127.133V119.783C240.05 119.783 240.733 115.333 231.883 115.333V115.333ZM225.983 119.367C225.983 118.55 226.633 117.9 227.433 117.9C228.233 117.9 228.883 118.55 228.883 119.35C228.883 120.167 228.233 120.817 227.433 120.817C226.633 120.817 225.983 120.167 225.983 119.367Z" fill="#4A4D85"/>
<path d="M243.933 123.767H244C244.55 123.767 248.667 124.033 248.667 132.017V132.067C248.667 140.633 243.25 140.017 243.25 140.017H231.967V141.167H240.05V144.983C240.05 144.983 240.583 148.667 232.133 148.667C223.283 148.667 223.967 144.217 223.967 144.217V136.867C223.967 132.417 228.467 132.5 228.467 132.5H236.483C241.283 132.5 241.133 127.75 241.133 127.75V123.767H243.95H243.933ZM235.117 144.633C235.117 145.433 235.767 146.083 236.567 146.083C237.367 146.083 238.017 145.433 238.017 144.617C238.017 143.8 237.367 143.15 236.567 143.15C235.767 143.15 235.117 143.8 235.117 144.617V144.633Z" fill="#4A4D85"/>
<rect x="48" y="52" width="80" height="8" rx="4" fill="#4A4D85"/>
<rect x="38" y="82" width="224" height="1" fill="#333661"/>
<rect x="38" y="43" width="224" height="1" fill="#4A4D85"/>
<rect x="48" y="66" width="160" height="8" rx="4" fill="#4A4D85"/>
<rect x="48" y="91" width="204" height="8" rx="4" fill="#4A4D85"/>
<rect x="48" y="105" width="40" height="8" rx="4" fill="#4A4D85"/>
<rect x="48" y="119" width="80" height="8" rx="4" fill="#4A4D85"/>
</g>
<rect x="39.5" y="19.5" width="221" height="141" rx="4.5" stroke="#4A4D85"/>
<defs>
<clipPath id="clip0_1384_21">
<rect x="40" y="20" width="220" height="140" rx="4" fill="white"/>
</clipPath>
</defs>
</svg>
