<svg width="300" height="180" fill="none" xmlns="http://www.w3.org/2000/svg"><path fill="#fff" d="M0 0h300v180H0z"/><rect x="44" y="25" width="173" height="38" rx="7" fill="#F3F3F3"/><rect x="44" y="100" width="43" height="24" rx="7" fill="#F3F3F3"/><rect x="44" y="130" width="67" height="24" rx="7" fill="#F3F3F3"/><rect x="14" y="39" width="24" height="24" rx="12" fill="#F97567"/><rect x="14" y="100" width="24" height="24" rx="12" fill="#F97567"/><rect x="14" y="130" width="24" height="24" rx="12" fill="#F97567"/><path d="M54.6392 42v-5.8182h.8778v2.5284h2.9006v-2.5284h.8807V42h-.8807v-2.5369H55.517V42h-.8778Zm7.75.0881c-.4299 0-.8002-.0919-1.1108-.2756-.3087-.1856-.5473-.446-.7159-.7813-.1667-.3371-.25-.732-.25-1.1846 0-.447.0833-.8409.25-1.1818.1686-.3409.4034-.607.7045-.7983.3031-.1913.6572-.287 1.0625-.287.2463 0 .4849.0408.716.1222.231.0814.4384.2093.6221.3835.1837.1743.3286.4006.4347.679.106.2765.1591.6127.1591 1.0085v.3012h-3.4688v-.6364h2.6364c0-.2235-.0455-.4214-.1364-.5937-.0909-.1743-.2187-.3116-.3835-.412-.1629-.1004-.3542-.1506-.5739-.1506-.2386 0-.4469.0588-.625.1762a1.1822 1.1822 0 0 0-.4091.4545c-.0947.1856-.142.3873-.142.6051v.4972c0 .2917.0511.5398.1534.7443.1042.2046.2491.3608.4347.4688.1856.106.4024.1591.6505.1591.161 0 .3078-.0228.4404-.0682.1325-.0474.2471-.1174.3437-.2102.0966-.0928.1705-.2074.2216-.3438l.804.1449a1.4555 1.4555 0 0 1-.3466.6221c-.1648.1762-.3722.3135-.6222.412-.2481.0966-.5312.1449-.8494.1449Zm3.6641-5.9063V42h-.8495v-5.8182h.8495Zm1.9922 0V42h-.8495v-5.8182h.8495Zm2.9808 5.9063c-.4091 0-.7661-.0938-1.071-.2813-.305-.1875-.5417-.4498-.7103-.7869-.1685-.3371-.2528-.7311-.2528-1.1818 0-.4527.0843-.8485.2528-1.1875.1686-.339.4053-.6023.7103-.7898.3049-.1875.6619-.2813 1.071-.2813.4091 0 .7661.0938 1.071.2813.3049.1875.5417.4508.7102.7898.1686.339.2529.7348.2529 1.1875 0 .4507-.0843.8447-.2529 1.1818-.1685.3371-.4053.5994-.7102.7869-.3049.1875-.6619.2813-1.071.2813Zm.0028-.7131c.2652 0 .4849-.0701.6591-.2102.1743-.1402.303-.3267.3864-.5597.0852-.2329.1278-.4896.1278-.7699 0-.2784-.0426-.5341-.1278-.767-.0834-.2349-.2121-.4233-.3864-.5654-.1742-.142-.3939-.213-.6591-.213-.267 0-.4886.071-.6648.213-.1742.1421-.3039.3305-.3892.5654-.0833.2329-.125.4886-.125.767 0 .2803.0417.537.125.7699.0853.233.215.4195.3892.5597.1762.1401.3978.2102.6648.2102Zm4.0504-5.1932-.0738 4.1449h-.7869l-.0739-4.1449h.9346Zm-.4659 5.8722c-.1572 0-.2916-.0549-.4034-.1648-.1117-.1117-.1666-.2462-.1647-.4034-.0019-.1553.053-.2879.1647-.3977.1118-.1118.2462-.1676.4034-.1676.1534 0 .286.0558.3978.1676.1117.1098.1685.2424.1704.3977a.5608.5608 0 0 1-.0824.2869.5875.5875 0 0 1-.2045.2046.5368.5368 0 0 1-.2813.0767Zm4.8097-5.8722V42h-.8778v-5.8182h.8778Zm1.9403 0v.5455c0 .161-.0303.3305-.0909.5085a2.1467 2.1467 0 0 1-.25.5085 1.8397 1.8397 0 0 1-.3807.4205l-.4204-.3012a3.2364 3.2364 0 0 0 .2898-.5198c.0833-.1838.125-.3864.125-.608v-.554h.7272ZM82.0554 42v-4.3636h.8153v.7102h.054c.0909-.2405.2396-.428.446-.5625.2065-.1364.4536-.2046.7415-.2046.2917 0 .536.0682.733.2046.1988.1364.3456.3239.4403.5625h.0455c.1041-.233.2699-.4186.4971-.5568.2273-.1402.4981-.2103.8125-.2103.3959 0 .7188.1241.9688.3722.2519.2481.3778.6222.3778 1.1222V42h-.8494v-2.8466c0-.2954-.0805-.5095-.2415-.642-.161-.1326-.3532-.1989-.5767-.1989-.2765 0-.4915.0852-.6449.2557-.1534.1685-.2301.3854-.2301.6506V42h-.8466v-2.9006c0-.2367-.0739-.4271-.2216-.571-.1477-.1439-.3399-.2159-.5767-.2159a.8257.8257 0 0 0-.446.1278c-.1345.0834-.2434.1999-.3267.3495-.0815.1496-.1222.3229-.1222.5199V42h-.8494Zm10.4574.0966c-.2765 0-.5265-.0511-.75-.1534-.2235-.1042-.4006-.2548-.5313-.4517-.1288-.197-.1931-.4385-.1931-.7245 0-.2462.0473-.4488.142-.6079a1.049 1.049 0 0 1 .3835-.3779c.161-.0928.3409-.1628.5398-.2102a5.3743 5.3743 0 0 1 .6079-.1079l.6364-.0739c.1629-.0208.2813-.054.3551-.0994.0739-.0455.1108-.1193.1108-.2216v-.0199c0-.2481-.0701-.4403-.2102-.5767-.1383-.1364-.3447-.2046-.6193-.2046-.286 0-.5114.0635-.6762.1904-.1628.125-.2755.2642-.338.4176l-.7983-.1818c.0947-.2652.2329-.4792.4147-.6421a1.6828 1.6828 0 0 1 .6336-.3579c.2386-.0758.4896-.1137.7528-.1137.1743 0 .3589.0209.554.0625.197.0398.3807.1137.5511.2216.1724.108.3135.2623.4233.4631.1099.1989.1648.4574.1648.7756V42h-.8296v-.5966h-.034c-.055.1099-.1374.2178-.2472.3239-.1099.106-.2509.1941-.4233.2642-.1723.0701-.3788.1051-.6193.1051Zm.1846-.6818c.2349 0 .4356-.0464.6023-.1392.1686-.0928.2964-.214.3835-.3637a.9424.9424 0 0 0 .1336-.4858v-.5625c-.0303.0303-.0891.0587-.1762.0853a2.7309 2.7309 0 0 1-.2926.0653c-.1098.017-.2168.0331-.321.0483a35.6853 35.6853 0 0 0-.2614.0341c-.1647.0208-.3153.0559-.4517.1051-.1344.0492-.2424.1203-.3238.2131-.0796.0909-.1194.2121-.1194.3636 0 .2102.0777.3693.233.4773.1553.106.3532.1591.5937.1591Zm10.1176-3.3409h-.886c-.034-.1894-.098-.3561-.19-.5a1.41 1.41 0 0 0-.341-.3665 1.4713 1.4713 0 0 0-.452-.2273c-.165-.0511-.34-.0767-.526-.0767-.335 0-.635.0843-.9001.2528-.2633.1686-.4716.4158-.625.7415-.1515.3258-.2273.7235-.2273 1.1932 0 .4735.0758.8731.2273 1.1989.1534.3257.3627.5719.6278.7386.2652.1667.5633.25.8953.25.183 0 .358-.0246.522-.0739.167-.0511.318-.1259.452-.2244.135-.0985.248-.2187.341-.3608.095-.1439.16-.3087.196-.4943l.886.0028c-.047.286-.139.5493-.275.7898a2.1903 2.1903 0 0 1-.52.6193c-.21.1724-.451.3059-.722.4006-.271.0947-.566.142-.886.142-.5039 0-.9527-.1193-1.3467-.3579-.3939-.2405-.7045-.5843-.9318-1.0313-.2254-.4469-.338-.9801-.338-1.5994 0-.6212.1136-1.1543.3409-1.5994.2272-.447.5378-.7898.9318-1.0284.3939-.2406.8418-.3608 1.3438-.3608.309 0 .597.0445.864.1335.269.0871.51.2159.724.3864.214.1685.391.375.531.6193.14.2424.235.5199.284.8324Zm2.821 4.0142c-.409 0-.766-.0938-1.071-.2813-.305-.1875-.542-.4498-.711-.7869-.168-.3371-.252-.7311-.252-1.1818 0-.4527.084-.8485.252-1.1875.169-.339.406-.6023.711-.7898.305-.1875.662-.2813 1.071-.2813.409 0 .766.0938 1.071.2813.305.1875.541.4508.71.7898.168.339.253.7348.253 1.1875 0 .4507-.085.8447-.253 1.1818-.169.3371-.405.5994-.71.7869-.305.1875-.662.2813-1.071.2813Zm.002-.7131c.266 0 .485-.0701.66-.2102.174-.1402.303-.3267.386-.5597.085-.2329.128-.4896.128-.7699 0-.2784-.043-.5341-.128-.767-.083-.2349-.212-.4233-.386-.5654-.175-.142-.394-.213-.66-.213-.267 0-.488.071-.664.213-.175.1421-.304.3305-.389.5654-.084.2329-.125.4886-.125.767 0 .2803.041.537.125.7699.085.233.214.4195.389.5597.176.1401.397.2102.664.2102Zm2.98.625v-4.3636h.815v.7102h.054c.091-.2405.24-.428.446-.5625.207-.1364.454-.2046.742-.2046.291 0 .536.0682.733.2046.199.1364.345.3239.44.5625h.045c.105-.233.27-.4186.498-.5568.227-.1402.498-.2103.812-.2103.396 0 .719.1241.969.3722.252.2481.378.6222.378 1.1222V42h-.85v-2.8466c0-.2954-.08-.5095-.241-.642-.161-.1326-.353-.1989-.577-.1989-.276 0-.491.0852-.645.2557-.153.1685-.23.3854-.23.6506V42h-.846v-2.9006c0-.2367-.074-.4271-.222-.571-.148-.1439-.34-.2159-.577-.2159a.8272.8272 0 0 0-.446.1278c-.134.0834-.243.1999-.327.3495-.081.1496-.122.3229-.122.5199V42h-.849Zm8.951.0881c-.43 0-.8-.0919-1.111-.2756-.309-.1856-.547-.446-.716-.7813-.166-.3371-.25-.732-.25-1.1846 0-.447.084-.8409.25-1.1818.169-.3409.404-.607.705-.7983.303-.1913.657-.287 1.062-.287.246 0 .485.0408.716.1222.231.0814.439.2093.622.3835.184.1743.329.4006.435.679.106.2765.159.6127.159 1.0085v.3012h-3.469v-.6364h2.637c0-.2235-.046-.4214-.137-.5937-.091-.1743-.218-.3116-.383-.412-.163-.1004-.354-.1506-.574-.1506-.239 0-.447.0588-.625.1762a1.178 1.178 0 0 0-.409.4545c-.095.1856-.142.3873-.142.6051v.4972c0 .2917.051.5398.153.7443.104.2046.249.3608.435.4688.185.106.402.1591.65.1591.161 0 .308-.0228.441-.0682.132-.0474.247-.1174.344-.2102.096-.0928.17-.2074.221-.3438l.804.1449a1.449 1.449 0 0 1-.347.6221c-.164.1762-.372.3135-.622.412-.248.0966-.531.1449-.849.1449Zm4.448-.0029c-.352 0-.667-.0899-.943-.2699-.275-.1818-.491-.4403-.648-.7755-.155-.3371-.233-.7415-.233-1.2131s.079-.875.236-1.2102c.159-.3353.377-.5919.653-.7699.277-.178.59-.2671.941-.2671.271 0 .488.0455.653.1364.167.089.296.1932.386.3125.093.1193.165.2244.216.3154h.052v-2.162h.849V42h-.83v-.679h-.071c-.051.0928-.125.1989-.221.3182-.095.1193-.226.2235-.392.3125-.167.089-.383.1335-.648.1335Zm.188-.7244c.244 0 .45-.0644.619-.1932.17-.1307.299-.3115.386-.5426.089-.2311.134-.5.134-.8068 0-.303-.044-.5682-.131-.7955-.087-.2272-.215-.4043-.383-.5312-.169-.1269-.377-.1904-.625-.1904-.256 0-.469.0663-.64.1989-.17.1326-.299.3134-.386.5426-.085.2292-.128.4877-.128.7756 0 .2916.044.554.131.7869.087.233.216.4176.386.554.173.1345.385.2017.637.2017Zm3.186.6392v-4.3636h.85V42h-.85Zm.429-5.0369c-.147 0-.274-.0493-.38-.1478-.105-.1003-.157-.2197-.157-.3579 0-.1402.052-.2595.157-.358.106-.1003.233-.1505.38-.1505.148 0 .274.0502.378.1505.106.0985.159.2178.159.358 0 .1382-.053.2576-.159.3579-.104.0985-.23.1478-.378.1478Zm2.833 5.1335c-.276 0-.526-.0511-.75-.1534-.223-.1042-.4-.2548-.531-.4517-.129-.197-.193-.4385-.193-.7245 0-.2462.047-.4488.142-.6079.095-.1591.223-.285.384-.3779.161-.0928.34-.1628.539-.2102a5.396 5.396 0 0 1 .608-.1079l.637-.0739c.163-.0208.281-.054.355-.0994.074-.0455.111-.1193.111-.2216v-.0199c0-.2481-.071-.4403-.211-.5767-.138-.1364-.344-.2046-.619-.2046-.286 0-.511.0635-.676.1904-.163.125-.276.2642-.338.4176l-.799-.1818c.095-.2652.233-.4792.415-.6421.184-.1647.395-.2841.634-.3579.238-.0758.489-.1137.753-.1137.174 0 .359.0209.554.0625.197.0398.38.1137.551.2216.172.108.313.2623.423.4631.11.1989.165.4574.165.7756V42h-.83v-.5966h-.034c-.055.1099-.137.2178-.247.3239-.11.106-.251.1941-.423.2642-.173.0701-.379.1051-.62.1051Zm.185-.6818c.235 0 .436-.0464.602-.1392.169-.0928.297-.214.384-.3637a.9427.9427 0 0 0 .133-.4858v-.5625c-.03.0303-.089.0587-.176.0853a2.7566 2.7566 0 0 1-.292.0653c-.11.017-.217.0331-.321.0483-.105.0133-.192.0246-.262.0341-.165.0208-.315.0559-.451.1051-.135.0492-.243.1203-.324.2131-.08.0909-.12.2121-.12.3636 0 .2102.078.3693.233.4773.156.106.354.1591.594.1591Zm3.95-2.0057V42h-.85v-4.3636h.816v.7102h.054c.1-.2311.257-.4167.471-.5568.216-.1402.488-.2103.815-.2103.298 0 .558.0625.782.1875.223.1232.396.3069.52.5512.123.2443.184.5464.184.9062V42h-.849v-2.6733c0-.3163-.083-.5634-.247-.7415-.165-.1799-.391-.2699-.679-.2699-.197 0-.372.0427-.526.1279-.151.0852-.272.2102-.361.375-.087.1629-.13.3598-.13.5909ZM138.905 42v-5.8182h2.131c.412 0 .754.0682 1.025.2046.271.1344.474.3172.608.5483.135.2291.202.4876.202.7755 0 .2425-.045.447-.134.6137-.089.1647-.208.2973-.358.3977a1.567 1.567 0 0 1-.488.2159v.0568c.193.0095.381.072.565.1875.186.1137.339.2756.46.4858s.182.4659.182.7671c0 .2973-.07.5644-.21.8011-.138.2348-.352.4214-.642.5597-.29.1363-.66.2045-1.111.2045h-2.23Zm.878-.7528h1.267c.42 0 .721-.0815.903-.2444.182-.1628.273-.3664.273-.6108a.9655.9655 0 0 0-.139-.5056c-.093-.1534-.226-.2756-.398-.3665-.171-.0909-.373-.1364-.608-.1364h-1.298v1.8637Zm0-2.5483h1.176c.197 0 .374-.0379.531-.1137.159-.0757.285-.1818.378-.3182.095-.1382.142-.3011.142-.4886 0-.2405-.084-.4422-.253-.6051-.168-.1629-.427-.2443-.775-.2443h-1.199v1.7699Zm6.126 3.3892c-.409 0-.766-.0938-1.071-.2813-.305-.1875-.542-.4498-.71-.7869-.169-.3371-.253-.7311-.253-1.1818 0-.4527.084-.8485.253-1.1875.168-.339.405-.6023.71-.7898.305-.1875.662-.2813 1.071-.2813.409 0 .766.0938 1.071.2813.305.1875.542.4508.71.7898.169.339.253.7348.253 1.1875 0 .4507-.084.8447-.253 1.1818-.168.3371-.405.5994-.71.7869-.305.1875-.662.2813-1.071.2813Zm.003-.7131c.265 0 .485-.0701.659-.2102.174-.1402.303-.3267.386-.5597.086-.2329.128-.4896.128-.7699 0-.2784-.042-.5341-.128-.767-.083-.2349-.212-.4233-.386-.5654-.174-.142-.394-.213-.659-.213-.267 0-.489.071-.665.213-.174.1421-.304.3305-.389.5654-.083.2329-.125.4886-.125.767 0 .2803.042.537.125.7699.085.233.215.4195.389.5597.176.1401.398.2102.665.2102Zm5.016-3.7386v.6818h-2.383v-.6818h2.383Zm-1.744-1.0455h.849v4.1279c0 .1647.025.2888.074.3721.049.0814.113.1373.191.1676a.7574.7574 0 0 0 .258.0426c.068 0 .128-.0047.179-.0142.051-.0094.091-.017.119-.0227l.154.7017c-.049.0189-.12.0379-.21.0568-.091.0209-.205.0322-.341.0341-.224.0038-.432-.036-.625-.1193a1.066 1.066 0 0 1-.469-.3864c-.119-.1742-.179-.393-.179-.6562v-4.304Zm3.789 4.6136-.043.3097c-.028.2273-.076.464-.144.7102-.067.2481-.136.4783-.208.6904-.07.2121-.128.3807-.173.5057h-.602c.024-.1175.058-.2766.102-.4773.043-.1989.086-.4214.128-.6676a8.721 8.721 0 0 0 .093-.7529l.029-.3182h.818Zm4.072-1.7954V42h-.849v-5.8182h.838v2.1648h.054c.102-.2349.259-.4214.469-.5597.21-.1382.485-.2074.824-.2074.299 0 .56.0616.784.1847.225.1231.399.3068.523.5511.124.2425.187.5455.187.9091V42h-.849v-2.6733c0-.3201-.083-.5682-.248-.7443-.164-.178-.394-.2671-.687-.2671-.201 0-.381.0427-.54.1279-.157.0852-.281.2102-.372.375-.089.1629-.134.3598-.134.5909Zm5.844 2.679c-.43 0-.8-.0919-1.111-.2756-.308-.1856-.547-.446-.716-.7813-.166-.3371-.25-.732-.25-1.1846 0-.447.084-.8409.25-1.1818.169-.3409.404-.607.705-.7983.303-.1913.657-.287 1.063-.287.246 0 .484.0408.715.1222.232.0814.439.2093.623.3835.183.1743.328.4006.434.679.106.2765.159.6127.159 1.0085v.3012h-3.468v-.6364h2.636c0-.2235-.045-.4214-.136-.5937-.091-.1743-.219-.3116-.384-.412-.163-.1004-.354-.1506-.574-.1506-.238 0-.447.0588-.625.1762a1.186 1.186 0 0 0-.409.4545c-.095.1856-.142.3873-.142.6051v.4972c0 .2917.051.5398.153.7443.105.2046.25.3608.435.4688.186.106.403.1591.651.1591.161 0 .307-.0228.44-.0682a.9526.9526 0 0 0 .344-.2102c.096-.0928.17-.2074.221-.3438l.804.1449c-.064.2367-.18.4441-.346.6221-.165.1762-.372.3135-.622.412-.248.0966-.532.1449-.85.1449ZM165.704 42v-4.3636h.821v.6931h.045c.08-.2348.22-.4195.421-.5539.202-.1364.432-.2046.687-.2046.053 0 .116.0019.188.0057.074.0038.131.0085.173.0142v.8125c-.034-.0095-.095-.0199-.182-.0312a1.7247 1.7247 0 0 0-.261-.0199c-.201 0-.38.0426-.537.1278a.9514.9514 0 0 0-.369.3494c-.091.1478-.137.3163-.137.5057V42h-.849Zm4.795.0881c-.43 0-.801-.0919-1.111-.2756-.309-.1856-.548-.446-.716-.7813-.167-.3371-.25-.732-.25-1.1846 0-.447.083-.8409.25-1.1818.168-.3409.403-.607.704-.7983.303-.1913.658-.287 1.063-.287.246 0 .485.0408.716.1222.231.0814.438.2093.622.3835.184.1743.329.4006.435.679.106.2765.159.6127.159 1.0085v.3012h-3.469v-.6364h2.636c0-.2235-.045-.4214-.136-.5937-.091-.1743-.219-.3116-.384-.412-.162-.1004-.354-.1506-.573-.1506-.239 0-.447.0588-.625.1762-.177.1155-.313.267-.409.4545-.095.1856-.143.3873-.143.6051v.4972c0 .2917.052.5398.154.7443.104.2046.249.3608.435.4688.185.106.402.1591.65.1591.161 0 .308-.0228.44-.0682.133-.0474.248-.1174.344-.2102.097-.0928.171-.2074.222-.3438l.804.1449c-.065.2367-.18.4441-.347.6221-.165.1762-.372.3135-.622.412-.248.0966-.531.1449-.849.1449Zm6.968-4.4517v.6818h-2.383v-.6818h2.383Zm-1.744-1.0455h.849v4.1279c0 .1647.025.2888.074.3721.05.0814.113.1373.191.1676a.7574.7574 0 0 0 .258.0426c.068 0 .128-.0047.179-.0142.051-.0094.091-.017.119-.0227l.154.7017c-.049.0189-.119.0379-.21.0568-.091.0209-.205.0322-.341.0341-.224.0038-.432-.036-.625-.1193a1.0714 1.0714 0 0 1-.469-.3864c-.119-.1742-.179-.393-.179-.6562v-4.304Zm4.475 5.4972c-.409 0-.766-.0938-1.071-.2813-.305-.1875-.542-.4498-.71-.7869-.169-.3371-.253-.7311-.253-1.1818 0-.4527.084-.8485.253-1.1875.168-.339.405-.6023.71-.7898.305-.1875.662-.2813 1.071-.2813.409 0 .766.0938 1.071.2813.305.1875.542.4508.71.7898.169.339.253.7348.253 1.1875 0 .4507-.084.8447-.253 1.1818-.168.3371-.405.5994-.71.7869-.305.1875-.662.2813-1.071.2813Zm.003-.7131c.265 0 .485-.0701.659-.2102.174-.1402.303-.3267.386-.5597.086-.2329.128-.4896.128-.7699 0-.2784-.042-.5341-.128-.767-.083-.2349-.212-.4233-.386-.5654-.174-.142-.394-.213-.659-.213-.267 0-.489.071-.665.213-.174.1421-.304.3305-.389.5654-.083.2329-.125.4886-.125.767 0 .2803.042.537.125.7699.085.233.215.4195.389.5597.176.1401.398.2102.665.2102Zm5.097.625v-4.3636h.815v.7102h.054c.091-.2405.239-.428.446-.5625.206-.1364.454-.2046.741-.2046.292 0 .536.0682.733.2046.199.1364.346.3239.441.5625h.045c.104-.233.27-.4186.497-.5568.228-.1402.498-.2103.813-.2103.396 0 .719.1241.969.3722.251.2481.377.6222.377 1.1222V42h-.849v-2.8466c0-.2954-.081-.5095-.242-.642-.16-.1326-.353-.1989-.576-.1989-.277 0-.492.0852-.645.2557-.154.1685-.23.3854-.23.6506V42h-.847v-2.9006c0-.2367-.074-.4271-.221-.571-.148-.1439-.34-.2159-.577-.2159-.161 0-.31.0426-.446.1278-.135.0834-.243.1999-.327.3495-.081.1496-.122.3229-.122.5199V42h-.849Zm8.34.0966c-.277 0-.527-.0511-.75-.1534-.224-.1042-.401-.2548-.531-.4517-.129-.197-.194-.4385-.194-.7245 0-.2462.048-.4488.142-.6079.095-.1591.223-.285.384-.3779.161-.0928.341-.1628.54-.2102.199-.0473.401-.0833.608-.1079l.636-.0739c.163-.0208.281-.054.355-.0994.074-.0455.111-.1193.111-.2216v-.0199c0-.2481-.07-.4403-.21-.5767-.139-.1364-.345-.2046-.62-.2046-.286 0-.511.0635-.676.1904-.163.125-.275.2642-.338.4176l-.798-.1818c.095-.2652.233-.4792.415-.6421.183-.1647.395-.2841.633-.3579.239-.0758.49-.1137.753-.1137.174 0 .359.0209.554.0625.197.0398.381.1137.551.2216.172.108.314.2623.423.4631.11.1989.165.4574.165.7756V42h-.829v-.5966h-.034c-.055.1099-.138.2178-.248.3239-.109.106-.251.1941-.423.2642s-.379.1051-.619.1051Zm.184-.6818c.235 0 .436-.0464.603-.1392.168-.0928.296-.214.383-.3637.089-.1515.134-.3134.134-.4858v-.5625c-.031.0303-.089.0587-.176.0853a2.7788 2.7788 0 0 1-.293.0653c-.11.017-.217.0331-.321.0483a35.926 35.926 0 0 0-.261.0341c-.165.0208-.316.0559-.452.1051-.135.0492-.243.1203-.324.2131-.079.0909-.119.2121-.119.3636 0 .2102.077.3693.233.4773.155.106.353.1591.593.1591Zm3.882-.8949-.006-1.0369h.148l1.739-1.8466h1.017l-1.983 2.1022h-.134l-.781.7813ZM196.923 42v-5.8182h.849V42h-.849Zm2.755 0-1.562-2.0739.585-.5937L200.721 42h-1.043Zm3.399.0881c-.43 0-.8-.0919-1.111-.2756-.309-.1856-.547-.446-.716-.7813-.167-.3371-.25-.732-.25-1.1846 0-.447.083-.8409.25-1.1818.169-.3409.403-.607.705-.7983.303-.1913.657-.287 1.062-.287.246 0 .485.0408.716.1222.231.0814.438.2093.622.3835.184.1743.329.4006.435.679.106.2765.159.6127.159 1.0085v.3012h-3.469v-.6364h2.636c0-.2235-.045-.4214-.136-.5937-.091-.1743-.219-.3116-.383-.412-.163-.1004-.355-.1506-.574-.1506-.239 0-.447.0588-.625.1762a1.178 1.178 0 0 0-.409.4545c-.095.1856-.142.3873-.142.6051v.4972c0 .2917.051.5398.153.7443.104.2046.249.3608.435.4688.185.106.402.1591.65.1591.161 0 .308-.0228.441-.0682.132-.0474.247-.1174.343-.2102.097-.0928.171-.2074.222-.3438l.804.1449c-.065.2367-.18.4441-.347.6221-.164.1762-.372.3135-.622.412-.248.0966-.531.1449-.849.1449ZM55.108 53.6364c-.1269 0-.2425-.0105-.3466-.0313-.1042-.0189-.1819-.0398-.233-.0625l.2046-.696c.1553.0417.2935.0597.4147.054.1212-.0057.2282-.0512.3211-.1364.0946-.0852.178-.2244.25-.4176l.1051-.2898-1.5966-4.4204h.9091l1.1051 3.3863h.0454l1.1051-3.3863h.912l-1.7983 4.946c-.0834.2273-.1894.4195-.3182.5767-.1288.1591-.2822.2784-.4602.3579-.1781.0796-.3845.1194-.6193.1194Zm5.6839-1.5483c-.4091 0-.7661-.0938-1.071-.2813-.3049-.1875-.5417-.4498-.7102-.7869-.1686-.3371-.2529-.7311-.2529-1.1818 0-.4527.0843-.8485.2529-1.1875.1685-.339.4053-.6023.7102-.7898.3049-.1875.6619-.2813 1.071-.2813.4091 0 .7661.0938 1.071.2813.305.1875.5417.4508.7103.7898.1685.339.2528.7348.2528 1.1875 0 .4507-.0843.8447-.2528 1.1818-.1686.3371-.4053.5994-.7103.7869-.3049.1875-.6619.2813-1.071.2813Zm.0028-.7131c.2652 0 .4849-.0701.6591-.2102.1743-.1402.3031-.3267.3864-.5597.0852-.2329.1278-.4896.1278-.7699 0-.2784-.0426-.5341-.1278-.767-.0833-.2349-.2121-.4233-.3864-.5654-.1742-.142-.3939-.213-.6591-.213-.267 0-.4886.071-.6647.213-.1743.1421-.304.3305-.3892.5654-.0834.2329-.125.4886-.125.767 0 .2803.0416.537.125.7699.0852.233.2149.4195.3892.5597.1761.1401.3977.2102.6647.2102Zm5.7437-1.1847v-2.5539h.8522V52h-.8352v-.7557h-.0455c-.1003.233-.2613.4271-.4829.5824-.2197.1534-.4934.2301-.821.2301-.2803 0-.5284-.0615-.7444-.1846-.214-.125-.3825-.3097-.5056-.554-.1212-.2443-.1819-.5464-.1819-.9063v-2.7755h.8495v2.6733c0 .2973.0824.534.2471.7102.1648.1761.3788.2642.6421.2642.1591 0 .3172-.0398.4744-.1193.1591-.0796.2907-.1998.3949-.3608.1061-.161.1581-.3656.1563-.6137Zm4.9602-4.0085V52h-.8495v-5.8182h.8495Zm2.4126 5.9148c-.2765 0-.5265-.0511-.75-.1534-.2235-.1042-.4005-.2548-.5312-.4517-.1288-.197-.1932-.4385-.1932-.7245 0-.2462.0473-.4488.142-.6079a1.0492 1.0492 0 0 1 .3836-.3779c.1609-.0928.3409-.1628.5397-.2102a5.3721 5.3721 0 0 1 .608-.1079l.6363-.0739c.1629-.0208.2813-.054.3552-.0994.0738-.0455.1108-.1193.1108-.2216v-.0199c0-.2481-.0701-.4403-.2103-.5767-.1382-.1364-.3447-.2046-.6193-.2046-.286 0-.5114.0635-.6761.1904-.1629.125-.2756.2642-.3381.4176l-.7983-.1818c.0947-.2652.233-.4792.4148-.6421a1.6824 1.6824 0 0 1 .6335-.3579c.2386-.0758.4896-.1137.7528-.1137.1743 0 .359.0209.554.0625.197.0398.3807.1137.5512.2216.1723.108.3134.2623.4233.4631.1098.1989.1647.4574.1647.7756V52h-.8295v-.5966h-.0341c-.0549.1099-.1373.2178-.2472.3239-.1098.106-.2509.1941-.4233.2642-.1723.0701-.3787.1051-.6193.1051Zm.1847-.6818c.2348 0 .4356-.0464.6023-.1392.1685-.0928.2964-.214.3835-.3637a.9432.9432 0 0 0 .1335-.4858v-.5625c-.0303.0303-.089.0587-.1761.0853a2.7386 2.7386 0 0 1-.2927.0653c-.1098.017-.2168.0331-.321.0483a35.565 35.565 0 0 0-.2613.0341c-.1648.0208-.3154.0559-.4517.1051-.1345.0492-.2425.1203-.3239.2131-.0796.0909-.1193.2121-.1193.3636 0 .2102.0776.3693.2329.4773.1553.106.3533.1591.5938.1591Zm5.8643-1.2245v-2.5539h.8523V52h-.8352v-.7557h-.0455c-.1004.233-.2613.4271-.4829.5824-.2197.1534-.4934.2301-.8211.2301-.2803 0-.5284-.0615-.7443-.1846-.214-.125-.3826-.3097-.5057-.554-.1212-.2443-.1818-.5464-.1818-.9063v-2.7755h.8495v2.6733c0 .2973.0823.534.2471.7102.1648.1761.3788.2642.6421.2642.1591 0 .3172-.0398.4744-.1193.1591-.0796.2907-.1998.3949-.3608.106-.161.1581-.3656.1562-.6137Zm3.8232 3.537c-.3466 0-.6449-.0455-.8949-.1364-.2481-.0909-.4508-.2112-.608-.3608s-.2746-.3134-.3522-.4915l.7301-.3011c.0511.0833.1193.1714.2045.2642.0871.0947.2046.1752.3523.2415.1496.0663.3419.0994.5767.0994.322 0 .5881-.0786.7983-.2358.2102-.1553.3153-.4034.3153-.7443v-.858h-.0539c-.0512.0928-.125.1961-.2216.3097-.0947.1136-.2254.2121-.3921.2955-.1666.0833-.3835.125-.6505.125-.3447 0-.6553-.0805-.9319-.2415-.2746-.1629-.4924-.4025-.6534-.7188-.1591-.3182-.2386-.7092-.2386-1.1733 0-.464.0786-.8617.2358-1.1931.1591-.3315.3769-.5853.6534-.7614.2765-.178.59-.2671.9403-.2671.2709 0 .4896.0455.6563.1364.1667.089.2964.1932.3892.3125.0947.1193.1676.2244.2187.3154h.0625v-.7074h.8324v4.4602c0 .375-.0871.6828-.2613.9233-.1743.2405-.4101.4185-.7074.5341-.2955.1155-.6288.1733-1 .1733Zm-.0085-2.4972c.2443 0 .4507-.0568.6193-.1704.1704-.1156.2992-.2803.3863-.4944.0891-.2159.1336-.4744.1336-.7755 0-.2936-.0436-.5521-.1307-.7756-.0871-.2235-.215-.3977-.3835-.5227-.1686-.1269-.3769-.1904-.625-.1904-.2557 0-.4688.0663-.6392.1989-.1705.1307-.2993.3087-.3864.5341-.0852.2254-.1279.4773-.1279.7557 0 .286.0436.5369.1307.7528.0872.2159.2159.3845.3864.5057.1723.1212.3845.1818.6364.1818Zm3.9659-1.821V52h-.8495v-5.8182h.8381v2.1648h.054c.1023-.2349.2585-.4214.4687-.5597.2103-.1382.4849-.2074.8239-.2074.2992 0 .5606.0616.7841.1847.2254.1231.3996.3068.5227.5511.125.2425.1875.5455.1875.9091V52h-.8494v-2.6733c0-.3201-.0824-.5682-.2472-.7443-.1648-.178-.3939-.2671-.6875-.2671-.2007 0-.3807.0427-.5398.1279-.1571.0852-.2812.2102-.3721.375-.089.1629-.1335.3598-.1335.5909Zm4.5227 2.6449c-.1553 0-.2888-.0549-.4006-.1648-.1117-.1117-.1676-.2462-.1676-.4034 0-.1553.0559-.2879.1676-.3977.1118-.1118.2453-.1676.4006-.1676.1553 0 .2888.0558.4006.1676.1117.1098.1676.2424.1676.3977a.5406.5406 0 0 1-.0796.2869.5875.5875 0 0 1-.2045.2046c-.0852.0511-.1799.0767-.2841.0767ZM96.0611 52v-5.8182h.8778v5.0625h2.6364V52h-3.5142Zm6.3279.0881c-.43 0-.8-.0919-1.111-.2756-.308-.1856-.547-.446-.716-.7813-.166-.3371-.25-.732-.25-1.1846 0-.447.084-.8409.25-1.1818.169-.3409.404-.607.705-.7983.303-.1913.657-.287 1.063-.287.246 0 .484.0408.715.1222.232.0814.439.2093.623.3835.183.1743.328.4006.434.679.106.2765.159.6127.159 1.0085v.3012h-3.468v-.6364h2.636c0-.2235-.045-.4214-.136-.5937-.091-.1743-.219-.3116-.384-.412-.163-.1004-.354-.1506-.574-.1506-.238 0-.447.0588-.625.1762a1.186 1.186 0 0 0-.409.4545c-.095.1856-.142.3873-.142.6051v.4972c0 .2917.051.5398.153.7443.105.2046.25.3608.435.4688.186.106.403.1591.651.1591.161 0 .307-.0228.44-.0682a.9526.9526 0 0 0 .344-.2102c.096-.0928.17-.2074.221-.3438l.804.1449c-.064.2367-.18.4441-.346.6221-.165.1762-.372.3135-.622.412-.248.0966-.532.1449-.85.1449Zm4.852-4.4517v.6818h-2.384v-.6818h2.384Zm-1.745-1.0455h.85v4.1279c0 .1647.025.2888.074.3721.049.0814.112.1373.19.1676.08.0284.166.0426.259.0426.068 0 .127-.0047.179-.0142.051-.0094.09-.017.119-.0227l.153.7017c-.049.0189-.119.0379-.21.0568-.091.0209-.204.0322-.341.0341-.223.0038-.432-.036-.625-.1193-.193-.0833-.349-.2121-.469-.3864-.119-.1742-.179-.393-.179-.6562v-4.304ZM110.298 52v-4.3636h.815v.7102h.054c.091-.2405.239-.428.446-.5625.206-.1364.454-.2046.741-.2046.292 0 .536.0682.733.2046.199.1364.346.3239.441.5625h.045c.104-.233.27-.4186.497-.5568.228-.1402.498-.2103.813-.2103.396 0 .719.1241.969.3722.251.2481.377.6222.377 1.1222V52h-.849v-2.8466c0-.2954-.081-.5095-.242-.642-.16-.1326-.353-.1989-.576-.1989-.277 0-.492.0852-.645.2557-.154.1685-.23.3854-.23.6506V52h-.847v-2.9006c0-.2367-.074-.4271-.221-.571-.148-.1439-.34-.2159-.577-.2159-.161 0-.31.0426-.446.1278-.135.0834-.243.1999-.327.3495-.081.1496-.122.3229-.122.5199V52h-.849Zm8.951.0881c-.43 0-.801-.0919-1.111-.2756-.309-.1856-.548-.446-.716-.7813-.167-.3371-.25-.732-.25-1.1846 0-.447.083-.8409.25-1.1818.168-.3409.403-.607.704-.7983.303-.1913.658-.287 1.063-.287.246 0 .485.0408.716.1222.231.0814.438.2093.622.3835.184.1743.329.4006.435.679.106.2765.159.6127.159 1.0085v.3012h-3.469v-.6364h2.636c0-.2235-.045-.4214-.136-.5937-.091-.1743-.219-.3116-.384-.412-.162-.1004-.354-.1506-.573-.1506-.239 0-.447.0588-.625.1762-.177.1155-.313.267-.409.4545-.095.1856-.143.3873-.143.6051v.4972c0 .2917.052.5398.154.7443.104.2046.249.3608.435.4688.185.106.402.1591.65.1591.161 0 .308-.0228.44-.0682.133-.0474.248-.1174.344-.2102.097-.0928.171-.2074.222-.3438l.804.1449c-.065.2367-.18.4441-.347.6221-.165.1762-.372.3135-.622.412-.248.0966-.531.1449-.849.1449Zm6.968-4.4517v.6818h-2.383v-.6818h2.383Zm-1.744-1.0455h.849v4.1279c0 .1647.025.2888.074.3721.05.0814.113.1373.191.1676a.7574.7574 0 0 0 .258.0426c.068 0 .128-.0047.179-.0142.051-.0094.091-.017.119-.0227l.154.7017c-.049.0189-.119.0379-.21.0568-.091.0209-.205.0322-.341.0341-.224.0038-.432-.036-.625-.1193a1.0714 1.0714 0 0 1-.469-.3864c-.119-.1742-.179-.393-.179-.6562v-4.304Zm3.627 2.8182V52h-.849v-5.8182h.838v2.1648h.054c.102-.2349.258-.4214.469-.5597.21-.1382.484-.2074.823-.2074.3 0 .561.0616.784.1847.226.1231.4.3068.523.5511.125.2425.188.5455.188.9091V52h-.85v-2.6733c0-.3201-.082-.5682-.247-.7443-.165-.178-.394-.2671-.687-.2671-.201 0-.381.0427-.54.1279-.157.0852-.281.2102-.372.375-.089.1629-.134.3598-.134.5909ZM132.063 52v-4.3636h.85V52h-.85Zm.429-5.0369c-.148 0-.274-.0493-.38-.1478-.105-.1003-.157-.2197-.157-.3579 0-.1402.052-.2595.157-.358.106-.1003.232-.1505.38-.1505s.274.0502.378.1505c.106.0985.159.2178.159.358 0 .1382-.053.2576-.159.3579-.104.0985-.23.1478-.378.1478Zm2.413 2.446V52h-.85v-4.3636h.816v.7102h.054c.1-.2311.257-.4167.471-.5568.216-.1402.488-.2103.816-.2103.297 0 .557.0625.781.1875.223.1232.397.3069.52.5512.123.2443.184.5464.184.9062V52h-.849v-2.6733c0-.3163-.082-.5634-.247-.7415-.165-.1799-.391-.2699-.679-.2699-.197 0-.372.0427-.526.1279-.151.0852-.271.2102-.36.375-.088.1629-.131.3598-.131.5909Zm4.713 1.1108-.006-1.0369h.148l1.739-1.8466h1.017l-1.983 2.1022h-.134l-.781.7813ZM138.837 52v-5.8182h.849V52h-.849Zm2.755 0-1.562-2.0739.585-.5937L142.635 52h-1.043Zm5.653.0881c-.409 0-.766-.0938-1.071-.2813-.305-.1875-.542-.4498-.71-.7869-.169-.3371-.253-.7311-.253-1.1818 0-.4527.084-.8485.253-1.1875.168-.339.405-.6023.71-.7898.305-.1875.662-.2813 1.071-.2813.409 0 .766.0938 1.071.2813.305.1875.542.4508.71.7898.169.339.253.7348.253 1.1875 0 .4507-.084.8447-.253 1.1818-.168.3371-.405.5994-.71.7869-.305.1875-.662.2813-1.071.2813Zm.003-.7131c.265 0 .485-.0701.659-.2102.174-.1402.303-.3267.386-.5597.086-.2329.128-.4896.128-.7699 0-.2784-.042-.5341-.128-.767-.083-.2349-.212-.4233-.386-.5654-.174-.142-.394-.213-.659-.213-.267 0-.489.071-.665.213-.174.1421-.304.3305-.389.5654-.083.2329-.125.4886-.125.767 0 .2803.042.537.125.7699.085.233.215.4195.389.5597.176.1401.398.2102.665.2102Zm5.056-3.7386v.6818h-2.466v-.6818h2.466ZM150.514 52v-4.8693c0-.2727.06-.4991.179-.679.12-.1818.278-.3172.475-.4062.197-.091.411-.1364.642-.1364.17 0 .316.0142.437.0426.121.0265.211.0511.27.0739l-.199.6875a4.2085 4.2085 0 0 0-.153-.0398c-.063-.0171-.138-.0256-.227-.0256-.207 0-.355.0512-.444.1534-.087.1023-.13.25-.13.4432V52h-.85Zm6.053.0966c-.276 0-.526-.0511-.75-.1534-.223-.1042-.4-.2548-.531-.4517-.129-.197-.193-.4385-.193-.7245 0-.2462.047-.4488.142-.6079.095-.1591.223-.285.384-.3779.161-.0928.341-.1628.539-.2102a5.396 5.396 0 0 1 .608-.1079l.637-.0739c.163-.0208.281-.054.355-.0994.074-.0455.111-.1193.111-.2216v-.0199c0-.2481-.07-.4403-.211-.5767-.138-.1364-.344-.2046-.619-.2046-.286 0-.511.0635-.676.1904-.163.125-.276.2642-.338.4176l-.798-.1818c.094-.2652.233-.4792.414-.6421.184-.1647.395-.2841.634-.3579.238-.0758.489-.1137.753-.1137.174 0 .359.0209.554.0625.197.0398.38.1137.551.2216.172.108.313.2623.423.4631.11.1989.165.4574.165.7756V52h-.83v-.5966h-.034c-.055.1099-.137.2178-.247.3239-.11.106-.251.1941-.423.2642-.173.0701-.379.1051-.62.1051Zm.185-.6818c.235 0 .436-.0464.602-.1392.169-.0928.297-.214.384-.3637a.9427.9427 0 0 0 .133-.4858v-.5625c-.03.0303-.089.0587-.176.0853a2.7014 2.7014 0 0 1-.292.0653c-.11.017-.217.0331-.321.0483-.104.0133-.192.0246-.262.0341-.164.0208-.315.0559-.451.1051-.135.0492-.243.1203-.324.2131-.08.0909-.12.2121-.12.3636 0 .2102.078.3693.233.4773.156.106.354.1591.594.1591Zm5.217-3.7784h.85v4.6477c0 .2917-.053.5379-.159.7386-.104.2008-.26.3532-.466.4574-.205.1042-.457.1563-.759.1563h-.085c-.028 0-.058-.001-.088-.0029v-.7301h.136c.201 0 .346-.054.435-.1619.091-.1061.136-.2604.136-.4631v-4.642Zm.421-.6733c-.148 0-.275-.0493-.381-.1478-.104-.1003-.156-.2197-.156-.3579 0-.1402.052-.2595.156-.358.106-.1003.233-.1505.381-.1505s.274.0502.378.1505c.106.0985.159.2178.159.358 0 .1382-.053.2576-.159.3579-.104.0985-.23.1478-.378.1478Zm3.41 5.125c-.409 0-.766-.0938-1.071-.2813-.305-.1875-.542-.4498-.711-.7869-.168-.3371-.252-.7311-.252-1.1818 0-.4527.084-.8485.252-1.1875.169-.339.406-.6023.711-.7898.305-.1875.662-.2813 1.071-.2813.409 0 .766.0938 1.071.2813.305.1875.541.4508.71.7898.169.339.253.7348.253 1.1875 0 .4507-.084.8447-.253 1.1818-.169.3371-.405.5994-.71.7869-.305.1875-.662.2813-1.071.2813Zm.003-.7131c.265 0 .484-.0701.659-.2102.174-.1402.303-.3267.386-.5597.085-.2329.128-.4896.128-.7699 0-.2784-.043-.5341-.128-.767-.083-.2349-.212-.4233-.386-.5654-.175-.142-.394-.213-.659-.213-.267 0-.489.071-.665.213-.174.1421-.304.3305-.389.5654-.084.2329-.125.4886-.125.767 0 .2803.041.537.125.7699.085.233.215.4195.389.5597.176.1401.398.2102.665.2102Zm3.76-.8551-.005-1.0369h.147l1.739-1.8466h1.017l-1.983 2.1022h-.134l-.781.7813ZM168.782 52v-5.8182h.849V52h-.849Zm2.756 0-1.563-2.0739.585-.5937L172.58 52h-1.042Zm3.398.0881c-.43 0-.8-.0919-1.111-.2756-.308-.1856-.547-.446-.716-.7813-.166-.3371-.25-.732-.25-1.1846 0-.447.084-.8409.25-1.1818.169-.3409.404-.607.705-.7983.303-.1913.657-.287 1.062-.287.247 0 .485.0408.716.1222.231.0814.439.2093.622.3835.184.1743.329.4006.435.679.106.2765.159.6127.159 1.0085v.3012h-3.469v-.6364h2.637c0-.2235-.046-.4214-.137-.5937a1.022 1.022 0 0 0-.383-.412c-.163-.1004-.354-.1506-.574-.1506-.239 0-.447.0588-.625.1762a1.186 1.186 0 0 0-.409.4545c-.095.1856-.142.3873-.142.6051v.4972c0 .2917.051.5398.153.7443.105.2046.249.3608.435.4688.186.106.402.1591.651.1591.161 0 .307-.0228.44-.0682a.9526.9526 0 0 0 .344-.2102c.096-.0928.17-.2074.221-.3438l.804.1449c-.064.2367-.18.4441-.346.6221-.165.1762-.372.3135-.622.412-.249.0966-.532.1449-.85.1449Zm3.374-.0341c-.155 0-.288-.0549-.4-.1648-.112-.1117-.168-.2462-.168-.4034 0-.1553.056-.2879.168-.3977.112-.1118.245-.1676.4-.1676.156 0 .289.0558.401.1676.112.1098.168.2424.168.3977a.5418.5418 0 0 1-.08.2869.5814.5814 0 0 1-.205.2046c-.085.0511-.179.0767-.284.0767ZM54.6392 115v-5.818h.8778v2.528h2.9006v-2.528h.8807V115h-.8807v-2.537H55.517V115h-.8778Zm5.8693 0v-4.364h.8154v.711h.0539c.091-.241.2396-.428.4461-.563.2064-.136.4536-.204.7414-.204.2917 0 .536.068.733.204.1989.136.3456.324.4403.563h.0455c.1042-.233.2699-.419.4971-.557.2273-.14.4982-.21.8126-.21.3958 0 .7187.124.9687.372.2519.248.3778.622.3778 1.122V115h-.8494v-2.847c0-.295-.0805-.509-.2415-.642-.161-.132-.3532-.199-.5767-.199-.2765 0-.4915.086-.6449.256-.1534.169-.2301.386-.2301.651V115h-.8466v-2.901c0-.236-.0738-.427-.2216-.571-.1477-.144-.3399-.216-.5767-.216a.8279.8279 0 0 0-.446.128c-.1345.084-.2434.2-.3267.35-.0814.149-.1221.323-.1221.52V115h-.8495Zm7.0703 0v-4.364h.8154v.711h.054c.0909-.241.2395-.428.446-.563.2064-.136.4536-.204.7415-.204.2916 0 .5359.068.7329.204.1989.136.3457.324.4403.563h.0455c.1042-.233.2699-.419.4972-.557.2272-.14.4981-.21.8125-.21.3958 0 .7187.124.9687.372.2519.248.3779.622.3779 1.122V115h-.8495v-2.847c0-.295-.0805-.509-.2415-.642-.1609-.132-.3532-.199-.5767-.199-.2765 0-.4914.086-.6448.256-.1535.169-.2302.386-.2302.651V115h-.8466v-2.901c0-.236-.0738-.427-.2215-.571-.1478-.144-.34-.216-.5767-.216a.828.828 0 0 0-.4461.128c-.1344.084-.2433.2-.3267.35-.0814.149-.1221.323-.1221.52V115h-.8495Zm7.63.054c-.1553 0-.2888-.055-.4006-.165-.1117-.112-.1676-.246-.1676-.403 0-.156.0559-.288.1676-.398.1118-.112.2453-.168.4006-.168.1553 0 .2888.056.4006.168.1117.11.1676.242.1676.398 0 .104-.0265.2-.0796.287a.5866.5866 0 0 1-.2045.204.543.543 0 0 1-.2841.077Zm2.2656 0c-.1553 0-.2888-.055-.4005-.165-.1118-.112-.1677-.246-.1677-.403 0-.156.0559-.288.1677-.398.1117-.112.2452-.168.4005-.168.1553 0 .2889.056.4006.168.1117.11.1676.242.1676.398 0 .104-.0265.2-.0795.287a.5869.5869 0 0 1-.2046.204.543.543 0 0 1-.2841.077ZM59.6932 142.091c0 .621-.1137 1.155-.3409 1.602-.2273.445-.5389.788-.9347 1.029-.3939.238-.8418.358-1.3437.358-.5038 0-.9536-.12-1.3495-.358-.3939-.241-.7045-.585-.9318-1.032-.2273-.447-.3409-.98-.3409-1.599 0-.621.1136-1.154.3409-1.6.2273-.446.5379-.789.9318-1.028.3959-.24.8457-.361 1.3495-.361.5019 0 .9498.121 1.3437.361.3958.239.7074.582.9347 1.028.2272.446.3409.979.3409 1.6Zm-.8693 0c0-.474-.0767-.872-.2301-1.196-.1516-.326-.3599-.572-.625-.739-.2633-.168-.5616-.253-.8949-.253-.3353 0-.6345.085-.8978.253-.2632.167-.4716.413-.625.739-.1515.324-.2272.722-.2272 1.196 0 .473.0757.873.2272 1.199.1534.324.3618.57.625.738.2633.167.5625.25.8978.25.3333 0 .6316-.083.8949-.25.2651-.168.4734-.414.625-.738.1534-.326.2301-.726.2301-1.199Zm2.6768 1.429-.0057-1.037h.1478l1.7386-1.847h1.017l-1.9829 2.103h-.1335l-.7813.781Zm-.7812 1.48v-5.818h.8494V145h-.8494Zm2.7556 0-1.5625-2.074.5853-.594L64.5178 145h-1.0427Zm2.8026-.795-.0426.309c-.0284.227-.0767.464-.1449.71-.0663.249-.1354.479-.2074.691-.0701.212-.1278.38-.1733.505h-.6023c.0247-.117.0588-.276.1023-.477.0436-.199.0862-.421.1279-.667.0416-.247.0729-.498.0937-.753l.0284-.318h.8182Zm5.0526 2.522c-.3466 0-.6449-.045-.8949-.136-.2481-.091-.4508-.211-.608-.361s-.2746-.313-.3523-.491l.7302-.301c.0511.083.1193.171.2045.264.0871.094.2045.175.3523.241.1496.066.3418.1.5767.1.3219 0 .588-.079.7983-.236.2102-.155.3153-.404.3153-.745v-.857h-.054c-.0511.092-.125.196-.2216.309-.0947.114-.2253.212-.392.296-.1667.083-.3835.125-.6506.125-.3447 0-.6553-.081-.9318-.242-.2746-.163-.4924-.402-.6534-.719-.1591-.318-.2386-.709-.2386-1.173 0-.464.0786-.862.2358-1.193.1591-.331.3769-.585.6534-.761.2765-.178.5899-.267.9403-.267.2708 0 .4896.045.6563.136.1666.089.2964.193.3892.312.0947.12.1676.225.2187.316h.0625v-.708h.8324v4.461c0 .375-.0871.682-.2614.923-.1742.24-.41.418-.7073.534-.2955.116-.6288.173-1 .173Zm-.0086-2.497c.2444 0 .4508-.057.6194-.17.1704-.116.2992-.281.3863-.495.089-.216.1335-.474.1335-.775 0-.294-.0435-.552-.1306-.776-.0872-.223-.215-.398-.3836-.523-.1685-.126-.3769-.19-.625-.19-.2556 0-.4687.066-.6392.199-.1704.131-.2992.309-.3863.534-.0853.225-.1279.477-.1279.756 0 .286.0436.537.1307.753.0871.216.2159.384.3864.505.1723.122.3844.182.6363.182Zm4.9546.858c-.4091 0-.7661-.094-1.071-.281-.305-.188-.5417-.45-.7103-.787-.1685-.337-.2528-.731-.2528-1.182 0-.453.0843-.848.2528-1.187.1686-.339.4053-.603.7103-.79.3049-.188.6619-.281 1.071-.281.4091 0 .7661.093 1.071.281.3049.187.5417.451.7102.79.1686.339.2529.734.2529 1.187 0 .451-.0843.845-.2529 1.182-.1685.337-.4053.599-.7102.787-.3049.187-.6619.281-1.071.281Zm.0028-.713c.2652 0 .4849-.07.6591-.21.1743-.14.303-.327.3864-.56.0852-.233.1278-.489.1278-.77 0-.278-.0426-.534-.1278-.767-.0834-.235-.2121-.423-.3864-.565-.1742-.142-.3939-.213-.6591-.213-.267 0-.4886.071-.6648.213-.1742.142-.3039.33-.3892.565-.0833.233-.125.489-.125.767 0 .281.0417.537.125.77.0853.233.215.42.3892.56.1762.14.3978.21.6648.21Zm5.0164-3.739v.682h-2.3836v-.682h2.3836Zm-1.7444-1.045h.8495v4.128c0 .165.0246.289.0738.372.0493.081.1127.137.1904.168a.773.773 0 0 0 .2585.042c.0682 0 .1278-.005.179-.014.0511-.01.0909-.017.1193-.023l.1534.702c-.0492.019-.1193.038-.2102.057-.0909.021-.2046.032-.3409.034-.2235.004-.4319-.036-.625-.119a1.0796 1.0796 0 0 1-.4688-.387c-.1193-.174-.179-.393-.179-.656v-4.304Zm6.6392 5.497c-.409 0-.7661-.094-1.071-.281-.3049-.188-.5416-.45-.7102-.787-.1686-.337-.2529-.731-.2529-1.182 0-.453.0843-.848.2529-1.187.1686-.339.4053-.603.7102-.79.3049-.188.662-.281 1.071-.281.4091 0 .7661.093 1.0711.281.3049.187.5416.451.7102.79.1686.339.2528.734.2528 1.187 0 .451-.0842.845-.2528 1.182-.1686.337-.4053.599-.7102.787-.305.187-.662.281-1.0711.281Zm.0029-.713c.2651 0 .4848-.07.6591-.21.1742-.14.303-.327.3863-.56.0853-.233.1279-.489.1279-.77 0-.278-.0426-.534-.1279-.767-.0833-.235-.2121-.423-.3863-.565-.1743-.142-.394-.213-.6591-.213-.2671 0-.4887.071-.6648.213-.1742.142-.304.33-.3892.565-.0833.233-.125.489-.125.767 0 .281.0417.537.125.77.0852.233.215.42.3892.56.1761.14.3977.21.6648.21Zm3.8288-1.966V145h-.8494v-4.364h.8153v.711h.054c.1004-.231.2576-.417.4716-.557.2159-.14.4877-.21.8153-.21.2974 0 .5578.062.7813.187.2235.123.3968.307.5199.551.1231.244.1846.547.1846.906V145h-.8494v-2.673c0-.317-.0824-.564-.2472-.742-.1647-.18-.3911-.27-.6789-.27-.197 0-.3722.043-.5256.128-.1515.085-.2718.21-.3608.375-.0871.163-.1307.36-.1307.591Zm5.8125 2.679c-.4299 0-.8002-.092-1.1108-.276-.3087-.185-.5473-.446-.7159-.781-.1667-.337-.25-.732-.25-1.184 0-.447.0833-.841.25-1.182.1686-.341.4034-.607.7046-.799.303-.191.6572-.286 1.0625-.286.2462 0 .4848.04.7159.122.231.081.4384.209.6221.383.1837.174.3286.401.4347.679.106.277.1591.613.1591 1.009v.301h-3.4688v-.636h2.6364c0-.224-.0455-.422-.1364-.594-.0909-.174-.2187-.312-.3835-.412-.1629-.101-.3542-.151-.5739-.151-.2386 0-.4469.059-.625.176a1.1836 1.1836 0 0 0-.4091.455c-.0946.186-.142.387-.142.605v.497c0 .292.0511.54.1534.745.1042.204.2491.36.4347.468.1856.106.4024.159.6505.159.161 0 .3078-.022.4404-.068a.9427.9427 0 0 0 .3437-.21c.0966-.093.1705-.207.2216-.344l.804.145a1.4534 1.4534 0 0 1-.3466.622c-.1648.176-.3722.314-.6222.412-.2481.097-.5312.145-.8494.145Zm3.3743-.034c-.1553 0-.2888-.055-.4006-.165-.1117-.112-.1676-.246-.1676-.403 0-.156.0559-.288.1676-.398.1118-.112.2453-.168.4006-.168.1553 0 .2888.056.4006.168.1117.11.1676.242.1676.398 0 .104-.0265.2-.0796.287a.5866.5866 0 0 1-.2045.204.543.543 0 0 1-.2841.077Z" fill="#000"/><g clip-path="url(#a)"><path d="M25.5 45c.4148 0 .75.3352.75.75v1.5h2.8125c.9328 0 1.6875.7547 1.6875 1.6875v6.375c0 .9328-.7547 1.6875-1.6875 1.6875h-7.125c-.9328 0-1.6875-.7547-1.6875-1.6875v-6.375c0-.9328.7547-1.6875 1.6875-1.6875H24.75v-1.5c0-.4148.3352-.75.75-.75Zm-2.625 9a.376.376 0 0 0-.375.375.376.376 0 0 0 .375.375h.75a.376.376 0 0 0 .375-.375.376.376 0 0 0-.375-.375h-.75Zm2.25 0a.376.376 0 0 0-.375.375.376.376 0 0 0 .375.375h.75a.376.376 0 0 0 .375-.375.376.376 0 0 0-.375-.375h-.75Zm2.25 0a.376.376 0 0 0-.375.375.376.376 0 0 0 .375.375h.75a.376.376 0 0 0 .375-.375.376.376 0 0 0-.375-.375h-.75Zm-3.1875-3a.9376.9376 0 1 0-1.8752.0001A.9376.9376 0 0 0 24.1875 51Zm3.5625.9375a.9376.9376 0 1 0-.0001-1.8752.9376.9376 0 0 0 .0001 1.8752ZM19.125 50.25h.375v4.5h-.375c-.6211 0-1.125-.5039-1.125-1.125v-2.25c0-.6211.5039-1.125 1.125-1.125Zm12.75 0c.6211 0 1.125.5039 1.125 1.125v2.25c0 .6211-.5039 1.125-1.125 1.125H31.5v-4.5h.375Z" fill="#fff"/></g><g clip-path="url(#b)"><path d="M25.5 106c.4148 0 .75.335.75.75v1.5h2.8125c.9328 0 1.6875.755 1.6875 1.688v6.374c0 .933-.7547 1.688-1.6875 1.688h-7.125c-.9328 0-1.6875-.755-1.6875-1.688v-6.374c0-.933.7547-1.688 1.6875-1.688H24.75v-1.5c0-.415.3352-.75.75-.75Zm-2.625 9a.3762.3762 0 0 0-.375.375c0 .206.1687.375.375.375h.75c.2063 0 .375-.169.375-.375a.3762.3762 0 0 0-.375-.375h-.75Zm2.25 0a.3762.3762 0 0 0-.375.375c0 .206.1687.375.375.375h.75c.2063 0 .375-.169.375-.375a.3762.3762 0 0 0-.375-.375h-.75Zm2.25 0a.3762.3762 0 0 0-.375.375c0 .206.1687.375.375.375h.75c.2063 0 .375-.169.375-.375a.3762.3762 0 0 0-.375-.375h-.75Zm-3.1875-3a.9375.9375 0 0 0-.2746-.663.9371.9371 0 0 0-.6629-.275.9371.9371 0 0 0-.6629.275.9375.9375 0 0 0 0 1.326.9371.9371 0 0 0 .6629.275.9371.9371 0 0 0 .6629-.275.9375.9375 0 0 0 .2746-.663Zm3.5625.938a.9371.9371 0 0 0 .6629-.275.9375.9375 0 0 0 0-1.326.9371.9371 0 0 0-.6629-.275.9371.9371 0 0 0-.6629.275.9375.9375 0 0 0 0 1.326.9371.9371 0 0 0 .6629.275Zm-8.625-1.688h.375v4.5h-.375c-.6211 0-1.125-.504-1.125-1.125v-2.25c0-.621.5039-1.125 1.125-1.125Zm12.75 0c.6211 0 1.125.504 1.125 1.125v2.25c0 .621-.5039 1.125-1.125 1.125H31.5v-4.5h.375Z" fill="#fff"/></g><g clip-path="url(#c)"><path d="M25.5 136c.4148 0 .75.335.75.75v1.5h2.8125c.9328 0 1.6875.755 1.6875 1.688v6.374c0 .933-.7547 1.688-1.6875 1.688h-7.125c-.9328 0-1.6875-.755-1.6875-1.688v-6.374c0-.933.7547-1.688 1.6875-1.688H24.75v-1.5c0-.415.3352-.75.75-.75Zm-2.625 9a.3762.3762 0 0 0-.375.375c0 .206.1687.375.375.375h.75c.2063 0 .375-.169.375-.375a.3762.3762 0 0 0-.375-.375h-.75Zm2.25 0a.3762.3762 0 0 0-.375.375c0 .206.1687.375.375.375h.75c.2063 0 .375-.169.375-.375a.3762.3762 0 0 0-.375-.375h-.75Zm2.25 0a.3762.3762 0 0 0-.375.375c0 .206.1687.375.375.375h.75c.2063 0 .375-.169.375-.375a.3762.3762 0 0 0-.375-.375h-.75Zm-3.1875-3a.9375.9375 0 0 0-.2746-.663.9371.9371 0 0 0-.6629-.275.9371.9371 0 0 0-.6629.275.9375.9375 0 0 0 0 1.326.9371.9371 0 0 0 .6629.275.9371.9371 0 0 0 .6629-.275.9375.9375 0 0 0 .2746-.663Zm3.5625.938a.9371.9371 0 0 0 .6629-.275.9375.9375 0 0 0 0-1.326.9371.9371 0 0 0-.6629-.275.9371.9371 0 0 0-.6629.275.9375.9375 0 0 0 0 1.326.9371.9371 0 0 0 .6629.275Zm-8.625-1.688h.375v4.5h-.375c-.6211 0-1.125-.504-1.125-1.125v-2.25c0-.621.5039-1.125 1.125-1.125Zm12.75 0c.6211 0 1.125.504 1.125 1.125v2.25c0 .621-.5039 1.125-1.125 1.125H31.5v-4.5h.375Z" fill="#fff"/></g><rect x="262" y="76" width="24" height="24" rx="12" fill="#1C85FF"/><g clip-path="url(#d)"><path d="M274 94c1.591 0 3.117-.6321 4.243-1.7574a6.0004 6.0004 0 0 0 0-8.4852A6.0024 6.0024 0 0 0 274 82c-1.591 0-3.117.6321-4.243 1.7574a6.0004 6.0004 0 0 0 0 8.4852A6.0024 6.0024 0 0 0 274 94Zm-2.154-4.3711c.42.4852 1.137.9961 2.154.9961s1.734-.5109 2.154-.9961a.3755.3755 0 0 1 .53-.0375.375.375 0 0 1 .037.5297c-.523.6-1.43 1.2539-2.721 1.2539-1.291 0-2.198-.6539-2.721-1.2539a.375.375 0 0 1 .037-.5297.3755.3755 0 0 1 .53.0375Zm-.462-2.7539c0-.1989.079-.3897.22-.5303a.7495.7495 0 0 1 .53-.2197c.199 0 .39.079.531.2197a.752.752 0 0 1 0 1.0606.7518.7518 0 0 1-.531.2197.7495.7495 0 0 1-.53-.2197.7487.7487 0 0 1-.22-.5303Zm4.5-.75c.199 0 .39.079.531.2197a.752.752 0 0 1 0 1.0606.7518.7518 0 0 1-.531.2197.7495.7495 0 0 1-.53-.2197.7487.7487 0 0 1 0-1.0606.7495.7495 0 0 1 .53-.2197Z" fill="#fff"/></g><rect x="182" y="76" width="74" height="24" rx="7" fill="#1C85FF"/><path d="M191.352 85.9375v-.7557h4.503v.7557h-1.815V91h-.875v-5.0625h-1.813Zm6.678 5.1506c-.43 0-.8-.0919-1.111-.2756-.309-.1856-.547-.446-.716-.7813-.167-.3371-.25-.732-.25-1.1846 0-.447.083-.8409.25-1.1818.169-.3409.404-.607.705-.7983.303-.1913.657-.287 1.062-.287.246 0 .485.0408.716.1222.231.0814.439.2093.622.3835.184.1743.329.4006.435.679.106.2765.159.6127.159 1.0085v.3012h-3.469v-.6364h2.637c0-.2235-.046-.4214-.137-.5937-.091-.1743-.219-.3116-.383-.412-.163-.1004-.354-.1506-.574-.1506-.239 0-.447.0588-.625.1762a1.178 1.178 0 0 0-.409.4545c-.095.1856-.142.3873-.142.6051v.4972c0 .2917.051.5398.153.7443.104.2046.249.3608.435.4688.185.106.402.1591.65.1591.161 0 .308-.0228.441-.0682.132-.0474.247-.1174.343-.2102.097-.0928.171-.2074.222-.3438l.804.1449a1.449 1.449 0 0 1-.347.6221c-.164.1762-.372.3135-.622.412-.248.0966-.531.1449-.849.1449Zm3.664-5.9063V91h-.85v-5.8182h.85Zm1.992 0V91h-.849v-5.8182h.849ZM206.946 91v-4.3636h.815v.7102h.054c.091-.2405.24-.428.446-.5625.207-.1364.454-.2046.742-.2046.292 0 .536.0682.733.2046.199.1364.345.3239.44.5625h.046c.104-.233.269-.4186.497-.5568.227-.1402.498-.2103.812-.2103.396 0 .719.1241.969.3722.252.2481.378.6222.378 1.1222V91h-.85v-2.8466c0-.2954-.08-.5095-.241-.642-.161-.1326-.353-.1989-.577-.1989-.276 0-.491.0852-.645.2557-.153.1685-.23.3854-.23.6506V91h-.846v-2.9006c0-.2367-.074-.4271-.222-.571-.148-.1439-.34-.2159-.577-.2159a.8272.8272 0 0 0-.446.1278c-.134.0834-.243.1999-.326.3495-.082.1496-.123.3229-.123.5199V91h-.849Zm8.951.0881c-.43 0-.8-.0919-1.111-.2756-.308-.1856-.547-.446-.716-.7813-.166-.3371-.25-.732-.25-1.1846 0-.447.084-.8409.25-1.1818.169-.3409.404-.607.705-.7983.303-.1913.657-.287 1.062-.287.247 0 .485.0408.716.1222.231.0814.439.2093.622.3835.184.1743.329.4006.435.679.106.2765.159.6127.159 1.0085v.3012H214.3v-.6364h2.637c0-.2235-.046-.4214-.137-.5937a1.022 1.022 0 0 0-.383-.412c-.163-.1004-.354-.1506-.574-.1506-.239 0-.447.0588-.625.1762a1.186 1.186 0 0 0-.409.4545c-.095.1856-.142.3873-.142.6051v.4972c0 .2917.051.5398.153.7443.104.2046.249.3608.435.4688.186.106.402.1591.651.1591.161 0 .307-.0228.44-.0682.132-.0474.247-.1174.344-.2102.096-.0928.17-.2074.221-.3438l.804.1449c-.064.2367-.18.4441-.346.6221-.165.1762-.373.3135-.623.412-.248.0966-.531.1449-.849.1449Zm6.202.0085c-.277 0-.527-.0511-.75-.1534-.224-.1042-.401-.2548-.532-.4517-.128-.197-.193-.4385-.193-.7245 0-.2462.048-.4488.142-.6079.095-.1591.223-.285.384-.3779.161-.0928.341-.1628.54-.2102.198-.0473.401-.0833.608-.1079l.636-.0739c.163-.0208.281-.054.355-.0994.074-.0455.111-.1193.111-.2216v-.0199c0-.2481-.07-.4403-.21-.5767-.139-.1364-.345-.2046-.62-.2046-.286 0-.511.0635-.676.1904-.163.125-.275.2642-.338.4176l-.798-.1818c.095-.2652.233-.4792.415-.6421a1.672 1.672 0 0 1 .633-.3579c.239-.0758.49-.1137.753-.1137.174 0 .359.0209.554.0625.197.0398.381.1137.551.2216.172.108.314.2623.423.4631.11.1989.165.4574.165.7756V91h-.829v-.5966h-.035c-.054.1099-.137.2178-.247.3239-.11.106-.251.1941-.423.2642s-.379.1051-.619.1051Zm.184-.6818c.235 0 .436-.0464.603-.1392.168-.0928.296-.214.383-.3637.089-.1515.134-.3134.134-.4858v-.5625c-.031.0303-.089.0587-.176.0853a2.7788 2.7788 0 0 1-.293.0653c-.11.017-.217.0331-.321.0483a35.926 35.926 0 0 0-.261.0341c-.165.0208-.316.0559-.452.1051-.135.0492-.243.1203-.324.2131-.08.0909-.119.2121-.119.3636 0 .2102.077.3693.233.4773.155.106.353.1591.593.1591Zm5.218-3.7784h.849v4.6477c0 .2917-.053.5379-.159.7386-.104.2008-.259.3532-.466.4574-.204.1042-.457.1563-.758.1563h-.086c-.028 0-.057-.001-.088-.0029v-.7301h.137c.2 0 .345-.054.434-.1619.091-.1061.137-.2604.137-.4631v-4.642Zm.42-.6733c-.148 0-.274-.0493-.381-.1478-.104-.1003-.156-.2197-.156-.3579 0-.1402.052-.2595.156-.358.107-.1003.233-.1505.381-.1505s.274.0502.378.1505c.106.0985.159.2178.159.358 0 .1382-.053.2576-.159.3579-.104.0985-.23.1478-.378.1478Zm3.41 5.125c-.409 0-.766-.0938-1.071-.2813-.305-.1875-.542-.4498-.71-.7869-.169-.3371-.253-.7311-.253-1.1818 0-.4527.084-.8485.253-1.1875.168-.339.405-.6023.71-.7898.305-.1875.662-.2813 1.071-.2813.409 0 .766.0938 1.071.2813.305.1875.542.4508.71.7898.169.339.253.7348.253 1.1875 0 .4507-.084.8447-.253 1.1818-.168.3371-.405.5994-.71.7869-.305.1875-.662.2813-1.071.2813Zm.003-.7131c.265 0 .485-.0701.659-.2102.174-.1402.303-.3267.386-.5597.085-.2329.128-.4896.128-.7699 0-.2784-.043-.5341-.128-.767-.083-.2349-.212-.4233-.386-.5654-.174-.142-.394-.213-.659-.213-.267 0-.489.071-.665.213-.174.1421-.304.3305-.389.5654-.084.2329-.125.4886-.125.767 0 .2803.041.537.125.7699.085.233.215.4195.389.5597.176.1401.398.2102.665.2102Zm3.76-.8551-.005-1.0369h.148l1.738-1.8466h1.017l-1.983 2.1022h-.133l-.782.7813ZM234.313 91v-5.8182h.85V91h-.85Zm2.756 0-1.563-2.0739.586-.5937L238.112 91h-1.043Zm3.398.0881c-.43 0-.8-.0919-1.11-.2756-.309-.1856-.548-.446-.716-.7813-.167-.3371-.25-.732-.25-1.1846 0-.447.083-.8409.25-1.1818.168-.3409.403-.607.704-.7983.303-.1913.657-.287 1.063-.287.246 0 .485.0408.716.1222.231.0814.438.2093.622.3835.183.1743.328.4006.434.679.106.2765.159.6127.159 1.0085v.3012h-3.468v-.6364h2.636c0-.2235-.045-.4214-.136-.5937-.091-.1743-.219-.3116-.384-.412-.163-.1004-.354-.1506-.574-.1506-.238 0-.447.0588-.625.1762a1.186 1.186 0 0 0-.409.4545c-.094.1856-.142.3873-.142.6051v.4972c0 .2917.051.5398.154.7443.104.2046.249.3608.434.4688.186.106.403.1591.651.1591.161 0 .308-.0228.44-.0682a.9526.9526 0 0 0 .344-.2102c.097-.0928.17-.2074.222-.3438l.804.1449c-.065.2367-.18.4441-.347.6221-.165.1762-.372.3135-.622.412-.248.0966-.531.1449-.85.1449Zm3.886-5.9063-.074 4.1449h-.787l-.074-4.1449h.935Zm-.466 5.8722c-.157 0-.292-.0549-.403-.1648-.112-.1117-.167-.2462-.165-.4034-.002-.1553.053-.2879.165-.3977.111-.1118.246-.1676.403-.1676.153 0 .286.0558.398.1676.112.1098.168.2424.17.3977a.5624.5624 0 0 1-.082.2869.5814.5814 0 0 1-.205.2046.536.536 0 0 1-.281.0767Z" fill="#fff"/><defs><clipPath id="a"><path fill="#fff" transform="translate(18 45)" d="M0 0h15v12H0z"/></clipPath><clipPath id="b"><path fill="#fff" transform="translate(18 106)" d="M0 0h15v12H0z"/></clipPath><clipPath id="c"><path fill="#fff" transform="translate(18 136)" d="M0 0h15v12H0z"/></clipPath><clipPath id="d"><path fill="#fff" transform="translate(268 82)" d="M0 0h12v12H0z"/></clipPath></defs></svg>