<svg width="300" height="180" viewBox="0 0 300 180" fill="none" xmlns="http://www.w3.org/2000/svg">
<rect width="300" height="180" fill="#E6FEFE"/>
<g filter="url(#filter0_d_5692_22)">
<rect x="39" y="16" width="226" height="148" rx="8" fill="white"/>
<path d="M95.0723 44.8076L97.6035 44.5615C97.7559 45.4111 98.0635 46.0352 98.5264 46.4336C98.9951 46.832 99.625 47.0312 100.416 47.0312C101.254 47.0312 101.884 46.8555 102.306 46.5039C102.733 46.1465 102.947 45.7305 102.947 45.2559C102.947 44.9512 102.856 44.6934 102.675 44.4824C102.499 44.2656 102.188 44.0781 101.743 43.9199C101.438 43.8145 100.744 43.627 99.6602 43.3574C98.2656 43.0117 97.2871 42.5869 96.7246 42.083C95.9336 41.374 95.5381 40.5098 95.5381 39.4902C95.5381 38.834 95.7227 38.2217 96.0918 37.6533C96.4668 37.0791 97.0029 36.6426 97.7002 36.3438C98.4033 36.0449 99.25 35.8955 100.24 35.8955C101.857 35.8955 103.073 36.25 103.888 36.959C104.708 37.668 105.139 38.6143 105.18 39.7979L102.578 39.9121C102.467 39.25 102.227 38.7754 101.857 38.4883C101.494 38.1953 100.946 38.0488 100.214 38.0488C99.458 38.0488 98.8662 38.2041 98.4385 38.5146C98.1631 38.7139 98.0254 38.9805 98.0254 39.3145C98.0254 39.6191 98.1543 39.8799 98.4121 40.0967C98.7402 40.3721 99.5371 40.6592 100.803 40.958C102.068 41.2568 103.003 41.5674 103.606 41.8896C104.216 42.2061 104.69 42.6426 105.03 43.1992C105.376 43.75 105.549 44.4326 105.549 45.2471C105.549 45.9854 105.344 46.6768 104.934 47.3213C104.523 47.9658 103.943 48.4463 103.193 48.7627C102.443 49.0732 101.509 49.2285 100.39 49.2285C98.7607 49.2285 97.5098 48.8535 96.6367 48.1035C95.7637 47.3477 95.2422 46.249 95.0723 44.8076ZM115.858 42.4258L113.424 42.8652C113.342 42.3789 113.154 42.0127 112.861 41.7666C112.574 41.5205 112.199 41.3975 111.736 41.3975C111.121 41.3975 110.629 41.6113 110.26 42.0391C109.896 42.4609 109.715 43.1699 109.715 44.166C109.715 45.2734 109.899 46.0557 110.269 46.5127C110.644 46.9697 111.145 47.1982 111.771 47.1982C112.24 47.1982 112.624 47.0664 112.923 46.8027C113.222 46.5332 113.433 46.0732 113.556 45.4229L115.981 45.8359C115.729 46.9492 115.246 47.79 114.531 48.3584C113.816 48.9268 112.858 49.2109 111.657 49.2109C110.292 49.2109 109.202 48.7803 108.388 47.9189C107.579 47.0576 107.175 45.8652 107.175 44.3418C107.175 42.8008 107.582 41.6025 108.396 40.7471C109.211 39.8857 110.312 39.4551 111.701 39.4551C112.838 39.4551 113.74 39.7012 114.408 40.1934C115.082 40.6797 115.565 41.4238 115.858 42.4258ZM117.168 44.2012C117.168 43.3809 117.37 42.5869 117.774 41.8193C118.179 41.0518 118.75 40.4658 119.488 40.0615C120.232 39.6572 121.062 39.4551 121.976 39.4551C123.388 39.4551 124.545 39.915 125.447 40.835C126.35 41.749 126.801 42.9062 126.801 44.3066C126.801 45.7188 126.344 46.8906 125.43 47.8223C124.521 48.748 123.376 49.2109 121.993 49.2109C121.138 49.2109 120.32 49.0176 119.541 48.6309C118.768 48.2441 118.179 47.6787 117.774 46.9346C117.37 46.1846 117.168 45.2734 117.168 44.2012ZM119.699 44.333C119.699 45.2588 119.919 45.9678 120.358 46.46C120.798 46.9521 121.34 47.1982 121.984 47.1982C122.629 47.1982 123.168 46.9521 123.602 46.46C124.041 45.9678 124.261 45.2529 124.261 44.3154C124.261 43.4014 124.041 42.6982 123.602 42.2061C123.168 41.7139 122.629 41.4678 121.984 41.4678C121.34 41.4678 120.798 41.7139 120.358 42.2061C119.919 42.6982 119.699 43.4072 119.699 44.333ZM131.107 49H128.638V39.666H130.932V40.9932C131.324 40.3662 131.676 39.9531 131.986 39.7539C132.303 39.5547 132.66 39.4551 133.059 39.4551C133.621 39.4551 134.163 39.6104 134.685 39.9209L133.92 42.0742C133.504 41.8047 133.117 41.6699 132.76 41.6699C132.414 41.6699 132.121 41.7666 131.881 41.96C131.641 42.1475 131.45 42.4902 131.31 42.9883C131.175 43.4863 131.107 44.5293 131.107 46.1172V49ZM141.162 46.0293L143.623 46.4424C143.307 47.3447 142.806 48.0332 142.12 48.5078C141.44 48.9766 140.588 49.2109 139.562 49.2109C137.939 49.2109 136.738 48.6807 135.959 47.6201C135.344 46.7705 135.036 45.6982 135.036 44.4033C135.036 42.8564 135.44 41.6465 136.249 40.7734C137.058 39.8945 138.08 39.4551 139.316 39.4551C140.705 39.4551 141.801 39.915 142.604 40.835C143.406 41.749 143.79 43.1523 143.755 45.0449H137.567C137.585 45.7773 137.784 46.3486 138.165 46.7588C138.546 47.1631 139.021 47.3652 139.589 47.3652C139.976 47.3652 140.301 47.2598 140.564 47.0488C140.828 46.8379 141.027 46.498 141.162 46.0293ZM141.303 43.5332C141.285 42.8184 141.101 42.2764 140.749 41.9072C140.397 41.5322 139.97 41.3447 139.466 41.3447C138.927 41.3447 138.481 41.541 138.13 41.9336C137.778 42.3262 137.605 42.8594 137.611 43.5332H141.303ZM150.839 49V36.1152H153.44V41.8369L158.696 36.1152H162.194L157.343 41.1338L162.458 49H159.092L155.55 42.9531L153.44 45.1064V49H150.839ZM169.199 46.0293L171.66 46.4424C171.344 47.3447 170.843 48.0332 170.157 48.5078C169.478 48.9766 168.625 49.2109 167.6 49.2109C165.977 49.2109 164.775 48.6807 163.996 47.6201C163.381 46.7705 163.073 45.6982 163.073 44.4033C163.073 42.8564 163.478 41.6465 164.286 40.7734C165.095 39.8945 166.117 39.4551 167.354 39.4551C168.742 39.4551 169.838 39.915 170.641 40.835C171.443 41.749 171.827 43.1523 171.792 45.0449H165.604C165.622 45.7773 165.821 46.3486 166.202 46.7588C166.583 47.1631 167.058 47.3652 167.626 47.3652C168.013 47.3652 168.338 47.2598 168.602 47.0488C168.865 46.8379 169.064 46.498 169.199 46.0293ZM169.34 43.5332C169.322 42.8184 169.138 42.2764 168.786 41.9072C168.435 41.5322 168.007 41.3447 167.503 41.3447C166.964 41.3447 166.519 41.541 166.167 41.9336C165.815 42.3262 165.643 42.8594 165.648 43.5332H169.34ZM179.219 46.0293L181.68 46.4424C181.363 47.3447 180.862 48.0332 180.177 48.5078C179.497 48.9766 178.645 49.2109 177.619 49.2109C175.996 49.2109 174.795 48.6807 174.016 47.6201C173.4 46.7705 173.093 45.6982 173.093 44.4033C173.093 42.8564 173.497 41.6465 174.306 40.7734C175.114 39.8945 176.137 39.4551 177.373 39.4551C178.762 39.4551 179.857 39.915 180.66 40.835C181.463 41.749 181.847 43.1523 181.812 45.0449H175.624C175.642 45.7773 175.841 46.3486 176.222 46.7588C176.603 47.1631 177.077 47.3652 177.646 47.3652C178.032 47.3652 178.357 47.2598 178.621 47.0488C178.885 46.8379 179.084 46.498 179.219 46.0293ZM179.359 43.5332C179.342 42.8184 179.157 42.2764 178.806 41.9072C178.454 41.5322 178.026 41.3447 177.522 41.3447C176.983 41.3447 176.538 41.541 176.187 41.9336C175.835 42.3262 175.662 42.8594 175.668 43.5332H179.359ZM183.763 39.666H186.065V41.0371C186.364 40.5684 186.769 40.1875 187.278 39.8945C187.788 39.6016 188.354 39.4551 188.975 39.4551C190.059 39.4551 190.979 39.8799 191.734 40.7295C192.49 41.5791 192.868 42.7627 192.868 44.2803C192.868 45.8389 192.487 47.0518 191.726 47.9189C190.964 48.7803 190.041 49.2109 188.957 49.2109C188.441 49.2109 187.973 49.1084 187.551 48.9033C187.135 48.6982 186.695 48.3467 186.232 47.8486V52.5508H183.763V39.666ZM186.206 44.1748C186.206 45.2236 186.414 46 186.83 46.5039C187.246 47.002 187.753 47.251 188.351 47.251C188.925 47.251 189.402 47.0225 189.783 46.5654C190.164 46.1025 190.354 45.3467 190.354 44.2979C190.354 43.3193 190.158 42.5928 189.766 42.1182C189.373 41.6436 188.887 41.4062 188.307 41.4062C187.703 41.4062 187.202 41.6406 186.804 42.1094C186.405 42.5723 186.206 43.2607 186.206 44.1748ZM200.242 46.0293L202.703 46.4424C202.387 47.3447 201.886 48.0332 201.2 48.5078C200.521 48.9766 199.668 49.2109 198.643 49.2109C197.02 49.2109 195.818 48.6807 195.039 47.6201C194.424 46.7705 194.116 45.6982 194.116 44.4033C194.116 42.8564 194.521 41.6465 195.329 40.7734C196.138 39.8945 197.16 39.4551 198.396 39.4551C199.785 39.4551 200.881 39.915 201.684 40.835C202.486 41.749 202.87 43.1523 202.835 45.0449H196.647C196.665 45.7773 196.864 46.3486 197.245 46.7588C197.626 47.1631 198.101 47.3652 198.669 47.3652C199.056 47.3652 199.381 47.2598 199.645 47.0488C199.908 46.8379 200.107 46.498 200.242 46.0293ZM200.383 43.5332C200.365 42.8184 200.181 42.2764 199.829 41.9072C199.478 41.5322 199.05 41.3447 198.546 41.3447C198.007 41.3447 197.562 41.541 197.21 41.9336C196.858 42.3262 196.686 42.8594 196.691 43.5332H200.383ZM207.221 49H204.751V39.666H207.045V40.9932C207.438 40.3662 207.789 39.9531 208.1 39.7539C208.416 39.5547 208.773 39.4551 209.172 39.4551C209.734 39.4551 210.276 39.6104 210.798 39.9209L210.033 42.0742C209.617 41.8047 209.23 41.6699 208.873 41.6699C208.527 41.6699 208.234 41.7666 207.994 41.96C207.754 42.1475 207.563 42.4902 207.423 42.9883C207.288 43.4863 207.221 44.5293 207.221 46.1172V49Z" fill="#377E7F"/>
<path d="M58.2744 92V83.6738H55.3008V81.9785H63.2646V83.6738H60.2979V92H58.2744ZM67.7285 89.6895L69.6426 90.0107C69.3965 90.7126 69.0068 91.248 68.4736 91.6172C67.945 91.9818 67.2819 92.1641 66.4844 92.1641C65.222 92.1641 64.2878 91.7516 63.6816 90.9268C63.2031 90.266 62.9639 89.432 62.9639 88.4248C62.9639 87.2217 63.2783 86.2806 63.9072 85.6016C64.5361 84.918 65.3314 84.5762 66.293 84.5762C67.373 84.5762 68.2253 84.9339 68.8496 85.6494C69.474 86.3604 69.7725 87.4518 69.7451 88.9238H64.9326C64.9463 89.4935 65.1012 89.9378 65.3975 90.2568C65.6937 90.5713 66.0628 90.7285 66.5049 90.7285C66.8057 90.7285 67.0586 90.6465 67.2637 90.4824C67.4688 90.3184 67.6237 90.054 67.7285 89.6895ZM67.8379 87.748C67.8242 87.1921 67.6807 86.7705 67.4072 86.4834C67.1338 86.1917 66.8011 86.0459 66.4092 86.0459C65.9899 86.0459 65.6436 86.1986 65.3701 86.5039C65.0967 86.8092 64.9622 87.224 64.9668 87.748H67.8379ZM72.7529 86.9551L71.0098 86.6406C71.2057 85.9388 71.543 85.4193 72.0215 85.082C72.5 84.7448 73.2109 84.5762 74.1543 84.5762C75.0111 84.5762 75.6491 84.6787 76.0684 84.8838C76.4876 85.0843 76.7816 85.3418 76.9502 85.6562C77.1234 85.9661 77.21 86.5381 77.21 87.3721L77.1895 89.6143C77.1895 90.2523 77.2191 90.724 77.2783 91.0293C77.3421 91.3301 77.4583 91.6536 77.627 92H75.7266C75.6764 91.8724 75.6149 91.6833 75.542 91.4326C75.5101 91.3187 75.4873 91.2435 75.4736 91.207C75.1455 91.526 74.7946 91.7653 74.4209 91.9248C74.0472 92.0843 73.6484 92.1641 73.2246 92.1641C72.4772 92.1641 71.887 91.9613 71.4541 91.5557C71.0257 91.1501 70.8115 90.6374 70.8115 90.0176C70.8115 89.6074 70.9095 89.2428 71.1055 88.9238C71.3014 88.6003 71.5749 88.3542 71.9258 88.1855C72.2812 88.0124 72.7917 87.862 73.457 87.7344C74.3548 87.5658 74.9769 87.4085 75.3232 87.2627V87.0713C75.3232 86.7021 75.2321 86.4401 75.0498 86.2852C74.8675 86.1257 74.5234 86.0459 74.0176 86.0459C73.6758 86.0459 73.4092 86.1143 73.2178 86.251C73.0264 86.3831 72.8714 86.6178 72.7529 86.9551ZM75.3232 88.5137C75.0771 88.5957 74.6875 88.6937 74.1543 88.8076C73.6211 88.9215 73.2725 89.0332 73.1084 89.1426C72.8577 89.3203 72.7324 89.5459 72.7324 89.8193C72.7324 90.0882 72.8327 90.3206 73.0332 90.5166C73.2337 90.7126 73.4889 90.8105 73.7988 90.8105C74.1452 90.8105 74.4756 90.6966 74.79 90.4688C75.0225 90.2956 75.1751 90.0837 75.248 89.833C75.2982 89.6689 75.3232 89.3568 75.3232 88.8965V88.5137ZM78.9668 84.7402H80.7373V85.7314C81.3708 84.9613 82.125 84.5762 83 84.5762C83.4648 84.5762 83.8682 84.6719 84.21 84.8633C84.5518 85.0547 84.832 85.3441 85.0508 85.7314C85.3698 85.3441 85.7139 85.0547 86.083 84.8633C86.4521 84.6719 86.8464 84.5762 87.2656 84.5762C87.7988 84.5762 88.25 84.6855 88.6191 84.9043C88.9883 85.1185 89.264 85.4352 89.4463 85.8545C89.5785 86.1644 89.6445 86.6657 89.6445 87.3584V92H87.7236V87.8506C87.7236 87.1305 87.6576 86.6657 87.5254 86.4561C87.3477 86.1826 87.0742 86.0459 86.7051 86.0459C86.4362 86.0459 86.1833 86.1279 85.9463 86.292C85.7093 86.4561 85.5384 86.6976 85.4336 87.0166C85.3288 87.3311 85.2764 87.8301 85.2764 88.5137V92H83.3555V88.0215C83.3555 87.3151 83.3213 86.8594 83.2529 86.6543C83.1846 86.4492 83.0775 86.2965 82.9316 86.1963C82.7904 86.096 82.5967 86.0459 82.3506 86.0459C82.0544 86.0459 81.7878 86.1257 81.5508 86.2852C81.3138 86.4447 81.1429 86.6748 81.0381 86.9756C80.9378 87.2764 80.8877 87.7754 80.8877 88.4727V92H78.9668V84.7402ZM95.0654 87.0508C95.0654 86.0299 95.2181 85.1732 95.5234 84.4805C95.7513 83.9701 96.0612 83.512 96.4531 83.1064C96.8496 82.7008 97.2826 82.4001 97.752 82.2041C98.3763 81.9398 99.0964 81.8076 99.9121 81.8076C101.389 81.8076 102.569 82.2656 103.453 83.1816C104.342 84.0977 104.786 85.3714 104.786 87.0029C104.786 88.6208 104.346 89.8877 103.467 90.8037C102.587 91.7152 101.411 92.1709 99.9395 92.1709C98.4492 92.1709 97.2643 91.7174 96.3848 90.8105C95.5052 89.8991 95.0654 88.6458 95.0654 87.0508ZM97.1504 86.9824C97.1504 88.1172 97.4124 88.9785 97.9365 89.5664C98.4606 90.1497 99.126 90.4414 99.9326 90.4414C100.739 90.4414 101.4 90.152 101.915 89.5732C102.435 88.9899 102.694 88.1172 102.694 86.9551C102.694 85.8066 102.441 84.9499 101.936 84.3848C101.434 83.8197 100.767 83.5371 99.9326 83.5371C99.0986 83.5371 98.4264 83.8242 97.916 84.3984C97.4056 84.9681 97.1504 85.8294 97.1504 86.9824ZM112.962 92H111.041V88.2949C111.041 87.5111 111 87.0052 110.918 86.7773C110.836 86.5449 110.701 86.3649 110.515 86.2373C110.332 86.1097 110.111 86.0459 109.852 86.0459C109.519 86.0459 109.22 86.137 108.956 86.3193C108.692 86.5016 108.509 86.7432 108.409 87.0439C108.313 87.3447 108.266 87.9007 108.266 88.7119V92H106.345V84.7402H108.129V85.8066C108.762 84.9863 109.56 84.5762 110.521 84.5762C110.945 84.5762 111.333 84.6536 111.684 84.8086C112.035 84.959 112.299 85.1527 112.477 85.3896C112.659 85.6266 112.784 85.8955 112.853 86.1963C112.925 86.4971 112.962 86.9277 112.962 87.4883V92ZM119.121 89.6895L121.035 90.0107C120.789 90.7126 120.399 91.248 119.866 91.6172C119.338 91.9818 118.674 92.1641 117.877 92.1641C116.615 92.1641 115.68 91.7516 115.074 90.9268C114.596 90.266 114.356 89.432 114.356 88.4248C114.356 87.2217 114.671 86.2806 115.3 85.6016C115.929 84.918 116.724 84.5762 117.686 84.5762C118.766 84.5762 119.618 84.9339 120.242 85.6494C120.867 86.3604 121.165 87.4518 121.138 88.9238H116.325C116.339 89.4935 116.494 89.9378 116.79 90.2568C117.086 90.5713 117.455 90.7285 117.897 90.7285C118.198 90.7285 118.451 90.6465 118.656 90.4824C118.861 90.3184 119.016 90.054 119.121 89.6895ZM119.23 87.748C119.217 87.1921 119.073 86.7705 118.8 86.4834C118.526 86.1917 118.194 86.0459 117.802 86.0459C117.382 86.0459 117.036 86.1986 116.763 86.5039C116.489 86.8092 116.355 87.224 116.359 87.748H119.23ZM123.079 86.6611V84.7402H125V86.6611H123.079ZM123.079 92V90.0791H125V92H123.079ZM134.105 81.9375C135.076 81.9375 135.835 82.2839 136.382 82.9766C137.034 83.7969 137.359 85.1572 137.359 87.0576C137.359 88.9535 137.031 90.3161 136.375 91.1455C135.833 91.8291 135.076 92.1709 134.105 92.1709C133.13 92.1709 132.344 91.7972 131.747 91.0498C131.15 90.2979 130.852 88.9603 130.852 87.0371C130.852 85.1504 131.18 83.7923 131.836 82.9629C132.378 82.2793 133.135 81.9375 134.105 81.9375ZM134.105 83.5303C133.873 83.5303 133.666 83.6055 133.483 83.7559C133.301 83.9017 133.16 84.166 133.06 84.5488C132.927 85.0456 132.861 85.8818 132.861 87.0576C132.861 88.2334 132.921 89.0423 133.039 89.4844C133.158 89.9219 133.306 90.2135 133.483 90.3594C133.666 90.5052 133.873 90.5781 134.105 90.5781C134.338 90.5781 134.545 90.5052 134.728 90.3594C134.91 90.209 135.051 89.9424 135.151 89.5596C135.284 89.0674 135.35 88.2334 135.35 87.0576C135.35 85.8818 135.29 85.0752 135.172 84.6377C135.053 84.1956 134.903 83.9017 134.721 83.7559C134.543 83.6055 134.338 83.5303 134.105 83.5303Z" fill="#364E4F"/>
<path d="M58.2744 134V125.674H55.3008V123.979H63.2646V125.674H60.2979V134H58.2744ZM67.7285 131.689L69.6426 132.011C69.3965 132.713 69.0068 133.248 68.4736 133.617C67.945 133.982 67.2819 134.164 66.4844 134.164C65.222 134.164 64.2878 133.752 63.6816 132.927C63.2031 132.266 62.9639 131.432 62.9639 130.425C62.9639 129.222 63.2783 128.281 63.9072 127.602C64.5361 126.918 65.3314 126.576 66.293 126.576C67.373 126.576 68.2253 126.934 68.8496 127.649C69.474 128.36 69.7725 129.452 69.7451 130.924H64.9326C64.9463 131.493 65.1012 131.938 65.3975 132.257C65.6937 132.571 66.0628 132.729 66.5049 132.729C66.8057 132.729 67.0586 132.646 67.2637 132.482C67.4688 132.318 67.6237 132.054 67.7285 131.689ZM67.8379 129.748C67.8242 129.192 67.6807 128.771 67.4072 128.483C67.1338 128.192 66.8011 128.046 66.4092 128.046C65.9899 128.046 65.6436 128.199 65.3701 128.504C65.0967 128.809 64.9622 129.224 64.9668 129.748H67.8379ZM72.7529 128.955L71.0098 128.641C71.2057 127.939 71.543 127.419 72.0215 127.082C72.5 126.745 73.2109 126.576 74.1543 126.576C75.0111 126.576 75.6491 126.679 76.0684 126.884C76.4876 127.084 76.7816 127.342 76.9502 127.656C77.1234 127.966 77.21 128.538 77.21 129.372L77.1895 131.614C77.1895 132.252 77.2191 132.724 77.2783 133.029C77.3421 133.33 77.4583 133.654 77.627 134H75.7266C75.6764 133.872 75.6149 133.683 75.542 133.433C75.5101 133.319 75.4873 133.243 75.4736 133.207C75.1455 133.526 74.7946 133.765 74.4209 133.925C74.0472 134.084 73.6484 134.164 73.2246 134.164C72.4772 134.164 71.887 133.961 71.4541 133.556C71.0257 133.15 70.8115 132.637 70.8115 132.018C70.8115 131.607 70.9095 131.243 71.1055 130.924C71.3014 130.6 71.5749 130.354 71.9258 130.186C72.2812 130.012 72.7917 129.862 73.457 129.734C74.3548 129.566 74.9769 129.409 75.3232 129.263V129.071C75.3232 128.702 75.2321 128.44 75.0498 128.285C74.8675 128.126 74.5234 128.046 74.0176 128.046C73.6758 128.046 73.4092 128.114 73.2178 128.251C73.0264 128.383 72.8714 128.618 72.7529 128.955ZM75.3232 130.514C75.0771 130.596 74.6875 130.694 74.1543 130.808C73.6211 130.922 73.2725 131.033 73.1084 131.143C72.8577 131.32 72.7324 131.546 72.7324 131.819C72.7324 132.088 72.8327 132.321 73.0332 132.517C73.2337 132.713 73.4889 132.811 73.7988 132.811C74.1452 132.811 74.4756 132.697 74.79 132.469C75.0225 132.296 75.1751 132.084 75.248 131.833C75.2982 131.669 75.3232 131.357 75.3232 130.896V130.514ZM78.9668 126.74H80.7373V127.731C81.3708 126.961 82.125 126.576 83 126.576C83.4648 126.576 83.8682 126.672 84.21 126.863C84.5518 127.055 84.832 127.344 85.0508 127.731C85.3698 127.344 85.7139 127.055 86.083 126.863C86.4521 126.672 86.8464 126.576 87.2656 126.576C87.7988 126.576 88.25 126.686 88.6191 126.904C88.9883 127.118 89.264 127.435 89.4463 127.854C89.5785 128.164 89.6445 128.666 89.6445 129.358V134H87.7236V129.851C87.7236 129.131 87.6576 128.666 87.5254 128.456C87.3477 128.183 87.0742 128.046 86.7051 128.046C86.4362 128.046 86.1833 128.128 85.9463 128.292C85.7093 128.456 85.5384 128.698 85.4336 129.017C85.3288 129.331 85.2764 129.83 85.2764 130.514V134H83.3555V130.021C83.3555 129.315 83.3213 128.859 83.2529 128.654C83.1846 128.449 83.0775 128.297 82.9316 128.196C82.7904 128.096 82.5967 128.046 82.3506 128.046C82.0544 128.046 81.7878 128.126 81.5508 128.285C81.3138 128.445 81.1429 128.675 81.0381 128.976C80.9378 129.276 80.8877 129.775 80.8877 130.473V134H78.9668V126.74ZM97.7314 134V125.674H94.7578V123.979H102.722V125.674H99.7549V134H97.7314ZM104.335 134L102.038 126.74H103.904L105.265 131.498L106.516 126.74H108.368L109.578 131.498L110.966 126.74H112.859L110.528 134H108.683L107.432 129.331L106.201 134H104.335ZM113.434 130.268C113.434 129.63 113.591 129.012 113.905 128.415C114.22 127.818 114.664 127.362 115.238 127.048C115.817 126.733 116.462 126.576 117.173 126.576C118.271 126.576 119.171 126.934 119.873 127.649C120.575 128.36 120.926 129.26 120.926 130.35C120.926 131.448 120.57 132.359 119.859 133.084C119.153 133.804 118.262 134.164 117.187 134.164C116.521 134.164 115.885 134.014 115.279 133.713C114.678 133.412 114.22 132.972 113.905 132.394C113.591 131.81 113.434 131.102 113.434 130.268ZM115.402 130.37C115.402 131.09 115.573 131.642 115.915 132.024C116.257 132.407 116.678 132.599 117.18 132.599C117.681 132.599 118.1 132.407 118.438 132.024C118.779 131.642 118.95 131.086 118.95 130.356C118.95 129.646 118.779 129.099 118.438 128.716C118.1 128.333 117.681 128.142 117.18 128.142C116.678 128.142 116.257 128.333 115.915 128.716C115.573 129.099 115.402 129.65 115.402 130.37ZM122.806 128.661V126.74H124.727V128.661H122.806ZM122.806 134V132.079H124.727V134H122.806ZM133.832 123.938C134.803 123.938 135.562 124.284 136.108 124.977C136.76 125.797 137.086 127.157 137.086 129.058C137.086 130.953 136.758 132.316 136.102 133.146C135.559 133.829 134.803 134.171 133.832 134.171C132.857 134.171 132.071 133.797 131.474 133.05C130.877 132.298 130.578 130.96 130.578 129.037C130.578 127.15 130.906 125.792 131.562 124.963C132.105 124.279 132.861 123.938 133.832 123.938ZM133.832 125.53C133.6 125.53 133.392 125.605 133.21 125.756C133.028 125.902 132.886 126.166 132.786 126.549C132.654 127.046 132.588 127.882 132.588 129.058C132.588 130.233 132.647 131.042 132.766 131.484C132.884 131.922 133.032 132.214 133.21 132.359C133.392 132.505 133.6 132.578 133.832 132.578C134.064 132.578 134.272 132.505 134.454 132.359C134.636 132.209 134.778 131.942 134.878 131.56C135.01 131.067 135.076 130.233 135.076 129.058C135.076 127.882 135.017 127.075 134.898 126.638C134.78 126.196 134.63 125.902 134.447 125.756C134.27 125.605 134.064 125.53 133.832 125.53Z" fill="#364E4F"/>
<rect x="179" y="76" width="70" height="22" rx="4" fill="#377E7F"/>
<path d="M188.235 89.0728V87.3984H186.547V86.2427H188.235V84.5684H189.36V86.2427H191.052V87.3984H189.36V89.0728H188.235ZM194.972 90H193.737V85.3462C193.286 85.7681 192.754 86.0801 192.142 86.2822V85.1616C192.464 85.0562 192.814 84.8569 193.192 84.564C193.57 84.2681 193.829 83.9238 193.97 83.5312H194.972V90ZM201.049 90V84.6475H199.138V83.5576H204.257V84.6475H202.35V90H201.049ZM207.127 88.5146L208.357 88.7212C208.199 89.1724 207.949 89.5166 207.606 89.7539C207.266 89.9883 206.84 90.1055 206.327 90.1055C205.516 90.1055 204.915 89.8403 204.525 89.3101C204.218 88.8853 204.064 88.3491 204.064 87.7017C204.064 86.9282 204.266 86.3232 204.67 85.8867C205.075 85.4473 205.586 85.2275 206.204 85.2275C206.898 85.2275 207.446 85.4575 207.848 85.9175C208.249 86.3745 208.441 87.0762 208.423 88.0225H205.33C205.338 88.3887 205.438 88.6743 205.628 88.8794C205.819 89.0815 206.056 89.1826 206.34 89.1826C206.534 89.1826 206.696 89.1299 206.828 89.0244C206.96 88.9189 207.06 88.749 207.127 88.5146ZM207.197 87.2666C207.188 86.9092 207.096 86.6382 206.92 86.4536C206.745 86.2661 206.531 86.1724 206.279 86.1724C206.009 86.1724 205.787 86.2705 205.611 86.4668C205.435 86.6631 205.349 86.9297 205.352 87.2666H207.197ZM210.357 86.7568L209.236 86.5547C209.362 86.1035 209.579 85.7695 209.887 85.5527C210.194 85.3359 210.651 85.2275 211.258 85.2275C211.809 85.2275 212.219 85.2935 212.488 85.4253C212.758 85.5542 212.947 85.7197 213.055 85.9219C213.167 86.1211 213.222 86.4888 213.222 87.0249L213.209 88.4663C213.209 88.8765 213.228 89.1797 213.266 89.376C213.307 89.5693 213.382 89.7773 213.49 90H212.269C212.236 89.918 212.197 89.7964 212.15 89.6353C212.129 89.562 212.115 89.5137 212.106 89.4902C211.895 89.6953 211.669 89.8491 211.429 89.9517C211.189 90.0542 210.933 90.1055 210.66 90.1055C210.18 90.1055 209.8 89.9751 209.522 89.7144C209.247 89.4536 209.109 89.124 209.109 88.7256C209.109 88.4619 209.172 88.2275 209.298 88.0225C209.424 87.8145 209.6 87.6562 209.825 87.5479C210.054 87.4365 210.382 87.3398 210.81 87.2578C211.387 87.1494 211.787 87.0483 212.009 86.9546V86.8315C212.009 86.5942 211.951 86.4258 211.833 86.3262C211.716 86.2236 211.495 86.1724 211.17 86.1724C210.95 86.1724 210.779 86.2163 210.656 86.3042C210.533 86.3892 210.433 86.54 210.357 86.7568ZM212.009 87.7588C211.851 87.8115 211.601 87.8745 211.258 87.9478C210.915 88.021 210.691 88.0928 210.585 88.1631C210.424 88.2773 210.344 88.4224 210.344 88.5981C210.344 88.771 210.408 88.9204 210.537 89.0464C210.666 89.1724 210.83 89.2354 211.029 89.2354C211.252 89.2354 211.464 89.1621 211.667 89.0156C211.816 88.9043 211.914 88.7681 211.961 88.6069C211.993 88.5015 212.009 88.3008 212.009 88.0049V87.7588ZM214.352 85.333H215.49V85.9702C215.897 85.4751 216.382 85.2275 216.944 85.2275C217.243 85.2275 217.502 85.2891 217.722 85.4121C217.942 85.5352 218.122 85.7212 218.263 85.9702C218.468 85.7212 218.689 85.5352 218.926 85.4121C219.164 85.2891 219.417 85.2275 219.687 85.2275C220.029 85.2275 220.319 85.2979 220.557 85.4385C220.794 85.5762 220.971 85.7798 221.088 86.0493C221.173 86.2485 221.216 86.5708 221.216 87.0161V90H219.981V87.3325C219.981 86.8696 219.938 86.5708 219.854 86.436C219.739 86.2603 219.563 86.1724 219.326 86.1724C219.153 86.1724 218.991 86.2251 218.838 86.3306C218.686 86.436 218.576 86.5913 218.509 86.7964C218.441 86.9985 218.408 87.3193 218.408 87.7588V90H217.173V87.4424C217.173 86.9883 217.151 86.6953 217.107 86.5635C217.063 86.4316 216.994 86.3335 216.9 86.269C216.81 86.2046 216.685 86.1724 216.527 86.1724C216.336 86.1724 216.165 86.2236 216.013 86.3262C215.86 86.4287 215.75 86.5767 215.683 86.77C215.619 86.9634 215.586 87.2842 215.586 87.7324V90H214.352V85.333ZM224.701 86.8184C224.701 86.1621 224.799 85.6113 224.995 85.166C225.142 84.8379 225.341 84.5435 225.593 84.2827C225.848 84.022 226.126 83.8286 226.428 83.7026C226.829 83.5327 227.292 83.4478 227.816 83.4478C228.766 83.4478 229.524 83.7422 230.093 84.3311C230.664 84.9199 230.95 85.7388 230.95 86.7876C230.95 87.8276 230.667 88.6421 230.102 89.231C229.536 89.8169 228.78 90.1099 227.834 90.1099C226.876 90.1099 226.114 89.8184 225.549 89.2354C224.983 88.6494 224.701 87.8438 224.701 86.8184ZM226.041 86.7744C226.041 87.5039 226.209 88.0576 226.546 88.4355C226.883 88.8105 227.311 88.998 227.83 88.998C228.348 88.998 228.773 88.812 229.104 88.4399C229.438 88.0649 229.605 87.5039 229.605 86.7568C229.605 86.0186 229.442 85.4678 229.117 85.1045C228.795 84.7412 228.366 84.5596 227.83 84.5596C227.293 84.5596 226.861 84.7441 226.533 85.1133C226.205 85.4795 226.041 86.0332 226.041 86.7744ZM236.206 90H234.971V87.6182C234.971 87.1143 234.944 86.7891 234.892 86.6426C234.839 86.4932 234.752 86.3774 234.632 86.2954C234.515 86.2134 234.373 86.1724 234.206 86.1724C233.992 86.1724 233.8 86.231 233.63 86.3481C233.46 86.4653 233.343 86.6206 233.279 86.814C233.217 87.0073 233.187 87.3647 233.187 87.8862V90H231.952V85.333H233.099V86.0186C233.506 85.4912 234.019 85.2275 234.637 85.2275C234.909 85.2275 235.158 85.2773 235.384 85.377C235.609 85.4736 235.779 85.5981 235.894 85.7505C236.011 85.9028 236.091 86.0757 236.135 86.269C236.182 86.4624 236.206 86.7393 236.206 87.0996V90ZM240.165 88.5146L241.396 88.7212C241.237 89.1724 240.987 89.5166 240.644 89.7539C240.304 89.9883 239.878 90.1055 239.365 90.1055C238.554 90.1055 237.953 89.8403 237.563 89.3101C237.256 88.8853 237.102 88.3491 237.102 87.7017C237.102 86.9282 237.304 86.3232 237.708 85.8867C238.113 85.4473 238.624 85.2275 239.242 85.2275C239.937 85.2275 240.484 85.4575 240.886 85.9175C241.287 86.3745 241.479 87.0762 241.461 88.0225H238.368C238.376 88.3887 238.476 88.6743 238.667 88.8794C238.857 89.0815 239.094 89.1826 239.378 89.1826C239.572 89.1826 239.734 89.1299 239.866 89.0244C239.998 88.9189 240.098 88.749 240.165 88.5146ZM240.235 87.2666C240.227 86.9092 240.134 86.6382 239.958 86.4536C239.783 86.2661 239.569 86.1724 239.317 86.1724C239.047 86.1724 238.825 86.2705 238.649 86.4668C238.473 86.6631 238.387 86.9297 238.39 87.2666H240.235Z" fill="white"/>
<rect x="179" y="118" width="70" height="22" rx="4" fill="#377E7F"/>
<path d="M188.323 131.073V129.398H186.635V128.243H188.323V126.568H189.448V128.243H191.14V129.398H189.448V131.073H188.323ZM195.06 132H193.825V127.346C193.374 127.768 192.842 128.08 192.229 128.282V127.162C192.552 127.056 192.902 126.857 193.28 126.564C193.658 126.268 193.917 125.924 194.058 125.531H195.06V132ZM201.137 132V126.647H199.226V125.558H204.345V126.647H202.438V132H201.137ZM207.215 130.515L208.445 130.721C208.287 131.172 208.037 131.517 207.694 131.754C207.354 131.988 206.928 132.105 206.415 132.105C205.604 132.105 205.003 131.84 204.613 131.31C204.306 130.885 204.152 130.349 204.152 129.702C204.152 128.928 204.354 128.323 204.758 127.887C205.163 127.447 205.674 127.228 206.292 127.228C206.986 127.228 207.534 127.458 207.936 127.917C208.337 128.375 208.529 129.076 208.511 130.022H205.417C205.426 130.389 205.526 130.674 205.716 130.879C205.907 131.082 206.144 131.183 206.428 131.183C206.622 131.183 206.784 131.13 206.916 131.024C207.048 130.919 207.147 130.749 207.215 130.515ZM207.285 129.267C207.276 128.909 207.184 128.638 207.008 128.454C206.833 128.266 206.619 128.172 206.367 128.172C206.097 128.172 205.875 128.271 205.699 128.467C205.523 128.663 205.437 128.93 205.439 129.267H207.285ZM210.445 128.757L209.324 128.555C209.45 128.104 209.667 127.77 209.975 127.553C210.282 127.336 210.739 127.228 211.346 127.228C211.896 127.228 212.307 127.293 212.576 127.425C212.846 127.554 213.035 127.72 213.143 127.922C213.254 128.121 213.31 128.489 213.31 129.025L213.297 130.466C213.297 130.876 213.316 131.18 213.354 131.376C213.395 131.569 213.47 131.777 213.578 132H212.356C212.324 131.918 212.285 131.796 212.238 131.635C212.217 131.562 212.203 131.514 212.194 131.49C211.983 131.695 211.757 131.849 211.517 131.952C211.277 132.054 211.021 132.105 210.748 132.105C210.268 132.105 209.888 131.975 209.61 131.714C209.334 131.454 209.197 131.124 209.197 130.726C209.197 130.462 209.26 130.228 209.386 130.022C209.512 129.814 209.688 129.656 209.913 129.548C210.142 129.437 210.47 129.34 210.897 129.258C211.475 129.149 211.875 129.048 212.097 128.955V128.832C212.097 128.594 212.039 128.426 211.921 128.326C211.804 128.224 211.583 128.172 211.258 128.172C211.038 128.172 210.867 128.216 210.744 128.304C210.621 128.389 210.521 128.54 210.445 128.757ZM212.097 129.759C211.939 129.812 211.688 129.875 211.346 129.948C211.003 130.021 210.779 130.093 210.673 130.163C210.512 130.277 210.432 130.422 210.432 130.598C210.432 130.771 210.496 130.92 210.625 131.046C210.754 131.172 210.918 131.235 211.117 131.235C211.34 131.235 211.552 131.162 211.754 131.016C211.904 130.904 212.002 130.768 212.049 130.607C212.081 130.501 212.097 130.301 212.097 130.005V129.759ZM214.439 127.333H215.578V127.97C215.985 127.475 216.47 127.228 217.032 127.228C217.331 127.228 217.59 127.289 217.81 127.412C218.03 127.535 218.21 127.721 218.351 127.97C218.556 127.721 218.777 127.535 219.014 127.412C219.251 127.289 219.505 127.228 219.774 127.228C220.117 127.228 220.407 127.298 220.645 127.438C220.882 127.576 221.059 127.78 221.176 128.049C221.261 128.249 221.304 128.571 221.304 129.016V132H220.069V129.333C220.069 128.87 220.026 128.571 219.941 128.436C219.827 128.26 219.651 128.172 219.414 128.172C219.241 128.172 219.079 128.225 218.926 128.331C218.774 128.436 218.664 128.591 218.597 128.796C218.529 128.999 218.496 129.319 218.496 129.759V132H217.261V129.442C217.261 128.988 217.239 128.695 217.195 128.563C217.151 128.432 217.082 128.333 216.988 128.269C216.897 128.205 216.773 128.172 216.615 128.172C216.424 128.172 216.253 128.224 216.101 128.326C215.948 128.429 215.838 128.577 215.771 128.77C215.707 128.963 215.674 129.284 215.674 129.732V132H214.439V127.333ZM226.502 132V126.647H224.591V125.558H229.71V126.647H227.803V132H226.502ZM230.748 132L229.271 127.333H230.471L231.345 130.392L232.149 127.333H233.34L234.118 130.392L235.01 127.333H236.228L234.729 132H233.542L232.738 128.999L231.947 132H230.748ZM236.597 129.601C236.597 129.19 236.698 128.793 236.9 128.41C237.102 128.026 237.388 127.733 237.757 127.531C238.129 127.329 238.543 127.228 239 127.228C239.707 127.228 240.285 127.458 240.736 127.917C241.188 128.375 241.413 128.953 241.413 129.653C241.413 130.359 241.185 130.945 240.728 131.411C240.273 131.874 239.701 132.105 239.009 132.105C238.582 132.105 238.173 132.009 237.783 131.815C237.396 131.622 237.102 131.339 236.9 130.967C236.698 130.592 236.597 130.137 236.597 129.601ZM237.862 129.667C237.862 130.129 237.972 130.484 238.192 130.73C238.412 130.976 238.683 131.099 239.005 131.099C239.327 131.099 239.597 130.976 239.813 130.73C240.033 130.484 240.143 130.126 240.143 129.658C240.143 129.201 240.033 128.849 239.813 128.603C239.597 128.357 239.327 128.234 239.005 128.234C238.683 128.234 238.412 128.357 238.192 128.603C237.972 128.849 237.862 129.204 237.862 129.667Z" fill="white"/>
</g>
<defs>
<filter id="filter0_d_5692_22" x="31" y="12" width="242" height="164" filterUnits="userSpaceOnUse" color-interpolation-filters="sRGB">
<feFlood flood-opacity="0" result="BackgroundImageFix"/>
<feColorMatrix in="SourceAlpha" type="matrix" values="0 0 0 0 0 0 0 0 0 0 0 0 0 0 0 0 0 0 127 0" result="hardAlpha"/>
<feOffset dy="4"/>
<feGaussianBlur stdDeviation="4"/>
<feComposite in2="hardAlpha" operator="out"/>
<feColorMatrix type="matrix" values="0 0 0 0 0.140618 0 0 0 0 0.201016 0 0 0 0 0.201016 0 0 0 0.1 0"/>
<feBlend mode="normal" in2="BackgroundImageFix" result="effect1_dropShadow_5692_22"/>
<feBlend mode="normal" in="SourceGraphic" in2="effect1_dropShadow_5692_22" result="shape"/>
</filter>
</defs>
</svg>
