<svg width="300" height="180" viewBox="0 0 300 180" fill="none" xmlns="http://www.w3.org/2000/svg">
<rect width="300" height="180" fill="white"/>
<rect x="60.25" y="141.25" width="115.5" height="15.5" rx="1.75" stroke="black" stroke-width="0.5"/>
<path d="M64.6094 152V146.273H65.3867L68.3945 150.77V146.273H69.1211V152H68.3438L65.3359 147.5V152H64.6094ZM73.0156 151.488C72.7552 151.71 72.5039 151.866 72.2617 151.957C72.0221 152.048 71.7643 152.094 71.4883 152.094C71.0326 152.094 70.6823 151.983 70.4375 151.762C70.1927 151.538 70.0703 151.253 70.0703 150.906C70.0703 150.703 70.1159 150.518 70.207 150.352C70.3008 150.182 70.4219 150.047 70.5703 149.945C70.7214 149.844 70.8906 149.767 71.0781 149.715C71.2161 149.678 71.4245 149.643 71.7031 149.609C72.2708 149.542 72.6888 149.461 72.957 149.367C72.9596 149.271 72.9609 149.21 72.9609 149.184C72.9609 148.897 72.8945 148.695 72.7617 148.578C72.582 148.419 72.3151 148.34 71.9609 148.34C71.6302 148.34 71.3854 148.398 71.2266 148.516C71.0703 148.63 70.9544 148.835 70.8789 149.129L70.1914 149.035C70.2539 148.741 70.3568 148.504 70.5 148.324C70.6432 148.142 70.8503 148.003 71.1211 147.906C71.3919 147.807 71.7057 147.758 72.0625 147.758C72.4167 147.758 72.7044 147.799 72.9258 147.883C73.1471 147.966 73.3099 148.072 73.4141 148.199C73.5182 148.324 73.5911 148.483 73.6328 148.676C73.6562 148.796 73.668 149.012 73.668 149.324V150.262C73.668 150.915 73.6823 151.329 73.7109 151.504C73.7422 151.676 73.8021 151.841 73.8906 152H73.1562C73.0833 151.854 73.0365 151.684 73.0156 151.488ZM72.957 149.918C72.7018 150.022 72.319 150.111 71.8086 150.184C71.5195 150.225 71.3151 150.272 71.1953 150.324C71.0755 150.376 70.9831 150.453 70.918 150.555C70.8529 150.654 70.8203 150.764 70.8203 150.887C70.8203 151.074 70.8906 151.23 71.0312 151.355C71.1745 151.48 71.3828 151.543 71.6562 151.543C71.9271 151.543 72.168 151.484 72.3789 151.367C72.5898 151.247 72.7448 151.085 72.8438 150.879C72.9193 150.72 72.957 150.486 72.957 150.176V149.918ZM74.7617 152V147.852H75.3906V148.434C75.5208 148.23 75.694 148.068 75.9102 147.945C76.1263 147.82 76.3724 147.758 76.6484 147.758C76.9557 147.758 77.207 147.822 77.4023 147.949C77.6003 148.077 77.7396 148.255 77.8203 148.484C78.1484 148 78.5755 147.758 79.1016 147.758C79.513 147.758 79.8294 147.872 80.0508 148.102C80.2721 148.328 80.3828 148.678 80.3828 149.152V152H79.6836V149.387C79.6836 149.105 79.6602 148.904 79.6133 148.781C79.569 148.656 79.487 148.556 79.3672 148.48C79.2474 148.405 79.1068 148.367 78.9453 148.367C78.6536 148.367 78.4115 148.465 78.2188 148.66C78.026 148.853 77.9297 149.163 77.9297 149.59V152H77.2266V149.305C77.2266 148.992 77.1693 148.758 77.0547 148.602C76.9401 148.445 76.7526 148.367 76.4922 148.367C76.2943 148.367 76.1107 148.419 75.9414 148.523C75.7747 148.628 75.6536 148.78 75.5781 148.98C75.5026 149.181 75.4648 149.47 75.4648 149.848V152H74.7617ZM84.2656 150.664L84.9922 150.754C84.8776 151.178 84.6654 151.508 84.3555 151.742C84.0456 151.977 83.6497 152.094 83.168 152.094C82.5612 152.094 82.0794 151.908 81.7227 151.535C81.3685 151.16 81.1914 150.635 81.1914 149.961C81.1914 149.263 81.3711 148.721 81.7305 148.336C82.0898 147.951 82.556 147.758 83.1289 147.758C83.6836 147.758 84.1367 147.947 84.4883 148.324C84.8398 148.702 85.0156 149.233 85.0156 149.918C85.0156 149.96 85.0143 150.022 85.0117 150.105H81.918C81.944 150.561 82.0729 150.91 82.3047 151.152C82.5365 151.395 82.8255 151.516 83.1719 151.516C83.4297 151.516 83.6497 151.448 83.832 151.312C84.0143 151.177 84.1589 150.961 84.2656 150.664ZM81.957 149.527H84.2734C84.2422 149.178 84.1536 148.917 84.0078 148.742C83.7839 148.471 83.4935 148.336 83.1367 148.336C82.8138 148.336 82.5417 148.444 82.3203 148.66C82.1016 148.876 81.9805 149.165 81.957 149.527Z" fill="#808080"/>
<rect x="223.25" y="141.25" width="16.5" height="15.5" rx="1.75" fill="#F0F0F0"/>
<rect x="223.25" y="141.25" width="16.5" height="15.5" rx="1.75" stroke="black" stroke-width="0.5"/>
<path d="M231.168 150.574V149.004H229.609V148.348H231.168V146.789H231.832V148.348H233.391V149.004H231.832V150.574H231.168Z" fill="black"/>
<path d="M61.8711 27V22.2422H60.1719V21.2734H64.7227V22.2422H63.0273V27H61.8711ZM67.6016 27V26.3789C67.4505 26.6003 67.2513 26.7747 67.0039 26.9023C66.7591 27.0299 66.5 27.0938 66.2266 27.0938C65.9479 27.0938 65.6979 27.0326 65.4766 26.9102C65.2552 26.7878 65.0951 26.6159 64.9961 26.3945C64.8971 26.1732 64.8477 25.8672 64.8477 25.4766V22.8516H65.9453V24.7578C65.9453 25.3411 65.9648 25.6992 66.0039 25.832C66.0456 25.9622 66.1198 26.0664 66.2266 26.1445C66.3333 26.2201 66.4688 26.2578 66.6328 26.2578C66.8203 26.2578 66.9883 26.207 67.1367 26.1055C67.2852 26.0013 67.3867 25.8737 67.4414 25.7227C67.4961 25.569 67.5234 25.1953 67.5234 24.6016V22.8516H68.6211V27H67.6016ZM72.1641 25.6797L73.2578 25.8633C73.1172 26.2643 72.8945 26.5703 72.5898 26.7812C72.2878 26.9896 71.9089 27.0938 71.4531 27.0938C70.7318 27.0938 70.1979 26.8581 69.8516 26.3867C69.5781 26.0091 69.4414 25.5326 69.4414 24.957C69.4414 24.2695 69.6211 23.7318 69.9805 23.3438C70.3398 22.9531 70.7943 22.7578 71.3438 22.7578C71.9609 22.7578 72.4479 22.9622 72.8047 23.3711C73.1615 23.7773 73.332 24.401 73.3164 25.2422H70.5664C70.5742 25.5677 70.6628 25.8216 70.832 26.0039C71.0013 26.1836 71.2122 26.2734 71.4648 26.2734C71.6367 26.2734 71.7812 26.2266 71.8984 26.1328C72.0156 26.0391 72.1042 25.888 72.1641 25.6797ZM72.2266 24.5703C72.2188 24.2526 72.1367 24.0117 71.9805 23.8477C71.8242 23.681 71.6341 23.5977 71.4102 23.5977C71.1706 23.5977 70.9727 23.6849 70.8164 23.8594C70.6602 24.0339 70.5833 24.2708 70.5859 24.5703H72.2266ZM73.8281 25.8164L74.9297 25.6484C74.9766 25.862 75.0716 26.0247 75.2148 26.1367C75.3581 26.2461 75.5586 26.3008 75.8164 26.3008C76.1003 26.3008 76.3138 26.2487 76.457 26.1445C76.5534 26.0716 76.6016 25.974 76.6016 25.8516C76.6016 25.7682 76.5755 25.6992 76.5234 25.6445C76.4688 25.5924 76.3464 25.5443 76.1562 25.5C75.2708 25.3047 74.7096 25.1263 74.4727 24.9648C74.1445 24.7409 73.9805 24.4297 73.9805 24.0312C73.9805 23.6719 74.1224 23.3698 74.4062 23.125C74.6901 22.8802 75.1302 22.7578 75.7266 22.7578C76.2943 22.7578 76.7161 22.8503 76.9922 23.0352C77.2682 23.2201 77.4583 23.4935 77.5625 23.8555L76.5273 24.0469C76.4831 23.8854 76.3984 23.7617 76.2734 23.6758C76.151 23.5898 75.9753 23.5469 75.7461 23.5469C75.457 23.5469 75.25 23.5872 75.125 23.668C75.0417 23.7253 75 23.7995 75 23.8906C75 23.9688 75.0365 24.0352 75.1094 24.0898C75.2083 24.1628 75.5495 24.2656 76.1328 24.3984C76.7188 24.5312 77.1276 24.694 77.3594 24.8867C77.5885 25.082 77.7031 25.3542 77.7031 25.7031C77.7031 26.0833 77.5443 26.4102 77.2266 26.6836C76.9089 26.957 76.4388 27.0938 75.8164 27.0938C75.2513 27.0938 74.8034 26.9792 74.4727 26.75C74.1445 26.5208 73.9297 26.2096 73.8281 25.8164ZM82.4727 27H81.4531V26.3906C81.2839 26.6276 81.0833 26.8047 80.8516 26.9219C80.6224 27.0365 80.3906 27.0938 80.1562 27.0938C79.6797 27.0938 79.2708 26.9023 78.9297 26.5195C78.5911 26.1341 78.4219 25.5977 78.4219 24.9102C78.4219 24.207 78.5872 23.6732 78.918 23.3086C79.2487 22.9414 79.6667 22.7578 80.1719 22.7578C80.6354 22.7578 81.0365 22.9505 81.375 23.3359V21.2734H82.4727V27ZM79.543 24.8359C79.543 25.2786 79.6042 25.599 79.7266 25.7969C79.9036 26.0833 80.151 26.2266 80.4688 26.2266C80.7214 26.2266 80.9362 26.1198 81.1133 25.9062C81.2904 25.6901 81.3789 25.3685 81.3789 24.9414C81.3789 24.4648 81.293 24.1224 81.1211 23.9141C80.9492 23.7031 80.7292 23.5977 80.4609 23.5977C80.2005 23.5977 79.9818 23.7018 79.8047 23.9102C79.6302 24.1159 79.543 24.4245 79.543 24.8359ZM84.3789 24.1172L83.3828 23.9375C83.4948 23.5365 83.6875 23.2396 83.9609 23.0469C84.2344 22.8542 84.6406 22.7578 85.1797 22.7578C85.6693 22.7578 86.0339 22.8164 86.2734 22.9336C86.513 23.0482 86.681 23.1953 86.7773 23.375C86.8763 23.5521 86.9258 23.8789 86.9258 24.3555L86.9141 25.6367C86.9141 26.0013 86.931 26.2708 86.9648 26.4453C87.0013 26.6172 87.0677 26.8021 87.1641 27H86.0781C86.0495 26.9271 86.0143 26.819 85.9727 26.6758C85.9544 26.6107 85.9414 26.5677 85.9336 26.5469C85.7461 26.7292 85.5456 26.8659 85.332 26.957C85.1185 27.0482 84.8906 27.0938 84.6484 27.0938C84.2214 27.0938 83.8841 26.9779 83.6367 26.7461C83.3919 26.5143 83.2695 26.2214 83.2695 25.8672C83.2695 25.6328 83.3255 25.4245 83.4375 25.2422C83.5495 25.0573 83.7057 24.9167 83.9062 24.8203C84.1094 24.7214 84.401 24.6354 84.7812 24.5625C85.2943 24.4661 85.6497 24.3763 85.8477 24.293V24.1836C85.8477 23.9727 85.7956 23.8229 85.6914 23.7344C85.5872 23.6432 85.3906 23.5977 85.1016 23.5977C84.9062 23.5977 84.7539 23.6367 84.6445 23.7148C84.5352 23.7904 84.4466 23.9245 84.3789 24.1172ZM85.8477 25.0078C85.707 25.0547 85.4844 25.1107 85.1797 25.1758C84.875 25.2409 84.6758 25.3047 84.582 25.3672C84.4388 25.4688 84.3672 25.5977 84.3672 25.7539C84.3672 25.9076 84.4245 26.0404 84.5391 26.1523C84.6536 26.2643 84.7995 26.3203 84.9766 26.3203C85.1745 26.3203 85.3633 26.2552 85.543 26.125C85.6758 26.026 85.763 25.9049 85.8047 25.7617C85.8333 25.668 85.8477 25.4896 85.8477 25.2266V25.0078ZM87.4922 22.8516H88.6602L89.6523 25.7969L90.6211 22.8516H91.7578L90.293 26.8438L90.0312 27.5664C89.9349 27.8086 89.8424 27.9935 89.7539 28.1211C89.668 28.2487 89.5677 28.3516 89.4531 28.4297C89.3411 28.5104 89.2018 28.5729 89.0352 28.6172C88.8711 28.6615 88.6849 28.6836 88.4766 28.6836C88.2656 28.6836 88.0586 28.6615 87.8555 28.6172L87.7578 27.7578C87.9297 27.7917 88.0846 27.8086 88.2227 27.8086C88.4779 27.8086 88.6667 27.7331 88.7891 27.582C88.9115 27.4336 89.0052 27.2435 89.0703 27.0117L87.4922 22.8516Z" fill="black"/>
<path d="M65.0234 41.1953C65.0234 40.9219 65.1198 40.6888 65.3125 40.4961C65.5078 40.3034 65.7409 40.207 66.0117 40.207C66.2852 40.207 66.5182 40.3034 66.7109 40.4961C66.9062 40.6888 67.0039 40.9219 67.0039 41.1953C67.0039 41.4688 66.9062 41.7031 66.7109 41.8984C66.5182 42.0911 66.2852 42.1875 66.0117 42.1875C65.7409 42.1875 65.5078 42.0911 65.3125 41.8984C65.1198 41.7031 65.0234 41.4688 65.0234 41.1953ZM72.2656 41.9258C72.2656 41.1576 72.4792 40.5885 72.9062 40.2188C73.263 39.9115 73.6979 39.7578 74.2109 39.7578C74.7812 39.7578 75.2474 39.9453 75.6094 40.3203C75.9714 40.6927 76.1523 41.2083 76.1523 41.8672C76.1523 42.401 76.0716 42.8216 75.9102 43.1289C75.7513 43.4336 75.5182 43.6706 75.2109 43.8398C74.9062 44.0091 74.5729 44.0938 74.2109 44.0938C73.6302 44.0938 73.1602 43.9076 72.8008 43.5352C72.444 43.1628 72.2656 42.6263 72.2656 41.9258ZM72.9883 41.9258C72.9883 42.457 73.1042 42.8555 73.3359 43.1211C73.5677 43.3841 73.8594 43.5156 74.2109 43.5156C74.5599 43.5156 74.8503 43.3828 75.082 43.1172C75.3138 42.8516 75.4297 42.4466 75.4297 41.9023C75.4297 41.3893 75.3125 41.0013 75.0781 40.7383C74.8464 40.4727 74.5573 40.3398 74.2109 40.3398C73.8594 40.3398 73.5677 40.4714 73.3359 40.7344C73.1042 40.9974 72.9883 41.3945 72.9883 41.9258ZM76.9805 45.5898V39.8516H77.6211V40.3906C77.7721 40.1797 77.9427 40.0221 78.1328 39.918C78.3229 39.8112 78.5534 39.7578 78.8242 39.7578C79.1784 39.7578 79.4909 39.849 79.7617 40.0312C80.0326 40.2135 80.237 40.4714 80.375 40.8047C80.513 41.1354 80.582 41.4987 80.582 41.8945C80.582 42.319 80.5052 42.7018 80.3516 43.043C80.2005 43.3815 79.9792 43.6419 79.6875 43.8242C79.3984 44.0039 79.0938 44.0938 78.7734 44.0938C78.5391 44.0938 78.3281 44.0443 78.1406 43.9453C77.9557 43.8464 77.8034 43.7214 77.6836 43.5703V45.5898H76.9805ZM77.6172 41.9492C77.6172 42.4831 77.7253 42.8776 77.9414 43.1328C78.1576 43.388 78.4193 43.5156 78.7266 43.5156C79.0391 43.5156 79.306 43.3841 79.5273 43.1211C79.7513 42.8555 79.8633 42.4453 79.8633 41.8906C79.8633 41.362 79.7539 40.9661 79.5352 40.7031C79.319 40.4401 79.0599 40.3086 78.7578 40.3086C78.4583 40.3086 78.1927 40.4492 77.9609 40.7305C77.7318 41.0091 77.6172 41.4154 77.6172 41.9492ZM84.2734 42.6641L85 42.7539C84.8854 43.1784 84.6732 43.5078 84.3633 43.7422C84.0534 43.9766 83.6576 44.0938 83.1758 44.0938C82.569 44.0938 82.0872 43.9076 81.7305 43.5352C81.3763 43.1602 81.1992 42.6354 81.1992 41.9609C81.1992 41.263 81.3789 40.7214 81.7383 40.3359C82.0977 39.9505 82.5638 39.7578 83.1367 39.7578C83.6914 39.7578 84.1445 39.9466 84.4961 40.3242C84.8477 40.7018 85.0234 41.2331 85.0234 41.918C85.0234 41.9596 85.0221 42.0221 85.0195 42.1055H81.9258C81.9518 42.5612 82.0807 42.9102 82.3125 43.1523C82.5443 43.3945 82.8333 43.5156 83.1797 43.5156C83.4375 43.5156 83.6576 43.4479 83.8398 43.3125C84.0221 43.1771 84.1667 42.9609 84.2734 42.6641ZM81.9648 41.5273H84.2812C84.25 41.1784 84.1615 40.9167 84.0156 40.7422C83.7917 40.4714 83.5013 40.3359 83.1445 40.3359C82.8216 40.3359 82.5495 40.444 82.3281 40.6602C82.1094 40.8763 81.9883 41.1654 81.9648 41.5273ZM85.8867 44V39.8516H86.5195V40.4414C86.8242 39.9857 87.2643 39.7578 87.8398 39.7578C88.0898 39.7578 88.319 39.8034 88.5273 39.8945C88.7383 39.9831 88.8958 40.1003 89 40.2461C89.1042 40.3919 89.1771 40.5651 89.2188 40.7656C89.2448 40.8958 89.2578 41.1237 89.2578 41.4492V44H88.5547V41.4766C88.5547 41.1901 88.5273 40.9766 88.4727 40.8359C88.418 40.6927 88.3203 40.5794 88.1797 40.4961C88.0417 40.4102 87.8789 40.3672 87.6914 40.3672C87.3919 40.3672 87.1328 40.4622 86.9141 40.6523C86.6979 40.8424 86.5898 41.2031 86.5898 41.7344V44H85.8867ZM65.0234 53.1953C65.0234 52.9219 65.1198 52.6888 65.3125 52.4961C65.5078 52.3034 65.7409 52.207 66.0117 52.207C66.2852 52.207 66.5182 52.3034 66.7109 52.4961C66.9062 52.6888 67.0039 52.9219 67.0039 53.1953C67.0039 53.4688 66.9062 53.7031 66.7109 53.8984C66.5182 54.0911 66.2852 54.1875 66.0117 54.1875C65.7409 54.1875 65.5078 54.0911 65.3125 53.8984C65.1198 53.7031 65.0234 53.4688 65.0234 53.1953ZM72.2656 53.9258C72.2656 53.1576 72.4792 52.5885 72.9062 52.2188C73.263 51.9115 73.6979 51.7578 74.2109 51.7578C74.7812 51.7578 75.2474 51.9453 75.6094 52.3203C75.9714 52.6927 76.1523 53.2083 76.1523 53.8672C76.1523 54.401 76.0716 54.8216 75.9102 55.1289C75.7513 55.4336 75.5182 55.6706 75.2109 55.8398C74.9062 56.0091 74.5729 56.0938 74.2109 56.0938C73.6302 56.0938 73.1602 55.9076 72.8008 55.5352C72.444 55.1628 72.2656 54.6263 72.2656 53.9258ZM72.9883 53.9258C72.9883 54.457 73.1042 54.8555 73.3359 55.1211C73.5677 55.3841 73.8594 55.5156 74.2109 55.5156C74.5599 55.5156 74.8503 55.3828 75.082 55.1172C75.3138 54.8516 75.4297 54.4466 75.4297 53.9023C75.4297 53.3893 75.3125 53.0013 75.0781 52.7383C74.8464 52.4727 74.5573 52.3398 74.2109 52.3398C73.8594 52.3398 73.5677 52.4714 73.3359 52.7344C73.1042 52.9974 72.9883 53.3945 72.9883 53.9258ZM76.9805 57.5898V51.8516H77.6211V52.3906C77.7721 52.1797 77.9427 52.0221 78.1328 51.918C78.3229 51.8112 78.5534 51.7578 78.8242 51.7578C79.1784 51.7578 79.4909 51.849 79.7617 52.0312C80.0326 52.2135 80.237 52.4714 80.375 52.8047C80.513 53.1354 80.582 53.4987 80.582 53.8945C80.582 54.319 80.5052 54.7018 80.3516 55.043C80.2005 55.3815 79.9792 55.6419 79.6875 55.8242C79.3984 56.0039 79.0938 56.0938 78.7734 56.0938C78.5391 56.0938 78.3281 56.0443 78.1406 55.9453C77.9557 55.8464 77.8034 55.7214 77.6836 55.5703V57.5898H76.9805ZM77.6172 53.9492C77.6172 54.4831 77.7253 54.8776 77.9414 55.1328C78.1576 55.388 78.4193 55.5156 78.7266 55.5156C79.0391 55.5156 79.306 55.3841 79.5273 55.1211C79.7513 54.8555 79.8633 54.4453 79.8633 53.8906C79.8633 53.362 79.7539 52.9661 79.5352 52.7031C79.319 52.4401 79.0599 52.3086 78.7578 52.3086C78.4583 52.3086 78.1927 52.4492 77.9609 52.7305C77.7318 53.0091 77.6172 53.4154 77.6172 53.9492ZM84.2734 54.6641L85 54.7539C84.8854 55.1784 84.6732 55.5078 84.3633 55.7422C84.0534 55.9766 83.6576 56.0938 83.1758 56.0938C82.569 56.0938 82.0872 55.9076 81.7305 55.5352C81.3763 55.1602 81.1992 54.6354 81.1992 53.9609C81.1992 53.263 81.3789 52.7214 81.7383 52.3359C82.0977 51.9505 82.5638 51.7578 83.1367 51.7578C83.6914 51.7578 84.1445 51.9466 84.4961 52.3242C84.8477 52.7018 85.0234 53.2331 85.0234 53.918C85.0234 53.9596 85.0221 54.0221 85.0195 54.1055H81.9258C81.9518 54.5612 82.0807 54.9102 82.3125 55.1523C82.5443 55.3945 82.8333 55.5156 83.1797 55.5156C83.4375 55.5156 83.6576 55.4479 83.8398 55.3125C84.0221 55.1771 84.1667 54.9609 84.2734 54.6641ZM81.9648 53.5273H84.2812C84.25 53.1784 84.1615 52.9167 84.0156 52.7422C83.7917 52.4714 83.5013 52.3359 83.1445 52.3359C82.8216 52.3359 82.5495 52.444 82.3281 52.6602C82.1094 52.8763 81.9883 53.1654 81.9648 53.5273ZM85.8867 56V51.8516H86.5195V52.4414C86.8242 51.9857 87.2643 51.7578 87.8398 51.7578C88.0898 51.7578 88.319 51.8034 88.5273 51.8945C88.7383 51.9831 88.8958 52.1003 89 52.2461C89.1042 52.3919 89.1771 52.5651 89.2188 52.7656C89.2448 52.8958 89.2578 53.1237 89.2578 53.4492V56H88.5547V53.4766C88.5547 53.1901 88.5273 52.9766 88.4727 52.8359C88.418 52.6927 88.3203 52.5794 88.1797 52.4961C88.0417 52.4102 87.8789 52.3672 87.6914 52.3672C87.3919 52.3672 87.1328 52.4622 86.9141 52.6523C86.6979 52.8424 86.5898 53.2031 86.5898 53.7344V56H85.8867Z" fill="black"/>
<path d="M61.3945 78L60.0273 72.2734H61.2109L62.0742 76.207L63.1211 72.2734H64.4961L65.5 76.2734L66.3789 72.2734H67.543L66.1523 78H64.9258L63.7852 73.7188L62.6484 78H61.3945ZM70.3828 76.6797L71.4766 76.8633C71.3359 77.2643 71.1133 77.5703 70.8086 77.7812C70.5065 77.9896 70.1276 78.0938 69.6719 78.0938C68.9505 78.0938 68.4167 77.8581 68.0703 77.3867C67.7969 77.0091 67.6602 76.5326 67.6602 75.957C67.6602 75.2695 67.8398 74.7318 68.1992 74.3438C68.5586 73.9531 69.013 73.7578 69.5625 73.7578C70.1797 73.7578 70.6667 73.9622 71.0234 74.3711C71.3802 74.7773 71.5508 75.401 71.5352 76.2422H68.7852C68.793 76.5677 68.8815 76.8216 69.0508 77.0039C69.2201 77.1836 69.431 77.2734 69.6836 77.2734C69.8555 77.2734 70 77.2266 70.1172 77.1328C70.2344 77.0391 70.3229 76.888 70.3828 76.6797ZM70.4453 75.5703C70.4375 75.2526 70.3555 75.0117 70.1992 74.8477C70.043 74.681 69.8529 74.5977 69.6289 74.5977C69.3893 74.5977 69.1914 74.6849 69.0352 74.8594C68.8789 75.0339 68.8021 75.2708 68.8047 75.5703H70.4453ZM76.2383 78H75.2188V77.3906C75.0495 77.6276 74.849 77.8047 74.6172 77.9219C74.388 78.0365 74.1562 78.0938 73.9219 78.0938C73.4453 78.0938 73.0365 77.9023 72.6953 77.5195C72.3568 77.1341 72.1875 76.5977 72.1875 75.9102C72.1875 75.207 72.3529 74.6732 72.6836 74.3086C73.0143 73.9414 73.4323 73.7578 73.9375 73.7578C74.401 73.7578 74.8021 73.9505 75.1406 74.3359V72.2734H76.2383V78ZM73.3086 75.8359C73.3086 76.2786 73.3698 76.599 73.4922 76.7969C73.6693 77.0833 73.9167 77.2266 74.2344 77.2266C74.487 77.2266 74.7018 77.1198 74.8789 76.9062C75.056 76.6901 75.1445 76.3685 75.1445 75.9414C75.1445 75.4648 75.0586 75.1224 74.8867 74.9141C74.7148 74.7031 74.4948 74.5977 74.2266 74.5977C73.9661 74.5977 73.7474 74.7018 73.5703 74.9102C73.3958 75.1159 73.3086 75.4245 73.3086 75.8359ZM81.0977 78H80V75.8828C80 75.4349 79.9766 75.1458 79.9297 75.0156C79.8828 74.8828 79.806 74.7799 79.6992 74.707C79.5951 74.6341 79.4688 74.5977 79.3203 74.5977C79.1302 74.5977 78.9596 74.6497 78.8086 74.7539C78.6576 74.8581 78.5534 74.9961 78.4961 75.168C78.4414 75.3398 78.4141 75.6576 78.4141 76.1211V78H77.3164V73.8516H78.3359V74.4609C78.6979 73.9922 79.1536 73.7578 79.7031 73.7578C79.9453 73.7578 80.1667 73.8021 80.3672 73.8906C80.5677 73.9766 80.7188 74.0872 80.8203 74.2227C80.9245 74.3581 80.9961 74.5117 81.0352 74.6836C81.0768 74.8555 81.0977 75.1016 81.0977 75.4219V78ZM84.6172 76.6797L85.7109 76.8633C85.5703 77.2643 85.3477 77.5703 85.043 77.7812C84.7409 77.9896 84.362 78.0938 83.9062 78.0938C83.1849 78.0938 82.651 77.8581 82.3047 77.3867C82.0312 77.0091 81.8945 76.5326 81.8945 75.957C81.8945 75.2695 82.0742 74.7318 82.4336 74.3438C82.793 73.9531 83.2474 73.7578 83.7969 73.7578C84.4141 73.7578 84.901 73.9622 85.2578 74.3711C85.6146 74.7773 85.7852 75.401 85.7695 76.2422H83.0195C83.0273 76.5677 83.1159 76.8216 83.2852 77.0039C83.4544 77.1836 83.6654 77.2734 83.918 77.2734C84.0898 77.2734 84.2344 77.2266 84.3516 77.1328C84.4688 77.0391 84.5573 76.888 84.6172 76.6797ZM84.6797 75.5703C84.6719 75.2526 84.5898 75.0117 84.4336 74.8477C84.2773 74.681 84.0872 74.5977 83.8633 74.5977C83.6237 74.5977 83.4258 74.6849 83.2695 74.8594C83.1133 75.0339 83.0365 75.2708 83.0391 75.5703H84.6797ZM86.2812 76.8164L87.3828 76.6484C87.4297 76.862 87.5247 77.0247 87.668 77.1367C87.8112 77.2461 88.0117 77.3008 88.2695 77.3008C88.5534 77.3008 88.7669 77.2487 88.9102 77.1445C89.0065 77.0716 89.0547 76.974 89.0547 76.8516C89.0547 76.7682 89.0286 76.6992 88.9766 76.6445C88.9219 76.5924 88.7995 76.5443 88.6094 76.5C87.724 76.3047 87.1628 76.1263 86.9258 75.9648C86.5977 75.7409 86.4336 75.4297 86.4336 75.0312C86.4336 74.6719 86.5755 74.3698 86.8594 74.125C87.1432 73.8802 87.5833 73.7578 88.1797 73.7578C88.7474 73.7578 89.1693 73.8503 89.4453 74.0352C89.7214 74.2201 89.9115 74.4935 90.0156 74.8555L88.9805 75.0469C88.9362 74.8854 88.8516 74.7617 88.7266 74.6758C88.6042 74.5898 88.4284 74.5469 88.1992 74.5469C87.9102 74.5469 87.7031 74.5872 87.5781 74.668C87.4948 74.7253 87.4531 74.7995 87.4531 74.8906C87.4531 74.9688 87.4896 75.0352 87.5625 75.0898C87.6615 75.1628 88.0026 75.2656 88.5859 75.3984C89.1719 75.5312 89.5807 75.694 89.8125 75.8867C90.0417 76.082 90.1562 76.3542 90.1562 76.7031C90.1562 77.0833 89.9974 77.4102 89.6797 77.6836C89.362 77.957 88.8919 78.0938 88.2695 78.0938C87.7044 78.0938 87.2565 77.9792 86.9258 77.75C86.5977 77.5208 86.3828 77.2096 86.2812 76.8164ZM94.9258 78H93.9062V77.3906C93.737 77.6276 93.5365 77.8047 93.3047 77.9219C93.0755 78.0365 92.8438 78.0938 92.6094 78.0938C92.1328 78.0938 91.724 77.9023 91.3828 77.5195C91.0443 77.1341 90.875 76.5977 90.875 75.9102C90.875 75.207 91.0404 74.6732 91.3711 74.3086C91.7018 73.9414 92.1198 73.7578 92.625 73.7578C93.0885 73.7578 93.4896 73.9505 93.8281 74.3359V72.2734H94.9258V78ZM91.9961 75.8359C91.9961 76.2786 92.0573 76.599 92.1797 76.7969C92.3568 77.0833 92.6042 77.2266 92.9219 77.2266C93.1745 77.2266 93.3893 77.1198 93.5664 76.9062C93.7435 76.6901 93.832 76.3685 93.832 75.9414C93.832 75.4648 93.7461 75.1224 93.5742 74.9141C93.4023 74.7031 93.1823 74.5977 92.9141 74.5977C92.6536 74.5977 92.4349 74.7018 92.2578 74.9102C92.0833 75.1159 91.9961 75.4245 91.9961 75.8359ZM96.832 75.1172L95.8359 74.9375C95.9479 74.5365 96.1406 74.2396 96.4141 74.0469C96.6875 73.8542 97.0938 73.7578 97.6328 73.7578C98.1224 73.7578 98.487 73.8164 98.7266 73.9336C98.9661 74.0482 99.1341 74.1953 99.2305 74.375C99.3294 74.5521 99.3789 74.8789 99.3789 75.3555L99.3672 76.6367C99.3672 77.0013 99.3841 77.2708 99.418 77.4453C99.4544 77.6172 99.5208 77.8021 99.6172 78H98.5312C98.5026 77.9271 98.4674 77.819 98.4258 77.6758C98.4076 77.6107 98.3945 77.5677 98.3867 77.5469C98.1992 77.7292 97.9987 77.8659 97.7852 77.957C97.5716 78.0482 97.3438 78.0938 97.1016 78.0938C96.6745 78.0938 96.3372 77.9779 96.0898 77.7461C95.8451 77.5143 95.7227 77.2214 95.7227 76.8672C95.7227 76.6328 95.7786 76.4245 95.8906 76.2422C96.0026 76.0573 96.1589 75.9167 96.3594 75.8203C96.5625 75.7214 96.8542 75.6354 97.2344 75.5625C97.7474 75.4661 98.1029 75.3763 98.3008 75.293V75.1836C98.3008 74.9727 98.2487 74.8229 98.1445 74.7344C98.0404 74.6432 97.8438 74.5977 97.5547 74.5977C97.3594 74.5977 97.207 74.6367 97.0977 74.7148C96.9883 74.7904 96.8997 74.9245 96.832 75.1172ZM98.3008 76.0078C98.1602 76.0547 97.9375 76.1107 97.6328 76.1758C97.3281 76.2409 97.1289 76.3047 97.0352 76.3672C96.8919 76.4688 96.8203 76.5977 96.8203 76.7539C96.8203 76.9076 96.8776 77.0404 96.9922 77.1523C97.1068 77.2643 97.2526 77.3203 97.4297 77.3203C97.6276 77.3203 97.8164 77.2552 97.9961 77.125C98.1289 77.026 98.2161 76.9049 98.2578 76.7617C98.2865 76.668 98.3008 76.4896 98.3008 76.2266V76.0078ZM99.9453 73.8516H101.113L102.105 76.7969L103.074 73.8516H104.211L102.746 77.8438L102.484 78.5664C102.388 78.8086 102.296 78.9935 102.207 79.1211C102.121 79.2487 102.021 79.3516 101.906 79.4297C101.794 79.5104 101.655 79.5729 101.488 79.6172C101.324 79.6615 101.138 79.6836 100.93 79.6836C100.719 79.6836 100.512 79.6615 100.309 79.6172L100.211 78.7578C100.383 78.7917 100.538 78.8086 100.676 78.8086C100.931 78.8086 101.12 78.7331 101.242 78.582C101.365 78.4336 101.458 78.2435 101.523 78.0117L99.9453 73.8516Z" fill="black"/>
<path d="M65.0234 92.1953C65.0234 91.9219 65.1198 91.6888 65.3125 91.4961C65.5078 91.3034 65.7409 91.207 66.0117 91.207C66.2852 91.207 66.5182 91.3034 66.7109 91.4961C66.9062 91.6888 67.0039 91.9219 67.0039 92.1953C67.0039 92.4688 66.9062 92.7031 66.7109 92.8984C66.5182 93.0911 66.2852 93.1875 66.0117 93.1875C65.7409 93.1875 65.5078 93.0911 65.3125 92.8984C65.1198 92.7031 65.0234 92.4688 65.0234 92.1953ZM72.2656 92.9258C72.2656 92.1576 72.4792 91.5885 72.9062 91.2188C73.263 90.9115 73.6979 90.7578 74.2109 90.7578C74.7812 90.7578 75.2474 90.9453 75.6094 91.3203C75.9714 91.6927 76.1523 92.2083 76.1523 92.8672C76.1523 93.401 76.0716 93.8216 75.9102 94.1289C75.7513 94.4336 75.5182 94.6706 75.2109 94.8398C74.9062 95.0091 74.5729 95.0938 74.2109 95.0938C73.6302 95.0938 73.1602 94.9076 72.8008 94.5352C72.444 94.1628 72.2656 93.6263 72.2656 92.9258ZM72.9883 92.9258C72.9883 93.457 73.1042 93.8555 73.3359 94.1211C73.5677 94.3841 73.8594 94.5156 74.2109 94.5156C74.5599 94.5156 74.8503 94.3828 75.082 94.1172C75.3138 93.8516 75.4297 93.4466 75.4297 92.9023C75.4297 92.3893 75.3125 92.0013 75.0781 91.7383C74.8464 91.4727 74.5573 91.3398 74.2109 91.3398C73.8594 91.3398 73.5677 91.4714 73.3359 91.7344C73.1042 91.9974 72.9883 92.3945 72.9883 92.9258ZM76.9805 96.5898V90.8516H77.6211V91.3906C77.7721 91.1797 77.9427 91.0221 78.1328 90.918C78.3229 90.8112 78.5534 90.7578 78.8242 90.7578C79.1784 90.7578 79.4909 90.849 79.7617 91.0312C80.0326 91.2135 80.237 91.4714 80.375 91.8047C80.513 92.1354 80.582 92.4987 80.582 92.8945C80.582 93.319 80.5052 93.7018 80.3516 94.043C80.2005 94.3815 79.9792 94.6419 79.6875 94.8242C79.3984 95.0039 79.0938 95.0938 78.7734 95.0938C78.5391 95.0938 78.3281 95.0443 78.1406 94.9453C77.9557 94.8464 77.8034 94.7214 77.6836 94.5703V96.5898H76.9805ZM77.6172 92.9492C77.6172 93.4831 77.7253 93.8776 77.9414 94.1328C78.1576 94.388 78.4193 94.5156 78.7266 94.5156C79.0391 94.5156 79.306 94.3841 79.5273 94.1211C79.7513 93.8555 79.8633 93.4453 79.8633 92.8906C79.8633 92.362 79.7539 91.9661 79.5352 91.7031C79.319 91.4401 79.0599 91.3086 78.7578 91.3086C78.4583 91.3086 78.1927 91.4492 77.9609 91.7305C77.7318 92.0091 77.6172 92.4154 77.6172 92.9492ZM84.2734 93.6641L85 93.7539C84.8854 94.1784 84.6732 94.5078 84.3633 94.7422C84.0534 94.9766 83.6576 95.0938 83.1758 95.0938C82.569 95.0938 82.0872 94.9076 81.7305 94.5352C81.3763 94.1602 81.1992 93.6354 81.1992 92.9609C81.1992 92.263 81.3789 91.7214 81.7383 91.3359C82.0977 90.9505 82.5638 90.7578 83.1367 90.7578C83.6914 90.7578 84.1445 90.9466 84.4961 91.3242C84.8477 91.7018 85.0234 92.2331 85.0234 92.918C85.0234 92.9596 85.0221 93.0221 85.0195 93.1055H81.9258C81.9518 93.5612 82.0807 93.9102 82.3125 94.1523C82.5443 94.3945 82.8333 94.5156 83.1797 94.5156C83.4375 94.5156 83.6576 94.4479 83.8398 94.3125C84.0221 94.1771 84.1667 93.9609 84.2734 93.6641ZM81.9648 92.5273H84.2812C84.25 92.1784 84.1615 91.9167 84.0156 91.7422C83.7917 91.4714 83.5013 91.3359 83.1445 91.3359C82.8216 91.3359 82.5495 91.444 82.3281 91.6602C82.1094 91.8763 81.9883 92.1654 81.9648 92.5273ZM85.8867 95V90.8516H86.5195V91.4414C86.8242 90.9857 87.2643 90.7578 87.8398 90.7578C88.0898 90.7578 88.319 90.8034 88.5273 90.8945C88.7383 90.9831 88.8958 91.1003 89 91.2461C89.1042 91.3919 89.1771 91.5651 89.2188 91.7656C89.2448 91.8958 89.2578 92.1237 89.2578 92.4492V95H88.5547V92.4766C88.5547 92.1901 88.5273 91.9766 88.4727 91.8359C88.418 91.6927 88.3203 91.5794 88.1797 91.4961C88.0417 91.4102 87.8789 91.3672 87.6914 91.3672C87.3919 91.3672 87.1328 91.4622 86.9141 91.6523C86.6979 91.8424 86.5898 92.2031 86.5898 92.7344V95H85.8867ZM65.0234 104.195C65.0234 103.922 65.1198 103.689 65.3125 103.496C65.5078 103.303 65.7409 103.207 66.0117 103.207C66.2852 103.207 66.5182 103.303 66.7109 103.496C66.9062 103.689 67.0039 103.922 67.0039 104.195C67.0039 104.469 66.9062 104.703 66.7109 104.898C66.5182 105.091 66.2852 105.188 66.0117 105.188C65.7409 105.188 65.5078 105.091 65.3125 104.898C65.1198 104.703 65.0234 104.469 65.0234 104.195ZM72.2656 104.926C72.2656 104.158 72.4792 103.589 72.9062 103.219C73.263 102.911 73.6979 102.758 74.2109 102.758C74.7812 102.758 75.2474 102.945 75.6094 103.32C75.9714 103.693 76.1523 104.208 76.1523 104.867C76.1523 105.401 76.0716 105.822 75.9102 106.129C75.7513 106.434 75.5182 106.671 75.2109 106.84C74.9062 107.009 74.5729 107.094 74.2109 107.094C73.6302 107.094 73.1602 106.908 72.8008 106.535C72.444 106.163 72.2656 105.626 72.2656 104.926ZM72.9883 104.926C72.9883 105.457 73.1042 105.855 73.3359 106.121C73.5677 106.384 73.8594 106.516 74.2109 106.516C74.5599 106.516 74.8503 106.383 75.082 106.117C75.3138 105.852 75.4297 105.447 75.4297 104.902C75.4297 104.389 75.3125 104.001 75.0781 103.738C74.8464 103.473 74.5573 103.34 74.2109 103.34C73.8594 103.34 73.5677 103.471 73.3359 103.734C73.1042 103.997 72.9883 104.395 72.9883 104.926ZM76.9805 108.59V102.852H77.6211V103.391C77.7721 103.18 77.9427 103.022 78.1328 102.918C78.3229 102.811 78.5534 102.758 78.8242 102.758C79.1784 102.758 79.4909 102.849 79.7617 103.031C80.0326 103.214 80.237 103.471 80.375 103.805C80.513 104.135 80.582 104.499 80.582 104.895C80.582 105.319 80.5052 105.702 80.3516 106.043C80.2005 106.382 79.9792 106.642 79.6875 106.824C79.3984 107.004 79.0938 107.094 78.7734 107.094C78.5391 107.094 78.3281 107.044 78.1406 106.945C77.9557 106.846 77.8034 106.721 77.6836 106.57V108.59H76.9805ZM77.6172 104.949C77.6172 105.483 77.7253 105.878 77.9414 106.133C78.1576 106.388 78.4193 106.516 78.7266 106.516C79.0391 106.516 79.306 106.384 79.5273 106.121C79.7513 105.855 79.8633 105.445 79.8633 104.891C79.8633 104.362 79.7539 103.966 79.5352 103.703C79.319 103.44 79.0599 103.309 78.7578 103.309C78.4583 103.309 78.1927 103.449 77.9609 103.73C77.7318 104.009 77.6172 104.415 77.6172 104.949ZM84.2734 105.664L85 105.754C84.8854 106.178 84.6732 106.508 84.3633 106.742C84.0534 106.977 83.6576 107.094 83.1758 107.094C82.569 107.094 82.0872 106.908 81.7305 106.535C81.3763 106.16 81.1992 105.635 81.1992 104.961C81.1992 104.263 81.3789 103.721 81.7383 103.336C82.0977 102.951 82.5638 102.758 83.1367 102.758C83.6914 102.758 84.1445 102.947 84.4961 103.324C84.8477 103.702 85.0234 104.233 85.0234 104.918C85.0234 104.96 85.0221 105.022 85.0195 105.105H81.9258C81.9518 105.561 82.0807 105.91 82.3125 106.152C82.5443 106.395 82.8333 106.516 83.1797 106.516C83.4375 106.516 83.6576 106.448 83.8398 106.312C84.0221 106.177 84.1667 105.961 84.2734 105.664ZM81.9648 104.527H84.2812C84.25 104.178 84.1615 103.917 84.0156 103.742C83.7917 103.471 83.5013 103.336 83.1445 103.336C82.8216 103.336 82.5495 103.444 82.3281 103.66C82.1094 103.876 81.9883 104.165 81.9648 104.527ZM85.8867 107V102.852H86.5195V103.441C86.8242 102.986 87.2643 102.758 87.8398 102.758C88.0898 102.758 88.319 102.803 88.5273 102.895C88.7383 102.983 88.8958 103.1 89 103.246C89.1042 103.392 89.1771 103.565 89.2188 103.766C89.2448 103.896 89.2578 104.124 89.2578 104.449V107H88.5547V104.477C88.5547 104.19 88.5273 103.977 88.4727 103.836C88.418 103.693 88.3203 103.579 88.1797 103.496C88.0417 103.41 87.8789 103.367 87.6914 103.367C87.3919 103.367 87.1328 103.462 86.9141 103.652C86.6979 103.842 86.5898 104.203 86.5898 104.734V107H85.8867Z" fill="black"/>
<path d="M60.6328 131V125.273H64.7734V125.949H61.3906V127.703H64.5586V128.375H61.3906V130.324H64.9062V131H60.6328ZM65.8633 131V126.852H66.4961V127.441C66.8008 126.986 67.2409 126.758 67.8164 126.758C68.0664 126.758 68.2956 126.803 68.5039 126.895C68.7148 126.983 68.8724 127.1 68.9766 127.246C69.0807 127.392 69.1536 127.565 69.1953 127.766C69.2214 127.896 69.2344 128.124 69.2344 128.449V131H68.5312V128.477C68.5312 128.19 68.5039 127.977 68.4492 127.836C68.3945 127.693 68.2969 127.579 68.1562 127.496C68.0182 127.41 67.8555 127.367 67.668 127.367C67.3685 127.367 67.1094 127.462 66.8906 127.652C66.6745 127.842 66.5664 128.203 66.5664 128.734V131H65.8633ZM71.8516 130.371L71.9531 130.992C71.7552 131.034 71.5781 131.055 71.4219 131.055C71.1667 131.055 70.9688 131.014 70.8281 130.934C70.6875 130.853 70.5885 130.747 70.5312 130.617C70.474 130.484 70.4453 130.207 70.4453 129.785V127.398H69.9297V126.852H70.4453V125.824L71.1445 125.402V126.852H71.8516V127.398H71.1445V129.824C71.1445 130.025 71.1562 130.154 71.1797 130.211C71.2057 130.268 71.2461 130.314 71.3008 130.348C71.3581 130.382 71.4388 130.398 71.543 130.398C71.6211 130.398 71.724 130.389 71.8516 130.371ZM75.3828 129.664L76.1094 129.754C75.9948 130.178 75.7826 130.508 75.4727 130.742C75.1628 130.977 74.7669 131.094 74.2852 131.094C73.6784 131.094 73.1966 130.908 72.8398 130.535C72.4857 130.16 72.3086 129.635 72.3086 128.961C72.3086 128.263 72.4883 127.721 72.8477 127.336C73.207 126.951 73.6732 126.758 74.2461 126.758C74.8008 126.758 75.2539 126.947 75.6055 127.324C75.957 127.702 76.1328 128.233 76.1328 128.918C76.1328 128.96 76.1315 129.022 76.1289 129.105H73.0352C73.0612 129.561 73.1901 129.91 73.4219 130.152C73.6536 130.395 73.9427 130.516 74.2891 130.516C74.5469 130.516 74.7669 130.448 74.9492 130.312C75.1315 130.177 75.276 129.961 75.3828 129.664ZM73.0742 128.527H75.3906C75.3594 128.178 75.2708 127.917 75.125 127.742C74.901 127.471 74.6107 127.336 74.2539 127.336C73.931 127.336 73.6589 127.444 73.4375 127.66C73.2188 127.876 73.0977 128.165 73.0742 128.527ZM76.9883 131V126.852H77.6211V127.48C77.7826 127.186 77.931 126.992 78.0664 126.898C78.2044 126.805 78.3555 126.758 78.5195 126.758C78.7565 126.758 78.9974 126.833 79.2422 126.984L79 127.637C78.8281 127.535 78.6562 127.484 78.4844 127.484C78.3307 127.484 78.1927 127.531 78.0703 127.625C77.9479 127.716 77.8607 127.844 77.8086 128.008C77.7305 128.258 77.6914 128.531 77.6914 128.828V131H76.9883ZM81.8555 132.598L81.7773 131.938C81.931 131.979 82.0651 132 82.1797 132C82.3359 132 82.4609 131.974 82.5547 131.922C82.6484 131.87 82.7253 131.797 82.7852 131.703C82.8294 131.633 82.901 131.458 83 131.18C83.013 131.141 83.0339 131.083 83.0625 131.008L81.4883 126.852H82.2461L83.1094 129.254C83.2214 129.559 83.3216 129.879 83.4102 130.215C83.4909 129.892 83.5872 129.577 83.6992 129.27L84.5859 126.852H85.2891L83.7109 131.07C83.5417 131.526 83.4102 131.84 83.3164 132.012C83.1914 132.243 83.0482 132.413 82.8867 132.52C82.7253 132.629 82.5326 132.684 82.3086 132.684C82.1732 132.684 82.0221 132.655 81.8555 132.598ZM85.625 128.926C85.625 128.158 85.8385 127.589 86.2656 127.219C86.6224 126.911 87.0573 126.758 87.5703 126.758C88.1406 126.758 88.6068 126.945 88.9688 127.32C89.3307 127.693 89.5117 128.208 89.5117 128.867C89.5117 129.401 89.431 129.822 89.2695 130.129C89.1107 130.434 88.8776 130.671 88.5703 130.84C88.2656 131.009 87.9323 131.094 87.5703 131.094C86.9896 131.094 86.5195 130.908 86.1602 130.535C85.8034 130.163 85.625 129.626 85.625 128.926ZM86.3477 128.926C86.3477 129.457 86.4635 129.855 86.6953 130.121C86.9271 130.384 87.2188 130.516 87.5703 130.516C87.9193 130.516 88.2096 130.383 88.4414 130.117C88.6732 129.852 88.7891 129.447 88.7891 128.902C88.7891 128.389 88.6719 128.001 88.4375 127.738C88.2057 127.473 87.9167 127.34 87.5703 127.34C87.2188 127.34 86.9271 127.471 86.6953 127.734C86.4635 127.997 86.3477 128.395 86.3477 128.926ZM93.0586 131V130.391C92.7357 130.859 92.2969 131.094 91.7422 131.094C91.4974 131.094 91.2682 131.047 91.0547 130.953C90.8438 130.859 90.6862 130.742 90.582 130.602C90.4805 130.458 90.4089 130.284 90.3672 130.078C90.3385 129.94 90.3242 129.721 90.3242 129.422V126.852H91.0273V129.152C91.0273 129.52 91.0417 129.767 91.0703 129.895C91.1146 130.079 91.2083 130.225 91.3516 130.332C91.4948 130.436 91.6719 130.488 91.8828 130.488C92.0938 130.488 92.2917 130.435 92.4766 130.328C92.6615 130.219 92.7917 130.072 92.8672 129.887C92.9453 129.699 92.9844 129.428 92.9844 129.074V126.852H93.6875V131H93.0586ZM94.7852 131V126.852H95.418V127.48C95.5794 127.186 95.7279 126.992 95.8633 126.898C96.0013 126.805 96.1523 126.758 96.3164 126.758C96.5534 126.758 96.7943 126.833 97.0391 126.984L96.7969 127.637C96.625 127.535 96.4531 127.484 96.2812 127.484C96.1276 127.484 95.9896 127.531 95.8672 127.625C95.7448 127.716 95.6576 127.844 95.6055 128.008C95.5273 128.258 95.4883 128.531 95.4883 128.828V131H94.7852ZM99.6836 131V126.852H100.316V127.441C100.621 126.986 101.061 126.758 101.637 126.758C101.887 126.758 102.116 126.803 102.324 126.895C102.535 126.983 102.693 127.1 102.797 127.246C102.901 127.392 102.974 127.565 103.016 127.766C103.042 127.896 103.055 128.124 103.055 128.449V131H102.352V128.477C102.352 128.19 102.324 127.977 102.27 127.836C102.215 127.693 102.117 127.579 101.977 127.496C101.839 127.41 101.676 127.367 101.488 127.367C101.189 127.367 100.93 127.462 100.711 127.652C100.495 127.842 100.387 128.203 100.387 128.734V131H99.6836ZM106.844 130.488C106.583 130.71 106.332 130.866 106.09 130.957C105.85 131.048 105.592 131.094 105.316 131.094C104.861 131.094 104.51 130.983 104.266 130.762C104.021 130.538 103.898 130.253 103.898 129.906C103.898 129.703 103.944 129.518 104.035 129.352C104.129 129.182 104.25 129.047 104.398 128.945C104.549 128.844 104.719 128.767 104.906 128.715C105.044 128.678 105.253 128.643 105.531 128.609C106.099 128.542 106.517 128.461 106.785 128.367C106.788 128.271 106.789 128.21 106.789 128.184C106.789 127.897 106.723 127.695 106.59 127.578C106.41 127.419 106.143 127.34 105.789 127.34C105.458 127.34 105.214 127.398 105.055 127.516C104.898 127.63 104.783 127.835 104.707 128.129L104.02 128.035C104.082 127.741 104.185 127.504 104.328 127.324C104.471 127.142 104.678 127.003 104.949 126.906C105.22 126.807 105.534 126.758 105.891 126.758C106.245 126.758 106.533 126.799 106.754 126.883C106.975 126.966 107.138 127.072 107.242 127.199C107.346 127.324 107.419 127.483 107.461 127.676C107.484 127.796 107.496 128.012 107.496 128.324V129.262C107.496 129.915 107.51 130.329 107.539 130.504C107.57 130.676 107.63 130.841 107.719 131H106.984C106.911 130.854 106.865 130.684 106.844 130.488ZM106.785 128.918C106.53 129.022 106.147 129.111 105.637 129.184C105.348 129.225 105.143 129.272 105.023 129.324C104.904 129.376 104.811 129.453 104.746 129.555C104.681 129.654 104.648 129.764 104.648 129.887C104.648 130.074 104.719 130.23 104.859 130.355C105.003 130.48 105.211 130.543 105.484 130.543C105.755 130.543 105.996 130.484 106.207 130.367C106.418 130.247 106.573 130.085 106.672 129.879C106.747 129.72 106.785 129.486 106.785 129.176V128.918ZM108.59 131V126.852H109.219V127.434C109.349 127.23 109.522 127.068 109.738 126.945C109.954 126.82 110.201 126.758 110.477 126.758C110.784 126.758 111.035 126.822 111.23 126.949C111.428 127.077 111.568 127.255 111.648 127.484C111.977 127 112.404 126.758 112.93 126.758C113.341 126.758 113.658 126.872 113.879 127.102C114.1 127.328 114.211 127.678 114.211 128.152V131H113.512V128.387C113.512 128.105 113.488 127.904 113.441 127.781C113.397 127.656 113.315 127.556 113.195 127.48C113.076 127.405 112.935 127.367 112.773 127.367C112.482 127.367 112.24 127.465 112.047 127.66C111.854 127.853 111.758 128.163 111.758 128.59V131H111.055V128.305C111.055 127.992 110.997 127.758 110.883 127.602C110.768 127.445 110.581 127.367 110.32 127.367C110.122 127.367 109.939 127.419 109.77 127.523C109.603 127.628 109.482 127.78 109.406 127.98C109.331 128.181 109.293 128.47 109.293 128.848V131H108.59ZM118.094 129.664L118.82 129.754C118.706 130.178 118.493 130.508 118.184 130.742C117.874 130.977 117.478 131.094 116.996 131.094C116.389 131.094 115.908 130.908 115.551 130.535C115.197 130.16 115.02 129.635 115.02 128.961C115.02 128.263 115.199 127.721 115.559 127.336C115.918 126.951 116.384 126.758 116.957 126.758C117.512 126.758 117.965 126.947 118.316 127.324C118.668 127.702 118.844 128.233 118.844 128.918C118.844 128.96 118.842 129.022 118.84 129.105H115.746C115.772 129.561 115.901 129.91 116.133 130.152C116.365 130.395 116.654 130.516 117 130.516C117.258 130.516 117.478 130.448 117.66 130.312C117.842 130.177 117.987 129.961 118.094 129.664ZM115.785 128.527H118.102C118.07 128.178 117.982 127.917 117.836 127.742C117.612 127.471 117.322 127.336 116.965 127.336C116.642 127.336 116.37 127.444 116.148 127.66C115.93 127.876 115.809 128.165 115.785 128.527ZM124.641 130.488C124.38 130.71 124.129 130.866 123.887 130.957C123.647 131.048 123.389 131.094 123.113 131.094C122.658 131.094 122.307 130.983 122.062 130.762C121.818 130.538 121.695 130.253 121.695 129.906C121.695 129.703 121.741 129.518 121.832 129.352C121.926 129.182 122.047 129.047 122.195 128.945C122.346 128.844 122.516 128.767 122.703 128.715C122.841 128.678 123.049 128.643 123.328 128.609C123.896 128.542 124.314 128.461 124.582 128.367C124.585 128.271 124.586 128.21 124.586 128.184C124.586 127.897 124.52 127.695 124.387 127.578C124.207 127.419 123.94 127.34 123.586 127.34C123.255 127.34 123.01 127.398 122.852 127.516C122.695 127.63 122.579 127.835 122.504 128.129L121.816 128.035C121.879 127.741 121.982 127.504 122.125 127.324C122.268 127.142 122.475 127.003 122.746 126.906C123.017 126.807 123.331 126.758 123.688 126.758C124.042 126.758 124.329 126.799 124.551 126.883C124.772 126.966 124.935 127.072 125.039 127.199C125.143 127.324 125.216 127.483 125.258 127.676C125.281 127.796 125.293 128.012 125.293 128.324V129.262C125.293 129.915 125.307 130.329 125.336 130.504C125.367 130.676 125.427 130.841 125.516 131H124.781C124.708 130.854 124.661 130.684 124.641 130.488ZM124.582 128.918C124.327 129.022 123.944 129.111 123.434 129.184C123.145 129.225 122.94 129.272 122.82 129.324C122.701 129.376 122.608 129.453 122.543 129.555C122.478 129.654 122.445 129.764 122.445 129.887C122.445 130.074 122.516 130.23 122.656 130.355C122.799 130.48 123.008 130.543 123.281 130.543C123.552 130.543 123.793 130.484 124.004 130.367C124.215 130.247 124.37 130.085 124.469 129.879C124.544 129.72 124.582 129.486 124.582 129.176V128.918ZM126.387 131V126.852H127.02V127.441C127.324 126.986 127.764 126.758 128.34 126.758C128.59 126.758 128.819 126.803 129.027 126.895C129.238 126.983 129.396 127.1 129.5 127.246C129.604 127.392 129.677 127.565 129.719 127.766C129.745 127.896 129.758 128.124 129.758 128.449V131H129.055V128.477C129.055 128.19 129.027 127.977 128.973 127.836C128.918 127.693 128.82 127.579 128.68 127.496C128.542 127.41 128.379 127.367 128.191 127.367C127.892 127.367 127.633 127.462 127.414 127.652C127.198 127.842 127.09 128.203 127.09 128.734V131H126.387ZM133.531 131V130.477C133.268 130.888 132.882 131.094 132.371 131.094C132.04 131.094 131.736 131.003 131.457 130.82C131.181 130.638 130.966 130.384 130.812 130.059C130.661 129.73 130.586 129.354 130.586 128.93C130.586 128.516 130.655 128.141 130.793 127.805C130.931 127.466 131.138 127.207 131.414 127.027C131.69 126.848 131.999 126.758 132.34 126.758C132.59 126.758 132.812 126.811 133.008 126.918C133.203 127.022 133.362 127.159 133.484 127.328V125.273H134.184V131H133.531ZM131.309 128.93C131.309 129.461 131.421 129.858 131.645 130.121C131.868 130.384 132.133 130.516 132.438 130.516C132.745 130.516 133.005 130.391 133.219 130.141C133.435 129.888 133.543 129.504 133.543 128.988C133.543 128.421 133.434 128.004 133.215 127.738C132.996 127.473 132.727 127.34 132.406 127.34C132.094 127.34 131.832 127.467 131.621 127.723C131.413 127.978 131.309 128.38 131.309 128.93ZM140.227 129.48L140.918 129.57C140.842 130.047 140.648 130.421 140.336 130.691C140.026 130.96 139.645 131.094 139.191 131.094C138.624 131.094 138.167 130.909 137.82 130.539C137.477 130.167 137.305 129.634 137.305 128.941C137.305 128.493 137.379 128.102 137.527 127.766C137.676 127.43 137.901 127.178 138.203 127.012C138.508 126.842 138.839 126.758 139.195 126.758C139.646 126.758 140.014 126.872 140.301 127.102C140.587 127.328 140.771 127.651 140.852 128.07L140.168 128.176C140.103 127.897 139.987 127.688 139.82 127.547C139.656 127.406 139.457 127.336 139.223 127.336C138.868 127.336 138.581 127.464 138.359 127.719C138.138 127.971 138.027 128.372 138.027 128.922C138.027 129.479 138.134 129.884 138.348 130.137C138.561 130.389 138.84 130.516 139.184 130.516C139.46 130.516 139.69 130.431 139.875 130.262C140.06 130.092 140.177 129.832 140.227 129.48ZM141.52 131V125.273H142.223V127.328C142.551 126.948 142.965 126.758 143.465 126.758C143.772 126.758 144.039 126.819 144.266 126.941C144.492 127.061 144.654 127.228 144.75 127.441C144.849 127.655 144.898 127.965 144.898 128.371V131H144.195V128.371C144.195 128.02 144.118 127.764 143.965 127.605C143.814 127.444 143.599 127.363 143.32 127.363C143.112 127.363 142.915 127.418 142.73 127.527C142.548 127.634 142.418 127.78 142.34 127.965C142.262 128.15 142.223 128.405 142.223 128.73V131H141.52ZM145.711 128.926C145.711 128.158 145.924 127.589 146.352 127.219C146.708 126.911 147.143 126.758 147.656 126.758C148.227 126.758 148.693 126.945 149.055 127.32C149.417 127.693 149.598 128.208 149.598 128.867C149.598 129.401 149.517 129.822 149.355 130.129C149.197 130.434 148.964 130.671 148.656 130.84C148.352 131.009 148.018 131.094 147.656 131.094C147.076 131.094 146.605 130.908 146.246 130.535C145.889 130.163 145.711 129.626 145.711 128.926ZM146.434 128.926C146.434 129.457 146.549 129.855 146.781 130.121C147.013 130.384 147.305 130.516 147.656 130.516C148.005 130.516 148.296 130.383 148.527 130.117C148.759 129.852 148.875 129.447 148.875 128.902C148.875 128.389 148.758 128.001 148.523 127.738C148.292 127.473 148.003 127.34 147.656 127.34C147.305 127.34 147.013 127.471 146.781 127.734C146.549 127.997 146.434 128.395 146.434 128.926ZM150.164 128.926C150.164 128.158 150.378 127.589 150.805 127.219C151.161 126.911 151.596 126.758 152.109 126.758C152.68 126.758 153.146 126.945 153.508 127.32C153.87 127.693 154.051 128.208 154.051 128.867C154.051 129.401 153.97 129.822 153.809 130.129C153.65 130.434 153.417 130.671 153.109 130.84C152.805 131.009 152.471 131.094 152.109 131.094C151.529 131.094 151.059 130.908 150.699 130.535C150.342 130.163 150.164 129.626 150.164 128.926ZM150.887 128.926C150.887 129.457 151.003 129.855 151.234 130.121C151.466 130.384 151.758 130.516 152.109 130.516C152.458 130.516 152.749 130.383 152.98 130.117C153.212 129.852 153.328 129.447 153.328 128.902C153.328 128.389 153.211 128.001 152.977 127.738C152.745 127.473 152.456 127.34 152.109 127.34C151.758 127.34 151.466 127.471 151.234 127.734C151.003 127.997 150.887 128.395 150.887 128.926ZM154.598 129.762L155.293 129.652C155.332 129.931 155.44 130.145 155.617 130.293C155.797 130.441 156.047 130.516 156.367 130.516C156.69 130.516 156.93 130.451 157.086 130.32C157.242 130.188 157.32 130.033 157.32 129.855C157.32 129.697 157.251 129.572 157.113 129.48C157.017 129.418 156.777 129.339 156.395 129.242C155.879 129.112 155.521 129 155.32 128.906C155.122 128.81 154.971 128.678 154.867 128.512C154.766 128.342 154.715 128.156 154.715 127.953C154.715 127.768 154.757 127.598 154.84 127.441C154.926 127.283 155.042 127.151 155.188 127.047C155.297 126.966 155.445 126.898 155.633 126.844C155.823 126.786 156.026 126.758 156.242 126.758C156.568 126.758 156.853 126.805 157.098 126.898C157.345 126.992 157.527 127.12 157.645 127.281C157.762 127.44 157.842 127.654 157.887 127.922L157.199 128.016C157.168 127.802 157.077 127.635 156.926 127.516C156.777 127.396 156.566 127.336 156.293 127.336C155.97 127.336 155.74 127.389 155.602 127.496C155.464 127.603 155.395 127.728 155.395 127.871C155.395 127.962 155.423 128.044 155.48 128.117C155.538 128.193 155.628 128.255 155.75 128.305C155.82 128.331 156.027 128.391 156.371 128.484C156.868 128.617 157.215 128.727 157.41 128.812C157.608 128.896 157.763 129.018 157.875 129.18C157.987 129.341 158.043 129.542 158.043 129.781C158.043 130.016 157.974 130.237 157.836 130.445C157.701 130.651 157.504 130.811 157.246 130.926C156.988 131.038 156.697 131.094 156.371 131.094C155.832 131.094 155.421 130.982 155.137 130.758C154.855 130.534 154.676 130.202 154.598 129.762ZM161.719 129.664L162.445 129.754C162.331 130.178 162.118 130.508 161.809 130.742C161.499 130.977 161.103 131.094 160.621 131.094C160.014 131.094 159.533 130.908 159.176 130.535C158.822 130.16 158.645 129.635 158.645 128.961C158.645 128.263 158.824 127.721 159.184 127.336C159.543 126.951 160.009 126.758 160.582 126.758C161.137 126.758 161.59 126.947 161.941 127.324C162.293 127.702 162.469 128.233 162.469 128.918C162.469 128.96 162.467 129.022 162.465 129.105H159.371C159.397 129.561 159.526 129.91 159.758 130.152C159.99 130.395 160.279 130.516 160.625 130.516C160.883 130.516 161.103 130.448 161.285 130.312C161.467 130.177 161.612 129.961 161.719 129.664ZM159.41 128.527H161.727C161.695 128.178 161.607 127.917 161.461 127.742C161.237 127.471 160.947 127.336 160.59 127.336C160.267 127.336 159.995 127.444 159.773 127.66C159.555 127.876 159.434 128.165 159.41 128.527ZM168.266 130.488C168.005 130.71 167.754 130.866 167.512 130.957C167.272 131.048 167.014 131.094 166.738 131.094C166.283 131.094 165.932 130.983 165.688 130.762C165.443 130.538 165.32 130.253 165.32 129.906C165.32 129.703 165.366 129.518 165.457 129.352C165.551 129.182 165.672 129.047 165.82 128.945C165.971 128.844 166.141 128.767 166.328 128.715C166.466 128.678 166.674 128.643 166.953 128.609C167.521 128.542 167.939 128.461 168.207 128.367C168.21 128.271 168.211 128.21 168.211 128.184C168.211 127.897 168.145 127.695 168.012 127.578C167.832 127.419 167.565 127.34 167.211 127.34C166.88 127.34 166.635 127.398 166.477 127.516C166.32 127.63 166.204 127.835 166.129 128.129L165.441 128.035C165.504 127.741 165.607 127.504 165.75 127.324C165.893 127.142 166.1 127.003 166.371 126.906C166.642 126.807 166.956 126.758 167.312 126.758C167.667 126.758 167.954 126.799 168.176 126.883C168.397 126.966 168.56 127.072 168.664 127.199C168.768 127.324 168.841 127.483 168.883 127.676C168.906 127.796 168.918 128.012 168.918 128.324V129.262C168.918 129.915 168.932 130.329 168.961 130.504C168.992 130.676 169.052 130.841 169.141 131H168.406C168.333 130.854 168.286 130.684 168.266 130.488ZM168.207 128.918C167.952 129.022 167.569 129.111 167.059 129.184C166.77 129.225 166.565 129.272 166.445 129.324C166.326 129.376 166.233 129.453 166.168 129.555C166.103 129.654 166.07 129.764 166.07 129.887C166.07 130.074 166.141 130.23 166.281 130.355C166.424 130.48 166.633 130.543 166.906 130.543C167.177 130.543 167.418 130.484 167.629 130.367C167.84 130.247 167.995 130.085 168.094 129.879C168.169 129.72 168.207 129.486 168.207 129.176V128.918ZM174.93 131V130.477C174.667 130.888 174.28 131.094 173.77 131.094C173.439 131.094 173.134 131.003 172.855 130.82C172.579 130.638 172.365 130.384 172.211 130.059C172.06 129.73 171.984 129.354 171.984 128.93C171.984 128.516 172.053 128.141 172.191 127.805C172.329 127.466 172.536 127.207 172.812 127.027C173.089 126.848 173.397 126.758 173.738 126.758C173.988 126.758 174.211 126.811 174.406 126.918C174.602 127.022 174.76 127.159 174.883 127.328V125.273H175.582V131H174.93ZM172.707 128.93C172.707 129.461 172.819 129.858 173.043 130.121C173.267 130.384 173.531 130.516 173.836 130.516C174.143 130.516 174.404 130.391 174.617 130.141C174.833 129.888 174.941 129.504 174.941 128.988C174.941 128.421 174.832 128.004 174.613 127.738C174.395 127.473 174.125 127.34 173.805 127.34C173.492 127.34 173.23 127.467 173.02 127.723C172.811 127.978 172.707 128.38 172.707 128.93ZM179.398 130.488C179.138 130.71 178.887 130.866 178.645 130.957C178.405 131.048 178.147 131.094 177.871 131.094C177.415 131.094 177.065 130.983 176.82 130.762C176.576 130.538 176.453 130.253 176.453 129.906C176.453 129.703 176.499 129.518 176.59 129.352C176.684 129.182 176.805 129.047 176.953 128.945C177.104 128.844 177.273 128.767 177.461 128.715C177.599 128.678 177.807 128.643 178.086 128.609C178.654 128.542 179.072 128.461 179.34 128.367C179.342 128.271 179.344 128.21 179.344 128.184C179.344 127.897 179.277 127.695 179.145 127.578C178.965 127.419 178.698 127.34 178.344 127.34C178.013 127.34 177.768 127.398 177.609 127.516C177.453 127.63 177.337 127.835 177.262 128.129L176.574 128.035C176.637 127.741 176.74 127.504 176.883 127.324C177.026 127.142 177.233 127.003 177.504 126.906C177.775 126.807 178.089 126.758 178.445 126.758C178.799 126.758 179.087 126.799 179.309 126.883C179.53 126.966 179.693 127.072 179.797 127.199C179.901 127.324 179.974 127.483 180.016 127.676C180.039 127.796 180.051 128.012 180.051 128.324V129.262C180.051 129.915 180.065 130.329 180.094 130.504C180.125 130.676 180.185 130.841 180.273 131H179.539C179.466 130.854 179.419 130.684 179.398 130.488ZM179.34 128.918C179.085 129.022 178.702 129.111 178.191 129.184C177.902 129.225 177.698 129.272 177.578 129.324C177.458 129.376 177.366 129.453 177.301 129.555C177.236 129.654 177.203 129.764 177.203 129.887C177.203 130.074 177.273 130.23 177.414 130.355C177.557 130.48 177.766 130.543 178.039 130.543C178.31 130.543 178.551 130.484 178.762 130.367C178.973 130.247 179.128 130.085 179.227 129.879C179.302 129.72 179.34 129.486 179.34 129.176V128.918ZM181.113 132.598L181.035 131.938C181.189 131.979 181.323 132 181.438 132C181.594 132 181.719 131.974 181.812 131.922C181.906 131.87 181.983 131.797 182.043 131.703C182.087 131.633 182.159 131.458 182.258 131.18C182.271 131.141 182.292 131.083 182.32 131.008L180.746 126.852H181.504L182.367 129.254C182.479 129.559 182.579 129.879 182.668 130.215C182.749 129.892 182.845 129.577 182.957 129.27L183.844 126.852H184.547L182.969 131.07C182.799 131.526 182.668 131.84 182.574 132.012C182.449 132.243 182.306 132.413 182.145 132.52C181.983 132.629 181.79 132.684 181.566 132.684C181.431 132.684 181.28 132.655 181.113 132.598ZM188.02 131H187.367V125.273H188.07V127.316C188.367 126.944 188.746 126.758 189.207 126.758C189.462 126.758 189.703 126.81 189.93 126.914C190.159 127.016 190.346 127.16 190.492 127.348C190.641 127.533 190.757 127.757 190.84 128.02C190.923 128.283 190.965 128.564 190.965 128.863C190.965 129.574 190.789 130.124 190.438 130.512C190.086 130.9 189.664 131.094 189.172 131.094C188.682 131.094 188.298 130.889 188.02 130.48V131ZM188.012 128.895C188.012 129.392 188.079 129.751 188.215 129.973C188.436 130.335 188.736 130.516 189.113 130.516C189.421 130.516 189.686 130.383 189.91 130.117C190.134 129.849 190.246 129.451 190.246 128.922C190.246 128.38 190.138 127.98 189.922 127.723C189.708 127.465 189.449 127.336 189.145 127.336C188.837 127.336 188.572 127.47 188.348 127.738C188.124 128.004 188.012 128.389 188.012 128.895ZM194.664 129.664L195.391 129.754C195.276 130.178 195.064 130.508 194.754 130.742C194.444 130.977 194.048 131.094 193.566 131.094C192.96 131.094 192.478 130.908 192.121 130.535C191.767 130.16 191.59 129.635 191.59 128.961C191.59 128.263 191.77 127.721 192.129 127.336C192.488 126.951 192.954 126.758 193.527 126.758C194.082 126.758 194.535 126.947 194.887 127.324C195.238 127.702 195.414 128.233 195.414 128.918C195.414 128.96 195.413 129.022 195.41 129.105H192.316C192.342 129.561 192.471 129.91 192.703 130.152C192.935 130.395 193.224 130.516 193.57 130.516C193.828 130.516 194.048 130.448 194.23 130.312C194.413 130.177 194.557 129.961 194.664 129.664ZM192.355 128.527H194.672C194.641 128.178 194.552 127.917 194.406 127.742C194.182 127.471 193.892 127.336 193.535 127.336C193.212 127.336 192.94 127.444 192.719 127.66C192.5 127.876 192.379 128.165 192.355 128.527ZM196.262 131V125.273H196.965V131H196.262ZM197.797 128.926C197.797 128.158 198.01 127.589 198.438 127.219C198.794 126.911 199.229 126.758 199.742 126.758C200.312 126.758 200.779 126.945 201.141 127.32C201.503 127.693 201.684 128.208 201.684 128.867C201.684 129.401 201.603 129.822 201.441 130.129C201.283 130.434 201.049 130.671 200.742 130.84C200.438 131.009 200.104 131.094 199.742 131.094C199.161 131.094 198.691 130.908 198.332 130.535C197.975 130.163 197.797 129.626 197.797 128.926ZM198.52 128.926C198.52 129.457 198.635 129.855 198.867 130.121C199.099 130.384 199.391 130.516 199.742 130.516C200.091 130.516 200.382 130.383 200.613 130.117C200.845 129.852 200.961 129.447 200.961 128.902C200.961 128.389 200.844 128.001 200.609 127.738C200.378 127.473 200.089 127.34 199.742 127.34C199.391 127.34 199.099 127.471 198.867 127.734C198.635 127.997 198.52 128.395 198.52 128.926ZM203.277 131L202.008 126.852H202.734L203.395 129.246L203.641 130.137C203.651 130.092 203.723 129.807 203.855 129.281L204.516 126.852H205.238L205.859 129.258L206.066 130.051L206.305 129.25L207.016 126.852H207.699L206.402 131H205.672L205.012 128.516L204.852 127.809L204.012 131H203.277ZM208.488 127.652V126.852H209.289V127.652H208.488ZM208.488 131V130.199H209.289V131H208.488Z" fill="black"/>
<rect x="180.25" y="141.25" width="38.5" height="15.5" rx="1.75" stroke="black" stroke-width="0.5"/>
<path d="M184.809 152V146.273H185.949L187.305 150.328C187.43 150.706 187.521 150.988 187.578 151.176C187.643 150.967 187.745 150.661 187.883 150.258L189.254 146.273H190.273V152H189.543V147.207L187.879 152H187.195L185.539 147.125V152H184.809ZM191.145 149.926C191.145 149.158 191.358 148.589 191.785 148.219C192.142 147.911 192.577 147.758 193.09 147.758C193.66 147.758 194.126 147.945 194.488 148.32C194.85 148.693 195.031 149.208 195.031 149.867C195.031 150.401 194.951 150.822 194.789 151.129C194.63 151.434 194.397 151.671 194.09 151.84C193.785 152.009 193.452 152.094 193.09 152.094C192.509 152.094 192.039 151.908 191.68 151.535C191.323 151.163 191.145 150.626 191.145 149.926ZM191.867 149.926C191.867 150.457 191.983 150.855 192.215 151.121C192.447 151.384 192.738 151.516 193.09 151.516C193.439 151.516 193.729 151.383 193.961 151.117C194.193 150.852 194.309 150.447 194.309 149.902C194.309 149.389 194.191 149.001 193.957 148.738C193.725 148.473 193.436 148.34 193.09 148.34C192.738 148.34 192.447 148.471 192.215 148.734C191.983 148.997 191.867 149.395 191.867 149.926ZM195.859 152V147.852H196.492V148.441C196.797 147.986 197.237 147.758 197.812 147.758C198.062 147.758 198.292 147.803 198.5 147.895C198.711 147.983 198.868 148.1 198.973 148.246C199.077 148.392 199.15 148.565 199.191 148.766C199.217 148.896 199.23 149.124 199.23 149.449V152H198.527V149.477C198.527 149.19 198.5 148.977 198.445 148.836C198.391 148.693 198.293 148.579 198.152 148.496C198.014 148.41 197.852 148.367 197.664 148.367C197.365 148.367 197.105 148.462 196.887 148.652C196.671 148.842 196.562 149.203 196.562 149.734V152H195.859Z" fill="black"/>
<path d="M210 151.02C209.84 151.02 209.68 150.96 209.557 150.837L206.61 147.89L207.14 147.36L210 150.22L212.86 147.36L213.39 147.89L210.442 150.837C210.32 150.96 210.16 151.02 210 151.02Z" fill="#202023"/>
</svg>
