<svg width="300" height="180" viewBox="0 0 300 180" fill="none" xmlns="http://www.w3.org/2000/svg">
<rect width="300" height="180" fill="#B6D7E4"/>
<path d="M101.545 28.4551L101.652 32.8691H101.252C101.063 31.7624 100.598 30.8737 99.8555 30.2031C99.1198 29.526 98.3223 29.1875 97.4629 29.1875C96.7988 29.1875 96.2715 29.3665 95.8809 29.7246C95.4967 30.0762 95.3047 30.4831 95.3047 30.9453C95.3047 31.2383 95.373 31.4987 95.5098 31.7266C95.6986 32.0326 96.0013 32.3353 96.418 32.6348C96.724 32.8496 97.4303 33.2305 98.5371 33.7773C100.087 34.5391 101.132 35.2585 101.672 35.9355C102.206 36.6126 102.473 37.3874 102.473 38.2598C102.473 39.3665 102.04 40.3203 101.174 41.1211C100.314 41.9154 99.2207 42.3125 97.8926 42.3125C97.4759 42.3125 97.082 42.2702 96.7109 42.1855C96.3398 42.1009 95.8743 41.9414 95.3145 41.707C95.002 41.5768 94.7448 41.5117 94.543 41.5117C94.3737 41.5117 94.1947 41.5768 94.0059 41.707C93.8171 41.8372 93.6641 42.0358 93.5469 42.3027H93.1855V37.3027H93.5469C93.8333 38.709 94.3835 39.7832 95.1973 40.5254C96.0176 41.2611 96.8997 41.6289 97.8438 41.6289C98.5729 41.6289 99.1523 41.4303 99.582 41.0332C100.018 40.6361 100.236 40.1738 100.236 39.6465C100.236 39.334 100.152 39.0312 99.9824 38.7383C99.8197 38.4453 99.569 38.1686 99.2305 37.9082C98.8919 37.6413 98.293 37.2962 97.4336 36.873C96.2292 36.2806 95.3633 35.776 94.8359 35.3594C94.3086 34.9427 93.9017 34.4772 93.6152 33.9629C93.3353 33.4486 93.1953 32.8822 93.1953 32.2637C93.1953 31.209 93.5827 30.3105 94.3574 29.5684C95.1322 28.8262 96.1087 28.4551 97.2871 28.4551C97.7168 28.4551 98.1335 28.5072 98.5371 28.6113C98.8431 28.6895 99.2142 28.8359 99.6504 29.0508C100.093 29.2591 100.402 29.3633 100.578 29.3633C100.747 29.3633 100.881 29.3112 100.979 29.207C101.076 29.1029 101.167 28.8522 101.252 28.4551H101.545ZM108.996 40.6523C107.883 41.6354 106.883 42.127 105.998 42.127C105.477 42.127 105.044 41.9577 104.699 41.6191C104.354 41.2741 104.182 40.8444 104.182 40.3301C104.182 39.6335 104.481 39.0085 105.08 38.4551C105.679 37.8952 106.984 37.153 108.996 36.2285V35.3105C108.996 34.6204 108.957 34.1875 108.879 34.0117C108.807 33.8294 108.667 33.6732 108.459 33.543C108.251 33.4062 108.016 33.3379 107.756 33.3379C107.333 33.3379 106.984 33.4323 106.711 33.6211C106.542 33.7383 106.457 33.875 106.457 34.0312C106.457 34.168 106.548 34.3372 106.73 34.5391C106.978 34.819 107.102 35.0892 107.102 35.3496C107.102 35.6686 106.981 35.9421 106.74 36.1699C106.506 36.3913 106.197 36.502 105.812 36.502C105.402 36.502 105.057 36.3783 104.777 36.1309C104.504 35.8835 104.367 35.5938 104.367 35.2617C104.367 34.793 104.553 34.347 104.924 33.9238C105.295 33.4941 105.812 33.1654 106.477 32.9375C107.141 32.7096 107.831 32.5957 108.547 32.5957C109.413 32.5957 110.096 32.7812 110.598 33.1523C111.105 33.5169 111.434 33.9141 111.584 34.3438C111.675 34.6172 111.721 35.2454 111.721 36.2285V39.7734C111.721 40.1901 111.737 40.4538 111.77 40.5645C111.802 40.6686 111.851 40.7467 111.916 40.7988C111.981 40.8509 112.056 40.877 112.141 40.877C112.31 40.877 112.482 40.7565 112.658 40.5156L112.951 40.75C112.626 41.2318 112.287 41.5833 111.936 41.8047C111.59 42.0195 111.197 42.127 110.754 42.127C110.233 42.127 109.826 42.0065 109.533 41.7656C109.24 41.5182 109.061 41.1471 108.996 40.6523ZM108.996 39.9395V36.8828C108.208 37.3451 107.622 37.8398 107.238 38.3672C106.984 38.7188 106.857 39.0736 106.857 39.4316C106.857 39.7311 106.965 39.9948 107.18 40.2227C107.342 40.3984 107.57 40.4863 107.863 40.4863C108.189 40.4863 108.566 40.304 108.996 39.9395ZM118.078 42.2734L115.002 35.1934C114.631 34.3405 114.341 33.8001 114.133 33.5723C113.983 33.403 113.762 33.2891 113.469 33.2305V32.8691H118.322V33.2305C118.016 33.2305 117.808 33.2858 117.697 33.3965C117.541 33.5397 117.463 33.709 117.463 33.9043C117.463 34.1452 117.606 34.5977 117.893 35.2617L119.396 38.6895L120.598 35.7305C120.943 34.8841 121.115 34.2852 121.115 33.9336C121.115 33.7318 121.04 33.569 120.891 33.4453C120.747 33.3151 120.49 33.2435 120.119 33.2305V32.8691H123.107V33.2305C122.821 33.2695 122.587 33.377 122.404 33.5527C122.222 33.7285 121.949 34.2461 121.584 35.1055L118.537 42.2734H118.078ZM131.691 37.1074H126.682C126.74 38.3184 127.062 39.2754 127.648 39.9785C128.098 40.5189 128.638 40.7891 129.27 40.7891C129.66 40.7891 130.015 40.6816 130.334 40.4668C130.653 40.2454 130.995 39.8516 131.359 39.2852L131.691 39.5C131.197 40.5091 130.65 41.2253 130.051 41.6484C129.452 42.0651 128.758 42.2734 127.971 42.2734C126.617 42.2734 125.591 41.7526 124.895 40.7109C124.335 39.8711 124.055 38.8294 124.055 37.5859C124.055 36.0625 124.465 34.8516 125.285 33.9531C126.112 33.0482 127.079 32.5957 128.186 32.5957C129.11 32.5957 129.911 32.9766 130.588 33.7383C131.271 34.4935 131.639 35.6165 131.691 37.1074ZM129.289 36.4531C129.289 35.4049 129.23 34.6855 129.113 34.2949C129.003 33.9043 128.827 33.6081 128.586 33.4062C128.449 33.2891 128.267 33.2305 128.039 33.2305C127.701 33.2305 127.424 33.3965 127.209 33.7285C126.825 34.3079 126.633 35.1022 126.633 36.1113V36.4531H129.289ZM141.467 29.5293V32.8691H143.635V33.8359H141.467V39.4707C141.467 39.998 141.49 40.3398 141.535 40.4961C141.587 40.6458 141.675 40.7695 141.799 40.8672C141.923 40.9583 142.036 41.0039 142.141 41.0039C142.564 41.0039 142.964 40.6816 143.342 40.0371L143.635 40.252C143.107 41.502 142.251 42.127 141.066 42.127C140.487 42.127 139.995 41.9674 139.592 41.6484C139.195 41.3229 138.941 40.9616 138.83 40.5645C138.765 40.3431 138.732 39.7441 138.732 38.7676V33.8359H137.541V33.4941C138.361 32.9147 139.058 32.306 139.631 31.668C140.21 31.0299 140.715 30.3171 141.145 29.5293H141.467ZM148.234 28.7578V34.041C148.736 33.5137 149.195 33.1426 149.611 32.9277C150.028 32.7064 150.461 32.5957 150.91 32.5957C151.483 32.5957 151.971 32.7585 152.375 33.084C152.785 33.4095 153.055 33.7936 153.186 34.2363C153.322 34.6725 153.391 35.4115 153.391 36.4531V40.0176C153.391 40.7142 153.456 41.1504 153.586 41.3262C153.716 41.4954 153.98 41.6029 154.377 41.6484V42H149.748V41.6484C150.074 41.6029 150.318 41.4727 150.48 41.2578C150.598 41.0885 150.656 40.6751 150.656 40.0176V35.9453C150.656 35.1901 150.627 34.7181 150.568 34.5293C150.51 34.334 150.409 34.1842 150.266 34.0801C150.129 33.9694 149.973 33.9141 149.797 33.9141C149.536 33.9141 149.283 34.0052 149.035 34.1875C148.788 34.3633 148.521 34.6758 148.234 35.125V40.0176C148.234 40.6686 148.283 41.0755 148.381 41.2383C148.505 41.4596 148.758 41.5964 149.143 41.6484V42H144.514V41.6484C144.898 41.6094 145.171 41.4857 145.334 41.2773C145.445 41.1341 145.5 40.7142 145.5 40.0176V30.7402C145.5 30.0501 145.435 29.6204 145.305 29.4512C145.181 29.2819 144.917 29.1712 144.514 29.1191V28.7578H148.234ZM163.371 37.1074H158.361C158.42 38.3184 158.742 39.2754 159.328 39.9785C159.777 40.5189 160.318 40.7891 160.949 40.7891C161.34 40.7891 161.695 40.6816 162.014 40.4668C162.333 40.2454 162.674 39.8516 163.039 39.2852L163.371 39.5C162.876 40.5091 162.329 41.2253 161.73 41.6484C161.132 42.0651 160.438 42.2734 159.65 42.2734C158.296 42.2734 157.271 41.7526 156.574 40.7109C156.014 39.8711 155.734 38.8294 155.734 37.5859C155.734 36.0625 156.145 34.8516 156.965 33.9531C157.792 33.0482 158.758 32.5957 159.865 32.5957C160.79 32.5957 161.59 32.9766 162.268 33.7383C162.951 34.4935 163.319 35.6165 163.371 37.1074ZM160.969 36.4531C160.969 35.4049 160.91 34.6855 160.793 34.2949C160.682 33.9043 160.507 33.6081 160.266 33.4062C160.129 33.2891 159.947 33.2305 159.719 33.2305C159.38 33.2305 159.104 33.3965 158.889 33.7285C158.505 34.3079 158.312 35.1022 158.312 36.1113V36.4531H160.969ZM169.113 42V41.6387H169.553C169.937 41.6387 170.23 41.5801 170.432 41.4629C170.64 41.3392 170.793 41.1732 170.891 40.9648C170.949 40.8281 170.979 40.418 170.979 39.7344V31.0234C170.979 30.3464 170.943 29.9232 170.871 29.7539C170.799 29.5846 170.653 29.4382 170.432 29.3145C170.217 29.1842 169.924 29.1191 169.553 29.1191H169.113V28.7578H175.041C176.623 28.7578 177.896 28.9727 178.859 29.4023C180.038 29.9297 180.93 30.7272 181.535 31.7949C182.147 32.8626 182.453 34.0703 182.453 35.418C182.453 36.349 182.303 37.2083 182.004 37.9961C181.704 38.7773 181.317 39.4251 180.842 39.9395C180.367 40.4473 179.816 40.8574 179.191 41.1699C178.573 41.4759 177.814 41.7135 176.916 41.8828C176.519 41.9609 175.894 42 175.041 42H169.113ZM174.162 29.5098V39.8418C174.162 40.3887 174.188 40.724 174.24 40.8477C174.292 40.9714 174.38 41.0658 174.504 41.1309C174.68 41.2285 174.934 41.2773 175.266 41.2773C176.353 41.2773 177.183 40.9062 177.756 40.1641C178.537 39.1615 178.928 37.6055 178.928 35.4961C178.928 33.7969 178.661 32.4395 178.127 31.4238C177.704 30.6296 177.16 30.0892 176.496 29.8027C176.027 29.6009 175.249 29.5033 174.162 29.5098ZM189.016 40.6523C187.902 41.6354 186.903 42.127 186.018 42.127C185.497 42.127 185.064 41.9577 184.719 41.6191C184.374 41.2741 184.201 40.8444 184.201 40.3301C184.201 39.6335 184.501 39.0085 185.1 38.4551C185.699 37.8952 187.004 37.153 189.016 36.2285V35.3105C189.016 34.6204 188.977 34.1875 188.898 34.0117C188.827 33.8294 188.687 33.6732 188.479 33.543C188.27 33.4062 188.036 33.3379 187.775 33.3379C187.352 33.3379 187.004 33.4323 186.73 33.6211C186.561 33.7383 186.477 33.875 186.477 34.0312C186.477 34.168 186.568 34.3372 186.75 34.5391C186.997 34.819 187.121 35.0892 187.121 35.3496C187.121 35.6686 187.001 35.9421 186.76 36.1699C186.525 36.3913 186.216 36.502 185.832 36.502C185.422 36.502 185.077 36.3783 184.797 36.1309C184.523 35.8835 184.387 35.5938 184.387 35.2617C184.387 34.793 184.572 34.347 184.943 33.9238C185.314 33.4941 185.832 33.1654 186.496 32.9375C187.16 32.7096 187.85 32.5957 188.566 32.5957C189.432 32.5957 190.116 32.7812 190.617 33.1523C191.125 33.5169 191.454 33.9141 191.604 34.3438C191.695 34.6172 191.74 35.2454 191.74 36.2285V39.7734C191.74 40.1901 191.757 40.4538 191.789 40.5645C191.822 40.6686 191.87 40.7467 191.936 40.7988C192.001 40.8509 192.076 40.877 192.16 40.877C192.329 40.877 192.502 40.7565 192.678 40.5156L192.971 40.75C192.645 41.2318 192.307 41.5833 191.955 41.8047C191.61 42.0195 191.216 42.127 190.773 42.127C190.253 42.127 189.846 42.0065 189.553 41.7656C189.26 41.5182 189.081 41.1471 189.016 40.6523ZM189.016 39.9395V36.8828C188.228 37.3451 187.642 37.8398 187.258 38.3672C187.004 38.7188 186.877 39.0736 186.877 39.4316C186.877 39.7311 186.984 39.9948 187.199 40.2227C187.362 40.3984 187.59 40.4863 187.883 40.4863C188.208 40.4863 188.586 40.304 189.016 39.9395ZM197.6 29.5293V32.8691H199.768V33.8359H197.6V39.4707C197.6 39.998 197.622 40.3398 197.668 40.4961C197.72 40.6458 197.808 40.7695 197.932 40.8672C198.055 40.9583 198.169 41.0039 198.273 41.0039C198.697 41.0039 199.097 40.6816 199.475 40.0371L199.768 40.252C199.24 41.502 198.384 42.127 197.199 42.127C196.62 42.127 196.128 41.9674 195.725 41.6484C195.327 41.3229 195.074 40.9616 194.963 40.5645C194.898 40.3431 194.865 39.7441 194.865 38.7676V33.8359H193.674V33.4941C194.494 32.9147 195.191 32.306 195.764 31.668C196.343 31.0299 196.848 30.3171 197.277 29.5293H197.6ZM208.371 37.1074H203.361C203.42 38.3184 203.742 39.2754 204.328 39.9785C204.777 40.5189 205.318 40.7891 205.949 40.7891C206.34 40.7891 206.695 40.6816 207.014 40.4668C207.333 40.2454 207.674 39.8516 208.039 39.2852L208.371 39.5C207.876 40.5091 207.329 41.2253 206.73 41.6484C206.132 42.0651 205.438 42.2734 204.65 42.2734C203.296 42.2734 202.271 41.7526 201.574 40.7109C201.014 39.8711 200.734 38.8294 200.734 37.5859C200.734 36.0625 201.145 34.8516 201.965 33.9531C202.792 33.0482 203.758 32.5957 204.865 32.5957C205.79 32.5957 206.59 32.9766 207.268 33.7383C207.951 34.4935 208.319 35.6165 208.371 37.1074ZM205.969 36.4531C205.969 35.4049 205.91 34.6855 205.793 34.2949C205.682 33.9043 205.507 33.6081 205.266 33.4062C205.129 33.2891 204.947 33.2305 204.719 33.2305C204.38 33.2305 204.104 33.3965 203.889 33.7285C203.505 34.3079 203.312 35.1022 203.312 36.1113V36.4531H205.969Z" fill="black"/>
<path d="M102.991 61.3662V63.7217H104.3C104.64 63.7217 104.867 63.6704 104.981 63.5679C105.134 63.4331 105.219 63.1958 105.236 62.856H105.399V64.9302H105.236C105.195 64.6401 105.154 64.4541 105.113 64.3721C105.061 64.2695 104.974 64.189 104.854 64.1304C104.734 64.0718 104.549 64.0425 104.3 64.0425H102.991V66.0068C102.991 66.2705 103.002 66.4316 103.026 66.4902C103.049 66.5459 103.09 66.5913 103.149 66.6265C103.208 66.6587 103.319 66.6748 103.483 66.6748H104.494C104.831 66.6748 105.075 66.6514 105.228 66.6045C105.38 66.5576 105.526 66.4653 105.667 66.3276C105.849 66.146 106.035 65.8721 106.225 65.5059H106.401L105.887 67H101.294V66.8374H101.505C101.646 66.8374 101.779 66.8037 101.905 66.7363C101.999 66.6895 102.062 66.6191 102.094 66.5254C102.129 66.4316 102.147 66.2397 102.147 65.9497V62.0781C102.147 61.7002 102.109 61.4673 102.033 61.3794C101.927 61.2622 101.751 61.2036 101.505 61.2036H101.294V61.041H105.887L105.953 62.3462H105.781C105.72 62.0327 105.651 61.8174 105.575 61.7002C105.501 61.583 105.392 61.4937 105.245 61.4321C105.128 61.3882 104.921 61.3662 104.625 61.3662H102.991ZM106.687 62.9746H108.581V63.1372H108.458C108.343 63.1372 108.255 63.165 108.194 63.2207C108.135 63.2764 108.106 63.3511 108.106 63.4448C108.106 63.5474 108.137 63.6689 108.198 63.8096L109.134 66.0332L110.075 63.7261C110.142 63.562 110.176 63.4375 110.176 63.3525C110.176 63.3115 110.164 63.2778 110.141 63.2515C110.108 63.2075 110.067 63.1782 110.018 63.1636C109.968 63.146 109.867 63.1372 109.714 63.1372V62.9746H111.028V63.1372C110.876 63.1489 110.771 63.1797 110.712 63.2295C110.609 63.3174 110.517 63.4639 110.435 63.6689L109.007 67.123H108.827L107.39 63.7261C107.325 63.5679 107.264 63.4551 107.205 63.3877C107.146 63.3174 107.072 63.2588 106.981 63.2119C106.931 63.1855 106.833 63.1606 106.687 63.1372V62.9746ZM112.07 64.4907C112.067 65.0884 112.212 65.5571 112.505 65.897C112.798 66.2368 113.142 66.4067 113.538 66.4067C113.801 66.4067 114.03 66.335 114.223 66.1914C114.419 66.0449 114.583 65.7959 114.715 65.4443L114.852 65.5322C114.79 65.9336 114.611 66.2998 114.315 66.6309C114.02 66.959 113.649 67.123 113.204 67.123C112.72 67.123 112.306 66.9355 111.96 66.5605C111.617 66.1826 111.446 65.6758 111.446 65.04C111.446 64.3516 111.622 63.8154 111.973 63.4316C112.328 63.0449 112.771 62.8516 113.305 62.8516C113.756 62.8516 114.126 63.001 114.417 63.2998C114.707 63.5957 114.852 63.9927 114.852 64.4907H112.07ZM112.07 64.2358H113.933C113.918 63.978 113.888 63.7964 113.841 63.6909C113.768 63.5269 113.658 63.3979 113.511 63.3042C113.368 63.2104 113.217 63.1636 113.059 63.1636C112.815 63.1636 112.597 63.2588 112.404 63.4492C112.213 63.6367 112.102 63.8989 112.07 64.2358ZM116.565 63.7085C117.037 63.1401 117.487 62.856 117.915 62.856C118.134 62.856 118.323 62.9116 118.481 63.0229C118.64 63.1313 118.766 63.3115 118.859 63.5635C118.924 63.7393 118.956 64.0088 118.956 64.3721V66.0903C118.956 66.3452 118.977 66.5181 119.018 66.6089C119.05 66.6821 119.101 66.7393 119.171 66.7803C119.245 66.8213 119.378 66.8418 119.571 66.8418V67H117.581V66.8418H117.664C117.852 66.8418 117.982 66.814 118.055 66.7583C118.131 66.6997 118.184 66.6147 118.213 66.5034C118.225 66.4595 118.231 66.3218 118.231 66.0903V64.4424C118.231 64.0762 118.183 63.811 118.086 63.647C117.992 63.48 117.833 63.3965 117.607 63.3965C117.258 63.3965 116.911 63.5869 116.565 63.9678V66.0903C116.565 66.3628 116.582 66.5312 116.614 66.5957C116.655 66.6807 116.71 66.7437 116.781 66.7847C116.854 66.8228 117 66.8418 117.22 66.8418V67H115.229V66.8418H115.317C115.522 66.8418 115.66 66.7905 115.73 66.688C115.804 66.5825 115.84 66.3833 115.84 66.0903V64.5962C115.84 64.1128 115.829 63.8184 115.805 63.7129C115.785 63.6074 115.751 63.5356 115.704 63.4976C115.66 63.4595 115.6 63.4404 115.524 63.4404C115.442 63.4404 115.344 63.4624 115.229 63.5063L115.164 63.3481L116.376 62.856H116.565V63.7085ZM121.061 61.6519V62.9746H122.001V63.2822H121.061V65.8926C121.061 66.1533 121.098 66.3291 121.171 66.4199C121.247 66.5107 121.344 66.5562 121.461 66.5562C121.558 66.5562 121.651 66.5269 121.742 66.4683C121.833 66.4067 121.903 66.3174 121.953 66.2002H122.125C122.022 66.4873 121.877 66.7041 121.689 66.8506C121.502 66.9941 121.309 67.0659 121.109 67.0659C120.975 67.0659 120.843 67.0293 120.714 66.9561C120.585 66.8799 120.49 66.7729 120.428 66.6353C120.367 66.4946 120.336 66.2793 120.336 65.9893V63.2822H119.699V63.1372C119.86 63.0728 120.024 62.9644 120.191 62.812C120.361 62.6567 120.512 62.4736 120.644 62.2627C120.711 62.1514 120.805 61.9478 120.925 61.6519H121.061ZM124.52 67V66.8374H124.744C124.996 66.8374 125.174 66.7568 125.28 66.5957C125.344 66.499 125.376 66.2822 125.376 65.9453V62.0957C125.376 61.7236 125.335 61.4907 125.253 61.397C125.139 61.2681 124.969 61.2036 124.744 61.2036H124.52V61.041H126.945C127.836 61.041 128.513 61.1421 128.976 61.3442C129.441 61.5464 129.815 61.8833 130.096 62.355C130.38 62.8267 130.522 63.3716 130.522 63.9897C130.522 64.8188 130.271 65.5117 129.767 66.0684C129.201 66.6895 128.34 67 127.183 67H124.52ZM126.22 66.5693C126.592 66.6514 126.904 66.6924 127.156 66.6924C127.836 66.6924 128.4 66.4536 128.848 65.9761C129.296 65.4985 129.521 64.8511 129.521 64.0337C129.521 63.2104 129.296 62.5615 128.848 62.0869C128.4 61.6123 127.824 61.375 127.121 61.375C126.857 61.375 126.557 61.4175 126.22 61.5024V66.5693ZM133.432 66.4199C133.019 66.7393 132.759 66.9238 132.654 66.9736C132.496 67.0469 132.327 67.0835 132.148 67.0835C131.87 67.0835 131.64 66.9883 131.458 66.7979C131.28 66.6074 131.19 66.3569 131.19 66.0464C131.19 65.8501 131.234 65.6802 131.322 65.5366C131.442 65.3374 131.65 65.1499 131.946 64.9741C132.245 64.7983 132.74 64.5845 133.432 64.3325V64.1743C133.432 63.7729 133.367 63.4976 133.238 63.3481C133.112 63.1987 132.928 63.124 132.685 63.124C132.5 63.124 132.354 63.1738 132.245 63.2734C132.134 63.373 132.078 63.4873 132.078 63.6162L132.087 63.8711C132.087 64.0059 132.052 64.1099 131.981 64.1831C131.914 64.2563 131.825 64.293 131.713 64.293C131.605 64.293 131.516 64.2549 131.445 64.1787C131.378 64.1025 131.344 63.9985 131.344 63.8667C131.344 63.6147 131.473 63.3833 131.731 63.1724C131.989 62.9614 132.351 62.856 132.816 62.856C133.174 62.856 133.467 62.916 133.695 63.0361C133.868 63.127 133.996 63.269 134.078 63.4624C134.13 63.5884 134.157 63.8462 134.157 64.2358V65.6025C134.157 65.9863 134.164 66.2222 134.179 66.3101C134.193 66.395 134.217 66.4521 134.249 66.4814C134.284 66.5107 134.324 66.5254 134.368 66.5254C134.415 66.5254 134.456 66.5151 134.491 66.4946C134.552 66.4565 134.671 66.3496 134.847 66.1738V66.4199C134.519 66.8594 134.205 67.0791 133.906 67.0791C133.763 67.0791 133.648 67.0293 133.563 66.9297C133.479 66.8301 133.435 66.6602 133.432 66.4199ZM133.432 66.1343V64.6006C132.989 64.7764 132.704 64.9009 132.575 64.9741C132.343 65.103 132.178 65.2378 132.078 65.3784C131.979 65.519 131.929 65.6729 131.929 65.8398C131.929 66.0508 131.992 66.2266 132.118 66.3672C132.244 66.5049 132.389 66.5737 132.553 66.5737C132.775 66.5737 133.068 66.4272 133.432 66.1343ZM136.319 61.6519V62.9746H137.259V63.2822H136.319V65.8926C136.319 66.1533 136.355 66.3291 136.429 66.4199C136.505 66.5107 136.602 66.5562 136.719 66.5562C136.815 66.5562 136.909 66.5269 137 66.4683C137.091 66.4067 137.161 66.3174 137.211 66.2002H137.382C137.28 66.4873 137.135 66.7041 136.947 66.8506C136.76 66.9941 136.566 67.0659 136.367 67.0659C136.232 67.0659 136.101 67.0293 135.972 66.9561C135.843 66.8799 135.748 66.7729 135.686 66.6353C135.625 66.4946 135.594 66.2793 135.594 65.9893V63.2822H134.957V63.1372C135.118 63.0728 135.282 62.9644 135.449 62.812C135.619 62.6567 135.77 62.4736 135.901 62.2627C135.969 62.1514 136.062 61.9478 136.183 61.6519H136.319ZM138.332 64.4907C138.329 65.0884 138.474 65.5571 138.767 65.897C139.06 66.2368 139.404 66.4067 139.799 66.4067C140.063 66.4067 140.292 66.335 140.485 66.1914C140.681 66.0449 140.845 65.7959 140.977 65.4443L141.113 65.5322C141.052 65.9336 140.873 66.2998 140.577 66.6309C140.281 66.959 139.911 67.123 139.465 67.123C138.982 67.123 138.567 66.9355 138.222 66.5605C137.879 66.1826 137.708 65.6758 137.708 65.04C137.708 64.3516 137.883 63.8154 138.235 63.4316C138.589 63.0449 139.033 62.8516 139.566 62.8516C140.018 62.8516 140.388 63.001 140.678 63.2998C140.968 63.5957 141.113 63.9927 141.113 64.4907H138.332ZM138.332 64.2358H140.195C140.18 63.978 140.149 63.7964 140.103 63.6909C140.029 63.5269 139.919 63.3979 139.773 63.3042C139.629 63.2104 139.479 63.1636 139.32 63.1636C139.077 63.1636 138.859 63.2588 138.666 63.4492C138.475 63.6367 138.364 63.8989 138.332 64.2358ZM142.643 62.8516C142.777 62.8516 142.892 62.8999 142.985 62.9966C143.082 63.0903 143.13 63.2046 143.13 63.3394C143.13 63.4741 143.082 63.5898 142.985 63.6865C142.892 63.7803 142.777 63.8271 142.643 63.8271C142.508 63.8271 142.392 63.7803 142.295 63.6865C142.202 63.5898 142.155 63.4741 142.155 63.3394C142.155 63.2046 142.202 63.0903 142.295 62.9966C142.392 62.8999 142.508 62.8516 142.643 62.8516ZM142.634 66.1431C142.771 66.1431 142.887 66.1914 142.981 66.2881C143.078 66.3848 143.126 66.5005 143.126 66.6353C143.126 66.77 143.078 66.8857 142.981 66.9824C142.884 67.0762 142.769 67.123 142.634 67.123C142.499 67.123 142.383 67.0762 142.287 66.9824C142.193 66.8857 142.146 66.77 142.146 66.6353C142.146 66.5005 142.193 66.3848 142.287 66.2881C142.383 66.1914 142.499 66.1431 142.634 66.1431ZM146.009 61.041H147.626L151.269 65.5103V62.0737C151.269 61.7075 151.228 61.479 151.146 61.3882C151.038 61.2651 150.866 61.2036 150.632 61.2036H150.425V61.041H152.5V61.2036H152.289C152.037 61.2036 151.858 61.2798 151.752 61.4321C151.688 61.5259 151.656 61.7397 151.656 62.0737V67.0967H151.498L147.569 62.2979V65.9673C147.569 66.3335 147.608 66.562 147.688 66.6528C147.799 66.7759 147.97 66.8374 148.202 66.8374H148.413V67H146.338V66.8374H146.545C146.8 66.8374 146.98 66.7612 147.085 66.6089C147.15 66.5151 147.182 66.3013 147.182 65.9673V61.8232C147.009 61.6211 146.877 61.4878 146.787 61.4233C146.699 61.3589 146.568 61.2988 146.396 61.2432C146.311 61.2168 146.182 61.2036 146.009 61.2036V61.041ZM153.589 64.4907C153.586 65.0884 153.731 65.5571 154.024 65.897C154.317 66.2368 154.662 66.4067 155.057 66.4067C155.321 66.4067 155.549 66.335 155.743 66.1914C155.939 66.0449 156.103 65.7959 156.235 65.4443L156.371 65.5322C156.31 65.9336 156.131 66.2998 155.835 66.6309C155.539 66.959 155.168 67.123 154.723 67.123C154.24 67.123 153.825 66.9355 153.479 66.5605C153.137 66.1826 152.965 65.6758 152.965 65.04C152.965 64.3516 153.141 63.8154 153.493 63.4316C153.847 63.0449 154.291 62.8516 154.824 62.8516C155.275 62.8516 155.646 63.001 155.936 63.2998C156.226 63.5957 156.371 63.9927 156.371 64.4907H153.589ZM153.589 64.2358H155.453C155.438 63.978 155.407 63.7964 155.36 63.6909C155.287 63.5269 155.177 63.3979 155.031 63.3042C154.887 63.2104 154.736 63.1636 154.578 63.1636C154.335 63.1636 154.117 63.2588 153.923 63.4492C153.733 63.6367 153.622 63.8989 153.589 64.2358ZM156.749 62.9746H158.643V63.1372C158.523 63.1372 158.438 63.1577 158.388 63.1987C158.341 63.2397 158.318 63.2939 158.318 63.3613C158.318 63.4316 158.369 63.54 158.472 63.6865C158.504 63.7334 158.552 63.8066 158.617 63.9062L158.902 64.3633L159.232 63.9062C159.443 63.6162 159.548 63.4331 159.548 63.3569C159.548 63.2954 159.523 63.2441 159.474 63.2031C159.424 63.1592 159.343 63.1372 159.232 63.1372V62.9746H160.594V63.1372C160.451 63.146 160.326 63.1855 160.221 63.2559C160.077 63.3555 159.881 63.5723 159.632 63.9062L159.083 64.6401L160.084 66.0815C160.331 66.436 160.506 66.6499 160.612 66.7231C160.717 66.7935 160.854 66.833 161.021 66.8418V67H159.122V66.8418C159.254 66.8418 159.356 66.8125 159.43 66.7539C159.485 66.7129 159.513 66.6587 159.513 66.5913C159.513 66.5239 159.419 66.354 159.232 66.0815L158.643 65.2202L157.997 66.0815C157.798 66.3481 157.698 66.5063 157.698 66.5562C157.698 66.6265 157.73 66.6909 157.795 66.7495C157.862 66.8052 157.962 66.8359 158.094 66.8418V67H156.78V66.8418C156.885 66.8271 156.978 66.7905 157.057 66.7319C157.168 66.647 157.355 66.4302 157.619 66.0815L158.463 64.9609L157.698 63.8535C157.481 63.5371 157.313 63.3394 157.193 63.2603C157.076 63.1782 156.928 63.1372 156.749 63.1372V62.9746ZM162.581 61.6519V62.9746H163.521V63.2822H162.581V65.8926C162.581 66.1533 162.617 66.3291 162.69 66.4199C162.767 66.5107 162.863 66.5562 162.98 66.5562C163.077 66.5562 163.171 66.5269 163.262 66.4683C163.353 66.4067 163.423 66.3174 163.473 66.2002H163.644C163.542 66.4873 163.396 66.7041 163.209 66.8506C163.021 66.9941 162.828 67.0659 162.629 67.0659C162.494 67.0659 162.362 67.0293 162.233 66.9561C162.104 66.8799 162.009 66.7729 161.948 66.6353C161.886 66.4946 161.855 66.2793 161.855 65.9893V63.2822H161.218V63.1372C161.379 63.0728 161.543 62.9644 161.71 62.812C161.88 62.6567 162.031 62.4736 162.163 62.2627C162.23 62.1514 162.324 61.9478 162.444 61.6519H162.581ZM171.093 61.041L171.159 62.4385H170.992C170.959 62.1924 170.916 62.0166 170.86 61.9111C170.769 61.7412 170.647 61.6167 170.495 61.5376C170.346 61.4556 170.148 61.4146 169.902 61.4146H169.062V65.9673C169.062 66.3335 169.102 66.562 169.181 66.6528C169.292 66.7759 169.464 66.8374 169.695 66.8374H169.902V67H167.375V66.8374H167.586C167.838 66.8374 168.017 66.7612 168.122 66.6089C168.187 66.5151 168.219 66.3013 168.219 65.9673V61.4146H167.502C167.224 61.4146 167.026 61.4351 166.909 61.4761C166.757 61.5317 166.626 61.6387 166.518 61.7969C166.41 61.9551 166.345 62.1689 166.325 62.4385H166.158L166.228 61.041H171.093ZM172.851 60.751V63.6953C173.176 63.3379 173.434 63.1094 173.624 63.0098C173.814 62.9072 174.005 62.856 174.195 62.856C174.424 62.856 174.62 62.9189 174.784 63.0449C174.948 63.1709 175.07 63.3687 175.149 63.6382C175.205 63.8257 175.232 64.1685 175.232 64.6665V66.0903C175.232 66.3452 175.253 66.5195 175.294 66.6133C175.323 66.6836 175.373 66.7393 175.443 66.7803C175.514 66.8213 175.643 66.8418 175.83 66.8418V67H173.853V66.8418H173.945C174.132 66.8418 174.263 66.814 174.336 66.7583C174.409 66.6997 174.46 66.6147 174.49 66.5034C174.499 66.4565 174.503 66.3188 174.503 66.0903V64.6665C174.503 64.2271 174.479 63.9385 174.433 63.8008C174.389 63.6631 174.317 63.5605 174.217 63.4932C174.118 63.4229 173.998 63.3877 173.857 63.3877C173.713 63.3877 173.564 63.4258 173.409 63.502C173.253 63.5781 173.067 63.7319 172.851 63.9634V66.0903C172.851 66.3657 172.865 66.5371 172.895 66.6045C172.927 66.6719 172.984 66.729 173.066 66.7759C173.151 66.8198 173.296 66.8418 173.501 66.8418V67H171.506V66.8418C171.685 66.8418 171.825 66.814 171.928 66.7583C171.986 66.729 172.033 66.6733 172.068 66.5913C172.104 66.5093 172.121 66.3423 172.121 66.0903V62.4473C172.121 61.9873 172.109 61.7046 172.086 61.5991C172.065 61.4937 172.032 61.4219 171.985 61.3838C171.941 61.3457 171.881 61.3267 171.805 61.3267C171.743 61.3267 171.644 61.3501 171.506 61.397L171.444 61.2432L172.648 60.751H172.851ZM179.697 62.9746V65.4136C179.697 65.8794 179.708 66.165 179.728 66.2705C179.751 66.373 179.787 66.4448 179.833 66.4858C179.883 66.5269 179.94 66.5474 180.005 66.5474C180.096 66.5474 180.198 66.5225 180.312 66.4727L180.374 66.6265L179.17 67.123H178.972V66.2705C178.626 66.6455 178.363 66.8813 178.181 66.978C178 67.0747 177.808 67.123 177.605 67.123C177.38 67.123 177.184 67.0586 177.017 66.9297C176.853 66.7979 176.738 66.6294 176.674 66.4243C176.609 66.2192 176.577 65.9292 176.577 65.5542V63.7568C176.577 63.5664 176.557 63.4346 176.516 63.3613C176.475 63.2881 176.413 63.2324 176.331 63.1943C176.252 63.1533 176.107 63.1343 175.896 63.1372V62.9746H177.307V65.6685C177.307 66.0435 177.371 66.2896 177.5 66.4067C177.632 66.5239 177.79 66.5825 177.975 66.5825C178.101 66.5825 178.243 66.543 178.401 66.4639C178.562 66.3848 178.752 66.2339 178.972 66.0112V63.7305C178.972 63.502 178.93 63.3481 178.845 63.269C178.763 63.187 178.59 63.1431 178.326 63.1372V62.9746H179.697ZM181.846 62.856V63.7612C182.183 63.1577 182.529 62.856 182.883 62.856C183.044 62.856 183.178 62.9058 183.283 63.0054C183.389 63.1021 183.441 63.2148 183.441 63.3438C183.441 63.458 183.403 63.5547 183.327 63.6338C183.251 63.7129 183.16 63.7524 183.055 63.7524C182.952 63.7524 182.836 63.7026 182.708 63.603C182.582 63.5005 182.488 63.4492 182.426 63.4492C182.374 63.4492 182.316 63.4785 182.255 63.5371C182.123 63.6572 181.987 63.855 181.846 64.1304V66.0596C181.846 66.2822 181.874 66.4507 181.93 66.5649C181.968 66.644 182.035 66.71 182.132 66.7627C182.229 66.8154 182.368 66.8418 182.549 66.8418V67H180.488V66.8418C180.693 66.8418 180.846 66.8096 180.945 66.7451C181.019 66.6982 181.07 66.6235 181.099 66.521C181.114 66.4712 181.121 66.3291 181.121 66.0947V64.5347C181.121 64.0659 181.111 63.7876 181.09 63.6997C181.073 63.6089 181.038 63.543 180.985 63.502C180.935 63.4609 180.872 63.4404 180.796 63.4404C180.705 63.4404 180.603 63.4624 180.488 63.5063L180.444 63.3481L181.662 62.856H181.846ZM186.267 62.856V64.2271H186.122C186.011 63.7964 185.867 63.5034 185.691 63.3481C185.519 63.1929 185.297 63.1152 185.028 63.1152C184.823 63.1152 184.657 63.1694 184.531 63.2778C184.405 63.3862 184.342 63.5063 184.342 63.6382C184.342 63.8022 184.389 63.9429 184.483 64.0601C184.574 64.1802 184.758 64.3076 185.037 64.4424L185.678 64.7544C186.273 65.0444 186.57 65.4268 186.57 65.9014C186.57 66.2676 186.431 66.5635 186.153 66.7891C185.877 67.0117 185.568 67.123 185.226 67.123C184.979 67.123 184.698 67.0791 184.382 66.9912C184.285 66.9619 184.206 66.9473 184.145 66.9473C184.077 66.9473 184.024 66.9854 183.986 67.0615H183.841V65.6245H183.986C184.068 66.0347 184.225 66.3438 184.457 66.5518C184.688 66.7598 184.947 66.8638 185.234 66.8638C185.437 66.8638 185.601 66.8052 185.727 66.688C185.855 66.5679 185.92 66.4243 185.92 66.2573C185.92 66.0552 185.848 65.8853 185.705 65.7476C185.564 65.6099 185.281 65.4355 184.856 65.2246C184.432 65.0137 184.153 64.8232 184.021 64.6533C183.89 64.4863 183.824 64.2754 183.824 64.0205C183.824 63.6895 183.937 63.4126 184.162 63.1899C184.391 62.9673 184.685 62.856 185.045 62.856C185.204 62.856 185.396 62.8896 185.621 62.957C185.771 63.001 185.87 63.0229 185.92 63.0229C185.967 63.0229 186.003 63.0127 186.03 62.9922C186.056 62.9717 186.087 62.9263 186.122 62.856H186.267ZM190.016 66.5474C189.819 66.7524 189.627 66.9004 189.44 66.9912C189.252 67.0791 189.05 67.123 188.833 67.123C188.394 67.123 188.01 66.9399 187.682 66.5737C187.354 66.2046 187.19 65.7314 187.19 65.1543C187.19 64.5771 187.372 64.0498 187.735 63.5723C188.098 63.0918 188.565 62.8516 189.137 62.8516C189.491 62.8516 189.784 62.9644 190.016 63.1899V62.4473C190.016 61.9873 190.004 61.7046 189.98 61.5991C189.96 61.4937 189.926 61.4219 189.879 61.3838C189.833 61.3457 189.774 61.3267 189.704 61.3267C189.627 61.3267 189.526 61.3501 189.4 61.397L189.343 61.2432L190.543 60.751H190.741V65.4048C190.741 65.8765 190.751 66.165 190.771 66.2705C190.795 66.373 190.83 66.4448 190.877 66.4858C190.927 66.5269 190.984 66.5474 191.048 66.5474C191.127 66.5474 191.233 66.5225 191.365 66.4727L191.413 66.6265L190.218 67.123H190.016V66.5474ZM190.016 66.2397V64.1655C189.998 63.9663 189.945 63.7847 189.857 63.6206C189.77 63.4565 189.652 63.3335 189.506 63.2515C189.362 63.1665 189.222 63.124 189.084 63.124C188.826 63.124 188.596 63.2397 188.394 63.4712C188.127 63.7759 187.994 64.2212 187.994 64.8071C187.994 65.3989 188.123 65.853 188.381 66.1694C188.639 66.4829 188.926 66.6396 189.242 66.6396C189.509 66.6396 189.767 66.5063 190.016 66.2397ZM193.953 66.4199C193.54 66.7393 193.281 66.9238 193.175 66.9736C193.017 67.0469 192.849 67.0835 192.67 67.0835C192.392 67.0835 192.162 66.9883 191.98 66.7979C191.801 66.6074 191.712 66.3569 191.712 66.0464C191.712 65.8501 191.756 65.6802 191.844 65.5366C191.964 65.3374 192.172 65.1499 192.468 64.9741C192.767 64.7983 193.262 64.5845 193.953 64.3325V64.1743C193.953 63.7729 193.889 63.4976 193.76 63.3481C193.634 63.1987 193.449 63.124 193.206 63.124C193.021 63.124 192.875 63.1738 192.767 63.2734C192.655 63.373 192.6 63.4873 192.6 63.6162L192.608 63.8711C192.608 64.0059 192.573 64.1099 192.503 64.1831C192.436 64.2563 192.346 64.293 192.235 64.293C192.126 64.293 192.037 64.2549 191.967 64.1787C191.899 64.1025 191.866 63.9985 191.866 63.8667C191.866 63.6147 191.995 63.3833 192.252 63.1724C192.51 62.9614 192.872 62.856 193.338 62.856C193.695 62.856 193.988 62.916 194.217 63.0361C194.39 63.127 194.517 63.269 194.599 63.4624C194.652 63.5884 194.678 63.8462 194.678 64.2358V65.6025C194.678 65.9863 194.686 66.2222 194.7 66.3101C194.715 66.395 194.738 66.4521 194.771 66.4814C194.806 66.5107 194.845 66.5254 194.889 66.5254C194.936 66.5254 194.977 66.5151 195.012 66.4946C195.074 66.4565 195.192 66.3496 195.368 66.1738V66.4199C195.04 66.8594 194.727 67.0791 194.428 67.0791C194.284 67.0791 194.17 67.0293 194.085 66.9297C194 66.8301 193.956 66.6602 193.953 66.4199ZM193.953 66.1343V64.6006C193.511 64.7764 193.225 64.9009 193.096 64.9741C192.865 65.103 192.699 65.2378 192.6 65.3784C192.5 65.519 192.45 65.6729 192.45 65.8398C192.45 66.0508 192.513 66.2266 192.639 66.3672C192.765 66.5049 192.91 66.5737 193.074 66.5737C193.297 66.5737 193.59 66.4272 193.953 66.1343ZM195.443 62.9746H197.319V63.1372H197.227C197.095 63.1372 196.996 63.1665 196.928 63.2251C196.864 63.2808 196.832 63.3511 196.832 63.436C196.832 63.5503 196.88 63.7085 196.977 63.9106L197.957 65.9409L198.857 63.7173C198.907 63.5972 198.932 63.4785 198.932 63.3613C198.932 63.3086 198.922 63.269 198.901 63.2427C198.878 63.2104 198.841 63.1855 198.792 63.168C198.742 63.1475 198.654 63.1372 198.528 63.1372V62.9746H199.837V63.1372C199.729 63.1489 199.646 63.1724 199.587 63.2075C199.528 63.2427 199.464 63.3086 199.394 63.4053C199.367 63.4463 199.317 63.5591 199.244 63.7437L197.605 67.7603C197.447 68.1499 197.239 68.4443 196.981 68.6436C196.726 68.8428 196.48 68.9424 196.243 68.9424C196.07 68.9424 195.928 68.8926 195.816 68.793C195.705 68.6934 195.649 68.5791 195.649 68.4502C195.649 68.3271 195.689 68.2275 195.768 68.1514C195.85 68.0781 195.961 68.0415 196.102 68.0415C196.199 68.0415 196.331 68.0737 196.498 68.1382C196.615 68.1821 196.688 68.2041 196.717 68.2041C196.805 68.2041 196.9 68.1587 197.003 68.0679C197.108 67.9771 197.214 67.8013 197.319 67.5405L197.605 66.8418L196.159 63.8052C196.115 63.7144 196.045 63.6016 195.948 63.4668C195.875 63.3643 195.815 63.2954 195.768 63.2603C195.701 63.2134 195.592 63.1724 195.443 63.1372V62.9746Z" fill="black"/>
<path d="M102.639 85.3521L102.784 85.3828L102.274 87H97.6602V86.8374H97.8843C98.1362 86.8374 98.3164 86.7554 98.4248 86.5913C98.4863 86.4976 98.5171 86.2808 98.5171 85.9409V82.0957C98.5171 81.7236 98.4761 81.4907 98.394 81.397C98.2798 81.2681 98.1099 81.2036 97.8843 81.2036H97.6602V81.041H100.358V81.2036C100.042 81.2007 99.8193 81.23 99.6904 81.2915C99.5645 81.353 99.478 81.4307 99.4312 81.5244C99.3843 81.6182 99.3608 81.8423 99.3608 82.1968V85.9409C99.3608 86.1841 99.3843 86.3511 99.4312 86.4419C99.4663 86.5034 99.5205 86.5488 99.5938 86.5781C99.667 86.6074 99.8955 86.6221 100.279 86.6221H100.714C101.171 86.6221 101.492 86.5884 101.677 86.521C101.861 86.4536 102.03 86.335 102.182 86.165C102.334 85.9922 102.487 85.7212 102.639 85.3521ZM105.232 82.856C105.841 82.856 106.331 83.0874 106.7 83.5503C107.013 83.9458 107.17 84.3999 107.17 84.9126C107.17 85.2729 107.083 85.6377 106.911 86.0068C106.738 86.376 106.499 86.6543 106.194 86.8418C105.893 87.0293 105.556 87.123 105.184 87.123C104.577 87.123 104.095 86.8813 103.738 86.3979C103.436 85.9907 103.285 85.5337 103.285 85.0269C103.285 84.6577 103.376 84.2915 103.558 83.9282C103.742 83.562 103.984 83.2925 104.283 83.1196C104.582 82.9438 104.898 82.856 105.232 82.856ZM105.096 83.1416C104.94 83.1416 104.784 83.1885 104.625 83.2822C104.47 83.373 104.344 83.5342 104.248 83.7656C104.151 83.9971 104.103 84.2944 104.103 84.6577C104.103 85.2437 104.218 85.749 104.45 86.1738C104.684 86.5986 104.992 86.811 105.373 86.811C105.657 86.811 105.891 86.6938 106.076 86.4595C106.26 86.2251 106.353 85.8223 106.353 85.251C106.353 84.5361 106.199 83.9736 105.891 83.5635C105.683 83.2822 105.418 83.1416 105.096 83.1416ZM111.182 85.4707C111.074 86.001 110.861 86.4097 110.545 86.6968C110.229 86.981 109.878 87.123 109.495 87.123C109.038 87.123 108.639 86.9312 108.299 86.5474C107.959 86.1636 107.79 85.645 107.79 84.9917C107.79 84.3589 107.977 83.8447 108.352 83.4492C108.73 83.0537 109.183 82.856 109.71 82.856C110.105 82.856 110.431 82.9614 110.686 83.1724C110.94 83.3804 111.068 83.5972 111.068 83.8228C111.068 83.9341 111.031 84.0249 110.958 84.0952C110.888 84.1626 110.788 84.1963 110.659 84.1963C110.486 84.1963 110.356 84.1406 110.268 84.0293C110.218 83.9678 110.185 83.8506 110.167 83.6777C110.152 83.5049 110.094 83.373 109.991 83.2822C109.889 83.1943 109.747 83.1504 109.565 83.1504C109.272 83.1504 109.036 83.2588 108.857 83.4756C108.62 83.7627 108.501 84.1421 108.501 84.6138C108.501 85.0942 108.619 85.519 108.853 85.8882C109.09 86.2544 109.41 86.4375 109.811 86.4375C110.098 86.4375 110.356 86.3394 110.584 86.1431C110.746 86.0083 110.902 85.7637 111.055 85.4092L111.182 85.4707ZM114.043 86.4199C113.63 86.7393 113.371 86.9238 113.265 86.9736C113.107 87.0469 112.938 87.0835 112.76 87.0835C112.481 87.0835 112.251 86.9883 112.07 86.7979C111.891 86.6074 111.802 86.3569 111.802 86.0464C111.802 85.8501 111.846 85.6802 111.934 85.5366C112.054 85.3374 112.262 85.1499 112.558 84.9741C112.856 84.7983 113.352 84.5845 114.043 84.3325V84.1743C114.043 83.7729 113.979 83.4976 113.85 83.3481C113.724 83.1987 113.539 83.124 113.296 83.124C113.111 83.124 112.965 83.1738 112.856 83.2734C112.745 83.373 112.689 83.4873 112.689 83.6162L112.698 83.8711C112.698 84.0059 112.663 84.1099 112.593 84.1831C112.525 84.2563 112.436 84.293 112.325 84.293C112.216 84.293 112.127 84.2549 112.057 84.1787C111.989 84.1025 111.956 83.9985 111.956 83.8667C111.956 83.6147 112.084 83.3833 112.342 83.1724C112.6 82.9614 112.962 82.856 113.428 82.856C113.785 82.856 114.078 82.916 114.307 83.0361C114.479 83.127 114.607 83.269 114.689 83.4624C114.742 83.5884 114.768 83.8462 114.768 84.2358V85.6025C114.768 85.9863 114.775 86.2222 114.79 86.3101C114.805 86.395 114.828 86.4521 114.86 86.4814C114.896 86.5107 114.935 86.5254 114.979 86.5254C115.026 86.5254 115.067 86.5151 115.102 86.4946C115.164 86.4565 115.282 86.3496 115.458 86.1738V86.4199C115.13 86.8594 114.816 87.0791 114.518 87.0791C114.374 87.0791 114.26 87.0293 114.175 86.9297C114.09 86.8301 114.046 86.6602 114.043 86.4199ZM114.043 86.1343V84.6006C113.601 84.7764 113.315 84.9009 113.186 84.9741C112.955 85.103 112.789 85.2378 112.689 85.3784C112.59 85.519 112.54 85.6729 112.54 85.8398C112.54 86.0508 112.603 86.2266 112.729 86.3672C112.855 86.5049 113 86.5737 113.164 86.5737C113.387 86.5737 113.68 86.4272 114.043 86.1343ZM116.93 81.6519V82.9746H117.871V83.2822H116.93V85.8926C116.93 86.1533 116.967 86.3291 117.04 86.4199C117.116 86.5107 117.213 86.5562 117.33 86.5562C117.427 86.5562 117.521 86.5269 117.611 86.4683C117.702 86.4067 117.772 86.3174 117.822 86.2002H117.994C117.891 86.4873 117.746 86.7041 117.559 86.8506C117.371 86.9941 117.178 87.0659 116.979 87.0659C116.844 87.0659 116.712 87.0293 116.583 86.9561C116.454 86.8799 116.359 86.7729 116.297 86.6353C116.236 86.4946 116.205 86.2793 116.205 85.9893V83.2822H115.568V83.1372C115.729 83.0728 115.893 82.9644 116.06 82.812C116.23 82.6567 116.381 82.4736 116.513 82.2627C116.58 82.1514 116.674 81.9478 116.794 81.6519H116.93ZM119.29 80.751C119.413 80.751 119.517 80.7949 119.602 80.8828C119.69 80.9678 119.734 81.0718 119.734 81.1948C119.734 81.3179 119.69 81.4233 119.602 81.5112C119.517 81.5991 119.413 81.6431 119.29 81.6431C119.167 81.6431 119.062 81.5991 118.974 81.5112C118.886 81.4233 118.842 81.3179 118.842 81.1948C118.842 81.0718 118.884 80.9678 118.969 80.8828C119.057 80.7949 119.164 80.751 119.29 80.751ZM119.655 82.856V86.0903C119.655 86.3423 119.672 86.5107 119.708 86.5957C119.746 86.6777 119.8 86.7393 119.87 86.7803C119.943 86.8213 120.075 86.8418 120.266 86.8418V87H118.31V86.8418C118.506 86.8418 118.638 86.8228 118.706 86.7847C118.773 86.7466 118.826 86.6836 118.864 86.5957C118.905 86.5078 118.925 86.3394 118.925 86.0903V84.5391C118.925 84.1025 118.912 83.8198 118.886 83.6909C118.865 83.5972 118.833 83.5327 118.789 83.4976C118.745 83.4595 118.685 83.4404 118.609 83.4404C118.527 83.4404 118.427 83.4624 118.31 83.5063L118.249 83.3481L119.461 82.856H119.655ZM122.74 82.856C123.349 82.856 123.838 83.0874 124.208 83.5503C124.521 83.9458 124.678 84.3999 124.678 84.9126C124.678 85.2729 124.591 85.6377 124.418 86.0068C124.246 86.376 124.007 86.6543 123.702 86.8418C123.4 87.0293 123.063 87.123 122.691 87.123C122.085 87.123 121.603 86.8813 121.246 86.3979C120.944 85.9907 120.793 85.5337 120.793 85.0269C120.793 84.6577 120.884 84.2915 121.065 83.9282C121.25 83.562 121.492 83.2925 121.791 83.1196C122.089 82.9438 122.406 82.856 122.74 82.856ZM122.604 83.1416C122.448 83.1416 122.292 83.1885 122.133 83.2822C121.978 83.373 121.852 83.5342 121.755 83.7656C121.659 83.9971 121.61 84.2944 121.61 84.6577C121.61 85.2437 121.726 85.749 121.958 86.1738C122.192 86.5986 122.5 86.811 122.88 86.811C123.165 86.811 123.399 86.6938 123.583 86.4595C123.768 86.2251 123.86 85.8223 123.86 85.251C123.86 84.5361 123.707 83.9736 123.399 83.5635C123.191 83.2822 122.926 83.1416 122.604 83.1416ZM126.444 83.7085C126.916 83.1401 127.366 82.856 127.793 82.856C128.013 82.856 128.202 82.9116 128.36 83.0229C128.519 83.1313 128.645 83.3115 128.738 83.5635C128.803 83.7393 128.835 84.0088 128.835 84.3721V86.0903C128.835 86.3452 128.855 86.5181 128.896 86.6089C128.929 86.6821 128.98 86.7393 129.05 86.7803C129.124 86.8213 129.257 86.8418 129.45 86.8418V87H127.459V86.8418H127.543C127.73 86.8418 127.861 86.814 127.934 86.7583C128.01 86.6997 128.063 86.6147 128.092 86.5034C128.104 86.4595 128.11 86.3218 128.11 86.0903V84.4424C128.11 84.0762 128.062 83.811 127.965 83.647C127.871 83.48 127.711 83.3965 127.486 83.3965C127.137 83.3965 126.79 83.5869 126.444 83.9678V86.0903C126.444 86.3628 126.46 86.5312 126.493 86.5957C126.534 86.6807 126.589 86.7437 126.66 86.7847C126.733 86.8228 126.879 86.8418 127.099 86.8418V87H125.108V86.8418H125.196C125.401 86.8418 125.539 86.7905 125.609 86.688C125.683 86.5825 125.719 86.3833 125.719 86.0903V84.5962C125.719 84.1128 125.708 83.8184 125.684 83.7129C125.664 83.6074 125.63 83.5356 125.583 83.4976C125.539 83.4595 125.479 83.4404 125.403 83.4404C125.321 83.4404 125.223 83.4624 125.108 83.5063L125.042 83.3481L126.255 82.856H126.444V83.7085ZM130.76 82.8516C130.895 82.8516 131.009 82.8999 131.103 82.9966C131.199 83.0903 131.248 83.2046 131.248 83.3394C131.248 83.4741 131.199 83.5898 131.103 83.6865C131.009 83.7803 130.895 83.8271 130.76 83.8271C130.625 83.8271 130.509 83.7803 130.413 83.6865C130.319 83.5898 130.272 83.4741 130.272 83.3394C130.272 83.2046 130.319 83.0903 130.413 82.9966C130.509 82.8999 130.625 82.8516 130.76 82.8516ZM130.751 86.1431C130.889 86.1431 131.004 86.1914 131.098 86.2881C131.195 86.3848 131.243 86.5005 131.243 86.6353C131.243 86.77 131.195 86.8857 131.098 86.9824C131.001 87.0762 130.886 87.123 130.751 87.123C130.616 87.123 130.5 87.0762 130.404 86.9824C130.31 86.8857 130.263 86.77 130.263 86.6353C130.263 86.5005 130.31 86.3848 130.404 86.2881C130.5 86.1914 130.616 86.1431 130.751 86.1431ZM139.663 80.9048L139.799 82.9307H139.663C139.481 82.3242 139.222 81.8877 138.885 81.6211C138.548 81.3545 138.144 81.2212 137.672 81.2212C137.277 81.2212 136.919 81.3223 136.6 81.5244C136.281 81.7236 136.029 82.043 135.844 82.4824C135.663 82.9219 135.572 83.4683 135.572 84.1216C135.572 84.6606 135.658 85.1279 135.831 85.5234C136.004 85.9189 136.263 86.2222 136.609 86.4331C136.958 86.644 137.354 86.7495 137.8 86.7495C138.187 86.7495 138.528 86.6675 138.824 86.5034C139.12 86.3364 139.445 86.0068 139.799 85.5146L139.936 85.6025C139.637 86.1328 139.288 86.521 138.89 86.7671C138.491 87.0132 138.018 87.1362 137.47 87.1362C136.483 87.1362 135.718 86.77 135.176 86.0376C134.772 85.4927 134.57 84.8511 134.57 84.1128C134.57 83.5181 134.703 82.9717 134.97 82.4736C135.236 81.9756 135.603 81.5903 136.068 81.3179C136.537 81.0425 137.048 80.9048 137.602 80.9048C138.033 80.9048 138.458 81.0103 138.876 81.2212C139 81.2856 139.087 81.3179 139.14 81.3179C139.219 81.3179 139.288 81.29 139.347 81.2344C139.423 81.1553 139.477 81.0454 139.509 80.9048H139.663ZM142.498 82.856C143.107 82.856 143.596 83.0874 143.965 83.5503C144.279 83.9458 144.436 84.3999 144.436 84.9126C144.436 85.2729 144.349 85.6377 144.176 86.0068C144.003 86.376 143.765 86.6543 143.46 86.8418C143.158 87.0293 142.821 87.123 142.449 87.123C141.843 87.123 141.361 86.8813 141.003 86.3979C140.702 85.9907 140.551 85.5337 140.551 85.0269C140.551 84.6577 140.642 84.2915 140.823 83.9282C141.008 83.562 141.25 83.2925 141.548 83.1196C141.847 82.9438 142.164 82.856 142.498 82.856ZM142.361 83.1416C142.206 83.1416 142.049 83.1885 141.891 83.2822C141.736 83.373 141.61 83.5342 141.513 83.7656C141.417 83.9971 141.368 84.2944 141.368 84.6577C141.368 85.2437 141.484 85.749 141.715 86.1738C141.95 86.5986 142.257 86.811 142.638 86.811C142.922 86.811 143.157 86.6938 143.341 86.4595C143.526 86.2251 143.618 85.8223 143.618 85.251C143.618 84.5361 143.464 83.9736 143.157 83.5635C142.949 83.2822 142.684 83.1416 142.361 83.1416ZM146.224 83.7129C146.517 83.4199 146.69 83.2515 146.743 83.2075C146.875 83.0962 147.017 83.0098 147.169 82.9482C147.321 82.8867 147.472 82.856 147.622 82.856C147.874 82.856 148.09 82.9292 148.272 83.0757C148.454 83.2222 148.575 83.4346 148.637 83.7129C148.938 83.3613 149.193 83.1313 149.401 83.0229C149.609 82.9116 149.823 82.856 150.043 82.856C150.257 82.856 150.446 82.9116 150.61 83.0229C150.777 83.1313 150.909 83.3101 151.005 83.5591C151.07 83.729 151.102 83.9956 151.102 84.3589V86.0903C151.102 86.3423 151.121 86.5151 151.159 86.6089C151.188 86.6733 151.243 86.729 151.322 86.7759C151.401 86.8198 151.53 86.8418 151.708 86.8418V87H149.722V86.8418H149.806C149.979 86.8418 150.113 86.8081 150.21 86.7407C150.277 86.6938 150.326 86.6191 150.355 86.5166C150.367 86.4668 150.373 86.3247 150.373 86.0903V84.3589C150.373 84.0308 150.333 83.7993 150.254 83.6646C150.14 83.4771 149.957 83.3833 149.705 83.3833C149.549 83.3833 149.393 83.4229 149.234 83.502C149.079 83.5781 148.89 83.7217 148.667 83.9326L148.659 83.981L148.667 84.1699V86.0903C148.667 86.3657 148.682 86.5371 148.711 86.6045C148.744 86.6719 148.802 86.729 148.887 86.7759C148.972 86.8198 149.117 86.8418 149.322 86.8418V87H147.288V86.8418C147.51 86.8418 147.663 86.8154 147.745 86.7627C147.83 86.71 147.888 86.6309 147.92 86.5254C147.935 86.4756 147.942 86.3306 147.942 86.0903V84.3589C147.942 84.0308 147.894 83.7949 147.797 83.6514C147.668 83.4639 147.488 83.3701 147.257 83.3701C147.099 83.3701 146.942 83.4126 146.787 83.4976C146.543 83.6265 146.356 83.7715 146.224 83.9326V86.0903C146.224 86.354 146.242 86.5254 146.277 86.6045C146.315 86.6836 146.369 86.7437 146.439 86.7847C146.513 86.8228 146.659 86.8418 146.879 86.8418V87H144.888V86.8418C145.073 86.8418 145.202 86.8228 145.275 86.7847C145.348 86.7437 145.404 86.6807 145.442 86.5957C145.48 86.5078 145.499 86.3394 145.499 86.0903V84.5522C145.499 84.1099 145.486 83.8242 145.459 83.6953C145.439 83.5986 145.407 83.5327 145.363 83.4976C145.319 83.4595 145.259 83.4404 145.183 83.4404C145.101 83.4404 145.002 83.4624 144.888 83.5063L144.822 83.3481L146.035 82.856H146.224V83.7129ZM153.229 83.7129C153.522 83.4199 153.695 83.2515 153.748 83.2075C153.879 83.0962 154.021 83.0098 154.174 82.9482C154.326 82.8867 154.477 82.856 154.626 82.856C154.878 82.856 155.095 82.9292 155.277 83.0757C155.458 83.2222 155.58 83.4346 155.642 83.7129C155.943 83.3613 156.198 83.1313 156.406 83.0229C156.614 82.9116 156.828 82.856 157.048 82.856C157.262 82.856 157.451 82.9116 157.615 83.0229C157.782 83.1313 157.914 83.3101 158.01 83.5591C158.075 83.729 158.107 83.9956 158.107 84.3589V86.0903C158.107 86.3423 158.126 86.5151 158.164 86.6089C158.193 86.6733 158.248 86.729 158.327 86.7759C158.406 86.8198 158.535 86.8418 158.713 86.8418V87H156.727V86.8418H156.811C156.983 86.8418 157.118 86.8081 157.215 86.7407C157.282 86.6938 157.331 86.6191 157.36 86.5166C157.372 86.4668 157.377 86.3247 157.377 86.0903V84.3589C157.377 84.0308 157.338 83.7993 157.259 83.6646C157.145 83.4771 156.961 83.3833 156.709 83.3833C156.554 83.3833 156.397 83.4229 156.239 83.502C156.084 83.5781 155.895 83.7217 155.672 83.9326L155.664 83.981L155.672 84.1699V86.0903C155.672 86.3657 155.687 86.5371 155.716 86.6045C155.749 86.6719 155.807 86.729 155.892 86.7759C155.977 86.8198 156.122 86.8418 156.327 86.8418V87H154.292V86.8418C154.515 86.8418 154.667 86.8154 154.75 86.7627C154.834 86.71 154.893 86.6309 154.925 86.5254C154.94 86.4756 154.947 86.3306 154.947 86.0903V84.3589C154.947 84.0308 154.899 83.7949 154.802 83.6514C154.673 83.4639 154.493 83.3701 154.262 83.3701C154.104 83.3701 153.947 83.4126 153.792 83.4976C153.548 83.6265 153.361 83.7715 153.229 83.9326V86.0903C153.229 86.354 153.247 86.5254 153.282 86.6045C153.32 86.6836 153.374 86.7437 153.444 86.7847C153.518 86.8228 153.664 86.8418 153.884 86.8418V87H151.893V86.8418C152.078 86.8418 152.207 86.8228 152.28 86.7847C152.353 86.7437 152.409 86.6807 152.447 86.5957C152.485 86.5078 152.504 86.3394 152.504 86.0903V84.5522C152.504 84.1099 152.491 83.8242 152.464 83.6953C152.444 83.5986 152.412 83.5327 152.368 83.4976C152.324 83.4595 152.264 83.4404 152.188 83.4404C152.105 83.4404 152.007 83.4624 151.893 83.5063L151.827 83.3481L153.04 82.856H153.229V83.7129ZM162.567 82.9746V85.4136C162.567 85.8794 162.578 86.165 162.598 86.2705C162.622 86.373 162.657 86.4448 162.704 86.4858C162.753 86.5269 162.811 86.5474 162.875 86.5474C162.966 86.5474 163.068 86.5225 163.183 86.4727L163.244 86.6265L162.04 87.123H161.842V86.2705C161.497 86.6455 161.233 86.8813 161.051 86.978C160.87 87.0747 160.678 87.123 160.476 87.123C160.25 87.123 160.054 87.0586 159.887 86.9297C159.723 86.7979 159.608 86.6294 159.544 86.4243C159.479 86.2192 159.447 85.9292 159.447 85.5542V83.7568C159.447 83.5664 159.427 83.4346 159.386 83.3613C159.345 83.2881 159.283 83.2324 159.201 83.1943C159.122 83.1533 158.977 83.1343 158.766 83.1372V82.9746H160.177V85.6685C160.177 86.0435 160.241 86.2896 160.37 86.4067C160.502 86.5239 160.66 86.5825 160.845 86.5825C160.971 86.5825 161.113 86.543 161.271 86.4639C161.432 86.3848 161.623 86.2339 161.842 86.0112V83.7305C161.842 83.502 161.8 83.3481 161.715 83.269C161.633 83.187 161.46 83.1431 161.196 83.1372V82.9746H162.567ZM164.712 83.7085C165.184 83.1401 165.633 82.856 166.061 82.856C166.281 82.856 166.47 82.9116 166.628 83.0229C166.786 83.1313 166.912 83.3115 167.006 83.5635C167.07 83.7393 167.103 84.0088 167.103 84.3721V86.0903C167.103 86.3452 167.123 86.5181 167.164 86.6089C167.196 86.6821 167.248 86.7393 167.318 86.7803C167.391 86.8213 167.524 86.8418 167.718 86.8418V87H165.727V86.8418H165.811C165.998 86.8418 166.128 86.814 166.202 86.7583C166.278 86.6997 166.331 86.6147 166.36 86.5034C166.372 86.4595 166.377 86.3218 166.377 86.0903V84.4424C166.377 84.0762 166.329 83.811 166.232 83.647C166.139 83.48 165.979 83.3965 165.753 83.3965C165.405 83.3965 165.058 83.5869 164.712 83.9678V86.0903C164.712 86.3628 164.728 86.5312 164.76 86.5957C164.801 86.6807 164.857 86.7437 164.927 86.7847C165 86.8228 165.147 86.8418 165.367 86.8418V87H163.376V86.8418H163.464C163.669 86.8418 163.807 86.7905 163.877 86.688C163.95 86.5825 163.987 86.3833 163.987 86.0903V84.5962C163.987 84.1128 163.975 83.8184 163.952 83.7129C163.931 83.6074 163.897 83.5356 163.851 83.4976C163.807 83.4595 163.747 83.4404 163.67 83.4404C163.588 83.4404 163.49 83.4624 163.376 83.5063L163.31 83.3481L164.523 82.856H164.712V83.7085ZM169.062 80.751C169.186 80.751 169.29 80.7949 169.375 80.8828C169.462 80.9678 169.506 81.0718 169.506 81.1948C169.506 81.3179 169.462 81.4233 169.375 81.5112C169.29 81.5991 169.186 81.6431 169.062 81.6431C168.939 81.6431 168.834 81.5991 168.746 81.5112C168.658 81.4233 168.614 81.3179 168.614 81.1948C168.614 81.0718 168.657 80.9678 168.742 80.8828C168.83 80.7949 168.937 80.751 169.062 80.751ZM169.427 82.856V86.0903C169.427 86.3423 169.445 86.5107 169.48 86.5957C169.518 86.6777 169.572 86.7393 169.643 86.7803C169.716 86.8213 169.848 86.8418 170.038 86.8418V87H168.083V86.8418C168.279 86.8418 168.411 86.8228 168.478 86.7847C168.545 86.7466 168.598 86.6836 168.636 86.5957C168.677 86.5078 168.698 86.3394 168.698 86.0903V84.5391C168.698 84.1025 168.685 83.8198 168.658 83.6909C168.638 83.5972 168.605 83.5327 168.562 83.4976C168.518 83.4595 168.458 83.4404 168.381 83.4404C168.299 83.4404 168.2 83.4624 168.083 83.5063L168.021 83.3481L169.234 82.856H169.427ZM171.712 81.6519V82.9746H172.653V83.2822H171.712V85.8926C171.712 86.1533 171.749 86.3291 171.822 86.4199C171.898 86.5107 171.995 86.5562 172.112 86.5562C172.209 86.5562 172.303 86.5269 172.394 86.4683C172.484 86.4067 172.555 86.3174 172.604 86.2002H172.776C172.673 86.4873 172.528 86.7041 172.341 86.8506C172.153 86.9941 171.96 87.0659 171.761 87.0659C171.626 87.0659 171.494 87.0293 171.365 86.9561C171.236 86.8799 171.141 86.7729 171.08 86.6353C171.018 86.4946 170.987 86.2793 170.987 85.9893V83.2822H170.35V83.1372C170.511 83.0728 170.675 82.9644 170.842 82.812C171.012 82.6567 171.163 82.4736 171.295 82.2627C171.362 82.1514 171.456 81.9478 171.576 81.6519H171.712ZM172.82 82.9746H174.696V83.1372H174.604C174.472 83.1372 174.373 83.1665 174.305 83.2251C174.241 83.2808 174.208 83.3511 174.208 83.436C174.208 83.5503 174.257 83.7085 174.354 83.9106L175.333 85.9409L176.234 83.7173C176.284 83.5972 176.309 83.4785 176.309 83.3613C176.309 83.3086 176.299 83.269 176.278 83.2427C176.255 83.2104 176.218 83.1855 176.168 83.168C176.119 83.1475 176.031 83.1372 175.905 83.1372V82.9746H177.214V83.1372C177.106 83.1489 177.022 83.1724 176.964 83.2075C176.905 83.2427 176.841 83.3086 176.771 83.4053C176.744 83.4463 176.694 83.5591 176.621 83.7437L174.982 87.7603C174.824 88.1499 174.616 88.4443 174.358 88.6436C174.103 88.8428 173.857 88.9424 173.62 88.9424C173.447 88.9424 173.305 88.8926 173.193 88.793C173.082 88.6934 173.026 88.5791 173.026 88.4502C173.026 88.3271 173.066 88.2275 173.145 88.1514C173.227 88.0781 173.338 88.0415 173.479 88.0415C173.576 88.0415 173.708 88.0737 173.875 88.1382C173.992 88.1821 174.065 88.2041 174.094 88.2041C174.182 88.2041 174.277 88.1587 174.38 88.0679C174.485 87.9771 174.591 87.8013 174.696 87.5405L174.982 86.8418L173.536 83.8052C173.492 83.7144 173.422 83.6016 173.325 83.4668C173.252 83.3643 173.192 83.2954 173.145 83.2603C173.078 83.2134 172.969 83.1724 172.82 83.1372V82.9746ZM184.936 80.9048L185.072 82.9307H184.936C184.754 82.3242 184.495 81.8877 184.158 81.6211C183.821 81.3545 183.417 81.2212 182.945 81.2212C182.549 81.2212 182.192 81.3223 181.873 81.5244C181.553 81.7236 181.301 82.043 181.117 82.4824C180.935 82.9219 180.844 83.4683 180.844 84.1216C180.844 84.6606 180.931 85.1279 181.104 85.5234C181.276 85.9189 181.536 86.2222 181.881 86.4331C182.23 86.644 182.627 86.7495 183.072 86.7495C183.459 86.7495 183.8 86.6675 184.096 86.5034C184.392 86.3364 184.717 86.0068 185.072 85.5146L185.208 85.6025C184.909 86.1328 184.561 86.521 184.162 86.7671C183.764 87.0132 183.291 87.1362 182.743 87.1362C181.755 87.1362 180.991 86.77 180.449 86.0376C180.044 85.4927 179.842 84.8511 179.842 84.1128C179.842 83.5181 179.976 82.9717 180.242 82.4736C180.509 81.9756 180.875 81.5903 181.341 81.3179C181.81 81.0425 182.321 80.9048 182.875 80.9048C183.305 80.9048 183.73 81.0103 184.149 81.2212C184.272 81.2856 184.36 81.3179 184.413 81.3179C184.492 81.3179 184.561 81.29 184.619 81.2344C184.695 81.1553 184.75 81.0454 184.782 80.9048H184.936ZM186.478 84.4907C186.475 85.0884 186.62 85.5571 186.913 85.897C187.206 86.2368 187.55 86.4067 187.946 86.4067C188.209 86.4067 188.438 86.335 188.631 86.1914C188.828 86.0449 188.992 85.7959 189.124 85.4443L189.26 85.5322C189.198 85.9336 189.02 86.2998 188.724 86.6309C188.428 86.959 188.057 87.123 187.612 87.123C187.128 87.123 186.714 86.9355 186.368 86.5605C186.025 86.1826 185.854 85.6758 185.854 85.04C185.854 84.3516 186.03 83.8154 186.381 83.4316C186.736 83.0449 187.18 82.8516 187.713 82.8516C188.164 82.8516 188.535 83.001 188.825 83.2998C189.115 83.5957 189.26 83.9927 189.26 84.4907H186.478ZM186.478 84.2358H188.341C188.327 83.978 188.296 83.7964 188.249 83.6909C188.176 83.5269 188.066 83.3979 187.919 83.3042C187.776 83.2104 187.625 83.1636 187.467 83.1636C187.224 83.1636 187.005 83.2588 186.812 83.4492C186.622 83.6367 186.51 83.8989 186.478 84.2358ZM190.974 83.7085C191.445 83.1401 191.895 82.856 192.323 82.856C192.542 82.856 192.731 82.9116 192.89 83.0229C193.048 83.1313 193.174 83.3115 193.268 83.5635C193.332 83.7393 193.364 84.0088 193.364 84.3721V86.0903C193.364 86.3452 193.385 86.5181 193.426 86.6089C193.458 86.6821 193.509 86.7393 193.58 86.7803C193.653 86.8213 193.786 86.8418 193.979 86.8418V87H191.989V86.8418H192.072C192.26 86.8418 192.39 86.814 192.463 86.7583C192.54 86.6997 192.592 86.6147 192.622 86.5034C192.633 86.4595 192.639 86.3218 192.639 86.0903V84.4424C192.639 84.0762 192.591 83.811 192.494 83.647C192.4 83.48 192.241 83.3965 192.015 83.3965C191.667 83.3965 191.319 83.5869 190.974 83.9678V86.0903C190.974 86.3628 190.99 86.5312 191.022 86.5957C191.063 86.6807 191.119 86.7437 191.189 86.7847C191.262 86.8228 191.409 86.8418 191.628 86.8418V87H189.638V86.8418H189.726C189.931 86.8418 190.068 86.7905 190.139 86.688C190.212 86.5825 190.249 86.3833 190.249 86.0903V84.5962C190.249 84.1128 190.237 83.8184 190.213 83.7129C190.193 83.6074 190.159 83.5356 190.112 83.4976C190.068 83.4595 190.008 83.4404 189.932 83.4404C189.85 83.4404 189.752 83.4624 189.638 83.5063L189.572 83.3481L190.785 82.856H190.974V83.7085ZM195.469 81.6519V82.9746H196.41V83.2822H195.469V85.8926C195.469 86.1533 195.506 86.3291 195.579 86.4199C195.655 86.5107 195.752 86.5562 195.869 86.5562C195.966 86.5562 196.06 86.5269 196.15 86.4683C196.241 86.4067 196.312 86.3174 196.361 86.2002H196.533C196.43 86.4873 196.285 86.7041 196.098 86.8506C195.91 86.9941 195.717 87.0659 195.518 87.0659C195.383 87.0659 195.251 87.0293 195.122 86.9561C194.993 86.8799 194.898 86.7729 194.836 86.6353C194.775 86.4946 194.744 86.2793 194.744 85.9893V83.2822H194.107V83.1372C194.268 83.0728 194.432 82.9644 194.599 82.812C194.769 82.6567 194.92 82.4736 195.052 82.2627C195.119 82.1514 195.213 81.9478 195.333 81.6519H195.469ZM197.482 84.4907C197.479 85.0884 197.624 85.5571 197.917 85.897C198.21 86.2368 198.554 86.4067 198.95 86.4067C199.213 86.4067 199.442 86.335 199.635 86.1914C199.832 86.0449 199.996 85.7959 200.127 85.4443L200.264 85.5322C200.202 85.9336 200.023 86.2998 199.728 86.6309C199.432 86.959 199.061 87.123 198.616 87.123C198.132 87.123 197.718 86.9355 197.372 86.5605C197.029 86.1826 196.858 85.6758 196.858 85.04C196.858 84.3516 197.034 83.8154 197.385 83.4316C197.74 83.0449 198.184 82.8516 198.717 82.8516C199.168 82.8516 199.539 83.001 199.829 83.2998C200.119 83.5957 200.264 83.9927 200.264 84.4907H197.482ZM197.482 84.2358H199.345C199.331 83.978 199.3 83.7964 199.253 83.6909C199.18 83.5269 199.07 83.3979 198.923 83.3042C198.78 83.2104 198.629 83.1636 198.471 83.1636C198.228 83.1636 198.009 83.2588 197.816 83.4492C197.625 83.6367 197.514 83.8989 197.482 84.2358ZM201.982 82.856V83.7612C202.319 83.1577 202.665 82.856 203.019 82.856C203.18 82.856 203.313 82.9058 203.419 83.0054C203.524 83.1021 203.577 83.2148 203.577 83.3438C203.577 83.458 203.539 83.5547 203.463 83.6338C203.387 83.7129 203.296 83.7524 203.19 83.7524C203.088 83.7524 202.972 83.7026 202.843 83.603C202.717 83.5005 202.624 83.4492 202.562 83.4492C202.509 83.4492 202.452 83.4785 202.391 83.5371C202.259 83.6572 202.123 83.855 201.982 84.1304V86.0596C201.982 86.2822 202.01 86.4507 202.065 86.5649C202.104 86.644 202.171 86.71 202.268 86.7627C202.364 86.8154 202.503 86.8418 202.685 86.8418V87H200.624V86.8418C200.829 86.8418 200.981 86.8096 201.081 86.7451C201.154 86.6982 201.206 86.6235 201.235 86.521C201.25 86.4712 201.257 86.3291 201.257 86.0947V84.5347C201.257 84.0659 201.247 83.7876 201.226 83.6997C201.208 83.6089 201.173 83.543 201.121 83.502C201.071 83.4609 201.008 83.4404 200.932 83.4404C200.841 83.4404 200.738 83.4624 200.624 83.5063L200.58 83.3481L201.797 82.856H201.982Z" fill="black"/>
<path d="M117.141 107V106.837H117.365C117.617 106.837 117.796 106.757 117.901 106.596C117.966 106.499 117.998 106.282 117.998 105.945V102.096C117.998 101.724 117.957 101.491 117.875 101.397C117.761 101.268 117.591 101.204 117.365 101.204H117.141V101.041H119.567C120.458 101.041 121.134 101.142 121.597 101.344C122.063 101.546 122.437 101.883 122.718 102.355C123.002 102.827 123.144 103.372 123.144 103.99C123.144 104.819 122.892 105.512 122.388 106.068C121.823 106.689 120.961 107 119.804 107H117.141ZM118.842 106.569C119.214 106.651 119.526 106.692 119.778 106.692C120.458 106.692 121.021 106.454 121.47 105.976C121.918 105.499 122.142 104.851 122.142 104.034C122.142 103.21 121.918 102.562 121.47 102.087C121.021 101.612 120.446 101.375 119.743 101.375C119.479 101.375 119.179 101.417 118.842 101.502V106.569ZM124.95 102.856V103.761C125.287 103.158 125.633 102.856 125.987 102.856C126.148 102.856 126.282 102.906 126.387 103.005C126.493 103.102 126.545 103.215 126.545 103.344C126.545 103.458 126.507 103.555 126.431 103.634C126.355 103.713 126.264 103.752 126.159 103.752C126.056 103.752 125.94 103.703 125.812 103.603C125.686 103.5 125.592 103.449 125.53 103.449C125.478 103.449 125.42 103.479 125.359 103.537C125.227 103.657 125.091 103.855 124.95 104.13V106.06C124.95 106.282 124.978 106.451 125.034 106.565C125.072 106.644 125.139 106.71 125.236 106.763C125.333 106.815 125.472 106.842 125.653 106.842V107H123.592V106.842C123.797 106.842 123.95 106.81 124.049 106.745C124.123 106.698 124.174 106.624 124.203 106.521C124.218 106.471 124.225 106.329 124.225 106.095V104.535C124.225 104.066 124.215 103.788 124.194 103.7C124.177 103.609 124.142 103.543 124.089 103.502C124.039 103.461 123.976 103.44 123.9 103.44C123.809 103.44 123.707 103.462 123.592 103.506L123.548 103.348L124.766 102.856H124.95ZM127.446 104.491C127.443 105.088 127.588 105.557 127.881 105.897C128.174 106.237 128.519 106.407 128.914 106.407C129.178 106.407 129.406 106.335 129.6 106.191C129.796 106.045 129.96 105.796 130.092 105.444L130.228 105.532C130.167 105.934 129.988 106.3 129.692 106.631C129.396 106.959 129.025 107.123 128.58 107.123C128.097 107.123 127.682 106.936 127.336 106.561C126.994 106.183 126.822 105.676 126.822 105.04C126.822 104.352 126.998 103.815 127.35 103.432C127.704 103.045 128.148 102.852 128.681 102.852C129.132 102.852 129.503 103.001 129.793 103.3C130.083 103.596 130.228 103.993 130.228 104.491H127.446ZM127.446 104.236H129.31C129.295 103.978 129.264 103.796 129.217 103.691C129.144 103.527 129.034 103.398 128.888 103.304C128.744 103.21 128.593 103.164 128.435 103.164C128.192 103.164 127.974 103.259 127.78 103.449C127.59 103.637 127.479 103.899 127.446 104.236ZM133.37 102.856V104.227H133.225C133.114 103.796 132.97 103.503 132.794 103.348C132.622 103.193 132.4 103.115 132.131 103.115C131.926 103.115 131.76 103.169 131.634 103.278C131.508 103.386 131.445 103.506 131.445 103.638C131.445 103.802 131.492 103.943 131.586 104.06C131.677 104.18 131.861 104.308 132.14 104.442L132.781 104.754C133.376 105.044 133.673 105.427 133.673 105.901C133.673 106.268 133.534 106.563 133.256 106.789C132.98 107.012 132.671 107.123 132.329 107.123C132.083 107.123 131.801 107.079 131.485 106.991C131.388 106.962 131.309 106.947 131.248 106.947C131.18 106.947 131.127 106.985 131.089 107.062H130.944V105.625H131.089C131.171 106.035 131.328 106.344 131.56 106.552C131.791 106.76 132.05 106.864 132.337 106.864C132.54 106.864 132.704 106.805 132.83 106.688C132.958 106.568 133.023 106.424 133.023 106.257C133.023 106.055 132.951 105.885 132.808 105.748C132.667 105.61 132.384 105.436 131.959 105.225C131.535 105.014 131.256 104.823 131.125 104.653C130.993 104.486 130.927 104.275 130.927 104.021C130.927 103.689 131.04 103.413 131.265 103.19C131.494 102.967 131.788 102.856 132.148 102.856C132.307 102.856 132.499 102.89 132.724 102.957C132.874 103.001 132.973 103.023 133.023 103.023C133.07 103.023 133.106 103.013 133.133 102.992C133.159 102.972 133.19 102.926 133.225 102.856H133.37ZM136.877 102.856V104.227H136.732C136.621 103.796 136.477 103.503 136.301 103.348C136.128 103.193 135.907 103.115 135.638 103.115C135.433 103.115 135.267 103.169 135.141 103.278C135.015 103.386 134.952 103.506 134.952 103.638C134.952 103.802 134.999 103.943 135.093 104.06C135.184 104.18 135.368 104.308 135.646 104.442L136.288 104.754C136.883 105.044 137.18 105.427 137.18 105.901C137.18 106.268 137.041 106.563 136.763 106.789C136.487 107.012 136.178 107.123 135.835 107.123C135.589 107.123 135.308 107.079 134.992 106.991C134.895 106.962 134.816 106.947 134.754 106.947C134.687 106.947 134.634 106.985 134.596 107.062H134.451V105.625H134.596C134.678 106.035 134.835 106.344 135.066 106.552C135.298 106.76 135.557 106.864 135.844 106.864C136.046 106.864 136.21 106.805 136.336 106.688C136.465 106.568 136.53 106.424 136.53 106.257C136.53 106.055 136.458 105.885 136.314 105.748C136.174 105.61 135.891 105.436 135.466 105.225C135.042 105.014 134.763 104.823 134.631 104.653C134.5 104.486 134.434 104.275 134.434 104.021C134.434 103.689 134.546 103.413 134.772 103.19C135 102.967 135.295 102.856 135.655 102.856C135.813 102.856 136.005 102.89 136.231 102.957C136.38 103.001 136.48 103.023 136.53 103.023C136.577 103.023 136.613 103.013 136.64 102.992C136.666 102.972 136.697 102.926 136.732 102.856H136.877ZM143.451 105.471C143.343 106.001 143.13 106.41 142.814 106.697C142.498 106.981 142.147 107.123 141.764 107.123C141.307 107.123 140.908 106.931 140.568 106.547C140.229 106.164 140.059 105.645 140.059 104.992C140.059 104.359 140.246 103.845 140.621 103.449C140.999 103.054 141.452 102.856 141.979 102.856C142.375 102.856 142.7 102.961 142.955 103.172C143.209 103.38 143.337 103.597 143.337 103.823C143.337 103.934 143.3 104.025 143.227 104.095C143.157 104.163 143.057 104.196 142.928 104.196C142.755 104.196 142.625 104.141 142.537 104.029C142.487 103.968 142.454 103.851 142.436 103.678C142.421 103.505 142.363 103.373 142.26 103.282C142.158 103.194 142.016 103.15 141.834 103.15C141.541 103.15 141.305 103.259 141.126 103.476C140.889 103.763 140.771 104.142 140.771 104.614C140.771 105.094 140.888 105.519 141.122 105.888C141.359 106.254 141.679 106.438 142.08 106.438C142.367 106.438 142.625 106.339 142.854 106.143C143.015 106.008 143.171 105.764 143.324 105.409L143.451 105.471ZM146 102.856C146.609 102.856 147.099 103.087 147.468 103.55C147.781 103.946 147.938 104.4 147.938 104.913C147.938 105.273 147.852 105.638 147.679 106.007C147.506 106.376 147.267 106.654 146.962 106.842C146.661 107.029 146.324 107.123 145.952 107.123C145.345 107.123 144.863 106.881 144.506 106.398C144.204 105.991 144.053 105.534 144.053 105.027C144.053 104.658 144.144 104.292 144.326 103.928C144.51 103.562 144.752 103.292 145.051 103.12C145.35 102.944 145.666 102.856 146 102.856ZM145.864 103.142C145.708 103.142 145.552 103.188 145.394 103.282C145.238 103.373 145.112 103.534 145.016 103.766C144.919 103.997 144.871 104.294 144.871 104.658C144.871 105.244 144.986 105.749 145.218 106.174C145.452 106.599 145.76 106.811 146.141 106.811C146.425 106.811 146.659 106.694 146.844 106.459C147.028 106.225 147.121 105.822 147.121 105.251C147.121 104.536 146.967 103.974 146.659 103.563C146.451 103.282 146.186 103.142 145.864 103.142ZM151.375 106.547C151.178 106.752 150.986 106.9 150.799 106.991C150.611 107.079 150.409 107.123 150.192 107.123C149.753 107.123 149.369 106.94 149.041 106.574C148.713 106.205 148.549 105.731 148.549 105.154C148.549 104.577 148.73 104.05 149.094 103.572C149.457 103.092 149.924 102.852 150.496 102.852C150.85 102.852 151.143 102.964 151.375 103.19V102.447C151.375 101.987 151.363 101.705 151.339 101.599C151.319 101.494 151.285 101.422 151.238 101.384C151.191 101.346 151.133 101.327 151.062 101.327C150.986 101.327 150.885 101.35 150.759 101.397L150.702 101.243L151.902 100.751H152.1V105.405C152.1 105.876 152.11 106.165 152.13 106.271C152.154 106.373 152.189 106.445 152.236 106.486C152.286 106.527 152.343 106.547 152.407 106.547C152.486 106.547 152.592 106.522 152.724 106.473L152.772 106.626L151.577 107.123H151.375V106.547ZM151.375 106.24V104.166C151.357 103.966 151.304 103.785 151.216 103.621C151.128 103.457 151.011 103.333 150.865 103.251C150.721 103.167 150.581 103.124 150.443 103.124C150.185 103.124 149.955 103.24 149.753 103.471C149.486 103.776 149.353 104.221 149.353 104.807C149.353 105.399 149.482 105.853 149.74 106.169C149.998 106.483 150.285 106.64 150.601 106.64C150.868 106.64 151.125 106.506 151.375 106.24ZM153.708 104.491C153.705 105.088 153.85 105.557 154.143 105.897C154.436 106.237 154.78 106.407 155.176 106.407C155.439 106.407 155.668 106.335 155.861 106.191C156.058 106.045 156.222 105.796 156.354 105.444L156.49 105.532C156.428 105.934 156.25 106.3 155.954 106.631C155.658 106.959 155.287 107.123 154.842 107.123C154.358 107.123 153.944 106.936 153.598 106.561C153.255 106.183 153.084 105.676 153.084 105.04C153.084 104.352 153.26 103.815 153.611 103.432C153.966 103.045 154.41 102.852 154.943 102.852C155.394 102.852 155.765 103.001 156.055 103.3C156.345 103.596 156.49 103.993 156.49 104.491H153.708ZM153.708 104.236H155.571C155.557 103.978 155.526 103.796 155.479 103.691C155.406 103.527 155.296 103.398 155.149 103.304C155.006 103.21 154.855 103.164 154.697 103.164C154.454 103.164 154.235 103.259 154.042 103.449C153.852 103.637 153.74 103.899 153.708 104.236ZM158.019 102.852C158.154 102.852 158.268 102.9 158.362 102.997C158.458 103.09 158.507 103.205 158.507 103.339C158.507 103.474 158.458 103.59 158.362 103.687C158.268 103.78 158.154 103.827 158.019 103.827C157.884 103.827 157.769 103.78 157.672 103.687C157.578 103.59 157.531 103.474 157.531 103.339C157.531 103.205 157.578 103.09 157.672 102.997C157.769 102.9 157.884 102.852 158.019 102.852ZM158.01 106.143C158.148 106.143 158.264 106.191 158.357 106.288C158.454 106.385 158.502 106.5 158.502 106.635C158.502 106.77 158.454 106.886 158.357 106.982C158.261 107.076 158.145 107.123 158.01 107.123C157.875 107.123 157.76 107.076 157.663 106.982C157.569 106.886 157.522 106.77 157.522 106.635C157.522 106.5 157.569 106.385 157.663 106.288C157.76 106.191 157.875 106.143 158.01 106.143ZM165.204 105.471C165.096 106.001 164.883 106.41 164.567 106.697C164.25 106.981 163.9 107.123 163.517 107.123C163.06 107.123 162.661 106.931 162.321 106.547C161.981 106.164 161.812 105.645 161.812 104.992C161.812 104.359 161.999 103.845 162.374 103.449C162.752 103.054 163.205 102.856 163.732 102.856C164.127 102.856 164.453 102.961 164.708 103.172C164.962 103.38 165.09 103.597 165.09 103.823C165.09 103.934 165.053 104.025 164.98 104.095C164.91 104.163 164.81 104.196 164.681 104.196C164.508 104.196 164.378 104.141 164.29 104.029C164.24 103.968 164.207 103.851 164.189 103.678C164.174 103.505 164.116 103.373 164.013 103.282C163.911 103.194 163.769 103.15 163.587 103.15C163.294 103.15 163.058 103.259 162.879 103.476C162.642 103.763 162.523 104.142 162.523 104.614C162.523 105.094 162.641 105.519 162.875 105.888C163.112 106.254 163.432 106.438 163.833 106.438C164.12 106.438 164.378 106.339 164.606 106.143C164.768 106.008 164.924 105.764 165.077 105.409L165.204 105.471ZM168.065 106.42C167.652 106.739 167.393 106.924 167.287 106.974C167.129 107.047 166.96 107.083 166.782 107.083C166.503 107.083 166.273 106.988 166.092 106.798C165.913 106.607 165.824 106.357 165.824 106.046C165.824 105.85 165.868 105.68 165.956 105.537C166.076 105.337 166.284 105.15 166.58 104.974C166.878 104.798 167.374 104.584 168.065 104.333V104.174C168.065 103.773 168 103.498 167.872 103.348C167.746 103.199 167.561 103.124 167.318 103.124C167.133 103.124 166.987 103.174 166.878 103.273C166.767 103.373 166.711 103.487 166.711 103.616L166.72 103.871C166.72 104.006 166.685 104.11 166.615 104.183C166.547 104.256 166.458 104.293 166.347 104.293C166.238 104.293 166.149 104.255 166.079 104.179C166.011 104.103 165.978 103.999 165.978 103.867C165.978 103.615 166.106 103.383 166.364 103.172C166.622 102.961 166.984 102.856 167.45 102.856C167.807 102.856 168.1 102.916 168.329 103.036C168.501 103.127 168.629 103.269 168.711 103.462C168.764 103.588 168.79 103.846 168.79 104.236V105.603C168.79 105.986 168.797 106.222 168.812 106.31C168.827 106.395 168.85 106.452 168.882 106.481C168.917 106.511 168.957 106.525 169.001 106.525C169.048 106.525 169.089 106.515 169.124 106.495C169.186 106.457 169.304 106.35 169.48 106.174V106.42C169.152 106.859 168.838 107.079 168.54 107.079C168.396 107.079 168.282 107.029 168.197 106.93C168.112 106.83 168.068 106.66 168.065 106.42ZM168.065 106.134V104.601C167.623 104.776 167.337 104.901 167.208 104.974C166.977 105.103 166.811 105.238 166.711 105.378C166.612 105.519 166.562 105.673 166.562 105.84C166.562 106.051 166.625 106.227 166.751 106.367C166.877 106.505 167.022 106.574 167.186 106.574C167.409 106.574 167.702 106.427 168.065 106.134ZM172.385 102.856V104.227H172.24C172.128 103.796 171.985 103.503 171.809 103.348C171.636 103.193 171.415 103.115 171.146 103.115C170.94 103.115 170.775 103.169 170.649 103.278C170.523 103.386 170.46 103.506 170.46 103.638C170.46 103.802 170.507 103.943 170.601 104.06C170.691 104.18 170.876 104.308 171.154 104.442L171.796 104.754C172.391 105.044 172.688 105.427 172.688 105.901C172.688 106.268 172.549 106.563 172.271 106.789C171.995 107.012 171.686 107.123 171.343 107.123C171.097 107.123 170.816 107.079 170.5 106.991C170.403 106.962 170.324 106.947 170.262 106.947C170.195 106.947 170.142 106.985 170.104 107.062H169.959V105.625H170.104C170.186 106.035 170.343 106.344 170.574 106.552C170.806 106.76 171.065 106.864 171.352 106.864C171.554 106.864 171.718 106.805 171.844 106.688C171.973 106.568 172.038 106.424 172.038 106.257C172.038 106.055 171.966 105.885 171.822 105.748C171.682 105.61 171.399 105.436 170.974 105.225C170.549 105.014 170.271 104.823 170.139 104.653C170.007 104.486 169.941 104.275 169.941 104.021C169.941 103.689 170.054 103.413 170.28 103.19C170.508 102.967 170.803 102.856 171.163 102.856C171.321 102.856 171.513 102.89 171.739 102.957C171.888 103.001 171.988 103.023 172.038 103.023C172.084 103.023 172.121 103.013 172.147 102.992C172.174 102.972 172.205 102.926 172.24 102.856H172.385ZM176.819 102.975V105.414C176.819 105.879 176.829 106.165 176.85 106.271C176.873 106.373 176.908 106.445 176.955 106.486C177.005 106.527 177.062 106.547 177.126 106.547C177.217 106.547 177.32 106.522 177.434 106.473L177.496 106.626L176.292 107.123H176.094V106.271C175.748 106.646 175.484 106.881 175.303 106.978C175.121 107.075 174.929 107.123 174.727 107.123C174.501 107.123 174.305 107.059 174.138 106.93C173.974 106.798 173.86 106.629 173.795 106.424C173.731 106.219 173.699 105.929 173.699 105.554V103.757C173.699 103.566 173.678 103.435 173.637 103.361C173.596 103.288 173.535 103.232 173.453 103.194C173.374 103.153 173.229 103.134 173.018 103.137V102.975H174.428V105.668C174.428 106.043 174.493 106.29 174.622 106.407C174.753 106.524 174.912 106.583 175.096 106.583C175.222 106.583 175.364 106.543 175.522 106.464C175.684 106.385 175.874 106.234 176.094 106.011V103.73C176.094 103.502 176.051 103.348 175.966 103.269C175.884 103.187 175.711 103.143 175.448 103.137V102.975H176.819ZM180.071 106.42C179.658 106.739 179.398 106.924 179.293 106.974C179.135 107.047 178.966 107.083 178.788 107.083C178.509 107.083 178.279 106.988 178.098 106.798C177.919 106.607 177.83 106.357 177.83 106.046C177.83 105.85 177.874 105.68 177.961 105.537C178.082 105.337 178.29 105.15 178.585 104.974C178.884 104.798 179.379 104.584 180.071 104.333V104.174C180.071 103.773 180.006 103.498 179.877 103.348C179.751 103.199 179.567 103.124 179.324 103.124C179.139 103.124 178.993 103.174 178.884 103.273C178.773 103.373 178.717 103.487 178.717 103.616L178.726 103.871C178.726 104.006 178.691 104.11 178.621 104.183C178.553 104.256 178.464 104.293 178.353 104.293C178.244 104.293 178.155 104.255 178.084 104.179C178.017 104.103 177.983 103.999 177.983 103.867C177.983 103.615 178.112 103.383 178.37 103.172C178.628 102.961 178.99 102.856 179.456 102.856C179.813 102.856 180.106 102.916 180.334 103.036C180.507 103.127 180.635 103.269 180.717 103.462C180.77 103.588 180.796 103.846 180.796 104.236V105.603C180.796 105.986 180.803 106.222 180.818 106.31C180.833 106.395 180.856 106.452 180.888 106.481C180.923 106.511 180.963 106.525 181.007 106.525C181.054 106.525 181.095 106.515 181.13 106.495C181.191 106.457 181.31 106.35 181.486 106.174V106.42C181.158 106.859 180.844 107.079 180.545 107.079C180.402 107.079 180.288 107.029 180.203 106.93C180.118 106.83 180.074 106.66 180.071 106.42ZM180.071 106.134V104.601C179.628 104.776 179.343 104.901 179.214 104.974C178.982 105.103 178.817 105.238 178.717 105.378C178.618 105.519 178.568 105.673 178.568 105.84C178.568 106.051 178.631 106.227 178.757 106.367C178.883 106.505 179.028 106.574 179.192 106.574C179.415 106.574 179.708 106.427 180.071 106.134ZM183.173 100.751V106.09C183.173 106.342 183.191 106.509 183.226 106.591C183.264 106.673 183.321 106.736 183.397 106.78C183.474 106.821 183.616 106.842 183.824 106.842V107H181.851V106.842C182.035 106.842 182.161 106.823 182.229 106.785C182.296 106.747 182.349 106.684 182.387 106.596C182.425 106.508 182.444 106.339 182.444 106.09V102.434C182.444 101.98 182.434 101.702 182.413 101.599C182.393 101.494 182.359 101.422 182.312 101.384C182.268 101.346 182.211 101.327 182.141 101.327C182.064 101.327 181.968 101.35 181.851 101.397L181.776 101.243L182.976 100.751H183.173Z" fill="black"/>
<rect x="69" y="130" width="161" height="26" rx="6" fill="black"/>
<path d="M130.252 143.284V144.954C130.252 145.276 130.271 145.48 130.309 145.565C130.35 145.647 130.42 145.713 130.52 145.763C130.62 145.812 130.806 145.837 131.078 145.837V146H128.028V145.837C128.304 145.837 128.49 145.812 128.586 145.763C128.686 145.71 128.755 145.643 128.793 145.561C128.834 145.479 128.854 145.276 128.854 144.954V141.087C128.854 140.765 128.834 140.562 128.793 140.48C128.755 140.396 128.686 140.328 128.586 140.278C128.487 140.229 128.301 140.204 128.028 140.204V140.041H130.797C131.518 140.041 132.045 140.091 132.379 140.19C132.713 140.29 132.985 140.475 133.196 140.744C133.407 141.011 133.513 141.324 133.513 141.685C133.513 142.124 133.354 142.487 133.038 142.774C132.836 142.956 132.553 143.092 132.19 143.183L133.623 145.2C133.81 145.461 133.943 145.624 134.022 145.688C134.143 145.779 134.282 145.829 134.44 145.837V146H132.563L130.643 143.284H130.252ZM130.252 140.362V142.972H130.502C130.91 142.972 131.214 142.936 131.417 142.862C131.619 142.786 131.777 142.651 131.891 142.458C132.008 142.262 132.067 142.007 132.067 141.693C132.067 141.239 131.96 140.904 131.746 140.687C131.535 140.47 131.194 140.362 130.722 140.362H130.252ZM138.593 139.905L138.641 141.891H138.461C138.376 141.393 138.167 140.993 137.833 140.691C137.501 140.387 137.143 140.234 136.756 140.234C136.457 140.234 136.22 140.315 136.044 140.476C135.871 140.634 135.785 140.817 135.785 141.025C135.785 141.157 135.815 141.274 135.877 141.377C135.962 141.515 136.098 141.651 136.286 141.786C136.423 141.882 136.741 142.054 137.239 142.3C137.937 142.643 138.407 142.966 138.65 143.271C138.89 143.576 139.01 143.924 139.01 144.317C139.01 144.815 138.815 145.244 138.426 145.604C138.039 145.962 137.547 146.141 136.949 146.141C136.762 146.141 136.584 146.122 136.417 146.083C136.25 146.045 136.041 145.974 135.789 145.868C135.648 145.81 135.533 145.78 135.442 145.78C135.366 145.78 135.285 145.81 135.2 145.868C135.115 145.927 135.046 146.016 134.994 146.136H134.831V143.886H134.994C135.123 144.519 135.37 145.002 135.736 145.336C136.105 145.667 136.502 145.833 136.927 145.833C137.255 145.833 137.516 145.744 137.709 145.565C137.906 145.386 138.004 145.178 138.004 144.941C138.004 144.8 137.966 144.664 137.89 144.532C137.816 144.4 137.704 144.276 137.551 144.159C137.399 144.039 137.129 143.883 136.743 143.693C136.201 143.426 135.811 143.199 135.574 143.012C135.336 142.824 135.153 142.615 135.024 142.383C134.898 142.152 134.835 141.897 134.835 141.619C134.835 141.144 135.01 140.74 135.358 140.406C135.707 140.072 136.146 139.905 136.677 139.905C136.87 139.905 137.058 139.928 137.239 139.975C137.377 140.01 137.544 140.076 137.74 140.173C137.939 140.267 138.079 140.313 138.158 140.313C138.234 140.313 138.294 140.29 138.338 140.243C138.382 140.196 138.423 140.083 138.461 139.905H138.593ZM145.782 140.041V140.204C145.565 140.239 145.372 140.354 145.202 140.551C145.079 140.697 144.896 141.042 144.653 141.583L142.601 146.136H142.456L140.412 141.399C140.166 140.828 140 140.492 139.916 140.393C139.833 140.293 139.677 140.23 139.445 140.204V140.041H142.302V140.204H142.205C141.947 140.204 141.771 140.236 141.678 140.3C141.61 140.344 141.577 140.409 141.577 140.494C141.577 140.546 141.588 140.609 141.612 140.683C141.635 140.753 141.714 140.945 141.849 141.258L143.119 144.225L144.297 141.583C144.438 141.264 144.524 141.05 144.556 140.942C144.588 140.833 144.604 140.741 144.604 140.665C144.604 140.577 144.581 140.5 144.534 140.432C144.487 140.365 144.418 140.313 144.328 140.278C144.202 140.229 144.035 140.204 143.827 140.204V140.041H145.782ZM148.309 143.302V144.954C148.309 145.276 148.328 145.48 148.366 145.565C148.407 145.647 148.478 145.713 148.577 145.763C148.68 145.812 148.866 145.837 149.135 145.837V146H146.107V145.837C146.383 145.837 146.569 145.812 146.666 145.763C146.765 145.71 146.834 145.643 146.872 145.561C146.913 145.479 146.934 145.276 146.934 144.954V141.087C146.934 140.765 146.913 140.562 146.872 140.48C146.834 140.396 146.765 140.328 146.666 140.278C146.566 140.229 146.38 140.204 146.107 140.204V140.041H148.705C149.56 140.041 150.174 140.193 150.546 140.498C150.918 140.803 151.104 141.184 151.104 141.641C151.104 142.027 150.984 142.358 150.744 142.634C150.503 142.909 150.172 143.097 149.75 143.196C149.466 143.267 148.986 143.302 148.309 143.302ZM148.309 140.384V142.959C148.406 142.965 148.479 142.968 148.529 142.968C148.886 142.968 149.162 142.862 149.355 142.651C149.548 142.438 149.645 142.108 149.645 141.663C149.645 141.22 149.548 140.896 149.355 140.691C149.162 140.486 148.873 140.384 148.489 140.384H148.309ZM155.872 140.041L158.812 143.737V141.175C158.812 140.817 158.761 140.576 158.658 140.45C158.518 140.28 158.282 140.198 157.951 140.204V140.041H159.919V140.204C159.667 140.236 159.498 140.278 159.41 140.331C159.325 140.381 159.257 140.464 159.208 140.582C159.161 140.696 159.137 140.894 159.137 141.175V146.136H158.988L154.958 141.175V144.963C154.958 145.306 155.036 145.537 155.191 145.657C155.349 145.777 155.529 145.837 155.731 145.837H155.872V146H153.758V145.837C154.086 145.834 154.315 145.767 154.444 145.635C154.573 145.503 154.637 145.279 154.637 144.963V140.757L154.51 140.599C154.384 140.441 154.272 140.337 154.176 140.287C154.079 140.237 153.94 140.209 153.758 140.204V140.041H155.872ZM162.376 141.768C162.733 141.768 163.066 141.86 163.374 142.045C163.681 142.229 163.914 142.492 164.072 142.832C164.233 143.171 164.314 143.543 164.314 143.948C164.314 144.531 164.166 145.019 163.87 145.411C163.513 145.886 163.019 146.123 162.389 146.123C161.771 146.123 161.295 145.906 160.961 145.473C160.627 145.039 160.46 144.537 160.46 143.965C160.46 143.376 160.63 142.864 160.97 142.427C161.312 141.988 161.781 141.768 162.376 141.768ZM162.394 142.08C162.244 142.08 162.115 142.137 162.007 142.251C161.901 142.363 161.831 142.585 161.796 142.919C161.764 143.25 161.748 143.712 161.748 144.304C161.748 144.617 161.768 144.91 161.809 145.183C161.841 145.391 161.91 145.549 162.016 145.657C162.121 145.766 162.241 145.82 162.376 145.82C162.508 145.82 162.618 145.783 162.706 145.71C162.82 145.61 162.896 145.471 162.934 145.292C162.993 145.014 163.022 144.452 163.022 143.605C163.022 143.107 162.994 142.766 162.938 142.581C162.883 142.394 162.801 142.257 162.692 142.172C162.616 142.111 162.517 142.08 162.394 142.08ZM169.012 146.123L167.887 143.108L166.784 146.123H166.555L165.461 143.144C165.297 142.689 165.158 142.394 165.043 142.256C164.97 142.162 164.859 142.095 164.709 142.054V141.891H166.784V142.054C166.643 142.054 166.546 142.074 166.494 142.115C166.441 142.156 166.415 142.203 166.415 142.256C166.415 142.306 166.461 142.455 166.555 142.704L167.157 144.308L167.737 142.704L167.693 142.599C167.605 142.379 167.528 142.24 167.46 142.181C167.396 142.12 167.295 142.077 167.157 142.054V141.891H169.262V142.054C169.098 142.062 168.994 142.086 168.95 142.124C168.906 142.159 168.884 142.21 168.884 142.278C168.884 142.342 168.927 142.484 169.012 142.704L169.592 144.308L170.119 142.832C170.195 142.621 170.233 142.477 170.233 142.401C170.233 142.287 170.206 142.203 170.15 142.15C170.094 142.098 169.986 142.065 169.825 142.054V141.891H171.042V142.054C170.907 142.071 170.8 142.12 170.721 142.199C170.642 142.275 170.54 142.495 170.414 142.858L169.262 146.123H169.012Z" fill="white"/>
</svg>
