<svg width="300" height="180" viewBox="0 0 300 180" fill="none" xmlns="http://www.w3.org/2000/svg">
<rect width="300" height="180" fill="#191B33"/>
<g clip-path="url(#clip0_1374_985)">
<rect x="40" y="20" width="220" height="140" rx="4" fill="#252746"/>
<rect width="220" height="28" transform="translate(40 20)" fill="#333661"/>
<rect x="48" y="30" width="33" height="8" rx="4" fill="#4A4D85"/>
<rect x="98" y="30" width="43" height="8" rx="4" fill="#4A4D85"/>
<rect x="158" y="30" width="64" height="8" rx="4" fill="#4A4D85"/>
<rect x="48" y="58" width="10" height="8" rx="4" fill="#4A4D85"/>
<rect x="98" y="58" width="24" height="8" rx="4" fill="#4A4D85"/>
<rect x="158" y="58" width="80" height="8" rx="4" fill="#4A4D85"/>
<rect x="158" y="142" width="80" height="8" rx="4" fill="#4A4D85"/>
<rect x="158" y="86" width="70" height="8" rx="4" fill="#4A4D85"/>
<rect x="158" y="114" width="48" height="8" rx="4" fill="#4A4D85"/>
<rect x="98" y="86" width="36" height="8" rx="4" fill="#4A4D85"/>
<rect x="98" y="114" width="32" height="8" rx="4" fill="#4A4D85"/>
<rect x="98" y="142" width="43" height="8" rx="4" fill="#4A4D85"/>
<rect x="48" y="86" width="10" height="8" rx="4" fill="#4A4D85"/>
<rect x="48" y="114" width="10" height="8" rx="4" fill="#4A4D85"/>
<rect x="48" y="142" width="10" height="8" rx="4" fill="#4A4D85"/>
<rect x="38" y="75" width="224" height="1" fill="#4A4D85"/>
<rect x="38" y="103" width="224" height="1" fill="#4A4D85"/>
<rect x="38" y="131" width="224" height="1" fill="#4A4D85"/>
<rect x="38" y="47" width="224" height="1" fill="#4A4D85"/>
<rect x="89" y="160" width="140" height="1" transform="rotate(-90 89 160)" fill="#4A4D85"/>
<rect x="149" y="160" width="140" height="1" transform="rotate(-90 149 160)" fill="#4A4D85"/>
</g>
<rect x="39.5" y="19.5" width="221" height="141" rx="4.5" stroke="#4A4D85"/>
<defs>
<clipPath id="clip0_1374_985">
<rect x="40" y="20" width="220" height="140" rx="4" fill="white"/>
</clipPath>
</defs>
</svg>
