<svg width="300" height="180" viewBox="0 0 300 180" fill="none" xmlns="http://www.w3.org/2000/svg">
<rect width="300" height="180" fill="#191B33"/>
<g clip-path="url(#clip0_1374_969)">
<rect width="220" height="24" transform="translate(40 20)" fill="#333661"/>
<g opacity="0.4">
<mask id="path-3-outside-1_1374_969" maskUnits="userSpaceOnUse" x="46.2354" y="26.9846" width="11" height="10" fill="black">
<rect fill="white" x="46.2354" y="26.9846" width="11" height="10"/>
<path fill-rule="evenodd" clip-rule="evenodd" d="M47.2354 34.4846L47.7654 35.0146L50.8379 31.9421C51.0804 31.6971 51.0804 31.2996 50.8379 31.0571L47.7654 27.9846L47.2354 28.5146L50.2204 31.4996L47.2354 34.4846ZM51.0004 35.2495H56.5004V35.9995H51.0004V35.2495Z"/>
</mask>
<path fill-rule="evenodd" clip-rule="evenodd" d="M47.2354 34.4846L47.7654 35.0146L50.8379 31.9421C51.0804 31.6971 51.0804 31.2996 50.8379 31.0571L47.7654 27.9846L47.2354 28.5146L50.2204 31.4996L47.2354 34.4846ZM51.0004 35.2495H56.5004V35.9995H51.0004V35.2495Z" fill="white"/>
<path d="M47.7654 35.0146L47.4118 35.3682L47.7654 35.7217L48.1189 35.3682L47.7654 35.0146ZM47.2354 34.4846L46.8818 34.1311L46.5282 34.4846L46.8818 34.8382L47.2354 34.4846ZM50.8379 31.9421L51.1914 32.2957L51.1932 32.2939L50.8379 31.9421ZM50.8379 31.0571L51.1914 30.7036V30.7036L50.8379 31.0571ZM47.7654 27.9846L48.1189 27.6311L47.7654 27.2775L47.4118 27.6311L47.7654 27.9846ZM47.2354 28.5146L46.8818 28.1611L46.5282 28.5146L46.8818 28.8682L47.2354 28.5146ZM50.2204 31.4996L50.5739 31.8532L50.9275 31.4996L50.5739 31.1461L50.2204 31.4996ZM56.5004 35.2495H57.0004V34.7495H56.5004V35.2495ZM51.0004 35.2495V34.7495H50.5004V35.2495H51.0004ZM56.5004 35.9995V36.4995H57.0004V35.9995H56.5004ZM51.0004 35.9995H50.5004V36.4995H51.0004V35.9995ZM48.1189 34.6611L47.5889 34.1311L46.8818 34.8382L47.4118 35.3682L48.1189 34.6611ZM50.4843 31.5886L47.4118 34.6611L48.1189 35.3682L51.1914 32.2957L50.4843 31.5886ZM50.4843 31.4107C50.5305 31.4569 50.5331 31.5392 50.4825 31.5904L51.1932 32.2939C51.6276 31.855 51.6302 31.1423 51.1914 30.7036L50.4843 31.4107ZM47.4118 28.3382L50.4843 31.4107L51.1914 30.7036L48.1189 27.6311L47.4118 28.3382ZM47.5889 28.8682L48.1189 28.3382L47.4118 27.6311L46.8818 28.1611L47.5889 28.8682ZM50.5739 31.1461L47.5889 28.1611L46.8818 28.8682L49.8668 31.8532L50.5739 31.1461ZM47.5889 34.8382L50.5739 31.8532L49.8668 31.1461L46.8818 34.1311L47.5889 34.8382ZM56.5004 34.7495H51.0004V35.7495H56.5004V34.7495ZM57.0004 35.9995V35.2495H56.0004V35.9995H57.0004ZM51.0004 36.4995H56.5004V35.4995H51.0004V36.4995ZM50.5004 35.2495V35.9995H51.5004V35.2495H50.5004Z" fill="white" mask="url(#path-3-outside-1_1374_969)"/>
</g>
<rect width="220" height="116" transform="translate(40 44)" fill="#252746"/>
<path fill-rule="evenodd" clip-rule="evenodd" d="M217 147H247V117H217V147ZM233.327 140.398C233.327 143.318 231.615 144.648 229.118 144.648C226.862 144.648 225.553 143.48 224.887 142.07L227.183 140.682C227.627 141.467 228.03 142.13 228.995 142.13C229.923 142.13 230.507 141.768 230.507 140.36V130.773H233.327V140.398ZM239.991 144.648C237.375 144.648 235.683 143.4 234.856 141.768L237.153 140.438C237.756 141.425 238.543 142.152 239.931 142.152C241.1 142.152 241.845 141.567 241.845 140.762C241.845 139.795 241.078 139.453 239.791 138.888L239.086 138.587C237.051 137.722 235.703 136.633 235.703 134.337C235.703 132.223 237.313 130.612 239.83 130.612C241.623 130.612 242.911 131.237 243.84 132.868L241.643 134.277C241.16 133.412 240.636 133.07 239.83 133.07C239.005 133.07 238.481 133.592 238.481 134.277C238.481 135.123 239.005 135.465 240.213 135.99L240.918 136.29C243.315 137.317 244.665 138.365 244.665 140.72C244.665 143.258 242.67 144.648 239.991 144.648Z" fill="#4A4D85"/>
<rect x="48" y="52" width="204" height="8" rx="4" fill="#4A4D85"/>
<rect x="38" y="82" width="224" height="1" fill="#333661"/>
<rect x="38" y="43" width="224" height="1" fill="#4A4D85"/>
<rect x="48" y="66" width="60" height="8" rx="4" fill="#4A4D85"/>
<rect x="48" y="91" width="120" height="8" rx="4" fill="#4A4D85"/>
<rect x="48" y="105" width="140" height="8" rx="4" fill="#4A4D85"/>
<rect x="48" y="119" width="30" height="8" rx="4" fill="#4A4D85"/>
</g>
<rect x="39.5" y="19.5" width="221" height="141" rx="4.5" stroke="#4A4D85"/>
<defs>
<clipPath id="clip0_1374_969">
<rect x="40" y="20" width="220" height="140" rx="4" fill="white"/>
</clipPath>
</defs>
</svg>
