<svg width="300" height="180" fill="none" xmlns="http://www.w3.org/2000/svg"><path fill="#D3D4DA" d="M0 0h300v180H0z"/><rect x="15" y="17" width="269" height="146" rx="8" fill="#fff"/><path d="M118.14 145.2c-.04-.34-.2-.6-.47-.8a1.77 1.77 0 0 0-1.04-.28 2 2 0 0 0-.78.13c-.22.1-.38.22-.5.38a.9.9 0 0 0-.06.96c.08.13.18.23.32.32a4.87 4.87 0 0 0 .93.36l.75.18c.3.07.59.17.87.28.28.12.53.28.75.46.23.18.4.4.53.66.13.25.2.56.2.9 0 .47-.12.88-.36 1.24s-.59.63-1.04.83c-.45.2-1 .3-1.64.3-.62 0-1.16-.1-1.62-.29a2.4 2.4 0 0 1-1.07-.84c-.25-.37-.4-.82-.41-1.35h1.42a1.21 1.21 0 0 0 .85 1.1c.25.1.52.14.82.14.32 0 .6-.04.83-.14.24-.1.43-.23.56-.4.14-.17.2-.37.21-.6 0-.2-.06-.38-.18-.51a1.33 1.33 0 0 0-.5-.35 4.8 4.8 0 0 0-.76-.25l-.9-.23a3.66 3.66 0 0 1-1.57-.77c-.38-.35-.57-.8-.57-1.38 0-.47.13-.88.38-1.24.26-.35.61-.63 1.05-.82.45-.2.95-.3 1.5-.3.58 0 1.07.1 1.5.3.43.2.77.47 1.01.81.25.35.37.75.38 1.2h-1.4Zm6.55 3.28V145h1.42v6h-1.37v-1.07h-.07a1.8 1.8 0 0 1-.67.83c-.3.21-.68.32-1.13.32a1.81 1.81 0 0 1-1.75-1.03 2.71 2.71 0 0 1-.25-1.23V145h1.41v3.6c0 .38.1.68.31.9.21.23.49.34.83.34a1.3 1.3 0 0 0 1.08-.6c.13-.2.2-.46.2-.76Zm2.93 2.52v-8h1.42v3h.06c.07-.15.17-.3.3-.47.14-.17.32-.31.54-.43.23-.12.52-.18.87-.18a2.28 2.28 0 0 1 2.15 1.4c.22.46.33 1.02.33 1.69 0 .66-.11 1.22-.33 1.68a2.28 2.28 0 0 1-2.15 1.42 1.9 1.9 0 0 1-.85-.18c-.23-.11-.4-.25-.55-.41a2.71 2.71 0 0 1-.31-.47H129v.95h-1.39Zm1.39-3c0 .39.06.73.16 1.02.12.3.28.52.49.68.2.17.46.25.76.25.31 0 .58-.09.79-.25.2-.17.36-.4.47-.7.11-.29.17-.63.17-1s-.06-.7-.16-1a1.5 1.5 0 0 0-.48-.67 1.24 1.24 0 0 0-.79-.25c-.3 0-.56.08-.77.24-.21.16-.37.38-.48.67-.1.28-.16.62-.16 1.01Zm5.48 3v-6h1.35v1.02h.07c.13-.34.33-.61.62-.8.3-.2.64-.3 1.04-.3s.75.1 1.03.3c.28.2.47.46.59.8h.06c.13-.33.36-.6.67-.8.32-.2.7-.3 1.13-.3.55 0 1 .18 1.35.53.35.34.53.85.53 1.52V151h-1.42v-3.8c0-.38-.1-.65-.3-.82-.2-.18-.44-.27-.72-.27-.34 0-.61.11-.8.32-.2.22-.29.49-.29.83V151h-1.39v-3.87a1 1 0 0 0-.28-.74.98.98 0 0 0-.72-.28 1.09 1.09 0 0 0-.95.59c-.1.19-.16.4-.16.65V151h-1.41Zm9.87 0v-6h1.42v6h-1.42Zm.71-6.85a.83.83 0 0 1-.57-.22.72.72 0 0 1-.25-.55c0-.21.08-.4.25-.54a.82.82 0 0 1 .57-.23c.23 0 .42.08.58.23.16.15.24.33.24.54 0 .21-.08.4-.24.55a.82.82 0 0 1-.58.22Zm5.16.85v1.1h-3.45V145h3.45Zm-2.6-1.44h1.41v5.63c0 .2.03.34.09.44.06.1.14.17.23.2.1.04.2.06.32.06a1.38 1.38 0 0 0 .42-.05l.24 1.1a3.03 3.03 0 0 1-.84.14c-.35.01-.67-.04-.95-.16-.29-.12-.51-.3-.68-.55a1.66 1.66 0 0 1-.24-.94v-5.87Zm11.93 2c-.07-.22-.16-.4-.27-.57a1.73 1.73 0 0 0-.95-.7 2.26 2.26 0 0 0-1.8.23c-.34.21-.6.53-.8.95-.2.41-.29.92-.29 1.52s.1 1.12.29 1.54c.19.42.45.74.8.95.33.22.72.33 1.17.33.4 0 .76-.08 1.06-.24.3-.15.53-.37.69-.66.16-.29.24-.63.24-1.01l.33.04h-2.17v-1.13h3.24v.96c0 .69-.14 1.28-.44 1.78-.29.5-.69.89-1.2 1.16-.5.26-1.1.4-1.76.4a3.44 3.44 0 0 1-3.24-1.91 4.81 4.81 0 0 1-.46-2.2c0-.64.09-1.22.27-1.72.19-.51.44-.94.77-1.3a3.3 3.3 0 0 1 1.17-.8 3.83 3.83 0 0 1 2.7-.09 3.27 3.27 0 0 1 1.75 1.39c.19.32.32.68.38 1.08h-1.48Zm6.7 2.92V145h1.42v6h-1.37v-1.07h-.06a1.8 1.8 0 0 1-.67.83c-.31.21-.69.32-1.14.32a1.81 1.81 0 0 1-1.75-1.03 2.73 2.73 0 0 1-.25-1.23V145h1.41v3.6c0 .38.1.68.32.9.2.23.48.34.82.34a1.3 1.3 0 0 0 1.08-.6c.13-.2.2-.46.2-.76Zm5.53 2.64c-.6 0-1.12-.13-1.56-.38-.43-.25-.77-.6-1-1.07a3.6 3.6 0 0 1-.35-1.63c0-.62.11-1.16.35-1.63a2.66 2.66 0 0 1 2.49-1.49c.37 0 .71.06 1.04.18.33.12.63.3.88.55.25.25.45.56.6.94.14.38.22.84.22 1.36v.44h-4.92v-.96h3.56c0-.27-.06-.5-.17-.72a1.27 1.27 0 0 0-.48-.5c-.2-.13-.44-.19-.71-.19-.3 0-.55.07-.77.21-.22.14-.39.33-.5.55-.13.22-.19.47-.2.74v.83c0 .35.07.65.2.9s.3.44.53.57c.23.13.5.2.8.2.21 0 .4-.03.57-.09.16-.06.3-.15.43-.26.12-.12.22-.26.28-.43l1.32.15c-.08.35-.24.65-.48.92-.23.25-.53.45-.89.6a3.4 3.4 0 0 1-1.24.2Zm8.6-4.53-1.28.14c-.04-.13-.1-.26-.2-.37a.96.96 0 0 0-.35-.28c-.16-.07-.34-.1-.56-.1-.3 0-.54.06-.74.19-.2.13-.3.3-.3.5 0 .17.07.31.2.42.13.1.35.2.65.27l1.03.22c.56.12.99.31 1.26.58.28.27.42.61.43 1.04 0 .38-.12.71-.34 1-.21.29-.51.51-.9.68-.38.16-.83.24-1.33.24-.73 0-1.32-.16-1.77-.46a1.85 1.85 0 0 1-.8-1.3l1.38-.13c.06.27.2.48.4.61.2.14.46.21.79.21s.6-.07.8-.2c.21-.14.32-.31.32-.52a.53.53 0 0 0-.2-.42c-.13-.12-.34-.2-.61-.26l-1.03-.22c-.57-.12-1-.32-1.27-.6a1.49 1.49 0 0 1-.41-1.09c0-.37.1-.69.3-.96.2-.27.49-.48.85-.63.37-.15.8-.23 1.27-.23.7 0 1.26.15 1.66.45.4.3.66.7.76 1.22Zm6.04 0-1.29.14a1.03 1.03 0 0 0-.55-.65c-.15-.07-.33-.1-.55-.1-.3 0-.54.06-.74.19-.2.13-.3.3-.3.5 0 .17.06.31.2.42.13.1.35.2.65.27l1.03.22c.56.12.98.31 1.26.58.28.27.42.61.42 1.04 0 .38-.11.71-.33 1-.22.29-.52.51-.9.68-.39.16-.83.24-1.33.24-.74 0-1.33-.16-1.77-.46a1.85 1.85 0 0 1-.8-1.3l1.37-.13c.07.27.2.48.4.61.2.14.47.21.8.21.33 0 .6-.07.8-.2.21-.14.31-.31.31-.52a.54.54 0 0 0-.2-.42 1.4 1.4 0 0 0-.6-.26l-1.03-.22c-.57-.12-1-.32-1.28-.6a1.49 1.49 0 0 1-.4-1.09c0-.37.1-.69.3-.96.2-.27.48-.48.85-.63.37-.15.79-.23 1.27-.23.7 0 1.26.15 1.66.45.4.3.66.7.75 1.22Z" fill="#fff"/><path d="m34.47 69-2.26-8h1.56l1.44 5.88h.08L36.83 61h1.42l1.54 5.88h.07L41.3 61h1.56l-2.26 8h-1.43l-1.6-5.61h-.06L35.9 69h-1.44Zm11.38.12c-.6 0-1.13-.13-1.56-.38-.44-.25-.77-.6-1-1.07-.24-.46-.36-1-.36-1.63 0-.62.12-1.16.35-1.63a2.66 2.66 0 0 1 2.5-1.49c.36 0 .71.06 1.04.18.33.12.62.3.87.55.26.25.46.56.6.94.15.38.22.84.22 1.36v.44H43.6v-.96h3.56c0-.27-.06-.5-.18-.72a1.28 1.28 0 0 0-.48-.5c-.2-.13-.44-.19-.7-.19-.3 0-.55.07-.77.21-.22.14-.39.32-.51.55-.12.23-.18.47-.19.74v.83c0 .35.07.65.2.9.12.25.3.44.53.57.23.13.5.2.8.2.21 0 .4-.03.56-.09.17-.06.31-.15.44-.26.12-.12.21-.26.27-.43l1.33.15c-.09.35-.25.65-.48.91-.23.26-.53.46-.9.6-.35.15-.77.22-1.23.22Zm3.92-.12v-8h1.42v3h.06c.07-.15.17-.3.3-.47.14-.17.32-.31.54-.43.23-.12.52-.18.87-.18a2.29 2.29 0 0 1 2.14 1.4c.23.46.34 1.02.34 1.69 0 .66-.11 1.22-.33 1.68a2.27 2.27 0 0 1-2.15 1.42c-.34 0-.62-.06-.85-.18-.23-.11-.41-.25-.55-.41a2.68 2.68 0 0 1-.31-.47h-.09V69h-1.39Zm1.39-3c0 .39.05.73.16 1.02.12.3.28.52.48.68.21.16.47.25.77.25.31 0 .57-.09.78-.25.22-.17.37-.4.48-.7.11-.29.17-.63.17-1s-.06-.7-.16-1a1.5 1.5 0 0 0-.48-.67 1.25 1.25 0 0 0-.8-.25c-.3 0-.55.08-.76.24-.21.16-.37.38-.48.67-.1.28-.16.62-.16 1.01Zm10.98 3h-2.71v-8h2.77c.79 0 1.47.16 2.04.48.58.32 1.02.78 1.32 1.37.31.6.46 1.31.46 2.14 0 .84-.15 1.55-.46 2.15-.3.6-.75 1.06-1.33 1.38-.58.32-1.28.48-2.09.48Zm-1.26-1.25h1.19c.56 0 1.02-.1 1.4-.3.37-.21.65-.52.83-.93.2-.4.29-.92.29-1.53s-.1-1.12-.29-1.52c-.18-.4-.46-.71-.83-.91-.36-.2-.82-.3-1.36-.3h-1.23v5.49Zm9.11 1.37c-.6 0-1.12-.13-1.55-.38-.44-.25-.77-.6-1-1.07-.24-.46-.36-1-.36-1.63 0-.62.12-1.16.35-1.63a2.66 2.66 0 0 1 2.49-1.49c.37 0 .72.06 1.05.18.33.12.62.3.87.55.26.25.46.56.6.94.15.38.22.84.22 1.36v.44h-4.92v-.96h3.57c0-.27-.06-.5-.18-.72a1.28 1.28 0 0 0-.48-.5c-.2-.13-.44-.19-.71-.19-.29 0-.54.07-.76.21-.22.14-.4.32-.51.55-.12.23-.19.47-.19.74v.83c0 .35.07.65.2.9.12.25.3.44.53.57.23.13.5.2.8.2.2 0 .4-.03.56-.09.17-.06.31-.15.44-.26.12-.12.21-.26.27-.43l1.32.15c-.08.35-.24.65-.47.91-.23.26-.53.46-.9.6-.36.15-.77.22-1.24.22ZM79.05 63l-2.14 6h-1.56l-2.14-6h1.5l1.39 4.46h.06L77.54 63h1.5Zm3.43 6.12c-.6 0-1.12-.13-1.56-.38-.44-.25-.77-.6-1-1.07-.24-.46-.36-1-.36-1.63 0-.62.12-1.16.35-1.63a2.66 2.66 0 0 1 2.5-1.49c.36 0 .71.06 1.04.18.33.12.62.3.87.55.26.25.46.56.6.94.15.38.22.84.22 1.36v.44h-4.91v-.96h3.56c0-.27-.06-.5-.18-.72a1.28 1.28 0 0 0-.48-.5c-.2-.13-.44-.19-.7-.19-.3 0-.55.07-.77.21-.22.14-.39.32-.51.55-.12.23-.18.47-.19.74v.83c0 .35.07.65.2.9.12.25.3.44.53.57.23.13.5.2.8.2.21 0 .4-.03.56-.09.17-.06.32-.15.44-.26.12-.12.21-.26.28-.43l1.32.15c-.09.35-.25.65-.48.91-.23.26-.53.46-.9.6-.35.15-.77.22-1.23.22ZM87.75 61v8h-1.4v-8h1.4Zm4.08 8.12a2.9 2.9 0 0 1-1.53-.39 2.63 2.63 0 0 1-1-1.08c-.23-.47-.35-1-.35-1.63 0-.62.12-1.16.35-1.63.24-.46.57-.82 1-1.08a2.9 2.9 0 0 1 1.53-.39c.58 0 1.09.13 1.52.39.43.26.76.62 1 1.08.23.47.35 1.01.35 1.63 0 .62-.12 1.16-.35 1.63a2.6 2.6 0 0 1-1 1.08 2.9 2.9 0 0 1-1.52.39Zm0-1.14c.32 0 .59-.08.8-.26.21-.17.37-.41.48-.7.1-.3.16-.64.16-1 0-.37-.06-.7-.16-1-.1-.3-.27-.53-.48-.71a1.2 1.2 0 0 0-.8-.27c-.32 0-.6.1-.8.27a1.6 1.6 0 0 0-.49.71 3 3 0 0 0-.16 1c0 .36.06.7.16 1 .1.29.27.53.48.7.22.18.49.26.81.26Zm4.07 3.27V63h1.4v1h.07c.08-.15.18-.3.31-.47.14-.17.32-.31.54-.43.23-.12.52-.18.87-.18a2.29 2.29 0 0 1 2.14 1.4c.22.46.33 1.02.33 1.69 0 .66-.1 1.22-.32 1.68a2.27 2.27 0 0 1-2.15 1.42c-.34 0-.63-.06-.85-.18-.23-.11-.41-.25-.55-.41a2.68 2.68 0 0 1-.32-.47h-.05v3.2H95.9ZM97.3 66c0 .39.05.73.16 1.02.11.3.27.52.48.68.21.16.47.25.77.25.31 0 .57-.09.78-.25.21-.17.37-.4.48-.7.1-.29.16-.63.16-1s-.05-.7-.16-1a1.5 1.5 0 0 0-.47-.67 1.25 1.25 0 0 0-.8-.25c-.3 0-.55.08-.76.24-.21.16-.37.38-.48.67-.1.28-.16.62-.16 1.01Zm8.14 3.12a3.1 3.1 0 0 1-1.56-.38c-.43-.25-.77-.6-1-1.07-.23-.46-.35-1-.35-1.63 0-.62.12-1.16.35-1.63a2.66 2.66 0 0 1 2.49-1.49c.37 0 .72.06 1.05.18.33.12.62.3.87.55.25.25.46.56.6.94.15.38.22.84.22 1.36v.44h-4.92v-.96h3.56c0-.27-.06-.5-.17-.72a1.27 1.27 0 0 0-.48-.5c-.2-.13-.44-.19-.71-.19-.3 0-.55.07-.76.21-.22.14-.4.32-.52.55-.11.23-.18.47-.18.74v.83c0 .35.06.65.2.9.12.25.3.44.53.57.23.13.5.2.8.2.2 0 .4-.03.56-.09.17-.06.31-.15.43-.26.13-.12.22-.26.28-.43l1.32.15c-.08.35-.24.65-.48.91-.23.26-.52.46-.89.6-.36.15-.77.22-1.24.22Zm3.87-.12v-6h1.37v1h.06a1.5 1.5 0 0 1 1.48-1.09 3.3 3.3 0 0 1 .5.04v1.3a2.64 2.64 0 0 0-.66-.08c-.25 0-.48.06-.68.17a1.23 1.23 0 0 0-.66 1.13V69h-1.41ZM32.7 96v-5.82h1.97c.46 0 .83.08 1.12.25.3.16.5.38.65.66.14.28.2.59.2.93 0 .35-.06.66-.2.94-.14.28-.35.5-.64.67-.3.16-.67.25-1.12.25h-1.4v-.63h1.38c.31 0 .56-.05.75-.16.2-.11.33-.26.41-.44.1-.19.13-.4.13-.63 0-.23-.04-.44-.13-.62a.93.93 0 0 0-.41-.43c-.2-.11-.45-.16-.76-.16H33.4V96h-.7Zm6.28.1c-.28 0-.53-.05-.76-.15a1.3 1.3 0 0 1-.53-.46c-.14-.2-.2-.44-.2-.73 0-.25.05-.45.14-.6.1-.16.24-.29.4-.38.16-.08.35-.15.55-.2a6.65 6.65 0 0 1 1.25-.18 1 1 0 0 0 .36-.1c.08-.04.12-.11.12-.22v-.02c0-.28-.08-.5-.23-.66-.16-.15-.39-.23-.7-.23-.32 0-.57.07-.75.21-.18.14-.3.3-.38.45l-.64-.23a1.53 1.53 0 0 1 1.08-.93 2.59 2.59 0 0 1 1.16-.04c.18.03.36.1.53.2.17.1.31.26.43.47.1.2.17.48.17.83V96h-.67v-.6h-.04a1.31 1.31 0 0 1-.65.58c-.18.08-.39.12-.64.12Zm.1-.6c.26 0 .49-.05.67-.16a1.06 1.06 0 0 0 .56-.92v-.61c-.03.03-.1.06-.2.1a3.16 3.16 0 0 1-.68.11l-.28.04c-.18.02-.34.06-.5.1a.84.84 0 0 0-.36.23c-.09.1-.13.23-.13.4 0 .24.08.41.26.53.17.12.4.18.66.18Zm6.21-2.89-.6.17c-.04-.1-.1-.2-.17-.29a.81.81 0 0 0-.3-.24c-.12-.06-.28-.1-.48-.1-.26 0-.48.07-.66.2-.18.12-.27.27-.27.46 0 .16.06.3.18.4.13.09.32.17.57.23l.65.16c.4.1.68.24.87.44.2.19.29.44.29.74 0 .25-.07.48-.22.67-.14.2-.34.36-.6.47-.25.11-.55.17-.88.17-.45 0-.82-.1-1.11-.29-.3-.2-.48-.47-.55-.85l.63-.15c.06.23.18.4.35.52.17.12.39.18.66.18.32 0 .56-.07.75-.2.18-.13.28-.3.28-.48a.5.5 0 0 0-.16-.38c-.1-.1-.27-.18-.5-.24l-.72-.17c-.4-.1-.7-.24-.88-.44-.18-.2-.28-.45-.28-.75 0-.25.07-.46.21-.65.14-.2.33-.34.57-.45a2 2 0 0 1 .82-.16c.44 0 .78.1 1.02.28.25.2.43.44.53.75Zm4.18 0-.6.17c-.04-.1-.1-.2-.17-.29a.81.81 0 0 0-.3-.24c-.12-.06-.28-.1-.48-.1-.26 0-.48.07-.66.2-.18.12-.27.27-.27.46 0 .16.06.3.18.4.13.09.32.17.57.23l.65.16c.4.1.68.24.87.44.2.19.29.44.29.74 0 .25-.07.48-.22.67-.14.2-.34.36-.6.47-.25.11-.55.17-.88.17-.45 0-.82-.1-1.11-.29-.3-.2-.48-.47-.55-.85l.63-.15c.06.23.18.4.35.52.17.12.39.18.66.18.32 0 .56-.07.75-.2.18-.13.28-.3.28-.48a.5.5 0 0 0-.16-.38c-.1-.1-.27-.18-.5-.24l-.72-.17c-.4-.1-.7-.24-.88-.44-.18-.2-.28-.45-.28-.75 0-.25.07-.46.21-.65.14-.2.33-.34.57-.45a2 2 0 0 1 .82-.16c.44 0 .78.1 1.02.28.25.2.43.44.53.75ZM50.56 96v-4.36h.67V96h-.67Zm.34-5.1a.48.48 0 0 1-.34-.12.43.43 0 0 1-.14-.33c0-.12.05-.23.14-.32.1-.09.2-.13.34-.13.13 0 .24.04.34.13.09.1.14.2.14.32a.47.47 0 0 1-.48.45Zm3.33 5.2c-.4 0-.74-.1-1.04-.29-.3-.19-.52-.45-.69-.79a2.66 2.66 0 0 1-.25-1.18c0-.45.09-.85.25-1.19.17-.34.4-.6.7-.79.29-.19.64-.28 1.03-.28.4 0 .74.1 1.03.28.3.19.53.45.7.8.16.33.25.73.25 1.18 0 .45-.09.85-.25 1.18-.17.34-.4.6-.7.79-.3.19-.64.28-1.03.28Zm0-.61c.3 0 .55-.08.74-.23.2-.15.33-.36.43-.6.09-.26.14-.53.14-.82 0-.3-.05-.56-.14-.81-.1-.26-.24-.46-.43-.62-.2-.15-.44-.23-.74-.23s-.55.08-.74.23c-.2.16-.33.36-.43.62-.09.25-.14.52-.14.81 0 .3.05.56.14.81.1.25.24.46.43.6.2.16.44.24.74.24Zm3.67-2.11V96h-.67v-4.36h.65v.68h.06c.1-.22.25-.4.46-.54.21-.13.48-.2.8-.2.3 0 .56.06.78.18.23.12.4.3.52.55.12.24.19.55.19.92V96H60v-2.73c0-.34-.08-.6-.26-.8a.95.95 0 0 0-.74-.29c-.2 0-.4.05-.57.14a1 1 0 0 0-.4.4c-.09.19-.14.4-.14.66Zm5.3 2.72c-.28 0-.53-.05-.76-.15a1.3 1.3 0 0 1-.54-.46c-.13-.2-.2-.44-.2-.73 0-.25.06-.45.15-.6.1-.16.23-.29.4-.38.16-.08.35-.15.54-.2a6.66 6.66 0 0 1 1.25-.18 1 1 0 0 0 .37-.1c.08-.04.11-.11.11-.22v-.02c0-.28-.07-.5-.23-.66-.15-.15-.38-.23-.69-.23-.32 0-.57.07-.75.21-.18.14-.3.3-.38.45l-.64-.23a1.53 1.53 0 0 1 1.08-.93 2.6 2.6 0 0 1 1.15-.04c.19.03.36.1.54.2.17.1.31.26.42.47.12.2.17.48.17.83V96h-.67v-.6h-.03a1.31 1.31 0 0 1-.65.58c-.18.08-.4.12-.65.12Zm.1-.6c.26 0 .49-.05.67-.16a1.06 1.06 0 0 0 .55-.92v-.61c-.02.03-.09.06-.18.1a3.15 3.15 0 0 1-.7.11l-.27.04c-.18.02-.34.06-.5.1a.84.84 0 0 0-.36.23c-.09.1-.13.23-.13.4 0 .24.08.41.25.53.18.12.4.18.67.18Zm5.02-3.86v.56h-2.27v-.56h2.27Zm-1.6-1.05h.66v4.16c0 .19.03.33.09.43.05.09.13.15.21.18.1.03.19.05.28.05a1.19 1.19 0 0 0 .3-.03l.14.6a1.37 1.37 0 0 1-.5.08c-.2 0-.38-.04-.56-.13a1.1 1.1 0 0 1-.45-.37 1.07 1.07 0 0 1-.18-.63V90.6Zm4.39 5.5c-.42 0-.79-.1-1.1-.28-.3-.19-.53-.45-.7-.78a2.67 2.67 0 0 1-.24-1.18c0-.44.08-.84.25-1.18a1.85 1.85 0 0 1 1.72-1.1c.23 0 .45.05.67.12a1.67 1.67 0 0 1 1.04 1.04c.11.28.16.62.16 1.03v.29h-3.36v-.58h2.68c0-.25-.05-.47-.15-.66a1.11 1.11 0 0 0-1.04-.63c-.27 0-.5.07-.7.2-.19.13-.34.3-.44.51-.1.21-.16.44-.16.68v.38c0 .33.06.61.17.84.12.23.28.4.48.52.2.12.45.18.72.18.17 0 .33-.03.47-.08.15-.05.27-.12.38-.22.1-.1.18-.23.24-.38l.65.18c-.07.22-.19.41-.35.58-.16.16-.36.3-.6.38-.23.1-.5.14-.8.14Zm6.06-.09-1.33-4.36h.7l.95 3.34h.05l.93-3.34h.71l.92 3.33h.05l.94-3.33h.7L80.48 96h-.66l-.96-3.35h-.06L77.83 96h-.66Zm7.2.1c-.43 0-.79-.1-1.1-.29-.3-.19-.53-.45-.7-.78a2.67 2.67 0 0 1-.24-1.18c0-.44.08-.84.25-1.18.16-.34.39-.6.68-.8.3-.2.64-.3 1.04-.3.22.01.45.05.67.12a1.67 1.67 0 0 1 1.04 1.04c.1.28.16.62.16 1.03v.29h-3.36v-.58h2.68c0-.25-.05-.47-.15-.66a1.11 1.11 0 0 0-1.04-.63c-.27 0-.5.07-.7.2-.19.13-.34.3-.44.51-.1.21-.16.44-.16.68v.38c0 .33.06.61.17.84.12.23.28.4.48.52.2.12.44.18.72.18.17 0 .33-.03.47-.08.15-.05.27-.12.37-.22.1-.1.19-.23.25-.38l.64.18c-.06.22-.18.41-.34.58-.16.16-.36.3-.6.38-.23.1-.5.14-.8.14Zm2.91-.1v-5.82h.67v2.15h.06l.2-.29c.1-.12.22-.23.39-.32.16-.1.39-.14.67-.14a1.73 1.73 0 0 1 1.63 1.06c.16.33.23.73.23 1.19 0 .46-.07.86-.23 1.2-.16.34-.38.6-.65.79-.28.18-.6.27-.97.27-.28 0-.5-.05-.67-.14-.17-.1-.3-.2-.39-.32-.1-.12-.16-.22-.21-.3h-.08V96h-.65Zm.66-2.18c0 .33.05.62.15.87.1.25.23.45.42.59.19.14.41.2.68.2.28 0 .52-.07.7-.21.2-.15.33-.35.43-.6.1-.26.14-.54.14-.85 0-.3-.04-.59-.14-.83-.09-.25-.23-.45-.42-.59a1.12 1.12 0 0 0-.7-.22 1.12 1.12 0 0 0-1.12.78c-.1.25-.14.53-.14.86Zm8.12 2.27a1.7 1.7 0 0 1-1.62-1.06 2.83 2.83 0 0 1-.23-1.2c0-.46.07-.86.23-1.2a1.73 1.73 0 0 1 1.63-1.06c.28.01.5.06.67.15.17.1.3.2.38.32.1.12.16.21.21.29h.06v-2.15h.67V96h-.65v-.67h-.08l-.2.3c-.1.12-.23.23-.4.32-.17.1-.4.14-.67.14Zm.09-.6c.27 0 .5-.07.68-.21.19-.14.33-.34.42-.59.1-.25.15-.54.15-.87 0-.33-.05-.61-.14-.86-.1-.24-.24-.43-.42-.57-.19-.14-.42-.2-.7-.2-.27 0-.51.06-.7.21a1.3 1.3 0 0 0-.42.59c-.1.24-.14.52-.14.83 0 .3.04.6.14.84.1.26.24.46.42.6.2.15.43.23.7.23Zm5.06.6c-.42 0-.78-.1-1.09-.28-.3-.19-.54-.45-.7-.78a2.68 2.68 0 0 1-.25-1.18c0-.44.09-.84.25-1.18a1.85 1.85 0 0 1 1.72-1.1c.23 0 .45.05.67.12a1.66 1.66 0 0 1 1.04 1.04c.11.28.17.62.17 1.03v.29h-3.37v-.58h2.68c0-.25-.05-.47-.14-.66a1.12 1.12 0 0 0-1.05-.63c-.27 0-.5.07-.7.2-.19.13-.33.3-.44.51-.1.21-.15.44-.15.68v.38c0 .33.05.61.17.84.11.23.27.4.48.52.2.12.44.18.7.18.19 0 .34-.03.49-.08.14-.05.26-.12.37-.22.1-.1.18-.23.24-.38l.65.18c-.07.22-.19.41-.35.58-.16.16-.36.3-.6.38-.23.1-.5.14-.8.14Zm6.26-4.45L105.86 96h-.69l-1.6-4.36h.72l1.2 3.47h.05l1.2-3.47h.73Zm2.56 4.45c-.42 0-.78-.1-1.09-.28-.3-.19-.54-.45-.7-.78a2.67 2.67 0 0 1-.24-1.18c0-.44.08-.84.24-1.18a1.85 1.85 0 0 1 1.72-1.1c.23 0 .45.05.67.12.23.08.43.2.6.37.2.17.34.4.44.67.11.28.17.62.17 1.03v.29h-3.37v-.58h2.68c0-.25-.05-.47-.14-.66a1.1 1.1 0 0 0-1.05-.63c-.27 0-.5.07-.7.2-.19.13-.33.3-.44.51-.1.21-.15.44-.15.68v.38c0 .33.05.61.17.84.11.23.27.4.48.52.2.12.44.18.7.18.19 0 .34-.03.49-.08.14-.05.26-.12.37-.22.1-.1.18-.23.24-.38l.65.18c-.07.22-.19.41-.35.58-.16.16-.36.3-.6.38-.23.1-.5.14-.8.14Zm3.5-5.9V96h-.67v-5.82h.67Zm3 5.9c-.4 0-.74-.1-1.04-.28-.3-.19-.53-.45-.7-.79a2.66 2.66 0 0 1-.24-1.18c0-.45.08-.85.25-1.19.16-.34.4-.6.69-.79.3-.19.64-.28 1.04-.28s.74.1 1.03.28c.3.19.53.45.7.8.16.33.24.73.24 1.18 0 .45-.08.85-.25 1.18-.16.34-.4.6-.69.79-.3.19-.64.28-1.03.28Zm0-.6c.3 0 .54-.08.74-.23.19-.15.33-.36.42-.6.1-.26.14-.53.14-.82 0-.3-.04-.56-.14-.81-.09-.26-.23-.46-.42-.62-.2-.15-.44-.23-.74-.23s-.55.08-.74.23c-.2.16-.34.36-.43.62a2.36 2.36 0 0 0 0 1.62c.1.25.23.46.43.6.2.16.44.24.74.24Zm3 2.15v-6h.64v.69h.08l.21-.29c.09-.12.22-.23.38-.32.17-.1.4-.14.68-.14a1.73 1.73 0 0 1 1.62 1.06c.16.33.24.73.24 1.19 0 .46-.08.86-.24 1.2a1.71 1.71 0 0 1-1.62 1.06c-.27 0-.5-.05-.67-.14-.16-.1-.3-.2-.38-.32l-.22-.3h-.05v2.3h-.67Zm.66-3.82c0 .33.05.62.14.87.1.25.24.45.42.59.2.14.42.2.69.2.28 0 .51-.07.7-.21.19-.15.33-.35.42-.6.1-.26.15-.54.15-.85 0-.3-.05-.59-.14-.83-.1-.25-.24-.45-.43-.59a1.12 1.12 0 0 0-.7-.22 1.12 1.12 0 0 0-1.11.78c-.1.25-.14.53-.14.86Zm6.04 2.27c-.42 0-.78-.1-1.09-.28-.3-.19-.53-.45-.7-.78a2.69 2.69 0 0 1-.24-1.18c0-.44.08-.84.24-1.18a1.85 1.85 0 0 1 1.72-1.1c.23 0 .46.05.68.12.22.08.42.2.6.37.18.17.33.4.44.67.1.28.16.62.16 1.03v.29h-3.36v-.58h2.68c0-.25-.05-.47-.15-.66a1.12 1.12 0 0 0-1.05-.63c-.26 0-.5.07-.69.2-.2.13-.34.3-.44.51-.1.21-.16.44-.16.68v.38c0 .33.05.61.17.84.11.23.27.4.48.52.2.12.44.18.71.18.18 0 .34-.03.48-.08.14-.05.27-.12.37-.22.1-.1.19-.23.24-.38l.65.18c-.07.22-.18.41-.34.58-.16.16-.36.3-.6.38-.24.1-.5.14-.8.14Zm2.83-.09v-4.36h.65v.66h.04c.08-.22.23-.4.43-.53.21-.13.45-.2.7-.2a7.36 7.36 0 0 1 .36.01v.68a2.04 2.04 0 0 0-.4-.04c-.22 0-.41.04-.58.13-.16.09-.3.2-.39.36a.99.99 0 0 0-.14.53V96h-.67Zm6.21 0-1.33-4.36h.7l.95 3.34h.05l.93-3.34h.72l.92 3.33h.04l.94-3.33h.7L138.58 96h-.66l-.95-3.35h-.07l-.96 3.35h-.66Zm6.19-2.63V96h-.67v-5.82h.67v2.14h.05c.1-.23.26-.4.46-.54.2-.13.48-.2.83-.2.3 0 .55.06.78.18.22.12.4.3.52.54.12.24.19.55.19.93V96h-.67v-2.73c0-.34-.1-.61-.28-.8a.96.96 0 0 0-.74-.29c-.22 0-.41.05-.59.14-.17.1-.3.23-.4.4-.1.19-.15.4-.15.66Zm5.82 2.72c-.39 0-.74-.1-1.03-.28a1.9 1.9 0 0 1-.7-.79 2.66 2.66 0 0 1-.24-1.18c0-.45.08-.85.25-1.19.16-.34.4-.6.69-.79.3-.19.64-.28 1.03-.28.4 0 .74.1 1.04.28.3.19.53.45.7.8.16.33.24.73.24 1.18 0 .45-.08.85-.25 1.18-.16.34-.4.6-.7.79-.29.19-.63.28-1.03.28Zm0-.6c.3 0 .55-.08.74-.23.2-.15.34-.36.43-.6.1-.26.14-.53.14-.82 0-.3-.05-.56-.14-.81-.09-.26-.23-.46-.43-.62-.19-.15-.44-.23-.74-.23s-.54.08-.73.23c-.2.16-.34.36-.43.62-.1.25-.14.52-.14.81 0 .3.04.56.14.81.09.25.23.46.43.6.19.16.44.24.73.24Zm5.93-5.3V96h-.67v-5.82h.67Zm3 5.9c-.4 0-.74-.1-1.04-.28a1.9 1.9 0 0 1-.7-.79 2.66 2.66 0 0 1-.24-1.18c0-.45.08-.85.25-1.19.16-.34.4-.6.69-.79.3-.19.64-.28 1.04-.28s.73.1 1.03.28c.3.19.53.45.7.8.16.33.24.73.24 1.18 0 .45-.08.85-.25 1.18-.16.34-.4.6-.69.79-.3.19-.64.28-1.03.28Zm0-.6c.3 0 .54-.08.73-.23.2-.15.34-.36.43-.6.1-.26.14-.53.14-.82 0-.3-.04-.56-.14-.81-.09-.26-.23-.46-.43-.62-.19-.15-.43-.23-.73-.23s-.55.08-.74.23c-.2.16-.34.36-.43.62-.1.25-.14.52-.14.81 0 .3.05.56.14.81.1.25.24.46.43.6.2.16.44.24.74.24Zm6.4-3.85-1.6 4.36h-.69l-1.61-4.36h.73l1.2 3.47h.05l1.2-3.47h.73Zm2.57 4.45c-.42 0-.79-.1-1.1-.28-.3-.19-.53-.45-.7-.78a2.67 2.67 0 0 1-.24-1.18c0-.44.09-.84.25-1.18a1.85 1.85 0 0 1 1.72-1.1c.23 0 .45.05.67.12a1.67 1.67 0 0 1 1.04 1.04c.11.28.16.62.16 1.03v.29h-3.36v-.58h2.68c0-.25-.05-.47-.15-.66a1.12 1.12 0 0 0-1.04-.63c-.27 0-.5.07-.7.2-.19.13-.34.3-.44.51-.1.21-.16.44-.16.68v.38c0 .33.06.61.17.84.12.23.28.4.48.52.2.12.45.18.72.18.17 0 .33-.03.47-.08.15-.05.27-.12.38-.22.1-.1.18-.23.24-.38l.65.18c-.07.22-.19.41-.35.58-.16.16-.36.3-.6.38-.23.1-.5.14-.8.14Zm5.91-3.48-.6.17c-.03-.1-.1-.2-.17-.29a.81.81 0 0 0-.29-.24c-.13-.06-.28-.1-.48-.1-.27 0-.49.07-.67.2-.17.12-.26.27-.26.46 0 .16.06.3.18.4.12.09.31.17.57.23l.65.16c.39.1.68.24.87.44.19.19.29.44.29.74 0 .25-.08.48-.22.67-.14.2-.34.36-.6.47-.25.11-.55.17-.89.17-.44 0-.81-.1-1.1-.29-.3-.2-.48-.47-.56-.85l.64-.15c.06.23.17.4.34.52s.4.18.67.18c.31 0 .56-.07.74-.2.19-.13.28-.3.28-.48a.5.5 0 0 0-.16-.38c-.1-.1-.27-.18-.49-.24l-.72-.17c-.4-.1-.7-.24-.88-.44-.19-.2-.28-.45-.28-.75 0-.25.07-.46.2-.65.14-.2.34-.34.58-.45a2 2 0 0 1 .82-.16c.43 0 .77.1 1.02.28.25.2.42.44.53.75Zm-136.58 9.03v.56h-2.26v-.56h2.26Zm-1.6-1.05h.67v4.16c0 .19.03.33.08.43.06.09.13.15.22.18s.18.05.28.05l.18-.01.11-.03.14.6a1.37 1.37 0 0 1-.5.09c-.19 0-.37-.04-.56-.13-.18-.08-.33-.2-.44-.37a1.06 1.06 0 0 1-.18-.63v-4.34Zm4.34 5.5c-.4 0-.74-.1-1.04-.28-.3-.19-.53-.45-.7-.79a2.66 2.66 0 0 1-.24-1.18c0-.45.08-.85.25-1.19.16-.34.4-.6.69-.79.3-.19.64-.28 1.04-.28.39 0 .73.1 1.03.28.3.19.53.45.7.8.16.33.24.73.24 1.18 0 .45-.08.85-.25 1.18-.16.34-.4.6-.69.79-.3.19-.64.28-1.03.28Zm0-.6c.3 0 .54-.08.73-.23.2-.16.34-.36.43-.6.1-.26.14-.53.14-.82 0-.3-.04-.56-.14-.81-.09-.26-.23-.46-.43-.61-.19-.16-.43-.24-.73-.24s-.55.08-.74.23c-.2.16-.34.36-.43.62-.1.25-.14.52-.14.81 0 .3.05.56.14.81.1.25.23.45.43.6.19.16.44.24.74.24Zm7.02.6c-.41 0-.76-.1-1.06-.29-.3-.2-.52-.46-.68-.8a2.7 2.7 0 0 1-.24-1.16c0-.44.08-.83.25-1.17.16-.34.39-.6.68-.8.3-.2.64-.29 1.04-.29.3 0 .58.06.83.17.24.11.45.27.6.48.16.2.26.44.3.71h-.68a1.04 1.04 0 0 0-1.04-.76c-.26 0-.5.07-.69.2-.2.14-.35.33-.46.58-.1.24-.16.53-.16.86 0 .34.06.63.16.88s.26.44.46.58c.2.14.42.2.69.2.17 0 .33-.02.47-.08a.98.98 0 0 0 .57-.67H46a1.55 1.55 0 0 1-.87 1.18 1.9 1.9 0 0 1-.85.18Zm2.7-.09v-4.36h.64v.66h.05c.08-.22.22-.4.43-.53.2-.13.44-.2.7-.2a7.04 7.04 0 0 1 .36.01v.68a2.3 2.3 0 0 0-.41-.04c-.21 0-.4.04-.57.13-.16.09-.3.2-.4.36a.98.98 0 0 0-.13.53V106h-.67Zm4.67.1c-.42 0-.78-.1-1.09-.29-.3-.19-.54-.45-.7-.78a2.67 2.67 0 0 1-.25-1.18c0-.44.09-.84.25-1.18a1.85 1.85 0 0 1 1.72-1.09c.23 0 .45.04.67.11a1.68 1.68 0 0 1 1.04 1.04c.11.28.17.62.17 1.03v.28h-3.37v-.57h2.68c0-.25-.05-.47-.14-.66a1.12 1.12 0 0 0-1.05-.63c-.27 0-.5.07-.7.2-.19.13-.33.3-.44.51-.1.21-.16.44-.16.68v.39c0 .32.06.6.18.83.11.23.27.4.48.52.2.12.44.18.7.18.18 0 .34-.03.49-.07.14-.06.26-.13.37-.23.1-.1.18-.23.24-.38l.65.18c-.07.22-.19.41-.35.58-.16.16-.36.3-.6.39-.23.09-.5.13-.8.13Zm4.1 0c-.27 0-.52-.05-.74-.15-.23-.11-.4-.26-.54-.46a1.3 1.3 0 0 1-.2-.73c0-.25.05-.45.15-.6.1-.16.23-.29.4-.38.16-.09.34-.15.54-.2a6.99 6.99 0 0 1 1.25-.18 1 1 0 0 0 .36-.1c.08-.04.12-.11.12-.22v-.02a.9.9 0 0 0-.23-.66c-.15-.15-.38-.23-.7-.23-.31 0-.56.07-.74.21-.19.14-.31.29-.39.45l-.63-.23a1.53 1.53 0 0 1 1.08-.93 2.62 2.62 0 0 1 1.15-.04c.18.03.36.1.53.2.17.1.32.26.43.47.11.2.17.48.17.83V106h-.67v-.6h-.04c-.04.1-.12.2-.22.31-.1.11-.25.2-.43.28-.17.07-.39.11-.64.11Zm.11-.6c.27 0 .49-.05.67-.16a1.06 1.06 0 0 0 .56-.92v-.61c-.03.03-.1.06-.19.1a3.35 3.35 0 0 1-.69.11l-.28.04c-.17.02-.34.06-.49.1a.84.84 0 0 0-.36.23c-.1.1-.14.23-.14.4 0 .24.09.41.26.53.17.12.4.18.66.18Zm5.02-3.86v.56h-2.26v-.56h2.26Zm-1.6-1.05h.67v4.16c0 .19.03.33.08.43.06.09.13.15.22.18s.18.05.28.05l.18-.01.11-.03.14.6a1.37 1.37 0 0 1-.5.09c-.19 0-.37-.04-.56-.13a1.1 1.1 0 0 1-.45-.37 1.06 1.06 0 0 1-.17-.63v-4.34Zm4.4 5.5a1.86 1.86 0 0 1-1.79-1.06 2.67 2.67 0 0 1-.25-1.18c0-.44.08-.84.24-1.18.17-.34.4-.6.69-.8.3-.2.64-.29 1.03-.29.23 0 .46.04.68.11a1.68 1.68 0 0 1 1.04 1.04c.1.28.16.62.16 1.03v.28H62.1v-.57h2.68c0-.25-.05-.47-.15-.66a1.12 1.12 0 0 0-1.05-.63c-.26 0-.5.07-.69.2-.2.13-.34.3-.45.51-.1.21-.15.44-.15.68v.39c0 .32.06.6.17.83.11.23.27.4.48.52.2.12.44.18.71.18.18 0 .34-.03.48-.07.14-.06.27-.13.37-.23.1-.1.19-.23.24-.38l.65.18c-.07.22-.18.41-.34.58-.16.16-.36.3-.6.39-.24.09-.5.13-.8.13Zm5.07-.09v-4.36h.65v.68h.05c.1-.23.24-.42.44-.54.2-.14.45-.2.73-.2.3 0 .53.06.72.2.2.12.35.3.45.54h.05c.11-.23.28-.4.5-.54.23-.13.5-.2.8-.2.4 0 .72.12.96.37.25.24.38.62.38 1.13V106h-.67v-2.92c0-.32-.1-.55-.27-.7a.98.98 0 0 0-.62-.2c-.3 0-.55.1-.71.28a1 1 0 0 0-.26.7V106h-.68v-2.99a.78.78 0 0 0-.24-.6.87.87 0 0 0-.62-.23.92.92 0 0 0-.5.14 1.14 1.14 0 0 0-.5.95V106h-.66Zm8.72.1c-.39 0-.74-.1-1.03-.29-.3-.19-.53-.45-.7-.79a2.66 2.66 0 0 1-.24-1.18c0-.45.08-.85.24-1.19.17-.34.4-.6.7-.79.3-.19.64-.28 1.03-.28.4 0 .74.1 1.04.28.3.19.53.45.7.8.16.33.24.73.24 1.18 0 .45-.08.85-.25 1.18-.16.34-.4.6-.7.79-.29.19-.63.28-1.03.28Zm0-.61c.3 0 .55-.08.74-.23.2-.16.34-.36.43-.6.1-.26.14-.53.14-.82 0-.3-.05-.56-.14-.81-.1-.26-.23-.46-.43-.61-.19-.16-.44-.24-.74-.24s-.54.08-.73.23c-.2.16-.34.36-.43.62-.1.25-.14.52-.14.81 0 .3.04.56.14.81.09.25.23.45.43.6.19.16.44.24.73.24Zm4.65.6a1.7 1.7 0 0 1-1.61-1.06 2.83 2.83 0 0 1-.24-1.2c0-.46.08-.86.24-1.2a1.73 1.73 0 0 1 1.63-1.06c.28.01.5.06.67.15.16.1.3.2.38.32.09.12.16.21.2.29h.06v-2.15h.67V106h-.64v-.67h-.08l-.21.3c-.1.12-.23.23-.4.32-.16.1-.39.14-.67.14Zm.1-.6c.26 0 .49-.07.68-.21.18-.14.32-.34.42-.59.1-.25.14-.54.14-.87 0-.33-.04-.61-.14-.86-.1-.24-.23-.43-.42-.57-.18-.14-.41-.2-.69-.2-.28 0-.52.06-.7.21-.2.14-.33.34-.43.59-.1.25-.14.52-.14.83 0 .3.05.6.14.85.1.25.24.45.43.6.19.15.42.22.7.22Zm5.05.6a1.86 1.86 0 0 1-1.79-1.06 2.67 2.67 0 0 1-.24-1.18c0-.44.08-.84.24-1.18a1.85 1.85 0 0 1 1.72-1.09c.23 0 .46.04.68.11a1.68 1.68 0 0 1 1.04 1.04c.1.28.16.62.16 1.03v.28h-3.36v-.57h2.68c0-.25-.05-.47-.15-.66a1.12 1.12 0 0 0-1.04-.63c-.27 0-.5.07-.7.2-.2.13-.34.3-.44.51-.1.21-.16.44-.16.68v.39c0 .32.06.6.17.83.12.23.28.4.48.52.2.12.44.18.71.18.18 0 .34-.03.48-.07.14-.06.27-.13.37-.23.1-.1.19-.23.24-.38l.65.18c-.07.22-.18.41-.34.58-.16.16-.36.3-.6.39-.23.09-.5.13-.8.13Zm2.83-.09v-4.36h.65v.66h.04c.08-.22.23-.4.44-.53.2-.13.44-.2.7-.2a7.04 7.04 0 0 1 .35.01v.68a2.3 2.3 0 0 0-.4-.04c-.22 0-.4.04-.58.13a.98.98 0 0 0-.53.89V106h-.67Zm3.65-2.63V106h-.67v-4.36h.64v.68h.06c.1-.22.26-.4.47-.54.2-.13.47-.2.8-.2.3 0 .56.06.78.18.22.12.4.3.52.55.12.24.18.55.18.92V106h-.67v-2.73c0-.34-.09-.6-.27-.8a.94.94 0 0 0-.73-.29c-.21 0-.4.05-.57.14a1 1 0 0 0-.4.4c-.1.19-.14.4-.14.66Zm7.25 2.63-1.33-4.36h.7l.94 3.34h.05l.93-3.34h.72l.92 3.33h.04l.95-3.33h.7l-1.33 4.36h-.66l-.95-3.35h-.07l-.96 3.35h-.66Zm7.19.1c-.42 0-.79-.1-1.1-.29-.3-.19-.53-.45-.7-.78a2.67 2.67 0 0 1-.24-1.18c0-.44.08-.84.25-1.18a1.85 1.85 0 0 1 1.72-1.09c.23 0 .45.04.67.11a1.68 1.68 0 0 1 1.04 1.04c.11.28.16.62.16 1.03v.28h-3.36v-.57h2.68c0-.25-.05-.47-.14-.66a1.12 1.12 0 0 0-1.05-.63c-.27 0-.5.07-.7.2-.19.13-.34.3-.44.51-.1.21-.16.44-.16.68v.39c0 .32.06.6.17.83.12.23.28.4.48.52.2.12.45.18.72.18.17 0 .33-.03.47-.07.15-.06.27-.13.38-.23.1-.1.18-.23.24-.38l.65.18c-.07.22-.19.41-.35.58-.16.16-.36.3-.6.39-.23.09-.5.13-.8.13Zm2.91-.1v-5.82h.68v2.15h.05l.2-.29c.1-.12.22-.23.39-.32.16-.1.39-.14.67-.14a1.73 1.73 0 0 1 1.63 1.06c.16.33.24.73.24 1.19 0 .46-.08.86-.24 1.2a1.7 1.7 0 0 1-1.62 1.06c-.28 0-.5-.05-.67-.14-.17-.1-.3-.2-.39-.32a5 5 0 0 1-.2-.3h-.09v.67h-.64Zm.66-2.18c0 .33.05.62.15.87.1.25.24.45.42.59.19.14.42.2.68.2.28 0 .52-.06.7-.21.2-.15.34-.35.43-.6.1-.26.15-.54.15-.85 0-.3-.05-.58-.14-.83-.1-.25-.24-.44-.43-.59a1.12 1.12 0 0 0-.7-.22 1.12 1.12 0 0 0-1.11.78c-.1.25-.15.53-.15.86Zm7.31-1.2-.6.16c-.04-.1-.1-.2-.17-.29a.81.81 0 0 0-.3-.24c-.12-.06-.28-.1-.47-.1-.27 0-.5.07-.67.2-.17.12-.26.27-.26.46 0 .16.06.3.18.4.12.09.3.17.57.23l.64.16c.4.1.69.24.88.44.19.19.28.44.28.74 0 .25-.07.48-.21.67-.14.2-.34.36-.6.47-.25.11-.55.17-.9.17-.44 0-.8-.1-1.1-.29-.29-.2-.47-.47-.55-.84l.64-.16c.06.23.17.4.34.52s.4.18.67.18c.31 0 .56-.07.74-.2.19-.13.28-.3.28-.48a.5.5 0 0 0-.16-.38 1 1 0 0 0-.49-.23l-.72-.18c-.4-.1-.7-.24-.89-.44-.18-.2-.27-.45-.27-.75 0-.25.06-.46.2-.65.14-.2.33-.34.57-.45.25-.1.52-.16.83-.16.43 0 .77.1 1.02.28.24.2.42.44.52.75Zm1.1 3.38v-4.36h.66V106h-.67Zm.33-5.1a.47.47 0 0 1-.33-.12.43.43 0 0 1-.14-.33c0-.12.04-.23.14-.32.09-.08.2-.13.33-.13s.25.05.34.13c.1.1.14.2.14.33a.47.47 0 0 1-.48.45Zm3.46.74v.56h-2.26v-.56h2.26Zm-1.6-1.05h.67v4.16c0 .19.03.33.08.43.06.09.13.15.22.18.08.03.18.05.28.05l.18-.01.11-.03.14.6-.2.06a1.4 1.4 0 0 1-.86-.1 1.1 1.1 0 0 1-.45-.37 1.06 1.06 0 0 1-.17-.63v-4.34Zm4.39 5.5a1.86 1.86 0 0 1-1.79-1.06 2.67 2.67 0 0 1-.24-1.18c0-.44.08-.84.24-1.18a1.85 1.85 0 0 1 1.72-1.09c.23 0 .45.04.67.11a1.67 1.67 0 0 1 1.04 1.04c.11.28.17.62.17 1.03v.28h-3.37v-.57h2.68c0-.25-.04-.47-.14-.66a1.12 1.12 0 0 0-1.05-.63c-.27 0-.5.07-.7.2-.18.13-.33.3-.44.51-.1.21-.15.44-.15.68v.39c0 .32.05.6.17.83.11.23.27.4.48.52.2.12.44.18.71.18.18 0 .34-.03.48-.07.14-.06.27-.13.37-.23.1-.1.18-.23.24-.38l.65.18c-.07.22-.18.41-.34.58-.17.16-.36.3-.6.39-.24.09-.5.13-.8.13Zm5.92-3.48-.6.17c-.04-.1-.1-.2-.17-.29a.82.82 0 0 0-.3-.24c-.12-.06-.28-.1-.48-.1-.27 0-.49.07-.67.2-.17.12-.26.27-.26.46 0 .16.06.3.18.4.12.09.31.17.57.23l.65.16c.39.1.68.24.87.44.2.19.29.44.29.74 0 .25-.08.48-.22.67-.14.2-.34.36-.6.47-.25.11-.55.17-.89.17-.44 0-.81-.1-1.1-.29-.3-.2-.48-.47-.56-.84l.64-.16c.06.23.18.4.34.52.17.12.4.18.67.18.31 0 .56-.07.75-.2.18-.13.27-.3.27-.48a.5.5 0 0 0-.16-.38 1 1 0 0 0-.48-.23l-.73-.18c-.4-.1-.7-.24-.88-.44-.19-.2-.28-.45-.28-.75 0-.25.07-.46.2-.65.15-.2.34-.34.58-.45.24-.1.52-.16.82-.16.43 0 .77.1 1.02.28.25.2.42.44.53.75ZM32.7 132v-5.82h3.52v.63H33.4v1.96h2.62v.63h-2.62v1.97h2.85v.63H32.7Zm4.7 0v-4.36h.64v.68h.06c.09-.23.24-.42.44-.54.2-.14.45-.2.73-.2.29 0 .53.06.72.2.2.12.34.3.45.54h.05c.1-.23.28-.4.5-.54.22-.13.49-.2.8-.2.4 0 .71.12.96.37.25.24.37.62.37 1.13V132h-.67v-2.92c0-.32-.09-.55-.26-.7a.98.98 0 0 0-.62-.2c-.31 0-.55.1-.72.28a1 1 0 0 0-.25.7V132h-.68v-2.99a.78.78 0 0 0-.24-.6.87.87 0 0 0-.63-.23.92.92 0 0 0-.48.14c-.15.1-.28.22-.37.39-.09.16-.13.35-.13.56V132h-.68Zm8.23.1c-.27 0-.53-.05-.75-.15-.23-.11-.4-.26-.54-.46a1.3 1.3 0 0 1-.2-.73c0-.25.05-.45.15-.6.1-.16.23-.29.4-.38.16-.09.34-.15.54-.2a6.99 6.99 0 0 1 1.25-.18 1 1 0 0 0 .37-.1c.07-.04.11-.11.11-.22v-.02a.9.9 0 0 0-.23-.66c-.15-.15-.38-.23-.69-.23-.32 0-.57.07-.75.21-.18.14-.31.29-.39.45l-.63-.23a1.53 1.53 0 0 1 1.08-.93 2.62 2.62 0 0 1 1.15-.04c.19.03.36.1.53.2.17.1.32.26.43.46.12.21.17.49.17.84V132h-.67v-.6h-.03a1.32 1.32 0 0 1-.65.58c-.18.08-.4.12-.65.12Zm.1-.6c.27 0 .5-.05.67-.16a1.06 1.06 0 0 0 .56-.92v-.61c-.03.03-.09.06-.19.1a3.34 3.34 0 0 1-.69.11l-.28.04c-.17.02-.33.06-.49.1a.84.84 0 0 0-.36.23c-.1.1-.14.24-.14.4 0 .24.09.42.26.53.18.12.4.18.66.18Zm3.13.5v-4.36h.67V132h-.67Zm.34-5.1a.48.48 0 0 1-.34-.12.43.43 0 0 1-.14-.33c0-.12.05-.23.14-.32.1-.08.2-.13.34-.13.13 0 .24.05.33.13.1.1.14.2.14.33 0 .12-.04.23-.14.32-.1.08-.2.13-.33.13Zm2.22-.72V132h-.67v-5.82h.67Zm1.72 5.86a.5.5 0 0 1-.36-.14.5.5 0 0 1-.15-.37.5.5 0 0 1 .15-.36.5.5 0 0 1 .36-.15.5.5 0 0 1 .36.15c.1.1.15.22.15.36 0 .1-.02.18-.07.26a.53.53 0 0 1-.18.19.48.48 0 0 1-.26.06Zm0-3.23a.49.49 0 0 1-.36-.15.5.5 0 0 1-.15-.37c0-.13.05-.25.15-.35.1-.1.22-.16.36-.16.14 0 .26.05.36.16.1.1.15.22.15.35a.53.53 0 0 1-.26.44.5.5 0 0 1-.25.08Zm3.97-1.17h.67v4.68c0 .27-.05.5-.14.7a1 1 0 0 1-.42.45c-.18.11-.41.17-.7.17h-.13V133h.12c.2 0 .36-.06.45-.18a.8.8 0 0 0 .15-.51v-4.68Zm.33-.73a.48.48 0 0 1-.34-.13.43.43 0 0 1-.14-.33c0-.12.04-.23.14-.32.1-.08.2-.13.34-.13.13 0 .24.05.33.13.1.1.14.2.14.33 0 .12-.04.23-.14.32-.1.08-.2.13-.33.13Zm2.85 5.2c-.28 0-.53-.06-.75-.16-.23-.11-.4-.26-.54-.46a1.3 1.3 0 0 1-.2-.73c0-.25.05-.45.15-.6.1-.16.23-.29.4-.38.16-.09.34-.15.54-.2a6.97 6.97 0 0 1 1.25-.18 1 1 0 0 0 .36-.1c.08-.04.12-.11.12-.22v-.02a.9.9 0 0 0-.23-.66c-.15-.15-.38-.23-.7-.23-.31 0-.56.07-.75.21-.18.14-.3.29-.38.45l-.64-.23a1.53 1.53 0 0 1 1.08-.93 2.62 2.62 0 0 1 1.16-.04c.18.03.36.1.53.2.17.1.31.26.43.46.11.21.17.49.17.84V132h-.67v-.6h-.04c-.04.1-.12.2-.22.31-.1.11-.25.2-.43.28-.17.07-.39.11-.64.11Zm.1-.61c.27 0 .49-.05.67-.16a1.06 1.06 0 0 0 .56-.92v-.61c-.03.03-.1.06-.19.1a3.35 3.35 0 0 1-.69.11l-.28.04c-.18.02-.34.06-.49.1a.84.84 0 0 0-.36.23c-.1.1-.14.24-.14.4 0 .24.09.42.26.53.17.12.4.18.66.18Zm3.8-2.13V132h-.68v-4.36h.65v.68h.06c.1-.22.25-.4.46-.54.21-.13.48-.2.8-.2.3 0 .56.06.78.18.23.12.4.3.52.55.13.24.19.55.19.92V132h-.67v-2.73c0-.34-.1-.6-.27-.8a.94.94 0 0 0-.73-.29c-.22 0-.4.05-.58.14a1 1 0 0 0-.4.4c-.09.19-.14.4-.14.66Zm5.83 2.72a1.86 1.86 0 0 1-1.79-1.06 2.67 2.67 0 0 1-.24-1.18c0-.44.08-.84.24-1.18.17-.34.4-.6.69-.8.3-.2.64-.29 1.03-.29.23 0 .45.04.68.11a1.68 1.68 0 0 1 1.04 1.04c.1.28.16.62.16 1.03v.28h-3.37v-.57h2.69c0-.25-.05-.47-.15-.66a1.12 1.12 0 0 0-1.05-.63c-.26 0-.5.07-.69.2-.2.13-.34.3-.45.51-.1.21-.15.44-.15.68v.39c0 .32.05.6.17.83.11.23.27.4.48.52.2.12.44.18.71.18.18 0 .34-.03.48-.08.14-.05.27-.12.37-.22.1-.1.19-.23.24-.38l.65.18c-.07.22-.18.41-.34.58-.16.16-.36.3-.6.39-.24.08-.5.13-.8.13Zm6.18 1.44c-.58 0-1.1-.07-1.54-.24a2.9 2.9 0 0 1-1.8-1.82 4.63 4.63 0 0 1-.24-1.53c0-.55.08-1.05.24-1.48a3 3 0 0 1 1.8-1.82 4.2 4.2 0 0 1 2.86.02 2.86 2.86 0 0 1 1.61 1.7c.14.36.2.74.2 1.13 0 .27 0 .55-.03.83-.03.29-.09.55-.17.78-.09.24-.22.43-.4.57a1.1 1.1 0 0 1-.71.22c-.13 0-.28-.02-.44-.07-.16-.04-.3-.1-.42-.2a.57.57 0 0 1-.22-.4h-.04a1.01 1.01 0 0 1-.57.56c-.15.05-.33.08-.55.07-.25 0-.46-.06-.65-.16s-.35-.24-.47-.42a1.95 1.95 0 0 1-.29-.6 2.9 2.9 0 0 1-.09-.76c0-.26.04-.49.11-.7.08-.22.18-.4.32-.56a1.59 1.59 0 0 1 1.07-.56c.19-.02.36-.01.52.03.15.03.28.08.38.15.1.07.16.15.2.23h.02v-.32h.6v2.57c0 .16.05.3.14.42.09.12.22.18.39.18.2 0 .34-.06.44-.2.1-.13.18-.33.22-.61.04-.28.06-.63.06-1.06a2.72 2.72 0 0 0-.42-1.45 2.27 2.27 0 0 0-1.27-.96c-.29-.1-.61-.14-.97-.14-.45 0-.85.07-1.2.2a2.4 2.4 0 0 0-1.45 1.56c-.13.38-.2.8-.2 1.28a4 4 0 0 0 .2 1.28c.12.38.31.7.56.95.26.26.57.45.94.59a3.77 3.77 0 0 0 2.44 0l.33-.1.16.53c-.12.04-.27.1-.46.14a5.74 5.74 0 0 1-1.21.17Zm-.33-2.26c.25 0 .46-.05.62-.15.15-.1.27-.26.34-.46.07-.21.1-.47.1-.78 0-.32-.03-.57-.11-.75a.71.71 0 0 0-.35-.37c-.16-.08-.35-.11-.58-.11a.9.9 0 0 0-.55.17c-.15.11-.27.26-.35.45-.08.18-.12.38-.12.6 0 .25.03.48.1.69.06.21.17.38.31.52.15.13.34.2.6.2Zm4.47.73v-4.36h.65v.68h.05c.1-.23.24-.42.45-.54.2-.14.44-.2.73-.2.28 0 .52.06.71.2.2.12.35.3.46.54h.04c.11-.23.28-.4.5-.54.23-.13.5-.2.8-.2.4 0 .72.12.97.37.24.24.37.62.37 1.13V132h-.67v-2.92c0-.32-.1-.55-.27-.7a.98.98 0 0 0-.62-.2c-.3 0-.54.1-.71.28a1 1 0 0 0-.26.7V132h-.68v-2.99a.78.78 0 0 0-.24-.6.87.87 0 0 0-.62-.23.92.92 0 0 0-.49.14c-.15.1-.27.22-.36.39-.1.16-.14.35-.14.56V132h-.67Zm6.95 0v-4.36h.67V132h-.67Zm.34-5.1a.48.48 0 0 1-.33-.12.43.43 0 0 1-.14-.33c0-.12.04-.23.14-.32.1-.08.2-.13.33-.13s.25.05.34.13c.1.1.14.2.14.33a.47.47 0 0 1-.48.45Zm1.56 5.1v-4.36h.65v.68h.06c.09-.23.23-.42.44-.54.2-.14.44-.2.73-.2.28 0 .52.06.72.2.19.12.34.3.45.54h.04c.11-.23.28-.4.5-.54.23-.13.5-.2.8-.2.4 0 .72.12.97.37.25.24.37.62.37 1.13V132h-.67v-2.92c0-.32-.09-.55-.27-.7a.98.98 0 0 0-.62-.2c-.3 0-.54.1-.71.28a1 1 0 0 0-.25.7V132h-.69v-2.99a.78.78 0 0 0-.24-.6.87.87 0 0 0-.62-.23.92.92 0 0 0-.49.14c-.15.1-.27.22-.36.39-.1.16-.14.35-.14.56V132h-.67Zm8.73.1c-.4 0-.74-.1-1.04-.29-.3-.19-.53-.45-.7-.79a2.66 2.66 0 0 1-.24-1.18c0-.45.08-.85.25-1.19.16-.34.4-.6.7-.79.29-.19.63-.28 1.03-.28s.74.1 1.03.28c.3.19.53.45.7.8.16.33.24.73.24 1.18 0 .45-.08.85-.25 1.18-.16.34-.4.6-.69.79-.3.19-.64.28-1.03.28Zm0-.61c.3 0 .54-.08.74-.23.19-.16.33-.36.43-.6.09-.26.13-.53.13-.82 0-.3-.04-.56-.13-.81-.1-.26-.24-.46-.43-.62-.2-.15-.44-.23-.74-.23s-.55.08-.74.23c-.2.16-.34.36-.43.62-.1.25-.14.52-.14.81 0 .3.05.56.14.81.1.25.24.45.43.6.2.16.44.24.74.24Zm3.49.55a.5.5 0 0 1-.36-.14.5.5 0 0 1-.15-.37.5.5 0 0 1 .15-.36.5.5 0 0 1 .36-.15.5.5 0 0 1 .36.15c.1.1.15.22.15.36a.53.53 0 0 1-.26.44.48.48 0 0 1-.25.07Zm3.48.05c-.39 0-.73-.1-1.03-.28-.3-.19-.53-.45-.7-.79a2.66 2.66 0 0 1-.24-1.18c0-.45.08-.85.24-1.19.17-.34.4-.6.7-.79.3-.19.64-.28 1.03-.28.4 0 .74.1 1.04.28.3.19.53.45.7.8.16.33.24.73.24 1.18 0 .45-.08.85-.25 1.18-.16.34-.4.6-.7.79-.29.19-.63.28-1.03.28Zm0-.6c.3 0 .55-.08.74-.23.2-.16.34-.36.43-.6.1-.26.14-.53.14-.82 0-.3-.05-.56-.14-.81-.1-.26-.23-.46-.43-.62-.19-.15-.44-.23-.74-.23s-.54.08-.73.23c-.2.16-.34.36-.43.62-.1.25-.14.52-.14.81 0 .3.04.56.14.81.09.25.23.45.43.6.19.16.44.24.73.24Zm3 .51v-4.36h.65v.65h.05c.08-.21.22-.39.43-.52.2-.13.44-.2.7-.2a7.02 7.02 0 0 1 .36.01v.68a2.32 2.32 0 0 0-.41-.04c-.22 0-.4.04-.57.13-.16.09-.3.2-.4.36a.99.99 0 0 0-.14.53V132h-.67Zm4.61 1.73c-.32 0-.6-.04-.83-.13a1.76 1.76 0 0 1-.95-.75l.53-.37.23.27c.1.1.22.2.38.27.16.08.38.12.64.12.35 0 .64-.09.87-.26.23-.17.35-.44.35-.8v-.89h-.06l-.21.3a1.2 1.2 0 0 1-.39.3c-.16.1-.39.14-.67.14a1.75 1.75 0 0 1-1.61-.98c-.17-.31-.25-.7-.25-1.16 0-.44.08-.83.24-1.16a1.73 1.73 0 0 1 1.63-1.05c.28 0 .5.05.67.14.17.1.3.2.39.32.1.12.16.21.21.29h.07v-.7h.65v4.5c0 .37-.09.68-.26.91-.17.24-.4.41-.68.52-.28.11-.6.17-.95.17Zm-.02-2.4c.27 0 .5-.06.68-.19.19-.12.33-.3.42-.53.1-.23.15-.5.15-.83 0-.31-.05-.59-.15-.83-.09-.24-.23-.43-.41-.56-.2-.14-.42-.2-.7-.2a1.14 1.14 0 0 0-1.13.79c-.09.24-.14.5-.14.8 0 .3.05.57.15.8.1.24.23.42.42.55.2.13.43.2.7.2ZM32.7 146v-5.82h1.97c.46 0 .83.08 1.12.25.3.16.5.38.65.66.14.28.2.59.2.93 0 .35-.06.66-.2.94-.14.28-.35.5-.64.67-.3.16-.67.25-1.12.25h-1.4v-.63h1.38c.31 0 .56-.05.75-.16.2-.11.33-.26.41-.44.1-.19.13-.4.13-.63 0-.23-.04-.44-.13-.62a.93.93 0 0 0-.41-.43c-.2-.11-.45-.16-.76-.16H33.4V146h-.7Zm5.66-2.63V146h-.67v-5.82h.67v2.14h.06c.1-.23.25-.4.46-.54.2-.13.48-.2.82-.2.3 0 .56.06.78.18.23.12.4.3.52.54.13.24.2.55.2.93V146h-.68v-2.73c0-.34-.09-.61-.27-.8a.96.96 0 0 0-.74-.29c-.22 0-.42.05-.6.14-.16.1-.3.23-.4.4-.1.19-.15.4-.15.66Zm5.83 2.72c-.4 0-.74-.1-1.04-.28-.3-.19-.52-.45-.69-.79a2.66 2.66 0 0 1-.25-1.18c0-.45.09-.85.25-1.19.17-.34.4-.6.7-.79.3-.19.64-.28 1.03-.28.4 0 .74.1 1.04.28.3.19.52.45.69.8.16.33.25.73.25 1.18 0 .45-.09.85-.25 1.18-.17.34-.4.6-.7.79-.29.19-.63.28-1.03.28Zm0-.6c.3 0 .55-.08.74-.23.2-.16.34-.36.43-.6.1-.26.14-.53.14-.82 0-.3-.05-.56-.14-.81-.1-.26-.24-.46-.43-.62-.2-.15-.44-.23-.74-.23s-.54.08-.74.23c-.2.16-.33.36-.43.62-.09.25-.14.52-.14.81 0 .3.05.56.14.81.1.25.24.45.43.6.2.16.44.24.74.24Zm3.67-2.12V146h-.67v-4.36h.65v.68h.06c.1-.22.25-.4.46-.54.21-.13.48-.2.8-.2.3 0 .56.06.78.18.23.12.4.3.52.55.12.24.19.55.19.92V146h-.67v-2.73c0-.34-.1-.6-.27-.8a.94.94 0 0 0-.73-.29c-.22 0-.4.05-.58.14a1 1 0 0 0-.4.4c-.09.19-.14.4-.14.66Zm5.84 2.72a1.86 1.86 0 0 1-1.79-1.06 2.67 2.67 0 0 1-.24-1.18c0-.44.08-.84.24-1.18.17-.34.4-.6.69-.8.3-.2.64-.29 1.03-.29.23 0 .45.04.68.11a1.68 1.68 0 0 1 1.04 1.04c.1.28.16.62.16 1.03v.28h-3.37v-.57h2.69c0-.25-.05-.47-.15-.66a1.12 1.12 0 0 0-1.05-.63c-.26 0-.5.07-.69.2-.2.13-.34.3-.45.51-.1.21-.15.44-.15.68v.39c0 .32.05.6.17.83.11.23.27.4.48.52.2.12.44.18.71.18.18 0 .34-.03.48-.08.14-.05.27-.12.37-.22.1-.1.19-.23.24-.38l.65.18c-.07.22-.18.41-.34.58-.17.16-.36.3-.6.39-.24.08-.5.13-.8.13Zm3.32-.05a.5.5 0 0 1-.36-.14.5.5 0 0 1-.15-.37.5.5 0 0 1 .15-.36.5.5 0 0 1 .36-.15.5.5 0 0 1 .36.15c.1.1.15.22.15.36 0 .1-.03.18-.07.26a.53.53 0 0 1-.19.19.48.48 0 0 1-.25.06Zm0-3.23a.49.49 0 0 1-.36-.15.5.5 0 0 1-.15-.37c0-.13.05-.25.15-.35.1-.1.22-.16.36-.16.14 0 .26.05.36.16.1.1.15.22.15.35a.53.53 0 0 1-.26.44.5.5 0 0 1-.25.08Zm5.67 2.17v-3.75h.63v3.75h-.63Zm-1.56-1.56v-.64h3.75v.64h-3.75Zm7.16-3.24V146h-.7v-5.08h-.04l-1.42.94v-.71l1.45-.97h.7Zm4.17 2.91a6.15 6.15 0 0 1 1.08-3.64h.6c-.14.2-.27.42-.4.7a6.75 6.75 0 0 0-.51 1.91 7.36 7.36 0 0 0 .9 4.67h-.59a6.15 6.15 0 0 1-1.08-3.64Zm4.7-2.9V146h-.7v-5.08h-.04l-1.42.94v-.71l1.45-.97h.7Zm1.67 5.81v-.51l1.92-2.1c.22-.25.41-.46.56-.65.14-.18.25-.35.32-.51.07-.17.1-.34.1-.51a.94.94 0 0 0-.54-.88 1.3 1.3 0 0 0-.57-.12c-.22 0-.41.04-.58.13-.17.1-.3.22-.38.39a1.2 1.2 0 0 0-.14.58h-.67a1.64 1.64 0 0 1 .88-1.5c.27-.15.58-.22.92-.22.34 0 .64.07.9.22.27.14.47.34.62.58.15.25.23.52.23.82 0 .21-.04.42-.12.62-.08.2-.2.43-.4.68-.18.25-.45.55-.78.91l-1.3 1.4v.04h2.7v.63h-3.67Zm6.8.08c-.37 0-.7-.07-1-.2a1.7 1.7 0 0 1-.69-.53c-.17-.23-.26-.5-.28-.8h.72c.01.18.08.34.19.48.11.14.26.24.45.31.18.08.38.12.6.12.26 0 .48-.05.67-.14.2-.08.35-.2.46-.36a.91.91 0 0 0 .16-.54c0-.21-.05-.4-.16-.56-.1-.17-.26-.3-.46-.4a1.8 1.8 0 0 0-.75-.13h-.47v-.63h.47c.23 0 .43-.04.6-.12a.94.94 0 0 0 .56-.89c0-.2-.04-.37-.12-.51a.9.9 0 0 0-.37-.34 1.2 1.2 0 0 0-.56-.12c-.2 0-.39.03-.57.1-.17.08-.32.18-.43.32a.82.82 0 0 0-.18.5h-.68c0-.3.1-.58.27-.8.17-.24.4-.42.68-.55a2.2 2.2 0 0 1 1.85.03 1.54 1.54 0 0 1 .8 1.34 1.31 1.31 0 0 1-.95 1.32v.04c.36.06.65.22.85.47.21.25.31.56.31.93 0 .32-.08.6-.25.85-.17.25-.4.45-.7.6-.3.14-.63.21-1.01.21Zm4.58-2.99a6.09 6.09 0 0 1-1.08 3.64h-.6c.15-.19.27-.42.39-.7a6.53 6.53 0 0 0 .52-1.9 7.12 7.12 0 0 0-.05-2.41c-.1-.47-.2-.9-.36-1.3-.14-.4-.3-.71-.5-.96h.6a6.08 6.08 0 0 1 1.08 3.63Zm3.57 1.72v-.58l2.56-4.05h.42v.9h-.29l-1.93 3.06v.04h3.44v.63h-4.2Zm2.74 1.19v-5.82h.67V146h-.67Zm4.35.08a2 2 0 0 1-.9-.2 1.68 1.68 0 0 1-.65-.54c-.16-.24-.25-.5-.26-.8h.68c.03.27.15.49.36.66.21.17.47.26.77.26a1.2 1.2 0 0 0 1.07-.63c.11-.2.16-.42.16-.67 0-.25-.05-.48-.16-.68a1.23 1.23 0 0 0-1.12-.65 1.8 1.8 0 0 0-1.01.3l-.66-.09.35-2.86h3.03v.63h-2.44l-.2 1.71h.03c.12-.1.27-.17.45-.23a1.78 1.78 0 0 1 2.17.85c.17.3.25.63.25 1 0 .38-.09.71-.25 1a1.83 1.83 0 0 1-1.67.94Zm4.98 0c-.24 0-.48-.05-.72-.14a1.72 1.72 0 0 1-.65-.44c-.2-.2-.36-.49-.48-.84a5.8 5.8 0 0 1-.03-2.71c.1-.4.23-.74.42-1.01.18-.27.4-.48.66-.63.27-.14.56-.2.89-.2.32 0 .61.06.87.19.25.13.46.3.62.54.16.23.27.5.31.8h-.69a1.28 1.28 0 0 0-.37-.65 1.04 1.04 0 0 0-.74-.26c-.45 0-.8.2-1.07.59-.26.39-.39.94-.39 1.65h.05a1.71 1.71 0 0 1 1.43-.78c.33 0 .64.09.92.25a1.97 1.97 0 0 1 .92 1.68c-.01.37-.1.7-.25 1a1.84 1.84 0 0 1-1.7.96Zm0-.63c.23 0 .45-.05.64-.17.19-.12.34-.28.45-.49.11-.2.17-.42.17-.66a1.34 1.34 0 0 0-.6-1.14c-.19-.11-.4-.17-.64-.17-.18 0-.35.03-.5.1a1.3 1.3 0 0 0-.69.72 1.35 1.35 0 0 0 .51 1.63c.2.12.41.19.66.19Zm5.57-2.67v.62h-2.55v-.62h2.55Zm1.17 3.22 2.6-5.15v-.04h-3v-.63h3.73v.66l-2.6 5.16h-.73Zm6.13.08c-.39 0-.73-.07-1.03-.2-.3-.15-.53-.34-.7-.59a1.45 1.45 0 0 1-.24-.83 1.56 1.56 0 0 1 .55-1.21c.17-.15.36-.24.57-.27v-.04c-.28-.07-.5-.22-.66-.47a1.42 1.42 0 0 1-.25-.82c0-.3.08-.56.23-.8.15-.23.36-.41.62-.55a2 2 0 0 1 .91-.2c.34 0 .64.07.9.2.27.14.48.32.63.55.16.24.23.5.23.8 0 .3-.08.58-.25.82-.16.25-.38.4-.65.47v.04c.2.03.4.13.56.27a1.58 1.58 0 0 1 .56 1.2c0 .32-.09.6-.26.84-.16.25-.4.44-.7.58-.29.14-.63.21-1.02.21Zm0-.63c.27 0 .5-.04.69-.12.19-.09.34-.2.44-.36a1.05 1.05 0 0 0-.01-1.13c-.11-.17-.27-.3-.46-.4-.2-.1-.41-.15-.66-.15-.24 0-.47.05-.66.15-.2.1-.35.23-.46.4-.1.17-.16.36-.16.58 0 .2.05.4.15.55.1.15.25.27.45.36.19.08.42.13.68.13Zm0-2.76c.21 0 .4-.04.56-.12a.95.95 0 0 0 .52-.88c0-.2-.05-.37-.14-.51a.9.9 0 0 0-.37-.34 1.23 1.23 0 0 0-.57-.12c-.21 0-.4.04-.57.12a.88.88 0 0 0-.38.34.95.95 0 0 0-.13.51c0 .2.05.38.14.53.1.15.22.27.38.35.16.08.35.12.56.12Zm4.92-2.59c.24 0 .48.05.72.14.24.09.45.23.65.44.2.2.36.49.48.84s.18.8.18 1.33c0 .52-.05.98-.15 1.38-.1.4-.24.74-.42 1.01a1.8 1.8 0 0 1-1.55.84 1.9 1.9 0 0 1-.87-.2 1.7 1.7 0 0 1-.63-.54 1.9 1.9 0 0 1-.3-.8h.69c.06.26.18.48.37.66.19.17.43.26.74.26.45 0 .8-.2 1.06-.6.27-.39.4-.94.4-1.66h-.05a1.77 1.77 0 0 1-.86.68 1.76 1.76 0 0 1-2.15-.84 2 2 0 0 1-.25-1c0-.35.08-.68.24-.97a1.84 1.84 0 0 1 1.7-.97Zm0 .63c-.24 0-.45.06-.64.18a1.3 1.3 0 0 0-.62 1.13c0 .25.05.47.16.67a1.2 1.2 0 0 0 1.08.65 1.2 1.2 0 0 0 .9-.4c.13-.13.22-.27.28-.43a1.31 1.31 0 0 0-.06-1.14 1.3 1.3 0 0 0-.45-.48c-.19-.12-.4-.18-.65-.18Zm5.04 5.35c-.43 0-.8-.12-1.1-.35-.3-.23-.52-.57-.68-1.02a4.85 4.85 0 0 1-.24-1.62c0-.63.08-1.16.24-1.61.16-.45.39-.79.69-1.02.3-.24.66-.36 1.09-.36.42 0 .79.12 1.09.36.3.23.53.57.7 1.02.15.45.23.98.23 1.61 0 .63-.08 1.17-.24 1.62-.16.44-.39.78-.69 1.02-.3.23-.66.35-1.09.35Zm0-.63c.42 0 .75-.2.99-.6.23-.42.35-1 .35-1.76 0-.5-.05-.93-.16-1.29-.1-.35-.26-.62-.46-.8-.2-.2-.44-.28-.72-.28-.42 0-.75.2-.99.62-.23.41-.35 1-.35 1.75 0 .5.05.93.16 1.28.1.36.26.63.45.8.2.2.45.29.73.29ZM36.96 36.82h2.13v7.1c0 .65-.15 1.22-.44 1.7-.3.5-.7.86-1.22 1.13-.52.26-1.13.39-1.82.39-.6 0-1.17-.1-1.67-.32s-.89-.55-1.18-1a3 3 0 0 1-.43-1.68h2.14c0 .26.06.5.16.69.11.19.26.33.44.43.18.1.4.15.65.15.27 0 .5-.05.67-.16.2-.12.33-.29.43-.51.1-.22.14-.5.14-.82v-7.1Zm6.05 10.32c-.49 0-.92-.08-1.3-.25a2.1 2.1 0 0 1-.91-.76 2.28 2.28 0 0 1-.33-1.26c0-.43.08-.78.24-1.07.15-.29.36-.52.63-.7.27-.17.57-.3.92-.4.34-.08.7-.15 1.08-.18l1.07-.13c.28-.05.47-.11.6-.2.12-.08.18-.2.18-.36v-.03c0-.32-.1-.56-.3-.73-.2-.17-.47-.26-.83-.26-.39 0-.69.08-.91.25-.23.17-.38.38-.45.63l-1.96-.16a2.66 2.66 0 0 1 1.72-1.99 4.88 4.88 0 0 1 2.83-.13c.39.1.73.26 1.03.47a2.25 2.25 0 0 1 .99 1.97V47H45.3v-1.06h-.06A2.15 2.15 0 0 1 44 47c-.3.1-.63.15-1 .15Zm.6-1.46c.32 0 .59-.06.83-.18.24-.13.42-.3.56-.5.14-.22.2-.46.2-.73v-.81c-.06.04-.15.08-.27.12a4.95 4.95 0 0 1-.8.17l-.4.05c-.25.04-.46.1-.65.18-.18.08-.33.18-.43.32-.1.13-.16.3-.16.5 0 .29.1.5.32.66.21.15.48.22.8.22Zm7.46-3.1V47h-2.12v-7.64h2.02v1.35h.09c.17-.44.45-.8.85-1.05.4-.26.88-.4 1.45-.4.53 0 .99.12 1.38.35.4.23.7.57.92 1 .22.42.33.93.33 1.53V47h-2.12v-4.48c0-.47-.11-.84-.36-1.1-.24-.26-.57-.4-1-.4-.28 0-.53.07-.75.19-.22.12-.38.3-.5.53-.13.24-.19.52-.2.85Zm10.07 4.57c-.79 0-1.46-.16-2.03-.48-.56-.32-1-.77-1.3-1.36a4.5 4.5 0 0 1-.46-2.1c0-.78.15-1.47.46-2.06.3-.6.73-1.06 1.29-1.39.55-.33 1.2-.5 1.96-.5.5 0 .97.09 1.4.25a3.12 3.12 0 0 1 1.91 1.93c.18.49.27 1.05.27 1.7v.58H58.2v-1.3h4.45c0-.31-.07-.58-.2-.82a1.42 1.42 0 0 0-.55-.55c-.23-.14-.5-.2-.81-.2a1.57 1.57 0 0 0-1.43.82c-.14.24-.21.5-.22.81v1.25c0 .38.07.7.21.98.15.27.35.49.6.63a2 2 0 0 0 1.57.12c.2-.06.36-.16.5-.29.14-.13.25-.3.32-.49l1.96.13c-.1.47-.3.88-.61 1.24-.3.34-.7.62-1.18.81-.49.2-1.04.29-1.67.29ZM72.92 47H69.3V36.82h3.64c1.02 0 1.9.2 2.64.61.74.4 1.3.99 1.7 1.74.4.76.6 1.67.6 2.73a5.8 5.8 0 0 1-.6 2.73c-.4.77-.96 1.35-1.7 1.76-.75.4-1.64.61-2.67.61Zm-1.46-1.84h1.37c.63 0 1.17-.12 1.6-.34.44-.23.77-.58.99-1.06.22-.48.33-1.1.33-1.86a4.4 4.4 0 0 0-.33-1.85 2.16 2.16 0 0 0-.98-1.05 3.46 3.46 0 0 0-1.6-.34h-1.38v6.5Zm11.44 1.99c-.77 0-1.44-.16-2-.5-.56-.32-1-.79-1.3-1.38-.3-.59-.46-1.28-.46-2.06 0-.79.16-1.48.46-2.07.3-.59.74-1.05 1.3-1.38.56-.33 1.23-.5 2-.5.78 0 1.44.17 2 .5.56.33 1 .79 1.3 1.38.3.6.46 1.28.46 2.07 0 .78-.15 1.47-.46 2.06-.3.6-.74 1.06-1.3 1.39-.56.33-1.22.49-2 .49Zm.01-1.64c.35 0 .65-.1.88-.3.24-.2.42-.48.53-.83.13-.34.19-.74.19-1.18 0-.45-.06-.84-.19-1.2-.11-.34-.3-.61-.53-.82a1.3 1.3 0 0 0-.88-.3c-.35 0-.65.1-.9.3-.23.2-.41.48-.53.83-.12.35-.18.74-.18 1.19 0 .44.06.84.18 1.18.12.35.3.63.54.83.24.2.54.3.9.3Zm8.6 1.64c-.78 0-1.45-.16-2.02-.48-.56-.32-1-.77-1.3-1.36a4.5 4.5 0 0 1-.46-2.1c0-.78.15-1.47.46-2.06.3-.6.73-1.06 1.29-1.39.55-.33 1.2-.5 1.95-.5.5 0 .98.09 1.41.25a3.12 3.12 0 0 1 1.91 1.93c.18.49.27 1.05.27 1.7v.58h-6.44v-1.3h4.45c0-.31-.07-.58-.2-.82a1.42 1.42 0 0 0-.55-.55c-.23-.14-.5-.2-.81-.2a1.57 1.57 0 0 0-1.43.82c-.14.24-.21.5-.22.81v1.25c0 .38.07.7.21.98.14.27.35.49.6.63a2 2 0 0 0 1.57.12c.2-.06.36-.16.5-.29.14-.13.25-.3.32-.49l1.96.13c-.1.47-.3.88-.61 1.24-.3.34-.7.62-1.19.81-.48.2-1.03.29-1.66.29Z" fill="#000"/><path d="M196 17h80a8 8 0 0 1 8 8v130a8 8 0 0 1-8 8h-80V17Z" fill="#9498AE"/><path fill="#9498AE" d="M228 78h24v24h-24z"/><path d="M248 82h-16a2 2 0 0 0-2 2v12c0 1.1.9 2 2 2h16a2 2 0 0 0 2-2V84a2 2 0 0 0-2-2Z" stroke="#E4E6F1" stroke-width="2" stroke-linecap="round" stroke-linejoin="round"/><path d="m230 94 7-5 5 4 3-2 5 4" stroke="#E4E6F1" stroke-width="2" stroke-linecap="round" stroke-linejoin="round"/><path d="M243.5 88a1.5 1.5 0 1 0 0-3 1.5 1.5 0 0 0 0 3Z" fill="#E4E6F1"/></svg>