<svg width="300" height="180" fill="none" xmlns="http://www.w3.org/2000/svg"><path fill="#191B33" d="M0 0h300v180H0z"/><g clip-path="url(#JS__a)"><path fill="#333661" d="M40 20h220v24H40z"/><g opacity=".4"><mask id="JS__b" maskUnits="userSpaceOnUse" x="46.235" y="26.985" width="11" height="10" fill="#000"><path fill="#fff" d="M46.235 26.985h11v10h-11z"/><path fill-rule="evenodd" clip-rule="evenodd" d="m47.235 34.485.53.53 3.073-3.073a.63.63 0 0 0 0-.885l-3.073-3.072-.53.53L50.22 31.5l-2.985 2.985Zm3.765.764h5.5V36H51v-.75Z"/></mask><path fill-rule="evenodd" clip-rule="evenodd" d="m47.235 34.485.53.53 3.073-3.073a.63.63 0 0 0 0-.885l-3.073-3.072-.53.53L50.22 31.5l-2.985 2.985Zm3.765.764h5.5V36H51v-.75Z" fill="#fff"/><path d="m47.765 35.015-.353.353.353.354.354-.354-.354-.353Zm-.53-.53-.353-.354-.354.354.354.353.353-.353Zm3.603-2.543.353.354.002-.002-.355-.352Zm0-.885.353-.353-.353.353Zm-3.073-3.072.354-.354-.354-.354-.353.354.353.354Zm-.53.53-.353-.354-.354.354.354.353.353-.353ZM50.22 31.5l.354.353.354-.353-.354-.354-.354.354Zm6.28 3.75h.5v-.5h-.5v.5Zm-5.5 0v-.5h-.5v.5h.5Zm5.5.75v.5h.5V36h-.5ZM51 36h-.5v.5h.5V36Zm-2.88-1.34-.53-.53-.707.707.53.53.707-.707Zm2.365-3.072-3.072 3.072.707.707 3.072-3.072-.707-.707Zm0-.178a.13.13 0 0 1-.002.18l.711.703a1.13 1.13 0 0 0-.002-1.59l-.707.707Zm-3.072-3.073 3.072 3.073.707-.707-3.072-3.073-.707.707Zm.177.53.53-.53-.707-.707-.53.53.707.707Zm2.985 2.278L47.59 28.16l-.707.707 2.985 2.985.707-.707Zm-2.985 3.692 2.985-2.985-.707-.707-2.985 2.985.707.707Zm8.911-.089H51v1h5.5v-1ZM57 36v-.75h-1V36h1Zm-6 .5h5.5v-1H51v1Zm-.5-1.25V36h1v-.75h-1Z" fill="#fff" mask="url(#JS__b)"/></g><path fill="#252746" d="M40 44h220v116H40z"/><path fill-rule="evenodd" clip-rule="evenodd" d="M217 147h30v-30h-30v30Zm16.327-6.602c0 2.92-1.712 4.25-4.209 4.25-2.256 0-3.565-1.168-4.231-2.578l2.296-1.388c.444.785.847 1.448 1.812 1.448.928 0 1.512-.362 1.512-1.77v-9.587h2.82v9.625Zm6.664 4.25c-2.616 0-4.308-1.248-5.135-2.88l2.297-1.33c.603.987 1.39 1.714 2.778 1.714 1.169 0 1.914-.585 1.914-1.39 0-.967-.767-1.309-2.054-1.874l-.705-.301c-2.035-.865-3.383-1.954-3.383-4.25 0-2.114 1.61-3.725 4.127-3.725 1.793 0 3.081.625 4.01 2.256l-2.197 1.409c-.483-.865-1.007-1.207-1.813-1.207-.825 0-1.349.522-1.349 1.207 0 .846.524 1.188 1.732 1.713l.705.3c2.397 1.027 3.747 2.075 3.747 4.43 0 2.538-1.995 3.928-4.674 3.928Z" fill="#4A4D85"/><rect x="48" y="52" width="204" height="8" rx="4" fill="#4A4D85"/><path fill="#333661" d="M38 82h224v1H38z"/><path fill="#4A4D85" d="M38 43h224v1H38z"/><rect x="48" y="66" width="60" height="8" rx="4" fill="#4A4D85"/><rect x="48" y="91" width="120" height="8" rx="4" fill="#4A4D85"/><rect x="48" y="105" width="140" height="8" rx="4" fill="#4A4D85"/><rect x="48" y="119" width="30" height="8" rx="4" fill="#4A4D85"/></g><rect x="39.5" y="19.5" width="221" height="141" rx="4.5" stroke="#4A4D85"/><defs><clipPath id="JS__a"><rect x="40" y="20" width="220" height="140" rx="4" fill="#fff"/></clipPath></defs></svg>