<svg width="300" height="180" viewBox="0 0 300 180" fill="none" xmlns="http://www.w3.org/2000/svg">
<rect width="300" height="180" fill="white"/>
<rect x="20" y="20" width="260" height="140" rx="4" fill="white"/>
<rect x="20.25" y="20.25" width="259.5" height="139.5" rx="3.75" stroke="black" stroke-opacity="0.12" stroke-width="0.5"/>
<path d="M30.6328 39V33.2734H34.7734V33.9492H31.3906V35.7031H34.5586V36.375H31.3906V38.3242H34.9062V39H30.6328ZM35.8633 39V34.8516H36.4922V35.4336C36.6224 35.2305 36.7956 35.0677 37.0117 34.9453C37.2279 34.8203 37.474 34.7578 37.75 34.7578C38.0573 34.7578 38.3086 34.8216 38.5039 34.9492C38.7018 35.0768 38.8411 35.2552 38.9219 35.4844C39.25 35 39.6771 34.7578 40.2031 34.7578C40.6146 34.7578 40.931 34.8724 41.1523 35.1016C41.3737 35.3281 41.4844 35.6784 41.4844 36.1523V39H40.7852V36.3867C40.7852 36.1055 40.7617 35.9036 40.7148 35.7812C40.6706 35.6562 40.5885 35.556 40.4688 35.4805C40.349 35.4049 40.2083 35.3672 40.0469 35.3672C39.7552 35.3672 39.513 35.4648 39.3203 35.6602C39.1276 35.8529 39.0312 36.1628 39.0312 36.5898V39H38.3281V36.3047C38.3281 35.9922 38.2708 35.7578 38.1562 35.6016C38.0417 35.4453 37.8542 35.3672 37.5938 35.3672C37.3958 35.3672 37.2122 35.4193 37.043 35.5234C36.8763 35.6276 36.7552 35.7799 36.6797 35.9805C36.6042 36.181 36.5664 36.4701 36.5664 36.8477V39H35.8633ZM45.2344 38.4883C44.974 38.7096 44.7227 38.8659 44.4805 38.957C44.2409 39.0482 43.9831 39.0938 43.707 39.0938C43.2513 39.0938 42.901 38.9831 42.6562 38.7617C42.4115 38.5378 42.2891 38.2526 42.2891 37.9062C42.2891 37.7031 42.3346 37.5182 42.4258 37.3516C42.5195 37.1823 42.6406 37.0469 42.7891 36.9453C42.9401 36.8438 43.1094 36.7669 43.2969 36.7148C43.4349 36.6784 43.6432 36.6432 43.9219 36.6094C44.4896 36.5417 44.9076 36.4609 45.1758 36.3672C45.1784 36.2708 45.1797 36.2096 45.1797 36.1836C45.1797 35.8971 45.1133 35.6953 44.9805 35.5781C44.8008 35.4193 44.5339 35.3398 44.1797 35.3398C43.849 35.3398 43.6042 35.3984 43.4453 35.5156C43.2891 35.6302 43.1732 35.8346 43.0977 36.1289L42.4102 36.0352C42.4727 35.7409 42.5755 35.5039 42.7188 35.3242C42.862 35.1419 43.069 35.0026 43.3398 34.9062C43.6107 34.8073 43.9245 34.7578 44.2812 34.7578C44.6354 34.7578 44.9232 34.7995 45.1445 34.8828C45.3659 34.9661 45.5286 35.0716 45.6328 35.1992C45.737 35.3242 45.8099 35.4831 45.8516 35.6758C45.875 35.7956 45.8867 36.0117 45.8867 36.3242V37.2617C45.8867 37.9154 45.901 38.3294 45.9297 38.5039C45.9609 38.6758 46.0208 38.8411 46.1094 39H45.375C45.3021 38.8542 45.2552 38.6836 45.2344 38.4883ZM45.1758 36.918C44.9206 37.0221 44.5378 37.1107 44.0273 37.1836C43.7383 37.2253 43.5339 37.2721 43.4141 37.3242C43.2943 37.3763 43.2018 37.4531 43.1367 37.5547C43.0716 37.6536 43.0391 37.7643 43.0391 37.8867C43.0391 38.0742 43.1094 38.2305 43.25 38.3555C43.3932 38.4805 43.6016 38.543 43.875 38.543C44.1458 38.543 44.3867 38.4844 44.5977 38.3672C44.8086 38.2474 44.9635 38.0846 45.0625 37.8789C45.138 37.7201 45.1758 37.4857 45.1758 37.1758V36.918ZM46.9844 34.082V33.2734H47.6875V34.082H46.9844ZM46.9844 39V34.8516H47.6875V39H46.9844ZM48.7461 39V33.2734H49.4492V39H48.7461Z" fill="black"/>
<rect x="30" y="46" width="240" height="20" rx="2" fill="white"/>
<rect x="30.25" y="46.25" width="239.5" height="19.5" rx="1.75" stroke="black" stroke-opacity="0.12" stroke-width="0.5"/>
<path d="M30.6172 85V79.2734H32.7773C33.1576 79.2734 33.4479 79.2917 33.6484 79.3281C33.9297 79.375 34.1654 79.4648 34.3555 79.5977C34.5456 79.7279 34.6979 79.9115 34.8125 80.1484C34.9297 80.3854 34.9883 80.6458 34.9883 80.9297C34.9883 81.4167 34.8333 81.8294 34.5234 82.168C34.2135 82.5039 33.6536 82.6719 32.8438 82.6719H31.375V85H30.6172ZM31.375 81.9961H32.8555C33.3451 81.9961 33.6927 81.9049 33.8984 81.7227C34.1042 81.5404 34.207 81.2839 34.207 80.9531C34.207 80.7135 34.1458 80.5091 34.0234 80.3398C33.9036 80.168 33.7448 80.0547 33.5469 80C33.4193 79.9661 33.1836 79.9492 32.8398 79.9492H31.375V81.9961ZM38.5703 84.4883C38.3099 84.7096 38.0586 84.8659 37.8164 84.957C37.5768 85.0482 37.319 85.0938 37.043 85.0938C36.5872 85.0938 36.237 84.9831 35.9922 84.7617C35.7474 84.5378 35.625 84.2526 35.625 83.9062C35.625 83.7031 35.6706 83.5182 35.7617 83.3516C35.8555 83.1823 35.9766 83.0469 36.125 82.9453C36.276 82.8438 36.4453 82.7669 36.6328 82.7148C36.7708 82.6784 36.9792 82.6432 37.2578 82.6094C37.8255 82.5417 38.2435 82.4609 38.5117 82.3672C38.5143 82.2708 38.5156 82.2096 38.5156 82.1836C38.5156 81.8971 38.4492 81.6953 38.3164 81.5781C38.1367 81.4193 37.8698 81.3398 37.5156 81.3398C37.1849 81.3398 36.9401 81.3984 36.7812 81.5156C36.625 81.6302 36.5091 81.8346 36.4336 82.1289L35.7461 82.0352C35.8086 81.7409 35.9115 81.5039 36.0547 81.3242C36.1979 81.1419 36.4049 81.0026 36.6758 80.9062C36.9466 80.8073 37.2604 80.7578 37.6172 80.7578C37.9714 80.7578 38.2591 80.7995 38.4805 80.8828C38.7018 80.9661 38.8646 81.0716 38.9688 81.1992C39.0729 81.3242 39.1458 81.4831 39.1875 81.6758C39.2109 81.7956 39.2227 82.0117 39.2227 82.3242V83.2617C39.2227 83.9154 39.237 84.3294 39.2656 84.5039C39.2969 84.6758 39.3568 84.8411 39.4453 85H38.7109C38.638 84.8542 38.5911 84.6836 38.5703 84.4883ZM38.5117 82.918C38.2565 83.0221 37.8737 83.1107 37.3633 83.1836C37.0742 83.2253 36.8698 83.2721 36.75 83.3242C36.6302 83.3763 36.5378 83.4531 36.4727 83.5547C36.4076 83.6536 36.375 83.7643 36.375 83.8867C36.375 84.0742 36.4453 84.2305 36.5859 84.3555C36.7292 84.4805 36.9375 84.543 37.2109 84.543C37.4818 84.543 37.7227 84.4844 37.9336 84.3672C38.1445 84.2474 38.2995 84.0846 38.3984 83.8789C38.474 83.7201 38.5117 83.4857 38.5117 83.1758V82.918ZM40.0352 83.7617L40.7305 83.6523C40.7695 83.931 40.8776 84.1445 41.0547 84.293C41.2344 84.4414 41.4844 84.5156 41.8047 84.5156C42.1276 84.5156 42.3672 84.4505 42.5234 84.3203C42.6797 84.1875 42.7578 84.0326 42.7578 83.8555C42.7578 83.6966 42.6888 83.5716 42.5508 83.4805C42.4544 83.418 42.2148 83.3385 41.832 83.2422C41.3164 83.112 40.9583 83 40.7578 82.9062C40.5599 82.8099 40.4089 82.6784 40.3047 82.5117C40.2031 82.3424 40.1523 82.1562 40.1523 81.9531C40.1523 81.7682 40.194 81.5977 40.2773 81.4414C40.3633 81.2826 40.4792 81.151 40.625 81.0469C40.7344 80.9661 40.8828 80.8984 41.0703 80.8438C41.2604 80.7865 41.4635 80.7578 41.6797 80.7578C42.0052 80.7578 42.2904 80.8047 42.5352 80.8984C42.7826 80.9922 42.9648 81.1198 43.082 81.2812C43.1992 81.4401 43.2799 81.6536 43.3242 81.9219L42.6367 82.0156C42.6055 81.8021 42.5143 81.6354 42.3633 81.5156C42.2148 81.3958 42.0039 81.3359 41.7305 81.3359C41.4076 81.3359 41.1771 81.3893 41.0391 81.4961C40.901 81.6029 40.832 81.7279 40.832 81.8711C40.832 81.9622 40.8607 82.0443 40.918 82.1172C40.9753 82.1927 41.0651 82.2552 41.1875 82.3047C41.2578 82.3307 41.4648 82.3906 41.8086 82.4844C42.306 82.6172 42.6523 82.7266 42.8477 82.8125C43.0456 82.8958 43.2005 83.0182 43.3125 83.1797C43.4245 83.3411 43.4805 83.5417 43.4805 83.7812C43.4805 84.0156 43.4115 84.237 43.2734 84.4453C43.138 84.651 42.9414 84.8112 42.6836 84.9258C42.4258 85.0378 42.1341 85.0938 41.8086 85.0938C41.2695 85.0938 40.8581 84.9818 40.5742 84.7578C40.293 84.5339 40.1133 84.2018 40.0352 83.7617ZM44.0352 83.7617L44.7305 83.6523C44.7695 83.931 44.8776 84.1445 45.0547 84.293C45.2344 84.4414 45.4844 84.5156 45.8047 84.5156C46.1276 84.5156 46.3672 84.4505 46.5234 84.3203C46.6797 84.1875 46.7578 84.0326 46.7578 83.8555C46.7578 83.6966 46.6888 83.5716 46.5508 83.4805C46.4544 83.418 46.2148 83.3385 45.832 83.2422C45.3164 83.112 44.9583 83 44.7578 82.9062C44.5599 82.8099 44.4089 82.6784 44.3047 82.5117C44.2031 82.3424 44.1523 82.1562 44.1523 81.9531C44.1523 81.7682 44.194 81.5977 44.2773 81.4414C44.3633 81.2826 44.4792 81.151 44.625 81.0469C44.7344 80.9661 44.8828 80.8984 45.0703 80.8438C45.2604 80.7865 45.4635 80.7578 45.6797 80.7578C46.0052 80.7578 46.2904 80.8047 46.5352 80.8984C46.7826 80.9922 46.9648 81.1198 47.082 81.2812C47.1992 81.4401 47.2799 81.6536 47.3242 81.9219L46.6367 82.0156C46.6055 81.8021 46.5143 81.6354 46.3633 81.5156C46.2148 81.3958 46.0039 81.3359 45.7305 81.3359C45.4076 81.3359 45.1771 81.3893 45.0391 81.4961C44.901 81.6029 44.832 81.7279 44.832 81.8711C44.832 81.9622 44.8607 82.0443 44.918 82.1172C44.9753 82.1927 45.0651 82.2552 45.1875 82.3047C45.2578 82.3307 45.4648 82.3906 45.8086 82.4844C46.306 82.6172 46.6523 82.7266 46.8477 82.8125C47.0456 82.8958 47.2005 83.0182 47.3125 83.1797C47.4245 83.3411 47.4805 83.5417 47.4805 83.7812C47.4805 84.0156 47.4115 84.237 47.2734 84.4453C47.138 84.651 46.9414 84.8112 46.6836 84.9258C46.4258 85.0378 46.1341 85.0938 45.8086 85.0938C45.2695 85.0938 44.8581 84.9818 44.5742 84.7578C44.293 84.5339 44.1133 84.2018 44.0352 83.7617ZM49.082 85L47.8125 80.8516H48.5391L49.1992 83.2461L49.4453 84.1367C49.4557 84.0924 49.5273 83.8073 49.6602 83.2812L50.3203 80.8516H51.043L51.6641 83.2578L51.8711 84.0508L52.1094 83.25L52.8203 80.8516H53.5039L52.207 85H51.4766L50.8164 82.5156L50.6562 81.8086L49.8164 85H49.082ZM53.8359 82.9258C53.8359 82.1576 54.0495 81.5885 54.4766 81.2188C54.8333 80.9115 55.2682 80.7578 55.7812 80.7578C56.3516 80.7578 56.8177 80.9453 57.1797 81.3203C57.5417 81.6927 57.7227 82.2083 57.7227 82.8672C57.7227 83.401 57.6419 83.8216 57.4805 84.1289C57.3216 84.4336 57.0885 84.6706 56.7812 84.8398C56.4766 85.0091 56.1432 85.0938 55.7812 85.0938C55.2005 85.0938 54.7305 84.9076 54.3711 84.5352C54.0143 84.1628 53.8359 83.6263 53.8359 82.9258ZM54.5586 82.9258C54.5586 83.457 54.6745 83.8555 54.9062 84.1211C55.138 84.3841 55.4297 84.5156 55.7812 84.5156C56.1302 84.5156 56.4206 84.3828 56.6523 84.1172C56.8841 83.8516 57 83.4466 57 82.9023C57 82.3893 56.8828 82.0013 56.6484 81.7383C56.4167 81.4727 56.1276 81.3398 55.7812 81.3398C55.4297 81.3398 55.138 81.4714 54.9062 81.7344C54.6745 81.9974 54.5586 82.3945 54.5586 82.9258ZM58.543 85V80.8516H59.1758V81.4805C59.3372 81.1862 59.4857 80.9922 59.6211 80.8984C59.7591 80.8047 59.9102 80.7578 60.0742 80.7578C60.3112 80.7578 60.5521 80.8333 60.7969 80.9844L60.5547 81.6367C60.3828 81.5352 60.2109 81.4844 60.0391 81.4844C59.8854 81.4844 59.7474 81.5312 59.625 81.625C59.5026 81.7161 59.4154 81.8438 59.3633 82.0078C59.2852 82.2578 59.2461 82.5312 59.2461 82.8281V85H58.543ZM63.9062 85V84.4766C63.6432 84.888 63.2565 85.0938 62.7461 85.0938C62.4154 85.0938 62.1107 85.0026 61.832 84.8203C61.556 84.638 61.3411 84.3841 61.1875 84.0586C61.0365 83.7305 60.9609 83.3542 60.9609 82.9297C60.9609 82.5156 61.0299 82.1406 61.168 81.8047C61.306 81.4661 61.513 81.207 61.7891 81.0273C62.0651 80.8477 62.3737 80.7578 62.7148 80.7578C62.9648 80.7578 63.1875 80.8112 63.3828 80.918C63.5781 81.0221 63.737 81.1589 63.8594 81.3281V79.2734H64.5586V85H63.9062ZM61.6836 82.9297C61.6836 83.4609 61.7956 83.8581 62.0195 84.1211C62.2435 84.3841 62.5078 84.5156 62.8125 84.5156C63.1198 84.5156 63.3802 84.3906 63.5938 84.1406C63.8099 83.888 63.918 83.5039 63.918 82.9883C63.918 82.4206 63.8086 82.0039 63.5898 81.7383C63.3711 81.4727 63.1016 81.3398 62.7812 81.3398C62.4688 81.3398 62.207 81.4674 61.9961 81.7227C61.7878 81.9779 61.6836 82.3802 61.6836 82.9297Z" fill="black"/>
<rect x="30" y="122" width="53" height="20" rx="2" fill="#017BFE"/>
<path d="M40.3594 132.66L41.0742 132.598C41.1081 132.884 41.1862 133.12 41.3086 133.305C41.4336 133.487 41.6263 133.635 41.8867 133.75C42.1471 133.862 42.4401 133.918 42.7656 133.918C43.0547 133.918 43.3099 133.875 43.5312 133.789C43.7526 133.703 43.9167 133.586 44.0234 133.438C44.1328 133.286 44.1875 133.122 44.1875 132.945C44.1875 132.766 44.1354 132.609 44.0312 132.477C43.9271 132.341 43.7552 132.228 43.5156 132.137C43.362 132.077 43.0221 131.984 42.4961 131.859C41.9701 131.732 41.6016 131.612 41.3906 131.5C41.1172 131.357 40.9128 131.18 40.7773 130.969C40.6445 130.755 40.5781 130.517 40.5781 130.254C40.5781 129.965 40.6602 129.695 40.8242 129.445C40.9883 129.193 41.2279 129.001 41.543 128.871C41.8581 128.741 42.2083 128.676 42.5938 128.676C43.0182 128.676 43.3919 128.745 43.7148 128.883C44.0404 129.018 44.2904 129.219 44.4648 129.484C44.6393 129.75 44.7331 130.051 44.7461 130.387L44.0195 130.441C43.9805 130.079 43.8477 129.806 43.6211 129.621C43.3971 129.436 43.0651 129.344 42.625 129.344C42.1667 129.344 41.832 129.428 41.6211 129.598C41.4128 129.764 41.3086 129.966 41.3086 130.203C41.3086 130.409 41.3828 130.578 41.5312 130.711C41.6771 130.844 42.0573 130.98 42.6719 131.121C43.2891 131.259 43.7122 131.38 43.9414 131.484C44.2747 131.638 44.5208 131.833 44.6797 132.07C44.8385 132.305 44.918 132.576 44.918 132.883C44.918 133.188 44.8307 133.475 44.6562 133.746C44.4818 134.014 44.2305 134.224 43.9023 134.375C43.5768 134.523 43.2096 134.598 42.8008 134.598C42.2826 134.598 41.8477 134.522 41.4961 134.371C41.1471 134.22 40.8724 133.993 40.6719 133.691C40.474 133.387 40.3698 133.043 40.3594 132.66ZM45.8672 129.582V128.773H46.5703V129.582H45.8672ZM45.8672 134.5V130.352H46.5703V134.5H45.8672ZM47.5156 134.844L48.1992 134.945C48.2279 135.156 48.3073 135.31 48.4375 135.406C48.612 135.536 48.8503 135.602 49.1523 135.602C49.4779 135.602 49.7292 135.536 49.9062 135.406C50.0833 135.276 50.2031 135.094 50.2656 134.859C50.3021 134.716 50.319 134.415 50.3164 133.957C50.0091 134.319 49.6263 134.5 49.168 134.5C48.5977 134.5 48.1562 134.294 47.8438 133.883C47.5312 133.471 47.375 132.978 47.375 132.402C47.375 132.007 47.4466 131.642 47.5898 131.309C47.7331 130.973 47.9401 130.714 48.2109 130.531C48.4844 130.349 48.8047 130.258 49.1719 130.258C49.6615 130.258 50.0651 130.456 50.3828 130.852V130.352H51.0312V133.938C51.0312 134.583 50.9648 135.04 50.832 135.309C50.7018 135.579 50.4935 135.793 50.207 135.949C49.9232 136.105 49.5729 136.184 49.1562 136.184C48.6615 136.184 48.2617 136.072 47.957 135.848C47.6523 135.626 47.5052 135.292 47.5156 134.844ZM48.0977 132.352C48.0977 132.896 48.2057 133.293 48.4219 133.543C48.638 133.793 48.9089 133.918 49.2344 133.918C49.5573 133.918 49.8281 133.794 50.0469 133.547C50.2656 133.297 50.375 132.906 50.375 132.375C50.375 131.867 50.2617 131.484 50.0352 131.227C49.8112 130.969 49.5404 130.84 49.2227 130.84C48.9102 130.84 48.6445 130.967 48.4258 131.223C48.207 131.475 48.0977 131.852 48.0977 132.352ZM52.0977 134.5V130.352H52.7305V130.941C53.0352 130.486 53.4753 130.258 54.0508 130.258C54.3008 130.258 54.5299 130.303 54.7383 130.395C54.9492 130.483 55.1068 130.6 55.2109 130.746C55.3151 130.892 55.388 131.065 55.4297 131.266C55.4557 131.396 55.4688 131.624 55.4688 131.949V134.5H54.7656V131.977C54.7656 131.69 54.7383 131.477 54.6836 131.336C54.6289 131.193 54.5312 131.079 54.3906 130.996C54.2526 130.91 54.0898 130.867 53.9023 130.867C53.6029 130.867 53.3438 130.962 53.125 131.152C52.9089 131.342 52.8008 131.703 52.8008 132.234V134.5H52.0977ZM59.2695 134.5V133.891C58.9466 134.359 58.5078 134.594 57.9531 134.594C57.7083 134.594 57.4792 134.547 57.2656 134.453C57.0547 134.359 56.8971 134.242 56.793 134.102C56.6914 133.958 56.6198 133.784 56.5781 133.578C56.5495 133.44 56.5352 133.221 56.5352 132.922V130.352H57.2383V132.652C57.2383 133.02 57.2526 133.267 57.2812 133.395C57.3255 133.579 57.4193 133.725 57.5625 133.832C57.7057 133.936 57.8828 133.988 58.0938 133.988C58.3047 133.988 58.5026 133.935 58.6875 133.828C58.8724 133.719 59.0026 133.572 59.0781 133.387C59.1562 133.199 59.1953 132.928 59.1953 132.574V130.352H59.8984V134.5H59.2695ZM67.0781 128.773H67.8359V132.082C67.8359 132.658 67.7708 133.115 67.6406 133.453C67.5104 133.792 67.2747 134.068 66.9336 134.281C66.5951 134.492 66.1497 134.598 65.5977 134.598C65.0612 134.598 64.6224 134.505 64.2812 134.32C63.9401 134.135 63.6966 133.868 63.5508 133.52C63.4049 133.168 63.332 132.689 63.332 132.082V128.773H64.0898V132.078C64.0898 132.576 64.1354 132.943 64.2266 133.18C64.3203 133.414 64.4792 133.595 64.7031 133.723C64.9297 133.85 65.2057 133.914 65.5312 133.914C66.0885 133.914 66.4857 133.788 66.7227 133.535C66.9596 133.283 67.0781 132.797 67.0781 132.078V128.773ZM69.0117 136.09V130.352H69.6523V130.891C69.8034 130.68 69.974 130.522 70.1641 130.418C70.3542 130.311 70.5846 130.258 70.8555 130.258C71.2096 130.258 71.5221 130.349 71.793 130.531C72.0638 130.714 72.2682 130.971 72.4062 131.305C72.5443 131.635 72.6133 131.999 72.6133 132.395C72.6133 132.819 72.5365 133.202 72.3828 133.543C72.2318 133.882 72.0104 134.142 71.7188 134.324C71.4297 134.504 71.125 134.594 70.8047 134.594C70.5703 134.594 70.3594 134.544 70.1719 134.445C69.987 134.346 69.8346 134.221 69.7148 134.07V136.09H69.0117ZM69.6484 132.449C69.6484 132.983 69.7565 133.378 69.9727 133.633C70.1888 133.888 70.4505 134.016 70.7578 134.016C71.0703 134.016 71.3372 133.884 71.5586 133.621C71.7826 133.355 71.8945 132.945 71.8945 132.391C71.8945 131.862 71.7852 131.466 71.5664 131.203C71.3503 130.94 71.0911 130.809 70.7891 130.809C70.4896 130.809 70.224 130.949 69.9922 131.23C69.763 131.509 69.6484 131.915 69.6484 132.449Z" fill="white"/>
<rect x="30" y="92" width="240" height="20" rx="2" fill="white"/>
<rect x="30.25" y="92.25" width="239.5" height="19.5" rx="1.75" stroke="black" stroke-opacity="0.12" stroke-width="0.5"/>
</svg>
