<svg width="300" height="180" viewBox="0 0 300 180" fill="none" xmlns="http://www.w3.org/2000/svg">
<rect width="300" height="180" fill="#19242F"/>
<rect x="11" y="28" width="277" height="26" rx="4" fill="#273646"/>
<rect x="11" y="83" width="277" height="40" rx="4" fill="#273646"/>
<path d="M23.4588 37.7273V45H22.358V38.8281H22.3153L20.5753 39.9645V38.9134L22.3899 37.7273H23.4588Z" fill="white"/>
<path d="M20.8963 91.7273V99H19.799V91.7273H20.8963ZM23.3217 91.7273V92.4091C23.3217 92.6103 23.2839 92.8222 23.2081 93.0447C23.1347 93.2649 23.0305 93.4768 22.8956 93.6804C22.7607 93.884 22.602 94.0592 22.4197 94.206L21.8942 93.8295C22.0339 93.6259 22.1546 93.4093 22.2564 93.1797C22.3606 92.95 22.4126 92.6967 22.4126 92.4197V91.7273H23.3217ZM24.1864 99V93.5455H25.2056V94.4332H25.2731C25.3867 94.1326 25.5726 93.8982 25.8306 93.7301C26.0887 93.5597 26.3976 93.4744 26.7575 93.4744C27.122 93.4744 27.4274 93.5597 27.6737 93.7301C27.9222 93.9006 28.1057 94.1349 28.2241 94.4332H28.2809C28.4111 94.142 28.6183 93.91 28.9023 93.7372C29.1864 93.562 29.525 93.4744 29.918 93.4744C30.4128 93.4744 30.8164 93.6295 31.1289 93.9396C31.4438 94.2498 31.6012 94.7173 31.6012 95.3423V99H30.5394V95.4418C30.5394 95.0724 30.4388 94.8049 30.2376 94.6392C30.0363 94.4735 29.796 94.3906 29.5167 94.3906C29.171 94.3906 28.9023 94.4972 28.7106 94.7102C28.5188 94.9209 28.4229 95.192 28.4229 95.5234V99H27.3647V95.3743C27.3647 95.0784 27.2724 94.8404 27.0877 94.6605C26.9031 94.4806 26.6628 94.3906 26.3668 94.3906C26.1656 94.3906 25.9798 94.4439 25.8093 94.5504C25.6412 94.6546 25.5051 94.8002 25.4009 94.9872C25.2991 95.1742 25.2482 95.3909 25.2482 95.6371V99H24.1864ZM36.7326 91.7273V99H35.6708V91.7273H36.7326ZM40.5119 99.1101C39.9745 99.1101 39.5117 98.9953 39.1234 98.7656C38.7375 98.5336 38.4392 98.2081 38.2285 97.7891C38.0202 97.3677 37.916 96.8741 37.916 96.3082C37.916 95.7495 38.0202 95.2571 38.2285 94.831C38.4392 94.4048 38.7328 94.0722 39.1092 93.8331C39.488 93.594 39.9307 93.4744 40.4373 93.4744C40.7451 93.4744 41.0434 93.5253 41.3322 93.6271C41.621 93.7289 41.8803 93.8887 42.1099 94.1065C42.3395 94.3243 42.5207 94.6072 42.6532 94.9553C42.7858 95.3009 42.8521 95.7211 42.8521 96.2159V96.5923H38.5162V95.7969H41.8116C41.8116 95.5175 41.7548 95.2701 41.6412 95.0547C41.5275 94.8369 41.3677 94.6652 41.1618 94.5398C40.9582 94.4143 40.719 94.3516 40.4444 94.3516C40.1461 94.3516 39.8857 94.425 39.6632 94.5717C39.443 94.7161 39.2725 94.9055 39.1518 95.1399C39.0334 95.3719 38.9743 95.6241 38.9743 95.8963V96.5178C38.9743 96.8823 39.0382 97.1925 39.166 97.4482C39.2962 97.7038 39.4773 97.8991 39.7093 98.0341C39.9413 98.1667 40.2124 98.233 40.5225 98.233C40.7238 98.233 40.9073 98.2045 41.073 98.1477C41.2387 98.0885 41.3819 98.0009 41.5027 97.8849C41.6234 97.7689 41.7157 97.6257 41.7797 97.4553L42.7846 97.6364C42.7041 97.9323 42.5597 98.1915 42.3514 98.4141C42.1454 98.6342 41.8862 98.8059 41.5737 98.929C41.2636 99.0497 40.9096 99.1101 40.5119 99.1101ZM45.6175 99.1207C45.2719 99.1207 44.9594 99.0568 44.68 98.929C44.4007 98.7988 44.1793 98.6106 44.016 98.3643C43.855 98.1181 43.7745 97.8163 43.7745 97.4588C43.7745 97.151 43.8337 96.8977 43.9521 96.6989C44.0704 96.5 44.2302 96.3426 44.4315 96.2266C44.6327 96.1106 44.8576 96.023 45.1062 95.9638C45.3548 95.9046 45.6081 95.8596 45.8661 95.8288C46.1928 95.791 46.458 95.7602 46.6616 95.7365C46.8652 95.7105 47.0131 95.669 47.1055 95.6122C47.1978 95.5554 47.244 95.4631 47.244 95.3352V95.3104C47.244 95.0002 47.1564 94.7599 46.9812 94.5895C46.8084 94.419 46.5503 94.3338 46.207 94.3338C45.8496 94.3338 45.5678 94.4131 45.3619 94.5717C45.1583 94.728 45.0174 94.902 44.9393 95.0938L43.9414 94.8665C44.0598 94.535 44.2326 94.2675 44.4599 94.0639C44.6895 93.858 44.9535 93.7088 45.2518 93.6165C45.5501 93.5218 45.8638 93.4744 46.1928 93.4744C46.4106 93.4744 46.6415 93.5005 46.8853 93.5526C47.1315 93.6023 47.3612 93.6946 47.5742 93.8295C47.7897 93.9645 47.966 94.1574 48.1033 94.4084C48.2406 94.657 48.3093 94.9801 48.3093 95.3778V99H47.2724V98.2543H47.2298C47.1611 98.3916 47.0581 98.5265 46.9208 98.6591C46.7835 98.7917 46.6071 98.9018 46.3917 98.9893C46.1763 99.0769 45.9182 99.1207 45.6175 99.1207ZM45.8484 98.2685C46.1419 98.2685 46.3929 98.2105 46.6012 98.0945C46.8119 97.9785 46.9717 97.8269 47.0806 97.6399C47.1919 97.4505 47.2475 97.2481 47.2475 97.0327V96.3295C47.2096 96.3674 47.1362 96.4029 47.0273 96.4361C46.9208 96.4669 46.7989 96.4941 46.6616 96.5178C46.5243 96.5391 46.3905 96.5592 46.2603 96.5781C46.1301 96.5947 46.0212 96.6089 45.9336 96.6207C45.7276 96.6468 45.5394 96.6906 45.369 96.7521C45.2009 96.8137 45.0659 96.9025 44.9641 97.0185C44.8647 97.1321 44.815 97.2836 44.815 97.473C44.815 97.7358 44.9121 97.9347 45.1062 98.0696C45.3003 98.2022 45.5477 98.2685 45.8484 98.2685ZM49.7235 99V93.5455H50.7498V94.4119H50.8066C50.9061 94.1184 51.0813 93.8875 51.3322 93.7195C51.5855 93.549 51.872 93.4638 52.1916 93.4638C52.2579 93.4638 52.336 93.4661 52.426 93.4709C52.5183 93.4756 52.5905 93.4815 52.6426 93.4886V94.5043C52.6 94.4924 52.5242 94.4794 52.4153 94.4652C52.3064 94.4486 52.1975 94.4403 52.0886 94.4403C51.8377 94.4403 51.6139 94.4936 51.4174 94.6001C51.2233 94.7043 51.0694 94.8499 50.9558 95.0369C50.8422 95.2216 50.7853 95.4323 50.7853 95.669V99H49.7235ZM54.6232 95.7614V99H53.5614V93.5455H54.5806V94.4332H54.6481C54.7736 94.1444 54.9701 93.9124 55.2376 93.7372C55.5075 93.562 55.8472 93.4744 56.2567 93.4744C56.6284 93.4744 56.954 93.5526 57.2333 93.7088C57.5127 93.8627 57.7293 94.0923 57.8832 94.3977C58.0371 94.7031 58.114 95.0807 58.114 95.5305V99H57.0522V95.6584C57.0522 95.263 56.9492 94.9541 56.7433 94.7315C56.5373 94.5066 56.2544 94.3942 55.8945 94.3942C55.6483 94.3942 55.4293 94.4474 55.2376 94.554C55.0482 94.6605 54.8978 94.8168 54.7866 95.0227C54.6777 95.2263 54.6232 95.4725 54.6232 95.7614ZM59.538 99V93.5455H60.5998V99H59.538ZM60.0742 92.7038C59.8896 92.7038 59.7309 92.6423 59.5984 92.5192C59.4682 92.3937 59.4031 92.2446 59.4031 92.0717C59.4031 91.8965 59.4682 91.7474 59.5984 91.6243C59.7309 91.4988 59.8896 91.4361 60.0742 91.4361C60.2589 91.4361 60.4163 91.4988 60.5465 91.6243C60.6791 91.7474 60.7454 91.8965 60.7454 92.0717C60.7454 92.2446 60.6791 92.3937 60.5465 92.5192C60.4163 92.6423 60.2589 92.7038 60.0742 92.7038ZM63.09 95.7614V99H62.0282V93.5455H63.0474V94.4332H63.1149C63.2404 94.1444 63.4368 93.9124 63.7044 93.7372C63.9743 93.562 64.314 93.4744 64.7235 93.4744C65.0952 93.4744 65.4208 93.5526 65.7001 93.7088C65.9795 93.8627 66.1961 94.0923 66.35 94.3977C66.5038 94.7031 66.5808 95.0807 66.5808 95.5305V99H65.519V95.6584C65.519 95.263 65.416 94.9541 65.21 94.7315C65.0041 94.5066 64.7212 94.3942 64.3613 94.3942C64.1151 94.3942 63.8961 94.4474 63.7044 94.554C63.515 94.6605 63.3646 94.8168 63.2534 95.0227C63.1445 95.2263 63.09 95.4725 63.09 95.7614ZM70.2917 101.159C69.8585 101.159 69.4856 101.102 69.1731 100.989C68.863 100.875 68.6097 100.725 68.4132 100.538C68.2167 100.351 68.0699 100.146 67.9728 99.9233L68.8855 99.5469C68.9494 99.651 69.0346 99.7611 69.1412 99.8771C69.2501 99.9955 69.3968 100.096 69.5815 100.179C69.7685 100.262 70.0088 100.303 70.3024 100.303C70.7048 100.303 71.0375 100.205 71.3002 100.009C71.563 99.8144 71.6944 99.5043 71.6944 99.0781V98.0057H71.627C71.563 98.1217 71.4707 98.2507 71.35 98.3928C71.2316 98.5348 71.0682 98.6579 70.8599 98.7621C70.6516 98.8662 70.3805 98.9183 70.0467 98.9183C69.6158 98.9183 69.2276 98.8177 68.8819 98.6165C68.5386 98.4129 68.2664 98.1134 68.0652 97.718C67.8663 97.3203 67.7669 96.8314 67.7669 96.2514C67.7669 95.6714 67.8651 95.1742 68.0616 94.7599C68.2605 94.3456 68.5327 94.0284 68.8784 93.8082C69.224 93.5857 69.6158 93.4744 70.0538 93.4744C70.3923 93.4744 70.6658 93.5312 70.8741 93.6449C71.0824 93.7562 71.2446 93.8864 71.3606 94.0355C71.479 94.1847 71.5701 94.3161 71.6341 94.4297H71.7122V93.5455H72.7527V99.1207C72.7527 99.5895 72.6438 99.9742 72.426 100.275C72.2082 100.576 71.9134 100.798 71.5417 100.942C71.1724 101.087 70.7557 101.159 70.2917 101.159ZM70.2811 98.0376C70.5865 98.0376 70.8445 97.9666 71.0552 97.8246C71.2683 97.6802 71.4293 97.4742 71.5382 97.2067C71.6494 96.9368 71.7051 96.6136 71.7051 96.2372C71.7051 95.8703 71.6506 95.5471 71.5417 95.2678C71.4328 94.9884 71.273 94.7706 71.0623 94.6143C70.8516 94.4557 70.5912 94.3764 70.2811 94.3764C69.9615 94.3764 69.6951 94.4593 69.4821 94.625C69.269 94.7884 69.108 95.0109 68.9991 95.2926C68.8926 95.5743 68.8393 95.8892 68.8393 96.2372C68.8393 96.5947 68.8938 96.9084 69.0027 97.1783C69.1116 97.4482 69.2725 97.6589 69.4856 97.8104C69.7011 97.9619 69.9662 98.0376 70.2811 98.0376ZM79.3693 93.5455V94.3977H76.3899V93.5455H79.3693ZM77.1889 92.2386H78.2507V97.3984C78.2507 97.6044 78.2815 97.7595 78.343 97.8636C78.4046 97.9654 78.4839 98.0353 78.581 98.0732C78.6804 98.1087 78.7881 98.1264 78.9041 98.1264C78.9893 98.1264 79.0639 98.1205 79.1278 98.1087C79.1918 98.0968 79.2415 98.0874 79.277 98.0803L79.4688 98.9574C79.4072 98.9811 79.3196 99.0047 79.206 99.0284C79.0923 99.0545 78.9503 99.0687 78.7798 99.071C78.5005 99.0758 78.2401 99.026 77.9986 98.9219C77.7571 98.8177 77.5618 98.6567 77.4126 98.4389C77.2635 98.2211 77.1889 97.9477 77.1889 97.6186V92.2386ZM82.7828 99.1101C82.2715 99.1101 81.8252 98.9929 81.4441 98.7585C81.0629 98.5241 80.767 98.1963 80.5563 97.7749C80.3456 97.3535 80.2402 96.861 80.2402 96.2976C80.2402 95.7318 80.3456 95.237 80.5563 94.8132C80.767 94.3894 81.0629 94.0604 81.4441 93.826C81.8252 93.5916 82.2715 93.4744 82.7828 93.4744C83.2942 93.4744 83.7405 93.5916 84.1216 93.826C84.5028 94.0604 84.7987 94.3894 85.0094 94.8132C85.2201 95.237 85.3255 95.7318 85.3255 96.2976C85.3255 96.861 85.2201 97.3535 85.0094 97.7749C84.7987 98.1963 84.5028 98.5241 84.1216 98.7585C83.7405 98.9929 83.2942 99.1101 82.7828 99.1101ZM82.7864 98.2188C83.1178 98.2188 83.3925 98.1312 83.6103 97.956C83.8281 97.7808 83.9891 97.5476 84.0932 97.2564C84.1998 96.9652 84.253 96.6444 84.253 96.294C84.253 95.946 84.1998 95.6264 84.0932 95.3352C83.9891 95.0417 83.8281 94.8061 83.6103 94.6286C83.3925 94.451 83.1178 94.3622 82.7864 94.3622C82.4526 94.3622 82.1756 94.451 81.9554 94.6286C81.7376 94.8061 81.5755 95.0417 81.4689 95.3352C81.3648 95.6264 81.3127 95.946 81.3127 96.294C81.3127 96.6444 81.3648 96.9652 81.4689 97.2564C81.5755 97.5476 81.7376 97.7808 81.9554 97.956C82.1756 98.1312 82.4526 98.2188 82.7864 98.2188ZM91.4547 99.1101C90.9268 99.1101 90.4722 98.9905 90.0911 98.7514C89.7123 98.5099 89.4211 98.1773 89.2175 97.7536C89.0139 97.3298 88.9121 96.8445 88.9121 96.2976C88.9121 95.7436 89.0163 95.2547 89.2246 94.831C89.4329 94.4048 89.7265 94.0722 90.1053 93.8331C90.4841 93.594 90.9303 93.4744 91.4441 93.4744C91.8584 93.4744 92.2277 93.5514 92.552 93.7053C92.8764 93.8568 93.138 94.0698 93.3368 94.3445C93.5381 94.6191 93.6576 94.9399 93.6955 95.3068H92.6621C92.6053 95.0511 92.4751 94.831 92.2715 94.6463C92.0703 94.4616 91.8004 94.3693 91.4618 94.3693C91.1659 94.3693 90.9067 94.4474 90.6841 94.6037C90.464 94.7576 90.2923 94.9777 90.1692 95.2642C90.0461 95.5483 89.9846 95.8845 89.9846 96.2727C89.9846 96.6705 90.0449 97.0137 90.1657 97.3026C90.2864 97.5914 90.4569 97.8151 90.677 97.9737C90.8996 98.1323 91.1612 98.2116 91.4618 98.2116C91.6631 98.2116 91.8453 98.175 92.0087 98.1016C92.1744 98.0258 92.3129 97.9181 92.4242 97.7784C92.5378 97.6387 92.6171 97.4706 92.6621 97.2741H93.6955C93.6576 97.6269 93.5428 97.9418 93.351 98.2188C93.1593 98.4957 92.9024 98.7135 92.5804 98.8722C92.2608 99.0308 91.8856 99.1101 91.4547 99.1101ZM97.1286 99.1101C96.6172 99.1101 96.1709 98.9929 95.7898 98.7585C95.4086 98.5241 95.1127 98.1963 94.902 97.7749C94.6913 97.3535 94.5859 96.861 94.5859 96.2976C94.5859 95.7318 94.6913 95.237 94.902 94.8132C95.1127 94.3894 95.4086 94.0604 95.7898 93.826C96.1709 93.5916 96.6172 93.4744 97.1286 93.4744C97.6399 93.4744 98.0862 93.5916 98.4673 93.826C98.8485 94.0604 99.1444 94.3894 99.3551 94.8132C99.5658 95.237 99.6712 95.7318 99.6712 96.2976C99.6712 96.861 99.5658 97.3535 99.3551 97.7749C99.1444 98.1963 98.8485 98.5241 98.4673 98.7585C98.0862 98.9929 97.6399 99.1101 97.1286 99.1101ZM97.1321 98.2188C97.4635 98.2188 97.7382 98.1312 97.956 97.956C98.1738 97.7808 98.3348 97.5476 98.4389 97.2564C98.5455 96.9652 98.5987 96.6444 98.5987 96.294C98.5987 95.946 98.5455 95.6264 98.4389 95.3352C98.3348 95.0417 98.1738 94.8061 97.956 94.6286C97.7382 94.451 97.4635 94.3622 97.1321 94.3622C96.7983 94.3622 96.5213 94.451 96.3011 94.6286C96.0833 94.8061 95.9212 95.0417 95.8146 95.3352C95.7105 95.6264 95.6584 95.946 95.6584 96.294C95.6584 96.6444 95.7105 96.9652 95.8146 97.2564C95.9212 97.5476 96.0833 97.7808 96.3011 97.956C96.5213 98.1312 96.7983 98.2188 97.1321 98.2188ZM102.898 99.1065C102.458 99.1065 102.065 98.9941 101.719 98.7692C101.376 98.5419 101.106 98.2187 100.91 97.7997C100.715 97.3783 100.618 96.8729 100.618 96.2834C100.618 95.6939 100.717 95.1896 100.913 94.7706C101.112 94.3516 101.384 94.0308 101.73 93.8082C102.076 93.5857 102.467 93.4744 102.905 93.4744C103.244 93.4744 103.516 93.5312 103.722 93.6449C103.93 93.7562 104.091 93.8864 104.205 94.0355C104.321 94.1847 104.411 94.3161 104.475 94.4297H104.539V91.7273H105.601V99H104.564V98.1513H104.475C104.411 98.2673 104.319 98.3999 104.198 98.549C104.08 98.6982 103.916 98.8284 103.708 98.9396C103.5 99.0509 103.23 99.1065 102.898 99.1065ZM103.133 98.201C103.438 98.201 103.696 98.1205 103.907 97.9595C104.12 97.7962 104.281 97.5701 104.39 97.2812C104.501 96.9924 104.557 96.6562 104.557 96.2727C104.557 95.8939 104.502 95.5625 104.393 95.2784C104.284 94.9943 104.125 94.773 103.914 94.6143C103.703 94.4557 103.443 94.3764 103.133 94.3764C102.813 94.3764 102.547 94.4593 102.334 94.625C102.121 94.7907 101.96 95.0168 101.851 95.3033C101.744 95.5897 101.691 95.9129 101.691 96.2727C101.691 96.6373 101.745 96.9652 101.854 97.2564C101.963 97.5476 102.124 97.7784 102.337 97.9489C102.553 98.117 102.818 98.201 103.133 98.201ZM109.467 99.1101C108.93 99.1101 108.467 98.9953 108.078 98.7656C107.693 98.5336 107.394 98.2081 107.184 97.7891C106.975 97.3677 106.871 96.8741 106.871 96.3082C106.871 95.7495 106.975 95.2571 107.184 94.831C107.394 94.4048 107.688 94.0722 108.064 93.8331C108.443 93.594 108.886 93.4744 109.392 93.4744C109.7 93.4744 109.998 93.5253 110.287 93.6271C110.576 93.7289 110.835 93.8887 111.065 94.1065C111.295 94.3243 111.476 94.6072 111.608 94.9553C111.741 95.3009 111.807 95.7211 111.807 96.2159V96.5923H107.471V95.7969H110.767C110.767 95.5175 110.71 95.2701 110.596 95.0547C110.483 94.8369 110.323 94.6652 110.117 94.5398C109.913 94.4143 109.674 94.3516 109.4 94.3516C109.101 94.3516 108.841 94.425 108.618 94.5717C108.398 94.7161 108.228 94.9055 108.107 95.1399C107.989 95.3719 107.929 95.6241 107.929 95.8963V96.5178C107.929 96.8823 107.993 97.1925 108.121 97.4482C108.251 97.7038 108.432 97.8991 108.664 98.0341C108.896 98.1667 109.167 98.233 109.478 98.233C109.679 98.233 109.862 98.2045 110.028 98.1477C110.194 98.0885 110.337 98.0009 110.458 97.8849C110.578 97.7689 110.671 97.6257 110.735 97.4553L111.74 97.6364C111.659 97.9323 111.515 98.1915 111.306 98.4141C111.1 98.6342 110.841 98.8059 110.529 98.929C110.219 99.0497 109.865 99.1101 109.467 99.1101Z" fill="white"/>
<path d="M19.2028 14.2539C19.1729 13.9748 19.0472 13.7575 18.8256 13.6019C18.6062 13.4464 18.3207 13.3686 17.9691 13.3686C17.7219 13.3686 17.5099 13.4059 17.3331 13.4805C17.1563 13.555 17.021 13.6562 16.9272 13.7841C16.8335 13.9119 16.7855 14.0579 16.7834 14.2219C16.7834 14.3583 16.8143 14.4766 16.8761 14.5767C16.94 14.6768 17.0263 14.7621 17.1349 14.8324C17.2436 14.9006 17.364 14.9581 17.4961 15.005C17.6282 15.0518 17.7614 15.0913 17.8956 15.1232L18.5092 15.2766C18.7564 15.3342 18.994 15.4119 19.2219 15.5099C19.4521 15.608 19.6577 15.7315 19.8388 15.8807C20.022 16.0298 20.1669 16.2099 20.2734 16.4208C20.38 16.6317 20.4332 16.8789 20.4332 17.1623C20.4332 17.5458 20.3352 17.8835 20.1392 18.1754C19.9432 18.4652 19.6598 18.6921 19.2891 18.8562C18.9205 19.0181 18.4741 19.0991 17.9499 19.0991C17.4407 19.0991 16.9986 19.0202 16.6236 18.8626C16.2507 18.7049 15.9588 18.4748 15.7479 18.1722C15.5391 17.8697 15.4261 17.5011 15.4091 17.0664H16.5756C16.5927 17.2944 16.663 17.484 16.7866 17.6353C16.9102 17.7866 17.071 17.8995 17.2692 17.9741C17.4695 18.0487 17.6932 18.0859 17.9403 18.0859C18.1982 18.0859 18.424 18.0476 18.6179 17.9709C18.8139 17.892 18.9673 17.7834 19.0781 17.6449C19.1889 17.5043 19.2454 17.3402 19.2475 17.1527C19.2454 16.9822 19.1953 16.8416 19.0973 16.7308C18.9993 16.6179 18.8619 16.5241 18.685 16.4496C18.5103 16.3729 18.3058 16.3047 18.0714 16.245L17.3267 16.0533C16.7876 15.9148 16.3615 15.7049 16.0483 15.4237C15.7372 15.1403 15.5817 14.7642 15.5817 14.2955C15.5817 13.9098 15.6861 13.5721 15.8949 13.2823C16.1058 12.9925 16.3924 12.7678 16.7546 12.608C17.1168 12.446 17.527 12.3651 17.9851 12.3651C18.4496 12.3651 18.8565 12.446 19.206 12.608C19.5575 12.7678 19.8335 12.9904 20.0337 13.2759C20.234 13.5593 20.3374 13.8853 20.3438 14.2539H19.2028ZM22.5961 16.1236V19H21.4392V12.4545H22.5706V14.9251H22.6281C22.7432 14.6481 22.9211 14.4297 23.1618 14.2699C23.4047 14.108 23.7137 14.027 24.0887 14.027C24.4296 14.027 24.7268 14.0984 24.9804 14.2411C25.2339 14.3839 25.43 14.5927 25.5684 14.8675C25.7091 15.1424 25.7794 15.478 25.7794 15.8743V19H24.6224V16.0533C24.6224 15.723 24.5372 15.4663 24.3667 15.283C24.1984 15.0977 23.9619 15.005 23.6572 15.005C23.4527 15.005 23.2694 15.0497 23.1075 15.1392C22.9477 15.2266 22.822 15.3533 22.7304 15.5195C22.6409 15.6857 22.5961 15.8871 22.5961 16.1236ZM26.9587 19V14.0909H28.1157V19H26.9587ZM27.5404 13.3942C27.3572 13.3942 27.1995 13.3335 27.0674 13.212C26.9353 13.0884 26.8692 12.9403 26.8692 12.7678C26.8692 12.593 26.9353 12.445 27.0674 12.3235C27.1995 12.1999 27.3572 12.1381 27.5404 12.1381C27.7258 12.1381 27.8834 12.1999 28.0134 12.3235C28.1455 12.445 28.2116 12.593 28.2116 12.7678C28.2116 12.9403 28.1455 13.0884 28.0134 13.212C27.8834 13.3335 27.7258 13.3942 27.5404 13.3942ZM31.7919 14.0909V14.9858H28.8899V14.0909H31.7919ZM29.6154 19V13.6275C29.6154 13.2972 29.6836 13.0224 29.82 12.8029C29.9585 12.5835 30.1438 12.4194 30.3761 12.3107C30.6083 12.2021 30.8661 12.1477 31.1495 12.1477C31.3498 12.1477 31.5277 12.1637 31.6832 12.1957C31.8388 12.2276 31.9538 12.2564 32.0284 12.282L31.7983 13.1768C31.7493 13.1619 31.6875 13.147 31.6129 13.1321C31.5384 13.1151 31.4553 13.1065 31.3636 13.1065C31.1484 13.1065 30.9961 13.1587 30.9066 13.2631C30.8192 13.3654 30.7756 13.5124 30.7756 13.7042V19H29.6154ZM35.1493 14.0909V14.9858H32.3272V14.0909H35.1493ZM33.024 12.9148H34.1809V17.5234C34.1809 17.679 34.2044 17.7983 34.2512 17.8814C34.3002 17.9624 34.3642 18.0178 34.443 18.0476C34.5218 18.0774 34.6092 18.0923 34.7051 18.0923C34.7775 18.0923 34.8436 18.087 34.9032 18.0763C34.965 18.0657 35.0119 18.0561 35.0439 18.0476L35.2388 18.9521C35.177 18.9734 35.0886 18.9968 34.9735 19.0224C34.8606 19.0479 34.7221 19.0629 34.5581 19.0671C34.2683 19.0756 34.0073 19.032 33.775 18.9361C33.5428 18.8381 33.3585 18.6868 33.2221 18.4822C33.0879 18.2777 33.0218 18.022 33.024 17.7152V12.9148ZM38.637 15.7273C38.637 14.9283 38.7425 14.1942 38.9534 13.5252C39.1665 12.854 39.4829 12.234 39.9026 11.6651H40.9925C40.8305 11.8761 40.6792 12.1349 40.5386 12.4418C40.398 12.7464 40.2755 13.081 40.1711 13.4453C40.0688 13.8075 39.9878 14.1836 39.9282 14.5735C39.8706 14.9634 39.8419 15.348 39.8419 15.7273C39.8419 16.2322 39.892 16.7436 39.9921 17.2614C40.0944 17.7791 40.2318 18.2596 40.4044 18.7028C40.5791 19.1438 40.7751 19.505 40.9925 19.7862H39.9026C39.4829 19.2173 39.1665 18.5984 38.9534 17.9293C38.7425 17.2582 38.637 16.5241 38.637 15.7273ZM44.5408 12.4545V19H43.3551V13.6083H43.3168L41.7859 14.5863V13.4996L43.4126 12.4545H44.5408ZM49.1911 15.2511V16.2035H46.2443V15.2511H49.1911ZM50.1666 19V18.1435L52.439 15.9158C52.6563 15.6964 52.8374 15.5014 52.9823 15.331C53.1272 15.1605 53.2359 14.9954 53.3083 14.8356C53.3808 14.6758 53.417 14.5053 53.417 14.3242C53.417 14.1175 53.3701 13.9407 53.2764 13.7937C53.1826 13.6445 53.0537 13.5295 52.8896 13.4485C52.7256 13.3675 52.5392 13.3271 52.3303 13.3271C52.1151 13.3271 51.9266 13.3718 51.7646 13.4613C51.6027 13.5487 51.477 13.6733 51.3875 13.8352C51.3002 13.9972 51.2565 14.19 51.2565 14.4137H50.1283C50.1283 13.9982 50.2231 13.6371 50.4127 13.3303C50.6024 13.0234 50.8634 12.7859 51.1958 12.6175C51.5303 12.4492 51.9138 12.3651 52.3463 12.3651C52.7852 12.3651 53.1709 12.4471 53.5033 12.6112C53.8357 12.7752 54.0935 13 54.2767 13.2855C54.4621 13.571 54.5548 13.897 54.5548 14.2635C54.5548 14.5085 54.5079 14.7493 54.4142 14.9858C54.3204 15.2223 54.1553 15.4844 53.9188 15.772C53.6844 16.0597 53.3552 16.408 52.9312 16.8171L51.803 17.9645V18.0092H54.6539V19H50.1666ZM58.032 19.0895C57.6059 19.0895 57.2245 19.0096 56.8879 18.8498C56.5512 18.6879 56.2838 18.4663 56.0857 18.185C55.8896 17.9038 55.7852 17.582 55.7725 17.2198H56.923C56.9443 17.4883 57.0605 17.7077 57.2714 17.8782C57.4823 18.0465 57.7359 18.1307 58.032 18.1307C58.2643 18.1307 58.471 18.0774 58.6521 17.9709C58.8332 17.8643 58.9759 17.7163 59.0803 17.5266C59.1847 17.337 59.2359 17.1207 59.2338 16.8778C59.2359 16.6307 59.1837 16.4112 59.0771 16.2195C58.9706 16.0277 58.8247 15.8775 58.6393 15.7688C58.4539 15.658 58.2409 15.6026 58.0001 15.6026C57.8041 15.6005 57.6112 15.6367 57.4216 15.7113C57.232 15.7859 57.0818 15.8839 56.971 16.0053L55.9003 15.8295L56.2423 12.4545H60.0392V13.4453H57.2235L57.0349 15.1808H57.0732C57.1947 15.038 57.3662 14.9197 57.5878 14.826C57.8094 14.7301 58.0523 14.6822 58.3165 14.6822C58.7128 14.6822 59.0665 14.7759 59.3776 14.9634C59.6887 15.1488 59.9337 15.4045 60.1127 15.7305C60.2916 16.0565 60.3811 16.4293 60.3811 16.8491C60.3811 17.2816 60.281 17.6673 60.0807 18.006C59.8825 18.3427 59.6066 18.608 59.2529 18.8018C58.9014 18.9936 58.4944 19.0895 58.032 19.0895ZM63.5292 15.7273C63.5292 16.5241 63.4227 17.2582 63.2096 17.9293C62.9987 18.5984 62.6833 19.2173 62.2636 19.7862H61.1737C61.3378 19.5753 61.4891 19.3175 61.6276 19.0128C61.7682 18.7081 61.8896 18.3736 61.9919 18.0092C62.0963 17.6449 62.1773 17.2678 62.2348 16.8778C62.2945 16.4879 62.3243 16.1044 62.3243 15.7273C62.3243 15.2223 62.2732 14.7109 62.1709 14.1932C62.0708 13.6754 61.9333 13.195 61.7586 12.7518C61.586 12.3086 61.3911 11.9464 61.1737 11.6651H62.2636C62.6833 12.234 62.9987 12.854 63.2096 13.5252C63.4227 14.1942 63.5292 14.9283 63.5292 15.7273Z" fill="#BBC8D2"/>
<path d="M15.6456 74V67.4545H19.9027V68.4485H16.8313V70.2255H19.6822V71.2195H16.8313V73.006H19.9283V74H15.6456ZM22.2182 71.1236V74H21.0613V69.0909H22.1671V69.9251H22.2246C22.3375 69.6502 22.5176 69.4318 22.7647 69.2699C23.014 69.108 23.3219 69.027 23.6884 69.027C24.0272 69.027 24.3223 69.0994 24.5737 69.2443C24.8272 69.3892 25.0233 69.5991 25.1618 69.8739C25.3024 70.1488 25.3716 70.4822 25.3695 70.8743V74H24.2125V71.0533C24.2125 70.7251 24.1273 70.4684 23.9569 70.283C23.7885 70.0977 23.5552 70.005 23.2569 70.005C23.0545 70.005 22.8745 70.0497 22.7168 70.1392C22.5613 70.2266 22.4387 70.3533 22.3493 70.5195C22.2619 70.6857 22.2182 70.8871 22.2182 71.1236ZM28.997 69.0909V69.9858H26.1749V69.0909H28.997ZM26.8716 67.9148H28.0286V72.5234C28.0286 72.679 28.052 72.7983 28.0989 72.8814C28.1479 72.9624 28.2118 73.0178 28.2907 73.0476C28.3695 73.0774 28.4569 73.0923 28.5527 73.0923C28.6252 73.0923 28.6912 73.087 28.7509 73.0763C28.8127 73.0657 28.8596 73.0561 28.8915 73.0476L29.0865 73.9521C29.0247 73.9734 28.9363 73.9968 28.8212 74.0224C28.7083 74.0479 28.5698 74.0629 28.4057 74.0671C28.1159 74.0756 27.8549 74.032 27.6227 73.9361C27.3904 73.8381 27.2061 73.6868 27.0698 73.4822C26.9355 73.2777 26.8695 73.022 26.8716 72.7152V67.9148ZM32.0851 74.0959C31.593 74.0959 31.1679 73.9936 30.8099 73.7891C30.4541 73.5824 30.1803 73.2905 29.9885 72.9134C29.7968 72.5341 29.7009 72.0877 29.7009 71.5742C29.7009 71.0692 29.7968 70.6261 29.9885 70.2447C30.1824 69.8612 30.453 69.5629 30.8003 69.3498C31.1476 69.1346 31.5557 69.027 32.0244 69.027C32.327 69.027 32.6125 69.076 32.8809 69.174C33.1515 69.2699 33.3902 69.419 33.5969 69.6214C33.8057 69.8239 33.9697 70.0817 34.089 70.3949C34.2084 70.706 34.268 71.0767 34.268 71.5071V71.8619H30.2442V71.082H33.159C33.1569 70.8604 33.1089 70.6634 33.0152 70.4908C32.9214 70.3161 32.7904 70.1786 32.6221 70.0785C32.4559 69.9783 32.262 69.9283 32.0404 69.9283C31.8039 69.9283 31.5961 69.9858 31.4172 70.1009C31.2382 70.2138 31.0986 70.3629 30.9985 70.5483C30.9005 70.7315 30.8504 70.9329 30.8483 71.1523V71.8331C30.8483 72.1186 30.9005 72.3636 31.0049 72.5682C31.1093 72.7706 31.2552 72.9261 31.4427 73.0348C31.6302 73.1413 31.8497 73.1946 32.1011 73.1946C32.2694 73.1946 32.4218 73.1712 32.5582 73.1243C32.6945 73.0753 32.8128 73.0039 32.9129 72.9102C33.0131 72.8164 33.0887 72.7003 33.1398 72.5618L34.2201 72.6832C34.1519 72.9687 34.0219 73.218 33.8302 73.4311C33.6405 73.642 33.3976 73.8061 33.1015 73.9233C32.8053 74.0384 32.4665 74.0959 32.0851 74.0959ZM35.2468 74V69.0909H36.3686V69.9091H36.4197C36.5092 69.6257 36.6626 69.4073 36.88 69.2539C37.0994 69.0984 37.3498 69.0206 37.631 69.0206C37.695 69.0206 37.7663 69.0238 37.8452 69.0302C37.9261 69.0344 37.9933 69.0419 38.0465 69.0526V70.1168C37.9975 70.0998 37.9197 70.0849 37.8132 70.0721C37.7088 70.0572 37.6076 70.0497 37.5096 70.0497C37.2987 70.0497 37.109 70.0955 36.9407 70.1871C36.7745 70.2766 36.6435 70.4013 36.5476 70.5611C36.4517 70.7209 36.4038 70.9052 36.4038 71.114V74H35.2468ZM41.7667 75.8409C41.609 75.8409 41.4631 75.8281 41.3288 75.8026C41.1967 75.7791 41.0913 75.7514 41.0124 75.7195L41.2809 74.8182C41.4492 74.8672 41.5994 74.8906 41.7315 74.8885C41.8636 74.8864 41.9798 74.8448 42.0799 74.7638C42.1822 74.685 42.2685 74.5529 42.3388 74.3675L42.4379 74.1023L40.6577 69.0909H41.8849L43.0163 72.7983H43.0675L44.2021 69.0909H45.4325L43.467 74.5945C43.3754 74.8544 43.2539 75.0771 43.1026 75.2624C42.9513 75.4499 42.766 75.5927 42.5465 75.6907C42.3292 75.7908 42.0692 75.8409 41.7667 75.8409ZM48.2075 74.0959C47.7281 74.0959 47.3126 73.9904 46.961 73.7795C46.6095 73.5685 46.3367 73.2734 46.1428 72.8942C45.9511 72.5149 45.8552 72.0717 45.8552 71.5646C45.8552 71.0575 45.9511 70.6133 46.1428 70.2319C46.3367 69.8505 46.6095 69.5543 46.961 69.3434C47.3126 69.1325 47.7281 69.027 48.2075 69.027C48.6869 69.027 49.1024 69.1325 49.4539 69.3434C49.8055 69.5543 50.0771 69.8505 50.2689 70.2319C50.4628 70.6133 50.5597 71.0575 50.5597 71.5646C50.5597 72.0717 50.4628 72.5149 50.2689 72.8942C50.0771 73.2734 49.8055 73.5685 49.4539 73.7795C49.1024 73.9904 48.6869 74.0959 48.2075 74.0959ZM48.2139 73.169C48.4738 73.169 48.6911 73.0977 48.8659 72.9549C49.0406 72.81 49.1705 72.6161 49.2558 72.3732C49.3431 72.1303 49.3868 71.8597 49.3868 71.5614C49.3868 71.261 49.3431 70.9893 49.2558 70.7464C49.1705 70.5014 49.0406 70.3065 48.8659 70.1616C48.6911 70.0167 48.4738 69.9442 48.2139 69.9442C47.9475 69.9442 47.7259 70.0167 47.5491 70.1616C47.3744 70.3065 47.2433 70.5014 47.156 70.7464C47.0708 70.9893 47.0281 71.261 47.0281 71.5614C47.0281 71.8597 47.0708 72.1303 47.156 72.3732C47.2433 72.6161 47.3744 72.81 47.5491 72.9549C47.7259 73.0977 47.9475 73.169 48.2139 73.169ZM54.6706 71.9354V69.0909H55.8276V74H54.7058V73.1275H54.6547C54.5439 73.4023 54.3617 73.6271 54.1081 73.8018C53.8567 73.9766 53.5467 74.0639 53.1781 74.0639C52.8564 74.0639 52.5719 73.9925 52.3248 73.8498C52.0797 73.7049 51.888 73.495 51.7495 73.2202C51.611 72.9432 51.5417 72.6087 51.5417 72.2166V69.0909H52.6987V72.0376C52.6987 72.3487 52.7839 72.5959 52.9544 72.7791C53.1248 72.9624 53.3485 73.054 53.6255 73.054C53.796 73.054 53.9611 73.0124 54.1209 72.9293C54.2807 72.8462 54.4118 72.7227 54.514 72.5586C54.6184 72.3924 54.6706 72.1847 54.6706 71.9354ZM57.0173 74V69.0909H58.1391V69.9091H58.1903C58.2797 69.6257 58.4331 69.4073 58.6505 69.2539C58.8699 69.0984 59.1203 69.0206 59.4015 69.0206C59.4655 69.0206 59.5368 69.0238 59.6157 69.0302C59.6966 69.0344 59.7638 69.0419 59.817 69.0526V70.1168C59.768 70.0998 59.6903 70.0849 59.5837 70.0721C59.4793 70.0572 59.3781 70.0497 59.2801 70.0497C59.0692 70.0497 58.8795 70.0955 58.7112 70.1871C58.545 70.2766 58.414 70.4013 58.3181 70.5611C58.2222 70.7209 58.1743 70.9052 58.1743 71.114V74H57.0173ZM65.2694 69.0909V69.9858H62.4474V69.0909H65.2694ZM63.1441 67.9148H64.301V72.5234C64.301 72.679 64.3245 72.7983 64.3714 72.8814C64.4204 72.9624 64.4843 73.0178 64.5631 73.0476C64.642 73.0774 64.7293 73.0923 64.8252 73.0923C64.8976 73.0923 64.9637 73.087 65.0233 73.0763C65.0851 73.0657 65.132 73.0561 65.164 73.0476L65.3589 73.9521C65.2971 73.9734 65.2087 73.9968 65.0937 74.0224C64.9807 74.0479 64.8422 74.0629 64.6782 74.0671C64.3884 74.0756 64.1274 74.032 63.8952 73.9361C63.6629 73.8381 63.4786 73.6868 63.3422 73.4822C63.208 73.2777 63.142 73.022 63.1441 72.7152V67.9148ZM68.3576 74.0959C67.8654 74.0959 67.4403 73.9936 67.0824 73.7891C66.7266 73.5824 66.4528 73.2905 66.261 72.9134C66.0692 72.5341 65.9734 72.0877 65.9734 71.5742C65.9734 71.0692 66.0692 70.6261 66.261 70.2447C66.4549 69.8612 66.7255 69.5629 67.0728 69.3498C67.4201 69.1346 67.8281 69.027 68.2969 69.027C68.5994 69.027 68.8849 69.076 69.1534 69.174C69.424 69.2699 69.6626 69.419 69.8693 69.6214C70.0781 69.8239 70.2422 70.0817 70.3615 70.3949C70.4808 70.706 70.5405 71.0767 70.5405 71.5071V71.8619H66.5167V71.082H69.4315C69.4293 70.8604 69.3814 70.6634 69.2876 70.4908C69.1939 70.3161 69.0629 70.1786 68.8945 70.0785C68.7283 69.9783 68.5344 69.9283 68.3129 69.9283C68.0763 69.9283 67.8686 69.9858 67.6896 70.1009C67.5107 70.2138 67.3711 70.3629 67.271 70.5483C67.1729 70.7315 67.1229 70.9329 67.1207 71.1523V71.8331C67.1207 72.1186 67.1729 72.3636 67.2773 72.5682C67.3817 72.7706 67.5277 72.9261 67.7152 73.0348C67.9027 73.1413 68.1222 73.1946 68.3736 73.1946C68.5419 73.1946 68.6942 73.1712 68.8306 73.1243C68.967 73.0753 69.0852 73.0039 69.1854 72.9102C69.2855 72.8164 69.3612 72.7003 69.4123 72.5618L70.4925 72.6832C70.4244 72.9687 70.2944 73.218 70.1026 73.4311C69.913 73.642 69.6701 73.8061 69.3739 73.9233C69.0778 74.0384 68.739 74.0959 68.3576 74.0959ZM72.3598 69.0909L73.3506 70.9031L74.3573 69.0909H75.5814L74.1017 71.5455L75.607 74H74.3893L73.3506 72.2326L72.3215 74H71.0942L72.5899 71.5455L71.1325 69.0909H72.3598ZM78.9276 69.0909V69.9858H76.1056V69.0909H78.9276ZM76.8023 67.9148H77.9593V72.5234C77.9593 72.679 77.9827 72.7983 78.0296 72.8814C78.0786 72.9624 78.1425 73.0178 78.2213 73.0476C78.3002 73.0774 78.3875 73.0923 78.4834 73.0923C78.5558 73.0923 78.6219 73.087 78.6816 73.0763C78.7433 73.0657 78.7902 73.0561 78.8222 73.0476L79.0171 73.9521C78.9553 73.9734 78.8669 73.9968 78.7519 74.0224C78.6389 74.0479 78.5004 74.0629 78.3364 74.0671C78.0466 74.0756 77.7856 74.032 77.5534 73.9361C77.3211 73.8381 77.1368 73.6868 77.0004 73.4822C76.8662 73.2777 76.8002 73.022 76.8023 72.7152V67.9148ZM80.608 74.0703C80.4141 74.0703 80.2479 74.0021 80.1094 73.8658C79.9709 73.7294 79.9027 73.5632 79.9048 73.3672C79.9027 73.1754 79.9709 73.0114 80.1094 72.875C80.2479 72.7386 80.4141 72.6705 80.608 72.6705C80.7955 72.6705 80.9585 72.7386 81.0969 72.875C81.2376 73.0114 81.3089 73.1754 81.3111 73.3672C81.3089 73.4972 81.2749 73.6154 81.2088 73.7219C81.1449 73.8285 81.0597 73.9137 80.9531 73.9776C80.8487 74.0394 80.7337 74.0703 80.608 74.0703ZM80.608 70.5675C80.4141 70.5675 80.2479 70.4993 80.1094 70.3629C79.9709 70.2244 79.9027 70.0582 79.9048 69.8643C79.9027 69.6726 79.9709 69.5085 80.1094 69.3722C80.2479 69.2337 80.4141 69.1644 80.608 69.1644C80.7955 69.1644 80.9585 69.2337 81.0969 69.3722C81.2376 69.5085 81.3089 69.6726 81.3111 69.8643C81.3089 69.9922 81.2749 70.1094 81.2088 70.2159C81.1449 70.3224 81.0597 70.4077 80.9531 70.4716C80.8487 70.5355 80.7337 70.5675 80.608 70.5675Z" fill="#BBC8D2"/>
<path d="M15.358 140.449V139.455H20.5803V140.449H18.5572V146H17.381V140.449H15.358ZM21.0261 146V141.091H22.1479V141.909H22.199C22.2885 141.626 22.4419 141.407 22.6593 141.254C22.8787 141.098 23.1291 141.021 23.4103 141.021C23.4743 141.021 23.5456 141.024 23.6245 141.03C23.7054 141.034 23.7725 141.042 23.8258 141.053V142.117C23.7768 142.1 23.699 142.085 23.5925 142.072C23.4881 142.057 23.3869 142.05 23.2889 142.05C23.0779 142.05 22.8883 142.096 22.72 142.187C22.5538 142.277 22.4228 142.401 22.3269 142.561C22.231 142.721 22.1831 142.905 22.1831 143.114V146H21.0261ZM25.9192 146.099C25.6081 146.099 25.3279 146.044 25.0787 145.933C24.8315 145.82 24.6355 145.654 24.4906 145.434C24.3478 145.215 24.2765 144.944 24.2765 144.623C24.2765 144.346 24.3276 144.116 24.4299 143.935C24.5321 143.754 24.6717 143.609 24.8485 143.501C25.0254 143.392 25.2246 143.31 25.4462 143.255C25.6699 143.197 25.9011 143.156 26.1397 143.13C26.4274 143.1 26.6607 143.074 26.8397 143.05C27.0186 143.025 27.1486 142.986 27.2296 142.935C27.3127 142.882 27.3542 142.8 27.3542 142.689V142.67C27.3542 142.429 27.2828 142.243 27.1401 142.11C26.9973 141.978 26.7917 141.912 26.5233 141.912C26.2399 141.912 26.0151 141.974 25.8489 142.098C25.6848 142.221 25.574 142.367 25.5165 142.536L24.4363 142.382C24.5215 142.084 24.6621 141.835 24.8581 141.634C25.0542 141.432 25.2939 141.281 25.5772 141.18C25.8606 141.078 26.1738 141.027 26.5169 141.027C26.7534 141.027 26.9888 141.055 27.2232 141.11C27.4576 141.165 27.6717 141.257 27.8656 141.385C28.0595 141.511 28.215 141.682 28.3322 141.9C28.4515 142.117 28.5112 142.388 28.5112 142.714V146H27.399V145.326H27.3606C27.2903 145.462 27.1912 145.59 27.0634 145.709C26.9377 145.826 26.7789 145.921 26.5872 145.994C26.3975 146.064 26.1749 146.099 25.9192 146.099ZM26.2196 145.249C26.4519 145.249 26.6532 145.203 26.8237 145.112C26.9941 145.018 27.1252 144.894 27.2168 144.741C27.3105 144.587 27.3574 144.42 27.3574 144.239V143.661C27.3212 143.69 27.2594 143.718 27.1721 143.744C27.0868 143.769 26.9909 143.792 26.8844 143.811C26.7779 143.83 26.6724 143.847 26.568 143.862C26.4636 143.877 26.373 143.89 26.2963 143.9C26.1238 143.924 25.9693 143.962 25.8329 144.015C25.6966 144.069 25.589 144.143 25.5101 144.239C25.4313 144.333 25.3919 144.454 25.3919 144.603C25.3919 144.816 25.4696 144.977 25.6252 145.086C25.7807 145.195 25.9789 145.249 26.2196 145.249ZM30.8315 143.124V146H29.6745V141.091H30.7804V141.925H30.8379C30.9508 141.65 31.1309 141.432 31.378 141.27C31.6273 141.108 31.9352 141.027 32.3017 141.027C32.6404 141.027 32.9355 141.099 33.187 141.244C33.4405 141.389 33.6365 141.599 33.775 141.874C33.9157 142.149 33.9849 142.482 33.9828 142.874V146H32.8258V143.053C32.8258 142.725 32.7406 142.468 32.5701 142.283C32.4018 142.098 32.1685 142.005 31.8702 142.005C31.6678 142.005 31.4877 142.05 31.3301 142.139C31.1745 142.227 31.052 142.353 30.9625 142.52C30.8752 142.686 30.8315 142.887 30.8315 143.124ZM39.0389 142.388L37.9842 142.504C37.9544 142.397 37.9022 142.297 37.8276 142.203C37.7551 142.109 37.6571 142.034 37.5336 141.976C37.41 141.919 37.2587 141.89 37.0797 141.89C36.839 141.89 36.6365 141.942 36.4725 142.047C36.3105 142.151 36.2306 142.286 36.2328 142.452C36.2306 142.595 36.2828 142.711 36.3894 142.801C36.498 142.89 36.677 142.964 36.9263 143.021L37.7637 143.2C38.2282 143.3 38.5733 143.459 38.7992 143.676C39.0272 143.894 39.1422 144.178 39.1444 144.53C39.1422 144.839 39.0517 145.112 38.8727 145.348C38.6958 145.582 38.4498 145.766 38.1344 145.898C37.8191 146.03 37.4569 146.096 37.0478 146.096C36.4469 146.096 35.9632 145.97 35.5968 145.719C35.2303 145.465 35.0119 145.113 34.9416 144.661L36.0698 144.552C36.1209 144.774 36.2296 144.941 36.3958 145.054C36.562 145.167 36.7782 145.223 37.0446 145.223C37.3194 145.223 37.54 145.167 37.7061 145.054C37.8745 144.941 37.9586 144.801 37.9586 144.635C37.9586 144.495 37.9043 144.379 37.7956 144.287C37.6891 144.195 37.5229 144.125 37.2971 144.076L36.4597 143.9C35.9888 143.802 35.6404 143.637 35.4146 143.405C35.1887 143.17 35.0769 142.874 35.079 142.516C35.0769 142.214 35.1589 141.952 35.3251 141.73C35.4934 141.506 35.7267 141.334 36.025 141.212C36.3255 141.089 36.6717 141.027 37.0637 141.027C37.639 141.027 38.0918 141.15 38.4221 141.395C38.7544 141.64 38.96 141.971 39.0389 142.388ZM41.2553 139.455V146H40.0984V139.455H41.2553ZM43.8577 146.099C43.5466 146.099 43.2664 146.044 43.0171 145.933C42.77 145.82 42.574 145.654 42.4291 145.434C42.2863 145.215 42.2149 144.944 42.2149 144.623C42.2149 144.346 42.2661 144.116 42.3683 143.935C42.4706 143.754 42.6102 143.609 42.787 143.501C42.9639 143.392 43.1631 143.31 43.3847 143.255C43.6084 143.197 43.8396 143.156 44.0782 143.13C44.3659 143.1 44.5992 143.074 44.7781 143.05C44.9571 143.025 45.0871 142.986 45.1681 142.935C45.2512 142.882 45.2927 142.8 45.2927 142.689V142.67C45.2927 142.429 45.2213 142.243 45.0786 142.11C44.9358 141.978 44.7302 141.912 44.4617 141.912C44.1784 141.912 43.9536 141.974 43.7874 142.098C43.6233 142.221 43.5125 142.367 43.455 142.536L42.3747 142.382C42.46 142.084 42.6006 141.835 42.7966 141.634C42.9926 141.432 43.2323 141.281 43.5157 141.18C43.7991 141.078 44.1123 141.027 44.4553 141.027C44.6919 141.027 44.9273 141.055 45.1617 141.11C45.396 141.165 45.6102 141.257 45.8041 141.385C45.998 141.511 46.1535 141.682 46.2707 141.9C46.39 142.117 46.4497 142.388 46.4497 142.714V146H45.3374V145.326H45.2991C45.2288 145.462 45.1297 145.59 45.0019 145.709C44.8762 145.826 44.7174 145.921 44.5257 145.994C44.336 146.064 44.1134 146.099 43.8577 146.099ZM44.1581 145.249C44.3904 145.249 44.5917 145.203 44.7622 145.112C44.9326 145.018 45.0637 144.894 45.1553 144.741C45.249 144.587 45.2959 144.42 45.2959 144.239V143.661C45.2597 143.69 45.1979 143.718 45.1105 143.744C45.0253 143.769 44.9294 143.792 44.8229 143.811C44.7164 143.83 44.6109 143.847 44.5065 143.862C44.4021 143.877 44.3115 143.89 44.2348 143.9C44.0622 143.924 43.9078 143.962 43.7714 144.015C43.635 144.069 43.5274 144.143 43.4486 144.239C43.3698 144.333 43.3303 144.454 43.3303 144.603C43.3303 144.816 43.4081 144.977 43.5637 145.086C43.7192 145.195 43.9173 145.249 44.1581 145.249ZM50.0644 141.091V141.986H47.2423V141.091H50.0644ZM47.939 139.915H49.096V144.523C49.096 144.679 49.1194 144.798 49.1663 144.881C49.2153 144.962 49.2792 145.018 49.358 145.048C49.4369 145.077 49.5242 145.092 49.6201 145.092C49.6926 145.092 49.7586 145.087 49.8183 145.076C49.8801 145.066 49.9269 145.056 49.9589 145.048L50.1539 145.952C50.0921 145.973 50.0036 145.997 49.8886 146.022C49.7757 146.048 49.6372 146.063 49.4731 146.067C49.1833 146.076 48.9223 146.032 48.6901 145.936C48.4578 145.838 48.2735 145.687 48.1372 145.482C48.0029 145.278 47.9369 145.022 47.939 144.715V139.915ZM53.1525 146.096C52.6603 146.096 52.2353 145.994 51.8773 145.789C51.5215 145.582 51.2477 145.29 51.0559 144.913C50.8642 144.534 50.7683 144.088 50.7683 143.574C50.7683 143.069 50.8642 142.626 51.0559 142.245C51.2498 141.861 51.5204 141.563 51.8677 141.35C52.215 141.135 52.623 141.027 53.0918 141.027C53.3944 141.027 53.6799 141.076 53.9483 141.174C54.2189 141.27 54.4576 141.419 54.6642 141.621C54.873 141.824 55.0371 142.082 55.1564 142.395C55.2757 142.706 55.3354 143.077 55.3354 143.507V143.862H51.3116V143.082H54.2264C54.2243 142.86 54.1763 142.663 54.0826 142.491C53.9888 142.316 53.8578 142.179 53.6895 142.078C53.5233 141.978 53.3294 141.928 53.1078 141.928C52.8713 141.928 52.6635 141.986 52.4846 142.101C52.3056 142.214 52.166 142.363 52.0659 142.548C51.9679 142.732 51.9178 142.933 51.9157 143.152V143.833C51.9157 144.119 51.9679 144.364 52.0723 144.568C52.1767 144.771 52.3226 144.926 52.5101 145.035C52.6976 145.141 52.9171 145.195 53.1685 145.195C53.3368 145.195 53.4892 145.171 53.6255 145.124C53.7619 145.075 53.8801 145.004 53.9803 144.91C54.0804 144.816 54.1561 144.7 54.2072 144.562L55.2875 144.683C55.2193 144.969 55.0893 145.218 54.8976 145.431C54.7079 145.642 54.465 145.806 54.1689 145.923C53.8727 146.038 53.5339 146.096 53.1525 146.096ZM58.1359 146.086C57.7503 146.086 57.4051 145.987 57.1004 145.789C56.7957 145.591 56.555 145.303 56.3781 144.926C56.2013 144.549 56.1128 144.091 56.1128 143.552C56.1128 143.006 56.2023 142.546 56.3813 142.171C56.5624 141.794 56.8064 141.51 57.1132 141.318C57.42 141.124 57.762 141.027 58.1391 141.027C58.4268 141.027 58.6633 141.076 58.8486 141.174C59.034 141.27 59.181 141.386 59.2897 141.522C59.3983 141.657 59.4825 141.783 59.5422 141.903H59.5901V139.455H60.7503V146H59.6125V145.227H59.5422C59.4825 145.346 59.3962 145.473 59.2833 145.607C59.1704 145.739 59.0212 145.852 58.8358 145.946C58.6505 146.039 58.4172 146.086 58.1359 146.086ZM58.4587 145.137C58.7037 145.137 58.9126 145.071 59.0851 144.939C59.2577 144.805 59.3888 144.618 59.4782 144.38C59.5677 144.141 59.6125 143.863 59.6125 143.545C59.6125 143.228 59.5677 142.952 59.4782 142.718C59.3909 142.483 59.2609 142.301 59.0883 142.171C58.9179 142.041 58.708 141.976 58.4587 141.976C58.2009 141.976 57.9857 142.043 57.8131 142.178C57.6405 142.312 57.5106 142.497 57.4232 142.734C57.3358 142.97 57.2922 143.241 57.2922 143.545C57.2922 143.852 57.3358 144.126 57.4232 144.367C57.5127 144.605 57.6437 144.794 57.8163 144.933C57.991 145.069 58.2052 145.137 58.4587 145.137ZM63.979 140.449V139.455H69.2013V140.449H67.1783V146H66.0021V140.449H63.979ZM71.6183 146.096C71.1262 146.096 70.7011 145.994 70.3431 145.789C69.9873 145.582 69.7135 145.29 69.5218 144.913C69.33 144.534 69.2341 144.088 69.2341 143.574C69.2341 143.069 69.33 142.626 69.5218 142.245C69.7156 141.861 69.9862 141.563 70.3335 141.35C70.6808 141.135 71.0889 141.027 71.5576 141.027C71.8602 141.027 72.1457 141.076 72.4142 141.174C72.6847 141.27 72.9234 141.419 73.1301 141.621C73.3389 141.824 73.5029 142.082 73.6222 142.395C73.7416 142.706 73.8012 143.077 73.8012 143.507V143.862H69.7774V143.082H72.6922C72.6901 142.86 72.6421 142.663 72.5484 142.491C72.4546 142.316 72.3236 142.179 72.1553 142.078C71.9891 141.978 71.7952 141.928 71.5736 141.928C71.3371 141.928 71.1294 141.986 70.9504 142.101C70.7714 142.214 70.6318 142.363 70.5317 142.548C70.4337 142.732 70.3836 142.933 70.3815 143.152V143.833C70.3815 144.119 70.4337 144.364 70.5381 144.568C70.6425 144.771 70.7884 144.926 70.9759 145.035C71.1634 145.141 71.3829 145.195 71.6343 145.195C71.8026 145.195 71.955 145.171 72.0914 145.124C72.2277 145.075 72.346 145.004 72.4461 144.91C72.5463 144.816 72.6219 144.7 72.673 144.562L73.7533 144.683C73.6851 144.969 73.5551 145.218 73.3634 145.431C73.1737 145.642 72.9308 145.806 72.6347 145.923C72.3385 146.038 71.9997 146.096 71.6183 146.096ZM75.6206 141.091L76.6113 142.903L77.6181 141.091H78.8422L77.3624 143.545L78.8677 146H77.65L76.6113 144.233L75.5822 146H74.3549L75.8507 143.545L74.3933 141.091H75.6206ZM82.1884 141.091V141.986H79.3663V141.091H82.1884ZM80.063 139.915H81.22V144.523C81.22 144.679 81.2434 144.798 81.2903 144.881C81.3393 144.962 81.4032 145.018 81.4821 145.048C81.5609 145.077 81.6483 145.092 81.7441 145.092C81.8166 145.092 81.8826 145.087 81.9423 145.076C82.0041 145.066 82.051 145.056 82.0829 145.048L82.2779 145.952C82.2161 145.973 82.1277 145.997 82.0126 146.022C81.8997 146.048 81.7612 146.063 81.5971 146.067C81.3074 146.076 81.0463 146.032 80.8141 145.936C80.5819 145.838 80.3975 145.687 80.2612 145.482C80.127 145.278 80.0609 145.022 80.063 144.715V139.915ZM83.8687 146.07C83.6748 146.07 83.5086 146.002 83.3701 145.866C83.2316 145.729 83.1634 145.563 83.1656 145.367C83.1634 145.175 83.2316 145.011 83.3701 144.875C83.5086 144.739 83.6748 144.67 83.8687 144.67C84.0562 144.67 84.2192 144.739 84.3577 144.875C84.4983 145.011 84.5697 145.175 84.5718 145.367C84.5697 145.497 84.5356 145.615 84.4695 145.722C84.4056 145.828 84.3204 145.914 84.2139 145.978C84.1095 146.039 83.9944 146.07 83.8687 146.07ZM83.8687 142.567C83.6748 142.567 83.5086 142.499 83.3701 142.363C83.2316 142.224 83.1634 142.058 83.1656 141.864C83.1634 141.673 83.2316 141.509 83.3701 141.372C83.5086 141.234 83.6748 141.164 83.8687 141.164C84.0562 141.164 84.2192 141.234 84.3577 141.372C84.4983 141.509 84.5697 141.673 84.5718 141.864C84.5697 141.992 84.5356 142.109 84.4695 142.216C84.4056 142.322 84.3204 142.408 84.2139 142.472C84.1095 142.536 83.9944 142.567 83.8687 142.567Z" fill="#BBC8D2"/>
<path d="M15.7173 157.727H17.3295L19.4886 162.997H19.5739L21.733 157.727H23.3452V165H22.081V160.004H22.0135L20.0036 164.979H19.0589L17.049 159.993H16.9815V165H15.7173V157.727ZM25.6108 157.727V160.405H24.6307V157.727H25.6108ZM30.4918 167.045V164.141H30.4386C30.3723 164.273 30.2764 164.414 30.1509 164.563C30.0254 164.71 29.8597 164.835 29.6538 164.94C29.4478 165.044 29.1886 165.096 28.8761 165.096C28.4476 165.096 28.064 164.986 27.7255 164.766C27.387 164.545 27.1194 164.226 26.9229 163.807C26.7264 163.388 26.6282 162.879 26.6282 162.28C26.6282 161.674 26.7276 161.162 26.9265 160.746C27.1277 160.327 27.3988 160.011 27.7397 159.798C28.0806 159.582 28.4606 159.474 28.8796 159.474C29.1992 159.474 29.462 159.529 29.668 159.638C29.8739 159.744 30.0373 159.873 30.158 160.025C30.2788 160.174 30.3723 160.315 30.4386 160.447H30.5167V159.545H31.7809V167.045H30.4918ZM29.2347 164.041C29.507 164.041 29.739 163.968 29.9308 163.821C30.1225 163.672 30.2681 163.465 30.3675 163.2C30.467 162.934 30.5167 162.625 30.5167 162.273C30.5167 161.92 30.467 161.613 30.3675 161.353C30.2705 161.093 30.1261 160.89 29.9343 160.746C29.7449 160.601 29.5117 160.529 29.2347 160.529C28.9483 160.529 28.7092 160.604 28.5174 160.753C28.3256 160.902 28.1812 161.108 28.0842 161.371C27.9871 161.634 27.9386 161.934 27.9386 162.273C27.9386 162.614 27.9871 162.918 28.0842 163.185C28.1836 163.451 28.3292 163.66 28.521 163.814C28.7151 163.965 28.953 164.041 29.2347 164.041ZM35.5824 167.045V159.545H36.8466V160.447H36.9212C36.9875 160.315 37.081 160.174 37.2017 160.025C37.3224 159.873 37.4858 159.744 37.6918 159.638C37.8977 159.529 38.1605 159.474 38.4801 159.474C38.9015 159.474 39.2815 159.582 39.62 159.798C39.9609 160.011 40.2308 160.327 40.4297 160.746C40.6309 161.162 40.7315 161.674 40.7315 162.28C40.7315 162.879 40.6333 163.388 40.4368 163.807C40.2403 164.226 39.9728 164.545 39.6342 164.766C39.2957 164.986 38.9122 165.096 38.4837 165.096C38.1712 165.096 37.9119 165.044 37.706 164.94C37.5 164.835 37.3343 164.71 37.2088 164.563C37.0857 164.414 36.9898 164.273 36.9212 164.141H36.8679V167.045H35.5824ZM36.843 162.273C36.843 162.625 36.8928 162.934 36.9922 163.2C37.094 163.465 37.2396 163.672 37.429 163.821C37.6207 163.968 37.8527 164.041 38.125 164.041C38.4091 164.041 38.647 163.965 38.8388 163.814C39.0305 163.66 39.175 163.451 39.272 163.185C39.3714 162.918 39.4212 162.614 39.4212 162.273C39.4212 161.934 39.3726 161.634 39.2756 161.371C39.1785 161.108 39.0341 160.902 38.8423 160.753C38.6506 160.604 38.4115 160.529 38.125 160.529C37.8504 160.529 37.6172 160.601 37.4254 160.746C37.2337 160.89 37.0881 161.093 36.9886 161.353C36.8916 161.613 36.843 161.92 36.843 162.273ZM41.8324 165V159.545H43.1179V165H41.8324ZM42.4787 158.771C42.2751 158.771 42.0999 158.704 41.9531 158.569C41.8063 158.432 41.733 158.267 41.733 158.075C41.733 157.881 41.8063 157.717 41.9531 157.582C42.0999 157.444 42.2751 157.376 42.4787 157.376C42.6847 157.376 42.8598 157.444 43.0043 157.582C43.151 157.717 43.2244 157.881 43.2244 158.075C43.2244 158.267 43.151 158.432 43.0043 158.569C42.8598 158.704 42.6847 158.771 42.4787 158.771ZM46.8546 165.107C46.3077 165.107 45.8354 164.993 45.4377 164.766C45.0423 164.536 44.7381 164.212 44.525 163.793C44.312 163.371 44.2054 162.875 44.2054 162.305C44.2054 161.744 44.312 161.251 44.525 160.827C44.7405 160.401 45.0411 160.07 45.427 159.833C45.8129 159.594 46.2663 159.474 46.7871 159.474C47.1233 159.474 47.4405 159.529 47.7388 159.638C48.0395 159.744 48.3046 159.91 48.5343 160.135C48.7663 160.36 48.9486 160.646 49.0811 160.994C49.2137 161.34 49.28 161.752 49.28 162.23V162.624H44.8091V161.758H48.0478C48.0454 161.512 47.9921 161.293 47.888 161.101C47.7838 160.907 47.6382 160.754 47.4512 160.643C47.2665 160.531 47.0511 160.476 46.8049 160.476C46.5421 160.476 46.3113 160.54 46.1124 160.668C45.9135 160.793 45.7585 160.959 45.6472 161.165C45.5383 161.368 45.4827 161.592 45.4803 161.836V162.592C45.4803 162.91 45.5383 163.182 45.6543 163.409C45.7703 163.634 45.9325 163.807 46.1408 163.928C46.3491 164.046 46.593 164.105 46.8723 164.105C47.0594 164.105 47.2286 164.079 47.3801 164.027C47.5317 163.973 47.6631 163.893 47.7743 163.789C47.8856 163.685 47.9696 163.556 48.0265 163.402L49.2267 163.537C49.151 163.854 49.0066 164.131 48.7935 164.368C48.5828 164.602 48.3129 164.785 47.9838 164.915C47.6548 165.043 47.2783 165.107 46.8546 165.107ZM55.0835 159.545L53.141 165H51.7205L49.7781 159.545H51.1488L52.4023 163.597H52.4592L53.7163 159.545H55.0835ZM55.973 165V159.545H57.2195V160.455H57.2763C57.3757 160.14 57.5462 159.897 57.7876 159.727C58.0315 159.554 58.3097 159.467 58.6222 159.467C58.6932 159.467 58.7725 159.471 58.8601 159.478C58.95 159.483 59.0246 159.491 59.0838 159.503V160.685C59.0294 160.666 58.9429 160.65 58.8246 160.636C58.7086 160.619 58.5961 160.611 58.4872 160.611C58.2528 160.611 58.0421 160.662 57.8551 160.763C57.6705 160.863 57.5249 161.001 57.4183 161.179C57.3118 161.357 57.2585 161.561 57.2585 161.793V165H55.973ZM59.9379 165V159.545H61.1665V160.472H61.2305C61.3441 160.16 61.5323 159.916 61.7951 159.741C62.0579 159.563 62.3716 159.474 62.7362 159.474C63.1055 159.474 63.4168 159.564 63.6701 159.744C63.9258 159.922 64.1057 160.165 64.2099 160.472H64.2667C64.3874 160.169 64.591 159.928 64.8775 159.748C65.1663 159.566 65.5084 159.474 65.9038 159.474C66.4057 159.474 66.8152 159.633 67.1325 159.95C67.4497 160.268 67.6083 160.73 67.6083 161.339V165H66.3192V161.538C66.3192 161.199 66.2293 160.952 66.0494 160.795C65.8694 160.637 65.6493 160.558 65.3888 160.558C65.0787 160.558 64.8361 160.655 64.6609 160.849C64.488 161.04 64.4016 161.29 64.4016 161.598V165H63.141V161.484C63.141 161.203 63.0558 160.978 62.8853 160.81C62.7172 160.642 62.497 160.558 62.2248 160.558C62.0401 160.558 61.872 160.605 61.7205 160.7C61.569 160.792 61.4483 160.923 61.3583 161.094C61.2683 161.262 61.2234 161.458 61.2234 161.683V165H59.9379ZM68.9125 165V159.545H70.1589V160.455H70.2157C70.3152 160.14 70.4856 159.897 70.7271 159.727C70.9709 159.554 71.2491 159.467 71.5616 159.467C71.6326 159.467 71.7119 159.471 71.7995 159.478C71.8895 159.483 71.9641 159.491 72.0233 159.503V160.685C71.9688 160.666 71.8824 160.65 71.764 160.636C71.648 160.619 71.5356 160.611 71.4267 160.611C71.1923 160.611 70.9816 160.662 70.7946 160.763C70.6099 160.863 70.4643 161.001 70.3578 161.179C70.2512 161.357 70.198 161.561 70.198 161.793V165H68.9125ZM74.0492 163.288L74.0456 161.737H74.2516L76.2118 159.545H77.714L75.3027 162.23H75.0364L74.0492 163.288ZM72.8773 165V157.727H74.1628V165H72.8773ZM76.3006 165L74.525 162.518L75.3915 161.612L77.8382 165H76.3006ZM82.1023 159.545L83.2031 161.559L84.3217 159.545H85.6818L84.0376 162.273L85.7102 165H84.3572L83.2031 163.036L82.0597 165H80.696L82.358 162.273L80.7386 159.545H82.1023ZM90.9872 160.987L89.8153 161.115C89.7822 160.997 89.7242 160.885 89.6413 160.781C89.5608 160.677 89.4519 160.593 89.3146 160.529C89.1773 160.465 89.0092 160.433 88.8104 160.433C88.5429 160.433 88.3179 160.491 88.1357 160.607C87.9557 160.723 87.867 160.874 87.8693 161.058C87.867 161.217 87.925 161.346 88.0433 161.445C88.1641 161.545 88.3629 161.626 88.6399 161.69L89.5703 161.889C90.0864 162 90.4699 162.177 90.7209 162.418C90.9742 162.66 91.102 162.976 91.1044 163.366C91.102 163.71 91.0014 164.013 90.8026 164.276C90.6061 164.536 90.3326 164.74 89.9822 164.886C89.6319 165.033 89.2294 165.107 88.7749 165.107C88.1072 165.107 87.5698 164.967 87.1626 164.688C86.7554 164.406 86.5128 164.014 86.4347 163.512L87.6882 163.391C87.745 163.638 87.8658 163.823 88.0504 163.949C88.2351 164.074 88.4754 164.137 88.7713 164.137C89.0767 164.137 89.3217 164.074 89.5064 163.949C89.6934 163.823 89.7869 163.668 89.7869 163.484C89.7869 163.327 89.7266 163.198 89.6058 163.097C89.4875 162.995 89.3028 162.917 89.0518 162.862L88.1214 162.667C87.5982 162.558 87.2112 162.375 86.9602 162.116C86.7093 161.856 86.585 161.527 86.5874 161.129C86.585 160.793 86.6761 160.502 86.8608 160.256C87.0478 160.007 87.3071 159.815 87.6385 159.68C87.9723 159.543 88.357 159.474 88.7926 159.474C89.4318 159.474 89.9349 159.611 90.3018 159.883C90.6712 160.155 90.8996 160.523 90.9872 160.987ZM97.017 167.159C96.5554 167.159 96.1589 167.096 95.8274 166.971C95.496 166.848 95.2296 166.682 95.0284 166.474C94.8272 166.265 94.6875 166.035 94.6094 165.781L95.767 165.501C95.8191 165.607 95.8949 165.713 95.9943 165.817C96.0938 165.923 96.2275 166.011 96.3956 166.08C96.5661 166.151 96.7803 166.186 97.0384 166.186C97.4029 166.186 97.7048 166.097 97.9439 165.92C98.183 165.745 98.3026 165.456 98.3026 165.053V164.02H98.2386C98.1723 164.152 98.0753 164.289 97.9474 164.428C97.822 164.568 97.6551 164.685 97.4467 164.78C97.2408 164.875 96.9815 164.922 96.669 164.922C96.25 164.922 95.87 164.824 95.5291 164.627C95.1906 164.428 94.9207 164.132 94.7195 163.739C94.5206 163.344 94.4212 162.849 94.4212 162.255C94.4212 161.656 94.5206 161.151 94.7195 160.739C94.9207 160.324 95.1918 160.011 95.5327 159.798C95.8736 159.582 96.2536 159.474 96.6726 159.474C96.9922 159.474 97.255 159.529 97.4609 159.638C97.6693 159.744 97.835 159.873 97.9581 160.025C98.0812 160.174 98.1747 160.315 98.2386 160.447H98.3097V159.545H99.5774V165.089C99.5774 165.555 99.4661 165.941 99.2436 166.246C99.0211 166.552 98.7169 166.78 98.331 166.932C97.9451 167.083 97.5071 167.159 97.017 167.159ZM97.0277 163.913C97.3 163.913 97.532 163.847 97.7237 163.714C97.9155 163.582 98.0611 163.391 98.1605 163.143C98.2599 162.894 98.3097 162.596 98.3097 162.248C98.3097 161.905 98.2599 161.604 98.1605 161.346C98.0634 161.088 97.919 160.888 97.7273 160.746C97.5379 160.601 97.3047 160.529 97.0277 160.529C96.7412 160.529 96.5021 160.604 96.3104 160.753C96.1186 160.902 95.9742 161.107 95.8771 161.367C95.7801 161.625 95.7315 161.919 95.7315 162.248C95.7315 162.582 95.7801 162.874 95.8771 163.125C95.9766 163.374 96.1222 163.568 96.3139 163.707C96.508 163.845 96.746 163.913 97.0277 163.913ZM105.206 160.987L104.034 161.115C104.001 160.997 103.943 160.885 103.86 160.781C103.78 160.677 103.671 160.593 103.533 160.529C103.396 160.465 103.228 160.433 103.029 160.433C102.762 160.433 102.537 160.491 102.354 160.607C102.174 160.723 102.086 160.874 102.088 161.058C102.086 161.217 102.144 161.346 102.262 161.445C102.383 161.545 102.582 161.626 102.859 161.69L103.789 161.889C104.305 162 104.689 162.177 104.94 162.418C105.193 162.66 105.321 162.976 105.323 163.366C105.321 163.71 105.22 164.013 105.021 164.276C104.825 164.536 104.551 164.74 104.201 164.886C103.851 165.033 103.448 165.107 102.994 165.107C102.326 165.107 101.789 164.967 101.381 164.688C100.974 164.406 100.732 164.014 100.653 163.512L101.907 163.391C101.964 163.638 102.085 163.823 102.269 163.949C102.454 164.074 102.694 164.137 102.99 164.137C103.295 164.137 103.54 164.074 103.725 163.949C103.912 163.823 104.006 163.668 104.006 163.484C104.006 163.327 103.945 163.198 103.825 163.097C103.706 162.995 103.522 162.917 103.271 162.862L102.34 162.667C101.817 162.558 101.43 162.375 101.179 162.116C100.928 161.856 100.804 161.527 100.806 161.129C100.804 160.793 100.895 160.502 101.08 160.256C101.267 160.007 101.526 159.815 101.857 159.68C102.191 159.543 102.576 159.474 103.011 159.474C103.651 159.474 104.154 159.611 104.521 159.883C104.89 160.155 105.118 160.523 105.206 160.987ZM107.669 161.804V165H106.383V157.727H107.64V160.472H107.704C107.832 160.165 108.03 159.922 108.297 159.744C108.567 159.564 108.91 159.474 109.327 159.474C109.706 159.474 110.036 159.554 110.318 159.712C110.6 159.871 110.817 160.103 110.971 160.408C111.127 160.714 111.206 161.087 111.206 161.527V165H109.92V161.726C109.92 161.359 109.825 161.074 109.636 160.87C109.449 160.664 109.186 160.561 108.848 160.561C108.62 160.561 108.417 160.611 108.237 160.71C108.059 160.807 107.92 160.948 107.818 161.133C107.718 161.317 107.669 161.541 107.669 161.804ZM112.516 165V159.545H113.801V165H112.516ZM113.162 158.771C112.959 158.771 112.783 158.704 112.637 158.569C112.49 158.432 112.417 158.267 112.417 158.075C112.417 157.881 112.49 157.717 112.637 157.582C112.783 157.444 112.959 157.376 113.162 157.376C113.368 157.376 113.543 157.444 113.688 157.582C113.835 157.717 113.908 157.881 113.908 158.075C113.908 158.267 113.835 158.432 113.688 158.569C113.543 158.704 113.368 158.771 113.162 158.771Z" fill="#EBEEF4"/>
</svg>
