<svg width="300" height="180" viewBox="0 0 300 180" fill="none" xmlns="http://www.w3.org/2000/svg">
<g clip-path="url(#clip0_1368_832)">
<rect width="300" height="180" fill="#FFF5EE"/>
<path d="M107.623 26.584C108.359 26.584 108.791 26.7867 108.919 27.192C108.983 27.3947 109.015 27.6613 109.015 27.992C109.015 28.3227 108.977 28.5893 108.903 28.792C108.839 28.984 108.732 29.1227 108.583 29.208C108.359 29.336 108.033 29.4 107.607 29.4L106.583 29.336V33.624C106.583 34.0293 106.529 34.3333 106.423 34.536C106.327 34.728 106.172 34.856 105.959 34.92C105.756 34.984 105.489 35.016 105.159 35.016C104.828 35.016 104.561 34.984 104.359 34.92C104.167 34.8453 104.028 34.7333 103.943 34.584C103.857 34.424 103.804 34.28 103.783 34.152C103.772 34.024 103.767 33.8373 103.767 33.592V29.352H103.191C102.913 29.3307 102.716 29.2667 102.599 29.16C102.396 28.9573 102.295 28.568 102.295 27.992C102.295 27.1173 102.609 26.68 103.239 26.68H103.767V25.832C103.767 25.0107 104.06 24.2693 104.647 23.608C105.233 22.936 106.081 22.6 107.191 22.6C107.436 22.6 107.617 22.6107 107.735 22.632C107.863 22.6427 108.007 22.6907 108.167 22.776C108.455 22.9147 108.599 23.3253 108.599 24.008C108.599 24.52 108.508 24.888 108.327 25.112C108.177 25.2827 107.943 25.3787 107.623 25.4C107.527 25.4 107.377 25.4 107.175 25.4C106.78 25.4 106.583 25.5333 106.583 25.8V26.68L107.623 26.584ZM115.626 26.664C115.828 26.728 115.994 26.84 116.122 27C116.26 27.1493 116.33 27.3947 116.33 27.736C116.33 28.0773 116.228 28.4507 116.026 28.856C115.823 29.2613 115.53 29.464 115.146 29.464C114.954 29.464 114.767 29.4213 114.586 29.336C114.415 29.2507 114.186 29.208 113.898 29.208C113.61 29.208 113.338 29.3093 113.082 29.512C112.836 29.7147 112.714 29.96 112.714 30.248V33.608C112.714 33.8533 112.703 34.04 112.682 34.168C112.671 34.2853 112.623 34.424 112.538 34.584C112.378 34.8613 111.962 35 111.29 35C110.778 35 110.41 34.9093 110.186 34.728C110.015 34.5787 109.919 34.3493 109.898 34.04C109.898 33.9333 109.898 33.7787 109.898 33.576V27.96C109.898 27.7147 109.903 27.5333 109.914 27.416C109.935 27.288 109.983 27.1493 110.058 27C110.207 26.712 110.623 26.568 111.306 26.568C111.946 26.568 112.346 26.6907 112.506 26.936C112.623 27.1067 112.682 27.2827 112.682 27.464C112.735 27.3893 112.81 27.2987 112.906 27.192C113.012 27.0853 113.231 26.9413 113.562 26.76C113.892 26.5787 114.18 26.488 114.426 26.488C114.682 26.488 114.895 26.504 115.066 26.536C115.236 26.5573 115.423 26.6 115.626 26.664ZM117.21 27.976C117.21 27.7307 117.216 27.5493 117.226 27.432C117.248 27.304 117.296 27.16 117.37 27C117.52 26.7227 117.936 26.584 118.618 26.584C119.13 26.584 119.493 26.6747 119.706 26.856C119.888 27.0053 119.984 27.2347 119.994 27.544C120.005 27.6507 120.01 27.8053 120.01 28.008V33.608C120.01 33.8533 120 34.04 119.978 34.168C119.968 34.2853 119.92 34.424 119.834 34.584C119.696 34.8613 119.285 35 118.602 35C117.93 35 117.52 34.856 117.37 34.568C117.296 34.408 117.248 34.2693 117.226 34.152C117.216 34.0347 117.21 33.848 117.21 33.592V27.976ZM119.834 25.016C119.76 25.1653 119.621 25.272 119.418 25.336C119.216 25.4 118.944 25.432 118.602 25.432C118.272 25.432 118.005 25.4 117.802 25.336C117.6 25.272 117.456 25.16 117.37 25C117.296 24.84 117.248 24.7013 117.226 24.584C117.216 24.456 117.21 24.2693 117.21 24.024C117.21 23.7787 117.216 23.5973 117.226 23.48C117.248 23.352 117.296 23.2133 117.37 23.064C117.52 22.776 117.936 22.632 118.618 22.632C119.29 22.632 119.696 22.776 119.834 23.064C119.92 23.224 119.968 23.368 119.978 23.496C120 23.6133 120.01 23.7947 120.01 24.04C120.01 24.2853 120 24.472 119.978 24.6C119.968 24.7173 119.92 24.856 119.834 25.016ZM129.416 29.784C129.416 30.4347 129.251 30.92 128.92 31.24C128.6 31.5493 128.243 31.704 127.848 31.704H124.056C124.056 32.0027 124.232 32.2533 124.584 32.456C124.936 32.6587 125.288 32.76 125.64 32.76C126.259 32.76 126.744 32.696 127.096 32.568L127.272 32.504C127.528 32.3867 127.742 32.328 127.912 32.328C128.254 32.328 128.547 32.568 128.792 33.048C128.931 33.336 129 33.5813 129 33.784C129 34.7333 127.864 35.208 125.592 35.208C124.803 35.208 124.099 35.0747 123.48 34.808C122.872 34.5307 122.398 34.168 122.056 33.72C121.384 32.856 121.048 31.8907 121.048 30.824C121.048 29.48 121.48 28.408 122.344 27.608C123.219 26.7973 124.307 26.392 125.608 26.392C127.091 26.392 128.179 26.9147 128.872 27.96C129.235 28.5147 129.416 29.1227 129.416 29.784ZM126.04 30.248C126.446 30.248 126.648 30.0773 126.648 29.736C126.648 29.4907 126.552 29.2933 126.36 29.144C126.179 28.9947 125.912 28.92 125.56 28.92C125.219 28.92 124.878 29.064 124.536 29.352C124.195 29.6293 124.024 29.928 124.024 30.248H126.04ZM135.148 26.568C136.215 26.568 137.1 26.9787 137.804 27.8C138.519 28.6107 138.876 29.6027 138.876 30.776V33.592C138.876 33.8373 138.866 34.024 138.844 34.152C138.834 34.2693 138.791 34.4027 138.716 34.552C138.567 34.84 138.151 34.984 137.468 34.984C136.711 34.984 136.274 34.7867 136.156 34.392C136.092 34.2107 136.06 33.9387 136.06 33.576V30.76C136.06 30.3227 135.932 29.9813 135.676 29.736C135.431 29.4907 135.095 29.368 134.668 29.368C134.252 29.368 133.911 29.496 133.644 29.752C133.388 30.008 133.26 30.344 133.26 30.76V33.592C133.26 33.8373 133.25 34.024 133.228 34.152C133.218 34.2693 133.17 34.4027 133.084 34.552C132.946 34.84 132.535 34.984 131.852 34.984C131.18 34.984 130.77 34.84 130.62 34.552C130.546 34.392 130.498 34.2533 130.476 34.136C130.466 34.008 130.46 33.8213 130.46 33.576V27.912C130.46 27.6773 130.466 27.5013 130.476 27.384C130.498 27.256 130.551 27.1173 130.636 26.968C130.786 26.7013 131.196 26.568 131.868 26.568C132.519 26.568 132.919 26.6907 133.068 26.936C133.175 27.1173 133.228 27.336 133.228 27.592C133.271 27.5173 133.367 27.4107 133.516 27.272C133.666 27.1333 133.81 27.0213 133.948 26.936C134.311 26.6907 134.711 26.568 135.148 26.568ZM145.811 23.064C145.897 22.904 146.041 22.792 146.243 22.728C146.446 22.664 146.713 22.632 147.043 22.632C147.385 22.632 147.657 22.664 147.859 22.728C148.062 22.792 148.201 22.904 148.275 23.064C148.361 23.224 148.409 23.368 148.419 23.496C148.441 23.6133 148.451 23.7947 148.451 24.04V33.592C148.451 33.8373 148.441 34.024 148.419 34.152C148.409 34.2693 148.361 34.4027 148.275 34.552C148.115 34.84 147.662 34.984 146.915 34.984C146.179 34.984 145.769 34.7227 145.683 34.2C145.235 34.712 144.611 34.968 143.811 34.968C142.851 34.968 141.977 34.552 141.187 33.72C140.398 32.8773 140.003 31.9013 140.003 30.792C140.003 29.672 140.398 28.6907 141.187 27.848C141.987 27.0053 142.862 26.584 143.811 26.584C144.601 26.584 145.214 26.8507 145.651 27.384V24.024C145.651 23.7787 145.657 23.5973 145.667 23.48C145.689 23.352 145.737 23.2133 145.811 23.064ZM143.219 31.752C143.497 32.04 143.833 32.184 144.227 32.184C144.622 32.184 144.947 32.04 145.203 31.752C145.47 31.464 145.603 31.1493 145.603 30.808C145.603 30.456 145.475 30.1307 145.219 29.832C144.974 29.5333 144.638 29.384 144.211 29.384C143.785 29.384 143.443 29.5333 143.187 29.832C142.931 30.12 142.803 30.44 142.803 30.792C142.803 31.144 142.942 31.464 143.219 31.752ZM149.79 34.248C149.587 34.12 149.486 33.9173 149.486 33.64C149.486 33.3627 149.689 32.9413 150.094 32.376C150.211 32.1947 150.398 32.104 150.654 32.104C150.921 32.104 151.278 32.2373 151.726 32.504C152.174 32.76 152.579 32.888 152.942 32.888C153.593 32.888 153.918 32.76 153.918 32.504C153.918 32.3013 153.561 32.152 152.846 32.056C152.174 31.96 151.507 31.7093 150.846 31.304C150.537 31.112 150.281 30.8133 150.078 30.408C149.875 29.992 149.774 29.5013 149.774 28.936C149.774 27.2507 150.931 26.408 153.246 26.408C154.003 26.408 154.782 26.5893 155.582 26.952C155.955 27.1227 156.142 27.336 156.142 27.592C156.142 27.848 156.025 28.1627 155.79 28.536C155.555 28.9093 155.315 29.096 155.07 29.096C154.942 29.096 154.702 29.016 154.35 28.856C154.009 28.696 153.635 28.616 153.23 28.616C152.601 28.616 152.286 28.7333 152.286 28.968C152.286 29.288 152.649 29.496 153.374 29.592C154.078 29.6667 154.761 29.8693 155.422 30.2C155.731 30.3493 155.987 30.6107 156.19 30.984C156.403 31.3467 156.51 31.8053 156.51 32.36C156.51 32.9147 156.403 33.3893 156.19 33.784C155.987 34.168 155.699 34.456 155.326 34.648C154.643 34.9787 153.785 35.144 152.75 35.144C151.726 35.144 150.739 34.8453 149.79 34.248ZM162.178 26.584C163.127 26.584 163.997 27.0053 164.786 27.848C165.586 28.6907 165.986 29.672 165.986 30.792C165.986 31.9013 165.591 32.8773 164.802 33.72C164.013 34.552 163.165 34.968 162.258 34.968C161.351 34.968 160.706 34.712 160.322 34.2C160.237 34.7227 159.778 34.984 158.946 34.984C158.274 34.984 157.863 34.84 157.714 34.552C157.639 34.392 157.591 34.2533 157.57 34.136C157.559 34.008 157.554 33.8213 157.554 33.576V24.024C157.554 23.7787 157.559 23.5973 157.57 23.48C157.591 23.352 157.639 23.2133 157.714 23.064C157.863 22.776 158.279 22.632 158.962 22.632C159.634 22.632 160.039 22.776 160.178 23.064C160.263 23.224 160.311 23.368 160.322 23.496C160.343 23.6133 160.354 23.7947 160.354 24.04V27.368C160.781 26.8453 161.389 26.584 162.178 26.584ZM160.77 31.752C161.037 32.04 161.367 32.184 161.762 32.184C162.157 32.184 162.493 32.04 162.77 31.752C163.047 31.464 163.186 31.144 163.186 30.792C163.186 30.44 163.058 30.12 162.802 29.832C162.546 29.5333 162.205 29.384 161.778 29.384C161.351 29.384 161.01 29.5333 160.754 29.832C160.509 30.1307 160.386 30.456 160.386 30.808C160.386 31.1493 160.514 31.464 160.77 31.752ZM166.783 30.792C166.783 29.512 167.231 28.456 168.127 27.624C169.023 26.792 170.047 26.376 171.199 26.376C172.351 26.376 173.369 26.792 174.255 27.624C175.14 28.4453 175.583 29.496 175.583 30.776C175.583 31.6613 175.353 32.4507 174.895 33.144C174.436 33.8267 173.876 34.3333 173.215 34.664C172.564 34.984 171.887 35.144 171.183 35.144C170.479 35.144 169.796 34.9733 169.135 34.632C168.473 34.28 167.913 33.768 167.455 33.096C167.007 32.4133 166.783 31.6453 166.783 30.792ZM170.127 31.944C170.468 32.2 170.815 32.328 171.167 32.328C171.519 32.328 171.871 32.1947 172.223 31.928C172.575 31.6613 172.751 31.2667 172.751 30.744C172.751 30.2213 172.585 29.832 172.255 29.576C171.924 29.32 171.567 29.192 171.183 29.192C170.799 29.192 170.441 29.3253 170.111 29.592C169.78 29.8587 169.615 30.2533 169.615 30.776C169.615 31.288 169.785 31.6773 170.127 31.944ZM176.377 30.792C176.377 29.512 176.825 28.456 177.721 27.624C178.617 26.792 179.641 26.376 180.793 26.376C181.945 26.376 182.963 26.792 183.849 27.624C184.734 28.4453 185.177 29.496 185.177 30.776C185.177 31.6613 184.947 32.4507 184.489 33.144C184.03 33.8267 183.47 34.3333 182.809 34.664C182.158 34.984 181.481 35.144 180.777 35.144C180.073 35.144 179.39 34.9733 178.729 34.632C178.067 34.28 177.507 33.768 177.049 33.096C176.601 32.4133 176.377 31.6453 176.377 30.792ZM179.721 31.944C180.062 32.2 180.409 32.328 180.761 32.328C181.113 32.328 181.465 32.1947 181.817 31.928C182.169 31.6613 182.345 31.2667 182.345 30.744C182.345 30.2213 182.179 29.832 181.849 29.576C181.518 29.32 181.161 29.192 180.777 29.192C180.393 29.192 180.035 29.3253 179.705 29.592C179.374 29.8587 179.209 30.2533 179.209 30.776C179.209 31.288 179.379 31.6773 179.721 31.944ZM191.17 30.776L193.298 32.536C193.565 32.76 193.73 32.9307 193.794 33.048C193.869 33.1653 193.906 33.2773 193.906 33.384C193.906 33.64 193.741 33.9867 193.41 34.424C193.048 34.872 192.728 35.096 192.45 35.096C192.216 35.096 191.89 34.9413 191.474 34.632L191.314 34.52C191.069 34.3173 190.69 33.9653 190.178 33.464C189.666 32.952 189.277 32.5893 189.01 32.376V33.608C189.01 33.8533 189 34.04 188.978 34.168C188.968 34.2853 188.92 34.424 188.834 34.584C188.696 34.8613 188.285 35 187.602 35C186.93 35 186.52 34.856 186.37 34.568C186.296 34.408 186.248 34.2693 186.226 34.152C186.216 34.024 186.21 33.8373 186.21 33.592V24.008C186.21 23.7627 186.216 23.5813 186.226 23.464C186.248 23.336 186.296 23.192 186.37 23.032C186.52 22.744 186.936 22.6 187.618 22.6C188.13 22.6 188.493 22.6907 188.706 22.872C188.888 23.0213 188.984 23.256 188.994 23.576C189.005 23.672 189.01 23.8213 189.01 24.024V29.096C189.202 28.936 189.49 28.664 189.874 28.28C190.269 27.896 190.562 27.624 190.754 27.464L190.946 27.336C191.32 27.048 191.64 26.904 191.906 26.904C192.173 26.904 192.477 27.1227 192.818 27.56C193.17 27.9867 193.346 28.3227 193.346 28.568C193.346 28.8133 193.149 29.1013 192.754 29.432L191.17 30.776ZM197.268 32.36C197.45 32.5413 197.54 32.9147 197.54 33.48V33.544C197.54 33.8 197.53 33.992 197.508 34.12C197.498 34.2373 197.444 34.3813 197.348 34.552C197.188 34.8613 196.783 35.016 196.132 35.016C195.492 35.016 195.066 34.9147 194.852 34.712C194.65 34.5093 194.548 34.1253 194.548 33.56V33.496C194.548 33.2507 194.554 33.064 194.564 32.936C194.586 32.808 194.639 32.664 194.724 32.504C194.884 32.184 195.284 32.024 195.924 32.024C196.575 32.024 197.023 32.136 197.268 32.36Z" fill="black"/>
<rect x="20.75" y="81.75" width="258.5" height="102.5" fill="white" stroke="black" stroke-width="1.5"/>
<path d="M139.155 107.268C139.224 107.268 139.275 107.277 139.307 107.296C139.341 107.312 139.38 107.347 139.423 107.4L142.743 111.72C142.735 111.651 142.729 111.584 142.727 111.52C142.724 111.453 142.723 111.389 142.723 111.328V107.268H143.403V113H143.011C142.949 113 142.897 112.989 142.855 112.968C142.815 112.947 142.775 112.911 142.735 112.86L139.419 108.544C139.424 108.611 139.428 108.676 139.431 108.74C139.433 108.804 139.435 108.863 139.435 108.916V113H138.755V107.268H139.155ZM147.665 113H147.349C147.28 113 147.224 112.989 147.181 112.968C147.139 112.947 147.111 112.901 147.097 112.832L147.017 112.456C146.911 112.552 146.807 112.639 146.705 112.716C146.604 112.791 146.497 112.855 146.385 112.908C146.273 112.959 146.153 112.997 146.025 113.024C145.9 113.051 145.76 113.064 145.605 113.064C145.448 113.064 145.3 113.043 145.161 113C145.025 112.955 144.907 112.888 144.805 112.8C144.704 112.712 144.623 112.601 144.561 112.468C144.503 112.332 144.473 112.172 144.473 111.988C144.473 111.828 144.517 111.675 144.605 111.528C144.693 111.379 144.835 111.247 145.029 111.132C145.227 111.017 145.484 110.924 145.801 110.852C146.119 110.777 146.507 110.735 146.965 110.724V110.408C146.965 110.093 146.897 109.856 146.761 109.696C146.628 109.533 146.429 109.452 146.165 109.452C145.992 109.452 145.845 109.475 145.725 109.52C145.608 109.563 145.505 109.612 145.417 109.668C145.332 109.721 145.257 109.771 145.193 109.816C145.132 109.859 145.071 109.88 145.009 109.88C144.961 109.88 144.919 109.868 144.881 109.844C144.847 109.817 144.819 109.785 144.797 109.748L144.669 109.52C144.893 109.304 145.135 109.143 145.393 109.036C145.652 108.929 145.939 108.876 146.253 108.876C146.48 108.876 146.681 108.913 146.857 108.988C147.033 109.063 147.181 109.167 147.301 109.3C147.421 109.433 147.512 109.595 147.573 109.784C147.635 109.973 147.665 110.181 147.665 110.408V113ZM145.817 112.564C145.943 112.564 146.057 112.552 146.161 112.528C146.265 112.501 146.363 112.465 146.453 112.42C146.547 112.372 146.635 112.315 146.717 112.248C146.803 112.181 146.885 112.105 146.965 112.02V111.176C146.637 111.187 146.359 111.213 146.129 111.256C145.9 111.296 145.713 111.349 145.569 111.416C145.425 111.483 145.32 111.561 145.253 111.652C145.189 111.743 145.157 111.844 145.157 111.956C145.157 112.063 145.175 112.155 145.209 112.232C145.244 112.309 145.291 112.373 145.349 112.424C145.408 112.472 145.477 112.508 145.557 112.532C145.637 112.553 145.724 112.564 145.817 112.564ZM148.744 113V108.948H149.168C149.269 108.948 149.333 108.997 149.36 109.096L149.412 109.512C149.561 109.328 149.728 109.177 149.912 109.06C150.099 108.943 150.315 108.884 150.56 108.884C150.835 108.884 151.056 108.96 151.224 109.112C151.395 109.264 151.517 109.469 151.592 109.728C151.648 109.581 151.721 109.455 151.812 109.348C151.905 109.241 152.009 109.153 152.124 109.084C152.239 109.015 152.36 108.964 152.488 108.932C152.619 108.9 152.751 108.884 152.884 108.884C153.097 108.884 153.287 108.919 153.452 108.988C153.62 109.055 153.761 109.153 153.876 109.284C153.993 109.415 154.083 109.576 154.144 109.768C154.205 109.957 154.236 110.175 154.236 110.42V113H153.524V110.42C153.524 110.103 153.455 109.863 153.316 109.7C153.177 109.535 152.976 109.452 152.712 109.452C152.595 109.452 152.483 109.473 152.376 109.516C152.272 109.556 152.18 109.616 152.1 109.696C152.02 109.776 151.956 109.877 151.908 110C151.863 110.12 151.84 110.26 151.84 110.42V113H151.128V110.42C151.128 110.095 151.063 109.852 150.932 109.692C150.801 109.532 150.611 109.452 150.36 109.452C150.184 109.452 150.02 109.5 149.868 109.596C149.719 109.689 149.581 109.817 149.456 109.98V113H148.744ZM156.918 108.884C157.161 108.884 157.385 108.925 157.59 109.008C157.796 109.088 157.973 109.205 158.122 109.36C158.272 109.512 158.388 109.701 158.47 109.928C158.556 110.152 158.598 110.408 158.598 110.696C158.598 110.808 158.586 110.883 158.562 110.92C158.538 110.957 158.493 110.976 158.426 110.976H155.73C155.736 111.232 155.77 111.455 155.834 111.644C155.898 111.833 155.986 111.992 156.098 112.12C156.21 112.245 156.344 112.34 156.498 112.404C156.653 112.465 156.826 112.496 157.018 112.496C157.197 112.496 157.35 112.476 157.478 112.436C157.609 112.393 157.721 112.348 157.814 112.3C157.908 112.252 157.985 112.208 158.046 112.168C158.11 112.125 158.165 112.104 158.21 112.104C158.269 112.104 158.314 112.127 158.346 112.172L158.546 112.432C158.458 112.539 158.353 112.632 158.23 112.712C158.108 112.789 157.976 112.853 157.834 112.904C157.696 112.955 157.552 112.992 157.402 113.016C157.253 113.043 157.105 113.056 156.958 113.056C156.678 113.056 156.42 113.009 156.182 112.916C155.948 112.82 155.744 112.681 155.57 112.5C155.4 112.316 155.266 112.089 155.17 111.82C155.074 111.551 155.026 111.241 155.026 110.892C155.026 110.609 155.069 110.345 155.154 110.1C155.242 109.855 155.368 109.643 155.53 109.464C155.693 109.283 155.892 109.141 156.126 109.04C156.361 108.936 156.625 108.884 156.918 108.884ZM156.934 109.408C156.59 109.408 156.32 109.508 156.122 109.708C155.925 109.905 155.802 110.18 155.754 110.532H157.958C157.958 110.367 157.936 110.216 157.89 110.08C157.845 109.941 157.778 109.823 157.69 109.724C157.602 109.623 157.494 109.545 157.366 109.492C157.241 109.436 157.097 109.408 156.934 109.408ZM159.438 112.56C159.438 112.491 159.45 112.425 159.474 112.364C159.5 112.303 159.535 112.249 159.578 112.204C159.623 112.159 159.676 112.123 159.738 112.096C159.799 112.069 159.864 112.056 159.934 112.056C160.003 112.056 160.068 112.069 160.13 112.096C160.191 112.123 160.244 112.159 160.29 112.204C160.335 112.249 160.37 112.303 160.394 112.364C160.42 112.425 160.434 112.491 160.434 112.56C160.434 112.632 160.42 112.699 160.394 112.76C160.37 112.819 160.335 112.871 160.29 112.916C160.244 112.961 160.191 112.996 160.13 113.02C160.068 113.047 160.003 113.06 159.934 113.06C159.864 113.06 159.799 113.047 159.738 113.02C159.676 112.996 159.623 112.961 159.578 112.916C159.535 112.871 159.5 112.819 159.474 112.76C159.45 112.699 159.438 112.632 159.438 112.56ZM159.438 109.56C159.438 109.491 159.45 109.425 159.474 109.364C159.5 109.303 159.535 109.249 159.578 109.204C159.623 109.159 159.676 109.123 159.738 109.096C159.799 109.069 159.864 109.056 159.934 109.056C160.003 109.056 160.068 109.069 160.13 109.096C160.191 109.123 160.244 109.159 160.29 109.204C160.335 109.249 160.37 109.303 160.394 109.364C160.42 109.425 160.434 109.491 160.434 109.56C160.434 109.632 160.42 109.699 160.394 109.76C160.37 109.819 160.335 109.871 160.29 109.916C160.244 109.961 160.191 109.997 160.13 110.024C160.068 110.048 160.003 110.06 159.934 110.06C159.864 110.06 159.799 110.048 159.738 110.024C159.676 109.997 159.623 109.961 159.578 109.916C159.535 109.871 159.5 109.819 159.474 109.76C159.45 109.699 159.438 109.632 159.438 109.56Z" fill="black"/>
<path d="M100.783 59.307C101.05 59.307 101.288 59.262 101.498 59.172C101.708 59.082 101.885 58.956 102.029 58.794C102.176 58.632 102.287 58.4385 102.362 58.2135C102.44 57.9885 102.479 57.741 102.479 57.471V53.5515H103.348V57.471C103.348 57.843 103.288 58.188 103.168 58.506C103.051 58.824 102.881 59.1 102.659 59.334C102.44 59.565 102.172 59.7465 101.854 59.8785C101.536 60.0105 101.179 60.0765 100.783 60.0765C100.387 60.0765 100.03 60.0105 99.7117 59.8785C99.3937 59.7465 99.1237 59.565 98.9017 59.334C98.6797 59.1 98.5087 58.824 98.3887 58.506C98.2717 58.188 98.2132 57.843 98.2132 57.471V53.5515H99.0817V57.4665C99.0817 57.7365 99.1192 57.984 99.1942 58.209C99.2722 58.434 99.3832 58.6275 99.5272 58.7895C99.6742 58.9515 99.8527 59.079 100.063 59.172C100.276 59.262 100.516 59.307 100.783 59.307ZM104.724 61.5435V55.4415H105.201C105.315 55.4415 105.387 55.497 105.417 55.608L105.485 56.148C105.68 55.911 105.902 55.7205 106.151 55.5765C106.403 55.4325 106.692 55.3605 107.019 55.3605C107.28 55.3605 107.517 55.4115 107.73 55.5135C107.943 55.6125 108.125 55.761 108.275 55.959C108.425 56.154 108.54 56.397 108.621 56.688C108.702 56.979 108.743 57.3135 108.743 57.6915C108.743 58.0275 108.698 58.341 108.608 58.632C108.518 58.92 108.389 59.1705 108.221 59.3835C108.053 59.5935 107.846 59.76 107.6 59.883C107.357 60.003 107.082 60.063 106.776 60.063C106.494 60.063 106.253 60.0165 106.052 59.9235C105.854 59.8305 105.678 59.6985 105.525 59.5275V61.5435H104.724ZM106.754 56.0085C106.493 56.0085 106.263 56.0685 106.065 56.1885C105.87 56.3085 105.69 56.478 105.525 56.697V58.902C105.672 59.1 105.833 59.2395 106.007 59.3205C106.184 59.4015 106.38 59.442 106.596 59.442C107.019 59.442 107.345 59.2905 107.573 58.9875C107.801 58.6845 107.915 58.2525 107.915 57.6915C107.915 57.3945 107.888 57.1395 107.834 56.9265C107.783 56.7135 107.708 56.5395 107.609 56.4045C107.51 56.2665 107.388 56.166 107.244 56.103C107.1 56.04 106.937 56.0085 106.754 56.0085ZM112.899 60C112.785 60 112.713 59.9445 112.683 59.8335L112.611 59.28C112.416 59.517 112.192 59.7075 111.94 59.8515C111.691 59.9925 111.405 60.063 111.081 60.063C110.82 60.063 110.583 60.0135 110.37 59.9145C110.157 59.8125 109.975 59.664 109.825 59.469C109.675 59.274 109.56 59.031 109.479 58.74C109.398 58.449 109.357 58.1145 109.357 57.7365C109.357 57.4005 109.402 57.0885 109.492 56.8005C109.582 56.5095 109.711 56.2575 109.879 56.0445C110.05 55.8315 110.257 55.665 110.5 55.545C110.743 55.422 111.019 55.3605 111.328 55.3605C111.607 55.3605 111.846 55.4085 112.044 55.5045C112.242 55.5975 112.419 55.7295 112.575 55.9005V53.3715H113.376V60H112.899ZM111.346 59.415C111.607 59.415 111.835 59.355 112.03 59.235C112.228 59.115 112.41 58.9455 112.575 58.7265V56.5215C112.428 56.3235 112.266 56.1855 112.089 56.1075C111.915 56.0265 111.721 55.986 111.508 55.986C111.082 55.986 110.755 56.1375 110.527 56.4405C110.299 56.7435 110.185 57.1755 110.185 57.7365C110.185 58.0335 110.211 58.2885 110.262 58.5015C110.313 58.7115 110.388 58.8855 110.487 59.0235C110.586 59.1585 110.707 59.2575 110.851 59.3205C110.995 59.3835 111.16 59.415 111.346 59.415ZM118.066 60H117.71C117.632 60 117.569 59.988 117.521 59.964C117.473 59.94 117.442 59.889 117.427 59.811L117.337 59.388C117.217 59.496 117.1 59.5935 116.986 59.6805C116.872 59.7645 116.752 59.8365 116.626 59.8965C116.5 59.9535 116.365 59.997 116.221 60.027C116.08 60.057 115.922 60.072 115.748 60.072C115.571 60.072 115.405 60.048 115.249 60C115.096 59.949 114.962 59.874 114.848 59.775C114.734 59.676 114.643 59.5515 114.574 59.4015C114.508 59.2485 114.475 59.0685 114.475 58.8615C114.475 58.6815 114.524 58.509 114.623 58.344C114.722 58.176 114.881 58.0275 115.1 57.8985C115.322 57.7695 115.612 57.6645 115.969 57.5835C116.326 57.4995 116.762 57.4515 117.278 57.4395V57.084C117.278 56.73 117.202 56.463 117.049 56.283C116.899 56.1 116.675 56.0085 116.378 56.0085C116.183 56.0085 116.018 56.034 115.883 56.085C115.751 56.133 115.636 56.1885 115.537 56.2515C115.441 56.3115 115.357 56.367 115.285 56.418C115.216 56.466 115.147 56.49 115.078 56.49C115.024 56.49 114.976 56.4765 114.934 56.4495C114.895 56.4195 114.863 56.3835 114.839 56.3415L114.695 56.085C114.947 55.842 115.219 55.6605 115.51 55.5405C115.801 55.4205 116.123 55.3605 116.477 55.3605C116.732 55.3605 116.959 55.4025 117.157 55.4865C117.355 55.5705 117.521 55.6875 117.656 55.8375C117.791 55.9875 117.893 56.169 117.962 56.382C118.031 56.595 118.066 56.829 118.066 57.084V60ZM115.987 59.5095C116.128 59.5095 116.257 59.496 116.374 59.469C116.491 59.439 116.6 59.3985 116.702 59.3475C116.807 59.2935 116.906 59.229 116.999 59.154C117.095 59.079 117.188 58.9935 117.278 58.8975V57.948C116.909 57.96 116.596 57.99 116.338 58.038C116.08 58.083 115.87 58.143 115.708 58.218C115.546 58.293 115.427 58.3815 115.352 58.4835C115.28 58.5855 115.244 58.6995 115.244 58.8255C115.244 58.9455 115.264 59.049 115.303 59.136C115.342 59.223 115.394 59.295 115.46 59.352C115.526 59.406 115.604 59.4465 115.694 59.4735C115.784 59.4975 115.882 59.5095 115.987 59.5095ZM120.661 60.072C120.301 60.072 120.023 59.9715 119.828 59.7705C119.636 59.5695 119.54 59.28 119.54 58.902V56.112H118.991C118.943 56.112 118.903 56.0985 118.87 56.0715C118.837 56.0415 118.82 55.9965 118.82 55.9365V55.617L119.567 55.5225L119.752 54.114C119.758 54.069 119.777 54.033 119.81 54.006C119.843 53.976 119.885 53.961 119.936 53.961H120.341V55.5315H121.646V56.112H120.341V58.848C120.341 59.04 120.388 59.1825 120.481 59.2755C120.574 59.3685 120.694 59.415 120.841 59.415C120.925 59.415 120.997 59.4045 121.057 59.3835C121.12 59.3595 121.174 59.334 121.219 59.307C121.264 59.28 121.301 59.256 121.331 59.235C121.364 59.211 121.393 59.199 121.417 59.199C121.459 59.199 121.496 59.2245 121.529 59.2755L121.763 59.658C121.625 59.787 121.459 59.889 121.264 59.964C121.069 60.036 120.868 60.072 120.661 60.072ZM124.441 55.3695C124.714 55.3695 124.966 55.416 125.197 55.509C125.428 55.599 125.627 55.731 125.795 55.905C125.963 56.076 126.094 56.289 126.187 56.544C126.283 56.796 126.331 57.084 126.331 57.408C126.331 57.534 126.317 57.618 126.29 57.66C126.263 57.702 126.212 57.723 126.137 57.723H123.104C123.11 58.011 123.149 58.2615 123.221 58.4745C123.293 58.6875 123.392 58.866 123.518 59.01C123.644 59.151 123.794 59.2575 123.968 59.3295C124.142 59.3985 124.337 59.433 124.553 59.433C124.754 59.433 124.927 59.4105 125.071 59.3655C125.218 59.3175 125.344 59.2665 125.449 59.2125C125.554 59.1585 125.641 59.109 125.71 59.064C125.782 59.016 125.843 58.992 125.894 58.992C125.96 58.992 126.011 59.0175 126.047 59.0685L126.272 59.361C126.173 59.481 126.055 59.586 125.917 59.676C125.779 59.763 125.63 59.835 125.471 59.892C125.315 59.949 125.153 59.991 124.985 60.018C124.817 60.048 124.651 60.063 124.486 60.063C124.171 60.063 123.88 60.0105 123.613 59.9055C123.349 59.7975 123.119 59.6415 122.924 59.4375C122.732 59.2305 122.582 58.9755 122.474 58.6725C122.366 58.3695 122.312 58.0215 122.312 57.6285C122.312 57.3105 122.36 57.0135 122.456 56.7375C122.555 56.4615 122.696 56.223 122.879 56.022C123.062 55.818 123.286 55.659 123.55 55.545C123.814 55.428 124.111 55.3695 124.441 55.3695ZM124.459 55.959C124.072 55.959 123.767 56.0715 123.545 56.2965C123.323 56.5185 123.185 56.8275 123.131 57.2235H125.611C125.611 57.0375 125.585 56.868 125.534 56.715C125.483 56.559 125.408 56.4255 125.309 56.3145C125.21 56.2005 125.089 56.1135 124.945 56.0535C124.804 55.9905 124.642 55.959 124.459 55.959ZM130.181 57.588V60H129.312V53.5515H131.216C131.624 53.5515 131.978 53.5995 132.278 53.6955C132.581 53.7885 132.831 53.922 133.029 54.096C133.227 54.27 133.374 54.48 133.47 54.726C133.569 54.972 133.619 55.2465 133.619 55.5495C133.619 55.8495 133.566 56.124 133.461 56.373C133.356 56.622 133.202 56.8365 132.998 57.0165C132.797 57.1965 132.546 57.3375 132.246 57.4395C131.946 57.5385 131.603 57.588 131.216 57.588H130.181ZM130.181 56.895H131.216C131.465 56.895 131.684 56.862 131.873 56.796C132.065 56.73 132.225 56.6385 132.354 56.5215C132.483 56.4015 132.581 56.259 132.647 56.094C132.713 55.929 132.746 55.7475 132.746 55.5495C132.746 55.1385 132.618 54.8175 132.363 54.5865C132.111 54.3555 131.729 54.24 131.216 54.24H130.181V56.895ZM134.598 60V55.4415H135.057C135.144 55.4415 135.204 55.458 135.237 55.491C135.27 55.524 135.293 55.581 135.305 55.662L135.359 56.373C135.515 56.055 135.707 55.8075 135.935 55.6305C136.166 55.4505 136.436 55.3605 136.745 55.3605C136.871 55.3605 136.985 55.3755 137.087 55.4055C137.189 55.4325 137.283 55.4715 137.37 55.5225L137.267 56.121C137.246 56.196 137.199 56.2335 137.127 56.2335C137.085 56.2335 137.021 56.22 136.934 56.193C136.847 56.163 136.725 56.148 136.569 56.148C136.29 56.148 136.056 56.229 135.867 56.391C135.681 56.553 135.525 56.7885 135.399 57.0975V60H134.598ZM140.073 55.3695C140.406 55.3695 140.706 55.425 140.973 55.536C141.243 55.647 141.471 55.8045 141.657 56.0085C141.846 56.2125 141.99 56.46 142.089 56.751C142.191 57.039 142.242 57.3615 142.242 57.7185C142.242 58.0785 142.191 58.4025 142.089 58.6905C141.99 58.9785 141.846 59.2245 141.657 59.4285C141.471 59.6325 141.243 59.79 140.973 59.901C140.706 60.009 140.406 60.063 140.073 60.063C139.74 60.063 139.439 60.009 139.169 59.901C138.902 59.79 138.674 59.6325 138.485 59.4285C138.296 59.2245 138.15 58.9785 138.048 58.6905C137.946 58.4025 137.895 58.0785 137.895 57.7185C137.895 57.3615 137.946 57.039 138.048 56.751C138.15 56.46 138.296 56.2125 138.485 56.0085C138.674 55.8045 138.902 55.647 139.169 55.536C139.439 55.425 139.74 55.3695 140.073 55.3695ZM140.073 59.4375C140.523 59.4375 140.859 59.2875 141.081 58.9875C141.303 58.6845 141.414 58.263 141.414 57.723C141.414 57.18 141.303 56.757 141.081 56.454C140.859 56.151 140.523 55.9995 140.073 55.9995C139.845 55.9995 139.647 56.0385 139.479 56.1165C139.311 56.1945 139.17 56.307 139.056 56.454C138.945 56.601 138.861 56.7825 138.804 56.9985C138.75 57.2115 138.723 57.453 138.723 57.723C138.723 57.993 138.75 58.2345 138.804 58.4475C138.861 58.6605 138.945 58.8405 139.056 58.9875C139.17 59.1315 139.311 59.2425 139.479 59.3205C139.647 59.3985 139.845 59.4375 140.073 59.4375ZM143.409 60V56.1255L142.905 56.067C142.842 56.052 142.79 56.0295 142.748 55.9995C142.709 55.9665 142.689 55.92 142.689 55.86V55.5315H143.409V55.2795C143.409 55.0005 143.453 54.7455 143.54 54.5145C143.627 54.2805 143.757 54.0795 143.931 53.9115C144.105 53.7435 144.321 53.613 144.579 53.52C144.84 53.427 145.143 53.3805 145.488 53.3805C145.602 53.3805 145.718 53.388 145.835 53.403C145.955 53.418 146.058 53.4405 146.145 53.4705L146.118 53.889C146.112 53.928 146.094 53.9535 146.064 53.9655C146.034 53.9745 145.991 53.979 145.934 53.979C145.901 53.979 145.866 53.979 145.83 53.979C145.794 53.976 145.754 53.9745 145.709 53.9745C145.178 53.9745 144.791 54.0855 144.548 54.3075C144.308 54.5265 144.188 54.858 144.188 55.302V55.5315H146.942V60H146.141V56.112H144.215V60H143.409ZM149.253 53.3715V60H148.452V53.3715H149.253ZM152.469 55.3695C152.742 55.3695 152.994 55.416 153.225 55.509C153.456 55.599 153.656 55.731 153.824 55.905C153.992 56.076 154.122 56.289 154.215 56.544C154.311 56.796 154.359 57.084 154.359 57.408C154.359 57.534 154.346 57.618 154.319 57.66C154.292 57.702 154.241 57.723 154.166 57.723H151.133C151.139 58.011 151.178 58.2615 151.25 58.4745C151.322 58.6875 151.421 58.866 151.547 59.01C151.673 59.151 151.823 59.2575 151.997 59.3295C152.171 59.3985 152.366 59.433 152.582 59.433C152.783 59.433 152.955 59.4105 153.099 59.3655C153.246 59.3175 153.372 59.2665 153.477 59.2125C153.582 59.1585 153.669 59.109 153.738 59.064C153.81 59.016 153.872 58.992 153.923 58.992C153.989 58.992 154.04 59.0175 154.076 59.0685L154.301 59.361C154.202 59.481 154.083 59.586 153.945 59.676C153.807 59.763 153.659 59.835 153.5 59.892C153.344 59.949 153.182 59.991 153.014 60.018C152.846 60.048 152.679 60.063 152.514 60.063C152.199 60.063 151.908 60.0105 151.641 59.9055C151.377 59.7975 151.148 59.6415 150.953 59.4375C150.761 59.2305 150.611 58.9755 150.503 58.6725C150.395 58.3695 150.341 58.0215 150.341 57.6285C150.341 57.3105 150.389 57.0135 150.485 56.7375C150.584 56.4615 150.725 56.223 150.908 56.022C151.091 55.818 151.314 55.659 151.578 55.545C151.842 55.428 152.139 55.3695 152.469 55.3695ZM152.487 55.959C152.1 55.959 151.796 56.0715 151.574 56.2965C151.352 56.5185 151.214 56.8275 151.16 57.2235H153.639C153.639 57.0375 153.614 56.868 153.563 56.715C153.512 56.559 153.437 56.4255 153.338 56.3145C153.239 56.2005 153.117 56.1135 152.973 56.0535C152.832 55.9905 152.67 55.959 152.487 55.959ZM158.286 60H157.413V53.5515H158.286V60ZM159.885 60V55.4415H160.362C160.476 55.4415 160.548 55.497 160.578 55.608L160.641 56.103C160.839 55.884 161.059 55.707 161.302 55.572C161.548 55.437 161.832 55.3695 162.153 55.3695C162.402 55.3695 162.621 55.4115 162.81 55.4955C163.002 55.5765 163.161 55.6935 163.287 55.8465C163.416 55.9965 163.513 56.178 163.579 56.391C163.645 56.604 163.678 56.8395 163.678 57.0975V60H162.877V57.0975C162.877 56.7525 162.798 56.4855 162.639 56.2965C162.483 56.1045 162.243 56.0085 161.919 56.0085C161.682 56.0085 161.46 56.0655 161.253 56.1795C161.049 56.2935 160.86 56.448 160.686 56.643V60H159.885ZM165.066 60V56.1255L164.562 56.067C164.499 56.052 164.446 56.0295 164.404 55.9995C164.365 55.9665 164.346 55.92 164.346 55.86V55.5315H165.066V55.0905C165.066 54.8295 165.102 54.5985 165.174 54.3975C165.249 54.1935 165.354 54.0225 165.489 53.8845C165.627 53.7435 165.792 53.637 165.984 53.565C166.176 53.493 166.392 53.457 166.632 53.457C166.836 53.457 167.025 53.487 167.199 53.547L167.181 53.9475C167.178 54.0075 167.152 54.0435 167.104 54.0555C167.056 54.0675 166.989 54.0735 166.902 54.0735H166.762C166.624 54.0735 166.498 54.0915 166.384 54.1275C166.273 54.1635 166.177 54.222 166.096 54.303C166.015 54.384 165.952 54.4905 165.907 54.6225C165.865 54.7545 165.844 54.918 165.844 55.113V55.5315H167.163V56.112H165.871V60H165.066ZM169.763 55.3695C170.096 55.3695 170.396 55.425 170.663 55.536C170.933 55.647 171.161 55.8045 171.347 56.0085C171.536 56.2125 171.68 56.46 171.779 56.751C171.881 57.039 171.932 57.3615 171.932 57.7185C171.932 58.0785 171.881 58.4025 171.779 58.6905C171.68 58.9785 171.536 59.2245 171.347 59.4285C171.161 59.6325 170.933 59.79 170.663 59.901C170.396 60.009 170.096 60.063 169.763 60.063C169.43 60.063 169.128 60.009 168.858 59.901C168.591 59.79 168.363 59.6325 168.174 59.4285C167.985 59.2245 167.84 58.9785 167.738 58.6905C167.636 58.4025 167.585 58.0785 167.585 57.7185C167.585 57.3615 167.636 57.039 167.738 56.751C167.84 56.46 167.985 56.2125 168.174 56.0085C168.363 55.8045 168.591 55.647 168.858 55.536C169.128 55.425 169.43 55.3695 169.763 55.3695ZM169.763 59.4375C170.213 59.4375 170.549 59.2875 170.771 58.9875C170.993 58.6845 171.104 58.263 171.104 57.723C171.104 57.18 170.993 56.757 170.771 56.454C170.549 56.151 170.213 55.9995 169.763 55.9995C169.535 55.9995 169.337 56.0385 169.169 56.1165C169.001 56.1945 168.86 56.307 168.746 56.454C168.635 56.601 168.551 56.7825 168.494 56.9985C168.44 57.2115 168.413 57.453 168.413 57.723C168.413 57.993 168.44 58.2345 168.494 58.4475C168.551 58.6605 168.635 58.8405 168.746 58.9875C168.86 59.1315 169.001 59.2425 169.169 59.3205C169.337 59.3985 169.535 59.4375 169.763 59.4375ZM172.919 60V55.4415H173.378C173.465 55.4415 173.525 55.458 173.558 55.491C173.591 55.524 173.613 55.581 173.625 55.662L173.679 56.373C173.835 56.055 174.027 55.8075 174.255 55.6305C174.486 55.4505 174.756 55.3605 175.065 55.3605C175.191 55.3605 175.305 55.3755 175.407 55.4055C175.509 55.4325 175.604 55.4715 175.691 55.5225L175.587 56.121C175.566 56.196 175.52 56.2335 175.448 56.2335C175.406 56.2335 175.341 56.22 175.254 56.193C175.167 56.163 175.046 56.148 174.89 56.148C174.611 56.148 174.377 56.229 174.188 56.391C174.002 56.553 173.846 56.7885 173.72 57.0975V60H172.919ZM176.549 60V55.4415H177.026C177.14 55.4415 177.212 55.497 177.242 55.608L177.3 56.076C177.468 55.869 177.656 55.6995 177.863 55.5675C178.073 55.4355 178.316 55.3695 178.592 55.3695C178.901 55.3695 179.15 55.455 179.339 55.626C179.531 55.797 179.669 56.028 179.753 56.319C179.816 56.154 179.898 56.0115 180 55.8915C180.105 55.7715 180.222 55.6725 180.351 55.5945C180.48 55.5165 180.617 55.4595 180.761 55.4235C180.908 55.3875 181.056 55.3695 181.206 55.3695C181.446 55.3695 181.659 55.4085 181.845 55.4865C182.034 55.5615 182.193 55.6725 182.322 55.8195C182.454 55.9665 182.555 56.148 182.624 56.364C182.693 56.577 182.727 56.8215 182.727 57.0975V60H181.926V57.0975C181.926 56.7405 181.848 56.4705 181.692 56.2875C181.536 56.1015 181.31 56.0085 181.013 56.0085C180.881 56.0085 180.755 56.0325 180.635 56.0805C180.518 56.1255 180.414 56.193 180.324 56.283C180.234 56.373 180.162 56.487 180.108 56.625C180.057 56.76 180.032 56.9175 180.032 57.0975V60H179.231V57.0975C179.231 56.7315 179.157 56.4585 179.01 56.2785C178.863 56.0985 178.649 56.0085 178.367 56.0085C178.169 56.0085 177.984 56.0625 177.813 56.1705C177.645 56.2755 177.491 56.4195 177.35 56.6025V60H176.549ZM187.288 60H186.933C186.855 60 186.792 59.988 186.744 59.964C186.696 59.94 186.664 59.889 186.649 59.811L186.559 59.388C186.439 59.496 186.322 59.5935 186.208 59.6805C186.094 59.7645 185.974 59.8365 185.848 59.8965C185.722 59.9535 185.587 59.997 185.443 60.027C185.302 60.057 185.145 60.072 184.971 60.072C184.794 60.072 184.627 60.048 184.471 60C184.318 59.949 184.185 59.874 184.071 59.775C183.957 59.676 183.865 59.5515 183.796 59.4015C183.73 59.2485 183.697 59.0685 183.697 58.8615C183.697 58.6815 183.747 58.509 183.846 58.344C183.945 58.176 184.104 58.0275 184.323 57.8985C184.545 57.7695 184.834 57.6645 185.191 57.5835C185.548 57.4995 185.985 57.4515 186.501 57.4395V57.084C186.501 56.73 186.424 56.463 186.271 56.283C186.121 56.1 185.898 56.0085 185.601 56.0085C185.406 56.0085 185.241 56.034 185.106 56.085C184.974 56.133 184.858 56.1885 184.759 56.2515C184.663 56.3115 184.579 56.367 184.507 56.418C184.438 56.466 184.369 56.49 184.3 56.49C184.246 56.49 184.198 56.4765 184.156 56.4495C184.117 56.4195 184.086 56.3835 184.062 56.3415L183.918 56.085C184.17 55.842 184.441 55.6605 184.732 55.5405C185.023 55.4205 185.346 55.3605 185.7 55.3605C185.955 55.3605 186.181 55.4025 186.379 55.4865C186.577 55.5705 186.744 55.6875 186.879 55.8375C187.014 55.9875 187.116 56.169 187.185 56.382C187.254 56.595 187.288 56.829 187.288 57.084V60ZM185.209 59.5095C185.35 59.5095 185.479 59.496 185.596 59.469C185.713 59.439 185.823 59.3985 185.925 59.3475C186.03 59.2935 186.129 59.229 186.222 59.154C186.318 59.079 186.411 58.9935 186.501 58.8975V57.948C186.132 57.96 185.818 57.99 185.56 58.038C185.302 58.083 185.092 58.143 184.93 58.218C184.768 58.293 184.65 58.3815 184.575 58.4835C184.503 58.5855 184.467 58.6995 184.467 58.8255C184.467 58.9455 184.486 59.049 184.525 59.136C184.564 59.223 184.617 59.295 184.683 59.352C184.749 59.406 184.827 59.4465 184.917 59.4735C185.007 59.4975 185.104 59.5095 185.209 59.5095ZM189.883 60.072C189.523 60.072 189.246 59.9715 189.051 59.7705C188.859 59.5695 188.763 59.28 188.763 58.902V56.112H188.214C188.166 56.112 188.125 56.0985 188.092 56.0715C188.059 56.0415 188.043 55.9965 188.043 55.9365V55.617L188.79 55.5225L188.974 54.114C188.98 54.069 189 54.033 189.033 54.006C189.066 53.976 189.108 53.961 189.159 53.961H189.564V55.5315H190.869V56.112H189.564V58.848C189.564 59.04 189.61 59.1825 189.703 59.2755C189.796 59.3685 189.916 59.415 190.063 59.415C190.147 59.415 190.219 59.4045 190.279 59.3835C190.342 59.3595 190.396 59.334 190.441 59.307C190.486 59.28 190.524 59.256 190.554 59.235C190.587 59.211 190.615 59.199 190.639 59.199C190.681 59.199 190.719 59.2245 190.752 59.2755L190.986 59.658C190.848 59.787 190.681 59.889 190.486 59.964C190.291 60.036 190.09 60.072 189.883 60.072ZM192.75 55.4415V60H191.949V55.4415H192.75ZM192.93 54.0105C192.93 54.0885 192.914 54.162 192.881 54.231C192.851 54.297 192.809 54.357 192.755 54.411C192.704 54.462 192.644 54.5025 192.575 54.5325C192.506 54.5625 192.432 54.5775 192.354 54.5775C192.276 54.5775 192.203 54.5625 192.134 54.5325C192.068 54.5025 192.008 54.462 191.954 54.411C191.903 54.357 191.862 54.297 191.832 54.231C191.802 54.162 191.787 54.0885 191.787 54.0105C191.787 53.9325 191.802 53.859 191.832 53.79C191.862 53.718 191.903 53.6565 191.954 53.6055C192.008 53.5515 192.068 53.5095 192.134 53.4795C192.203 53.4495 192.276 53.4345 192.354 53.4345C192.432 53.4345 192.506 53.4495 192.575 53.4795C192.644 53.5095 192.704 53.5515 192.755 53.6055C192.809 53.6565 192.851 53.718 192.881 53.79C192.914 53.859 192.93 53.9325 192.93 54.0105ZM196.007 55.3695C196.34 55.3695 196.64 55.425 196.907 55.536C197.177 55.647 197.405 55.8045 197.591 56.0085C197.78 56.2125 197.924 56.46 198.023 56.751C198.125 57.039 198.176 57.3615 198.176 57.7185C198.176 58.0785 198.125 58.4025 198.023 58.6905C197.924 58.9785 197.78 59.2245 197.591 59.4285C197.405 59.6325 197.177 59.79 196.907 59.901C196.64 60.009 196.34 60.063 196.007 60.063C195.674 60.063 195.372 60.009 195.102 59.901C194.835 59.79 194.607 59.6325 194.418 59.4285C194.229 59.2245 194.084 58.9785 193.982 58.6905C193.88 58.4025 193.829 58.0785 193.829 57.7185C193.829 57.3615 193.88 57.039 193.982 56.751C194.084 56.46 194.229 56.2125 194.418 56.0085C194.607 55.8045 194.835 55.647 195.102 55.536C195.372 55.425 195.674 55.3695 196.007 55.3695ZM196.007 59.4375C196.457 59.4375 196.793 59.2875 197.015 58.9875C197.237 58.6845 197.348 58.263 197.348 57.723C197.348 57.18 197.237 56.757 197.015 56.454C196.793 56.151 196.457 55.9995 196.007 55.9995C195.779 55.9995 195.581 56.0385 195.413 56.1165C195.245 56.1945 195.104 56.307 194.99 56.454C194.879 56.601 194.795 56.7825 194.738 56.9985C194.684 57.2115 194.657 57.453 194.657 57.723C194.657 57.993 194.684 58.2345 194.738 58.4475C194.795 58.6605 194.879 58.8405 194.99 58.9875C195.104 59.1315 195.245 59.2425 195.413 59.3205C195.581 59.3985 195.779 59.4375 196.007 59.4375ZM199.163 60V55.4415H199.64C199.754 55.4415 199.826 55.497 199.856 55.608L199.919 56.103C200.117 55.884 200.337 55.707 200.58 55.572C200.826 55.437 201.11 55.3695 201.431 55.3695C201.68 55.3695 201.899 55.4115 202.088 55.4955C202.28 55.5765 202.439 55.6935 202.565 55.8465C202.694 55.9965 202.791 56.178 202.857 56.391C202.923 56.604 202.956 56.8395 202.956 57.0975V60H202.155V57.0975C202.155 56.7525 202.076 56.4855 201.917 56.2965C201.761 56.1045 201.521 56.0085 201.197 56.0085C200.96 56.0085 200.738 56.0655 200.531 56.1795C200.327 56.2935 200.138 56.448 199.964 56.643V60H199.163Z" fill="black"/>
<rect width="55" height="16" transform="translate(123 73)" fill="#F76C6C"/>
<path d="M128.927 81.856V84H128.155V78.268H129.847C130.21 78.268 130.524 78.3107 130.791 78.396C131.06 78.4787 131.283 78.5973 131.459 78.752C131.635 78.9067 131.766 79.0933 131.851 79.312C131.939 79.5307 131.983 79.7747 131.983 80.044C131.983 80.3107 131.936 80.5547 131.843 80.776C131.75 80.9973 131.612 81.188 131.431 81.348C131.252 81.508 131.03 81.6333 130.763 81.724C130.496 81.812 130.191 81.856 129.847 81.856H128.927ZM128.927 81.24H129.847C130.068 81.24 130.263 81.2107 130.431 81.152C130.602 81.0933 130.744 81.012 130.859 80.908C130.974 80.8013 131.06 80.6747 131.119 80.528C131.178 80.3813 131.207 80.22 131.207 80.044C131.207 79.6787 131.094 79.3933 130.867 79.188C130.643 78.9827 130.303 78.88 129.847 78.88H128.927V81.24ZM134.34 79.884C134.583 79.884 134.807 79.9253 135.012 80.008C135.218 80.088 135.395 80.2053 135.544 80.36C135.694 80.512 135.81 80.7013 135.892 80.928C135.978 81.152 136.02 81.408 136.02 81.696C136.02 81.808 136.008 81.8827 135.984 81.92C135.96 81.9573 135.915 81.976 135.848 81.976H133.152C133.158 82.232 133.192 82.4547 133.256 82.644C133.32 82.8333 133.408 82.992 133.52 83.12C133.632 83.2453 133.766 83.34 133.92 83.404C134.075 83.4653 134.248 83.496 134.44 83.496C134.619 83.496 134.772 83.476 134.9 83.436C135.031 83.3933 135.143 83.348 135.236 83.3C135.33 83.252 135.407 83.208 135.468 83.168C135.532 83.1253 135.587 83.104 135.632 83.104C135.691 83.104 135.736 83.1267 135.768 83.172L135.968 83.432C135.88 83.5387 135.775 83.632 135.652 83.712C135.53 83.7893 135.398 83.8533 135.256 83.904C135.118 83.9547 134.974 83.992 134.824 84.016C134.675 84.0427 134.527 84.056 134.38 84.056C134.1 84.056 133.842 84.0093 133.604 83.916C133.37 83.82 133.166 83.6813 132.992 83.5C132.822 83.316 132.688 83.0893 132.592 82.82C132.496 82.5507 132.448 82.2413 132.448 81.892C132.448 81.6093 132.491 81.3453 132.576 81.1C132.664 80.8547 132.79 80.6427 132.952 80.464C133.115 80.2827 133.314 80.1413 133.548 80.04C133.783 79.936 134.047 79.884 134.34 79.884ZM134.356 80.408C134.012 80.408 133.742 80.508 133.544 80.708C133.347 80.9053 133.224 81.18 133.176 81.532H135.38C135.38 81.3667 135.358 81.216 135.312 81.08C135.267 80.9413 135.2 80.8227 135.112 80.724C135.024 80.6227 134.916 80.5453 134.788 80.492C134.663 80.436 134.519 80.408 134.356 80.408ZM136.932 84V79.948H137.34C137.417 79.948 137.47 79.9627 137.5 79.992C137.529 80.0213 137.549 80.072 137.56 80.144L137.608 80.776C137.746 80.4933 137.917 80.2733 138.12 80.116C138.325 79.956 138.565 79.876 138.84 79.876C138.952 79.876 139.053 79.8893 139.144 79.916C139.234 79.94 139.318 79.9747 139.396 80.02L139.304 80.552C139.285 80.6187 139.244 80.652 139.18 80.652C139.142 80.652 139.085 80.64 139.008 80.616C138.93 80.5893 138.822 80.576 138.684 80.576C138.436 80.576 138.228 80.648 138.06 80.792C137.894 80.936 137.756 81.1453 137.644 81.42V84H136.932ZM142.478 80.616C142.446 80.6747 142.397 80.704 142.33 80.704C142.29 80.704 142.245 80.6893 142.194 80.66C142.144 80.6307 142.081 80.5987 142.006 80.564C141.934 80.5267 141.848 80.4933 141.746 80.464C141.645 80.432 141.525 80.416 141.386 80.416C141.266 80.416 141.158 80.432 141.062 80.464C140.966 80.4933 140.884 80.5347 140.814 80.588C140.748 80.6413 140.696 80.704 140.658 80.776C140.624 80.8453 140.606 80.9213 140.606 81.004C140.606 81.108 140.636 81.1947 140.694 81.264C140.756 81.3333 140.836 81.3933 140.934 81.444C141.033 81.4947 141.145 81.54 141.27 81.58C141.396 81.6173 141.524 81.6587 141.654 81.704C141.788 81.7467 141.917 81.7947 142.042 81.848C142.168 81.9013 142.28 81.968 142.378 82.048C142.477 82.128 142.556 82.2267 142.614 82.344C142.676 82.4587 142.706 82.5973 142.706 82.76C142.706 82.9467 142.673 83.12 142.606 83.28C142.54 83.4373 142.441 83.5747 142.31 83.692C142.18 83.8067 142.02 83.8973 141.83 83.964C141.641 84.0307 141.422 84.064 141.174 84.064C140.892 84.064 140.636 84.0187 140.406 83.928C140.177 83.8347 139.982 83.716 139.822 83.572L139.99 83.3C140.012 83.2653 140.037 83.2387 140.066 83.22C140.096 83.2013 140.134 83.192 140.182 83.192C140.23 83.192 140.281 83.2107 140.334 83.248C140.388 83.2853 140.452 83.3267 140.526 83.372C140.604 83.4173 140.696 83.4587 140.802 83.496C140.912 83.5333 141.048 83.552 141.21 83.552C141.349 83.552 141.47 83.5347 141.574 83.5C141.678 83.4627 141.765 83.4133 141.834 83.352C141.904 83.2907 141.954 83.22 141.986 83.14C142.021 83.06 142.038 82.9747 142.038 82.884C142.038 82.772 142.008 82.68 141.946 82.608C141.888 82.5333 141.809 82.4707 141.71 82.42C141.612 82.3667 141.498 82.3213 141.37 82.284C141.245 82.244 141.116 82.2027 140.982 82.16C140.852 82.1173 140.722 82.0693 140.594 82.016C140.469 81.96 140.357 81.8907 140.258 81.808C140.16 81.7253 140.08 81.624 140.018 81.504C139.96 81.3813 139.93 81.2333 139.93 81.06C139.93 80.9053 139.962 80.7573 140.026 80.616C140.09 80.472 140.184 80.3467 140.306 80.24C140.429 80.1307 140.58 80.044 140.758 79.98C140.937 79.916 141.141 79.884 141.37 79.884C141.637 79.884 141.876 79.9267 142.086 80.012C142.3 80.0947 142.484 80.2093 142.638 80.356L142.478 80.616ZM145.267 79.884C145.563 79.884 145.83 79.9333 146.067 80.032C146.307 80.1307 146.51 80.2707 146.675 80.452C146.843 80.6333 146.971 80.8533 147.059 81.112C147.15 81.368 147.195 81.6547 147.195 81.972C147.195 82.292 147.15 82.58 147.059 82.836C146.971 83.092 146.843 83.3107 146.675 83.492C146.51 83.6733 146.307 83.8133 146.067 83.912C145.83 84.008 145.563 84.056 145.267 84.056C144.971 84.056 144.703 84.008 144.463 83.912C144.226 83.8133 144.023 83.6733 143.855 83.492C143.687 83.3107 143.558 83.092 143.467 82.836C143.376 82.58 143.331 82.292 143.331 81.972C143.331 81.6547 143.376 81.368 143.467 81.112C143.558 80.8533 143.687 80.6333 143.855 80.452C144.023 80.2707 144.226 80.1307 144.463 80.032C144.703 79.9333 144.971 79.884 145.267 79.884ZM145.267 83.5C145.667 83.5 145.966 83.3667 146.163 83.1C146.36 82.8307 146.459 82.456 146.459 81.976C146.459 81.4933 146.36 81.1173 146.163 80.848C145.966 80.5787 145.667 80.444 145.267 80.444C145.064 80.444 144.888 80.4787 144.739 80.548C144.59 80.6173 144.464 80.7173 144.363 80.848C144.264 80.9787 144.19 81.14 144.139 81.332C144.091 81.5213 144.067 81.736 144.067 81.976C144.067 82.216 144.091 82.4307 144.139 82.62C144.19 82.8093 144.264 82.9693 144.363 83.1C144.464 83.228 144.59 83.3267 144.739 83.396C144.888 83.4653 145.064 83.5 145.267 83.5ZM148.072 84V79.948H148.496C148.598 79.948 148.662 79.9973 148.688 80.096L148.744 80.536C148.92 80.3413 149.116 80.184 149.332 80.064C149.551 79.944 149.803 79.884 150.088 79.884C150.31 79.884 150.504 79.9213 150.672 79.996C150.843 80.068 150.984 80.172 151.096 80.308C151.211 80.4413 151.298 80.6027 151.356 80.792C151.415 80.9813 151.444 81.1907 151.444 81.42V84H150.732V81.42C150.732 81.1133 150.662 80.876 150.52 80.708C150.382 80.5373 150.168 80.452 149.88 80.452C149.67 80.452 149.472 80.5027 149.288 80.604C149.107 80.7053 148.939 80.8427 148.784 81.016V84H148.072ZM155.494 84H155.178C155.108 84 155.052 83.9893 155.01 83.968C154.967 83.9467 154.939 83.9013 154.926 83.832L154.846 83.456C154.739 83.552 154.635 83.6387 154.534 83.716C154.432 83.7907 154.326 83.8547 154.214 83.908C154.102 83.9587 153.982 83.9973 153.854 84.024C153.728 84.0507 153.588 84.064 153.434 84.064C153.276 84.064 153.128 84.0427 152.99 84C152.854 83.9547 152.735 83.888 152.634 83.8C152.532 83.712 152.451 83.6013 152.39 83.468C152.331 83.332 152.302 83.172 152.302 82.988C152.302 82.828 152.346 82.6747 152.434 82.528C152.522 82.3787 152.663 82.2467 152.858 82.132C153.055 82.0173 153.312 81.924 153.63 81.852C153.947 81.7773 154.335 81.7347 154.794 81.724V81.408C154.794 81.0933 154.726 80.856 154.59 80.696C154.456 80.5333 154.258 80.452 153.994 80.452C153.82 80.452 153.674 80.4747 153.554 80.52C153.436 80.5627 153.334 80.612 153.246 80.668C153.16 80.7213 153.086 80.7707 153.022 80.816C152.96 80.8587 152.899 80.88 152.838 80.88C152.79 80.88 152.747 80.868 152.71 80.844C152.675 80.8173 152.647 80.7853 152.626 80.748L152.498 80.52C152.722 80.304 152.963 80.1427 153.222 80.036C153.48 79.9293 153.767 79.876 154.082 79.876C154.308 79.876 154.51 79.9133 154.686 79.988C154.862 80.0627 155.01 80.1667 155.13 80.3C155.25 80.4333 155.34 80.5947 155.402 80.784C155.463 80.9733 155.494 81.1813 155.494 81.408V84ZM153.646 83.564C153.771 83.564 153.886 83.552 153.99 83.528C154.094 83.5013 154.191 83.4653 154.282 83.42C154.375 83.372 154.463 83.3147 154.546 83.248C154.631 83.1813 154.714 83.1053 154.794 83.02V82.176C154.466 82.1867 154.187 82.2133 153.958 82.256C153.728 82.296 153.542 82.3493 153.398 82.416C153.254 82.4827 153.148 82.5613 153.082 82.652C153.018 82.7427 152.986 82.844 152.986 82.956C152.986 83.0627 153.003 83.1547 153.038 83.232C153.072 83.3093 153.119 83.3733 153.178 83.424C153.236 83.472 153.306 83.508 153.386 83.532C153.466 83.5533 153.552 83.564 153.646 83.564ZM157.364 78.108V84H156.652V78.108H157.364ZM161.198 84H160.422V78.268H161.198V84ZM162.619 84V79.948H163.043C163.144 79.948 163.208 79.9973 163.235 80.096L163.291 80.536C163.467 80.3413 163.663 80.184 163.879 80.064C164.098 79.944 164.35 79.884 164.635 79.884C164.856 79.884 165.051 79.9213 165.219 79.996C165.39 80.068 165.531 80.172 165.643 80.308C165.758 80.4413 165.844 80.6027 165.903 80.792C165.962 80.9813 165.991 81.1907 165.991 81.42V84H165.279V81.42C165.279 81.1133 165.208 80.876 165.067 80.708C164.928 80.5373 164.715 80.452 164.427 80.452C164.216 80.452 164.019 80.5027 163.835 80.604C163.654 80.7053 163.486 80.8427 163.331 81.016V84H162.619ZM167.224 84V80.556L166.776 80.504C166.72 80.4907 166.674 80.4707 166.636 80.444C166.602 80.4147 166.584 80.3733 166.584 80.32V80.028H167.224V79.636C167.224 79.404 167.256 79.1987 167.32 79.02C167.387 78.8387 167.48 78.6867 167.6 78.564C167.723 78.4387 167.87 78.344 168.04 78.28C168.211 78.216 168.403 78.184 168.616 78.184C168.798 78.184 168.966 78.2107 169.12 78.264L169.104 78.62C169.102 78.6733 169.079 78.7053 169.036 78.716C168.994 78.7267 168.934 78.732 168.856 78.732H168.732C168.61 78.732 168.498 78.748 168.396 78.78C168.298 78.812 168.212 78.864 168.14 78.936C168.068 79.008 168.012 79.1027 167.972 79.22C167.935 79.3373 167.916 79.4827 167.916 79.656V80.028H169.088V80.544H167.94V84H167.224ZM171.4 79.884C171.696 79.884 171.962 79.9333 172.2 80.032C172.44 80.1307 172.642 80.2707 172.808 80.452C172.976 80.6333 173.104 80.8533 173.192 81.112C173.282 81.368 173.328 81.6547 173.328 81.972C173.328 82.292 173.282 82.58 173.192 82.836C173.104 83.092 172.976 83.3107 172.808 83.492C172.642 83.6733 172.44 83.8133 172.2 83.912C171.962 84.008 171.696 84.056 171.4 84.056C171.104 84.056 170.836 84.008 170.596 83.912C170.358 83.8133 170.156 83.6733 169.988 83.492C169.82 83.3107 169.69 83.092 169.6 82.836C169.509 82.58 169.464 82.292 169.464 81.972C169.464 81.6547 169.509 81.368 169.6 81.112C169.69 80.8533 169.82 80.6333 169.988 80.452C170.156 80.2707 170.358 80.1307 170.596 80.032C170.836 79.9333 171.104 79.884 171.4 79.884ZM171.4 83.5C171.8 83.5 172.098 83.3667 172.296 83.1C172.493 82.8307 172.592 82.456 172.592 81.976C172.592 81.4933 172.493 81.1173 172.296 80.848C172.098 80.5787 171.8 80.444 171.4 80.444C171.197 80.444 171.021 80.4787 170.872 80.548C170.722 80.6173 170.597 80.7173 170.496 80.848C170.397 80.9787 170.322 81.14 170.272 81.332C170.224 81.5213 170.2 81.736 170.2 81.976C170.2 82.216 170.224 82.4307 170.272 82.62C170.322 82.8093 170.397 82.9693 170.496 83.1C170.597 83.228 170.722 83.3267 170.872 83.396C171.021 83.4653 171.197 83.5 171.4 83.5Z" fill="white"/>
<rect x="60" y="123" width="180" height="18" fill="#FFFACD"/>
<path d="M142.537 153.268V153.9H139.785V155.804H142.013V156.412H139.785V158.368H142.537V159H139.005V153.268H142.537ZM143.541 159V154.948H143.965C144.066 154.948 144.13 154.997 144.157 155.096L144.209 155.512C144.358 155.328 144.525 155.177 144.709 155.06C144.896 154.943 145.112 154.884 145.357 154.884C145.632 154.884 145.853 154.96 146.021 155.112C146.192 155.264 146.314 155.469 146.389 155.728C146.445 155.581 146.518 155.455 146.609 155.348C146.702 155.241 146.806 155.153 146.921 155.084C147.036 155.015 147.157 154.964 147.285 154.932C147.416 154.9 147.548 154.884 147.681 154.884C147.894 154.884 148.084 154.919 148.249 154.988C148.417 155.055 148.558 155.153 148.673 155.284C148.79 155.415 148.88 155.576 148.941 155.768C149.002 155.957 149.033 156.175 149.033 156.42V159H148.321V156.42C148.321 156.103 148.252 155.863 148.113 155.7C147.974 155.535 147.773 155.452 147.509 155.452C147.392 155.452 147.28 155.473 147.173 155.516C147.069 155.556 146.977 155.616 146.897 155.696C146.817 155.776 146.753 155.877 146.705 156C146.66 156.12 146.637 156.26 146.637 156.42V159H145.925V156.42C145.925 156.095 145.86 155.852 145.729 155.692C145.598 155.532 145.408 155.452 145.157 155.452C144.981 155.452 144.817 155.5 144.665 155.596C144.516 155.689 144.378 155.817 144.253 155.98V159H143.541ZM153.087 159H152.771C152.702 159 152.646 158.989 152.603 158.968C152.561 158.947 152.533 158.901 152.519 158.832L152.439 158.456C152.333 158.552 152.229 158.639 152.127 158.716C152.026 158.791 151.919 158.855 151.807 158.908C151.695 158.959 151.575 158.997 151.447 159.024C151.322 159.051 151.182 159.064 151.027 159.064C150.87 159.064 150.722 159.043 150.583 159C150.447 158.955 150.329 158.888 150.227 158.8C150.126 158.712 150.045 158.601 149.983 158.468C149.925 158.332 149.895 158.172 149.895 157.988C149.895 157.828 149.939 157.675 150.027 157.528C150.115 157.379 150.257 157.247 150.451 157.132C150.649 157.017 150.906 156.924 151.223 156.852C151.541 156.777 151.929 156.735 152.387 156.724V156.408C152.387 156.093 152.319 155.856 152.183 155.696C152.05 155.533 151.851 155.452 151.587 155.452C151.414 155.452 151.267 155.475 151.147 155.52C151.03 155.563 150.927 155.612 150.839 155.668C150.754 155.721 150.679 155.771 150.615 155.816C150.554 155.859 150.493 155.88 150.431 155.88C150.383 155.88 150.341 155.868 150.303 155.844C150.269 155.817 150.241 155.785 150.219 155.748L150.091 155.52C150.315 155.304 150.557 155.143 150.815 155.036C151.074 154.929 151.361 154.876 151.675 154.876C151.902 154.876 152.103 154.913 152.279 154.988C152.455 155.063 152.603 155.167 152.723 155.3C152.843 155.433 152.934 155.595 152.995 155.784C153.057 155.973 153.087 156.181 153.087 156.408V159ZM151.239 158.564C151.365 158.564 151.479 158.552 151.583 158.528C151.687 158.501 151.785 158.465 151.875 158.42C151.969 158.372 152.057 158.315 152.139 158.248C152.225 158.181 152.307 158.105 152.387 158.02V157.176C152.059 157.187 151.781 157.213 151.551 157.256C151.322 157.296 151.135 157.349 150.991 157.416C150.847 157.483 150.742 157.561 150.675 157.652C150.611 157.743 150.579 157.844 150.579 157.956C150.579 158.063 150.597 158.155 150.631 158.232C150.666 158.309 150.713 158.373 150.771 158.424C150.83 158.472 150.899 158.508 150.979 158.532C151.059 158.553 151.146 158.564 151.239 158.564ZM154.958 154.948V159H154.246V154.948H154.958ZM155.118 153.676C155.118 153.745 155.103 153.811 155.074 153.872C155.047 153.931 155.01 153.984 154.962 154.032C154.917 154.077 154.863 154.113 154.802 154.14C154.741 154.167 154.675 154.18 154.606 154.18C154.537 154.18 154.471 154.167 154.41 154.14C154.351 154.113 154.298 154.077 154.25 154.032C154.205 153.984 154.169 153.931 154.142 153.872C154.115 153.811 154.102 153.745 154.102 153.676C154.102 153.607 154.115 153.541 154.142 153.48C154.169 153.416 154.205 153.361 154.25 153.316C154.298 153.268 154.351 153.231 154.41 153.204C154.471 153.177 154.537 153.164 154.606 153.164C154.675 153.164 154.741 153.177 154.802 153.204C154.863 153.231 154.917 153.268 154.962 153.316C155.01 153.361 155.047 153.416 155.074 153.48C155.103 153.541 155.118 153.607 155.118 153.676ZM157.005 153.108V159H156.293V153.108H157.005ZM158.188 158.56C158.188 158.491 158.2 158.425 158.224 158.364C158.25 158.303 158.285 158.249 158.328 158.204C158.373 158.159 158.426 158.123 158.488 158.096C158.549 158.069 158.614 158.056 158.684 158.056C158.753 158.056 158.818 158.069 158.88 158.096C158.941 158.123 158.994 158.159 159.04 158.204C159.085 158.249 159.12 158.303 159.144 158.364C159.17 158.425 159.184 158.491 159.184 158.56C159.184 158.632 159.17 158.699 159.144 158.76C159.12 158.819 159.085 158.871 159.04 158.916C158.994 158.961 158.941 158.996 158.88 159.02C158.818 159.047 158.753 159.06 158.684 159.06C158.614 159.06 158.549 159.047 158.488 159.02C158.426 158.996 158.373 158.961 158.328 158.916C158.285 158.871 158.25 158.819 158.224 158.76C158.2 158.699 158.188 158.632 158.188 158.56ZM158.188 155.56C158.188 155.491 158.2 155.425 158.224 155.364C158.25 155.303 158.285 155.249 158.328 155.204C158.373 155.159 158.426 155.123 158.488 155.096C158.549 155.069 158.614 155.056 158.684 155.056C158.753 155.056 158.818 155.069 158.88 155.096C158.941 155.123 158.994 155.159 159.04 155.204C159.085 155.249 159.12 155.303 159.144 155.364C159.17 155.425 159.184 155.491 159.184 155.56C159.184 155.632 159.17 155.699 159.144 155.76C159.12 155.819 159.085 155.871 159.04 155.916C158.994 155.961 158.941 155.997 158.88 156.024C158.818 156.048 158.753 156.06 158.684 156.06C158.614 156.06 158.549 156.048 158.488 156.024C158.426 155.997 158.373 155.961 158.328 155.916C158.285 155.871 158.25 155.819 158.224 155.76C158.2 155.699 158.188 155.632 158.188 155.56Z" fill="black"/>
<rect x="60" y="169" width="180" height="18" fill="#FFFACD"/>
</g>
<defs>
<clipPath id="clip0_1368_832">
<rect width="300" height="180" fill="white"/>
</clipPath>
</defs>
</svg>
