<svg xmlns="http://www.w3.org/2000/svg" xmlns:xlink="http://www.w3.org/1999/xlink" x="0" y="0" viewBox="0 0 400 240" enable-background="new 0 0 400 240" width="400" height="240"><title>html</title><g class="nc-icon-wrapper"><path fill="#9553F1" d="M0 0h400v240H0z"/><defs><path id="SVGID_1_" d="M0 0h400v240H0z"/></defs><clipPath id="SVGID_2_"><use xlink:href="#SVGID_1_" overflow="visible"/></clipPath><g clip-path="url(#SVGID_2_)"><path d="M150.333 25.833c7.218-2.669 12.167-2.5 14.667 4.5S200 131 202.333 137.167c2.333 6.167 2.667 12.833-5.5 15.5s-158.667 54-165.167 56-10-1-11.833-6.833C18 196-16.667 101.667-18.833 95.667S-21.667 84-12.833 81s123.5-40.5 163.166-55.167z" fill="#6D3ACF"/><path d="M149.833 37.333c2.49-.861 3.667-.167 4.333 1.167.667 1.333 35.667 100.167 36.333 101.833.667 1.667-1.167 2.5-2 2.833-.833.333-151.833 52-153.667 52.667-1.832.667-3.832.167-4.165-.666-.334-.834-37.834-97.834-38.5-99.167s.166-2.167 1.833-2.833c1.667-.667 107.167-39 155.833-55.834z" fill="#AA75F4"/><defs><path id="SVGID_3_" d="M149.833 37.333c2.49-.861 3.667-.167 4.333 1.167.667 1.333 35.667 100.167 36.333 101.833.667 1.667-1.167 2.5-2 2.833-.833.333-151.833 52-153.667 52.667-1.832.667-3.832.167-4.165-.666-.334-.834-37.834-97.834-38.5-99.167s.166-2.167 1.833-2.833c1.667-.667 107.167-39 155.833-55.834z"/></defs><clipPath id="SVGID_4_"><use xlink:href="#SVGID_3_" overflow="visible"/></clipPath><g clip-path="url(#SVGID_4_)"><path d="M18.041 120.901c-.994-2.551-1.64-3.971 1.98-5.325S140.168 73.15 143.542 72.033c3.374-1.117 5.613-1.236 6.499 1.195.886 2.43 17.969 49.849 18.809 52.139s1.826 4.532-2.111 5.913c-3.937 1.381-118.595 42.69-121.505 43.731-2.91 1.041-4.912.067-6.017-2.444-8.197-18.609-18.464-44.704-21.176-51.666z" fill="#9553F1"/><path d="M89.872 108.841c-8.667 2.06-14.731 9.433-13.258 17.552 1.104 6.086 7.271 16.965 20.573 12.696s14.298-15.939 11.918-21.496c-2.38-5.557-9.504-11.064-19.233-8.752z" fill="#8147E0"/><path d="M126.221 184.209s-5.966-21.3-6.621-23.464c-.655-2.163-.836-3.63 1.622-4.687s45.27-15.538 47.764-16.486 4.051-.67 5.035 1.934 8.729 22.827 8.729 22.827l-56.529 19.876z" fill="#9553F1"/><path d="M44.771 182.203c-1.54.51-2.22 1.223-1.455 3.533.765 2.31.911 2.567 2.873 1.856 1.962-.711 60.926-19.684 62.466-20.194 1.54-.51 2.256-1.113 1.509-3.185-.747-2.072-1.003-2.292-3.331-1.766s-59.752 18.991-62.062 19.756z" fill="#9553F1"/><path d="M86.283 122.772c-.45-1.559-.678-2.786 1.032-2.783 1.71.003 11.357 1.611 12.627 1.76s1.564 1.429.777 2.347c-2.143 2.5-7.713 8.535-8.496 9.12-.783.585-1.942.72-2.345-.2-.997-2.274-2.77-7.384-3.595-10.244z" fill="#9553F1"/><path d="M-3.333 112.333s99.667-35.167 165.667-60.167l-8-17.667-165.167 58.334 7.5 19.5z" fill="#9553F1"/></g><g><path fill="#6D3ACF" d="M371.318 79.004l37.787 60.57 20.936-11.133-34.14-67.274z"/><path fill="#6D3ACF" d="M343.646 32.542l-26-44.5 32.5-4.5 22 33.5z"/><path d="M373.479 12.875c-6.256 3.476-32.333 18.167-37.833 21.5s-7.833 7.333-4.5 13 19.667 29.5 23.667 35 8.667 6.833 14.833 3.333c6.167-3.5 30.5-17.5 35.833-21 5.333-3.5 6-10.5 1.333-17.167s-17.667-27.5-21.167-32.167-7.666-4.999-12.166-2.499z" fill="#8147E0"/><path d="M362.896 34.854c-7.749 4.394-10.966 13.956-7.289 21.342 2.757 5.537 13.601 12.908 24.414 5.783 11.665-7.687 8.171-18.617 4.336-23.29s-12.762-8.767-21.461-3.835z" fill="#9553F1"/><path d="M363.821 48.712c-.866-1.372-1.428-2.487.215-2.96s8.578-1.491 12.11-1.71c1.276-.079 2.308.777 1.908 1.918-1.345 3.832-4.506 10.677-5.095 11.457-.589.78-1.664 1.232-2.308.461-1.592-1.906-5.24-6.649-6.83-9.166z" fill="#8147E0"/></g><path d="M196.25-6s39.25 27.25 48.25 33.25 19 3.5 23.5-2.5S290.75-9.5 290.75-9.5L196.25-6z" fill="#8147E0"/></g><g><defs><path id="SVGID_5_" d="M0 0h400v240H0z"/></defs><clipPath id="SVGID_6_"><use xlink:href="#SVGID_5_" overflow="visible"/></clipPath><g clip-path="url(#SVGID_6_)"><path d="M61.25 243.125c0-23.813-2.056-148.573-2.824-159.328-.768-10.754.512-16.132 12.291-16.644s233.525-4.097 244.536-4.609c11.01-.512 16.388 1.024 16.644 12.035.256 11.011-.512 126.493-.256 164.133L61.25 243.125z" fill="#4D4D87"/><path d="M316.981 118.994c7.042-.123 14.905.736 14.905.736l-.015 4.449-14.442-1.12-.448-4.065z" fill="#3E416D"/><path d="M70.461 88.662s121.713-5.292 244.792-8.535c3.754-.099 4.17 1.02 4.268 3.243 2.902 66.404 3.926 164.731 3.926 164.731L71.486 245.54 70.461 88.662z" fill="#F9FAFE"/><defs><path id="SVGID_7_" d="M70.461 88.662s121.713-5.292 244.792-8.535c3.754-.099 4.17 1.02 4.268 3.243 2.902 66.404 3.926 164.731 3.926 164.731L71.486 245.54 70.461 88.662z"/></defs><clipPath id="SVGID_8_"><use xlink:href="#SVGID_7_" overflow="visible"/></clipPath><g clip-path="url(#SVGID_8_)"><path d="M115.698 84.907s.149 17.199.085 19.567c-.064 2.369.384 2.753 2.625 2.753s149.794-4.481 152.739-4.609 3.201-.768 3.073-3.137-1.088-21.125-1.088-21.125l-157.434 6.551z" fill="#D9E8FB"/><path d="M117.661 128.607c-.156-3.159-.341-4.95 3.926-5.121 4.268-.171 140.747-2.902 144.673-2.902 3.926 0 6.316.683 6.401 3.67.085 2.987 1.536 61.198 1.622 64.015.085 2.817.341 5.633-4.268 5.719-4.609.085-139.21 3.756-142.624 3.841-3.414.085-5.175-1.71-5.463-4.865-2.134-23.387-3.841-55.736-4.267-64.357z" fill="#D9E8FB"/><path d="M197.191 142.299c-9.805-.85-18.726 4.779-20 13.805-.955 6.766 1.735 20.319 17.168 20.46 15.434.142 20.531-11.752 19.965-18.407-.567-6.655-6.127-14.905-17.133-15.858z" fill="#BFDAF9"/><path d="M208.22 249.275s1.024-34.824 1.088-37.32c.064-2.497.384-4.097 3.329-4.353s52.876-.576 55.821-.704c2.945-.128 4.481.704 4.609 3.777.128 3.073 1.344 37.385 1.344 37.385l-66.191 1.215z" fill="#D9E8FB"/><path d="M123.081 207.601c-1.792 0-2.753.512-2.753 3.201s.064 3.009 2.369 2.945c2.305-.064 70.736.512 72.529.512 1.792 0 2.753-.384 2.689-2.817-.064-2.433-.256-2.753-2.881-3.009-2.626-.255-69.265-.832-71.953-.832z" fill="#D9E8FB"/><path d="M195.353 220.468c1.92.053 2.945.96 3.009 3.201.064 2.241-.512 2.689-2.689 2.753-2.176.064-71.184-1.344-72.913-1.408-1.728-.064-1.92-1.152-1.984-2.817-.064-1.664.384-2.625 1.92-2.689 1.537-.064 68.048.832 72.657.96z" fill="#D9E8FB"/><path d="M195.097 231.671c1.856.012 3.137.128 3.265 3.009.128 2.881-.576 2.945-2.497 2.945s-71.12-.768-73.041-.768c-1.92 0-2.112-.896-2.112-2.497 0-1.6.128-2.689 2.369-2.753 2.24-.064 61.71 0 72.016.064z" fill="#D9E8FB"/><path d="M188.589 155.664c.07-1.791.256-3.158 2.048-2.561s11.352 5.633 12.632 6.231 1.144 2.042 0 2.731c-3.115 1.878-11.053 6.273-12.077 6.615s-2.286.081-2.39-1.024c-.256-2.731-.341-8.706-.213-11.992z" fill="#D9E8FB"/></g><path d="M286.865 150.538c-1.175-.093-4.641.363-4.729 2.967s-.977 22.79-.991 24.459c-.014 1.67 1.91 2.762 4.16 2.731l1.56-30.157z" fill="#3E416D"/><path d="M281.877 242.613s2.831-70.327 3.683-108.103c.202-8.963 3.094-13.178 10.281-13.056 19.239.325 59.852 3.2 65.743 3.41 5.891.21 10.498 2.117 10.054 9.273-1.862 29.991-9.495 116.633-9.495 116.633l-80.266-8.157z" fill="#4D4D87"/><path d="M285.497 240.844s4.479-90.745 4.735-93.978c.256-3.233 2.106-3.149 3.467-3.15 3.971-.002 41.015 1.561 69.243 4.457 2.519.258 3.089 1.615 2.941 3.487-.148 1.872-8.729 97.235-8.729 97.235l-71.657-8.051z" fill="#F9FAFE"/><path d="M314.352 132.653c-3.591-.066-4.721 3.439-.308 3.894 4.412.455 18.961 1.29 21.496 1.385s3.062-3.888-.201-4.146-17.497-1.068-20.987-1.133z" fill="#3E416D"/><path d="M345.321 133.977c-1.875-.117-3.604 1.727-2.26 3.674s3.389.996 4.118-.102c.729-1.098.656-3.415-1.858-3.572z" fill="#3E416D"/><path d="M353.741 168.742c2.219.316 3.469.789 3.41 3.16-.059 2.371-3.291 35.058-3.506 36.967-.215 1.909-.95 3.071-3.709 3.045-2.759-.026-50.382-2.771-52.36-2.927-1.978-.157-3.709-1-3.635-3.563s1.417-35.72 1.604-38.081c.187-2.361.787-2.635 3.472-2.486 2.685.149 50.66 3.307 54.724 3.885z" fill="#D9E8FB"/><path d="M350.169 218.697c.788.054 1.284.273 1.317.939.033.666.095 2.319.092 2.897-.003.578-.14 1.23-.993 1.184s-54.839-3.787-55.371-3.829c-.532-.042-1.052-.233-.999-1.171.053-.938.189-1.847.267-2.291.078-.443.364-.806 1.007-.819.643-.013 52.594 2.946 54.68 3.09z" fill="#D9E8FB"/><path d="M349.822 228.216c.575.04 1.151.327 1.117 1.03-.034.704-.165 2.085-.212 2.68-.047.596-.083 1.321-1.081 1.22s-53.702-4.639-54.719-4.762c-1.018-.123-1.135-.539-1.097-1.286.038-.746.146-1.572.219-2.23.073-.658.203-.947 1.185-.912.982.036 49.756 3.92 54.588 4.26z" fill="#D9E8FB"/><path d="M293.559 233.756c.073-.615.427-.801 1.005-.798.578.003 52.869 3.802 53.693 3.932.825.13 1.323.319 1.297.916s-.077 2.327-.08 2.905c-.003.578-.3 1.089-1.109 1.025s-53.478-4.215-54.182-4.249c-.704-.034-.937-.331-.893-.884.044-.553.139-1.744.269-2.847z" fill="#D9E8FB"/><path d="M326.426 177.988c-6.606-.861-12.775 3.799-13.361 10.079-.587 6.28 4.11 11.106 11.193 11.667s11.056-5.718 11.446-9.518c.39-3.799-2.311-11.319-9.278-12.228z" fill="#BFDAF9"/><path d="M320.883 185.918c.076-1.218.245-1.875 1.427-1.396s6.378 2.978 7.273 3.434c.895.456.962 1.232.06 1.674-.902.442-6.484 3.896-7.276 4.304s-1.25.383-1.361-.654-.245-5.413-.123-7.362z" fill="#D9E8FB"/><defs><path id="SVGID_9_" d="M285.497 240.844s4.479-90.745 4.735-93.978c.256-3.233 2.106-3.149 3.467-3.15 3.971-.002 41.015 1.561 69.243 4.457 2.519.258 3.089 1.615 2.941 3.487-.148 1.872-8.729 97.235-8.729 97.235l-71.657-8.051z"/></defs><clipPath id="SVGID_10_"><use xlink:href="#SVGID_9_" overflow="visible"/></clipPath><path d="M288.184 157.934s51.695 2.237 77.501 3.95l2.178-16.218-78.522-4.022-1.157 16.29z" fill="#D9E8FB" clip-path="url(#SVGID_10_)"/><path d="M200.977 72.091c-2.119-1.466-5.457-.527-5.259 2.712s3.274 3.572 4.909 2.8c1.634-.773 3.191-3.547.35-5.512z" fill="#3E416D"/><g><path d="M166.877 86.425c.618 2.993.468 4.361.533 5.725.097 2.048.426 5.975-.513 8.023-.939 2.048-49.846 83.56-51.297 85.95s-5.207 4.353-11.779 3.841c-6.572-.512-30.471-2.561-34.483-3.158-3.039-.453-6.487-.512-8.962-3.585-2.475-3.073-25.094-24.069-27.228-26.459-2.134-2.39-3.339-8.358-2.869-12.63l136.598-57.707z" fill="#FA6E5A"/><path d="M72.028 47.084c36.232 14.467 67.301 27.313 91.797 36.104 3.72 1.335 3.788 3.88 1.664 7.81-11.139 20.613-39.305 68.752-52.108 87.7-1.869 2.766-3.841 5.889-8.578 5.377-4.737-.512-26.118-2.048-32.007-2.561-5.889-.512-7.426-.512-9.73-2.433s-27.398-25.35-30.215-28.422c-2.817-3.073-3.267-7.562-1.664-12.291C36.436 122.877 55 72.562 63.962 50.157c1.299-3.247 3.328-4.965 8.066-3.073z" fill="#FA965A"/><path d="M154.778 89.163c-15.022-4.95-35.123-12.76-38.067-14.041s-5.761-1.28-7.298 1.536c-1.536 2.817-21.637 49.739-42.378 92.949-1.017 2.119-.768 4.353 2.305 4.609 3.073.256 21.253 1.664 30.855 2.048 2.484.099 6.487-.283 7.554-1.92 12.675-19.46 33.672-54.028 47.627-80.018 1.029-1.917 1.736-4.394-.598-5.163z" fill="#FBAB7B"/><path d="M73.01 70.385c.557-2.23 1.28-4.097 4.353-2.817 3.073 1.28 56.589 29.703 58.723 30.983s1.451 3.158.768 4.524-3.243 5.463-3.841 6.572c-.597 1.11-1.195 2.048-2.902 1.451s-42.762-21.85-43.957-22.704c-1.195-.854-1.963.085-2.305 1.11-.341 1.024-3.9 12.879-3.9 12.879s39.065 19.129 40.516 19.641c1.451.512 3.243 2.475 2.219 4.353s-16.644 30.642-17.412 31.922c-.768 1.28-1.28 2.987-3.756 2.731-2.475-.256-25.947-3.841-27.228-4.097-1.28-.256-2.134-.768-2.646-1.622-.512-.854-17.924-16.814-18.607-17.924-.683-1.11-.854-2.39-.341-4.268s4.182-14.169 4.438-15.364.768-2.646 2.305-2.219c1.536.427 7.767 3.67 9.218 4.182s2.305 1.707 1.878 3.158c-.427 1.451-1.925 9.047-1.925 9.047s8.497 7.426 9.436 8.45c.939 1.024 2.475 2.219 4.012 2.561s14.681 2.305 14.681 2.305 8.248-12.938 8.834-14.361c.448-1.088.64-2.176-.768-2.945-2.099-1.145-38.281-16.665-39.561-17.519-1.28-.854-2.39-1.28-1.622-4.353.769-3.071 8.621-32.603 9.39-35.676z" fill="#F9FAFE"/><path d="M156.271 127.145s8.407-13.4 20.527-19.204c2.123-1.017 3.67-.043 4.865 2.091 1.175 2.099 1.704 4.148-.811 5.164-4.225 1.707-12.035 5.591-20.741 13.422-.762.685-2.197.594-3.149.368-.849-.203-1.335-.794-.691-1.841z" fill="#3E416D"/><path d="M162.673 131.007c3.18-2.371 13.184-5.781 20.741-6.017 2.048-.064 2.475 2.07 2.561 3.35.085 1.28-.261 3.243-2.048 3.03-7.336-.875-15.416.451-19.247 2.006-1.815.736-3.896-.961-2.007-2.369z" fill="#3E416D"/></g></g></g></g></svg>