<svg width="375" height="250" viewBox="0 0 375 250" fill="none" xmlns="http://www.w3.org/2000/svg">
<g clip-path="url(#clip0)">
<path d="M375 0H0V250H375V0Z" fill="#3E416D"/>
<path d="M-5.5 189.5C-5.5 189.5 42.5 159.7 56.8 160C71.1 160.3 92.7 174.3 114.2 175.2C119.8 175.4 135.8 163.5 144 163.5C152.2 163.5 204.7 182.3 217.1 181.3C229.5 180.3 246.2 163.1 259.8 162.5C277.6 161.8 302.1 189.5 322.5 187.4C331.1 186.5 343.5 176.7 358.7 176.9C373.9 177.1 396.9 192.5 396.9 192.5L398.3 250.6L-6.5 237.5L-5.5 189.5Z" fill="#4D4D87"/>
<path d="M381.9 239.6C381.9 239.6 350.5 231.2 341.4 229.5C327.8 226.9 310.9 217.7 297.1 216.5C283.3 215.3 276.8 218.4 261.9 212.8C255.1 210.3 246.5 215.4 230.3 209.3C220.5 205.6 209.6 208.4 196.4 209.9C183.2 211.4 162.8 205.7 152.7 205.1C142.5 204.5 131.1 211.7 123.3 212.9C115.5 214.1 107.1 210.5 95.4 211.4C83.7 212.3 62.8 222.2 62.8 222.2C51.2 227.1 31.5 221.3 20.8 221.5C10.1 221.7 -4 227.4 -4 227.4L-3.1 278.7L380.1 277.1L381.9 239.6Z" fill="#F0F5FD"/>
<path d="M62.8001 222.3C62.8001 222.3 54.0001 233.8 56.9001 236.4C62.5001 241.5 84.5001 221.1 99.3001 221.5C119.3 222.1 120.9 219.1 105.7 218.7C90.5001 218.3 87.7001 215.7 95.5001 211.5C83.7001 212.4 62.8001 222.3 62.8001 222.3Z" fill="#D9E8FB"/>
<path d="M122.8 215.9C133 214.7 141.4 214.5 149.2 217.5C157 220.5 166.4 216.9 174 216.3C181.6 215.7 170.6 214.7 159.6 214.7C148.6 214.7 143.7 208.8 151.2 205.2C141.4 205.3 130.7 211.9 123.3 213C119.4 214.1 112.6 217.1 122.8 215.9Z" fill="#D9E8FB"/>
<path d="M220.9 218.1C224.5 218.3 228.6 218.5 232.5 218.6C237.2 218.8 242 218.8 245.9 218.8C251.2 218.8 251.7 218.7 248.7 217.4C247.7 216.9 246.7 216.3 245.9 215.5C242.5 212.3 261.8 212.8 261.8 212.8C257 211 251.2 213.1 242.5 212.2L242.4 212.3C236.9 212.4 229.1 214.3 220.6 215.8C216.8 216.5 214.1 217.8 220.9 218.1Z" fill="#D9E8FB"/>
<path d="M155.7 232.5C167.3 230.4 208.8 226.6 222.9 227.4C237.1 228.2 236.1 225 217.3 223.8C198.5 222.6 183.7 225 185.9 222C186.6 221.1 188.2 220.3 190 219.6C194.1 218.2 195.2 217.7 189.1 218.5C180.9 219.6 160.7 221.9 151.9 225.8C145.2 228.8 143.8 234.7 155.7 232.5Z" fill="#D9E8FB"/>
<path d="M269.1 218.4C272.7 218.9 276.3 219.6 279.8 220.7C277.7 221.3 275.5 221.6 273.4 221.7C271.6 221.8 269.3 222.5 273.4 223.3C283 224.9 292.8 225.7 302.6 225.7L285.1 218.8C285.1 218.8 288.9 217.2 297.2 216.5C289.8 215.9 284.5 216.4 278.9 216.3L269.1 216.9C269.1 216.9 264.6 217.7 269.1 218.4Z" fill="#D9E8FB"/>
<path d="M260.5 238.6C246.6 236.2 228 235.4 214.2 235.4C207.1 235.4 200.1 236.5 193.3 238.6C189.5 239.8 190.1 240.8 194.2 240.5C206.4 239.8 230.9 238.8 231.5 241C232.1 243 217 244 206.9 244.4C201.9 244.6 201 245.6 206.1 246.4C215.1 247.6 224.2 247.6 233.2 246.2C244.1 244.6 253 243 259 241.8C264.5 240.9 263 239.1 260.5 238.6Z" fill="#D9E8FB"/>
<path d="M80.8999 245.9C86.6999 247.2 94.5999 247.8 102.8 243.8C108.3 241.2 114.2 239.2 120.2 238.1C125.6 237 125.9 235.7 120.4 235.7C113.2 235.6 106 237.1 99.4999 240.1C93.4999 242.9 86.6999 243.8 81.5999 244C76.9999 244.1 77.8999 245.2 80.8999 245.9Z" fill="#D9E8FB"/>
<path d="M351.8 242.8C348.8 240.5 339.9 234.4 321.3 234.1C302.7 233.8 298.5 236.6 295.7 240.6C292.9 244.6 322.6 249.4 336.2 248.3C349.8 247.2 300.7 245.9 302.9 241C305.1 236.1 320.3 236.9 325.8 237.1C341.5 237.8 356.5 246.5 351.8 242.8Z" fill="#D9E8FB"/>
<path d="M146.1 232.3C139.1 232.6 141.7 238.5 151.1 237.9C160.5 237.4 161.1 231.7 146.1 232.3Z" fill="#BFDAF9"/>
<path d="M42.4999 240C40.0999 240.2 39.4999 243.3 41.4999 243.8C43.4999 244.3 46.1999 243.3 46.4999 242.3C46.7999 241.3 44.6999 239.8 42.4999 240Z" fill="#D9E8FB"/>
<path d="M20.7 221.6C25.4 222.2 17.6 234.5 11 238.5C4.39995 242.5 -9.30005 248.5 -9.30005 248.5L-4.10005 227.4C-4.10005 227.4 12.9 220.5 20.7 221.6Z" fill="#D9E8FB"/>
<path d="M275.7 235.2C271.5 234.7 270.1 238.5 274.5 239.2C278.9 239.9 279.5 235.7 275.7 235.2Z" fill="#D9E8FB"/>
<path d="M30.1 231.2C34.2 232.8 34.5 230.6 31.7 229.2C28.9 227.7 27.8 230.2 30.1 231.2Z" fill="#D9E8FB"/>
<path opacity="0.6" d="M287.2 134.5C286.7 136 288.4 137.5 290.2 136.9C291.3 136.5 291.8 135.4 291.5 134.3C291.4 133.9 291.1 133.6 290.8 133.3C289.7 132.6 288.2 132.9 287.4 134C287.4 134.2 287.3 134.3 287.2 134.5Z" fill="#646AA1"/>
<path opacity="0.6" d="M273.3 84.7C272.8 83.6 271.4 83.1 270.2 83.6C269.8 83.8 269.4 84.1 269.2 84.6C268.5 85.5 268.7 86.8 269.6 87.5C270 87.8 270.5 87.9 271 87.9C272.2 88 273.3 87.1 273.4 85.8C273.5 85.4 273.5 85 273.3 84.7Z" fill="#646AA1"/>
<path opacity="0.6" d="M43.3 90.1C42.6 88.1 39.5 87.8 38.2 89.9C37.4 91 37.6 92.7 38.7 93.5C39.2 93.9 39.9 94.1 40.5 94C42.1 94.1 43.4 92.9 43.5 91.4C43.6 90.9 43.5 90.5 43.3 90.1Z" fill="#646AA1"/>
<path opacity="0.6" d="M11.3999 83.6C11.0999 82.9 10.1999 82.6 9.49991 82.9C9.19991 83 8.99991 83.3 8.89991 83.5C8.49991 84.1 8.59991 84.9 9.19991 85.3C9.49991 85.5 9.79991 85.6 10.0999 85.6C10.8999 85.6 11.5999 85.1 11.5999 84.3C11.5999 84 11.4999 83.8 11.3999 83.6Z" fill="#646AA1"/>
<path opacity="0.6" d="M75.5999 56.2C74.6999 53.8 71.0999 53.4 69.3999 56C68.3999 57.4 68.6999 59.4 70.0999 60.4C70.6999 60.9 71.4999 61.1 72.2999 61C75.4999 60.9 76.3999 58.3 75.5999 56.2Z" fill="#646AA1"/>
<path opacity="0.6" d="M30.4999 119.9C29.7999 117.9 26.6999 117.6 25.3999 119.7C24.5999 120.9 24.7999 122.5 25.9999 123.3C26.4999 123.7 27.1999 123.9 27.7999 123.8C29.3999 123.9 30.6999 122.7 30.7999 121.2C30.7999 120.8 30.6999 120.3 30.4999 119.9Z" fill="#646AA1"/>
<path opacity="0.6" d="M22.9999 27.7C22.3999 28.2 22.1999 29.1 22.6999 29.8C22.8999 30.1 23.2999 30.3 23.6999 30.4C24.7999 30.6 26.0999 29.6 25.5999 28.5C25.2999 27.7 24.3999 27.2 23.4999 27.5C23.2999 27.5 23.1999 27.6 22.9999 27.7Z" fill="#646AA1"/>
<path opacity="0.6" d="M323.8 143.2C323.1 143.7 323 144.6 323.5 145.3C323.7 145.6 324.1 145.8 324.5 145.9C325.6 146.1 326.9 145.1 326.4 144C326.1 143.2 325.2 142.7 324.3 143C324.1 143 324 143.1 323.8 143.2Z" fill="#646AA1"/>
<path opacity="0.6" d="M272.1 29.2C271 30 270.7 31.6 271.6 32.7C272 33.3 272.6 33.6 273.3 33.7C275.2 34 277.3 32.4 276.5 30.4C276 29 274.4 28.2 273 28.7C272.7 28.8 272.4 29 272.1 29.2Z" fill="#646AA1"/>
<path opacity="0.6" d="M318.9 102.7C318 103.4 317.8 104.6 318.5 105.5C318.8 105.9 319.3 106.2 319.9 106.3C321.5 106.5 323.2 105.2 322.5 103.6C322.1 102.4 320.8 101.8 319.6 102.2C319.3 102.4 319.1 102.5 318.9 102.7Z" fill="#646AA1"/>
<path opacity="0.6" d="M342.3 43.9C341.8 44.3 341.7 45 342.1 45.6C342.3 45.9 342.6 46 342.9 46.1C343.8 46.2 344.8 45.5 344.4 44.5C344.2 43.8 343.4 43.5 342.7 43.7C342.6 43.7 342.4 43.8 342.3 43.9Z" fill="#646AA1"/>
<path opacity="0.6" d="M143.7 45.3C142.9 45.9 142.7 47 143.3 47.8C143.6 48.2 144 48.4 144.5 48.5C145.9 48.7 147.4 47.6 146.8 46.1C146.4 45.1 145.3 44.5 144.3 44.9C144.1 45 143.9 45.1 143.7 45.3Z" fill="#646AA1"/>
<path opacity="0.6" d="M184.9 10.6C183.5 10.5 182.3 11.6 182.3 13C182.3 13.7 182.5 14.3 183 14.8C184.3 16.2 186.9 16.4 187.6 14.3C188.1 12.8 187.3 11.2 185.8 10.7C185.5 10.6 185.2 10.6 184.9 10.6Z" fill="#646AA1"/>
<path opacity="0.6" d="M143.9 105.7C143 106.4 142.8 107.6 143.5 108.5C143.8 108.9 144.3 109.2 144.9 109.3C146.5 109.5 148.2 108.2 147.5 106.6C147.1 105.4 145.8 104.8 144.7 105.2C144.3 105.4 144.1 105.5 143.9 105.7Z" fill="#646AA1"/>
<path opacity="0.6" d="M228.2 51.3C227.6 51.7 227.5 52.5 227.9 53.1C228.1 53.4 228.4 53.6 228.8 53.6C229.7 53.7 230.8 53 230.4 51.9C230.1 51.2 229.4 50.8 228.6 51.1C228.5 51.1 228.4 51.2 228.2 51.3Z" fill="#646AA1"/>
<path opacity="0.6" d="M81.6 110C80.6 110.7 80.4 112.1 81.1 113.1C81.5 113.6 82 113.9 82.6 114C84.3 114.3 86.2 112.9 85.4 111.1C84.9 109.8 83.5 109.2 82.3 109.7C82 109.7 81.8 109.8 81.6 110Z" fill="#646AA1"/>
<path opacity="0.6" d="M132.6 135.1C132 135.5 131.9 136.4 132.3 137C132.5 137.3 132.8 137.5 133.2 137.5C134.2 137.6 135.3 136.8 134.9 135.7C134.6 134.9 133.8 134.5 133 134.8C132.9 134.9 132.8 135 132.6 135.1Z" fill="#646AA1"/>
<path opacity="0.6" d="M101.2 88.6C100.7 89 100.6 89.8 101 90.3C101.2 90.6 101.5 90.7 101.8 90.8C102.7 90.9 103.7 90.2 103.3 89.2C103.1 88.5 102.3 88.2 101.6 88.4C101.4 88.5 101.3 88.5 101.2 88.6Z" fill="#646AA1"/>
<path opacity="0.6" d="M246.9 115.6C246.4 116 246.3 116.8 246.7 117.3C246.9 117.6 247.2 117.7 247.5 117.8C248.4 117.9 249.4 117.2 249.1 116.2C248.8 115.5 248.1 115.1 247.4 115.4C247.1 115.4 247 115.5 246.9 115.6Z" fill="#646AA1"/>
<path opacity="0.6" d="M210.2 67C209.7 67.4 209.6 68.1 209.9 68.7C210.1 69 210.4 69.1 210.7 69.2C211.6 69.3 212.6 68.6 212.3 67.6C212.1 66.9 211.3 66.5 210.6 66.8C210.5 66.8 210.3 66.9 210.2 67Z" fill="#646AA1"/>
<path opacity="0.6" d="M222.3 89.8C221.9 90.1 221.9 90.6 222.1 90.9C222.2 91.1 222.4 91.2 222.6 91.2C223.2 91.3 223.9 90.8 223.6 90.1C223.4 89.6 222.9 89.4 222.5 89.6C222.5 89.7 222.4 89.7 222.3 89.8Z" fill="#646AA1"/>
<path opacity="0.6" d="M308.8 66C308.4 66.3 308.4 66.8 308.6 67.1C308.7 67.3 308.9 67.4 309.1 67.4C309.7 67.5 310.4 67 310.1 66.4C309.9 65.9 309.4 65.7 309 65.9C308.9 65.9 308.8 66 308.8 66Z" fill="#646AA1"/>
<path opacity="0.6" d="M352.2 138.3C351.8 138.6 351.8 139.1 352 139.4C352.1 139.6 352.3 139.7 352.5 139.7C353.1 139.8 353.8 139.3 353.5 138.6C353.3 138.1 352.8 137.9 352.4 138.1C352.4 138.2 352.3 138.3 352.2 138.3Z" fill="#646AA1"/>
<path opacity="0.6" d="M102.8 29.7C102.4 30 102.4 30.5 102.6 30.8C102.7 31 102.9 31.1 103.1 31.1C103.7 31.2 104.4 30.7 104.1 30C103.9 29.5 103.4 29.3 103 29.5C103 29.6 102.9 29.7 102.8 29.7Z" fill="#646AA1"/>
<path opacity="0.6" d="M20.9998 144.3C20.5998 144.6 20.5998 145.1 20.7998 145.4C20.8998 145.6 21.0998 145.7 21.2998 145.7C21.8998 145.8 22.5998 145.3 22.2998 144.7C22.0998 144.2 21.5998 144 21.1998 144.2C21.1998 144.2 21.0998 144.2 20.9998 144.3Z" fill="#646AA1"/>
<path opacity="0.6" d="M102.4 141.8C101.8 142.2 101.7 143.1 102.1 143.7C102.3 144 102.6 144.2 103 144.2C104 144.4 105.1 143.5 104.7 142.5C104.4 141.7 103.6 141.3 102.8 141.6C102.7 141.6 102.5 141.7 102.4 141.8Z" fill="#646AA1"/>
<path d="M63.1001 164.5C72.0001 169.9 91.0001 181.6 102.2 186C117.4 192 133.4 191.5 135.7 187.4C138 183.2 113 176.9 119.1 174C117.6 174.7 116 175.2 114.3 175.3C95.4001 174.5 76.6001 163.6 62.6001 160.7C56.8001 159.9 57.9001 161.4 63.1001 164.5Z" fill="#646AA1"/>
<path d="M276.7 173.2C282.5 178.2 298.6 195.1 303.6 195.7C308.6 196.3 322.8 188.3 331.9 184.5C328.4 186 325.3 187.2 322.5 187.5C303.2 189.5 280.3 164.8 262.8 162.7C256.5 163 270.9 168.2 276.7 173.2Z" fill="#646AA1"/>
<path d="M181.9 186.2C181.7 187.8 178.4 188.6 174.1 188.3C170.2 188.1 165.9 189.7 166 192L168.1 169.6L187.5 174.1L181.9 186.2Z" fill="#8147E0"/>
<path d="M161.9 178.7C172.8 178.7 182.4 181.6 181.9 186.3C181.7 187.9 178.4 188.7 174.1 188.4C170.2 188.2 165.9 189.8 166 192.1C166.1 194.8 169.2 197.7 177.9 195.7C228.1 184.2 234.8 198.2 274.5 167.8C277.7 165.3 281.4 163.3 274.8 159.4C228.2 131.6 229.9 114.3 189.7 109.6" fill="#9553F1"/>
<path d="M254.5 166.3C257.6 164.4 259.1 163.6 256.4 161.2C250.3 155.9 244.6 149.8 241.1 146.6C239.5 145.1 238.3 144.8 236.2 147.4C234.5 149.5 233.8 149.6 235.5 151.3C237.8 153.7 244 159.3 245.8 160.8C247.6 162.3 246 163.2 245 163.7C241.7 165.3 236.1 166.7 231.4 168.2C229.5 168.8 229.3 170.4 229.2 173C229.2 175.6 230.3 176.1 232.7 175.4C240.3 173.4 247.7 170.3 254.5 166.3Z" fill="#F8F9FE"/>
<path d="M231.8 139.2C229.1 138.7 228 139.3 226.9 140.5C218 150.1 209.7 160.4 202.3 171.2C200.9 173.2 199.5 174.8 202.6 175.2C205.7 175.6 207 174.9 207.9 173.6C216.1 162 225.3 151.2 232.9 142.5C234.5 140.5 233.9 139.5 231.8 139.2Z" fill="#F8F9FE"/>
<path d="M196.3 162.5C197.6 164 198.3 164.7 197.3 165.8C196.3 167 195.3 168.3 194.6 169C193.9 169.7 193.2 170.4 192.3 169.5C184.9 161.2 172.2 149.1 169.8 146.8C167.4 144.5 167.6 143.4 170.5 142.4C173.4 141.4 196.2 135.1 198.5 134.4C200.8 133.7 201.7 134.2 201.7 137.4C201.7 140.2 201.2 141.3 199.3 141.7C197.4 142.1 186.5 145.2 184.8 145.7C183.1 146.2 181.9 147.1 183.1 148.4C184.3 149.8 194.3 160.3 196.3 162.5Z" fill="#F8F9FE"/>
<path d="M172.4 93.5C179.2 94.5 191.4 97.9 191.1 106C190.8 114.1 181.9 186.2 181.9 186.2C182.4 181.5 172.9 178.6 161.9 178.6" fill="#AA75F4"/>
<path d="M168.2 74C175 71.5 179.5 76.9 180.8 80.4C182.1 83.9 181.7 90.8 174.4 92.9C169.4 94.3 163.6 91.6 162.3 86.3C161.2 82 162.8 76 168.2 74Z" fill="#FFAB00"/>
<path d="M171.1 87.7C167 87 165.8 89.8 165.8 89.8C165.8 89.8 154.6 164.3 145.1 231.4C144.6 235.2 146.9 236.6 149.2 237C151.6 237.4 154 236.9 154.4 233.6C163.2 163.8 175.7 90.5 175.7 90.5C175.7 90.5 175 88.4 171.1 87.7Z" fill="#FFD630"/>
<path d="M358.7 176.9C367 176.9 387.1 193.5 397.3 207.5L396.9 192.5C396.9 192.5 373.9 177.2 358.7 176.9Z" fill="#646AA1"/>
<path opacity="0.6" d="M352.8 83.3C352.3 83.7 352.2 84.4 352.6 85C352.8 85.3 353.1 85.4 353.4 85.5C354.3 85.6 355.3 84.9 354.9 83.9C354.7 83.2 353.9 82.9 353.2 83.1C353.1 83.1 353 83.2 352.8 83.3Z" fill="#646AA1"/>
</g>
<defs>
<clipPath id="clip0">
<rect width="375" height="250" fill="white"/>
</clipPath>
</defs>
</svg>
