<svg width="300" height="180" viewBox="0 0 300 180" fill="none" xmlns="http://www.w3.org/2000/svg">
<rect width="300" height="180" fill="#191B33"/>
<g clip-path="url(#clip0_1385_188)">
<rect width="220" height="24" transform="translate(40 20)" fill="#333661"/>
<rect x="44" y="24" width="40" height="16" rx="3" fill="#252746"/>
<rect x="48" y="29" width="19" height="6" rx="3" fill="#4A4D85"/>
<rect x="74" y="29" width="6" height="6" rx="3" fill="#4A4D85"/>
<rect x="86" y="24" width="152" height="16" rx="3" fill="#252746"/>
<rect x="90" y="29" width="36" height="6" rx="3" fill="#4A4D85"/>
<rect x="134" y="29" width="55" height="6" rx="3" fill="#4A4D85"/>
<g opacity="0.4">
<path d="M252.94 32.005C252.94 31.7348 252.804 31.4932 252.583 31.352V31.3425L252.497 31.3019L244.48 27.5147C244.48 27.5146 244.48 27.5146 244.48 27.5145C244.201 27.3814 243.877 27.4254 243.643 27.626C243.407 27.8275 243.317 28.1389 243.404 28.4345L243.404 28.4345L243.404 28.4352L244.464 32.0026L243.407 35.5642C243.407 35.5643 243.406 35.5644 243.406 35.5645C243.317 35.861 243.407 36.1731 243.646 36.3745C243.789 36.4966 243.966 36.5625 244.148 36.5625C244.26 36.5625 244.373 36.5377 244.48 36.489L244.48 36.489L244.482 36.4882L252.497 32.7057L252.497 32.7054C252.769 32.5758 252.94 32.3085 252.94 32.005ZM245.405 31.4725L244.589 28.724L251.521 32L244.586 35.2751L245.402 32.525H247.748H247.898V32.375V31.6225V31.4725H247.748H245.405Z" fill="white" stroke="white" stroke-width="0.3"/>
</g>
<path d="M132 27L128 37" stroke="#4A4D85" stroke-width="1.5"/>
<rect width="220" height="116" transform="translate(40 44)" fill="#252746"/>
<path d="M232.377 150.747C232.376 150.747 232.374 150.747 232.372 150.747C231.843 150.747 231.347 150.605 230.922 150.355L230.936 150.362L226.347 147.648C225.662 147.264 225.997 147.129 226.222 147.05C227.012 146.801 227.7 146.479 228.334 146.084L228.297 146.106C228.341 146.085 228.391 146.074 228.444 146.074C228.516 146.074 228.583 146.096 228.639 146.134L228.638 146.132L232.163 148.225C232.224 148.258 232.297 148.278 232.376 148.278C232.454 148.278 232.527 148.258 232.591 148.223L232.588 148.225L246.33 140.291C246.457 140.213 246.54 140.075 246.54 139.919C246.54 139.917 246.54 139.917 246.54 139.916V124.059C246.538 123.901 246.454 123.762 246.327 123.686L246.326 123.684L232.588 115.758C232.527 115.724 232.454 115.703 232.377 115.703C232.301 115.703 232.227 115.724 232.163 115.76L232.165 115.758L218.43 123.686C218.3 123.762 218.214 123.901 218.213 124.061V139.921C218.213 140.078 218.299 140.214 218.427 140.286L218.428 140.288L222.195 142.463C224.237 143.485 225.487 142.282 225.487 141.074V125.412C225.487 125.194 225.665 125.016 225.884 125.016H225.889H227.631C227.85 125.016 228.03 125.192 228.03 125.412V141.074C228.03 143.801 226.545 145.365 223.96 145.365C223.929 145.365 223.893 145.367 223.857 145.367C222.724 145.367 221.666 145.046 220.769 144.491L217.191 142.432C216.322 141.919 215.75 140.989 215.75 139.924V124.061C215.752 122.998 216.325 122.071 217.178 121.568L217.192 121.56L230.936 113.619C231.354 113.386 231.85 113.25 232.38 113.25C232.91 113.25 233.408 113.388 233.84 113.627L233.824 113.619L247.566 121.56C248.434 122.071 249.006 122.998 249.009 124.061V139.922C249.007 140.986 248.434 141.916 247.579 142.422L247.565 142.43L233.826 150.366C233.413 150.608 232.916 150.75 232.385 150.75C232.382 150.75 232.377 150.75 232.374 150.75L232.377 150.747Z" fill="#4A4D85"/>
<path d="M236.623 139.822C230.61 139.822 229.349 137.062 229.349 134.745V134.743C229.349 134.525 229.525 134.348 229.744 134.348H229.747H231.524C231.722 134.348 231.888 134.493 231.919 134.682C232.186 136.492 232.987 137.406 236.623 137.406C239.519 137.406 240.748 136.751 240.748 135.215C240.748 134.329 240.4 133.673 235.901 133.232C232.141 132.857 229.816 132.029 229.816 129.021C229.816 126.249 232.154 124.594 236.067 124.594C240.47 124.594 242.649 126.122 242.924 129.4C242.925 129.411 242.925 129.424 242.925 129.435C242.925 129.655 242.747 129.832 242.528 129.832H240.758C240.57 129.832 240.413 129.699 240.373 129.522V129.519C239.945 127.616 238.905 127.008 236.082 127.008C232.921 127.008 232.554 128.11 232.554 128.933C232.554 129.933 232.988 130.224 237.256 130.788C241.478 131.348 243.485 132.137 243.485 135.104C243.479 138.103 240.983 139.819 236.628 139.819L236.623 139.822Z" fill="#4A4D85"/>
<rect x="38" y="64" width="224" height="1" fill="#333661"/>
<rect x="38" y="43" width="224" height="1" fill="#4A4D85"/>
<rect x="48" y="73" width="50" height="8" rx="4" fill="#4A4D85"/>
<rect x="48" y="87" width="160" height="8" rx="4" fill="#4A4D85"/>
<rect x="48" y="101" width="30" height="8" rx="4" fill="#4A4D85"/>
<rect x="48" y="51" width="36" height="6" rx="3" fill="#4A4D85"/>
<rect x="232" y="51" width="20" height="6" rx="3" fill="#4A4D85"/>
</g>
<rect x="39.5" y="19.5" width="221" height="141" rx="4.5" stroke="#4A4D85"/>
<defs>
<clipPath id="clip0_1385_188">
<rect x="40" y="20" width="220" height="140" rx="4" fill="white"/>
</clipPath>
</defs>
</svg>
