<svg width="300" height="180" viewBox="0 0 300 180" fill="none" xmlns="http://www.w3.org/2000/svg">
<g clip-path="url(#clip0_1375_1496)">
<rect width="300" height="180" fill="#F1F1F1"/>
<path d="M97.7754 34.5469C97.7754 35.25 97.6322 35.8783 97.3457 36.4316C97.0658 36.985 96.6784 37.444 96.1836 37.8086C95.6107 38.2383 94.9792 38.5443 94.2891 38.7266C93.6055 38.9089 92.7363 39 91.6816 39H85.334V24.459H90.9785C92.1504 24.459 93.0065 24.498 93.5469 24.5762C94.0938 24.6543 94.6341 24.8268 95.168 25.0938C95.7214 25.3737 96.1315 25.7513 96.3984 26.2266C96.6719 26.6953 96.8086 27.2324 96.8086 27.8379C96.8086 28.541 96.623 29.1628 96.252 29.7031C95.8809 30.237 95.3568 30.6536 94.6797 30.9531V31.0312C95.6302 31.2201 96.3822 31.6107 96.9355 32.2031C97.4954 32.7956 97.7754 33.5768 97.7754 34.5469ZM92.9707 28.5703C92.9707 28.3294 92.9089 28.0885 92.7852 27.8477C92.668 27.6068 92.4564 27.4277 92.1504 27.3105C91.877 27.2064 91.5352 27.151 91.125 27.1445C90.7214 27.1315 90.1517 27.125 89.416 27.125H89.0645V30.2012H89.6504C90.2428 30.2012 90.7474 30.1914 91.1641 30.1719C91.5807 30.1523 91.9095 30.0872 92.1504 29.9766C92.4889 29.8268 92.7103 29.6348 92.8145 29.4004C92.9186 29.1595 92.9707 28.8828 92.9707 28.5703ZM93.8887 34.4883C93.8887 34.026 93.7975 33.6712 93.6152 33.4238C93.4395 33.1699 93.1367 32.9811 92.707 32.8574C92.4141 32.7728 92.0104 32.7272 91.4961 32.7207C90.9818 32.7142 90.4447 32.7109 89.8848 32.7109H89.0645V36.334H89.3379C90.3926 36.334 91.1478 36.3307 91.6035 36.3242C92.0592 36.3177 92.4792 36.2331 92.8633 36.0703C93.2539 35.9076 93.5208 35.6927 93.6641 35.4258C93.8138 35.1523 93.8887 34.8398 93.8887 34.4883ZM111.174 34.166H103.127C103.179 35.0254 103.505 35.6829 104.104 36.1387C104.709 36.5944 105.598 36.8223 106.77 36.8223C107.512 36.8223 108.231 36.6888 108.928 36.4219C109.624 36.1549 110.174 35.8685 110.578 35.5625H110.969V38.3848C110.174 38.7038 109.426 38.9349 108.723 39.0781C108.02 39.2214 107.242 39.293 106.389 39.293C104.188 39.293 102.502 38.7982 101.33 37.8086C100.158 36.819 99.5723 35.4095 99.5723 33.5801C99.5723 31.7702 100.126 30.3379 101.232 29.2832C102.346 28.222 103.869 27.6914 105.803 27.6914C107.587 27.6914 108.928 28.1439 109.826 29.0488C110.725 29.9473 111.174 31.2428 111.174 32.9355V34.166ZM107.678 32.1055C107.658 31.3698 107.476 30.8164 107.131 30.4453C106.786 30.0742 106.249 29.8887 105.52 29.8887C104.842 29.8887 104.286 30.0645 103.85 30.416C103.413 30.7676 103.169 31.3307 103.117 32.1055H107.678ZM123.186 35.5234C123.186 36.6562 122.678 37.571 121.662 38.2676C120.646 38.9577 119.257 39.3027 117.492 39.3027C116.516 39.3027 115.63 39.2116 114.836 39.0293C114.042 38.847 113.404 38.6452 112.922 38.4238V35.5332H113.244C113.42 35.6569 113.622 35.7936 113.85 35.9434C114.084 36.0866 114.413 36.2428 114.836 36.4121C115.201 36.5618 115.614 36.6921 116.076 36.8027C116.538 36.9069 117.033 36.959 117.561 36.959C118.251 36.959 118.762 36.8841 119.094 36.7344C119.426 36.5781 119.592 36.3503 119.592 36.0508C119.592 35.7839 119.494 35.5918 119.299 35.4746C119.104 35.3509 118.732 35.2337 118.186 35.123C117.925 35.0645 117.57 35.0026 117.121 34.9375C116.678 34.8659 116.275 34.7812 115.91 34.6836C114.914 34.4232 114.175 34.0195 113.693 33.4727C113.212 32.9193 112.971 32.2324 112.971 31.4121C112.971 30.3574 113.469 29.4818 114.465 28.7852C115.467 28.082 116.835 27.7305 118.566 27.7305C119.387 27.7305 120.171 27.8151 120.92 27.9844C121.675 28.1471 122.264 28.3229 122.688 28.5117V31.2852H122.385C121.864 30.9271 121.268 30.6374 120.598 30.416C119.934 30.1882 119.26 30.0742 118.576 30.0742C118.01 30.0742 117.531 30.1523 117.141 30.3086C116.757 30.4648 116.564 30.6862 116.564 30.9727C116.564 31.2331 116.652 31.4316 116.828 31.5684C117.004 31.7051 117.417 31.8418 118.068 31.9785C118.426 32.0501 118.811 32.1217 119.221 32.1934C119.637 32.2585 120.054 32.3431 120.471 32.4473C121.395 32.6882 122.079 33.069 122.521 33.5898C122.964 34.1042 123.186 34.7487 123.186 35.5234ZM132.541 38.9023C132.163 39 131.763 39.0749 131.34 39.127C130.917 39.1855 130.399 39.2148 129.787 39.2148C128.42 39.2148 127.401 38.9382 126.73 38.3848C126.066 37.8314 125.734 36.8841 125.734 35.543V30.416H124.289V28.0332H125.734V24.8984H129.25V28.0332H132.541V30.416H129.25V34.3027C129.25 34.6868 129.253 35.0221 129.26 35.3086C129.266 35.5951 129.318 35.8522 129.416 36.0801C129.507 36.3079 129.667 36.4902 129.895 36.627C130.129 36.7572 130.467 36.8223 130.91 36.8223C131.092 36.8223 131.33 36.7832 131.623 36.7051C131.923 36.627 132.131 36.5553 132.248 36.4902H132.541V38.9023ZM156.926 39H153.195V29.2637L150.5 35.582H147.912L145.217 29.2637V39H141.682V24.459H146.037L149.309 31.7539L152.57 24.459H156.926V39ZM171.662 33.5215C171.662 35.3249 171.135 36.7474 170.08 37.7891C169.032 38.8242 167.557 39.3418 165.656 39.3418C163.755 39.3418 162.277 38.8242 161.223 37.7891C160.174 36.7474 159.65 35.3249 159.65 33.5215C159.65 31.7051 160.178 30.2793 161.232 29.2441C162.294 28.209 163.768 27.6914 165.656 27.6914C167.57 27.6914 169.048 28.2122 170.09 29.2539C171.138 30.2956 171.662 31.7181 171.662 33.5215ZM167.336 36.1875C167.564 35.9076 167.733 35.5723 167.844 35.1816C167.961 34.7845 168.02 34.2376 168.02 33.541C168.02 32.8965 167.961 32.3561 167.844 31.9199C167.727 31.4837 167.564 31.1354 167.355 30.875C167.147 30.6081 166.896 30.4193 166.604 30.3086C166.311 30.1979 165.995 30.1426 165.656 30.1426C165.318 30.1426 165.015 30.1882 164.748 30.2793C164.488 30.3704 164.237 30.5527 163.996 30.8262C163.781 31.0801 163.609 31.4284 163.479 31.8711C163.355 32.3138 163.293 32.8704 163.293 33.541C163.293 34.14 163.348 34.6608 163.459 35.1035C163.57 35.5397 163.732 35.8913 163.947 36.1582C164.156 36.4121 164.403 36.5977 164.689 36.7148C164.982 36.832 165.314 36.8906 165.686 36.8906C166.005 36.8906 166.307 36.8385 166.594 36.7344C166.887 36.6237 167.134 36.4414 167.336 36.1875ZM185.227 28.0332L180.998 39H177.014L172.814 28.0332H176.535L179.074 35.5723L181.584 28.0332H185.227ZM190.705 39H187.189V28.0332H190.705V39ZM190.803 26.4707H187.092V23.8047H190.803V26.4707ZM204.826 34.166H196.779C196.831 35.0254 197.157 35.6829 197.756 36.1387C198.361 36.5944 199.25 36.8223 200.422 36.8223C201.164 36.8223 201.883 36.6888 202.58 36.4219C203.277 36.1549 203.827 35.8685 204.23 35.5625H204.621V38.3848C203.827 38.7038 203.078 38.9349 202.375 39.0781C201.672 39.2214 200.894 39.293 200.041 39.293C197.84 39.293 196.154 38.7982 194.982 37.8086C193.811 36.819 193.225 35.4095 193.225 33.5801C193.225 31.7702 193.778 30.3379 194.885 29.2832C195.998 28.222 197.521 27.6914 199.455 27.6914C201.239 27.6914 202.58 28.1439 203.479 29.0488C204.377 29.9473 204.826 31.2428 204.826 32.9355V34.166ZM201.33 32.1055C201.311 31.3698 201.128 30.8164 200.783 30.4453C200.438 30.0742 199.901 29.8887 199.172 29.8887C198.495 29.8887 197.938 30.0645 197.502 30.416C197.066 30.7676 196.822 31.3307 196.77 32.1055H201.33ZM216.838 35.5234C216.838 36.6562 216.33 37.571 215.314 38.2676C214.299 38.9577 212.909 39.3027 211.145 39.3027C210.168 39.3027 209.283 39.2116 208.488 39.0293C207.694 38.847 207.056 38.6452 206.574 38.4238V35.5332H206.896C207.072 35.6569 207.274 35.7936 207.502 35.9434C207.736 36.0866 208.065 36.2428 208.488 36.4121C208.853 36.5618 209.266 36.6921 209.729 36.8027C210.191 36.9069 210.686 36.959 211.213 36.959C211.903 36.959 212.414 36.8841 212.746 36.7344C213.078 36.5781 213.244 36.3503 213.244 36.0508C213.244 35.7839 213.146 35.5918 212.951 35.4746C212.756 35.3509 212.385 35.2337 211.838 35.123C211.577 35.0645 211.223 35.0026 210.773 34.9375C210.331 34.8659 209.927 34.7812 209.562 34.6836C208.566 34.4232 207.827 34.0195 207.346 33.4727C206.864 32.9193 206.623 32.2324 206.623 31.4121C206.623 30.3574 207.121 29.4818 208.117 28.7852C209.12 28.082 210.487 27.7305 212.219 27.7305C213.039 27.7305 213.824 27.8151 214.572 27.9844C215.327 28.1471 215.917 28.3229 216.34 28.5117V31.2852H216.037C215.516 30.9271 214.921 30.6374 214.25 30.416C213.586 30.1882 212.912 30.0742 212.229 30.0742C211.662 30.0742 211.184 30.1523 210.793 30.3086C210.409 30.4648 210.217 30.6862 210.217 30.9727C210.217 31.2331 210.305 31.4316 210.48 31.5684C210.656 31.7051 211.07 31.8418 211.721 31.9785C212.079 32.0501 212.463 32.1217 212.873 32.1934C213.29 32.2585 213.706 32.3431 214.123 32.4473C215.048 32.6882 215.731 33.069 216.174 33.5898C216.617 34.1042 216.838 34.7487 216.838 35.5234Z" fill="black"/>
<path d="M83.4785 41.3828H217.512V43.4434H83.4785V41.3828Z" fill="black"/>
<rect x="164.25" y="57.25" width="55.5" height="13.5" rx="1.75" fill="#F9F9F9"/>
<rect x="164.25" y="57.25" width="55.5" height="13.5" rx="1.75" stroke="#A9A9A9" stroke-width="0.5"/>
<path d="M172.468 65.1289C172.468 65.5586 172.285 65.9082 171.92 66.1777C171.557 66.4453 171.062 66.5791 170.438 66.5791C170.076 66.5791 169.761 66.5479 169.491 66.4854C169.224 66.4209 168.973 66.3398 168.738 66.2422V65.1963H168.861C169.094 65.3818 169.354 65.5244 169.641 65.624C169.93 65.7236 170.207 65.7734 170.473 65.7734C170.541 65.7734 170.631 65.7676 170.742 65.7559C170.854 65.7441 170.944 65.7246 171.015 65.6973C171.101 65.6621 171.171 65.6182 171.226 65.5654C171.282 65.5127 171.311 65.4346 171.311 65.3311C171.311 65.2354 171.27 65.1533 171.188 65.085C171.107 65.0146 170.989 64.9609 170.833 64.9238C170.669 64.8848 170.495 64.8486 170.312 64.8154C170.13 64.7803 169.959 64.7363 169.799 64.6836C169.432 64.5645 169.167 64.4033 169.005 64.2002C168.845 63.9951 168.765 63.7412 168.765 63.4385C168.765 63.0322 168.946 62.7012 169.31 62.4453C169.675 62.1875 170.144 62.0586 170.716 62.0586C171.003 62.0586 171.286 62.0869 171.565 62.1436C171.847 62.1982 172.09 62.2676 172.295 62.3516V63.3564H172.175C171.999 63.2158 171.783 63.0986 171.527 63.0049C171.273 62.9092 171.014 62.8613 170.748 62.8613C170.654 62.8613 170.561 62.8682 170.467 62.8818C170.375 62.8936 170.286 62.917 170.2 62.9521C170.124 62.9814 170.059 63.0264 170.004 63.0869C169.949 63.1455 169.922 63.2129 169.922 63.2891C169.922 63.4043 169.966 63.4932 170.054 63.5557C170.142 63.6162 170.308 63.6719 170.552 63.7227C170.712 63.7559 170.865 63.7881 171.012 63.8193C171.16 63.8506 171.319 63.8936 171.489 63.9482C171.823 64.0576 172.069 64.207 172.228 64.3965C172.388 64.584 172.468 64.8281 172.468 65.1289ZM176.546 64.8564C176.546 65.3975 176.388 65.8242 176.071 66.1367C175.757 66.4473 175.314 66.6025 174.744 66.6025C174.174 66.6025 173.73 66.4473 173.414 66.1367C173.1 65.8242 172.942 65.3975 172.942 64.8564C172.942 64.3115 173.101 63.8838 173.417 63.5732C173.735 63.2627 174.178 63.1074 174.744 63.1074C175.318 63.1074 175.762 63.2637 176.074 63.5762C176.389 63.8887 176.546 64.3154 176.546 64.8564ZM175.248 65.6562C175.316 65.5723 175.367 65.4717 175.4 65.3545C175.436 65.2354 175.453 65.0713 175.453 64.8623C175.453 64.6689 175.436 64.5068 175.4 64.376C175.365 64.2451 175.316 64.1406 175.254 64.0625C175.191 63.9824 175.116 63.9258 175.028 63.8926C174.94 63.8594 174.846 63.8428 174.744 63.8428C174.643 63.8428 174.552 63.8564 174.472 63.8838C174.394 63.9111 174.318 63.9658 174.246 64.0479C174.182 64.124 174.13 64.2285 174.091 64.3613C174.054 64.4941 174.035 64.6611 174.035 64.8623C174.035 65.042 174.052 65.1982 174.085 65.3311C174.118 65.4619 174.167 65.5674 174.231 65.6475C174.294 65.7236 174.368 65.7793 174.454 65.8145C174.542 65.8496 174.642 65.8672 174.753 65.8672C174.849 65.8672 174.939 65.8516 175.025 65.8203C175.113 65.7871 175.188 65.7324 175.248 65.6562ZM179.687 64.2148H179.593C179.548 64.1992 179.476 64.1875 179.376 64.1797C179.276 64.1719 179.193 64.168 179.127 64.168C178.977 64.168 178.844 64.1777 178.729 64.1973C178.613 64.2168 178.489 64.25 178.356 64.2969V66.5H177.302V63.21H178.356V63.6934C178.589 63.4941 178.791 63.3623 178.963 63.2979C179.135 63.2314 179.293 63.1982 179.438 63.1982C179.475 63.1982 179.517 63.1992 179.563 63.2012C179.61 63.2031 179.651 63.2061 179.687 63.21V64.2148ZM182.388 66.4707C182.274 66.5 182.154 66.5225 182.027 66.5381C181.9 66.5557 181.745 66.5645 181.562 66.5645C181.151 66.5645 180.846 66.4814 180.645 66.3154C180.445 66.1494 180.346 65.8652 180.346 65.4629V63.9248H179.912V63.21H180.346V62.2695H181.4V63.21H182.388V63.9248H181.4V65.0908C181.4 65.2061 181.401 65.3066 181.403 65.3926C181.405 65.4785 181.421 65.5557 181.45 65.624C181.478 65.6924 181.525 65.7471 181.594 65.7881C181.664 65.8271 181.766 65.8467 181.898 65.8467C181.953 65.8467 182.024 65.835 182.112 65.8115C182.202 65.7881 182.265 65.7666 182.3 65.7471H182.388V66.4707ZM188.505 64.8096C188.505 65.3271 188.361 65.749 188.074 66.0752C187.789 66.4014 187.433 66.5645 187.005 66.5645C186.821 66.5645 186.66 66.5449 186.521 66.5059C186.383 66.4668 186.251 66.4102 186.126 66.3359L186.082 66.5H185.071V61.9414H186.126V63.5527C186.288 63.4238 186.453 63.3193 186.621 63.2393C186.791 63.1592 186.986 63.1191 187.207 63.1191C187.623 63.1191 187.943 63.2695 188.168 63.5703C188.393 63.8691 188.505 64.2822 188.505 64.8096ZM187.418 64.8301C187.418 64.5371 187.368 64.3115 187.269 64.1533C187.169 63.9951 186.991 63.916 186.735 63.916C186.636 63.916 186.533 63.9316 186.428 63.9629C186.322 63.9922 186.222 64.0352 186.126 64.0918V65.7441C186.202 65.7715 186.274 65.79 186.343 65.7998C186.411 65.8096 186.493 65.8145 186.589 65.8145C186.868 65.8145 187.076 65.7324 187.213 65.5684C187.35 65.4043 187.418 65.1582 187.418 64.8301ZM190.752 65.3369L191.502 63.21H192.586L190.758 67.707H189.615L190.137 66.4766L188.856 63.21H189.964L190.752 65.3369ZM198.431 66.5H195.284V62.1377H196.409V65.6562H198.431V66.5ZM201.044 65.6416V64.9561C200.901 64.9678 200.747 64.9844 200.581 65.0059C200.415 65.0254 200.289 65.0488 200.203 65.0762C200.098 65.1094 200.017 65.1582 199.96 65.2227C199.905 65.2852 199.878 65.3682 199.878 65.4717C199.878 65.54 199.884 65.5957 199.896 65.6387C199.907 65.6816 199.937 65.7227 199.983 65.7617C200.028 65.8008 200.082 65.8301 200.145 65.8496C200.207 65.8672 200.305 65.876 200.438 65.876C200.543 65.876 200.649 65.8545 200.757 65.8115C200.866 65.7686 200.962 65.7119 201.044 65.6416ZM201.044 66.1514C200.987 66.1943 200.917 66.2461 200.833 66.3066C200.749 66.3672 200.67 66.415 200.596 66.4502C200.492 66.4971 200.385 66.5312 200.273 66.5527C200.162 66.5762 200.04 66.5879 199.907 66.5879C199.595 66.5879 199.333 66.4912 199.122 66.2979C198.911 66.1045 198.806 65.8574 198.806 65.5566C198.806 65.3164 198.859 65.1201 198.967 64.9678C199.074 64.8154 199.227 64.6953 199.424 64.6074C199.619 64.5195 199.861 64.457 200.15 64.4199C200.439 64.3828 200.739 64.3555 201.05 64.3379V64.3203C201.05 64.1387 200.976 64.0137 200.827 63.9453C200.679 63.875 200.46 63.8398 200.171 63.8398C199.997 63.8398 199.812 63.8711 199.614 63.9336C199.417 63.9941 199.275 64.041 199.189 64.0742H199.093V63.2803C199.204 63.251 199.385 63.2168 199.635 63.1777C199.887 63.1367 200.139 63.1162 200.391 63.1162C200.99 63.1162 201.423 63.209 201.688 63.3945C201.956 63.5781 202.09 63.8672 202.09 64.2617V66.5H201.044V66.1514ZM205.163 66.4707C205.05 66.5 204.93 66.5225 204.803 66.5381C204.676 66.5557 204.521 66.5645 204.337 66.5645C203.927 66.5645 203.621 66.4814 203.42 66.3154C203.221 66.1494 203.121 65.8652 203.121 65.4629V63.9248H202.688V63.21H203.121V62.2695H204.176V63.21H205.163V63.9248H204.176V65.0908C204.176 65.2061 204.177 65.3066 204.179 65.3926C204.181 65.4785 204.196 65.5557 204.226 65.624C204.253 65.6924 204.301 65.7471 204.369 65.7881C204.439 65.8271 204.541 65.8467 204.674 65.8467C204.729 65.8467 204.8 65.835 204.888 65.8115C204.978 65.7881 205.04 65.7666 205.075 65.7471H205.163V66.4707ZM209.036 65.0498H206.622C206.638 65.3076 206.735 65.5049 206.915 65.6416C207.097 65.7783 207.363 65.8467 207.715 65.8467C207.938 65.8467 208.153 65.8066 208.362 65.7266C208.571 65.6465 208.736 65.5605 208.857 65.4688H208.975V66.3154C208.736 66.4111 208.512 66.4805 208.301 66.5234C208.09 66.5664 207.856 66.5879 207.601 66.5879C206.94 66.5879 206.435 66.4395 206.083 66.1426C205.731 65.8457 205.556 65.4229 205.556 64.874C205.556 64.3311 205.722 63.9014 206.054 63.585C206.388 63.2666 206.845 63.1074 207.425 63.1074C207.96 63.1074 208.362 63.2432 208.632 63.5146C208.901 63.7842 209.036 64.1729 209.036 64.6807V65.0498ZM207.987 64.4316C207.981 64.2109 207.927 64.0449 207.823 63.9336C207.72 63.8223 207.559 63.7666 207.34 63.7666C207.137 63.7666 206.97 63.8193 206.839 63.9248C206.708 64.0303 206.635 64.1992 206.619 64.4316H207.987ZM212.64 65.457C212.64 65.7969 212.487 66.0713 212.183 66.2803C211.878 66.4873 211.461 66.5908 210.932 66.5908C210.639 66.5908 210.373 66.5635 210.135 66.5088C209.896 66.4541 209.705 66.3936 209.561 66.3271V65.46H209.657C209.71 65.4971 209.771 65.5381 209.839 65.583C209.909 65.626 210.008 65.6729 210.135 65.7236C210.244 65.7686 210.368 65.8076 210.507 65.8408C210.646 65.8721 210.794 65.8877 210.952 65.8877C211.159 65.8877 211.312 65.8652 211.412 65.8203C211.512 65.7734 211.562 65.7051 211.562 65.6152C211.562 65.5352 211.532 65.4775 211.474 65.4424C211.415 65.4053 211.304 65.3701 211.14 65.3369C211.062 65.3193 210.955 65.3008 210.82 65.2812C210.688 65.2598 210.566 65.2344 210.457 65.2051C210.158 65.127 209.937 65.0059 209.792 64.8418C209.647 64.6758 209.575 64.4697 209.575 64.2236C209.575 63.9072 209.725 63.6445 210.023 63.4355C210.324 63.2246 210.734 63.1191 211.254 63.1191C211.5 63.1191 211.735 63.1445 211.96 63.1953C212.187 63.2441 212.363 63.2969 212.49 63.3535V64.1855H212.399C212.243 64.0781 212.064 63.9912 211.863 63.9248C211.664 63.8564 211.462 63.8223 211.257 63.8223C211.087 63.8223 210.943 63.8457 210.826 63.8926C210.711 63.9395 210.653 64.0059 210.653 64.0918C210.653 64.1699 210.68 64.2295 210.732 64.2705C210.785 64.3115 210.909 64.3525 211.104 64.3936C211.212 64.415 211.327 64.4365 211.45 64.458C211.575 64.4775 211.7 64.5029 211.825 64.5342C212.103 64.6064 212.308 64.7207 212.44 64.877C212.573 65.0312 212.64 65.2246 212.64 65.457ZM215.446 66.4707C215.333 66.5 215.213 66.5225 215.086 66.5381C214.959 66.5557 214.804 66.5645 214.62 66.5645C214.21 66.5645 213.904 66.4814 213.703 66.3154C213.504 66.1494 213.404 65.8652 213.404 65.4629V63.9248H212.971V63.21H213.404V62.2695H214.459V63.21H215.446V63.9248H214.459V65.0908C214.459 65.2061 214.46 65.3066 214.462 65.3926C214.464 65.4785 214.479 65.5557 214.509 65.624C214.536 65.6924 214.584 65.7471 214.652 65.7881C214.723 65.8271 214.824 65.8467 214.957 65.8467C215.012 65.8467 215.083 65.835 215.171 65.8115C215.261 65.7881 215.323 65.7666 215.358 65.7471H215.446V66.4707Z" fill="black"/>
<rect x="224.25" y="57.25" width="55.5" height="13.5" rx="1.75" fill="#F9F9F9"/>
<rect x="224.25" y="57.25" width="55.5" height="13.5" rx="1.75" stroke="#A9A9A9" stroke-width="0.5"/>
<path d="M232.078 65.1289C232.078 65.5586 231.896 65.9082 231.53 66.1777C231.167 66.4453 230.673 66.5791 230.048 66.5791C229.687 66.5791 229.371 66.5479 229.102 66.4854C228.834 66.4209 228.583 66.3398 228.349 66.2422V65.1963H228.472C228.704 65.3818 228.964 65.5244 229.251 65.624C229.54 65.7236 229.817 65.7734 230.083 65.7734C230.151 65.7734 230.241 65.7676 230.353 65.7559C230.464 65.7441 230.555 65.7246 230.625 65.6973C230.711 65.6621 230.781 65.6182 230.836 65.5654C230.893 65.5127 230.921 65.4346 230.921 65.3311C230.921 65.2354 230.88 65.1533 230.798 65.085C230.718 65.0146 230.6 64.9609 230.443 64.9238C230.279 64.8848 230.105 64.8486 229.922 64.8154C229.74 64.7803 229.569 64.7363 229.409 64.6836C229.042 64.5645 228.777 64.4033 228.615 64.2002C228.455 63.9951 228.375 63.7412 228.375 63.4385C228.375 63.0322 228.557 62.7012 228.92 62.4453C229.285 62.1875 229.754 62.0586 230.326 62.0586C230.613 62.0586 230.896 62.0869 231.176 62.1436C231.457 62.1982 231.7 62.2676 231.905 62.3516V63.3564H231.785C231.609 63.2158 231.394 63.0986 231.138 63.0049C230.884 62.9092 230.624 62.8613 230.358 62.8613C230.265 62.8613 230.171 62.8682 230.077 62.8818C229.985 62.8936 229.896 62.917 229.811 62.9521C229.734 62.9814 229.669 63.0264 229.614 63.0869C229.56 63.1455 229.532 63.2129 229.532 63.2891C229.532 63.4043 229.576 63.4932 229.664 63.5557C229.752 63.6162 229.918 63.6719 230.162 63.7227C230.322 63.7559 230.476 63.7881 230.622 63.8193C230.771 63.8506 230.93 63.8936 231.1 63.9482C231.434 64.0576 231.68 64.207 231.838 64.3965C231.998 64.584 232.078 64.8281 232.078 65.1289ZM236.156 64.8564C236.156 65.3975 235.998 65.8242 235.682 66.1367C235.367 66.4473 234.925 66.6025 234.354 66.6025C233.784 66.6025 233.341 66.4473 233.024 66.1367C232.71 65.8242 232.553 65.3975 232.553 64.8564C232.553 64.3115 232.711 63.8838 233.027 63.5732C233.346 63.2627 233.788 63.1074 234.354 63.1074C234.929 63.1074 235.372 63.2637 235.685 63.5762C235.999 63.8887 236.156 64.3154 236.156 64.8564ZM234.858 65.6562C234.927 65.5723 234.978 65.4717 235.011 65.3545C235.046 65.2354 235.063 65.0713 235.063 64.8623C235.063 64.6689 235.046 64.5068 235.011 64.376C234.976 64.2451 234.927 64.1406 234.864 64.0625C234.802 63.9824 234.727 63.9258 234.639 63.8926C234.551 63.8594 234.456 63.8428 234.354 63.8428C234.253 63.8428 234.162 63.8564 234.082 63.8838C234.004 63.9111 233.929 63.9658 233.856 64.0479C233.792 64.124 233.74 64.2285 233.701 64.3613C233.664 64.4941 233.646 64.6611 233.646 64.8623C233.646 65.042 233.662 65.1982 233.695 65.3311C233.729 65.4619 233.777 65.5674 233.842 65.6475C233.904 65.7236 233.979 65.7793 234.064 65.8145C234.152 65.8496 234.252 65.8672 234.363 65.8672C234.459 65.8672 234.55 65.8516 234.636 65.8203C234.724 65.7871 234.798 65.7324 234.858 65.6562ZM239.297 64.2148H239.203C239.158 64.1992 239.086 64.1875 238.986 64.1797C238.887 64.1719 238.804 64.168 238.737 64.168C238.587 64.168 238.454 64.1777 238.339 64.1973C238.224 64.2168 238.1 64.25 237.967 64.2969V66.5H236.912V63.21H237.967V63.6934C238.199 63.4941 238.401 63.3623 238.573 63.2979C238.745 63.2314 238.903 63.1982 239.048 63.1982C239.085 63.1982 239.127 63.1992 239.174 63.2012C239.221 63.2031 239.262 63.2061 239.297 63.21V64.2148ZM241.998 66.4707C241.885 66.5 241.765 66.5225 241.638 66.5381C241.511 66.5557 241.355 66.5645 241.172 66.5645C240.762 66.5645 240.456 66.4814 240.255 66.3154C240.056 66.1494 239.956 65.8652 239.956 65.4629V63.9248H239.522V63.21H239.956V62.2695H241.011V63.21H241.998V63.9248H241.011V65.0908C241.011 65.2061 241.012 65.3066 241.014 65.3926C241.016 65.4785 241.031 65.5557 241.061 65.624C241.088 65.6924 241.136 65.7471 241.204 65.7881C241.274 65.8271 241.376 65.8467 241.509 65.8467C241.563 65.8467 241.635 65.835 241.723 65.8115C241.812 65.7881 241.875 65.7666 241.91 65.7471H241.998V66.4707ZM248.115 64.8096C248.115 65.3271 247.972 65.749 247.685 66.0752C247.399 66.4014 247.043 66.5645 246.615 66.5645C246.432 66.5645 246.271 66.5449 246.132 66.5059C245.993 66.4668 245.861 66.4102 245.736 66.3359L245.692 66.5H244.682V61.9414H245.736V63.5527C245.898 63.4238 246.063 63.3193 246.231 63.2393C246.401 63.1592 246.597 63.1191 246.817 63.1191C247.233 63.1191 247.554 63.2695 247.778 63.5703C248.003 63.8691 248.115 64.2822 248.115 64.8096ZM247.028 64.8301C247.028 64.5371 246.979 64.3115 246.879 64.1533C246.779 63.9951 246.602 63.916 246.346 63.916C246.246 63.916 246.144 63.9316 246.038 63.9629C245.933 63.9922 245.832 64.0352 245.736 64.0918V65.7441C245.812 65.7715 245.885 65.79 245.953 65.7998C246.021 65.8096 246.104 65.8145 246.199 65.8145C246.479 65.8145 246.687 65.7324 246.823 65.5684C246.96 65.4043 247.028 65.1582 247.028 64.8301ZM250.362 65.3369L251.112 63.21H252.196L250.368 67.707H249.226L249.747 66.4766L248.467 63.21H249.574L250.362 65.3369ZM259.137 64.3203C259.137 65.0156 258.938 65.5684 258.539 65.9785C258.141 66.3867 257.59 66.5908 256.887 66.5908C256.186 66.5908 255.636 66.3867 255.237 65.9785C254.839 65.5684 254.64 65.0156 254.64 64.3203C254.64 63.6191 254.839 63.0654 255.237 62.6592C255.636 62.251 256.186 62.0469 256.887 62.0469C257.586 62.0469 258.136 62.251 258.536 62.6592C258.937 63.0654 259.137 63.6191 259.137 64.3203ZM257.646 65.4248C257.755 65.292 257.836 65.1357 257.889 64.9561C257.941 64.7744 257.968 64.5615 257.968 64.3174C257.968 64.0557 257.938 63.833 257.877 63.6494C257.816 63.4658 257.737 63.3174 257.64 63.2041C257.54 63.0869 257.425 63.002 257.294 62.9492C257.165 62.8965 257.03 62.8701 256.89 62.8701C256.747 62.8701 256.612 62.8955 256.485 62.9463C256.36 62.9971 256.245 63.0811 256.14 63.1982C256.042 63.3076 255.962 63.459 255.899 63.6523C255.839 63.8438 255.809 64.0664 255.809 64.3203C255.809 64.5801 255.838 64.8018 255.896 64.9854C255.957 65.167 256.036 65.3154 256.134 65.4307C256.231 65.5459 256.346 65.6309 256.477 65.6855C256.607 65.7402 256.745 65.7676 256.89 65.7676C257.034 65.7676 257.172 65.7402 257.303 65.6855C257.434 65.6289 257.548 65.542 257.646 65.4248ZM260.994 66.5H259.939V61.9414H260.994V66.5ZM265.189 66.5H264.135V66.1572C263.953 66.3057 263.783 66.415 263.625 66.4854C263.467 66.5557 263.284 66.5908 263.077 66.5908C262.677 66.5908 262.356 66.4365 262.116 66.1279C261.876 65.8193 261.756 65.4033 261.756 64.8799C261.756 64.6006 261.796 64.3535 261.876 64.1387C261.958 63.9219 262.069 63.7363 262.21 63.582C262.343 63.4355 262.504 63.3223 262.693 63.2422C262.883 63.1602 263.072 63.1191 263.262 63.1191C263.459 63.1191 263.62 63.1406 263.745 63.1836C263.872 63.2246 264.002 63.2773 264.135 63.3418V61.9414H265.189V66.5ZM264.135 65.5918V63.9775C264.061 63.9463 263.982 63.9238 263.9 63.9102C263.818 63.8965 263.743 63.8896 263.675 63.8896C263.397 63.8896 263.189 63.9766 263.051 64.1504C262.912 64.3223 262.843 64.5615 262.843 64.8682C262.843 65.1904 262.898 65.4248 263.01 65.5713C263.121 65.7158 263.3 65.7881 263.546 65.7881C263.642 65.7881 263.743 65.7705 263.851 65.7354C263.958 65.6982 264.053 65.6504 264.135 65.5918ZM269.426 65.0498H267.012C267.027 65.3076 267.125 65.5049 267.305 65.6416C267.486 65.7783 267.753 65.8467 268.104 65.8467C268.327 65.8467 268.543 65.8066 268.752 65.7266C268.961 65.6465 269.126 65.5605 269.247 65.4688H269.364V66.3154C269.126 66.4111 268.901 66.4805 268.69 66.5234C268.479 66.5664 268.246 66.5879 267.99 66.5879C267.33 66.5879 266.824 66.4395 266.473 66.1426C266.121 65.8457 265.945 65.4229 265.945 64.874C265.945 64.3311 266.111 63.9014 266.443 63.585C266.777 63.2666 267.234 63.1074 267.814 63.1074C268.35 63.1074 268.752 63.2432 269.021 63.5146C269.291 63.7842 269.426 64.1729 269.426 64.6807V65.0498ZM268.377 64.4316C268.371 64.2109 268.316 64.0449 268.213 63.9336C268.109 63.8223 267.948 63.7666 267.729 63.7666C267.526 63.7666 267.359 63.8193 267.229 63.9248C267.098 64.0303 267.024 64.1992 267.009 64.4316H268.377ZM273.029 65.457C273.029 65.7969 272.877 66.0713 272.572 66.2803C272.268 66.4873 271.851 66.5908 271.321 66.5908C271.028 66.5908 270.763 66.5635 270.524 66.5088C270.286 66.4541 270.095 66.3936 269.95 66.3271V65.46H270.047C270.1 65.4971 270.16 65.5381 270.229 65.583C270.299 65.626 270.397 65.6729 270.524 65.7236C270.634 65.7686 270.758 65.8076 270.896 65.8408C271.035 65.8721 271.184 65.8877 271.342 65.8877C271.549 65.8877 271.702 65.8652 271.802 65.8203C271.901 65.7734 271.951 65.7051 271.951 65.6152C271.951 65.5352 271.922 65.4775 271.863 65.4424C271.805 65.4053 271.693 65.3701 271.529 65.3369C271.451 65.3193 271.345 65.3008 271.21 65.2812C271.077 65.2598 270.956 65.2344 270.847 65.2051C270.548 65.127 270.326 65.0059 270.182 64.8418C270.037 64.6758 269.965 64.4697 269.965 64.2236C269.965 63.9072 270.114 63.6445 270.413 63.4355C270.714 63.2246 271.124 63.1191 271.644 63.1191C271.89 63.1191 272.125 63.1445 272.35 63.1953C272.576 63.2441 272.753 63.2969 272.88 63.3535V64.1855H272.789C272.633 64.0781 272.454 63.9912 272.253 63.9248C272.054 63.8564 271.852 63.8223 271.646 63.8223C271.477 63.8223 271.333 63.8457 271.216 63.8926C271.101 63.9395 271.043 64.0059 271.043 64.0918C271.043 64.1699 271.069 64.2295 271.122 64.2705C271.175 64.3115 271.299 64.3525 271.494 64.3936C271.602 64.415 271.717 64.4365 271.84 64.458C271.965 64.4775 272.09 64.5029 272.215 64.5342C272.492 64.6064 272.697 64.7207 272.83 64.877C272.963 65.0312 273.029 65.2246 273.029 65.457ZM275.836 66.4707C275.723 66.5 275.603 66.5225 275.476 66.5381C275.349 66.5557 275.193 66.5645 275.01 66.5645C274.6 66.5645 274.294 66.4814 274.093 66.3154C273.894 66.1494 273.794 65.8652 273.794 65.4629V63.9248H273.36V63.21H273.794V62.2695H274.849V63.21H275.836V63.9248H274.849V65.0908C274.849 65.2061 274.85 65.3066 274.852 65.3926C274.854 65.4785 274.869 65.5557 274.898 65.624C274.926 65.6924 274.974 65.7471 275.042 65.7881C275.112 65.8271 275.214 65.8467 275.347 65.8467C275.401 65.8467 275.473 65.835 275.561 65.8115C275.65 65.7881 275.713 65.7666 275.748 65.7471H275.836V66.4707Z" fill="black"/>
<rect x="20.5" y="79.5" width="259" height="23" rx="1.5" fill="#F9F9F9" stroke="#DDDDDD"/>
<path d="M122.465 93H119.348V92.9141C120.303 91.776 120.883 91.0104 121.086 90.6172C121.292 90.224 121.395 89.8398 121.395 89.4648C121.395 89.1914 121.31 88.9648 121.141 88.7852C120.971 88.6029 120.764 88.5117 120.52 88.5117C120.118 88.5117 119.807 88.7122 119.586 89.1133L119.441 89.0625C119.582 88.5625 119.796 88.1927 120.082 87.9531C120.368 87.7135 120.699 87.5938 121.074 87.5938C121.342 87.5938 121.587 87.6562 121.809 87.7812C122.03 87.9062 122.203 88.0781 122.328 88.2969C122.453 88.513 122.516 88.7161 122.516 88.9062C122.516 89.2526 122.419 89.6042 122.227 89.9609C121.964 90.4427 121.389 91.1146 120.504 91.9766H121.648C121.93 91.9766 122.112 91.9648 122.195 91.9414C122.281 91.918 122.352 91.8789 122.406 91.8242C122.461 91.7669 122.533 91.6484 122.621 91.4688H122.762L122.465 93ZM126.859 90.3516C126.859 90.8802 126.785 91.3737 126.637 91.832C126.548 92.1133 126.428 92.3438 126.277 92.5234C126.129 92.7031 125.96 92.8464 125.77 92.9531C125.579 93.0573 125.372 93.1094 125.148 93.1094C124.893 93.1094 124.663 93.0443 124.457 92.9141C124.251 92.7839 124.069 92.5977 123.91 92.3555C123.796 92.1784 123.695 91.9427 123.609 91.6484C123.497 91.25 123.441 90.8385 123.441 90.4141C123.441 89.8385 123.522 89.3099 123.684 88.8281C123.816 88.4297 124.018 88.125 124.289 87.9141C124.56 87.7005 124.846 87.5938 125.148 87.5938C125.456 87.5938 125.742 87.6992 126.008 87.9102C126.276 88.1185 126.473 88.3997 126.598 88.7539C126.772 89.2409 126.859 89.7734 126.859 90.3516ZM125.656 90.3438C125.656 89.4167 125.651 88.8763 125.641 88.7227C125.615 88.3607 125.552 88.1159 125.453 87.9883C125.388 87.9049 125.283 87.8633 125.137 87.8633C125.025 87.8633 124.936 87.8945 124.871 87.957C124.775 88.0482 124.71 88.2096 124.676 88.4414C124.642 88.6706 124.625 89.474 124.625 90.8516C124.625 91.6016 124.651 92.1042 124.703 92.3594C124.742 92.5443 124.798 92.668 124.871 92.7305C124.944 92.793 125.04 92.8242 125.16 92.8242C125.29 92.8242 125.388 92.7826 125.453 92.6992C125.562 92.5534 125.625 92.3281 125.641 92.0234L125.656 90.3438ZM130.465 93H127.348V92.9141C128.303 91.776 128.883 91.0104 129.086 90.6172C129.292 90.224 129.395 89.8398 129.395 89.4648C129.395 89.1914 129.31 88.9648 129.141 88.7852C128.971 88.6029 128.764 88.5117 128.52 88.5117C128.118 88.5117 127.807 88.7122 127.586 89.1133L127.441 89.0625C127.582 88.5625 127.796 88.1927 128.082 87.9531C128.368 87.7135 128.699 87.5938 129.074 87.5938C129.342 87.5938 129.587 87.6562 129.809 87.7812C130.03 87.9062 130.203 88.0781 130.328 88.2969C130.453 88.513 130.516 88.7161 130.516 88.9062C130.516 89.2526 130.419 89.6042 130.227 89.9609C129.964 90.4427 129.389 91.1146 128.504 91.9766H129.648C129.93 91.9766 130.112 91.9648 130.195 91.9414C130.281 91.918 130.352 91.8789 130.406 91.8242C130.461 91.7669 130.533 91.6484 130.621 91.4688H130.762L130.465 93ZM133.758 87.5938V91.9258C133.758 92.2513 133.772 92.4596 133.801 92.5508C133.829 92.6393 133.889 92.7122 133.98 92.7695C134.072 92.8268 134.217 92.8555 134.418 92.8555H134.539V93H131.75V92.8555H131.891C132.117 92.8555 132.279 92.8294 132.375 92.7773C132.471 92.7253 132.536 92.6536 132.57 92.5625C132.604 92.4714 132.621 92.2591 132.621 91.9258V89.1797C132.621 88.9349 132.609 88.7826 132.586 88.7227C132.562 88.6602 132.518 88.6081 132.453 88.5664C132.391 88.5221 132.318 88.5 132.234 88.5C132.102 88.5 131.94 88.5417 131.75 88.625L131.68 88.4844L133.629 87.5938H133.758ZM139.625 91.5664H137.348V90.7578H139.625V91.5664ZM143.809 87.7031L146.422 90.9883V88.7109C146.422 88.3932 146.376 88.1784 146.285 88.0664C146.16 87.9154 145.951 87.8424 145.656 87.8477V87.7031H147.406V87.8477C147.182 87.8763 147.031 87.9141 146.953 87.9609C146.878 88.0052 146.818 88.0794 146.773 88.1836C146.732 88.2852 146.711 88.4609 146.711 88.7109V93.1211H146.578L142.996 88.7109V92.0781C142.996 92.3828 143.065 92.5885 143.203 92.6953C143.344 92.8021 143.504 92.8555 143.684 92.8555H143.809V93H141.93V92.8555C142.221 92.8529 142.424 92.793 142.539 92.6758C142.654 92.5586 142.711 92.3594 142.711 92.0781V88.3398L142.598 88.1992C142.486 88.0586 142.387 87.9661 142.301 87.9219C142.215 87.8776 142.091 87.8529 141.93 87.8477V87.7031H143.809ZM149.59 89.2383C149.908 89.2383 150.203 89.3203 150.477 89.4844C150.75 89.6484 150.957 89.8815 151.098 90.1836C151.241 90.4857 151.312 90.8164 151.312 91.1758C151.312 91.694 151.181 92.1276 150.918 92.4766C150.6 92.8984 150.161 93.1094 149.602 93.1094C149.052 93.1094 148.629 92.9167 148.332 92.5312C148.035 92.1458 147.887 91.6992 147.887 91.1914C147.887 90.668 148.038 90.2122 148.34 89.8242C148.645 89.4336 149.061 89.2383 149.59 89.2383ZM149.605 89.5156C149.473 89.5156 149.358 89.5664 149.262 89.668C149.168 89.7669 149.105 89.9648 149.074 90.2617C149.046 90.556 149.031 90.9661 149.031 91.4922C149.031 91.7708 149.049 92.0312 149.086 92.2734C149.115 92.4583 149.176 92.599 149.27 92.6953C149.363 92.7917 149.47 92.8398 149.59 92.8398C149.707 92.8398 149.805 92.8073 149.883 92.7422C149.984 92.6536 150.052 92.5299 150.086 92.3711C150.138 92.1237 150.164 91.6237 150.164 90.8711C150.164 90.4284 150.139 90.125 150.09 89.9609C150.04 89.7943 149.967 89.6732 149.871 89.5977C149.803 89.543 149.715 89.5156 149.605 89.5156ZM153.383 89.3477V89.8281C153.583 89.6094 153.768 89.457 153.938 89.3711C154.109 89.2826 154.297 89.2383 154.5 89.2383C154.734 89.2383 154.931 89.293 155.09 89.4023C155.249 89.5117 155.371 89.6784 155.457 89.9023C155.665 89.668 155.865 89.4987 156.055 89.3945C156.247 89.2904 156.448 89.2383 156.656 89.2383C156.909 89.2383 157.109 89.2969 157.258 89.4141C157.409 89.5286 157.513 89.6758 157.57 89.8555C157.63 90.0326 157.66 90.3164 157.66 90.707V92.2031C157.66 92.4844 157.685 92.6589 157.734 92.7266C157.786 92.7943 157.893 92.8385 158.055 92.8594V93H156.168V92.8594C156.316 92.8464 156.426 92.7891 156.496 92.6875C156.543 92.6172 156.566 92.4557 156.566 92.2031V90.6328C156.566 90.3073 156.553 90.1003 156.527 90.0117C156.501 89.9232 156.46 89.8581 156.402 89.8164C156.348 89.7721 156.283 89.75 156.207 89.75C156.095 89.75 155.982 89.7917 155.867 89.875C155.753 89.9557 155.637 90.0781 155.52 90.2422V92.2031C155.52 92.4661 155.542 92.6315 155.586 92.6992C155.646 92.7956 155.76 92.849 155.93 92.8594V93H154.039V92.8594C154.141 92.8542 154.22 92.8294 154.277 92.7852C154.337 92.7383 154.376 92.6836 154.395 92.6211C154.415 92.556 154.426 92.4167 154.426 92.2031V90.6328C154.426 90.3021 154.413 90.0951 154.387 90.0117C154.361 89.9284 154.316 89.8633 154.254 89.8164C154.194 89.7695 154.129 89.7461 154.059 89.7461C153.954 89.7461 153.859 89.7734 153.773 89.8281C153.651 89.9089 153.521 90.0469 153.383 90.2422V92.2031C153.383 92.4609 153.408 92.6315 153.457 92.7148C153.509 92.7956 153.616 92.8438 153.777 92.8594V93H151.895V92.8594C152.048 92.8438 152.158 92.7943 152.223 92.7109C152.267 92.6536 152.289 92.4844 152.289 92.2031V90.1406C152.289 89.8646 152.263 89.6927 152.211 89.625C152.161 89.5573 152.056 89.513 151.895 89.4922V89.3477H153.383ZM160.547 92.4609C160.102 92.8542 159.702 93.0508 159.348 93.0508C159.139 93.0508 158.966 92.9831 158.828 92.8477C158.69 92.7096 158.621 92.5378 158.621 92.332C158.621 92.0534 158.741 91.8034 158.98 91.582C159.22 91.3581 159.742 91.0612 160.547 90.6914V90.3242C160.547 90.0482 160.531 89.875 160.5 89.8047C160.471 89.7318 160.415 89.6693 160.332 89.6172C160.249 89.5625 160.155 89.5352 160.051 89.5352C159.882 89.5352 159.742 89.5729 159.633 89.6484C159.565 89.6953 159.531 89.75 159.531 89.8125C159.531 89.8672 159.568 89.9349 159.641 90.0156C159.74 90.1276 159.789 90.2357 159.789 90.3398C159.789 90.4674 159.741 90.5768 159.645 90.668C159.551 90.7565 159.427 90.8008 159.273 90.8008C159.109 90.8008 158.971 90.7513 158.859 90.6523C158.75 90.5534 158.695 90.4375 158.695 90.3047C158.695 90.1172 158.77 89.9388 158.918 89.7695C159.066 89.5977 159.273 89.4661 159.539 89.375C159.805 89.2839 160.081 89.2383 160.367 89.2383C160.714 89.2383 160.987 89.3125 161.188 89.4609C161.391 89.6068 161.522 89.7656 161.582 89.9375C161.618 90.0469 161.637 90.2982 161.637 90.6914V92.1094C161.637 92.276 161.643 92.3815 161.656 92.4258C161.669 92.4674 161.689 92.4987 161.715 92.5195C161.741 92.5404 161.771 92.5508 161.805 92.5508C161.872 92.5508 161.941 92.5026 162.012 92.4062L162.129 92.5C161.999 92.6927 161.863 92.8333 161.723 92.9219C161.585 93.0078 161.427 93.0508 161.25 93.0508C161.042 93.0508 160.879 93.0026 160.762 92.9062C160.645 92.8073 160.573 92.6589 160.547 92.4609ZM160.547 92.1758V90.9531C160.232 91.138 159.997 91.3359 159.844 91.5469C159.742 91.6875 159.691 91.8294 159.691 91.9727C159.691 92.0924 159.734 92.1979 159.82 92.2891C159.885 92.3594 159.977 92.3945 160.094 92.3945C160.224 92.3945 160.375 92.3216 160.547 92.1758ZM166.082 87.7031V91.9062C166.082 92.1901 166.09 92.3581 166.105 92.4102C166.126 92.4961 166.165 92.5599 166.223 92.6016C166.283 92.6432 166.385 92.6693 166.531 92.6797V92.8086L164.988 93.1094V92.5312C164.803 92.7552 164.638 92.9076 164.492 92.9883C164.349 93.069 164.186 93.1094 164.004 93.1094C163.538 93.1094 163.169 92.901 162.898 92.4844C162.68 92.1458 162.57 91.7305 162.57 91.2383C162.57 90.8451 162.638 90.4935 162.773 90.1836C162.909 89.8711 163.094 89.6354 163.328 89.4766C163.565 89.3177 163.819 89.2383 164.09 89.2383C164.264 89.2383 164.419 89.2721 164.555 89.3398C164.69 89.4076 164.835 89.526 164.988 89.6953V88.5938C164.988 88.3151 164.977 88.1471 164.953 88.0898C164.922 88.0143 164.875 87.9583 164.812 87.9219C164.75 87.8854 164.633 87.8672 164.461 87.8672V87.7031H166.082ZM164.988 90.1797C164.796 89.8099 164.56 89.625 164.281 89.625C164.185 89.625 164.105 89.651 164.043 89.7031C163.947 89.7839 163.867 89.9258 163.805 90.1289C163.745 90.332 163.715 90.6432 163.715 91.0625C163.715 91.5234 163.749 91.8646 163.816 92.0859C163.884 92.3073 163.977 92.4674 164.094 92.5664C164.154 92.6159 164.236 92.6406 164.34 92.6406C164.569 92.6406 164.785 92.4609 164.988 92.1016V90.1797ZM168.414 87.7031V92.2422C168.414 92.5 168.444 92.6654 168.504 92.7383C168.564 92.8086 168.681 92.849 168.855 92.8594V93H166.883V92.8594C167.044 92.8542 167.164 92.8073 167.242 92.7188C167.294 92.6589 167.32 92.5 167.32 92.2422V88.4609C167.32 88.2057 167.29 88.043 167.23 87.9727C167.171 87.8997 167.055 87.8581 166.883 87.8477V87.7031H168.414ZM171.227 92.4609C170.781 92.8542 170.382 93.0508 170.027 93.0508C169.819 93.0508 169.646 92.9831 169.508 92.8477C169.37 92.7096 169.301 92.5378 169.301 92.332C169.301 92.0534 169.421 91.8034 169.66 91.582C169.9 91.3581 170.422 91.0612 171.227 90.6914V90.3242C171.227 90.0482 171.211 89.875 171.18 89.8047C171.151 89.7318 171.095 89.6693 171.012 89.6172C170.928 89.5625 170.835 89.5352 170.73 89.5352C170.561 89.5352 170.422 89.5729 170.312 89.6484C170.245 89.6953 170.211 89.75 170.211 89.8125C170.211 89.8672 170.247 89.9349 170.32 90.0156C170.419 90.1276 170.469 90.2357 170.469 90.3398C170.469 90.4674 170.421 90.5768 170.324 90.668C170.23 90.7565 170.107 90.8008 169.953 90.8008C169.789 90.8008 169.651 90.7513 169.539 90.6523C169.43 90.5534 169.375 90.4375 169.375 90.3047C169.375 90.1172 169.449 89.9388 169.598 89.7695C169.746 89.5977 169.953 89.4661 170.219 89.375C170.484 89.2839 170.76 89.2383 171.047 89.2383C171.393 89.2383 171.667 89.3125 171.867 89.4609C172.07 89.6068 172.202 89.7656 172.262 89.9375C172.298 90.0469 172.316 90.2982 172.316 90.6914V92.1094C172.316 92.276 172.323 92.3815 172.336 92.4258C172.349 92.4674 172.368 92.4987 172.395 92.5195C172.421 92.5404 172.451 92.5508 172.484 92.5508C172.552 92.5508 172.621 92.5026 172.691 92.4062L172.809 92.5C172.678 92.6927 172.543 92.8333 172.402 92.9219C172.264 93.0078 172.107 93.0508 171.93 93.0508C171.721 93.0508 171.559 93.0026 171.441 92.9062C171.324 92.8073 171.253 92.6589 171.227 92.4609ZM171.227 92.1758V90.9531C170.911 91.138 170.677 91.3359 170.523 91.5469C170.422 91.6875 170.371 91.8294 170.371 91.9727C170.371 92.0924 170.414 92.1979 170.5 92.2891C170.565 92.3594 170.656 92.3945 170.773 92.3945C170.904 92.3945 171.055 92.3216 171.227 92.1758ZM174.703 89.3477V89.8203C174.891 89.6172 175.07 89.4701 175.242 89.3789C175.414 89.2852 175.599 89.2383 175.797 89.2383C176.034 89.2383 176.23 89.3047 176.387 89.4375C176.543 89.5677 176.647 89.7305 176.699 89.9258C176.741 90.0742 176.762 90.3594 176.762 90.7812V92.2031C176.762 92.4844 176.786 92.6602 176.836 92.7305C176.888 92.7982 176.995 92.8411 177.156 92.8594V93H175.309V92.8594C175.447 92.8411 175.546 92.7839 175.605 92.6875C175.647 92.6224 175.668 92.4609 175.668 92.2031V90.5781C175.668 90.2786 175.656 90.0898 175.633 90.0117C175.609 89.9336 175.569 89.8737 175.512 89.832C175.457 89.7878 175.396 89.7656 175.328 89.7656C175.104 89.7656 174.896 89.9258 174.703 90.2461V92.2031C174.703 92.4766 174.728 92.6497 174.777 92.7227C174.829 92.7956 174.924 92.8411 175.062 92.8594V93H173.215V92.8594C173.368 92.8438 173.478 92.7943 173.543 92.7109C173.587 92.6536 173.609 92.4844 173.609 92.2031V90.1406C173.609 89.8646 173.583 89.6927 173.531 89.625C173.482 89.5573 173.376 89.513 173.215 89.4922V89.3477H174.703ZM181.215 87.7031V91.9062C181.215 92.1901 181.223 92.3581 181.238 92.4102C181.259 92.4961 181.298 92.5599 181.355 92.6016C181.415 92.6432 181.518 92.6693 181.664 92.6797V92.8086L180.121 93.1094V92.5312C179.936 92.7552 179.771 92.9076 179.625 92.9883C179.482 93.069 179.319 93.1094 179.137 93.1094C178.671 93.1094 178.302 92.901 178.031 92.4844C177.812 92.1458 177.703 91.7305 177.703 91.2383C177.703 90.8451 177.771 90.4935 177.906 90.1836C178.042 89.8711 178.227 89.6354 178.461 89.4766C178.698 89.3177 178.952 89.2383 179.223 89.2383C179.397 89.2383 179.552 89.2721 179.688 89.3398C179.823 89.4076 179.967 89.526 180.121 89.6953V88.5938C180.121 88.3151 180.109 88.1471 180.086 88.0898C180.055 88.0143 180.008 87.9583 179.945 87.9219C179.883 87.8854 179.766 87.8672 179.594 87.8672V87.7031H181.215ZM180.121 90.1797C179.928 89.8099 179.693 89.625 179.414 89.625C179.318 89.625 179.238 89.651 179.176 89.7031C179.079 89.7839 179 89.9258 178.938 90.1289C178.878 90.332 178.848 90.6432 178.848 91.0625C178.848 91.5234 178.882 91.8646 178.949 92.0859C179.017 92.3073 179.109 92.4674 179.227 92.5664C179.286 92.6159 179.368 92.6406 179.473 92.6406C179.702 92.6406 179.918 92.4609 180.121 92.1016V90.1797Z" fill="#FFA600"/>
<rect x="20.5" y="106.5" width="259" height="23" rx="1.5" fill="#F9F9F9" stroke="#DDDDDD"/>
<path d="M107.633 120H104.516V119.914C105.471 118.776 106.051 118.01 106.254 117.617C106.46 117.224 106.562 116.84 106.562 116.465C106.562 116.191 106.478 115.965 106.309 115.785C106.139 115.603 105.932 115.512 105.688 115.512C105.286 115.512 104.975 115.712 104.754 116.113L104.609 116.062C104.75 115.562 104.964 115.193 105.25 114.953C105.536 114.714 105.867 114.594 106.242 114.594C106.51 114.594 106.755 114.656 106.977 114.781C107.198 114.906 107.371 115.078 107.496 115.297C107.621 115.513 107.684 115.716 107.684 115.906C107.684 116.253 107.587 116.604 107.395 116.961C107.132 117.443 106.557 118.115 105.672 118.977H106.816C107.098 118.977 107.28 118.965 107.363 118.941C107.449 118.918 107.52 118.879 107.574 118.824C107.629 118.767 107.701 118.648 107.789 118.469H107.93L107.633 120ZM112.027 117.352C112.027 117.88 111.953 118.374 111.805 118.832C111.716 119.113 111.596 119.344 111.445 119.523C111.297 119.703 111.128 119.846 110.938 119.953C110.747 120.057 110.54 120.109 110.316 120.109C110.061 120.109 109.831 120.044 109.625 119.914C109.419 119.784 109.237 119.598 109.078 119.355C108.964 119.178 108.863 118.943 108.777 118.648C108.665 118.25 108.609 117.839 108.609 117.414C108.609 116.839 108.69 116.31 108.852 115.828C108.984 115.43 109.186 115.125 109.457 114.914C109.728 114.701 110.014 114.594 110.316 114.594C110.624 114.594 110.91 114.699 111.176 114.91C111.444 115.118 111.641 115.4 111.766 115.754C111.94 116.241 112.027 116.773 112.027 117.352ZM110.824 117.344C110.824 116.417 110.819 115.876 110.809 115.723C110.783 115.361 110.72 115.116 110.621 114.988C110.556 114.905 110.451 114.863 110.305 114.863C110.193 114.863 110.104 114.895 110.039 114.957C109.943 115.048 109.878 115.21 109.844 115.441C109.81 115.671 109.793 116.474 109.793 117.852C109.793 118.602 109.819 119.104 109.871 119.359C109.91 119.544 109.966 119.668 110.039 119.73C110.112 119.793 110.208 119.824 110.328 119.824C110.458 119.824 110.556 119.783 110.621 119.699C110.73 119.553 110.793 119.328 110.809 119.023L110.824 117.344ZM115.633 120H112.516V119.914C113.471 118.776 114.051 118.01 114.254 117.617C114.46 117.224 114.562 116.84 114.562 116.465C114.562 116.191 114.478 115.965 114.309 115.785C114.139 115.603 113.932 115.512 113.688 115.512C113.286 115.512 112.975 115.712 112.754 116.113L112.609 116.062C112.75 115.562 112.964 115.193 113.25 114.953C113.536 114.714 113.867 114.594 114.242 114.594C114.51 114.594 114.755 114.656 114.977 114.781C115.198 114.906 115.371 115.078 115.496 115.297C115.621 115.513 115.684 115.716 115.684 115.906C115.684 116.253 115.587 116.604 115.395 116.961C115.132 117.443 114.557 118.115 113.672 118.977H114.816C115.098 118.977 115.28 118.965 115.363 118.941C115.449 118.918 115.52 118.879 115.574 118.824C115.629 118.767 115.701 118.648 115.789 118.469H115.93L115.633 120ZM120.027 117.352C120.027 117.88 119.953 118.374 119.805 118.832C119.716 119.113 119.596 119.344 119.445 119.523C119.297 119.703 119.128 119.846 118.938 119.953C118.747 120.057 118.54 120.109 118.316 120.109C118.061 120.109 117.831 120.044 117.625 119.914C117.419 119.784 117.237 119.598 117.078 119.355C116.964 119.178 116.863 118.943 116.777 118.648C116.665 118.25 116.609 117.839 116.609 117.414C116.609 116.839 116.69 116.31 116.852 115.828C116.984 115.43 117.186 115.125 117.457 114.914C117.728 114.701 118.014 114.594 118.316 114.594C118.624 114.594 118.91 114.699 119.176 114.91C119.444 115.118 119.641 115.4 119.766 115.754C119.94 116.241 120.027 116.773 120.027 117.352ZM118.824 117.344C118.824 116.417 118.819 115.876 118.809 115.723C118.783 115.361 118.72 115.116 118.621 114.988C118.556 114.905 118.451 114.863 118.305 114.863C118.193 114.863 118.104 114.895 118.039 114.957C117.943 115.048 117.878 115.21 117.844 115.441C117.81 115.671 117.793 116.474 117.793 117.852C117.793 118.602 117.819 119.104 117.871 119.359C117.91 119.544 117.966 119.668 118.039 119.73C118.112 119.793 118.208 119.824 118.328 119.824C118.458 119.824 118.556 119.783 118.621 119.699C118.73 119.553 118.793 119.328 118.809 119.023L118.824 117.344ZM124.793 118.566H122.516V117.758H124.793V118.566ZM130.074 114.629C130.918 114.598 131.603 114.844 132.129 115.367C132.658 115.891 132.922 116.546 132.922 117.332C132.922 118.004 132.725 118.595 132.332 119.105C131.811 119.783 131.076 120.121 130.125 120.121C129.172 120.121 128.435 119.798 127.914 119.152C127.503 118.642 127.297 118.036 127.297 117.336C127.297 116.549 127.564 115.895 128.098 115.371C128.634 114.845 129.293 114.598 130.074 114.629ZM130.121 114.879C129.637 114.879 129.268 115.126 129.016 115.621C128.81 116.027 128.707 116.611 128.707 117.371C128.707 118.275 128.866 118.943 129.184 119.375C129.405 119.677 129.715 119.828 130.113 119.828C130.382 119.828 130.605 119.763 130.785 119.633C131.014 119.466 131.193 119.201 131.32 118.836C131.448 118.469 131.512 117.991 131.512 117.402C131.512 116.702 131.447 116.178 131.316 115.832C131.186 115.483 131.02 115.237 130.816 115.094C130.616 114.951 130.384 114.879 130.121 114.879ZM134.973 116.348V116.82C135.16 116.617 135.34 116.47 135.512 116.379C135.684 116.285 135.868 116.238 136.066 116.238C136.303 116.238 136.5 116.305 136.656 116.438C136.812 116.568 136.917 116.73 136.969 116.926C137.01 117.074 137.031 117.359 137.031 117.781V119.203C137.031 119.484 137.056 119.66 137.105 119.73C137.158 119.798 137.264 119.841 137.426 119.859V120H135.578V119.859C135.716 119.841 135.815 119.784 135.875 119.688C135.917 119.622 135.938 119.461 135.938 119.203V117.578C135.938 117.279 135.926 117.09 135.902 117.012C135.879 116.934 135.839 116.874 135.781 116.832C135.727 116.788 135.665 116.766 135.598 116.766C135.374 116.766 135.165 116.926 134.973 117.246V119.203C134.973 119.477 134.997 119.65 135.047 119.723C135.099 119.796 135.194 119.841 135.332 119.859V120H133.484V119.859C133.638 119.844 133.747 119.794 133.812 119.711C133.857 119.654 133.879 119.484 133.879 119.203V117.141C133.879 116.865 133.853 116.693 133.801 116.625C133.751 116.557 133.646 116.513 133.484 116.492V116.348H134.973ZM141.027 118.043H139.023C139.047 118.527 139.176 118.91 139.41 119.191C139.59 119.408 139.806 119.516 140.059 119.516C140.215 119.516 140.357 119.473 140.484 119.387C140.612 119.298 140.749 119.141 140.895 118.914L141.027 119C140.829 119.404 140.611 119.69 140.371 119.859C140.132 120.026 139.854 120.109 139.539 120.109C138.997 120.109 138.587 119.901 138.309 119.484C138.085 119.148 137.973 118.732 137.973 118.234C137.973 117.625 138.137 117.141 138.465 116.781C138.796 116.419 139.182 116.238 139.625 116.238C139.995 116.238 140.315 116.391 140.586 116.695C140.859 116.997 141.007 117.447 141.027 118.043ZM140.066 117.781C140.066 117.362 140.043 117.074 139.996 116.918C139.952 116.762 139.882 116.643 139.785 116.562C139.73 116.516 139.658 116.492 139.566 116.492C139.431 116.492 139.32 116.559 139.234 116.691C139.081 116.923 139.004 117.241 139.004 117.645V117.781H140.066ZM145.211 114.703L147.824 117.988V115.711C147.824 115.393 147.779 115.178 147.688 115.066C147.562 114.915 147.353 114.842 147.059 114.848V114.703H148.809V114.848C148.585 114.876 148.434 114.914 148.355 114.961C148.28 115.005 148.22 115.079 148.176 115.184C148.134 115.285 148.113 115.461 148.113 115.711V120.121H147.98L144.398 115.711V119.078C144.398 119.383 144.467 119.589 144.605 119.695C144.746 119.802 144.906 119.855 145.086 119.855H145.211V120H143.332V119.855C143.624 119.853 143.827 119.793 143.941 119.676C144.056 119.559 144.113 119.359 144.113 119.078V115.34L144 115.199C143.888 115.059 143.789 114.966 143.703 114.922C143.617 114.878 143.493 114.853 143.332 114.848V114.703H145.211ZM150.148 114.578C150.318 114.578 150.461 114.638 150.578 114.758C150.695 114.875 150.754 115.017 150.754 115.184C150.754 115.35 150.694 115.492 150.574 115.609C150.457 115.727 150.315 115.785 150.148 115.785C149.982 115.785 149.84 115.727 149.723 115.609C149.605 115.492 149.547 115.35 149.547 115.184C149.547 115.017 149.605 114.875 149.723 114.758C149.84 114.638 149.982 114.578 150.148 114.578ZM150.695 116.348V119.242C150.695 119.5 150.725 119.665 150.785 119.738C150.845 119.809 150.962 119.849 151.137 119.859V120H149.164V119.859C149.326 119.854 149.445 119.807 149.523 119.719C149.576 119.659 149.602 119.5 149.602 119.242V117.109C149.602 116.852 149.572 116.688 149.512 116.617C149.452 116.544 149.336 116.503 149.164 116.492V116.348H150.695ZM153.84 116.391H155.07V116.82H154.371C154.499 116.948 154.587 117.064 154.637 117.168C154.699 117.309 154.73 117.456 154.73 117.609C154.73 117.87 154.658 118.096 154.512 118.289C154.368 118.479 154.172 118.629 153.922 118.738C153.674 118.845 153.454 118.898 153.262 118.898C153.246 118.898 153.09 118.892 152.793 118.879C152.676 118.879 152.577 118.918 152.496 118.996C152.418 119.072 152.379 119.163 152.379 119.27C152.379 119.363 152.414 119.44 152.484 119.5C152.557 119.56 152.674 119.59 152.836 119.59L153.512 119.582C154.059 119.582 154.435 119.642 154.641 119.762C154.935 119.928 155.082 120.185 155.082 120.531C155.082 120.753 155.014 120.953 154.879 121.133C154.743 121.315 154.565 121.449 154.344 121.535C154.008 121.663 153.621 121.727 153.184 121.727C152.855 121.727 152.556 121.694 152.285 121.629C152.014 121.566 151.82 121.478 151.703 121.363C151.586 121.251 151.527 121.133 151.527 121.008C151.527 120.888 151.572 120.78 151.66 120.684C151.751 120.59 151.919 120.51 152.164 120.445C151.826 120.279 151.656 120.047 151.656 119.75C151.656 119.57 151.725 119.396 151.863 119.227C152.001 119.057 152.22 118.91 152.52 118.785C152.171 118.658 151.918 118.49 151.762 118.281C151.605 118.073 151.527 117.832 151.527 117.559C151.527 117.202 151.673 116.893 151.965 116.633C152.257 116.37 152.632 116.238 153.09 116.238C153.332 116.238 153.582 116.289 153.84 116.391ZM153.164 116.48C153.013 116.48 152.885 116.557 152.781 116.711C152.677 116.862 152.625 117.177 152.625 117.656C152.625 118.044 152.676 118.311 152.777 118.457C152.882 118.6 153.004 118.672 153.145 118.672C153.301 118.672 153.431 118.6 153.535 118.457C153.639 118.314 153.691 118.035 153.691 117.621C153.691 117.155 153.633 116.837 153.516 116.668C153.432 116.543 153.315 116.48 153.164 116.48ZM152.934 120.539C152.668 120.539 152.492 120.561 152.406 120.605C152.258 120.686 152.184 120.796 152.184 120.934C152.184 121.066 152.26 121.186 152.414 121.293C152.568 121.402 152.857 121.457 153.281 121.457C153.643 121.457 153.927 121.409 154.133 121.312C154.341 121.216 154.445 121.081 154.445 120.906C154.445 120.841 154.426 120.786 154.387 120.742C154.316 120.664 154.21 120.611 154.066 120.582C153.926 120.553 153.548 120.539 152.934 120.539ZM156.988 114.703V116.816C157.189 116.605 157.372 116.457 157.539 116.371C157.706 116.283 157.879 116.238 158.059 116.238C158.288 116.238 158.483 116.303 158.645 116.434C158.809 116.564 158.917 116.717 158.969 116.895C159.023 117.069 159.051 117.365 159.051 117.781V119.207C159.051 119.486 159.077 119.66 159.129 119.73C159.181 119.798 159.286 119.841 159.445 119.859V120H157.594V119.859C157.724 119.841 157.822 119.789 157.887 119.703C157.934 119.635 157.957 119.47 157.957 119.207V117.578C157.957 117.276 157.945 117.087 157.922 117.012C157.898 116.934 157.858 116.874 157.801 116.832C157.746 116.788 157.684 116.766 157.613 116.766C157.509 116.766 157.408 116.802 157.309 116.875C157.21 116.945 157.103 117.07 156.988 117.25V119.207C156.988 119.467 157.008 119.63 157.047 119.695C157.096 119.784 157.198 119.839 157.352 119.859V120H155.5V119.859C155.654 119.844 155.763 119.794 155.828 119.711C155.872 119.654 155.895 119.486 155.895 119.207V115.496C155.895 115.22 155.868 115.048 155.816 114.98C155.767 114.913 155.661 114.868 155.5 114.848V114.703H156.988ZM161.398 115.012V116.348H162.266V116.734H161.398V118.988C161.398 119.199 161.408 119.336 161.426 119.398C161.447 119.458 161.482 119.508 161.531 119.547C161.581 119.583 161.626 119.602 161.668 119.602C161.837 119.602 161.997 119.473 162.148 119.215L162.266 119.301C162.055 119.801 161.712 120.051 161.238 120.051C161.007 120.051 160.81 119.987 160.648 119.859C160.49 119.729 160.388 119.585 160.344 119.426C160.318 119.337 160.305 119.098 160.305 118.707V116.734H159.828V116.598C160.156 116.366 160.435 116.122 160.664 115.867C160.896 115.612 161.098 115.327 161.27 115.012H161.398ZM166.336 116.238C166.654 116.238 166.949 116.32 167.223 116.484C167.496 116.648 167.703 116.882 167.844 117.184C167.987 117.486 168.059 117.816 168.059 118.176C168.059 118.694 167.927 119.128 167.664 119.477C167.346 119.898 166.908 120.109 166.348 120.109C165.798 120.109 165.375 119.917 165.078 119.531C164.781 119.146 164.633 118.699 164.633 118.191C164.633 117.668 164.784 117.212 165.086 116.824C165.391 116.434 165.807 116.238 166.336 116.238ZM166.352 116.516C166.219 116.516 166.104 116.566 166.008 116.668C165.914 116.767 165.852 116.965 165.82 117.262C165.792 117.556 165.777 117.966 165.777 118.492C165.777 118.771 165.796 119.031 165.832 119.273C165.861 119.458 165.922 119.599 166.016 119.695C166.109 119.792 166.216 119.84 166.336 119.84C166.453 119.84 166.551 119.807 166.629 119.742C166.73 119.654 166.798 119.53 166.832 119.371C166.884 119.124 166.91 118.624 166.91 117.871C166.91 117.428 166.885 117.125 166.836 116.961C166.786 116.794 166.714 116.673 166.617 116.598C166.549 116.543 166.461 116.516 166.352 116.516ZM170.215 116.73V119.266C170.215 119.51 170.241 119.664 170.293 119.727C170.376 119.823 170.53 119.867 170.754 119.859V120H168.602V119.859C168.766 119.857 168.882 119.839 168.949 119.805C169.02 119.768 169.068 119.719 169.094 119.656C169.12 119.594 169.133 119.464 169.133 119.266V116.73H168.602V116.348H169.133V116.078L169.129 115.895C169.129 115.52 169.266 115.207 169.539 114.957C169.815 114.707 170.188 114.582 170.656 114.582C170.977 114.582 171.214 114.642 171.367 114.762C171.523 114.882 171.602 115.014 171.602 115.16C171.602 115.277 171.553 115.379 171.457 115.465C171.361 115.551 171.233 115.594 171.074 115.594C170.939 115.594 170.831 115.559 170.75 115.488C170.672 115.418 170.633 115.34 170.633 115.254C170.633 115.23 170.641 115.182 170.656 115.109C170.667 115.065 170.672 115.023 170.672 114.984C170.672 114.93 170.656 114.889 170.625 114.863C170.583 114.824 170.533 114.805 170.473 114.805C170.397 114.805 170.333 114.836 170.281 114.898C170.232 114.961 170.207 115.061 170.207 115.199L170.215 115.883V116.348H170.754V116.73H170.215ZM176.82 118.195L178.258 114.703H180.414V114.848H180.242C180.086 114.848 179.961 114.875 179.867 114.93C179.802 114.966 179.75 115.027 179.711 115.113C179.682 115.176 179.668 115.339 179.668 115.602V119.094C179.668 119.365 179.682 119.534 179.711 119.602C179.74 119.669 179.798 119.729 179.887 119.781C179.975 119.831 180.094 119.855 180.242 119.855H180.414V120H177.648V119.855H177.82C177.977 119.855 178.102 119.828 178.195 119.773C178.26 119.737 178.312 119.674 178.352 119.586C178.38 119.523 178.395 119.359 178.395 119.094V115.168L176.363 120H176.27L174.207 115.203V118.934C174.207 119.194 174.214 119.354 174.227 119.414C174.26 119.544 174.333 119.651 174.445 119.734C174.56 119.815 174.738 119.855 174.98 119.855V120H173.168V119.855H173.223C173.34 119.858 173.449 119.84 173.551 119.801C173.652 119.759 173.729 119.704 173.781 119.637C173.833 119.569 173.874 119.474 173.902 119.352C173.908 119.323 173.91 119.19 173.91 118.953V115.602C173.91 115.333 173.896 115.167 173.867 115.102C173.839 115.034 173.78 114.975 173.691 114.926C173.603 114.874 173.484 114.848 173.336 114.848H173.168V114.703H175.332L176.82 118.195ZM181.711 114.578C181.88 114.578 182.023 114.638 182.141 114.758C182.258 114.875 182.316 115.017 182.316 115.184C182.316 115.35 182.257 115.492 182.137 115.609C182.02 115.727 181.878 115.785 181.711 115.785C181.544 115.785 181.402 115.727 181.285 115.609C181.168 115.492 181.109 115.35 181.109 115.184C181.109 115.017 181.168 114.875 181.285 114.758C181.402 114.638 181.544 114.578 181.711 114.578ZM182.258 116.348V119.242C182.258 119.5 182.288 119.665 182.348 119.738C182.408 119.809 182.525 119.849 182.699 119.859V120H180.727V119.859C180.888 119.854 181.008 119.807 181.086 119.719C181.138 119.659 181.164 119.5 181.164 119.242V117.109C181.164 116.852 181.134 116.688 181.074 116.617C181.014 116.544 180.898 116.503 180.727 116.492V116.348H182.258ZM185.074 119.461C184.629 119.854 184.229 120.051 183.875 120.051C183.667 120.051 183.493 119.983 183.355 119.848C183.217 119.71 183.148 119.538 183.148 119.332C183.148 119.053 183.268 118.803 183.508 118.582C183.747 118.358 184.27 118.061 185.074 117.691V117.324C185.074 117.048 185.059 116.875 185.027 116.805C184.999 116.732 184.943 116.669 184.859 116.617C184.776 116.562 184.682 116.535 184.578 116.535C184.409 116.535 184.27 116.573 184.16 116.648C184.092 116.695 184.059 116.75 184.059 116.812C184.059 116.867 184.095 116.935 184.168 117.016C184.267 117.128 184.316 117.236 184.316 117.34C184.316 117.467 184.268 117.577 184.172 117.668C184.078 117.757 183.954 117.801 183.801 117.801C183.637 117.801 183.499 117.751 183.387 117.652C183.277 117.553 183.223 117.438 183.223 117.305C183.223 117.117 183.297 116.939 183.445 116.77C183.594 116.598 183.801 116.466 184.066 116.375C184.332 116.284 184.608 116.238 184.895 116.238C185.241 116.238 185.514 116.312 185.715 116.461C185.918 116.607 186.049 116.766 186.109 116.938C186.146 117.047 186.164 117.298 186.164 117.691V119.109C186.164 119.276 186.171 119.382 186.184 119.426C186.197 119.467 186.216 119.499 186.242 119.52C186.268 119.54 186.298 119.551 186.332 119.551C186.4 119.551 186.469 119.503 186.539 119.406L186.656 119.5C186.526 119.693 186.391 119.833 186.25 119.922C186.112 120.008 185.954 120.051 185.777 120.051C185.569 120.051 185.406 120.003 185.289 119.906C185.172 119.807 185.1 119.659 185.074 119.461ZM185.074 119.176V117.953C184.759 118.138 184.525 118.336 184.371 118.547C184.27 118.688 184.219 118.829 184.219 118.973C184.219 119.092 184.262 119.198 184.348 119.289C184.413 119.359 184.504 119.395 184.621 119.395C184.751 119.395 184.902 119.322 185.074 119.176ZM188.574 116.348V116.828C188.775 116.609 188.96 116.457 189.129 116.371C189.301 116.283 189.488 116.238 189.691 116.238C189.926 116.238 190.122 116.293 190.281 116.402C190.44 116.512 190.562 116.678 190.648 116.902C190.857 116.668 191.056 116.499 191.246 116.395C191.439 116.29 191.639 116.238 191.848 116.238C192.1 116.238 192.301 116.297 192.449 116.414C192.6 116.529 192.704 116.676 192.762 116.855C192.822 117.033 192.852 117.316 192.852 117.707V119.203C192.852 119.484 192.876 119.659 192.926 119.727C192.978 119.794 193.085 119.839 193.246 119.859V120H191.359V119.859C191.508 119.846 191.617 119.789 191.688 119.688C191.734 119.617 191.758 119.456 191.758 119.203V117.633C191.758 117.307 191.745 117.1 191.719 117.012C191.693 116.923 191.651 116.858 191.594 116.816C191.539 116.772 191.474 116.75 191.398 116.75C191.286 116.75 191.173 116.792 191.059 116.875C190.944 116.956 190.828 117.078 190.711 117.242V119.203C190.711 119.466 190.733 119.632 190.777 119.699C190.837 119.796 190.952 119.849 191.121 119.859V120H189.23V119.859C189.332 119.854 189.411 119.829 189.469 119.785C189.529 119.738 189.568 119.684 189.586 119.621C189.607 119.556 189.617 119.417 189.617 119.203V117.633C189.617 117.302 189.604 117.095 189.578 117.012C189.552 116.928 189.508 116.863 189.445 116.816C189.385 116.77 189.32 116.746 189.25 116.746C189.146 116.746 189.051 116.773 188.965 116.828C188.842 116.909 188.712 117.047 188.574 117.242V119.203C188.574 119.461 188.599 119.632 188.648 119.715C188.701 119.796 188.807 119.844 188.969 119.859V120H187.086V119.859C187.24 119.844 187.349 119.794 187.414 119.711C187.458 119.654 187.48 119.484 187.48 119.203V117.141C187.48 116.865 187.454 116.693 187.402 116.625C187.353 116.557 187.247 116.513 187.086 116.492V116.348H188.574ZM194.602 114.578C194.771 114.578 194.914 114.638 195.031 114.758C195.148 114.875 195.207 115.017 195.207 115.184C195.207 115.35 195.147 115.492 195.027 115.609C194.91 115.727 194.768 115.785 194.602 115.785C194.435 115.785 194.293 115.727 194.176 115.609C194.059 115.492 194 115.35 194 115.184C194 115.017 194.059 114.875 194.176 114.758C194.293 114.638 194.435 114.578 194.602 114.578ZM195.148 116.348V119.242C195.148 119.5 195.178 119.665 195.238 119.738C195.298 119.809 195.415 119.849 195.59 119.859V120H193.617V119.859C193.779 119.854 193.898 119.807 193.977 119.719C194.029 119.659 194.055 119.5 194.055 119.242V117.109C194.055 116.852 194.025 116.688 193.965 116.617C193.905 116.544 193.789 116.503 193.617 116.492V116.348H195.148Z" fill="#FFA600"/>
<rect x="20.5" y="133.5" width="259" height="23" rx="1.5" fill="#F9F9F9" stroke="#DDDDDD"/>
<path d="M128.477 147H125.359V146.914C126.315 145.776 126.895 145.01 127.098 144.617C127.303 144.224 127.406 143.84 127.406 143.465C127.406 143.191 127.322 142.965 127.152 142.785C126.983 142.603 126.776 142.512 126.531 142.512C126.13 142.512 125.819 142.712 125.598 143.113L125.453 143.062C125.594 142.562 125.807 142.193 126.094 141.953C126.38 141.714 126.711 141.594 127.086 141.594C127.354 141.594 127.599 141.656 127.82 141.781C128.042 141.906 128.215 142.078 128.34 142.297C128.465 142.513 128.527 142.716 128.527 142.906C128.527 143.253 128.431 143.604 128.238 143.961C127.975 144.443 127.401 145.115 126.516 145.977H127.66C127.941 145.977 128.124 145.965 128.207 145.941C128.293 145.918 128.363 145.879 128.418 145.824C128.473 145.767 128.544 145.648 128.633 145.469H128.773L128.477 147ZM132.871 144.352C132.871 144.88 132.797 145.374 132.648 145.832C132.56 146.113 132.44 146.344 132.289 146.523C132.141 146.703 131.971 146.846 131.781 146.953C131.591 147.057 131.384 147.109 131.16 147.109C130.905 147.109 130.674 147.044 130.469 146.914C130.263 146.784 130.081 146.598 129.922 146.355C129.807 146.178 129.707 145.943 129.621 145.648C129.509 145.25 129.453 144.839 129.453 144.414C129.453 143.839 129.534 143.31 129.695 142.828C129.828 142.43 130.03 142.125 130.301 141.914C130.572 141.701 130.858 141.594 131.16 141.594C131.467 141.594 131.754 141.699 132.02 141.91C132.288 142.118 132.484 142.4 132.609 142.754C132.784 143.241 132.871 143.773 132.871 144.352ZM131.668 144.344C131.668 143.417 131.663 142.876 131.652 142.723C131.626 142.361 131.564 142.116 131.465 141.988C131.4 141.905 131.294 141.863 131.148 141.863C131.036 141.863 130.948 141.895 130.883 141.957C130.786 142.048 130.721 142.21 130.688 142.441C130.654 142.671 130.637 143.474 130.637 144.852C130.637 145.602 130.663 146.104 130.715 146.359C130.754 146.544 130.81 146.668 130.883 146.73C130.956 146.793 131.052 146.824 131.172 146.824C131.302 146.824 131.4 146.783 131.465 146.699C131.574 146.553 131.637 146.328 131.652 146.023L131.668 144.344ZM135.77 141.594V145.926C135.77 146.251 135.784 146.46 135.812 146.551C135.841 146.639 135.901 146.712 135.992 146.77C136.083 146.827 136.229 146.855 136.43 146.855H136.551V147H133.762V146.855H133.902C134.129 146.855 134.29 146.829 134.387 146.777C134.483 146.725 134.548 146.654 134.582 146.562C134.616 146.471 134.633 146.259 134.633 145.926V143.18C134.633 142.935 134.621 142.783 134.598 142.723C134.574 142.66 134.53 142.608 134.465 142.566C134.402 142.522 134.329 142.5 134.246 142.5C134.113 142.5 133.952 142.542 133.762 142.625L133.691 142.484L135.641 141.594H135.77ZM137.41 147.109V147C137.842 146.901 138.208 146.755 138.508 146.562C138.81 146.37 139.048 146.132 139.223 145.848C139.4 145.564 139.523 145.237 139.594 144.867C139.432 144.951 139.294 145.009 139.18 145.043C139.068 145.074 138.949 145.09 138.824 145.09C138.423 145.09 138.089 144.945 137.82 144.656C137.555 144.367 137.422 143.971 137.422 143.469C137.422 143.12 137.493 142.801 137.637 142.512C137.783 142.22 137.99 141.995 138.258 141.836C138.526 141.674 138.805 141.594 139.094 141.594C139.404 141.594 139.697 141.682 139.973 141.859C140.249 142.036 140.469 142.293 140.633 142.629C140.797 142.965 140.879 143.348 140.879 143.777C140.879 144.335 140.745 144.868 140.477 145.379C140.211 145.889 139.814 146.299 139.285 146.609C138.757 146.917 138.132 147.083 137.41 147.109ZM139.652 144.539C139.678 144.247 139.691 143.991 139.691 143.77C139.691 143.296 139.637 142.854 139.527 142.445C139.465 142.219 139.372 142.052 139.25 141.945C139.185 141.888 139.1 141.859 138.996 141.859C138.866 141.859 138.764 141.915 138.691 142.027C138.59 142.181 138.539 142.474 138.539 142.906C138.539 143.628 138.625 144.125 138.797 144.398C138.909 144.576 139.06 144.664 139.25 144.664C139.352 144.664 139.486 144.622 139.652 144.539ZM145.637 145.566H143.359V144.758H145.637V145.566ZM149.988 144.602V146.07C149.988 146.357 150.005 146.538 150.039 146.613C150.076 146.686 150.138 146.745 150.227 146.789C150.318 146.833 150.483 146.855 150.723 146.855V147H148.031V146.855C148.276 146.855 148.441 146.833 148.527 146.789C148.616 146.742 148.677 146.682 148.711 146.609C148.747 146.536 148.766 146.357 148.766 146.07V142.633C148.766 142.346 148.747 142.167 148.711 142.094C148.677 142.018 148.616 141.958 148.527 141.914C148.439 141.87 148.273 141.848 148.031 141.848V141.703H150.34C151.1 141.703 151.646 141.839 151.977 142.109C152.307 142.38 152.473 142.719 152.473 143.125C152.473 143.469 152.366 143.763 152.152 144.008C151.939 144.253 151.645 144.419 151.27 144.508C151.017 144.57 150.59 144.602 149.988 144.602ZM149.988 142.008V144.297C150.074 144.302 150.139 144.305 150.184 144.305C150.501 144.305 150.746 144.211 150.918 144.023C151.09 143.833 151.176 143.54 151.176 143.145C151.176 142.751 151.09 142.464 150.918 142.281C150.746 142.099 150.49 142.008 150.148 142.008H149.988ZM155.004 146.461C154.559 146.854 154.159 147.051 153.805 147.051C153.596 147.051 153.423 146.983 153.285 146.848C153.147 146.71 153.078 146.538 153.078 146.332C153.078 146.053 153.198 145.803 153.438 145.582C153.677 145.358 154.199 145.061 155.004 144.691V144.324C155.004 144.048 154.988 143.875 154.957 143.805C154.928 143.732 154.872 143.669 154.789 143.617C154.706 143.562 154.612 143.535 154.508 143.535C154.339 143.535 154.199 143.573 154.09 143.648C154.022 143.695 153.988 143.75 153.988 143.812C153.988 143.867 154.025 143.935 154.098 144.016C154.197 144.128 154.246 144.236 154.246 144.34C154.246 144.467 154.198 144.577 154.102 144.668C154.008 144.757 153.884 144.801 153.73 144.801C153.566 144.801 153.428 144.751 153.316 144.652C153.207 144.553 153.152 144.438 153.152 144.305C153.152 144.117 153.227 143.939 153.375 143.77C153.523 143.598 153.73 143.466 153.996 143.375C154.262 143.284 154.538 143.238 154.824 143.238C155.171 143.238 155.444 143.312 155.645 143.461C155.848 143.607 155.979 143.766 156.039 143.938C156.076 144.047 156.094 144.298 156.094 144.691V146.109C156.094 146.276 156.1 146.382 156.113 146.426C156.126 146.467 156.146 146.499 156.172 146.52C156.198 146.54 156.228 146.551 156.262 146.551C156.329 146.551 156.398 146.503 156.469 146.406L156.586 146.5C156.456 146.693 156.32 146.833 156.18 146.922C156.042 147.008 155.884 147.051 155.707 147.051C155.499 147.051 155.336 147.003 155.219 146.906C155.102 146.807 155.03 146.659 155.004 146.461ZM155.004 146.176V144.953C154.689 145.138 154.454 145.336 154.301 145.547C154.199 145.688 154.148 145.829 154.148 145.973C154.148 146.092 154.191 146.198 154.277 146.289C154.342 146.359 154.434 146.395 154.551 146.395C154.681 146.395 154.832 146.322 155.004 146.176ZM158.504 143.348V144.176C158.746 143.798 158.958 143.548 159.141 143.426C159.323 143.301 159.499 143.238 159.668 143.238C159.814 143.238 159.93 143.284 160.016 143.375C160.104 143.464 160.148 143.59 160.148 143.754C160.148 143.928 160.105 144.064 160.02 144.16C159.936 144.257 159.835 144.305 159.715 144.305C159.577 144.305 159.457 144.26 159.355 144.172C159.254 144.083 159.194 144.034 159.176 144.023C159.15 144.008 159.12 144 159.086 144C159.01 144 158.939 144.029 158.871 144.086C158.764 144.174 158.684 144.301 158.629 144.465C158.546 144.717 158.504 144.996 158.504 145.301V146.141L158.508 146.359C158.508 146.508 158.517 146.603 158.535 146.645C158.566 146.715 158.612 146.767 158.672 146.801C158.734 146.832 158.839 146.852 158.984 146.859V147H157.012V146.859C157.171 146.846 157.277 146.803 157.332 146.73C157.389 146.655 157.418 146.458 157.418 146.141V144.121C157.418 143.913 157.408 143.78 157.387 143.723C157.361 143.65 157.323 143.596 157.273 143.562C157.224 143.529 157.137 143.505 157.012 143.492V143.348H158.504ZM162.559 146.461C162.113 146.854 161.714 147.051 161.359 147.051C161.151 147.051 160.978 146.983 160.84 146.848C160.702 146.71 160.633 146.538 160.633 146.332C160.633 146.053 160.753 145.803 160.992 145.582C161.232 145.358 161.754 145.061 162.559 144.691V144.324C162.559 144.048 162.543 143.875 162.512 143.805C162.483 143.732 162.427 143.669 162.344 143.617C162.26 143.562 162.167 143.535 162.062 143.535C161.893 143.535 161.754 143.573 161.645 143.648C161.577 143.695 161.543 143.75 161.543 143.812C161.543 143.867 161.579 143.935 161.652 144.016C161.751 144.128 161.801 144.236 161.801 144.34C161.801 144.467 161.753 144.577 161.656 144.668C161.562 144.757 161.439 144.801 161.285 144.801C161.121 144.801 160.983 144.751 160.871 144.652C160.762 144.553 160.707 144.438 160.707 144.305C160.707 144.117 160.781 143.939 160.93 143.77C161.078 143.598 161.285 143.466 161.551 143.375C161.816 143.284 162.092 143.238 162.379 143.238C162.725 143.238 162.999 143.312 163.199 143.461C163.402 143.607 163.534 143.766 163.594 143.938C163.63 144.047 163.648 144.298 163.648 144.691V146.109C163.648 146.276 163.655 146.382 163.668 146.426C163.681 146.467 163.701 146.499 163.727 146.52C163.753 146.54 163.783 146.551 163.816 146.551C163.884 146.551 163.953 146.503 164.023 146.406L164.141 146.5C164.01 146.693 163.875 146.833 163.734 146.922C163.596 147.008 163.439 147.051 163.262 147.051C163.053 147.051 162.891 147.003 162.773 146.906C162.656 146.807 162.585 146.659 162.559 146.461ZM162.559 146.176V144.953C162.243 145.138 162.009 145.336 161.855 145.547C161.754 145.688 161.703 145.829 161.703 145.973C161.703 146.092 161.746 146.198 161.832 146.289C161.897 146.359 161.988 146.395 162.105 146.395C162.236 146.395 162.387 146.322 162.559 146.176ZM166.852 143.246L166.91 144.492H166.777C166.618 144.122 166.453 143.87 166.281 143.734C166.112 143.599 165.943 143.531 165.773 143.531C165.667 143.531 165.576 143.568 165.5 143.641C165.424 143.711 165.387 143.793 165.387 143.887C165.387 143.957 165.413 144.025 165.465 144.09C165.548 144.197 165.781 144.38 166.164 144.641C166.547 144.898 166.798 145.118 166.918 145.301C167.04 145.48 167.102 145.682 167.102 145.906C167.102 146.109 167.051 146.309 166.949 146.504C166.848 146.699 166.704 146.849 166.52 146.953C166.335 147.057 166.13 147.109 165.906 147.109C165.732 147.109 165.499 147.055 165.207 146.945C165.129 146.917 165.076 146.902 165.047 146.902C164.961 146.902 164.889 146.967 164.832 147.098H164.703L164.641 145.785H164.773C164.891 146.129 165.051 146.387 165.254 146.559C165.46 146.73 165.654 146.816 165.836 146.816C165.961 146.816 166.062 146.779 166.141 146.703C166.221 146.625 166.262 146.531 166.262 146.422C166.262 146.297 166.223 146.189 166.145 146.098C166.066 146.007 165.892 145.868 165.621 145.684C165.223 145.408 164.965 145.197 164.848 145.051C164.676 144.837 164.59 144.602 164.59 144.344C164.59 144.062 164.686 143.809 164.879 143.582C165.074 143.353 165.355 143.238 165.723 143.238C165.921 143.238 166.112 143.286 166.297 143.383C166.367 143.422 166.424 143.441 166.469 143.441C166.516 143.441 166.553 143.432 166.582 143.414C166.611 143.393 166.656 143.337 166.719 143.246H166.852ZM168.539 141.578C168.708 141.578 168.852 141.638 168.969 141.758C169.086 141.875 169.145 142.017 169.145 142.184C169.145 142.35 169.085 142.492 168.965 142.609C168.848 142.727 168.706 142.785 168.539 142.785C168.372 142.785 168.23 142.727 168.113 142.609C167.996 142.492 167.938 142.35 167.938 142.184C167.938 142.017 167.996 141.875 168.113 141.758C168.23 141.638 168.372 141.578 168.539 141.578ZM169.086 143.348V146.242C169.086 146.5 169.116 146.665 169.176 146.738C169.236 146.809 169.353 146.849 169.527 146.859V147H167.555V146.859C167.716 146.854 167.836 146.807 167.914 146.719C167.966 146.659 167.992 146.5 167.992 146.242V144.109C167.992 143.852 167.962 143.688 167.902 143.617C167.842 143.544 167.727 143.503 167.555 143.492V143.348H169.086ZM171.336 142.012V143.348H172.203V143.734H171.336V145.988C171.336 146.199 171.345 146.336 171.363 146.398C171.384 146.458 171.419 146.508 171.469 146.547C171.518 146.583 171.564 146.602 171.605 146.602C171.775 146.602 171.935 146.473 172.086 146.215L172.203 146.301C171.992 146.801 171.65 147.051 171.176 147.051C170.944 147.051 170.747 146.987 170.586 146.859C170.427 146.729 170.326 146.585 170.281 146.426C170.255 146.337 170.242 146.098 170.242 145.707V143.734H169.766V143.598C170.094 143.366 170.372 143.122 170.602 142.867C170.833 142.612 171.035 142.327 171.207 142.012H171.336ZM175.645 145.043H173.641C173.664 145.527 173.793 145.91 174.027 146.191C174.207 146.408 174.423 146.516 174.676 146.516C174.832 146.516 174.974 146.473 175.102 146.387C175.229 146.298 175.366 146.141 175.512 145.914L175.645 146C175.447 146.404 175.228 146.69 174.988 146.859C174.749 147.026 174.471 147.109 174.156 147.109C173.615 147.109 173.204 146.901 172.926 146.484C172.702 146.148 172.59 145.732 172.59 145.234C172.59 144.625 172.754 144.141 173.082 143.781C173.413 143.419 173.799 143.238 174.242 143.238C174.612 143.238 174.932 143.391 175.203 143.695C175.477 143.997 175.624 144.447 175.645 145.043ZM174.684 144.781C174.684 144.362 174.66 144.074 174.613 143.918C174.569 143.762 174.499 143.643 174.402 143.562C174.348 143.516 174.275 143.492 174.184 143.492C174.048 143.492 173.938 143.559 173.852 143.691C173.698 143.923 173.621 144.241 173.621 144.645V144.781H174.684Z" fill="#FFA600"/>
<rect x="20.5" y="160.5" width="259" height="23" rx="1.5" fill="#F9F9F9" stroke="#DDDDDD"/>
<path d="M117.41 174H114.293V173.914C115.249 172.776 115.828 172.01 116.031 171.617C116.237 171.224 116.34 170.84 116.34 170.465C116.34 170.191 116.255 169.965 116.086 169.785C115.917 169.603 115.71 169.512 115.465 169.512C115.064 169.512 114.753 169.712 114.531 170.113L114.387 170.062C114.527 169.562 114.741 169.193 115.027 168.953C115.314 168.714 115.645 168.594 116.02 168.594C116.288 168.594 116.533 168.656 116.754 168.781C116.975 168.906 117.148 169.078 117.273 169.297C117.398 169.513 117.461 169.716 117.461 169.906C117.461 170.253 117.365 170.604 117.172 170.961C116.909 171.443 116.335 172.115 115.449 172.977H116.594C116.875 172.977 117.057 172.965 117.141 172.941C117.227 172.918 117.297 172.879 117.352 172.824C117.406 172.767 117.478 172.648 117.566 172.469H117.707L117.41 174ZM121.805 171.352C121.805 171.88 121.73 172.374 121.582 172.832C121.493 173.113 121.374 173.344 121.223 173.523C121.074 173.703 120.905 173.846 120.715 173.953C120.525 174.057 120.318 174.109 120.094 174.109C119.839 174.109 119.608 174.044 119.402 173.914C119.197 173.784 119.014 173.598 118.855 173.355C118.741 173.178 118.641 172.943 118.555 172.648C118.443 172.25 118.387 171.839 118.387 171.414C118.387 170.839 118.467 170.31 118.629 169.828C118.762 169.43 118.964 169.125 119.234 168.914C119.505 168.701 119.792 168.594 120.094 168.594C120.401 168.594 120.688 168.699 120.953 168.91C121.221 169.118 121.418 169.4 121.543 169.754C121.717 170.241 121.805 170.773 121.805 171.352ZM120.602 171.344C120.602 170.417 120.596 169.876 120.586 169.723C120.56 169.361 120.497 169.116 120.398 168.988C120.333 168.905 120.228 168.863 120.082 168.863C119.97 168.863 119.882 168.895 119.816 168.957C119.72 169.048 119.655 169.21 119.621 169.441C119.587 169.671 119.57 170.474 119.57 171.852C119.57 172.602 119.596 173.104 119.648 173.359C119.688 173.544 119.743 173.668 119.816 173.73C119.889 173.793 119.986 173.824 120.105 173.824C120.236 173.824 120.333 173.783 120.398 173.699C120.508 173.553 120.57 173.328 120.586 173.023L120.602 171.344ZM124.703 168.594V172.926C124.703 173.251 124.717 173.46 124.746 173.551C124.775 173.639 124.835 173.712 124.926 173.77C125.017 173.827 125.163 173.855 125.363 173.855H125.484V174H122.695V173.855H122.836C123.062 173.855 123.224 173.829 123.32 173.777C123.417 173.725 123.482 173.654 123.516 173.562C123.549 173.471 123.566 173.259 123.566 172.926V170.18C123.566 169.935 123.555 169.783 123.531 169.723C123.508 169.66 123.464 169.608 123.398 169.566C123.336 169.522 123.263 169.5 123.18 169.5C123.047 169.5 122.885 169.542 122.695 169.625L122.625 169.484L124.574 168.594H124.703ZM128.824 171.008C129.197 171.281 129.454 171.536 129.598 171.773C129.743 172.008 129.816 172.277 129.816 172.582C129.816 173.009 129.655 173.371 129.332 173.668C129.012 173.962 128.576 174.109 128.023 174.109C127.5 174.109 127.095 173.98 126.809 173.723C126.522 173.465 126.379 173.15 126.379 172.777C126.379 172.493 126.461 172.245 126.625 172.031C126.792 171.818 127.068 171.622 127.453 171.445C127.034 171.125 126.764 170.863 126.645 170.66C126.527 170.457 126.469 170.221 126.469 169.953C126.469 169.599 126.618 169.288 126.918 169.02C127.22 168.749 127.633 168.613 128.156 168.613C128.661 168.613 129.049 168.733 129.32 168.973C129.594 169.21 129.73 169.495 129.73 169.828C129.73 170.078 129.656 170.299 129.508 170.492C129.362 170.682 129.134 170.854 128.824 171.008ZM128.527 170.809C128.624 170.678 128.695 170.533 128.742 170.371C128.789 170.21 128.812 170.033 128.812 169.84C128.812 169.501 128.74 169.242 128.594 169.062C128.484 168.924 128.333 168.855 128.141 168.855C127.966 168.855 127.818 168.919 127.695 169.047C127.573 169.172 127.512 169.328 127.512 169.516C127.512 169.706 127.579 169.904 127.715 170.109C127.853 170.312 128.124 170.546 128.527 170.809ZM127.746 171.633C127.665 171.706 127.608 171.772 127.574 171.832C127.522 171.923 127.475 172.056 127.434 172.23C127.392 172.405 127.371 172.587 127.371 172.777C127.371 173.022 127.402 173.228 127.465 173.395C127.527 173.559 127.616 173.677 127.73 173.75C127.848 173.823 127.967 173.859 128.09 173.859C128.28 173.859 128.44 173.79 128.57 173.652C128.701 173.512 128.766 173.32 128.766 173.078C128.766 172.573 128.426 172.091 127.746 171.633ZM134.57 172.566H132.293V171.758H134.57V172.566ZM140.32 171.191C140.823 171.309 141.176 171.451 141.379 171.617C141.671 171.854 141.816 172.161 141.816 172.539C141.816 172.938 141.656 173.267 141.336 173.527C140.943 173.842 140.371 174 139.621 174H136.93V173.855C137.174 173.855 137.34 173.833 137.426 173.789C137.514 173.742 137.576 173.682 137.609 173.609C137.646 173.536 137.664 173.357 137.664 173.07V169.633C137.664 169.346 137.646 169.167 137.609 169.094C137.576 169.018 137.514 168.958 137.426 168.914C137.337 168.87 137.172 168.848 136.93 168.848V168.703H139.469C140.076 168.703 140.505 168.758 140.758 168.867C141.01 168.974 141.21 169.135 141.355 169.352C141.501 169.565 141.574 169.793 141.574 170.035C141.574 170.29 141.482 170.518 141.297 170.719C141.112 170.917 140.786 171.074 140.32 171.191ZM138.898 171.086C139.268 171.086 139.54 171.044 139.715 170.961C139.892 170.878 140.027 170.76 140.121 170.609C140.215 170.458 140.262 170.266 140.262 170.031C140.262 169.797 140.215 169.605 140.121 169.457C140.03 169.306 139.898 169.191 139.727 169.113C139.555 169.035 139.279 168.997 138.898 169V171.086ZM138.898 171.391V173.09L138.895 173.285C138.895 173.426 138.93 173.533 139 173.605C139.073 173.676 139.18 173.711 139.32 173.711C139.529 173.711 139.72 173.665 139.895 173.574C140.072 173.48 140.207 173.346 140.301 173.172C140.395 172.995 140.441 172.798 140.441 172.582C140.441 172.335 140.384 172.113 140.27 171.918C140.155 171.72 139.997 171.582 139.797 171.504C139.596 171.426 139.297 171.388 138.898 171.391ZM143.797 168.703V173.242C143.797 173.5 143.827 173.665 143.887 173.738C143.947 173.809 144.064 173.849 144.238 173.859V174H142.266V173.859C142.427 173.854 142.547 173.807 142.625 173.719C142.677 173.659 142.703 173.5 142.703 173.242V169.461C142.703 169.206 142.673 169.043 142.613 168.973C142.553 168.9 142.438 168.858 142.266 168.848V168.703H143.797ZM146.609 173.461C146.164 173.854 145.764 174.051 145.41 174.051C145.202 174.051 145.029 173.983 144.891 173.848C144.753 173.71 144.684 173.538 144.684 173.332C144.684 173.053 144.803 172.803 145.043 172.582C145.283 172.358 145.805 172.061 146.609 171.691V171.324C146.609 171.048 146.594 170.875 146.562 170.805C146.534 170.732 146.478 170.669 146.395 170.617C146.311 170.562 146.217 170.535 146.113 170.535C145.944 170.535 145.805 170.573 145.695 170.648C145.628 170.695 145.594 170.75 145.594 170.812C145.594 170.867 145.63 170.935 145.703 171.016C145.802 171.128 145.852 171.236 145.852 171.34C145.852 171.467 145.803 171.577 145.707 171.668C145.613 171.757 145.49 171.801 145.336 171.801C145.172 171.801 145.034 171.751 144.922 171.652C144.812 171.553 144.758 171.438 144.758 171.305C144.758 171.117 144.832 170.939 144.98 170.77C145.129 170.598 145.336 170.466 145.602 170.375C145.867 170.284 146.143 170.238 146.43 170.238C146.776 170.238 147.049 170.312 147.25 170.461C147.453 170.607 147.585 170.766 147.645 170.938C147.681 171.047 147.699 171.298 147.699 171.691V173.109C147.699 173.276 147.706 173.382 147.719 173.426C147.732 173.467 147.751 173.499 147.777 173.52C147.803 173.54 147.833 173.551 147.867 173.551C147.935 173.551 148.004 173.503 148.074 173.406L148.191 173.5C148.061 173.693 147.926 173.833 147.785 173.922C147.647 174.008 147.49 174.051 147.312 174.051C147.104 174.051 146.941 174.003 146.824 173.906C146.707 173.807 146.635 173.659 146.609 173.461ZM146.609 173.176V171.953C146.294 172.138 146.06 172.336 145.906 172.547C145.805 172.688 145.754 172.829 145.754 172.973C145.754 173.092 145.797 173.198 145.883 173.289C145.948 173.359 146.039 173.395 146.156 173.395C146.286 173.395 146.438 173.322 146.609 173.176ZM151.574 173.059L151.695 173.152C151.523 173.475 151.309 173.716 151.051 173.875C150.796 174.031 150.523 174.109 150.234 174.109C149.747 174.109 149.358 173.926 149.066 173.559C148.775 173.191 148.629 172.75 148.629 172.234C148.629 171.737 148.762 171.299 149.027 170.922C149.348 170.466 149.789 170.238 150.352 170.238C150.729 170.238 151.029 170.333 151.25 170.523C151.474 170.714 151.586 170.926 151.586 171.16C151.586 171.309 151.54 171.427 151.449 171.516C151.361 171.604 151.243 171.648 151.098 171.648C150.944 171.648 150.816 171.598 150.715 171.496C150.616 171.395 150.555 171.214 150.531 170.953C150.516 170.789 150.478 170.674 150.418 170.609C150.358 170.544 150.288 170.512 150.207 170.512C150.082 170.512 149.975 170.578 149.887 170.711C149.751 170.911 149.684 171.219 149.684 171.633C149.684 171.977 149.738 172.306 149.848 172.621C149.957 172.934 150.107 173.167 150.297 173.32C150.44 173.432 150.609 173.488 150.805 173.488C150.932 173.488 151.053 173.458 151.168 173.398C151.283 173.339 151.418 173.225 151.574 173.059ZM153.633 168.703V172.188L154.48 171.355C154.655 171.186 154.763 171.064 154.805 170.988C154.849 170.913 154.871 170.84 154.871 170.77C154.871 170.699 154.842 170.641 154.785 170.594C154.728 170.547 154.616 170.513 154.449 170.492V170.348H156.086V170.492C155.93 170.5 155.793 170.538 155.676 170.605C155.559 170.671 155.329 170.87 154.988 171.203L154.59 171.594L155.449 172.852C155.796 173.362 156.001 173.648 156.066 173.711C156.155 173.799 156.267 173.849 156.402 173.859V174H154.516V173.859C154.599 173.859 154.659 173.844 154.695 173.812C154.734 173.781 154.754 173.747 154.754 173.711C154.754 173.651 154.699 173.54 154.59 173.379L153.867 172.32L153.633 172.551V173.207C153.633 173.486 153.659 173.66 153.711 173.73C153.763 173.798 153.87 173.841 154.031 173.859V174H152.145V173.859C152.298 173.844 152.408 173.794 152.473 173.711C152.517 173.654 152.539 173.486 152.539 173.207V169.496C152.539 169.22 152.513 169.048 152.461 168.98C152.411 168.913 152.306 168.868 152.145 168.848V168.703H153.633ZM160.492 171.602V173.07C160.492 173.357 160.509 173.538 160.543 173.613C160.579 173.686 160.642 173.745 160.73 173.789C160.822 173.833 160.987 173.855 161.227 173.855V174H158.535V173.855C158.78 173.855 158.945 173.833 159.031 173.789C159.12 173.742 159.181 173.682 159.215 173.609C159.251 173.536 159.27 173.357 159.27 173.07V169.633C159.27 169.346 159.251 169.167 159.215 169.094C159.181 169.018 159.12 168.958 159.031 168.914C158.943 168.87 158.777 168.848 158.535 168.848V168.703H160.844C161.604 168.703 162.15 168.839 162.48 169.109C162.811 169.38 162.977 169.719 162.977 170.125C162.977 170.469 162.87 170.763 162.656 171.008C162.443 171.253 162.148 171.419 161.773 171.508C161.521 171.57 161.094 171.602 160.492 171.602ZM160.492 169.008V171.297C160.578 171.302 160.643 171.305 160.688 171.305C161.005 171.305 161.25 171.211 161.422 171.023C161.594 170.833 161.68 170.54 161.68 170.145C161.68 169.751 161.594 169.464 161.422 169.281C161.25 169.099 160.993 169.008 160.652 169.008H160.492ZM165.508 173.461C165.062 173.854 164.663 174.051 164.309 174.051C164.1 174.051 163.927 173.983 163.789 173.848C163.651 173.71 163.582 173.538 163.582 173.332C163.582 173.053 163.702 172.803 163.941 172.582C164.181 172.358 164.703 172.061 165.508 171.691V171.324C165.508 171.048 165.492 170.875 165.461 170.805C165.432 170.732 165.376 170.669 165.293 170.617C165.21 170.562 165.116 170.535 165.012 170.535C164.842 170.535 164.703 170.573 164.594 170.648C164.526 170.695 164.492 170.75 164.492 170.812C164.492 170.867 164.529 170.935 164.602 171.016C164.701 171.128 164.75 171.236 164.75 171.34C164.75 171.467 164.702 171.577 164.605 171.668C164.512 171.757 164.388 171.801 164.234 171.801C164.07 171.801 163.932 171.751 163.82 171.652C163.711 171.553 163.656 171.438 163.656 171.305C163.656 171.117 163.73 170.939 163.879 170.77C164.027 170.598 164.234 170.466 164.5 170.375C164.766 170.284 165.042 170.238 165.328 170.238C165.674 170.238 165.948 170.312 166.148 170.461C166.352 170.607 166.483 170.766 166.543 170.938C166.579 171.047 166.598 171.298 166.598 171.691V173.109C166.598 173.276 166.604 173.382 166.617 173.426C166.63 173.467 166.65 173.499 166.676 173.52C166.702 173.54 166.732 173.551 166.766 173.551C166.833 173.551 166.902 173.503 166.973 173.406L167.09 173.5C166.96 173.693 166.824 173.833 166.684 173.922C166.546 174.008 166.388 174.051 166.211 174.051C166.003 174.051 165.84 174.003 165.723 173.906C165.605 173.807 165.534 173.659 165.508 173.461ZM165.508 173.176V171.953C165.193 172.138 164.958 172.336 164.805 172.547C164.703 172.688 164.652 172.829 164.652 172.973C164.652 173.092 164.695 173.198 164.781 173.289C164.846 173.359 164.938 173.395 165.055 173.395C165.185 173.395 165.336 173.322 165.508 173.176ZM168.984 170.348V170.82C169.172 170.617 169.352 170.47 169.523 170.379C169.695 170.285 169.88 170.238 170.078 170.238C170.315 170.238 170.512 170.305 170.668 170.438C170.824 170.568 170.928 170.73 170.98 170.926C171.022 171.074 171.043 171.359 171.043 171.781V173.203C171.043 173.484 171.068 173.66 171.117 173.73C171.169 173.798 171.276 173.841 171.438 173.859V174H169.59V173.859C169.728 173.841 169.827 173.784 169.887 173.688C169.928 173.622 169.949 173.461 169.949 173.203V171.578C169.949 171.279 169.938 171.09 169.914 171.012C169.891 170.934 169.85 170.874 169.793 170.832C169.738 170.788 169.677 170.766 169.609 170.766C169.385 170.766 169.177 170.926 168.984 171.246V173.203C168.984 173.477 169.009 173.65 169.059 173.723C169.111 173.796 169.206 173.841 169.344 173.859V174H167.496V173.859C167.65 173.844 167.759 173.794 167.824 173.711C167.868 173.654 167.891 173.484 167.891 173.203V171.141C167.891 170.865 167.865 170.693 167.812 170.625C167.763 170.557 167.658 170.513 167.496 170.492V170.348H168.984ZM173.395 169.012V170.348H174.262V170.734H173.395V172.988C173.395 173.199 173.404 173.336 173.422 173.398C173.443 173.458 173.478 173.508 173.527 173.547C173.577 173.583 173.622 173.602 173.664 173.602C173.833 173.602 173.993 173.473 174.145 173.215L174.262 173.301C174.051 173.801 173.708 174.051 173.234 174.051C173.003 174.051 172.806 173.987 172.645 173.859C172.486 173.729 172.384 173.585 172.34 173.426C172.314 173.337 172.301 173.098 172.301 172.707V170.734H171.824V170.598C172.152 170.366 172.431 170.122 172.66 169.867C172.892 169.612 173.094 169.327 173.266 169.012H173.395ZM176.102 168.703V170.816C176.302 170.605 176.486 170.457 176.652 170.371C176.819 170.283 176.992 170.238 177.172 170.238C177.401 170.238 177.596 170.303 177.758 170.434C177.922 170.564 178.03 170.717 178.082 170.895C178.137 171.069 178.164 171.365 178.164 171.781V173.207C178.164 173.486 178.19 173.66 178.242 173.73C178.294 173.798 178.4 173.841 178.559 173.859V174H176.707V173.859C176.837 173.841 176.935 173.789 177 173.703C177.047 173.635 177.07 173.47 177.07 173.207V171.578C177.07 171.276 177.059 171.087 177.035 171.012C177.012 170.934 176.971 170.874 176.914 170.832C176.859 170.788 176.797 170.766 176.727 170.766C176.622 170.766 176.521 170.802 176.422 170.875C176.323 170.945 176.216 171.07 176.102 171.25V173.207C176.102 173.467 176.121 173.63 176.16 173.695C176.21 173.784 176.311 173.839 176.465 173.859V174H174.613V173.859C174.767 173.844 174.876 173.794 174.941 173.711C174.986 173.654 175.008 173.486 175.008 173.207V169.496C175.008 169.22 174.982 169.048 174.93 168.98C174.88 168.913 174.775 168.868 174.613 168.848V168.703H176.102ZM182.156 172.043H180.152C180.176 172.527 180.305 172.91 180.539 173.191C180.719 173.408 180.935 173.516 181.188 173.516C181.344 173.516 181.486 173.473 181.613 173.387C181.741 173.298 181.878 173.141 182.023 172.914L182.156 173C181.958 173.404 181.74 173.69 181.5 173.859C181.26 174.026 180.983 174.109 180.668 174.109C180.126 174.109 179.716 173.901 179.438 173.484C179.214 173.148 179.102 172.732 179.102 172.234C179.102 171.625 179.266 171.141 179.594 170.781C179.924 170.419 180.311 170.238 180.754 170.238C181.124 170.238 181.444 170.391 181.715 170.695C181.988 170.997 182.135 171.447 182.156 172.043ZM181.195 171.781C181.195 171.362 181.172 171.074 181.125 170.918C181.081 170.762 181.01 170.643 180.914 170.562C180.859 170.516 180.786 170.492 180.695 170.492C180.56 170.492 180.449 170.559 180.363 170.691C180.21 170.923 180.133 171.241 180.133 171.645V171.781H181.195ZM184.133 170.348V171.176C184.375 170.798 184.587 170.548 184.77 170.426C184.952 170.301 185.128 170.238 185.297 170.238C185.443 170.238 185.559 170.284 185.645 170.375C185.733 170.464 185.777 170.59 185.777 170.754C185.777 170.928 185.734 171.064 185.648 171.16C185.565 171.257 185.464 171.305 185.344 171.305C185.206 171.305 185.086 171.26 184.984 171.172C184.883 171.083 184.823 171.034 184.805 171.023C184.779 171.008 184.749 171 184.715 171C184.639 171 184.568 171.029 184.5 171.086C184.393 171.174 184.312 171.301 184.258 171.465C184.174 171.717 184.133 171.996 184.133 172.301V173.141L184.137 173.359C184.137 173.508 184.146 173.603 184.164 173.645C184.195 173.715 184.241 173.767 184.301 173.801C184.363 173.832 184.467 173.852 184.613 173.859V174H182.641V173.859C182.799 173.846 182.906 173.803 182.961 173.73C183.018 173.655 183.047 173.458 183.047 173.141V171.121C183.047 170.913 183.036 170.78 183.016 170.723C182.99 170.65 182.952 170.596 182.902 170.562C182.853 170.529 182.766 170.505 182.641 170.492V170.348H184.133Z" fill="#FFA600"/>
</g>
<defs>
<clipPath id="clip0_1375_1496">
<rect width="300" height="180" fill="white"/>
</clipPath>
</defs>
</svg>
