<svg width="300" height="180" viewBox="0 0 300 180" fill="none" xmlns="http://www.w3.org/2000/svg">
<rect width="300" height="180" fill="#463D86"/>
<path d="M22.7362 28.1818H25.6577V37.1555C25.6577 38.1631 25.417 39.0447 24.9357 39.8004C24.4589 40.5561 23.791 41.1454 22.9318 41.5682C22.0727 41.9865 21.0719 42.1957 19.9293 42.1957C18.7823 42.1957 17.7792 41.9865 16.9201 41.5682C16.061 41.1454 15.393 40.5561 14.9162 39.8004C14.4394 39.0447 14.201 38.1631 14.201 37.1555V28.1818H17.1225V36.9059C17.1225 37.4322 17.2372 37.9 17.4666 38.3093C17.7005 38.7186 18.0289 39.0402 18.4517 39.2741C18.8745 39.508 19.3671 39.625 19.9293 39.625C20.4961 39.625 20.9886 39.508 21.407 39.2741C21.8298 39.0402 22.1559 38.7186 22.3853 38.3093C22.6192 37.9 22.7362 37.4322 22.7362 36.9059V28.1818ZM30.8817 36.0085V42H28.0074V31.6364H30.7467V33.4648H30.8682C31.0976 32.8621 31.4822 32.3853 32.0219 32.0344C32.5617 31.6791 33.2162 31.5014 33.9854 31.5014C34.705 31.5014 35.3325 31.6589 35.8678 31.9737C36.4031 32.2886 36.8192 32.7384 37.116 33.3232C37.4129 33.9034 37.5613 34.5961 37.5613 35.4013V42H34.6871V35.9141C34.6916 35.2798 34.5296 34.785 34.2013 34.4297C33.8729 34.0698 33.4208 33.8899 32.8451 33.8899C32.4582 33.8899 32.1164 33.9731 31.8195 34.1396C31.5271 34.306 31.2977 34.5489 31.1313 34.8683C30.9694 35.1831 30.8862 35.5632 30.8817 36.0085ZM39.8267 42V31.6364H42.701V42H39.8267ZM41.2706 30.3004C40.8433 30.3004 40.4767 30.1587 40.1708 29.8754C39.8694 29.5875 39.7188 29.2434 39.7188 28.843C39.7188 28.4472 39.8694 28.1076 40.1708 27.8242C40.4767 27.5363 40.8433 27.3924 41.2706 27.3924C41.6979 27.3924 42.0623 27.5363 42.3636 27.8242C42.6695 28.1076 42.8224 28.4472 42.8224 28.843C42.8224 29.2434 42.6695 29.5875 42.3636 29.8754C42.0623 30.1587 41.6979 30.3004 41.2706 30.3004ZM50.5159 31.6364V33.7955H44.2748V31.6364H50.5159ZM45.6917 29.1534H48.566V38.8153C48.566 39.0807 48.6064 39.2876 48.6874 39.4361C48.7684 39.58 48.8808 39.6812 49.0248 39.7397C49.1732 39.7982 49.3441 39.8274 49.5376 39.8274C49.6725 39.8274 49.8074 39.8162 49.9424 39.7937C50.0773 39.7667 50.1808 39.7464 50.2528 39.733L50.7048 41.8718C50.5609 41.9168 50.3585 41.9685 50.0976 42.027C49.8367 42.09 49.5196 42.1282 49.1462 42.1417C48.4535 42.1687 47.8463 42.0765 47.3245 41.8651C46.8072 41.6536 46.4046 41.3253 46.1167 40.88C45.8289 40.4347 45.6872 39.8724 45.6917 39.1932V29.1534ZM69.0318 33.0195H66.0765C66.0225 32.6372 65.9123 32.2976 65.7459 32.0007C65.5795 31.6993 65.3658 31.4429 65.1049 31.2315C64.844 31.0201 64.5427 30.8582 64.2008 30.7457C63.8635 30.6333 63.4969 30.5771 63.101 30.5771C62.3858 30.5771 61.7628 30.7547 61.2321 31.1101C60.7013 31.4609 60.2897 31.9737 59.9973 32.6484C59.705 33.3187 59.5588 34.1328 59.5588 35.0909C59.5588 36.076 59.705 36.9036 59.9973 37.5739C60.2942 38.2441 60.708 38.7501 61.2388 39.092C61.7696 39.4338 62.3836 39.6048 63.0808 39.6048C63.4721 39.6048 63.8342 39.553 64.1671 39.4496C64.5044 39.3461 64.8036 39.1954 65.0645 38.9975C65.3253 38.7951 65.5413 38.55 65.7122 38.2621C65.8876 37.9742 66.0091 37.6458 66.0765 37.277L69.0318 37.2905C68.9553 37.9247 68.7641 38.5365 68.4583 39.1257C68.1569 39.7105 67.7498 40.2345 67.237 40.6978C66.7288 41.1566 66.1215 41.521 65.4153 41.7908C64.7136 42.0562 63.9197 42.1889 63.0336 42.1889C61.8011 42.1889 60.699 41.91 59.7275 41.3523C58.7604 40.7945 57.9957 39.9871 57.4334 38.93C56.8757 37.873 56.5968 36.5933 56.5968 35.0909C56.5968 33.584 56.8801 32.3021 57.4469 31.245C58.0137 30.188 58.7828 29.3828 59.7544 28.8295C60.726 28.2718 61.8191 27.9929 63.0336 27.9929C63.8342 27.9929 64.5764 28.1053 65.2601 28.3303C65.9483 28.5552 66.5578 28.8835 67.0886 29.3153C67.6194 29.7427 68.0512 30.2667 68.3841 30.8874C68.7214 31.5082 68.9373 32.2189 69.0318 33.0195ZM75.7553 42.2024C74.7073 42.2024 73.8009 41.9798 73.0362 41.5344C72.276 41.0846 71.689 40.4594 71.2752 39.6587C70.8614 38.8536 70.6545 37.9202 70.6545 36.8587C70.6545 35.7881 70.8614 34.8525 71.2752 34.0518C71.689 33.2467 72.276 32.6214 73.0362 32.1761C73.8009 31.7263 74.7073 31.5014 75.7553 31.5014C76.8034 31.5014 77.7075 31.7263 78.4677 32.1761C79.2324 32.6214 79.8216 33.2467 80.2354 34.0518C80.6493 34.8525 80.8562 35.7881 80.8562 36.8587C80.8562 37.9202 80.6493 38.8536 80.2354 39.6587C79.8216 40.4594 79.2324 41.0846 78.4677 41.5344C77.7075 41.9798 76.8034 42.2024 75.7553 42.2024ZM75.7688 39.9759C76.2456 39.9759 76.6437 39.8409 76.9631 39.571C77.2824 39.2966 77.5231 38.9233 77.685 38.451C77.8514 37.9787 77.9347 37.4412 77.9347 36.8384C77.9347 36.2357 77.8514 35.6982 77.685 35.2259C77.5231 34.7536 77.2824 34.3802 76.9631 34.1058C76.6437 33.8314 76.2456 33.6942 75.7688 33.6942C75.2875 33.6942 74.8827 33.8314 74.5543 34.1058C74.2305 34.3802 73.9853 34.7536 73.8189 35.2259C73.657 35.6982 73.576 36.2357 73.576 36.8384C73.576 37.4412 73.657 37.9787 73.8189 38.451C73.9853 38.9233 74.2305 39.2966 74.5543 39.571C74.8827 39.8409 75.2875 39.9759 75.7688 39.9759ZM85.5994 36.0085V42H82.7251V31.6364H85.4645V33.4648H85.5859C85.8153 32.8621 86.1999 32.3853 86.7397 32.0344C87.2795 31.6791 87.9339 31.5014 88.7031 31.5014C89.4228 31.5014 90.0503 31.6589 90.5856 31.9737C91.1209 32.2886 91.5369 32.7384 91.8338 33.3232C92.1307 33.9034 92.2791 34.5961 92.2791 35.4013V42H89.4048V35.9141C89.4093 35.2798 89.2474 34.785 88.919 34.4297C88.5907 34.0698 88.1386 33.8899 87.5629 33.8899C87.176 33.8899 86.8342 33.9731 86.5373 34.1396C86.2449 34.306 86.0155 34.5489 85.8491 34.8683C85.6871 35.1831 85.6039 35.5632 85.5994 36.0085ZM103.835 31.6364L100.212 42H96.9735L93.3502 31.6364H96.3865L98.5388 39.0515H98.6468L100.792 31.6364H103.835ZM109.695 42.2024C108.629 42.2024 107.712 41.9865 106.942 41.5547C106.178 41.1184 105.588 40.5021 105.175 39.706C104.761 38.9053 104.554 37.9585 104.554 36.8654C104.554 35.7994 104.761 34.8638 105.175 34.0586C105.588 33.2534 106.171 32.6259 106.922 32.1761C107.678 31.7263 108.564 31.5014 109.581 31.5014C110.264 31.5014 110.901 31.6116 111.49 31.832C112.084 32.0479 112.601 32.3741 113.042 32.8104C113.487 33.2467 113.833 33.7955 114.081 34.4567C114.328 35.1134 114.452 35.8826 114.452 36.7642V37.5536H105.701V35.7724H111.746C111.746 35.3585 111.656 34.992 111.476 34.6726C111.297 34.3532 111.047 34.1036 110.728 33.9237C110.413 33.7392 110.046 33.647 109.628 33.647C109.191 33.647 108.805 33.7482 108.467 33.9506C108.134 34.1486 107.873 34.4162 107.685 34.7536C107.496 35.0864 107.399 35.4575 107.394 35.8668V37.5604C107.394 38.0732 107.489 38.5162 107.678 38.8896C107.871 39.2629 108.143 39.5508 108.494 39.7532C108.845 39.9556 109.261 40.0568 109.742 40.0568C110.062 40.0568 110.354 40.0118 110.62 39.9219C110.885 39.8319 111.112 39.697 111.301 39.517C111.49 39.3371 111.634 39.1167 111.733 38.8558L114.391 39.0312C114.256 39.67 113.98 40.2277 113.561 40.7045C113.148 41.1768 112.612 41.5457 111.956 41.8111C111.303 42.072 110.55 42.2024 109.695 42.2024ZM116.328 42V31.6364H119.114V33.4446H119.222C119.411 32.8014 119.728 32.3156 120.174 31.9872C120.619 31.6544 121.132 31.4879 121.712 31.4879C121.856 31.4879 122.011 31.4969 122.177 31.5149C122.344 31.5329 122.49 31.5576 122.616 31.5891V34.1396C122.481 34.0991 122.294 34.0631 122.056 34.0316C121.818 34.0001 121.599 33.9844 121.402 33.9844C120.979 33.9844 120.601 34.0766 120.268 34.261C119.94 34.4409 119.679 34.6928 119.485 35.0167C119.296 35.3406 119.202 35.7139 119.202 36.1367V42H116.328ZM130.134 31.6364V33.7955H123.893V31.6364H130.134ZM125.31 29.1534H128.184V38.8153C128.184 39.0807 128.225 39.2876 128.306 39.4361C128.387 39.58 128.499 39.6812 128.643 39.7397C128.791 39.7982 128.962 39.8274 129.156 39.8274C129.291 39.8274 129.426 39.8162 129.561 39.7937C129.695 39.7667 129.799 39.7464 129.871 39.733L130.323 41.8718C130.179 41.9168 129.977 41.9685 129.716 42.027C129.455 42.09 129.138 42.1282 128.764 42.1417C128.072 42.1687 127.464 42.0765 126.943 41.8651C126.425 41.6536 126.023 41.3253 125.735 40.88C125.447 40.4347 125.305 39.8724 125.31 39.1932V29.1534ZM136.618 42.2024C135.552 42.2024 134.634 41.9865 133.865 41.5547C133.101 41.1184 132.511 40.5021 132.097 39.706C131.684 38.9053 131.477 37.9585 131.477 36.8654C131.477 35.7994 131.684 34.8638 132.097 34.0586C132.511 33.2534 133.094 32.6259 133.845 32.1761C134.601 31.7263 135.487 31.5014 136.503 31.5014C137.187 31.5014 137.824 31.6116 138.413 31.832C139.007 32.0479 139.524 32.3741 139.965 32.8104C140.41 33.2467 140.756 33.7955 141.004 34.4567C141.251 35.1134 141.375 35.8826 141.375 36.7642V37.5536H132.624V35.7724H138.669C138.669 35.3585 138.579 34.992 138.399 34.6726C138.219 34.3532 137.97 34.1036 137.65 33.9237C137.336 33.7392 136.969 33.647 136.551 33.647C136.114 33.647 135.727 33.7482 135.39 33.9506C135.057 34.1486 134.796 34.4162 134.607 34.7536C134.419 35.0864 134.322 35.4575 134.317 35.8668V37.5604C134.317 38.0732 134.412 38.5162 134.601 38.8896C134.794 39.2629 135.066 39.5508 135.417 39.7532C135.768 39.9556 136.184 40.0568 136.665 40.0568C136.985 40.0568 137.277 40.0118 137.542 39.9219C137.808 39.8319 138.035 39.697 138.224 39.517C138.413 39.3371 138.557 39.1167 138.656 38.8558L141.314 39.0312C141.179 39.67 140.903 40.2277 140.484 40.7045C140.07 41.1768 139.535 41.5457 138.878 41.8111C138.226 42.072 137.473 42.2024 136.618 42.2024ZM143.251 42V31.6364H146.037V33.4446H146.145C146.334 32.8014 146.651 32.3156 147.096 31.9872C147.542 31.6544 148.055 31.4879 148.635 31.4879C148.779 31.4879 148.934 31.4969 149.1 31.5149C149.267 31.5329 149.413 31.5576 149.539 31.5891V34.1396C149.404 34.0991 149.217 34.0631 148.979 34.0316C148.74 34.0001 148.522 33.9844 148.324 33.9844C147.902 33.9844 147.524 34.0766 147.191 34.261C146.863 34.4409 146.602 34.6928 146.408 35.0167C146.219 35.3406 146.125 35.7139 146.125 36.1367V42H143.251Z" fill="white"/>
<rect x="12" y="116" width="277" height="28" fill="white" fill-opacity="0.2"/>
<rect x="238" y="77" width="51" height="26" fill="#EFEFEF"/>
<rect x="108" y="77" width="125" height="26" fill="#EFEFEF"/>
<rect x="12" y="77" width="91" height="26" fill="#EFEFEF"/>
<path d="M21.8789 134V126H24.7305C25.3503 126 25.8646 126.107 26.2734 126.32C26.6849 126.534 26.9922 126.829 27.1953 127.207C27.3984 127.582 27.5 128.016 27.5 128.508C27.5 128.997 27.3971 129.428 27.1914 129.801C26.9883 130.171 26.681 130.458 26.2695 130.664C25.8607 130.87 25.3464 130.973 24.7266 130.973H22.5664V129.934H24.6172C25.0078 129.934 25.3255 129.878 25.5703 129.766C25.8177 129.654 25.9987 129.491 26.1133 129.277C26.2279 129.064 26.2852 128.807 26.2852 128.508C26.2852 128.206 26.2266 127.944 26.1094 127.723C25.9948 127.501 25.8138 127.332 25.5664 127.215C25.3216 127.095 25 127.035 24.6016 127.035H23.0859V134H21.8789ZM25.8281 130.391L27.8047 134H26.4297L24.4922 130.391H25.8281ZM31.3857 134.121C30.7946 134.121 30.2855 133.995 29.8584 133.742C29.4339 133.487 29.1058 133.129 28.874 132.668C28.6449 132.204 28.5303 131.661 28.5303 131.039C28.5303 130.424 28.6449 129.883 28.874 129.414C29.1058 128.945 29.4287 128.579 29.8428 128.316C30.2594 128.053 30.7464 127.922 31.3037 127.922C31.6423 127.922 31.9704 127.978 32.2881 128.09C32.6058 128.202 32.891 128.378 33.1436 128.617C33.3962 128.857 33.5954 129.168 33.7412 129.551C33.887 129.931 33.96 130.393 33.96 130.937V131.352H29.1904V130.477H32.8154C32.8154 130.169 32.7529 129.897 32.6279 129.66C32.5029 129.421 32.3271 129.232 32.1006 129.094C31.8766 128.956 31.6136 128.887 31.3115 128.887C30.9834 128.887 30.6969 128.967 30.4521 129.129C30.21 129.288 30.0225 129.496 29.8896 129.754C29.7594 130.009 29.6943 130.286 29.6943 130.586V131.27C29.6943 131.671 29.7646 132.012 29.9053 132.293C30.0485 132.574 30.2477 132.789 30.5029 132.937C30.7581 133.083 31.0563 133.156 31.3975 133.156C31.6188 133.156 31.8206 133.125 32.0029 133.062C32.1852 132.997 32.3428 132.901 32.4756 132.773C32.6084 132.646 32.71 132.488 32.7803 132.301L33.8857 132.5C33.7972 132.826 33.6383 133.111 33.4092 133.355C33.1826 133.598 32.8975 133.786 32.5537 133.922C32.2126 134.055 31.8232 134.121 31.3857 134.121ZM39.752 129.465L38.6934 129.652C38.6491 129.517 38.5788 129.388 38.4824 129.266C38.3887 129.143 38.2611 129.043 38.0996 128.965C37.9382 128.887 37.7363 128.848 37.4941 128.848C37.1634 128.848 36.8874 128.922 36.666 129.07C36.4447 129.216 36.334 129.405 36.334 129.637C36.334 129.837 36.4082 129.999 36.5566 130.121C36.7051 130.243 36.9447 130.344 37.2754 130.422L38.2285 130.641C38.7806 130.768 39.1921 130.965 39.4629 131.23C39.7337 131.496 39.8691 131.841 39.8691 132.266C39.8691 132.625 39.765 132.945 39.5566 133.227C39.3509 133.505 39.0632 133.724 38.6934 133.883C38.3262 134.042 37.9004 134.121 37.416 134.121C36.7441 134.121 36.196 133.978 35.7715 133.691C35.347 133.402 35.0866 132.992 34.9902 132.461L36.1191 132.289C36.1895 132.583 36.334 132.806 36.5527 132.957C36.7715 133.105 37.0566 133.18 37.4082 133.18C37.791 133.18 38.097 133.1 38.3262 132.941C38.5553 132.78 38.6699 132.583 38.6699 132.352C38.6699 132.164 38.5996 132.007 38.459 131.879C38.321 131.751 38.1087 131.655 37.8223 131.59L36.8066 131.367C36.2467 131.24 35.8327 131.036 35.5645 130.758C35.2988 130.479 35.166 130.126 35.166 129.699C35.166 129.345 35.265 129.035 35.4629 128.77C35.6608 128.504 35.9342 128.297 36.2832 128.148C36.6322 127.997 37.0319 127.922 37.4824 127.922C38.1309 127.922 38.6413 128.062 39.0137 128.344C39.3861 128.622 39.6322 128.996 39.752 129.465ZM44.9541 131.512V128H46.126V134H44.9775V132.961H44.915C44.777 133.281 44.5557 133.548 44.251 133.762C43.9489 133.973 43.5726 134.078 43.1221 134.078C42.7367 134.078 42.3955 133.993 42.0986 133.824C41.8044 133.652 41.5726 133.398 41.4033 133.062C41.2367 132.727 41.1533 132.311 41.1533 131.816V128H42.3213V131.676C42.3213 132.085 42.4346 132.41 42.6611 132.652C42.8877 132.895 43.182 133.016 43.5439 133.016C43.7627 133.016 43.9801 132.961 44.1963 132.852C44.415 132.742 44.596 132.577 44.7393 132.355C44.8851 132.134 44.9567 131.853 44.9541 131.512ZM48.8633 126V134H47.6953V126H48.8633ZM53.2354 128V128.937H49.958V128H53.2354ZM50.8369 126.562H52.0049V132.238C52.0049 132.465 52.0387 132.635 52.1064 132.75C52.1742 132.862 52.2614 132.939 52.3682 132.98C52.4775 133.02 52.596 133.039 52.7236 133.039C52.8174 133.039 52.8994 133.033 52.9697 133.02C53.04 133.007 53.0947 132.996 53.1338 132.988L53.3447 133.953C53.277 133.979 53.1807 134.005 53.0557 134.031C52.9307 134.06 52.7744 134.076 52.5869 134.078C52.2796 134.083 51.9932 134.029 51.7275 133.914C51.4619 133.799 51.2471 133.622 51.083 133.383C50.9189 133.143 50.8369 132.842 50.8369 132.48V126.562ZM55.2969 134.074C55.0833 134.074 54.8997 133.999 54.7461 133.848C54.5924 133.694 54.5156 133.509 54.5156 133.293C54.5156 133.079 54.5924 132.897 54.7461 132.746C54.8997 132.592 55.0833 132.516 55.2969 132.516C55.5104 132.516 55.694 132.592 55.8477 132.746C56.0013 132.897 56.0781 133.079 56.0781 133.293C56.0781 133.436 56.0417 133.568 55.9688 133.687C55.8984 133.805 55.8047 133.898 55.6875 133.969C55.5703 134.039 55.4401 134.074 55.2969 134.074ZM55.2969 129.707C55.0833 129.707 54.8997 129.63 54.7461 129.477C54.5924 129.323 54.5156 129.139 54.5156 128.926C54.5156 128.712 54.5924 128.53 54.7461 128.379C54.8997 128.225 55.0833 128.148 55.2969 128.148C55.5104 128.148 55.694 128.225 55.8477 128.379C56.0013 128.53 56.0781 128.712 56.0781 128.926C56.0781 129.069 56.0417 129.201 55.9688 129.32C55.8984 129.437 55.8047 129.531 55.6875 129.602C55.5703 129.672 55.4401 129.707 55.2969 129.707ZM63.3232 134.133C62.7061 134.13 62.1787 133.967 61.7412 133.645C61.3037 133.322 60.9691 132.852 60.7373 132.234C60.5055 131.617 60.3896 130.874 60.3896 130.004C60.3896 129.137 60.5055 128.396 60.7373 127.781C60.9717 127.167 61.3076 126.698 61.7451 126.375C62.1852 126.052 62.7113 125.891 63.3232 125.891C63.9352 125.891 64.46 126.053 64.8975 126.379C65.335 126.702 65.6696 127.171 65.9014 127.785C66.1357 128.397 66.2529 129.137 66.2529 130.004C66.2529 130.876 66.137 131.621 65.9053 132.238C65.6735 132.853 65.3389 133.323 64.9014 133.648C64.4639 133.971 63.9378 134.133 63.3232 134.133ZM63.3232 133.09C63.8649 133.09 64.2881 132.826 64.5928 132.297C64.9001 131.768 65.0537 131.004 65.0537 130.004C65.0537 129.34 64.9834 128.779 64.8428 128.32C64.7048 127.859 64.5055 127.51 64.2451 127.273C63.9873 127.034 63.68 126.914 63.3232 126.914C62.7842 126.914 62.361 127.18 62.0537 127.711C61.7464 128.242 61.5915 129.007 61.5889 130.004C61.5889 130.671 61.6579 131.234 61.7959 131.695C61.9365 132.154 62.1357 132.501 62.3936 132.738C62.6514 132.973 62.9613 133.09 63.3232 133.09Z" fill="white"/>
<path d="M251.145 89.0923H250.037C249.995 88.8556 249.915 88.6473 249.799 88.4673C249.683 88.2874 249.541 88.1347 249.373 88.0092C249.205 87.8838 249.017 87.7891 248.809 87.7251C248.603 87.6612 248.384 87.6293 248.152 87.6293C247.733 87.6293 247.357 87.7346 247.026 87.9453C246.697 88.156 246.436 88.465 246.245 88.8722C246.055 89.2794 245.96 89.7765 245.96 90.3636C245.96 90.9555 246.055 91.455 246.245 91.8622C246.436 92.2694 246.698 92.5772 247.029 92.7855C247.361 92.9938 247.734 93.098 248.148 93.098C248.378 93.098 248.595 93.0672 248.801 93.0057C249.01 92.9418 249.198 92.8482 249.366 92.7251C249.534 92.602 249.676 92.4517 249.792 92.2741C249.911 92.0942 249.992 91.8883 250.037 91.6562L251.145 91.6598C251.086 92.0173 250.971 92.3464 250.801 92.647C250.633 92.9453 250.416 93.2034 250.151 93.4212C249.888 93.6366 249.587 93.8035 249.249 93.9219C248.91 94.0402 248.541 94.0994 248.141 94.0994C247.511 94.0994 246.95 93.9503 246.458 93.652C245.965 93.3513 245.577 92.9216 245.293 92.3629C245.011 91.8042 244.87 91.1378 244.87 90.3636C244.87 89.5871 245.012 88.9207 245.296 88.3643C245.581 87.8056 245.969 87.3771 246.461 87.0788C246.954 86.7782 247.514 86.6278 248.141 86.6278C248.527 86.6278 248.887 86.6835 249.22 86.7947C249.557 86.9036 249.858 87.0646 250.126 87.2777C250.393 87.4884 250.615 87.7464 250.79 88.0518C250.965 88.3549 251.084 88.7017 251.145 89.0923ZM254.671 94.1101C254.159 94.1101 253.713 93.9929 253.332 93.7585C252.951 93.5241 252.655 93.1963 252.444 92.7749C252.233 92.3535 252.128 91.861 252.128 91.2976C252.128 90.7318 252.233 90.237 252.444 89.8132C252.655 89.3894 252.951 89.0604 253.332 88.826C253.713 88.5916 254.159 88.4744 254.671 88.4744C255.182 88.4744 255.628 88.5916 256.009 88.826C256.39 89.0604 256.686 89.3894 256.897 89.8132C257.108 90.237 257.213 90.7318 257.213 91.2976C257.213 91.861 257.108 92.3535 256.897 92.7749C256.686 93.1963 256.39 93.5241 256.009 93.7585C255.628 93.9929 255.182 94.1101 254.671 94.1101ZM254.674 93.2188C255.006 93.2188 255.28 93.1312 255.498 92.956C255.716 92.7808 255.877 92.5476 255.981 92.2564C256.087 91.9652 256.141 91.6444 256.141 91.294C256.141 90.946 256.087 90.6264 255.981 90.3352C255.877 90.0417 255.716 89.8061 255.498 89.6286C255.28 89.451 255.006 89.3622 254.674 89.3622C254.34 89.3622 254.063 89.451 253.843 89.6286C253.625 89.8061 253.463 90.0417 253.357 90.3352C253.252 90.6264 253.2 90.946 253.2 91.294C253.2 91.6444 253.252 91.9652 253.357 92.2564C253.463 92.5476 253.625 92.7808 253.843 92.956C254.063 93.1312 254.34 93.2188 254.674 93.2188ZM259.46 90.7614V94H258.398V88.5455H259.418V89.4332H259.485C259.61 89.1444 259.807 88.9124 260.074 88.7372C260.344 88.562 260.684 88.4744 261.094 88.4744C261.465 88.4744 261.791 88.5526 262.07 88.7088C262.35 88.8627 262.566 89.0923 262.72 89.3977C262.874 89.7031 262.951 90.0807 262.951 90.5305V94H261.889V90.6584C261.889 90.263 261.786 89.9541 261.58 89.7315C261.374 89.5066 261.091 89.3942 260.731 89.3942C260.485 89.3942 260.266 89.4474 260.074 89.554C259.885 89.6605 259.735 89.8168 259.623 90.0227C259.515 90.2263 259.46 90.4725 259.46 90.7614ZM268.846 88.5455L266.868 94H265.731L263.75 88.5455H264.89L266.271 92.7429H266.328L267.706 88.5455H268.846ZM272.009 94.1101C271.472 94.1101 271.009 93.9953 270.62 93.7656C270.235 93.5336 269.936 93.2081 269.726 92.7891C269.517 92.3677 269.413 91.8741 269.413 91.3082C269.413 90.7495 269.517 90.2571 269.726 89.831C269.936 89.4048 270.23 89.0722 270.606 88.8331C270.985 88.594 271.428 88.4744 271.934 88.4744C272.242 88.4744 272.54 88.5253 272.829 88.6271C273.118 88.7289 273.377 88.8887 273.607 89.1065C273.837 89.3243 274.018 89.6072 274.15 89.9553C274.283 90.3009 274.349 90.7211 274.349 91.2159V91.5923H270.013V90.7969H273.309C273.309 90.5175 273.252 90.2701 273.138 90.0547C273.025 89.8369 272.865 89.6652 272.659 89.5398C272.455 89.4143 272.216 89.3516 271.941 89.3516C271.643 89.3516 271.383 89.425 271.16 89.5717C270.94 89.7161 270.77 89.9055 270.649 90.1399C270.531 90.3719 270.471 90.6241 270.471 90.8963V91.5178C270.471 91.8823 270.535 92.1925 270.663 92.4482C270.793 92.7038 270.974 92.8991 271.206 93.0341C271.438 93.1667 271.709 93.233 272.02 93.233C272.221 93.233 272.404 93.2045 272.57 93.1477C272.736 93.0885 272.879 93.0009 273 92.8849C273.12 92.7689 273.213 92.6257 273.277 92.4553L274.282 92.6364C274.201 92.9323 274.057 93.1915 273.848 93.4141C273.642 93.6342 273.383 93.8059 273.071 93.929C272.761 94.0497 272.407 94.1101 272.009 94.1101ZM275.527 94V88.5455H276.554V89.4119H276.61C276.71 89.1184 276.885 88.8875 277.136 88.7195C277.389 88.549 277.676 88.4638 277.995 88.4638C278.062 88.4638 278.14 88.4661 278.23 88.4709C278.322 88.4756 278.394 88.4815 278.446 88.4886V89.5043C278.404 89.4924 278.328 89.4794 278.219 89.4652C278.11 89.4486 278.001 89.4403 277.892 89.4403C277.641 89.4403 277.418 89.4936 277.221 89.6001C277.027 89.7043 276.873 89.8499 276.759 90.0369C276.646 90.2216 276.589 90.4323 276.589 90.669V94H275.527ZM282.234 88.5455V89.3977H279.254V88.5455H282.234ZM280.053 87.2386H281.115V92.3984C281.115 92.6044 281.146 92.7595 281.207 92.8636C281.269 92.9654 281.348 93.0353 281.445 93.0732C281.545 93.1087 281.652 93.1264 281.768 93.1264C281.854 93.1264 281.928 93.1205 281.992 93.1087C282.056 93.0968 282.106 93.0874 282.141 93.0803L282.333 93.9574C282.271 93.9811 282.184 94.0047 282.07 94.0284C281.957 94.0545 281.815 94.0687 281.644 94.071C281.365 94.0758 281.104 94.026 280.863 93.9219C280.621 93.8177 280.426 93.6567 280.277 93.4389C280.128 93.2211 280.053 92.9477 280.053 92.6186V87.2386Z" fill="black"/>
<path d="M114.799 86.7273H116.131L118.446 92.3807H118.531L120.847 86.7273H122.178V94H121.134V88.7372H121.067L118.922 93.9893H118.055L115.911 88.7337H115.843V94H114.799V86.7273ZM123.688 94V88.5455H124.75V94H123.688ZM124.225 87.7038C124.04 87.7038 123.881 87.6423 123.749 87.5192C123.619 87.3937 123.553 87.2446 123.553 87.0717C123.553 86.8965 123.619 86.7474 123.749 86.6243C123.881 86.4988 124.04 86.4361 124.225 86.4361C124.409 86.4361 124.567 86.4988 124.697 86.6243C124.829 86.7474 124.896 86.8965 124.896 87.0717C124.896 87.2446 124.829 87.3937 124.697 87.5192C124.567 87.6423 124.409 87.7038 124.225 87.7038ZM127.24 86.7273V94H126.179V86.7273H127.24ZM131.02 94.1101C130.482 94.1101 130.019 93.9953 129.631 93.7656C129.245 93.5336 128.947 93.2081 128.736 92.7891C128.528 92.3677 128.424 91.8741 128.424 91.3082C128.424 90.7495 128.528 90.2571 128.736 89.831C128.947 89.4048 129.241 89.0722 129.617 88.8331C129.996 88.594 130.439 88.4744 130.945 88.4744C131.253 88.4744 131.551 88.5253 131.84 88.6271C132.129 88.7289 132.388 88.8887 132.618 89.1065C132.847 89.3243 133.028 89.6072 133.161 89.9553C133.294 90.3009 133.36 90.7211 133.36 91.2159V91.5923H129.024V90.7969H132.319C132.319 90.5175 132.263 90.2701 132.149 90.0547C132.035 89.8369 131.876 89.6652 131.67 89.5398C131.466 89.4143 131.227 89.3516 130.952 89.3516C130.654 89.3516 130.394 89.425 130.171 89.5717C129.951 89.7161 129.78 89.9055 129.66 90.1399C129.541 90.3719 129.482 90.6241 129.482 90.8963V91.5178C129.482 91.8823 129.546 92.1925 129.674 92.4482C129.804 92.7038 129.985 92.8991 130.217 93.0341C130.449 93.1667 130.72 93.233 131.03 93.233C131.232 93.233 131.415 93.2045 131.581 93.1477C131.747 93.0885 131.89 93.0009 132.01 92.8849C132.131 92.7689 132.224 92.6257 132.287 92.4553L133.292 92.6364C133.212 92.9323 133.068 93.1915 132.859 93.4141C132.653 93.6342 132.394 93.8059 132.081 93.929C131.771 94.0497 131.417 94.1101 131.02 94.1101ZM138.625 89.8771L137.663 90.0476C137.623 89.9245 137.559 89.8073 137.471 89.696C137.386 89.5848 137.27 89.4936 137.123 89.4226C136.976 89.3516 136.793 89.3161 136.573 89.3161C136.272 89.3161 136.021 89.3835 135.82 89.5185C135.619 89.651 135.518 89.8227 135.518 90.0334C135.518 90.2157 135.586 90.3625 135.721 90.4737C135.855 90.585 136.073 90.6761 136.374 90.7472L137.24 90.946C137.742 91.062 138.116 91.2408 138.363 91.4822C138.609 91.7237 138.732 92.0374 138.732 92.4233C138.732 92.75 138.637 93.0412 138.448 93.2969C138.261 93.5502 137.999 93.7491 137.663 93.8935C137.329 94.0379 136.942 94.1101 136.502 94.1101C135.891 94.1101 135.393 93.9799 135.007 93.7195C134.621 93.4567 134.384 93.0838 134.297 92.6009L135.323 92.4446C135.387 92.7121 135.518 92.9145 135.717 93.0518C135.916 93.1868 136.175 93.2543 136.495 93.2543C136.843 93.2543 137.121 93.1821 137.329 93.0376C137.538 92.8909 137.642 92.7121 137.642 92.5014C137.642 92.331 137.578 92.1877 137.45 92.0717C137.324 91.9557 137.132 91.8681 136.871 91.8089L135.948 91.6065C135.439 91.4905 135.062 91.3059 134.819 91.0526C134.577 90.7992 134.456 90.4785 134.456 90.0902C134.456 89.7682 134.546 89.4865 134.726 89.245C134.906 89.0036 135.155 88.8153 135.472 88.6804C135.789 88.5431 136.153 88.4744 136.562 88.4744C137.152 88.4744 137.616 88.6023 137.954 88.858C138.293 89.1113 138.516 89.451 138.625 89.8771ZM145.092 88.5455V89.3977H142.113V88.5455H145.092ZM142.912 87.2386H143.973V92.3984C143.973 92.6044 144.004 92.7595 144.066 92.8636C144.127 92.9654 144.207 93.0353 144.304 93.0732C144.403 93.1087 144.511 93.1264 144.627 93.1264C144.712 93.1264 144.787 93.1205 144.85 93.1087C144.914 93.0968 144.964 93.0874 145 93.0803L145.191 93.9574C145.13 93.9811 145.042 94.0047 144.929 94.0284C144.815 94.0545 144.673 94.0687 144.502 94.071C144.223 94.0758 143.963 94.026 143.721 93.9219C143.48 93.8177 143.284 93.6567 143.135 93.4389C142.986 93.2211 142.912 92.9477 142.912 92.6186V87.2386ZM148.506 94.1101C147.994 94.1101 147.548 93.9929 147.167 93.7585C146.786 93.5241 146.49 93.1963 146.279 92.7749C146.068 92.3535 145.963 91.861 145.963 91.2976C145.963 90.7318 146.068 90.237 146.279 89.8132C146.49 89.3894 146.786 89.0604 147.167 88.826C147.548 88.5916 147.994 88.4744 148.506 88.4744C149.017 88.4744 149.463 88.5916 149.844 88.826C150.225 89.0604 150.521 89.3894 150.732 89.8132C150.943 90.237 151.048 90.7318 151.048 91.2976C151.048 91.861 150.943 92.3535 150.732 92.7749C150.521 93.1963 150.225 93.5241 149.844 93.7585C149.463 93.9929 149.017 94.1101 148.506 94.1101ZM148.509 93.2188C148.84 93.2188 149.115 93.1312 149.333 92.956C149.551 92.7808 149.712 92.5476 149.816 92.2564C149.922 91.9652 149.976 91.6444 149.976 91.294C149.976 90.946 149.922 90.6264 149.816 90.3352C149.712 90.0417 149.551 89.8061 149.333 89.6286C149.115 89.451 148.84 89.3622 148.509 89.3622C148.175 89.3622 147.898 89.451 147.678 89.6286C147.46 89.8061 147.298 90.0417 147.192 90.3352C147.087 90.6264 147.035 90.946 147.035 91.294C147.035 91.6444 147.087 91.9652 147.192 92.2564C147.298 92.5476 147.46 92.7808 147.678 92.956C147.898 93.1312 148.175 93.2188 148.509 93.2188ZM154.965 94V86.7273H156.062V90.2003H156.151L159.202 86.7273H160.583L157.65 90.0014L160.594 94H159.273L156.922 90.7507L156.062 91.7379V94H154.965ZM161.862 94V88.5455H162.924V94H161.862ZM162.398 87.7038C162.214 87.7038 162.055 87.6423 161.923 87.5192C161.792 87.3937 161.727 87.2446 161.727 87.0717C161.727 86.8965 161.792 86.7474 161.923 86.6243C162.055 86.4988 162.214 86.4361 162.398 86.4361C162.583 86.4361 162.741 86.4988 162.871 86.6243C163.003 86.7474 163.07 86.8965 163.07 87.0717C163.07 87.2446 163.003 87.3937 162.871 87.5192C162.741 87.6423 162.583 87.7038 162.398 87.7038ZM165.414 86.7273V94H164.352V86.7273H165.414ZM169.14 94.1101C168.629 94.1101 168.183 93.9929 167.801 93.7585C167.42 93.5241 167.124 93.1963 166.914 92.7749C166.703 92.3535 166.598 91.861 166.598 91.2976C166.598 90.7318 166.703 90.237 166.914 89.8132C167.124 89.3894 167.42 89.0604 167.801 88.826C168.183 88.5916 168.629 88.4744 169.14 88.4744C169.652 88.4744 170.098 88.5916 170.479 88.826C170.86 89.0604 171.156 89.3894 171.367 89.8132C171.578 90.237 171.683 90.7318 171.683 91.2976C171.683 91.861 171.578 92.3535 171.367 92.7749C171.156 93.1963 170.86 93.5241 170.479 93.7585C170.098 93.9929 169.652 94.1101 169.14 94.1101ZM169.144 93.2188C169.475 93.2188 169.75 93.1312 169.968 92.956C170.185 92.7808 170.346 92.5476 170.451 92.2564C170.557 91.9652 170.61 91.6444 170.61 91.294C170.61 90.946 170.557 90.6264 170.451 90.3352C170.346 90.0417 170.185 89.8061 169.968 89.6286C169.75 89.451 169.475 89.3622 169.144 89.3622C168.81 89.3622 168.533 89.451 168.313 89.6286C168.095 89.8061 167.933 90.0417 167.826 90.3352C167.722 90.6264 167.67 90.946 167.67 91.294C167.67 91.6444 167.722 91.9652 167.826 92.2564C167.933 92.5476 168.095 92.7808 168.313 92.956C168.533 93.1312 168.81 93.2188 169.144 93.2188ZM172.868 94V88.5455H173.887V89.4332H173.955C174.068 89.1326 174.254 88.8982 174.512 88.7301C174.77 88.5597 175.079 88.4744 175.439 88.4744C175.804 88.4744 176.109 88.5597 176.355 88.7301C176.604 88.9006 176.787 89.1349 176.906 89.4332H176.963C177.093 89.142 177.3 88.91 177.584 88.7372C177.868 88.562 178.207 88.4744 178.6 88.4744C179.094 88.4744 179.498 88.6295 179.811 88.9396C180.125 89.2498 180.283 89.7173 180.283 90.3423V94H179.221V90.4418C179.221 90.0724 179.12 89.8049 178.919 89.6392C178.718 89.4735 178.478 89.3906 178.198 89.3906C177.853 89.3906 177.584 89.4972 177.392 89.7102C177.2 89.9209 177.105 90.192 177.105 90.5234V94H176.046V90.3743C176.046 90.0784 175.954 89.8404 175.769 89.6605C175.585 89.4806 175.344 89.3906 175.048 89.3906C174.847 89.3906 174.661 89.4439 174.491 89.5504C174.323 89.6546 174.187 89.8002 174.083 89.9872C173.981 90.1742 173.93 90.3909 173.93 90.6371V94H172.868ZM184.057 94.1101C183.519 94.1101 183.057 93.9953 182.668 93.7656C182.282 93.5336 181.984 93.2081 181.773 92.7891C181.565 92.3677 181.461 91.8741 181.461 91.3082C181.461 90.7495 181.565 90.2571 181.773 89.831C181.984 89.4048 182.278 89.0722 182.654 88.8331C183.033 88.594 183.476 88.4744 183.982 88.4744C184.29 88.4744 184.588 88.5253 184.877 88.6271C185.166 88.7289 185.425 88.8887 185.655 89.1065C185.884 89.3243 186.066 89.6072 186.198 89.9553C186.331 90.3009 186.397 90.7211 186.397 91.2159V91.5923H182.061V90.7969H185.357C185.357 90.5175 185.3 90.2701 185.186 90.0547C185.072 89.8369 184.913 89.6652 184.707 89.5398C184.503 89.4143 184.264 89.3516 183.989 89.3516C183.691 89.3516 183.431 89.425 183.208 89.5717C182.988 89.7161 182.817 89.9055 182.697 90.1399C182.578 90.3719 182.519 90.6241 182.519 90.8963V91.5178C182.519 91.8823 182.583 92.1925 182.711 92.4482C182.841 92.7038 183.022 92.8991 183.254 93.0341C183.486 93.1667 183.757 93.233 184.067 93.233C184.269 93.233 184.452 93.2045 184.618 93.1477C184.784 93.0885 184.927 93.0009 185.048 92.8849C185.168 92.7689 185.261 92.6257 185.325 92.4553L186.33 92.6364C186.249 92.9323 186.105 93.1915 185.896 93.4141C185.69 93.6342 185.431 93.8059 185.119 93.929C184.808 94.0497 184.455 94.1101 184.057 94.1101ZM190.121 88.5455V89.3977H187.142V88.5455H190.121ZM187.941 87.2386H189.003V92.3984C189.003 92.6044 189.033 92.7595 189.095 92.8636C189.157 92.9654 189.236 93.0353 189.333 93.0732C189.432 93.1087 189.54 93.1264 189.656 93.1264C189.741 93.1264 189.816 93.1205 189.88 93.1087C189.944 93.0968 189.993 93.0874 190.029 93.0803L190.221 93.9574C190.159 93.9811 190.072 94.0047 189.958 94.0284C189.844 94.0545 189.702 94.0687 189.532 94.071C189.252 94.0758 188.992 94.026 188.751 93.9219C188.509 93.8177 188.314 93.6567 188.165 93.4389C188.015 93.2211 187.941 92.9477 187.941 92.6186V87.2386ZM193.588 94.1101C193.051 94.1101 192.588 93.9953 192.2 93.7656C191.814 93.5336 191.515 93.2081 191.305 92.7891C191.096 92.3677 190.992 91.8741 190.992 91.3082C190.992 90.7495 191.096 90.2571 191.305 89.831C191.515 89.4048 191.809 89.0722 192.185 88.8331C192.564 88.594 193.007 88.4744 193.513 88.4744C193.821 88.4744 194.12 88.5253 194.408 88.6271C194.697 88.7289 194.956 88.8887 195.186 89.1065C195.416 89.3243 195.597 89.6072 195.729 89.9553C195.862 90.3009 195.928 90.7211 195.928 91.2159V91.5923H191.592V90.7969H194.888C194.888 90.5175 194.831 90.2701 194.717 90.0547C194.604 89.8369 194.444 89.6652 194.238 89.5398C194.034 89.4143 193.795 89.3516 193.521 89.3516C193.222 89.3516 192.962 89.425 192.739 89.5717C192.519 89.7161 192.349 89.9055 192.228 90.1399C192.11 90.3719 192.05 90.6241 192.05 90.8963V91.5178C192.05 91.8823 192.114 92.1925 192.242 92.4482C192.372 92.7038 192.554 92.8991 192.786 93.0341C193.018 93.1667 193.289 93.233 193.599 93.233C193.8 93.233 193.983 93.2045 194.149 93.1477C194.315 93.0885 194.458 93.0009 194.579 92.8849C194.7 92.7689 194.792 92.6257 194.856 92.4553L195.861 92.6364C195.78 92.9323 195.636 93.1915 195.428 93.4141C195.222 93.6342 194.962 93.8059 194.65 93.929C194.34 94.0497 193.986 94.1101 193.588 94.1101ZM197.106 94V88.5455H198.133V89.4119H198.189C198.289 89.1184 198.464 88.8875 198.715 88.7195C198.968 88.549 199.255 88.4638 199.574 88.4638C199.641 88.4638 199.719 88.4661 199.809 88.4709C199.901 88.4756 199.973 88.4815 200.025 88.4886V89.5043C199.983 89.4924 199.907 89.4794 199.798 89.4652C199.689 89.4486 199.58 89.4403 199.471 89.4403C199.22 89.4403 198.997 89.4936 198.8 89.6001C198.606 89.7043 198.452 89.8499 198.339 90.0369C198.225 90.2216 198.168 90.4323 198.168 90.669V94H197.106ZM205.032 89.8771L204.069 90.0476C204.029 89.9245 203.965 89.8073 203.877 89.696C203.792 89.5848 203.676 89.4936 203.529 89.4226C203.383 89.3516 203.199 89.3161 202.979 89.3161C202.678 89.3161 202.427 89.3835 202.226 89.5185C202.025 89.651 201.924 89.8227 201.924 90.0334C201.924 90.2157 201.992 90.3625 202.127 90.4737C202.262 90.585 202.48 90.6761 202.78 90.7472L203.647 90.946C204.149 91.062 204.523 91.2408 204.769 91.4822C205.015 91.7237 205.138 92.0374 205.138 92.4233C205.138 92.75 205.043 93.0412 204.854 93.2969C204.667 93.5502 204.405 93.7491 204.069 93.8935C203.735 94.0379 203.348 94.1101 202.908 94.1101C202.297 94.1101 201.799 93.9799 201.413 93.7195C201.027 93.4567 200.79 93.0838 200.703 92.6009L201.729 92.4446C201.793 92.7121 201.924 92.9145 202.123 93.0518C202.322 93.1868 202.581 93.2543 202.901 93.2543C203.249 93.2543 203.527 93.1821 203.735 93.0376C203.944 92.8909 204.048 92.7121 204.048 92.5014C204.048 92.331 203.984 92.1877 203.856 92.0717C203.731 91.9557 203.538 91.8681 203.277 91.8089L202.354 91.6065C201.845 91.4905 201.469 91.3059 201.225 91.0526C200.983 90.7992 200.863 90.4785 200.863 90.0902C200.863 89.7682 200.953 89.4865 201.132 89.245C201.312 89.0036 201.561 88.8153 201.878 88.6804C202.195 88.5431 202.559 88.4744 202.968 88.4744C203.558 88.4744 204.022 88.6023 204.36 88.858C204.699 89.1113 204.923 89.451 205.032 89.8771Z" fill="black"/>
<path d="M18.799 94V86.7273H23.3587V87.6719H19.8963V89.8878H23.1207V90.8288H19.8963V93.0554H23.4013V94H18.799ZM25.801 90.7614V94H24.7392V88.5455H25.7583V89.4332H25.8258C25.9513 89.1444 26.1478 88.9124 26.4153 88.7372C26.6852 88.562 27.0249 88.4744 27.4345 88.4744C27.8062 88.4744 28.1317 88.5526 28.411 88.7088C28.6904 88.8627 28.907 89.0923 29.0609 89.3977C29.2148 89.7031 29.2917 90.0807 29.2917 90.5305V94H28.2299V90.6584C28.2299 90.263 28.127 89.9541 27.921 89.7315C27.715 89.5066 27.4321 89.3942 27.0723 89.3942C26.8261 89.3942 26.6071 89.4474 26.4153 89.554C26.2259 89.6605 26.0756 89.8168 25.9643 90.0227C25.8554 90.2263 25.801 90.4725 25.801 90.7614ZM33.2619 88.5455V89.3977H30.2825V88.5455H33.2619ZM31.0815 87.2386H32.1433V92.3984C32.1433 92.6044 32.1741 92.7595 32.2356 92.8636C32.2972 92.9654 32.3765 93.0353 32.4735 93.0732C32.573 93.1087 32.6807 93.1264 32.7967 93.1264C32.8819 93.1264 32.9565 93.1205 33.0204 93.1087C33.0843 93.0968 33.1341 93.0874 33.1696 93.0803L33.3613 93.9574C33.2998 93.9811 33.2122 94.0047 33.0985 94.0284C32.9849 94.0545 32.8429 94.0687 32.6724 94.071C32.3931 94.0758 32.1326 94.026 31.8912 93.9219C31.6497 93.8177 31.4544 93.6567 31.3052 93.4389C31.1561 93.2211 31.0815 92.9477 31.0815 92.6186V87.2386ZM36.7287 94.1101C36.1913 94.1101 35.7285 93.9953 35.3402 93.7656C34.9543 93.5336 34.656 93.2081 34.4453 92.7891C34.237 92.3677 34.1328 91.8741 34.1328 91.3082C34.1328 90.7495 34.237 90.2571 34.4453 89.831C34.656 89.4048 34.9496 89.0722 35.326 88.8331C35.7048 88.594 36.1475 88.4744 36.6541 88.4744C36.9619 88.4744 37.2602 88.5253 37.549 88.6271C37.8378 88.7289 38.0971 88.8887 38.3267 89.1065C38.5563 89.3243 38.7375 89.6072 38.87 89.9553C39.0026 90.3009 39.0689 90.7211 39.0689 91.2159V91.5923H34.733V90.7969H38.0284C38.0284 90.5175 37.9716 90.2701 37.858 90.0547C37.7443 89.8369 37.5845 89.6652 37.3786 89.5398C37.175 89.4143 36.9358 89.3516 36.6612 89.3516C36.3629 89.3516 36.1025 89.425 35.88 89.5717C35.6598 89.7161 35.4893 89.9055 35.3686 90.1399C35.2502 90.3719 35.1911 90.6241 35.1911 90.8963V91.5178C35.1911 91.8823 35.255 92.1925 35.3828 92.4482C35.513 92.7038 35.6941 92.8991 35.9261 93.0341C36.1581 93.1667 36.4292 93.233 36.7393 93.233C36.9406 93.233 37.1241 93.2045 37.2898 93.1477C37.4555 93.0885 37.5987 93.0009 37.7195 92.8849C37.8402 92.7689 37.9325 92.6257 37.9964 92.4553L39.0014 92.6364C38.9209 92.9323 38.7765 93.1915 38.5682 93.4141C38.3622 93.6342 38.103 93.8059 37.7905 93.929C37.4804 94.0497 37.1264 94.1101 36.7287 94.1101ZM40.247 94V88.5455H41.2733V89.4119H41.3301C41.4295 89.1184 41.6047 88.8875 41.8556 88.7195C42.109 88.549 42.3954 88.4638 42.715 88.4638C42.7813 88.4638 42.8594 88.4661 42.9494 88.4709C43.0417 88.4756 43.1139 88.4815 43.166 88.4886V89.5043C43.1234 89.4924 43.0476 89.4794 42.9387 89.4652C42.8298 89.4486 42.7209 89.4403 42.612 89.4403C42.3611 89.4403 42.1374 89.4936 41.9409 89.6001C41.7467 89.7043 41.5929 89.8499 41.4792 90.0369C41.3656 90.2216 41.3088 90.4323 41.3088 90.669V94H40.247ZM51.3975 88.5455L49.4196 94H48.2832L46.3017 88.5455H47.4416L48.823 92.7429H48.8798L50.2576 88.5455H51.3975ZM53.8265 94.1207C53.4809 94.1207 53.1684 94.0568 52.889 93.929C52.6097 93.7988 52.3883 93.6106 52.225 93.3643C52.064 93.1181 51.9835 92.8163 51.9835 92.4588C51.9835 92.151 52.0427 91.8977 52.161 91.6989C52.2794 91.5 52.4392 91.3426 52.6404 91.2266C52.8417 91.1106 53.0666 91.023 53.3152 90.9638C53.5637 90.9046 53.8171 90.8596 54.0751 90.8288C54.4018 90.791 54.667 90.7602 54.8706 90.7365C55.0742 90.7105 55.2221 90.669 55.3145 90.6122C55.4068 90.5554 55.4529 90.4631 55.4529 90.3352V90.3104C55.4529 90.0002 55.3654 89.7599 55.1902 89.5895C55.0173 89.419 54.7593 89.3338 54.416 89.3338C54.0585 89.3338 53.7768 89.4131 53.5708 89.5717C53.3672 89.728 53.2264 89.902 53.1483 90.0938L52.1504 89.8665C52.2688 89.535 52.4416 89.2675 52.6689 89.0639C52.8985 88.858 53.1625 88.7088 53.4608 88.6165C53.7591 88.5218 54.0727 88.4744 54.4018 88.4744C54.6196 88.4744 54.8504 88.5005 55.0943 88.5526C55.3405 88.6023 55.5701 88.6946 55.7832 88.8295C55.9986 88.9645 56.175 89.1574 56.3123 89.4084C56.4496 89.657 56.5183 89.9801 56.5183 90.3778V94H55.4814V93.2543H55.4387C55.3701 93.3916 55.2671 93.5265 55.1298 93.6591C54.9925 93.7917 54.8161 93.9018 54.6007 93.9893C54.3852 94.0769 54.1272 94.1207 53.8265 94.1207ZM54.0574 93.2685C54.3509 93.2685 54.6019 93.2105 54.8102 93.0945C55.0209 92.9785 55.1807 92.8269 55.2896 92.6399C55.4009 92.4505 55.4565 92.2481 55.4565 92.0327V91.3295C55.4186 91.3674 55.3452 91.4029 55.2363 91.4361C55.1298 91.4669 55.0079 91.4941 54.8706 91.5178C54.7333 91.5391 54.5995 91.5592 54.4693 91.5781C54.3391 91.5947 54.2302 91.6089 54.1426 91.6207C53.9366 91.6468 53.7484 91.6906 53.5779 91.7521C53.4099 91.8137 53.2749 91.9025 53.1731 92.0185C53.0737 92.1321 53.024 92.2836 53.024 92.473C53.024 92.7358 53.121 92.9347 53.3152 93.0696C53.5093 93.2022 53.7567 93.2685 54.0574 93.2685ZM58.9943 86.7273V94H57.9325V86.7273H58.9943ZM63.878 91.7379V88.5455H64.9434V94H63.8993V93.0554H63.8425C63.717 93.3466 63.5158 93.5893 63.2388 93.7834C62.9642 93.9751 62.6221 94.071 62.2125 94.071C61.8622 94.071 61.552 93.9941 61.2821 93.8402C61.0146 93.6839 60.8039 93.4531 60.65 93.1477C60.4985 92.8423 60.4228 92.4647 60.4228 92.0149V88.5455H61.4846V91.8871C61.4846 92.2588 61.5875 92.5547 61.7935 92.7749C61.9995 92.995 62.267 93.1051 62.5961 93.1051C62.7949 93.1051 62.9926 93.0554 63.1891 92.956C63.388 92.8565 63.5525 92.7062 63.6827 92.505C63.8153 92.3037 63.8804 92.0481 63.878 91.7379ZM68.7209 94.1101C68.1835 94.1101 67.7206 93.9953 67.3324 93.7656C66.9465 93.5336 66.6482 93.2081 66.4375 92.7891C66.2292 92.3677 66.125 91.8741 66.125 91.3082C66.125 90.7495 66.2292 90.2571 66.4375 89.831C66.6482 89.4048 66.9418 89.0722 67.3182 88.8331C67.697 88.594 68.1397 88.4744 68.6463 88.4744C68.9541 88.4744 69.2524 88.5253 69.5412 88.6271C69.83 88.7289 70.0893 88.8887 70.3189 89.1065C70.5485 89.3243 70.7296 89.6072 70.8622 89.9553C70.9948 90.3009 71.0611 90.7211 71.0611 91.2159V91.5923H66.7251V90.7969H70.0206C70.0206 90.5175 69.9638 90.2701 69.8501 90.0547C69.7365 89.8369 69.5767 89.6652 69.3707 89.5398C69.1671 89.4143 68.928 89.3516 68.6534 89.3516C68.3551 89.3516 68.0947 89.425 67.8722 89.5717C67.652 89.7161 67.4815 89.9055 67.3608 90.1399C67.2424 90.3719 67.1832 90.6241 67.1832 90.8963V91.5178C67.1832 91.8823 67.2472 92.1925 67.375 92.4482C67.5052 92.7038 67.6863 92.8991 67.9183 93.0341C68.1503 93.1667 68.4214 93.233 68.7315 93.233C68.9328 93.233 69.1162 93.2045 69.282 93.1477C69.4477 93.0885 69.5909 93.0009 69.7116 92.8849C69.8324 92.7689 69.9247 92.6257 69.9886 92.4553L70.9936 92.6364C70.9131 92.9323 70.7687 93.1915 70.5604 93.4141C70.3544 93.6342 70.0952 93.8059 69.7827 93.929C69.4725 94.0497 69.1186 94.1101 68.7209 94.1101ZM72.9387 94.0675C72.7446 94.0675 72.5777 93.9988 72.438 93.8615C72.2984 93.7218 72.2285 93.5537 72.2285 93.3572C72.2285 93.1631 72.2984 92.9974 72.438 92.8601C72.5777 92.7204 72.7446 92.6506 72.9387 92.6506C73.1329 92.6506 73.2998 92.7204 73.4395 92.8601C73.5791 92.9974 73.649 93.1631 73.649 93.3572C73.649 93.4875 73.6158 93.607 73.5495 93.7159C73.4856 93.8224 73.4004 93.9077 73.2939 93.9716C73.1873 94.0355 73.069 94.0675 72.9387 94.0675ZM75.7708 94.0675C75.5766 94.0675 75.4097 93.9988 75.2701 93.8615C75.1304 93.7218 75.0605 93.5537 75.0605 93.3572C75.0605 93.1631 75.1304 92.9974 75.2701 92.8601C75.4097 92.7204 75.5766 92.6506 75.7708 92.6506C75.9649 92.6506 76.1318 92.7204 76.2715 92.8601C76.4112 92.9974 76.481 93.1631 76.481 93.3572C76.481 93.4875 76.4479 93.607 76.3816 93.7159C76.3176 93.8224 76.2324 93.9077 76.1259 93.9716C76.0194 94.0355 75.901 94.0675 75.7708 94.0675Z" fill="#9E9E9E"/>
<path d="M215 88L219.5 92.5L224 88" stroke="black"/>
</svg>
