<svg width="300" height="180" viewBox="0 0 300 180" fill="none" xmlns="http://www.w3.org/2000/svg">
<rect width="300" height="180" fill="#F6F7FB"/>
<path d="M33.6676 90L31.2472 81.2727H32.6321L34.3324 88.0312H34.4134L36.1818 81.2727H37.554L39.3224 88.0355H39.4034L41.0994 81.2727H42.4886L40.0639 90H38.7386L36.902 83.4631H36.8338L34.9972 90H33.6676ZM44.8612 86.1136V90H43.587V81.2727H44.8441V84.5199H44.9251C45.0785 84.1676 45.3129 83.8878 45.6282 83.6804C45.9435 83.473 46.3555 83.3693 46.864 83.3693C47.3129 83.3693 47.7049 83.4616 48.0401 83.6463C48.3782 83.831 48.6396 84.1065 48.8242 84.473C49.0117 84.8366 49.1055 85.2912 49.1055 85.8366V90H47.8313V85.9901C47.8313 85.5099 47.7077 85.1378 47.4606 84.8736C47.2134 84.6065 46.8697 84.473 46.4293 84.473C46.1282 84.473 45.8583 84.5369 45.6197 84.6648C45.3839 84.7926 45.1978 84.9801 45.0614 85.2273C44.9279 85.4716 44.8612 85.767 44.8612 86.1136ZM52.7106 90.1449C52.2958 90.1449 51.9208 90.0682 51.5856 89.9148C51.2504 89.7585 50.9847 89.5327 50.7887 89.2372C50.5955 88.9418 50.4989 88.5795 50.4989 88.1506C50.4989 87.7812 50.57 87.4773 50.712 87.2386C50.854 87 51.0458 86.8111 51.2873 86.6719C51.5288 86.5327 51.7987 86.4276 52.0969 86.3565C52.3952 86.2855 52.6992 86.2315 53.0089 86.1946C53.4009 86.1491 53.7191 86.1122 53.9634 86.0838C54.2077 86.0526 54.3853 86.0028 54.4961 85.9347C54.6069 85.8665 54.6623 85.7557 54.6623 85.6023V85.5724C54.6623 85.2003 54.5572 84.9119 54.3469 84.7074C54.1396 84.5028 53.8299 84.4006 53.418 84.4006C52.989 84.4006 52.6509 84.4957 52.4038 84.6861C52.1594 84.8736 51.9904 85.0824 51.8967 85.3125L50.6992 85.0398C50.8413 84.642 51.0487 84.321 51.3214 84.0767C51.5969 83.8295 51.9137 83.6506 52.2717 83.5398C52.6296 83.4261 53.006 83.3693 53.4009 83.3693C53.6623 83.3693 53.9393 83.4006 54.2319 83.4631C54.5273 83.5227 54.8029 83.6335 55.0586 83.7955C55.3171 83.9574 55.5288 84.1889 55.6935 84.4901C55.8583 84.7884 55.9407 85.1761 55.9407 85.6534V90H54.6964V89.1051H54.6452C54.5629 89.2699 54.4393 89.4318 54.2745 89.5909C54.1097 89.75 53.8981 89.8821 53.6396 89.9872C53.381 90.0923 53.0714 90.1449 52.7106 90.1449ZM52.9876 89.1222C53.3398 89.1222 53.641 89.0526 53.891 88.9134C54.1438 88.7741 54.3356 88.5923 54.4663 88.3679C54.5998 88.1406 54.6665 87.8977 54.6665 87.6392V86.7955C54.6211 86.8409 54.533 86.8835 54.4023 86.9233C54.2745 86.9602 54.1282 86.9929 53.9634 87.0213C53.7987 87.0469 53.6381 87.071 53.4819 87.0938C53.3256 87.1136 53.195 87.1307 53.0898 87.1449C52.8427 87.1761 52.6168 87.2287 52.4123 87.3026C52.2106 87.3764 52.0487 87.483 51.9265 87.6222C51.8072 87.7585 51.7475 87.9403 51.7475 88.1676C51.7475 88.483 51.864 88.7216 52.0969 88.8835C52.3299 89.0426 52.6268 89.1222 52.9876 89.1222ZM60.6932 83.4545V84.4773H57.1179V83.4545H60.6932ZM58.0767 81.8864H59.3509V88.0781C59.3509 88.3253 59.3878 88.5114 59.4616 88.6364C59.5355 88.7585 59.6307 88.8423 59.7472 88.8878C59.8665 88.9304 59.9957 88.9517 60.1349 88.9517C60.2372 88.9517 60.3267 88.9446 60.4034 88.9304C60.4801 88.9162 60.5398 88.9048 60.5824 88.8963L60.8125 89.9489C60.7386 89.9773 60.6335 90.0057 60.4972 90.0341C60.3608 90.0653 60.1903 90.0824 59.9858 90.0852C59.6506 90.0909 59.3381 90.0312 59.0483 89.9062C58.7585 89.7812 58.5241 89.5881 58.3452 89.3267C58.1662 89.0653 58.0767 88.7372 58.0767 88.3423V81.8864ZM65.2784 92.4545V83.4545H66.5227V84.5156H66.6293C66.7031 84.3793 66.8097 84.2216 66.9489 84.0426C67.0881 83.8636 67.2813 83.7074 67.5284 83.5739C67.7756 83.4375 68.1023 83.3693 68.5085 83.3693C69.0369 83.3693 69.5085 83.5028 69.9233 83.7699C70.3381 84.0369 70.6634 84.4219 70.8991 84.9247C71.1378 85.4276 71.2571 86.0327 71.2571 86.7401C71.2571 87.4474 71.1392 88.054 70.9034 88.5597C70.6676 89.0625 70.3438 89.4503 69.9318 89.723C69.5199 89.9929 69.0497 90.1278 68.5213 90.1278C68.1236 90.1278 67.7983 90.0611 67.5455 89.9276C67.2955 89.794 67.0994 89.6378 66.9574 89.4588C66.8153 89.2798 66.706 89.1207 66.6293 88.9815H66.5526V92.4545H65.2784ZM66.527 86.7273C66.527 87.1875 66.5938 87.5909 66.7273 87.9375C66.8608 88.2841 67.054 88.5554 67.3068 88.7514C67.5597 88.9446 67.8693 89.0412 68.2358 89.0412C68.6165 89.0412 68.9347 88.9403 69.1903 88.7386C69.446 88.5341 69.6392 88.2571 69.7699 87.9077C69.9034 87.5582 69.9702 87.1648 69.9702 86.7273C69.9702 86.2955 69.9048 85.9077 69.7741 85.5639C69.6463 85.2202 69.4531 84.9489 69.1946 84.75C68.9389 84.5511 68.6193 84.4517 68.2358 84.4517C67.8665 84.4517 67.554 84.5469 67.2983 84.7372C67.0455 84.9276 66.8537 85.1932 66.723 85.5341C66.5923 85.875 66.527 86.2727 66.527 86.7273ZM73.9588 81.2727V90H72.6847V81.2727H73.9588ZM77.5778 90.1449C77.163 90.1449 76.788 90.0682 76.4528 89.9148C76.1175 89.7585 75.8519 89.5327 75.6559 89.2372C75.4627 88.9418 75.3661 88.5795 75.3661 88.1506C75.3661 87.7812 75.4371 87.4773 75.5792 87.2386C75.7212 87 75.913 86.8111 76.1545 86.6719C76.396 86.5327 76.6658 86.4276 76.9641 86.3565C77.2624 86.2855 77.5664 86.2315 77.8761 86.1946C78.2681 86.1491 78.5863 86.1122 78.8306 86.0838C79.0749 86.0526 79.2525 86.0028 79.3633 85.9347C79.4741 85.8665 79.5295 85.7557 79.5295 85.6023V85.5724C79.5295 85.2003 79.4244 84.9119 79.2141 84.7074C79.0067 84.5028 78.6971 84.4006 78.2852 84.4006C77.8562 84.4006 77.5181 84.4957 77.271 84.6861C77.0266 84.8736 76.8576 85.0824 76.7638 85.3125L75.5664 85.0398C75.7085 84.642 75.9158 84.321 76.1886 84.0767C76.4641 83.8295 76.7809 83.6506 77.1388 83.5398C77.4968 83.4261 77.8732 83.3693 78.2681 83.3693C78.5295 83.3693 78.8065 83.4006 79.0991 83.4631C79.3945 83.5227 79.6701 83.6335 79.9258 83.7955C80.1843 83.9574 80.396 84.1889 80.5607 84.4901C80.7255 84.7884 80.8079 85.1761 80.8079 85.6534V90H79.5636V89.1051H79.5124C79.43 89.2699 79.3065 89.4318 79.1417 89.5909C78.9769 89.75 78.7653 89.8821 78.5067 89.9872C78.2482 90.0923 77.9386 90.1449 77.5778 90.1449ZM77.8548 89.1222C78.207 89.1222 78.5082 89.0526 78.7582 88.9134C79.011 88.7741 79.2028 88.5923 79.3335 88.3679C79.467 88.1406 79.5337 87.8977 79.5337 87.6392V86.7955C79.4883 86.8409 79.4002 86.8835 79.2695 86.9233C79.1417 86.9602 78.9954 86.9929 78.8306 87.0213C78.6658 87.0469 78.5053 87.071 78.3491 87.0938C78.1928 87.1136 78.0621 87.1307 77.957 87.1449C77.7099 87.1761 77.484 87.2287 77.2795 87.3026C77.0778 87.3764 76.9158 87.483 76.7937 87.6222C76.6744 87.7585 76.6147 87.9403 76.6147 88.1676C76.6147 88.483 76.7312 88.7216 76.9641 88.8835C77.1971 89.0426 77.494 89.1222 77.8548 89.1222ZM83.7791 86.1136V90H82.505V83.4545H83.728V84.5199H83.8089C83.9595 84.1733 84.1953 83.8949 84.5163 83.6847C84.8402 83.4744 85.2479 83.3693 85.7393 83.3693C86.1854 83.3693 86.576 83.4631 86.9112 83.6506C87.2464 83.8352 87.5064 84.1108 87.6911 84.4773C87.8757 84.8437 87.968 85.2969 87.968 85.8366V90H86.6939V85.9901C86.6939 85.5156 86.5703 85.1449 86.3232 84.8778C86.076 84.608 85.7365 84.473 85.3047 84.473C85.0092 84.473 84.7464 84.5369 84.5163 84.6648C84.2891 84.7926 84.1087 84.9801 83.9751 85.2273C83.8445 85.4716 83.7791 85.767 83.7791 86.1136ZM92.4979 90.1321C91.853 90.1321 91.2976 89.9943 90.8317 89.7188C90.3686 89.4403 90.0107 89.0497 89.7578 88.5469C89.5078 88.0412 89.3828 87.4489 89.3828 86.7699C89.3828 86.0994 89.5078 85.5085 89.7578 84.9972C90.0107 84.4858 90.3629 84.0866 90.8146 83.7997C91.2692 83.5128 91.8004 83.3693 92.4084 83.3693C92.7777 83.3693 93.1357 83.4304 93.4822 83.5526C93.8288 83.6747 94.1399 83.8665 94.4155 84.1278C94.6911 84.3892 94.9084 84.7287 95.0675 85.1463C95.2266 85.5611 95.3061 86.0653 95.3061 86.6591V87.1108H90.103V86.1562H94.0575C94.0575 85.821 93.9893 85.5241 93.853 85.2656C93.7166 85.0043 93.5249 84.7983 93.2777 84.6477C93.0334 84.4972 92.7464 84.4219 92.4169 84.4219C92.0589 84.4219 91.7464 84.5099 91.4794 84.6861C91.2152 84.8594 91.0107 85.0866 90.8658 85.3679C90.7237 85.6463 90.6527 85.9489 90.6527 86.2756V87.0213C90.6527 87.4588 90.7294 87.831 90.8828 88.1378C91.0391 88.4446 91.2564 88.679 91.5348 88.8409C91.8132 89 92.1385 89.0795 92.5107 89.0795C92.7521 89.0795 92.9723 89.0455 93.1712 88.9773C93.37 88.9062 93.5419 88.8011 93.6868 88.6619C93.8317 88.5227 93.9425 88.3509 94.0192 88.1463L95.2251 88.3636C95.1286 88.7187 94.9553 89.0298 94.7053 89.2969C94.4581 89.5611 94.147 89.767 93.772 89.9148C93.3999 90.0597 92.9751 90.1321 92.4979 90.1321ZM99.7752 83.4545V84.4773H96.1999V83.4545H99.7752ZM97.1587 81.8864H98.4329V88.0781C98.4329 88.3253 98.4698 88.5114 98.5437 88.6364C98.6175 88.7585 98.7127 88.8423 98.8292 88.8878C98.9485 88.9304 99.0778 88.9517 99.217 88.9517C99.3192 88.9517 99.4087 88.9446 99.4854 88.9304C99.5621 88.9162 99.6218 88.9048 99.6644 88.8963L99.8945 89.9489C99.8207 89.9773 99.7156 90.0057 99.5792 90.0341C99.4428 90.0653 99.2724 90.0824 99.0678 90.0852C98.7326 90.0909 98.4201 90.0312 98.1303 89.9062C97.8406 89.7812 97.6062 89.5881 97.4272 89.3267C97.2482 89.0653 97.1587 88.7372 97.1587 88.3423V81.8864ZM104.36 90V83.4545H105.635V90H104.36ZM105.004 82.4446C104.782 82.4446 104.592 82.3707 104.433 82.223C104.277 82.0724 104.199 81.8935 104.199 81.6861C104.199 81.4759 104.277 81.2969 104.433 81.1491C104.592 80.9986 104.782 80.9233 105.004 80.9233C105.225 80.9233 105.414 80.9986 105.571 81.1491C105.73 81.2969 105.809 81.4759 105.809 81.6861C105.809 81.8935 105.73 82.0724 105.571 82.223C105.414 82.3707 105.225 82.4446 105.004 82.4446ZM112.254 85.0526L111.099 85.2571C111.05 85.1094 110.974 84.9687 110.869 84.8352C110.766 84.7017 110.627 84.5923 110.451 84.5071C110.275 84.4219 110.055 84.3793 109.79 84.3793C109.43 84.3793 109.129 84.4602 108.887 84.6222C108.646 84.7812 108.525 84.9872 108.525 85.2401C108.525 85.4588 108.606 85.6349 108.768 85.7685C108.93 85.902 109.191 86.0114 109.552 86.0966L110.592 86.3352C111.194 86.4744 111.643 86.6889 111.938 86.9787C112.234 87.2685 112.381 87.6449 112.381 88.108C112.381 88.5 112.268 88.8494 112.04 89.1562C111.816 89.4602 111.502 89.6989 111.099 89.8722C110.698 90.0455 110.234 90.1321 109.705 90.1321C108.972 90.1321 108.374 89.9759 107.911 89.6634C107.448 89.348 107.164 88.9006 107.059 88.321L108.29 88.1335C108.367 88.4545 108.525 88.6974 108.763 88.8622C109.002 89.0241 109.313 89.1051 109.697 89.1051C110.114 89.1051 110.448 89.0185 110.698 88.8452C110.948 88.669 111.073 88.4545 111.073 88.2017C111.073 87.9972 110.996 87.8253 110.843 87.6861C110.692 87.5469 110.461 87.4418 110.148 87.3707L109.04 87.1278C108.43 86.9886 107.978 86.767 107.685 86.4631C107.396 86.1591 107.251 85.7741 107.251 85.3082C107.251 84.9219 107.359 84.5838 107.575 84.294C107.79 84.0043 108.089 83.7784 108.469 83.6165C108.85 83.4517 109.286 83.3693 109.778 83.3693C110.485 83.3693 111.042 83.5227 111.448 83.8295C111.854 84.1335 112.123 84.5412 112.254 85.0526ZM118.13 87.7798L118.121 86.2244H118.343L120.951 83.4545H122.477L119.502 86.608H119.302L118.13 87.7798ZM116.958 90V81.2727H118.232V90H116.958ZM121.092 90L118.748 86.8892L119.626 85.9986L122.656 90H121.092ZM124.912 86.1136V90H123.638V83.4545H124.861V84.5199H124.942C125.092 84.1733 125.328 83.8949 125.649 83.6847C125.973 83.4744 126.381 83.3693 126.872 83.3693C127.318 83.3693 127.709 83.4631 128.044 83.6506C128.379 83.8352 128.639 84.1108 128.824 84.4773C129.009 84.8437 129.101 85.2969 129.101 85.8366V90H127.827V85.9901C127.827 85.5156 127.703 85.1449 127.456 84.8778C127.209 84.608 126.869 84.473 126.438 84.473C126.142 84.473 125.879 84.5369 125.649 84.6648C125.422 84.7926 125.241 84.9801 125.108 85.2273C124.977 85.4716 124.912 85.767 124.912 86.1136ZM133.567 90.1321C132.953 90.1321 132.418 89.9915 131.96 89.7102C131.503 89.429 131.148 89.0355 130.895 88.5298C130.642 88.0241 130.516 87.4332 130.516 86.7571C130.516 86.0781 130.642 85.4844 130.895 84.9759C131.148 84.4673 131.503 84.0724 131.96 83.7912C132.418 83.5099 132.953 83.3693 133.567 83.3693C134.18 83.3693 134.716 83.5099 135.173 83.7912C135.631 84.0724 135.986 84.4673 136.239 84.9759C136.491 85.4844 136.618 86.0781 136.618 86.7571C136.618 87.4332 136.491 88.0241 136.239 88.5298C135.986 89.0355 135.631 89.429 135.173 89.7102C134.716 89.9915 134.18 90.1321 133.567 90.1321ZM133.571 89.0625C133.969 89.0625 134.298 88.9574 134.56 88.7472C134.821 88.5369 135.014 88.2571 135.139 87.9077C135.267 87.5582 135.331 87.1733 135.331 86.7528C135.331 86.3352 135.267 85.9517 135.139 85.6023C135.014 85.25 134.821 84.9673 134.56 84.7543C134.298 84.5412 133.969 84.4347 133.571 84.4347C133.17 84.4347 132.838 84.5412 132.574 84.7543C132.313 84.9673 132.118 85.25 131.99 85.6023C131.865 85.9517 131.803 86.3352 131.803 86.7528C131.803 87.1733 131.865 87.5582 131.99 87.9077C132.118 88.2571 132.313 88.5369 132.574 88.7472C132.838 88.9574 133.17 89.0625 133.571 89.0625ZM139.26 90L137.334 83.4545H138.651L139.933 88.2614H139.997L141.284 83.4545H142.601L143.879 88.2401H143.943L145.217 83.4545H146.534L144.612 90H143.312L141.983 85.2741H141.885L140.555 90H139.26ZM149.017 86.1136V90H147.743V83.4545H148.966V84.5199H149.047C149.198 84.1733 149.434 83.8949 149.755 83.6847C150.078 83.4744 150.486 83.3693 150.978 83.3693C151.424 83.3693 151.814 83.4631 152.15 83.6506C152.485 83.8352 152.745 84.1108 152.929 84.4773C153.114 84.8437 153.206 85.2969 153.206 85.8366V90H151.932V85.9901C151.932 85.5156 151.809 85.1449 151.561 84.8778C151.314 84.608 150.975 84.473 150.543 84.473C150.248 84.473 149.985 84.5369 149.755 84.6648C149.527 84.7926 149.347 84.9801 149.213 85.2273C149.083 85.4716 149.017 85.767 149.017 86.1136ZM159.996 90.1449C159.581 90.1449 159.206 90.0682 158.871 89.9148C158.536 89.7585 158.27 89.5327 158.074 89.2372C157.881 88.9418 157.784 88.5795 157.784 88.1506C157.784 87.7812 157.855 87.4773 157.997 87.2386C158.139 87 158.331 86.8111 158.572 86.6719C158.814 86.5327 159.084 86.4276 159.382 86.3565C159.68 86.2855 159.984 86.2315 160.294 86.1946C160.686 86.1491 161.004 86.1122 161.249 86.0838C161.493 86.0526 161.67 86.0028 161.781 85.9347C161.892 85.8665 161.947 85.7557 161.947 85.6023V85.5724C161.947 85.2003 161.842 84.9119 161.632 84.7074C161.425 84.5028 161.115 84.4006 160.703 84.4006C160.274 84.4006 159.936 84.4957 159.689 84.6861C159.445 84.8736 159.276 85.0824 159.182 85.3125L157.984 85.0398C158.126 84.642 158.334 84.321 158.607 84.0767C158.882 83.8295 159.199 83.6506 159.557 83.5398C159.915 83.4261 160.291 83.3693 160.686 83.3693C160.947 83.3693 161.224 83.4006 161.517 83.4631C161.813 83.5227 162.088 83.6335 162.344 83.7955C162.602 83.9574 162.814 84.1889 162.979 84.4901C163.143 84.7884 163.226 85.1761 163.226 85.6534V90H161.982V89.1051H161.93C161.848 89.2699 161.724 89.4318 161.56 89.5909C161.395 89.75 161.183 89.8821 160.925 89.9872C160.666 90.0923 160.357 90.1449 159.996 90.1449ZM160.273 89.1222C160.625 89.1222 160.926 89.0526 161.176 88.9134C161.429 88.7741 161.621 88.5923 161.751 88.3679C161.885 88.1406 161.952 87.8977 161.952 87.6392V86.7955C161.906 86.8409 161.818 86.8835 161.688 86.9233C161.56 86.9602 161.413 86.9929 161.249 87.0213C161.084 87.0469 160.923 87.071 160.767 87.0938C160.611 87.1136 160.48 87.1307 160.375 87.1449C160.128 87.1761 159.902 87.2287 159.697 87.3026C159.496 87.3764 159.334 87.483 159.212 87.6222C159.092 87.7585 159.033 87.9403 159.033 88.1676C159.033 88.483 159.149 88.7216 159.382 88.8835C159.615 89.0426 159.912 89.1222 160.273 89.1222ZM169.828 85.0526L168.673 85.2571C168.625 85.1094 168.548 84.9687 168.443 84.8352C168.341 84.7017 168.201 84.5923 168.025 84.5071C167.849 84.4219 167.629 84.3793 167.365 84.3793C167.004 84.3793 166.703 84.4602 166.461 84.6222C166.22 84.7812 166.099 84.9872 166.099 85.2401C166.099 85.4588 166.18 85.6349 166.342 85.7685C166.504 85.902 166.765 86.0114 167.126 86.0966L168.166 86.3352C168.768 86.4744 169.217 86.6889 169.512 86.9787C169.808 87.2685 169.956 87.6449 169.956 88.108C169.956 88.5 169.842 88.8494 169.615 89.1562C169.39 89.4602 169.076 89.6989 168.673 89.8722C168.272 90.0455 167.808 90.1321 167.279 90.1321C166.547 90.1321 165.949 89.9759 165.485 89.6634C165.022 89.348 164.738 88.9006 164.633 88.321L165.865 88.1335C165.941 88.4545 166.099 88.6974 166.338 88.8622C166.576 89.0241 166.887 89.1051 167.271 89.1051C167.689 89.1051 168.022 89.0185 168.272 88.8452C168.522 88.669 168.647 88.4545 168.647 88.2017C168.647 87.9972 168.571 87.8253 168.417 87.6861C168.267 87.5469 168.035 87.4418 167.723 87.3707L166.615 87.1278C166.004 86.9886 165.552 86.767 165.26 86.4631C164.97 86.1591 164.825 85.7741 164.825 85.3082C164.825 84.9219 164.933 84.5838 165.149 84.294C165.365 84.0043 165.663 83.7784 166.044 83.6165C166.424 83.4517 166.86 83.3693 167.352 83.3693C168.059 83.3693 168.616 83.5227 169.022 83.8295C169.429 84.1335 169.697 84.5412 169.828 85.0526ZM177.588 83.4545V84.4773H174.012V83.4545H177.588ZM174.971 81.8864H176.245V88.0781C176.245 88.3253 176.282 88.5114 176.356 88.6364C176.43 88.7585 176.525 88.8423 176.642 88.8878C176.761 88.9304 176.89 88.9517 177.029 88.9517C177.132 88.9517 177.221 88.9446 177.298 88.9304C177.375 88.9162 177.434 88.9048 177.477 88.8963L177.707 89.9489C177.633 89.9773 177.528 90.0057 177.392 90.0341C177.255 90.0653 177.085 90.0824 176.88 90.0852C176.545 90.0909 176.233 90.0312 175.943 89.9062C175.653 89.7812 175.419 89.5881 175.24 89.3267C175.061 89.0653 174.971 88.7372 174.971 88.3423V81.8864ZM180.412 86.1136V90H179.138V81.2727H180.395V84.5199H180.476C180.629 84.1676 180.864 83.8878 181.179 83.6804C181.494 83.473 181.906 83.3693 182.415 83.3693C182.864 83.3693 183.256 83.4616 183.591 83.6463C183.929 83.831 184.19 84.1065 184.375 84.473C184.562 84.8366 184.656 85.2912 184.656 85.8366V90H183.382V85.9901C183.382 85.5099 183.259 85.1378 183.011 84.8736C182.764 84.6065 182.42 84.473 181.98 84.473C181.679 84.473 181.409 84.5369 181.17 84.6648C180.935 84.7926 180.749 84.9801 180.612 85.2273C180.479 85.4716 180.412 85.767 180.412 86.1136ZM189.178 90.1321C188.533 90.1321 187.977 89.9943 187.511 89.7188C187.048 89.4403 186.69 89.0497 186.438 88.5469C186.188 88.0412 186.062 87.4489 186.062 86.7699C186.062 86.0994 186.188 85.5085 186.438 84.9972C186.69 84.4858 187.043 84.0866 187.494 83.7997C187.949 83.5128 188.48 83.3693 189.088 83.3693C189.457 83.3693 189.815 83.4304 190.162 83.5526C190.509 83.6747 190.82 83.8665 191.095 84.1278C191.371 84.3892 191.588 84.7287 191.747 85.1463C191.906 85.5611 191.986 86.0653 191.986 86.6591V87.1108H186.783V86.1562H190.737C190.737 85.821 190.669 85.5241 190.533 85.2656C190.396 85.0043 190.205 84.7983 189.957 84.6477C189.713 84.4972 189.426 84.4219 189.097 84.4219C188.739 84.4219 188.426 84.5099 188.159 84.6861C187.895 84.8594 187.69 85.0866 187.545 85.3679C187.403 85.6463 187.332 85.9489 187.332 86.2756V87.0213C187.332 87.4588 187.409 87.831 187.562 88.1378C187.719 88.4446 187.936 88.679 188.214 88.8409C188.493 89 188.818 89.0795 189.19 89.0795C189.432 89.0795 189.652 89.0455 189.851 88.9773C190.05 88.9062 190.222 88.8011 190.366 88.6619C190.511 88.5227 190.622 88.3509 190.699 88.1463L191.905 88.3636C191.808 88.7187 191.635 89.0298 191.385 89.2969C191.138 89.5611 190.827 89.767 190.452 89.9148C190.08 90.0597 189.655 90.1321 189.178 90.1321ZM196.324 84V83.1818C196.324 82.9403 196.369 82.6861 196.46 82.419C196.551 82.152 196.678 81.8963 196.839 81.652C197.001 81.4077 197.192 81.1989 197.411 81.0256L198.041 81.4773C197.868 81.7301 197.72 81.9943 197.598 82.2699C197.476 82.5455 197.415 82.8452 197.415 83.169V84H196.324ZM198.497 84V83.1818C198.497 82.9403 198.543 82.6861 198.634 82.419C198.724 82.152 198.851 81.8963 199.013 81.652C199.175 81.4077 199.365 81.1989 199.584 81.0256L200.214 81.4773C200.041 81.7301 199.893 81.9943 199.771 82.2699C199.649 82.5455 199.588 82.8452 199.588 83.169V84H198.497ZM201.412 90V81.2727H204.523C205.199 81.2727 205.76 81.3892 206.206 81.6222C206.655 81.8551 206.99 82.1776 207.212 82.5895C207.433 82.9986 207.544 83.4716 207.544 84.0085C207.544 84.5426 207.432 85.0128 207.207 85.419C206.986 85.8224 206.651 86.1364 206.202 86.3608C205.756 86.5852 205.195 86.6974 204.518 86.6974H202.162V85.5639H204.399C204.825 85.5639 205.172 85.5028 205.439 85.3807C205.709 85.2585 205.906 85.081 206.031 84.848C206.156 84.6151 206.219 84.3352 206.219 84.0085C206.219 83.679 206.155 83.3935 206.027 83.152C205.902 82.9105 205.705 82.7259 205.435 82.598C205.168 82.4673 204.817 82.402 204.382 82.402H202.729V90H201.412ZM205.72 86.0625L207.876 90H206.376L204.263 86.0625H205.72ZM211.783 90.1321C211.138 90.1321 210.583 89.9943 210.117 89.7188C209.654 89.4403 209.296 89.0497 209.043 88.5469C208.793 88.0412 208.668 87.4489 208.668 86.7699C208.668 86.0994 208.793 85.5085 209.043 84.9972C209.296 84.4858 209.648 84.0866 210.1 83.7997C210.554 83.5128 211.086 83.3693 211.694 83.3693C212.063 83.3693 212.421 83.4304 212.767 83.5526C213.114 83.6747 213.425 83.8665 213.701 84.1278C213.976 84.3892 214.194 84.7287 214.353 85.1463C214.512 85.5611 214.591 86.0653 214.591 86.6591V87.1108H209.388V86.1562H213.343C213.343 85.821 213.275 85.5241 213.138 85.2656C213.002 85.0043 212.81 84.7983 212.563 84.6477C212.319 84.4972 212.032 84.4219 211.702 84.4219C211.344 84.4219 211.032 84.5099 210.765 84.6861C210.5 84.8594 210.296 85.0866 210.151 85.3679C210.009 85.6463 209.938 85.9489 209.938 86.2756V87.0213C209.938 87.4588 210.015 87.831 210.168 88.1378C210.324 88.4446 210.542 88.679 210.82 88.8409C211.098 89 211.424 89.0795 211.796 89.0795C212.037 89.0795 212.257 89.0455 212.456 88.9773C212.655 88.9062 212.827 88.8011 212.972 88.6619C213.117 88.5227 213.228 88.3509 213.304 88.1463L214.51 88.3636C214.414 88.7187 214.24 89.0298 213.99 89.2969C213.743 89.5611 213.432 89.767 213.057 89.9148C212.685 90.0597 212.26 90.1321 211.783 90.1321ZM218.455 90.1278C217.927 90.1278 217.455 89.9929 217.04 89.723C216.629 89.4503 216.305 89.0625 216.069 88.5597C215.836 88.054 215.719 87.4474 215.719 86.7401C215.719 86.0327 215.837 85.4276 216.073 84.9247C216.312 84.4219 216.638 84.0369 217.053 83.7699C217.468 83.5028 217.938 83.3693 218.464 83.3693C218.87 83.3693 219.197 83.4375 219.444 83.5739C219.694 83.7074 219.887 83.8636 220.023 84.0426C220.163 84.2216 220.271 84.3793 220.347 84.5156H220.424V81.2727H221.698V90H220.454V88.9815H220.347C220.271 89.1207 220.16 89.2798 220.015 89.4588C219.873 89.6378 219.677 89.794 219.427 89.9276C219.177 90.0611 218.853 90.1278 218.455 90.1278ZM218.737 89.0412C219.103 89.0412 219.413 88.9446 219.665 88.7514C219.921 88.5554 220.114 88.2841 220.245 87.9375C220.379 87.5909 220.445 87.1875 220.445 86.7273C220.445 86.2727 220.38 85.875 220.249 85.5341C220.119 85.1932 219.927 84.9276 219.674 84.7372C219.421 84.5469 219.109 84.4517 218.737 84.4517C218.353 84.4517 218.033 84.5511 217.778 84.75C217.522 84.9489 217.329 85.2202 217.198 85.5639C217.07 85.9077 217.006 86.2955 217.006 86.7273C217.006 87.1648 217.072 87.5582 217.202 87.9077C217.333 88.2571 217.526 88.5341 217.782 88.7386C218.04 88.9403 218.359 89.0412 218.737 89.0412ZM226.795 90V81.2727H229.906C230.585 81.2727 231.147 81.3963 231.593 81.6435C232.039 81.8906 232.373 82.2287 232.594 82.6577C232.816 83.0838 232.927 83.5639 232.927 84.098C232.927 84.6349 232.815 85.1179 232.59 85.5469C232.369 85.973 232.033 86.3111 231.585 86.5611C231.138 86.8082 230.577 86.9318 229.901 86.9318H227.762V85.8153H229.782C230.211 85.8153 230.559 85.7415 230.826 85.5938C231.093 85.4432 231.289 85.2386 231.414 84.9801C231.539 84.7216 231.602 84.4276 231.602 84.098C231.602 83.7685 231.539 83.4759 231.414 83.2202C231.289 82.9645 231.092 82.7642 230.822 82.6193C230.555 82.4744 230.202 82.402 229.765 82.402H228.112V90H226.795ZM235.642 81.2727V90H234.368V81.2727H235.642ZM239.261 90.1449C238.847 90.1449 238.472 90.0682 238.136 89.9148C237.801 89.7585 237.536 89.5327 237.339 89.2372C237.146 88.9418 237.05 88.5795 237.05 88.1506C237.05 87.7812 237.121 87.4773 237.263 87.2386C237.405 87 237.597 86.8111 237.838 86.6719C238.08 86.5327 238.349 86.4276 238.648 86.3565C238.946 86.2855 239.25 86.2315 239.56 86.1946C239.952 86.1491 240.27 86.1122 240.514 86.0838C240.759 86.0526 240.936 86.0028 241.047 85.9347C241.158 85.8665 241.213 85.7557 241.213 85.6023V85.5724C241.213 85.2003 241.108 84.9119 240.898 84.7074C240.69 84.5028 240.381 84.4006 239.969 84.4006C239.54 84.4006 239.202 84.4957 238.955 84.6861C238.71 84.8736 238.541 85.0824 238.447 85.3125L237.25 85.0398C237.392 84.642 237.599 84.321 237.872 84.0767C238.148 83.8295 238.464 83.6506 238.822 83.5398C239.18 83.4261 239.557 83.3693 239.952 83.3693C240.213 83.3693 240.49 83.4006 240.783 83.4631C241.078 83.5227 241.354 83.6335 241.609 83.7955C241.868 83.9574 242.08 84.1889 242.244 84.4901C242.409 84.7884 242.491 85.1761 242.491 85.6534V90H241.247V89.1051H241.196C241.114 89.2699 240.99 89.4318 240.825 89.5909C240.661 89.75 240.449 89.8821 240.19 89.9872C239.932 90.0923 239.622 90.1449 239.261 90.1449ZM239.538 89.1222C239.891 89.1222 240.192 89.0526 240.442 88.9134C240.695 88.7741 240.886 88.5923 241.017 88.3679C241.151 88.1406 241.217 87.8977 241.217 87.6392V86.7955C241.172 86.8409 241.084 86.8835 240.953 86.9233C240.825 86.9602 240.679 86.9929 240.514 87.0213C240.349 87.0469 240.189 87.071 240.033 87.0938C239.876 87.1136 239.746 87.1307 239.641 87.1449C239.393 87.1761 239.168 87.2287 238.963 87.3026C238.761 87.3764 238.599 87.483 238.477 87.6222C238.358 87.7585 238.298 87.9403 238.298 88.1676C238.298 88.483 238.415 88.7216 238.648 88.8835C238.881 89.0426 239.178 89.1222 239.538 89.1222ZM245.463 86.1136V90H244.189V83.4545H245.412V84.5199H245.493C245.643 84.1733 245.879 83.8949 246.2 83.6847C246.524 83.4744 246.931 83.3693 247.423 83.3693C247.869 83.3693 248.26 83.4631 248.595 83.6506C248.93 83.8352 249.19 84.1108 249.375 84.4773C249.559 84.8437 249.652 85.2969 249.652 85.8366V90H248.377V85.9901C248.377 85.5156 248.254 85.1449 248.007 84.8778C247.76 84.608 247.42 84.473 246.988 84.473C246.693 84.473 246.43 84.5369 246.2 84.6648C245.973 84.7926 245.792 84.9801 245.659 85.2273C245.528 85.4716 245.463 85.767 245.463 86.1136ZM254.181 90.1321C253.537 90.1321 252.981 89.9943 252.515 89.7188C252.052 89.4403 251.694 89.0497 251.441 88.5469C251.191 88.0412 251.066 87.4489 251.066 86.7699C251.066 86.0994 251.191 85.5085 251.441 84.9972C251.694 84.4858 252.047 84.0866 252.498 83.7997C252.953 83.5128 253.484 83.3693 254.092 83.3693C254.461 83.3693 254.819 83.4304 255.166 83.5526C255.512 83.6747 255.824 83.8665 256.099 84.1278C256.375 84.3892 256.592 84.7287 256.751 85.1463C256.91 85.5611 256.99 86.0653 256.99 86.6591V87.1108H251.787V86.1562H255.741C255.741 85.821 255.673 85.5241 255.537 85.2656C255.4 85.0043 255.208 84.7983 254.961 84.6477C254.717 84.4972 254.43 84.4219 254.1 84.4219C253.743 84.4219 253.43 84.5099 253.163 84.6861C252.899 84.8594 252.694 85.0866 252.549 85.3679C252.407 85.6463 252.336 85.9489 252.336 86.2756V87.0213C252.336 87.4588 252.413 87.831 252.566 88.1378C252.723 88.4446 252.94 88.679 253.218 88.8409C253.497 89 253.822 89.0795 254.194 89.0795C254.436 89.0795 254.656 89.0455 254.855 88.9773C255.054 88.9062 255.225 88.8011 255.37 88.6619C255.515 88.5227 255.626 88.3509 255.703 88.1463L256.909 88.3636C256.812 88.7187 256.639 89.0298 256.389 89.2969C256.142 89.5611 255.831 89.767 255.456 89.9148C255.083 90.0597 254.659 90.1321 254.181 90.1321ZM261.459 83.4545V84.4773H257.884V83.4545H261.459ZM258.842 81.8864H260.116V88.0781C260.116 88.3253 260.153 88.5114 260.227 88.6364C260.301 88.7585 260.396 88.8423 260.513 88.8878C260.632 88.9304 260.761 88.9517 260.901 88.9517C261.003 88.9517 261.092 88.9446 261.169 88.9304C261.246 88.9162 261.305 88.9048 261.348 88.8963L261.578 89.9489C261.504 89.9773 261.399 90.0057 261.263 90.0341C261.126 90.0653 260.956 90.0824 260.751 90.0852C260.416 90.0909 260.104 90.0312 259.814 89.9062C259.524 89.7812 259.29 89.5881 259.111 89.3267C258.932 89.0653 258.842 88.7372 258.842 88.3423V81.8864ZM264.292 81.2727V82.0909C264.292 82.3324 264.246 82.5866 264.155 82.8537C264.067 83.1179 263.942 83.3722 263.78 83.6165C263.618 83.8608 263.428 84.071 263.209 84.2472L262.578 83.7955C262.746 83.5511 262.891 83.2912 263.013 83.0156C263.138 82.7401 263.201 82.4361 263.201 82.1037V81.2727H264.292ZM266.461 81.2727V82.0909C266.461 82.3324 266.415 82.5866 266.324 82.8537C266.236 83.1179 266.111 83.3722 265.949 83.6165C265.787 83.8608 265.597 84.071 265.378 84.2472L264.748 83.7955C264.915 83.5511 265.06 83.2912 265.182 83.0156C265.307 82.7401 265.37 82.4361 265.37 82.1037V81.2727H266.461ZM269.324 87.4901V87.4091C269.33 86.8807 269.382 86.4602 269.482 86.1477C269.584 85.8352 269.729 85.5824 269.917 85.3892C270.104 85.196 270.33 85.0199 270.594 84.8608C270.765 84.7528 270.918 84.6321 271.054 84.4986C271.191 84.3651 271.299 84.2116 271.378 84.0384C271.458 83.8651 271.498 83.6733 271.498 83.4631C271.498 83.2102 271.438 82.9915 271.319 82.8068C271.199 82.6222 271.04 82.4801 270.841 82.3807C270.645 82.2784 270.426 82.2273 270.185 82.2273C269.966 82.2273 269.757 82.2727 269.559 82.3636C269.36 82.4545 269.195 82.5966 269.064 82.7898C268.934 82.9801 268.858 83.2259 268.838 83.527H267.543C267.563 83.0156 267.692 82.5838 267.931 82.2315C268.169 81.8764 268.485 81.608 268.877 81.4261C269.272 81.2443 269.708 81.1534 270.185 81.1534C270.708 81.1534 271.165 81.2514 271.557 81.4474C271.949 81.6406 272.253 81.9119 272.469 82.2614C272.688 82.608 272.797 83.0128 272.797 83.4759C272.797 83.794 272.748 84.081 272.648 84.3366C272.549 84.5895 272.407 84.8153 272.222 85.0142C272.04 85.2131 271.821 85.3892 271.566 85.5426C271.324 85.6932 271.128 85.8494 270.978 86.0114C270.83 86.1733 270.722 86.3651 270.654 86.5866C270.586 86.8082 270.549 87.0824 270.543 87.4091V87.4901H269.324ZM269.968 90.081C269.735 90.081 269.534 89.9986 269.367 89.8338C269.199 89.6662 269.115 89.4645 269.115 89.2287C269.115 88.9957 269.199 88.7969 269.367 88.6321C269.534 88.4645 269.735 88.3807 269.968 88.3807C270.198 88.3807 270.397 88.4645 270.564 88.6321C270.735 88.7969 270.82 88.9957 270.82 89.2287C270.82 89.3849 270.78 89.5284 270.701 89.6591C270.624 89.7869 270.522 89.8892 270.394 89.9659C270.266 90.0426 270.124 90.081 269.968 90.081Z" fill="#333661"/>
<path d="M37.4084 38.7464C37.3686 38.3454 37.1979 38.0339 36.8963 37.8118C36.5947 37.5897 36.1854 37.4787 35.6683 37.4787C35.317 37.4787 35.0204 37.5284 34.7784 37.6278C34.5365 37.724 34.3509 37.8582 34.2216 38.0305C34.0956 38.2029 34.0327 38.3984 34.0327 38.6172C34.026 38.7995 34.0642 38.9586 34.147 39.0945C34.2332 39.2304 34.3509 39.348 34.5 39.4474C34.6491 39.5436 34.8215 39.6281 35.017 39.701C35.2126 39.7706 35.4214 39.8303 35.6435 39.88L36.5582 40.0987C37.0024 40.1982 37.41 40.3307 37.7812 40.4964C38.1525 40.6622 38.474 40.866 38.7457 41.108C39.0175 41.3499 39.228 41.6349 39.3771 41.9631C39.5296 42.2912 39.6075 42.6674 39.6108 43.0916C39.6075 43.7147 39.4484 44.255 39.1335 44.7124C38.822 45.1664 38.3712 45.5194 37.7812 45.7713C37.1946 46.0199 36.487 46.1442 35.6584 46.1442C34.8364 46.1442 34.1205 46.0182 33.5107 45.7663C32.9041 45.5144 32.4302 45.1416 32.0888 44.6477C31.7507 44.1506 31.5734 43.5357 31.5568 42.8033H33.6399C33.6631 43.1446 33.7609 43.4297 33.9332 43.6584C34.1089 43.8838 34.3426 44.0545 34.6342 44.1705C34.9292 44.2831 35.2623 44.3395 35.6335 44.3395C35.9981 44.3395 36.3146 44.2865 36.5831 44.1804C36.8549 44.0743 37.0653 43.9268 37.2145 43.7379C37.3636 43.549 37.4382 43.3319 37.4382 43.0866C37.4382 42.858 37.3703 42.6657 37.2344 42.5099C37.1018 42.3542 36.9063 42.2216 36.6477 42.1122C36.3925 42.0028 36.0793 41.9034 35.7081 41.8139L34.5994 41.5355C33.741 41.3267 33.0632 41.0002 32.5661 40.5561C32.0689 40.112 31.822 39.5137 31.8253 38.7614C31.822 38.1449 31.986 37.6063 32.3175 37.1456C32.6522 36.6849 33.1113 36.3253 33.6946 36.0668C34.2779 35.8082 34.9408 35.679 35.6832 35.679C36.4389 35.679 37.0985 35.8082 37.6619 36.0668C38.2287 36.3253 38.6695 36.6849 38.9844 37.1456C39.2992 37.6063 39.4616 38.1399 39.4716 38.7464H37.4084ZM41.019 46V38.3636H43.1369V46H41.019ZM42.0829 37.3793C41.7681 37.3793 41.4979 37.2749 41.2725 37.0661C41.0505 36.8539 40.9395 36.6004 40.9395 36.3054C40.9395 36.0137 41.0505 35.7635 41.2725 35.5547C41.4979 35.3426 41.7681 35.2365 42.0829 35.2365C42.3978 35.2365 42.6663 35.3426 42.8883 35.5547C43.1137 35.7635 43.2264 36.0137 43.2264 36.3054C43.2264 36.6004 43.1137 36.8539 42.8883 37.0661C42.6663 37.2749 42.3978 37.3793 42.0829 37.3793ZM44.8335 46V38.3636H46.8519V39.7109H46.9414C47.1005 39.2635 47.3656 38.9105 47.7369 38.652C48.1081 38.3935 48.5522 38.2642 49.0692 38.2642C49.5929 38.2642 50.0387 38.3951 50.4066 38.657C50.7745 38.9155 51.0198 39.2668 51.1424 39.7109H51.2219C51.3777 39.2734 51.6594 38.9238 52.0671 38.6619C52.4781 38.3968 52.9637 38.2642 53.5238 38.2642C54.2364 38.2642 54.8147 38.4912 55.2589 38.9453C55.7063 39.3961 55.93 40.0357 55.93 40.8643V46H53.8171V41.282C53.8171 40.8577 53.7044 40.5395 53.479 40.3274C53.2537 40.1153 52.9719 40.0092 52.6339 40.0092C52.2494 40.0092 51.9495 40.1319 51.734 40.3771C51.5186 40.6191 51.4109 40.9389 51.4109 41.3366V46H49.3576V41.2372C49.3576 40.8627 49.2499 40.5644 49.0344 40.3423C48.8223 40.1203 48.5423 40.0092 48.1942 40.0092C47.9589 40.0092 47.7468 40.0689 47.5579 40.1882C47.3723 40.3042 47.2248 40.4683 47.1154 40.6804C47.006 40.8892 46.9513 41.1345 46.9513 41.4162V46H44.8335ZM57.603 48.8636V38.3636H59.6911V39.6463H59.7855C59.8783 39.4408 60.0125 39.232 60.1882 39.0199C60.3672 38.8045 60.5992 38.6255 60.8842 38.483C61.1726 38.3371 61.5305 38.2642 61.9581 38.2642C62.5149 38.2642 63.0286 38.41 63.4993 38.7017C63.9699 38.9901 64.3461 39.4259 64.6278 40.0092C64.9096 40.5893 65.0504 41.3168 65.0504 42.1918C65.0504 43.0436 64.9129 43.7628 64.6378 44.3494C64.366 44.9328 63.9948 45.3752 63.5241 45.6768C63.0568 45.9751 62.5331 46.1243 61.9531 46.1243C61.5421 46.1243 61.1925 46.0563 60.9041 45.9205C60.6191 45.7846 60.3854 45.6139 60.2031 45.4084C60.0208 45.1996 59.8816 44.9891 59.7855 44.777H59.7209V48.8636H57.603ZM59.6761 42.1818C59.6761 42.6359 59.7391 43.032 59.8651 43.37C59.991 43.7081 60.1733 43.9716 60.4119 44.1605C60.6506 44.3461 60.9406 44.4389 61.282 44.4389C61.6267 44.4389 61.9183 44.3445 62.157 44.1555C62.3956 43.9633 62.5762 43.6982 62.6989 43.3601C62.8248 43.0187 62.8878 42.6259 62.8878 42.1818C62.8878 41.741 62.8265 41.3532 62.7038 41.0185C62.5812 40.6837 62.4006 40.4219 62.1619 40.233C61.9233 40.044 61.63 39.9496 61.282 39.9496C60.9373 39.9496 60.6456 40.0407 60.407 40.223C60.1716 40.4053 59.991 40.6638 59.8651 40.9986C59.7391 41.3333 59.6761 41.7277 59.6761 42.1818ZM68.5803 35.8182V46H66.4624V35.8182H68.5803ZM73.7569 46.1491C72.9714 46.1491 72.2953 45.9901 71.7285 45.6719C71.1651 45.3504 70.7309 44.8963 70.426 44.3097C70.121 43.7197 69.9686 43.022 69.9686 42.2166C69.9686 41.4311 70.121 40.7417 70.426 40.1484C70.7309 39.5552 71.1601 39.0928 71.7136 38.7614C72.2704 38.4299 72.9234 38.2642 73.6724 38.2642C74.1762 38.2642 74.6452 38.3454 75.0794 38.5078C75.5169 38.6669 75.898 38.9072 76.2228 39.2287C76.551 39.5502 76.8062 39.9545 76.9885 40.4418C77.1708 40.9257 77.2619 41.4924 77.2619 42.142V42.7237H70.8137V41.4112H75.2683C75.2683 41.1063 75.202 40.8362 75.0694 40.6009C74.9368 40.3655 74.7529 40.1816 74.5176 40.049C74.2856 39.9131 74.0154 39.8452 73.7072 39.8452C73.3857 39.8452 73.1007 39.9197 72.8521 40.0689C72.6068 40.2147 72.4146 40.4119 72.2754 40.6605C72.1362 40.9058 72.0649 41.1792 72.0616 41.4808V42.7287C72.0616 43.1065 72.1312 43.433 72.2704 43.7081C72.4129 43.9832 72.6135 44.1953 72.872 44.3445C73.1305 44.4936 73.4371 44.5682 73.7917 44.5682C74.027 44.5682 74.2425 44.535 74.438 44.4688C74.6336 44.4025 74.801 44.303 74.9402 44.1705C75.0794 44.0379 75.1854 43.8755 75.2583 43.6832L77.2172 43.8125C77.1177 44.2831 76.9139 44.6941 76.6056 45.0455C76.3007 45.3935 75.9063 45.6652 75.4224 45.8608C74.9418 46.053 74.3867 46.1491 73.7569 46.1491ZM81.5362 37.593V35.8182H89.8984V37.593H86.7812V46H84.6534V37.593H81.5362ZM90.4428 46V38.3636H92.4961V39.696H92.5756C92.7148 39.2221 92.9485 38.8641 93.2766 38.6222C93.6048 38.3769 93.9826 38.2543 94.4102 38.2543C94.5162 38.2543 94.6306 38.2609 94.7532 38.2741C94.8758 38.2874 94.9835 38.3056 95.0763 38.3288V40.2081C94.9769 40.1783 94.8394 40.1518 94.6637 40.1286C94.488 40.1054 94.3273 40.0938 94.1815 40.0938C93.8699 40.0938 93.5915 40.1617 93.3462 40.2976C93.1043 40.4302 92.9121 40.6158 92.7695 40.8544C92.6303 41.093 92.5607 41.3681 92.5607 41.6797V46H90.4428ZM96.1713 46V38.3636H98.2892V46H96.1713ZM97.2353 37.3793C96.9204 37.3793 96.6503 37.2749 96.4249 37.0661C96.2028 36.8539 96.0918 36.6004 96.0918 36.3054C96.0918 36.0137 96.2028 35.7635 96.4249 35.5547C96.6503 35.3426 96.9204 35.2365 97.2353 35.2365C97.5501 35.2365 97.8186 35.3426 98.0407 35.5547C98.266 35.7635 98.3787 36.0137 98.3787 36.3054C98.3787 36.6004 98.266 36.8539 98.0407 37.0661C97.8186 37.2749 97.5501 37.3793 97.2353 37.3793ZM107.105 38.3636L104.435 46H102.049L99.3793 38.3636H101.616L103.202 43.8274H103.282L104.863 38.3636H107.105ZM108.189 46V38.3636H110.307V46H108.189ZM109.253 37.3793C108.938 37.3793 108.668 37.2749 108.442 37.0661C108.22 36.8539 108.109 36.6004 108.109 36.3054C108.109 36.0137 108.22 35.7635 108.442 35.5547C108.668 35.3426 108.938 35.2365 109.253 35.2365C109.568 35.2365 109.836 35.3426 110.058 35.5547C110.284 35.7635 110.396 36.0137 110.396 36.3054C110.396 36.6004 110.284 36.8539 110.058 37.0661C109.836 37.2749 109.568 37.3793 109.253 37.3793ZM114.181 46.1442C113.694 46.1442 113.26 46.0597 112.878 45.8906C112.497 45.7183 112.196 45.4647 111.974 45.13C111.755 44.7919 111.645 44.371 111.645 43.8672C111.645 43.4429 111.723 43.0866 111.879 42.7983C112.035 42.5099 112.247 42.2779 112.515 42.1023C112.784 41.9266 113.089 41.794 113.43 41.7045C113.775 41.6151 114.136 41.5521 114.514 41.5156C114.958 41.4692 115.316 41.4261 115.588 41.3864C115.86 41.3433 116.057 41.2803 116.18 41.1974C116.302 41.1146 116.363 40.992 116.363 40.8295V40.7997C116.363 40.4848 116.264 40.2412 116.065 40.0689C115.87 39.8965 115.591 39.8104 115.23 39.8104C114.849 39.8104 114.546 39.8949 114.32 40.0639C114.095 40.2296 113.946 40.4384 113.873 40.6903L111.914 40.5312C112.013 40.0672 112.209 39.6662 112.501 39.3281C112.792 38.9867 113.168 38.7249 113.629 38.5426C114.093 38.357 114.63 38.2642 115.24 38.2642C115.664 38.2642 116.07 38.3139 116.458 38.4134C116.849 38.5128 117.195 38.6669 117.497 38.8757C117.802 39.0845 118.042 39.353 118.218 39.6811C118.394 40.0059 118.481 40.3954 118.481 40.8494V46H116.473V44.9411H116.413C116.291 45.1797 116.126 45.3902 115.921 45.5724C115.715 45.7514 115.469 45.8923 115.18 45.995C114.892 46.0945 114.559 46.1442 114.181 46.1442ZM114.787 44.6825C115.099 44.6825 115.374 44.6212 115.613 44.4986C115.851 44.3726 116.039 44.2036 116.175 43.9915C116.31 43.7794 116.378 43.5391 116.378 43.2706V42.4602C116.312 42.5033 116.221 42.5431 116.105 42.5795C115.992 42.6127 115.865 42.6442 115.722 42.674C115.58 42.7005 115.437 42.7254 115.295 42.7486C115.152 42.7685 115.023 42.7867 114.907 42.8033C114.658 42.8397 114.441 42.8977 114.256 42.9773C114.07 43.0568 113.926 43.1645 113.823 43.3004C113.72 43.433 113.669 43.5987 113.669 43.7976C113.669 44.0859 113.773 44.3063 113.982 44.4588C114.194 44.608 114.463 44.6825 114.787 44.6825Z" fill="#333661"/>
<rect x="31.5" y="115.5" width="50" height="21" rx="3.5" fill="#E4E6F1" stroke="#B9BBD2"/>
<rect x="92.5" y="115.5" width="50" height="21" rx="3.5" fill="#E4E6F1" stroke="#B9BBD2"/>
<rect x="153.5" y="115.5" width="50" height="21" rx="3.5" fill="#E4E6F1" stroke="#B9BBD2"/>
<rect x="214.5" y="115.5" width="50" height="21" rx="3.5" fill="#E4E6F1" stroke="#B9BBD2"/>
<path d="M44.4328 130V122.727H48.9925V123.672H45.5301V125.888H48.7545V126.829H45.5301V129.055H49.0351V130H44.4328ZM51.9603 130.121C51.6147 130.121 51.3022 130.057 51.0228 129.929C50.7435 129.799 50.5221 129.611 50.3588 129.364C50.1978 129.118 50.1173 128.816 50.1173 128.459C50.1173 128.151 50.1765 127.898 50.2948 127.699C50.4132 127.5 50.573 127.343 50.7742 127.227C50.9755 127.111 51.2004 127.023 51.449 126.964C51.6975 126.905 51.9508 126.86 52.2089 126.829C52.5356 126.791 52.8008 126.76 53.0044 126.737C53.2079 126.71 53.3559 126.669 53.4482 126.612C53.5406 126.555 53.5867 126.463 53.5867 126.335V126.31C53.5867 126 53.4991 125.76 53.324 125.589C53.1511 125.419 52.8931 125.334 52.5498 125.334C52.1923 125.334 51.9106 125.413 51.7046 125.572C51.501 125.728 51.3602 125.902 51.282 126.094L50.2842 125.866C50.4026 125.535 50.5754 125.268 50.8026 125.064C51.0323 124.858 51.2963 124.709 51.5945 124.616C51.8928 124.522 52.2065 124.474 52.5356 124.474C52.7534 124.474 52.9842 124.5 53.2281 124.553C53.4743 124.602 53.7039 124.695 53.917 124.83C54.1324 124.964 54.3088 125.157 54.4461 125.408C54.5834 125.657 54.6521 125.98 54.6521 126.378V130H53.6151V129.254H53.5725C53.5039 129.392 53.4009 129.527 53.2636 129.659C53.1263 129.792 52.9499 129.902 52.7345 129.989C52.519 130.077 52.261 130.121 51.9603 130.121ZM52.1911 129.268C52.4847 129.268 52.7356 129.21 52.944 129.094C53.1547 128.978 53.3145 128.827 53.4234 128.64C53.5347 128.451 53.5903 128.248 53.5903 128.033V127.33C53.5524 127.367 53.479 127.403 53.3701 127.436C53.2636 127.467 53.1417 127.494 53.0044 127.518C52.867 127.539 52.7333 127.559 52.6031 127.578C52.4729 127.595 52.364 127.609 52.2764 127.621C52.0704 127.647 51.8822 127.691 51.7117 127.752C51.5436 127.814 51.4087 127.902 51.3069 128.018C51.2075 128.132 51.1578 128.284 51.1578 128.473C51.1578 128.736 51.2548 128.935 51.449 129.07C51.6431 129.202 51.8905 129.268 52.1911 129.268ZM56.0663 130V124.545H57.0926V125.412H57.1494C57.2488 125.118 57.424 124.888 57.675 124.719C57.9283 124.549 58.2148 124.464 58.5344 124.464C58.6006 124.464 58.6788 124.466 58.7687 124.471C58.8611 124.476 58.9333 124.482 58.9854 124.489V125.504C58.9427 125.492 58.867 125.479 58.7581 125.465C58.6492 125.449 58.5403 125.44 58.4314 125.44C58.1804 125.44 57.9567 125.494 57.7602 125.6C57.5661 125.704 57.4122 125.85 57.2986 126.037C57.1849 126.222 57.1281 126.432 57.1281 126.669V130H56.0663ZM62.7726 124.545V125.398H59.7932V124.545H62.7726ZM60.5922 123.239H61.654V128.398C61.654 128.604 61.6848 128.759 61.7464 128.864C61.8079 128.965 61.8872 129.035 61.9843 129.073C62.0837 129.109 62.1914 129.126 62.3074 129.126C62.3927 129.126 62.4672 129.121 62.5312 129.109C62.5951 129.097 62.6448 129.087 62.6803 129.08L62.8721 129.957C62.8105 129.981 62.7229 130.005 62.6093 130.028C62.4956 130.054 62.3536 130.069 62.1831 130.071C61.9038 130.076 61.6434 130.026 61.4019 129.922C61.1604 129.818 60.9651 129.657 60.816 129.439C60.6668 129.221 60.5922 128.948 60.5922 128.619V123.239ZM65.1262 126.761V130H64.0644V122.727H65.1119V125.433H65.1794C65.3073 125.14 65.5026 124.906 65.7654 124.734C66.0281 124.561 66.3714 124.474 66.7952 124.474C67.1692 124.474 67.4959 124.551 67.7753 124.705C68.057 124.859 68.2748 125.089 68.4287 125.394C68.585 125.697 68.6631 126.076 68.6631 126.531V130H67.6013V126.658C67.6013 126.258 67.4983 125.948 67.2923 125.728C67.0864 125.505 66.7999 125.394 66.433 125.394C66.182 125.394 65.9571 125.447 65.7583 125.554C65.5618 125.661 65.4067 125.817 65.2931 126.023C65.1818 126.226 65.1262 126.473 65.1262 126.761Z" fill="#4A4D85"/>
<path d="M106.365 122.727H107.697L110.012 128.381H110.098L112.413 122.727H113.745V130H112.701V124.737H112.633L110.488 129.989H109.622L107.477 124.734H107.409V130H106.365V122.727ZM116.842 130.121C116.497 130.121 116.184 130.057 115.905 129.929C115.625 129.799 115.404 129.611 115.241 129.364C115.08 129.118 114.999 128.816 114.999 128.459C114.999 128.151 115.058 127.898 115.177 127.699C115.295 127.5 115.455 127.343 115.656 127.227C115.857 127.111 116.082 127.023 116.331 126.964C116.579 126.905 116.833 126.86 117.091 126.829C117.417 126.791 117.683 126.76 117.886 126.737C118.09 126.71 118.238 126.669 118.33 126.612C118.422 126.555 118.469 126.463 118.469 126.335V126.31C118.469 126 118.381 125.76 118.206 125.589C118.033 125.419 117.775 125.334 117.432 125.334C117.074 125.334 116.792 125.413 116.586 125.572C116.383 125.728 116.242 125.902 116.164 126.094L115.166 125.866C115.284 125.535 115.457 125.268 115.684 125.064C115.914 124.858 116.178 124.709 116.476 124.616C116.775 124.522 117.088 124.474 117.417 124.474C117.635 124.474 117.866 124.5 118.11 124.553C118.356 124.602 118.586 124.695 118.799 124.83C119.014 124.964 119.191 125.157 119.328 125.408C119.465 125.657 119.534 125.98 119.534 126.378V130H118.497V129.254H118.454C118.386 129.392 118.283 129.527 118.145 129.659C118.008 129.792 117.832 129.902 117.616 129.989C117.401 130.077 117.143 130.121 116.842 130.121ZM117.073 129.268C117.367 129.268 117.617 129.21 117.826 129.094C118.037 128.978 118.196 128.827 118.305 128.64C118.416 128.451 118.472 128.248 118.472 128.033V127.33C118.434 127.367 118.361 127.403 118.252 127.436C118.145 127.467 118.023 127.494 117.886 127.518C117.749 127.539 117.615 127.559 117.485 127.578C117.355 127.595 117.246 127.609 117.158 127.621C116.952 127.647 116.764 127.691 116.594 127.752C116.425 127.814 116.291 127.902 116.189 128.018C116.089 128.132 116.04 128.284 116.04 128.473C116.04 128.736 116.137 128.935 116.331 129.07C116.525 129.202 116.772 129.268 117.073 129.268ZM120.948 130V124.545H121.974V125.412H122.031C122.131 125.118 122.306 124.888 122.557 124.719C122.81 124.549 123.097 124.464 123.416 124.464C123.482 124.464 123.561 124.466 123.651 124.471C123.743 124.476 123.815 124.482 123.867 124.489V125.504C123.825 125.492 123.749 125.479 123.64 125.465C123.531 125.449 123.422 125.44 123.313 125.44C123.062 125.44 122.839 125.494 122.642 125.6C122.448 125.704 122.294 125.85 122.18 126.037C122.067 126.222 122.01 126.432 122.01 126.669V130H120.948ZM128.873 125.877L127.911 126.048C127.871 125.924 127.807 125.807 127.719 125.696C127.634 125.585 127.518 125.494 127.371 125.423C127.224 125.352 127.041 125.316 126.821 125.316C126.52 125.316 126.269 125.384 126.068 125.518C125.867 125.651 125.766 125.823 125.766 126.033C125.766 126.216 125.834 126.362 125.969 126.474C126.104 126.585 126.321 126.676 126.622 126.747L127.488 126.946C127.99 127.062 128.364 127.241 128.611 127.482C128.857 127.724 128.98 128.037 128.98 128.423C128.98 128.75 128.885 129.041 128.696 129.297C128.509 129.55 128.247 129.749 127.911 129.893C127.577 130.038 127.19 130.11 126.75 130.11C126.139 130.11 125.641 129.98 125.255 129.719C124.869 129.457 124.632 129.084 124.545 128.601L125.571 128.445C125.635 128.712 125.766 128.915 125.965 129.052C126.164 129.187 126.423 129.254 126.743 129.254C127.091 129.254 127.369 129.182 127.577 129.038C127.786 128.891 127.89 128.712 127.89 128.501C127.89 128.331 127.826 128.188 127.698 128.072C127.573 127.956 127.38 127.868 127.119 127.809L126.196 127.607C125.687 127.491 125.31 127.306 125.067 127.053C124.825 126.799 124.704 126.478 124.704 126.09C124.704 125.768 124.794 125.487 124.974 125.245C125.154 125.004 125.403 124.815 125.72 124.68C126.037 124.543 126.401 124.474 126.81 124.474C127.4 124.474 127.864 124.602 128.202 124.858C128.541 125.111 128.765 125.451 128.873 125.877Z" fill="#4A4D85"/>
<path d="M165.378 122.727H166.471V127.884C166.471 128.35 166.379 128.749 166.194 129.08C166.012 129.412 165.755 129.665 165.424 129.84C165.092 130.013 164.704 130.099 164.259 130.099C163.849 130.099 163.481 130.025 163.155 129.876C162.83 129.727 162.573 129.51 162.384 129.226C162.197 128.939 162.104 128.591 162.104 128.182H163.194C163.194 128.383 163.24 128.557 163.332 128.704C163.427 128.851 163.556 128.965 163.719 129.048C163.885 129.129 164.074 129.169 164.287 129.169C164.519 129.169 164.716 129.121 164.877 129.023C165.04 128.924 165.165 128.778 165.25 128.587C165.335 128.395 165.378 128.161 165.378 127.884V122.727ZM171.439 127.738V124.545H172.504V130H171.46V129.055H171.403C171.278 129.347 171.076 129.589 170.799 129.783C170.525 129.975 170.183 130.071 169.773 130.071C169.423 130.071 169.113 129.994 168.843 129.84C168.575 129.684 168.364 129.453 168.211 129.148C168.059 128.842 167.983 128.465 167.983 128.015V124.545H169.045V127.887C169.045 128.259 169.148 128.555 169.354 128.775C169.56 128.995 169.828 129.105 170.157 129.105C170.355 129.105 170.553 129.055 170.75 128.956C170.949 128.857 171.113 128.706 171.243 128.505C171.376 128.304 171.441 128.048 171.439 127.738ZM173.931 132.045V124.545H174.968V125.43H175.056C175.118 125.316 175.207 125.185 175.323 125.036C175.439 124.886 175.6 124.756 175.806 124.645C176.012 124.531 176.284 124.474 176.622 124.474C177.063 124.474 177.456 124.586 177.801 124.808C178.147 125.031 178.418 125.352 178.615 125.771C178.813 126.19 178.913 126.694 178.913 127.283C178.913 127.873 178.815 128.378 178.618 128.8C178.422 129.219 178.152 129.542 177.808 129.769C177.465 129.994 177.073 130.107 176.633 130.107C176.302 130.107 176.03 130.051 175.82 129.94C175.611 129.828 175.448 129.698 175.33 129.549C175.211 129.4 175.12 129.267 175.056 129.151H174.992V132.045H173.931ZM174.971 127.273C174.971 127.656 175.027 127.992 175.138 128.281C175.249 128.57 175.41 128.796 175.621 128.96C175.832 129.121 176.09 129.201 176.395 129.201C176.712 129.201 176.977 129.117 177.191 128.949C177.404 128.778 177.565 128.548 177.673 128.256C177.785 127.965 177.84 127.637 177.84 127.273C177.84 126.913 177.786 126.59 177.677 126.303C177.57 126.017 177.41 125.791 177.194 125.625C176.981 125.459 176.715 125.376 176.395 125.376C176.087 125.376 175.827 125.456 175.614 125.614C175.403 125.773 175.243 125.994 175.134 126.278C175.026 126.562 174.971 126.894 174.971 127.273ZM180.102 130V124.545H181.164V130H180.102ZM180.639 123.704C180.454 123.704 180.295 123.642 180.163 123.519C180.033 123.394 179.968 123.245 179.968 123.072C179.968 122.897 180.033 122.747 180.163 122.624C180.295 122.499 180.454 122.436 180.639 122.436C180.823 122.436 180.981 122.499 181.111 122.624C181.244 122.747 181.31 122.897 181.31 123.072C181.31 123.245 181.244 123.394 181.111 123.519C180.981 123.642 180.823 123.704 180.639 123.704ZM185.139 124.545V125.398H182.159V124.545H185.139ZM182.958 123.239H184.02V128.398C184.02 128.604 184.051 128.759 184.113 128.864C184.174 128.965 184.253 129.035 184.35 129.073C184.45 129.109 184.558 129.126 184.674 129.126C184.759 129.126 184.833 129.121 184.897 129.109C184.961 129.097 185.011 129.087 185.047 129.08L185.238 129.957C185.177 129.981 185.089 130.005 184.975 130.028C184.862 130.054 184.72 130.069 184.549 130.071C184.27 130.076 184.01 130.026 183.768 129.922C183.527 129.818 183.331 129.657 183.182 129.439C183.033 129.221 182.958 128.948 182.958 128.619V123.239ZM188.606 130.11C188.068 130.11 187.605 129.995 187.217 129.766C186.831 129.534 186.533 129.208 186.322 128.789C186.114 128.368 186.01 127.874 186.01 127.308C186.01 126.75 186.114 126.257 186.322 125.831C186.533 125.405 186.827 125.072 187.203 124.833C187.582 124.594 188.024 124.474 188.531 124.474C188.839 124.474 189.137 124.525 189.426 124.627C189.715 124.729 189.974 124.889 190.204 125.107C190.433 125.324 190.614 125.607 190.747 125.955C190.88 126.301 190.946 126.721 190.946 127.216V127.592H186.61V126.797H189.905C189.905 126.518 189.849 126.27 189.735 126.055C189.621 125.837 189.461 125.665 189.256 125.54C189.052 125.414 188.813 125.352 188.538 125.352C188.24 125.352 187.979 125.425 187.757 125.572C187.537 125.716 187.366 125.906 187.246 126.14C187.127 126.372 187.068 126.624 187.068 126.896V127.518C187.068 127.882 187.132 128.192 187.26 128.448C187.39 128.704 187.571 128.899 187.803 129.034C188.035 129.167 188.306 129.233 188.616 129.233C188.818 129.233 189.001 129.205 189.167 129.148C189.332 129.089 189.476 129.001 189.596 128.885C189.717 128.769 189.809 128.626 189.873 128.455L190.878 128.636C190.798 128.932 190.653 129.192 190.445 129.414C190.239 129.634 189.98 129.806 189.667 129.929C189.357 130.05 189.003 130.11 188.606 130.11ZM192.124 130V124.545H193.15V125.412H193.207C193.306 125.118 193.482 124.888 193.733 124.719C193.986 124.549 194.272 124.464 194.592 124.464C194.658 124.464 194.736 124.466 194.826 124.471C194.919 124.476 194.991 124.482 195.043 124.489V125.504C195 125.492 194.925 125.479 194.816 125.465C194.707 125.449 194.598 125.44 194.489 125.44C194.238 125.44 194.014 125.494 193.818 125.6C193.624 125.704 193.47 125.85 193.356 126.037C193.243 126.222 193.186 126.432 193.186 126.669V130H192.124Z" fill="#4A4D85"/>
<path d="M228.46 124.638C228.422 124.302 228.266 124.041 227.991 123.857C227.717 123.67 227.371 123.576 226.954 123.576C226.656 123.576 226.398 123.623 226.18 123.718C225.962 123.81 225.793 123.938 225.672 124.102C225.554 124.263 225.495 124.446 225.495 124.652C225.495 124.825 225.535 124.974 225.616 125.099C225.698 125.225 225.806 125.33 225.939 125.415C226.074 125.498 226.218 125.568 226.372 125.625C226.526 125.679 226.674 125.724 226.816 125.76L227.526 125.945C227.758 126.001 227.996 126.078 228.24 126.175C228.484 126.272 228.71 126.4 228.918 126.559C229.126 126.718 229.294 126.914 229.422 127.148C229.553 127.383 229.618 127.663 229.618 127.99C229.618 128.402 229.511 128.768 229.298 129.087C229.087 129.407 228.781 129.659 228.378 129.844C227.978 130.028 227.494 130.121 226.926 130.121C226.381 130.121 225.91 130.034 225.513 129.862C225.115 129.689 224.803 129.444 224.579 129.126C224.354 128.807 224.229 128.428 224.206 127.99H225.307C225.328 128.253 225.413 128.472 225.562 128.647C225.714 128.82 225.907 128.949 226.141 129.034C226.378 129.117 226.637 129.158 226.919 129.158C227.229 129.158 227.505 129.11 227.746 129.013C227.99 128.913 228.182 128.776 228.321 128.601C228.461 128.423 228.531 128.216 228.531 127.979C228.531 127.764 228.469 127.588 228.346 127.45C228.226 127.313 228.061 127.199 227.853 127.109C227.647 127.019 227.414 126.94 227.153 126.871L226.294 126.637C225.711 126.478 225.25 126.245 224.909 125.938C224.57 125.63 224.401 125.223 224.401 124.716C224.401 124.297 224.515 123.931 224.742 123.619C224.969 123.306 225.277 123.063 225.665 122.891C226.053 122.715 226.491 122.628 226.979 122.628C227.472 122.628 227.906 122.714 228.282 122.887C228.661 123.06 228.959 123.298 229.177 123.601C229.395 123.902 229.509 124.247 229.518 124.638H228.46ZM232.431 130.121C232.085 130.121 231.773 130.057 231.494 129.929C231.214 129.799 230.993 129.611 230.829 129.364C230.668 129.118 230.588 128.816 230.588 128.459C230.588 128.151 230.647 127.898 230.766 127.699C230.884 127.5 231.044 127.343 231.245 127.227C231.446 127.111 231.671 127.023 231.92 126.964C232.168 126.905 232.422 126.86 232.68 126.829C233.006 126.791 233.271 126.76 233.475 126.737C233.679 126.71 233.827 126.669 233.919 126.612C234.011 126.555 234.057 126.463 234.057 126.335V126.31C234.057 126 233.97 125.76 233.795 125.589C233.622 125.419 233.364 125.334 233.021 125.334C232.663 125.334 232.381 125.413 232.175 125.572C231.972 125.728 231.831 125.902 231.753 126.094L230.755 125.866C230.873 125.535 231.046 125.268 231.273 125.064C231.503 124.858 231.767 124.709 232.065 124.616C232.364 124.522 232.677 124.474 233.006 124.474C233.224 124.474 233.455 124.5 233.699 124.553C233.945 124.602 234.175 124.695 234.388 124.83C234.603 124.964 234.78 125.157 234.917 125.408C235.054 125.657 235.123 125.98 235.123 126.378V130H234.086V129.254H234.043C233.975 129.392 233.872 129.527 233.734 129.659C233.597 129.792 233.421 129.902 233.205 129.989C232.99 130.077 232.732 130.121 232.431 130.121ZM232.662 129.268C232.955 129.268 233.206 129.21 233.415 129.094C233.625 128.978 233.785 128.827 233.894 128.64C234.005 128.451 234.061 128.248 234.061 128.033V127.33C234.023 127.367 233.95 127.403 233.841 127.436C233.734 127.467 233.612 127.494 233.475 127.518C233.338 127.539 233.204 127.559 233.074 127.578C232.944 127.595 232.835 127.609 232.747 127.621C232.541 127.647 232.353 127.691 232.182 127.752C232.014 127.814 231.879 127.902 231.778 128.018C231.678 128.132 231.628 128.284 231.628 128.473C231.628 128.736 231.726 128.935 231.92 129.07C232.114 129.202 232.361 129.268 232.662 129.268ZM239.083 124.545V125.398H236.104V124.545H239.083ZM236.903 123.239H237.965V128.398C237.965 128.604 237.995 128.759 238.057 128.864C238.118 128.965 238.198 129.035 238.295 129.073C238.394 129.109 238.502 129.126 238.618 129.126C238.703 129.126 238.778 129.121 238.842 129.109C238.906 129.097 238.955 129.087 238.991 129.08L239.183 129.957C239.121 129.981 239.033 130.005 238.92 130.028C238.806 130.054 238.664 130.069 238.494 130.071C238.214 130.076 237.954 130.026 237.712 129.922C237.471 129.818 237.276 129.657 237.127 129.439C236.977 129.221 236.903 128.948 236.903 128.619V123.239ZM243.713 127.738V124.545H244.778V130H243.734V129.055H243.677C243.552 129.347 243.351 129.589 243.074 129.783C242.799 129.975 242.457 130.071 242.047 130.071C241.697 130.071 241.387 129.994 241.117 129.84C240.85 129.684 240.639 129.453 240.485 129.148C240.333 128.842 240.258 128.465 240.258 128.015V124.545H241.32V127.887C241.32 128.259 241.422 128.555 241.628 128.775C241.834 128.995 242.102 129.105 242.431 129.105C242.63 129.105 242.828 129.055 243.024 128.956C243.223 128.857 243.387 128.706 243.518 128.505C243.65 128.304 243.715 128.048 243.713 127.738ZM246.205 130V124.545H247.231V125.412H247.288C247.388 125.118 247.563 124.888 247.814 124.719C248.067 124.549 248.353 124.464 248.673 124.464C248.739 124.464 248.817 124.466 248.907 124.471C249 124.476 249.072 124.482 249.124 124.489V125.504C249.081 125.492 249.006 125.479 248.897 125.465C248.788 125.449 248.679 125.44 248.57 125.44C248.319 125.44 248.095 125.494 247.899 125.6C247.705 125.704 247.551 125.85 247.437 126.037C247.324 126.222 247.267 126.432 247.267 126.669V130H246.205ZM251.105 126.761V130H250.043V124.545H251.062V125.433H251.13C251.255 125.144 251.451 124.912 251.719 124.737C251.989 124.562 252.329 124.474 252.738 124.474C253.11 124.474 253.435 124.553 253.715 124.709C253.994 124.863 254.211 125.092 254.365 125.398C254.518 125.703 254.595 126.081 254.595 126.531V130H253.534V126.658C253.534 126.263 253.431 125.954 253.225 125.732C253.019 125.507 252.736 125.394 252.376 125.394C252.13 125.394 251.911 125.447 251.719 125.554C251.53 125.661 251.379 125.817 251.268 126.023C251.159 126.226 251.105 126.473 251.105 126.761Z" fill="#4A4D85"/>
</svg>
