<svg width="300" height="180" viewBox="0 0 300 180" fill="none" xmlns="http://www.w3.org/2000/svg">
<rect width="300" height="180" fill="white"/>
<path d="M129.356 23.7305V23.9834C129.183 23.9971 129.037 24.0449 128.919 24.127C128.8 24.209 128.696 24.3343 128.604 24.5029C128.577 24.5576 128.434 24.9108 128.174 25.5625L125.269 33.2119H125.002L122.705 27.2373L120.176 33.2119H119.923L116.874 25.6445C116.564 24.8835 116.348 24.4232 116.225 24.2637C116.102 24.1042 115.894 24.0107 115.603 23.9834V23.7305H119.622V23.9834C119.299 23.9925 119.082 24.0426 118.973 24.1338C118.868 24.2204 118.815 24.3298 118.815 24.4619C118.815 24.6351 118.927 25.002 119.15 25.5625L120.969 30.0605L122.425 26.5469L122.042 25.5625C121.832 25.0247 121.671 24.667 121.557 24.4893C121.443 24.307 121.311 24.1771 121.16 24.0996C121.014 24.0221 120.798 23.9834 120.511 23.9834V23.7305H125.002V23.9834C124.688 23.988 124.462 24.013 124.325 24.0586C124.229 24.0905 124.154 24.1452 124.1 24.2227C124.045 24.2956 124.018 24.3799 124.018 24.4756C124.018 24.5804 124.12 24.9017 124.325 25.4395L126.014 29.8281L127.524 25.8564C127.684 25.4463 127.782 25.166 127.818 25.0156C127.855 24.8652 127.873 24.7262 127.873 24.5986C127.873 24.4118 127.809 24.266 127.682 24.1611C127.554 24.0518 127.31 23.9925 126.95 23.9834V23.7305H129.356ZM132.187 26.417C132.743 26.417 133.26 26.5605 133.738 26.8477C134.217 27.1348 134.579 27.5426 134.825 28.0713C135.076 28.5999 135.201 29.1787 135.201 29.8076C135.201 30.7145 134.971 31.4733 134.511 32.084C133.955 32.8223 133.187 33.1914 132.207 33.1914C131.245 33.1914 130.505 32.8542 129.985 32.1797C129.466 31.5052 129.206 30.7236 129.206 29.835C129.206 28.9189 129.47 28.1214 129.999 27.4424C130.532 26.7588 131.261 26.417 132.187 26.417ZM132.214 26.9023C131.981 26.9023 131.781 26.9912 131.612 27.1689C131.448 27.3421 131.339 27.6885 131.284 28.208C131.234 28.723 131.209 29.4408 131.209 30.3613C131.209 30.849 131.241 31.3047 131.305 31.7285C131.355 32.0521 131.462 32.2982 131.626 32.4668C131.79 32.6354 131.977 32.7197 132.187 32.7197C132.392 32.7197 132.562 32.6628 132.699 32.5488C132.877 32.3939 132.995 32.1774 133.055 31.8994C133.146 31.4665 133.191 30.5915 133.191 29.2744C133.191 28.4997 133.148 27.9688 133.062 27.6816C132.975 27.39 132.847 27.1781 132.679 27.0459C132.56 26.9502 132.405 26.9023 132.214 26.9023ZM138.824 26.6084V28.0576C139.248 27.3968 139.619 26.9593 139.938 26.7451C140.257 26.5264 140.565 26.417 140.861 26.417C141.117 26.417 141.319 26.4967 141.47 26.6562C141.625 26.8112 141.702 27.0322 141.702 27.3193C141.702 27.6247 141.627 27.8617 141.477 28.0303C141.331 28.1989 141.153 28.2832 140.943 28.2832C140.702 28.2832 140.492 28.2057 140.314 28.0508C140.137 27.8958 140.032 27.8092 140 27.791C139.954 27.7637 139.902 27.75 139.843 27.75C139.711 27.75 139.585 27.8001 139.467 27.9004C139.28 28.0553 139.139 28.2764 139.043 28.5635C138.897 29.0055 138.824 29.4932 138.824 30.0264V31.4961L138.831 31.8789C138.831 32.1387 138.847 32.305 138.879 32.3779C138.934 32.501 139.013 32.5921 139.118 32.6514C139.228 32.7061 139.41 32.7402 139.665 32.7539V33H136.213V32.7539C136.491 32.7311 136.678 32.6559 136.773 32.5283C136.874 32.3962 136.924 32.0521 136.924 31.4961V27.9619C136.924 27.5973 136.906 27.3649 136.869 27.2646C136.824 27.137 136.757 27.0436 136.671 26.9844C136.584 26.9251 136.432 26.8841 136.213 26.8613V26.6084H138.824ZM148.606 23.7305V31.0859C148.606 31.5827 148.62 31.8766 148.647 31.9678C148.684 32.1182 148.752 32.2298 148.853 32.3027C148.957 32.3757 149.137 32.4212 149.393 32.4395V32.665L146.692 33.1914V32.1797C146.369 32.5716 146.079 32.8382 145.824 32.9795C145.574 33.1208 145.289 33.1914 144.97 33.1914C144.154 33.1914 143.509 32.8268 143.035 32.0977C142.652 31.5052 142.461 30.7783 142.461 29.917C142.461 29.2288 142.579 28.6136 142.816 28.0713C143.053 27.5244 143.377 27.112 143.787 26.834C144.202 26.556 144.646 26.417 145.12 26.417C145.425 26.417 145.697 26.4762 145.934 26.5947C146.171 26.7132 146.424 26.9206 146.692 27.2168V25.2891C146.692 24.8014 146.672 24.5075 146.631 24.4072C146.576 24.2751 146.494 24.1771 146.385 24.1133C146.275 24.0495 146.07 24.0176 145.77 24.0176V23.7305H148.606ZM146.692 28.0645C146.355 27.4173 145.943 27.0938 145.455 27.0938C145.286 27.0938 145.147 27.1393 145.038 27.2305C144.869 27.3717 144.73 27.6201 144.621 27.9756C144.516 28.3311 144.464 28.8757 144.464 29.6094C144.464 30.416 144.523 31.013 144.642 31.4004C144.76 31.7878 144.922 32.068 145.127 32.2412C145.232 32.3278 145.375 32.3711 145.558 32.3711C145.959 32.3711 146.337 32.0566 146.692 31.4277V28.0645ZM156.29 23.5186L156.365 26.6084H156.085C155.953 25.8337 155.627 25.2116 155.107 24.7422C154.592 24.2682 154.034 24.0312 153.433 24.0312C152.968 24.0312 152.599 24.1566 152.325 24.4072C152.056 24.6533 151.922 24.9382 151.922 25.2617C151.922 25.4668 151.97 25.6491 152.065 25.8086C152.198 26.0228 152.41 26.2347 152.701 26.4443C152.915 26.5947 153.41 26.8613 154.185 27.2441C155.269 27.7773 156.001 28.2809 156.379 28.7549C156.753 29.2288 156.939 29.7712 156.939 30.3818C156.939 31.1566 156.636 31.8242 156.03 32.3848C155.429 32.9408 154.663 33.2188 153.733 33.2188C153.442 33.2188 153.166 33.1891 152.906 33.1299C152.646 33.0706 152.321 32.959 151.929 32.7949C151.71 32.7038 151.53 32.6582 151.389 32.6582C151.27 32.6582 151.145 32.7038 151.013 32.7949C150.881 32.8861 150.773 33.0251 150.691 33.2119H150.438V29.7119H150.691C150.892 30.6963 151.277 31.4482 151.847 31.9678C152.421 32.4827 153.038 32.7402 153.699 32.7402C154.21 32.7402 154.615 32.6012 154.916 32.3232C155.221 32.0452 155.374 31.7217 155.374 31.3525C155.374 31.1338 155.315 30.9219 155.196 30.7168C155.082 30.5117 154.907 30.318 154.67 30.1357C154.433 29.9489 154.014 29.7074 153.412 29.4111C152.569 28.9964 151.963 28.6432 151.594 28.3516C151.225 28.0599 150.94 27.734 150.739 27.374C150.543 27.014 150.445 26.6175 150.445 26.1846C150.445 25.4463 150.716 24.8174 151.259 24.2979C151.801 23.7783 152.485 23.5186 153.31 23.5186C153.61 23.5186 153.902 23.555 154.185 23.6279C154.399 23.6826 154.659 23.7852 154.964 23.9355C155.274 24.0814 155.49 24.1543 155.613 24.1543C155.732 24.1543 155.825 24.1178 155.894 24.0449C155.962 23.972 156.026 23.7965 156.085 23.5186H156.29ZM160.631 26.6084V27.4492C160.982 27.0664 161.305 26.7998 161.602 26.6494C161.902 26.4945 162.23 26.417 162.586 26.417C162.996 26.417 163.34 26.5127 163.618 26.7041C163.896 26.8955 164.11 27.1872 164.261 27.5791C164.625 27.1689 164.974 26.8727 165.307 26.6904C165.644 26.5081 165.995 26.417 166.359 26.417C166.801 26.417 167.152 26.5195 167.412 26.7246C167.676 26.9251 167.859 27.1826 167.959 27.4971C168.064 27.807 168.116 28.3037 168.116 28.9873V31.6055C168.116 32.0977 168.16 32.403 168.246 32.5215C168.337 32.64 168.524 32.7174 168.807 32.7539V33H165.505V32.7539C165.765 32.7311 165.956 32.6309 166.079 32.4531C166.161 32.3301 166.202 32.0475 166.202 31.6055V28.8574C166.202 28.2878 166.179 27.9255 166.134 27.7705C166.088 27.6156 166.015 27.5016 165.915 27.4287C165.819 27.3512 165.705 27.3125 165.573 27.3125C165.377 27.3125 165.179 27.3854 164.979 27.5312C164.778 27.6725 164.575 27.8867 164.37 28.1738V31.6055C164.37 32.0658 164.409 32.3551 164.486 32.4736C164.591 32.6423 164.792 32.7357 165.088 32.7539V33H161.779V32.7539C161.957 32.7448 162.096 32.7015 162.196 32.624C162.301 32.542 162.369 32.4463 162.401 32.3369C162.438 32.223 162.456 31.9792 162.456 31.6055V28.8574C162.456 28.2786 162.433 27.9163 162.388 27.7705C162.342 27.6247 162.265 27.5107 162.155 27.4287C162.05 27.3467 161.937 27.3057 161.813 27.3057C161.631 27.3057 161.465 27.3535 161.314 27.4492C161.1 27.5905 160.872 27.832 160.631 28.1738V31.6055C160.631 32.0566 160.674 32.3551 160.761 32.501C160.852 32.6423 161.039 32.7266 161.321 32.7539V33H158.026V32.7539C158.295 32.7266 158.487 32.64 158.601 32.4941C158.678 32.3939 158.717 32.0977 158.717 31.6055V27.9961C158.717 27.513 158.671 27.2122 158.58 27.0938C158.493 26.9753 158.309 26.8978 158.026 26.8613V26.6084H160.631ZM171.179 23.5117C171.475 23.5117 171.726 23.6165 171.931 23.8262C172.136 24.0312 172.238 24.2796 172.238 24.5713C172.238 24.863 172.133 25.1113 171.924 25.3164C171.719 25.5215 171.47 25.624 171.179 25.624C170.887 25.624 170.639 25.5215 170.434 25.3164C170.229 25.1113 170.126 24.863 170.126 24.5713C170.126 24.2796 170.229 24.0312 170.434 23.8262C170.639 23.6165 170.887 23.5117 171.179 23.5117ZM172.136 26.6084V31.6738C172.136 32.125 172.188 32.4144 172.293 32.542C172.398 32.665 172.603 32.7357 172.908 32.7539V33H169.456V32.7539C169.739 32.7448 169.948 32.6628 170.085 32.5078C170.176 32.403 170.222 32.125 170.222 31.6738V27.9414C170.222 27.4902 170.169 27.2031 170.064 27.0801C169.96 26.9525 169.757 26.8796 169.456 26.8613V26.6084H172.136ZM176.073 24.2705V26.6084H177.591V27.2852H176.073V31.2295C176.073 31.5986 176.089 31.8379 176.121 31.9473C176.158 32.0521 176.219 32.1387 176.306 32.207C176.392 32.2708 176.472 32.3027 176.545 32.3027C176.841 32.3027 177.121 32.0771 177.386 31.626L177.591 31.7764C177.222 32.6514 176.622 33.0889 175.793 33.0889C175.387 33.0889 175.043 32.9772 174.761 32.7539C174.483 32.526 174.305 32.2731 174.228 31.9951C174.182 31.8402 174.159 31.4209 174.159 30.7373V27.2852H173.325V27.0459C173.899 26.6403 174.387 26.2142 174.788 25.7676C175.194 25.321 175.547 24.8219 175.848 24.2705H176.073ZM180.811 23.7305V27.4287C181.161 27.0596 181.483 26.7998 181.774 26.6494C182.066 26.4945 182.369 26.417 182.684 26.417C183.085 26.417 183.426 26.5309 183.709 26.7588C183.996 26.9867 184.185 27.2555 184.276 27.5654C184.372 27.8708 184.42 28.388 184.42 29.1172V31.6123C184.42 32.0999 184.465 32.4053 184.557 32.5283C184.648 32.6468 184.832 32.722 185.11 32.7539V33H181.87V32.7539C182.098 32.722 182.269 32.6309 182.383 32.4805C182.465 32.362 182.506 32.0726 182.506 31.6123V28.7617C182.506 28.2331 182.485 27.9027 182.444 27.7705C182.403 27.6338 182.333 27.529 182.232 27.4561C182.137 27.3786 182.027 27.3398 181.904 27.3398C181.722 27.3398 181.544 27.4036 181.371 27.5312C181.198 27.6543 181.011 27.873 180.811 28.1875V31.6123C180.811 32.068 180.845 32.3529 180.913 32.4668C181 32.6217 181.177 32.7174 181.446 32.7539V33H178.206V32.7539C178.475 32.7266 178.666 32.64 178.78 32.4941C178.858 32.3939 178.896 32.0999 178.896 31.6123V25.1182C178.896 24.6351 178.851 24.3343 178.76 24.2158C178.673 24.0973 178.489 24.0199 178.206 23.9834V23.7305H180.811Z" fill="black"/>
<rect x="74.25" y="46.25" width="65.5" height="15.5" rx="3.75" stroke="#4D4D87" stroke-width="0.5"/>
<rect x="20.25" y="90.25" width="259.5" height="69.5" rx="3.75" stroke="#4D4D87" stroke-width="0.5"/>
<rect x="20.25" y="46.25" width="47.5" height="15.5" rx="3.75" fill="#D9E8FB"/>
<rect x="20.25" y="46.25" width="47.5" height="15.5" rx="3.75" stroke="#4D4D87" stroke-width="0.5"/>
<path d="M26.4961 54.6367L27.6211 54.5273C27.6888 54.9049 27.8255 55.1823 28.0312 55.3594C28.2396 55.5365 28.5195 55.625 28.8711 55.625C29.2435 55.625 29.5234 55.5469 29.7109 55.3906C29.901 55.2318 29.9961 55.0469 29.9961 54.8359C29.9961 54.7005 29.9557 54.5859 29.875 54.4922C29.7969 54.3958 29.6589 54.3125 29.4609 54.2422C29.3255 54.1953 29.0169 54.112 28.5352 53.9922C27.9154 53.8385 27.4805 53.6497 27.2305 53.4258C26.8789 53.1107 26.7031 52.7266 26.7031 52.2734C26.7031 51.9818 26.7852 51.7096 26.9492 51.457C27.1159 51.2018 27.3542 51.0078 27.6641 50.875C27.9766 50.7422 28.3529 50.6758 28.793 50.6758C29.5117 50.6758 30.0521 50.8333 30.4141 51.1484C30.7786 51.4635 30.9701 51.8841 30.9883 52.4102L29.832 52.4609C29.7826 52.1667 29.6758 51.9557 29.5117 51.8281C29.3503 51.6979 29.1068 51.6328 28.7812 51.6328C28.4453 51.6328 28.1823 51.7018 27.9922 51.8398C27.8698 51.9284 27.8086 52.0469 27.8086 52.1953C27.8086 52.3307 27.8659 52.4466 27.9805 52.543C28.1263 52.6654 28.4805 52.793 29.043 52.9258C29.6055 53.0586 30.0208 53.1966 30.2891 53.3398C30.5599 53.4805 30.7708 53.6745 30.9219 53.9219C31.0755 54.1667 31.1523 54.4701 31.1523 54.832C31.1523 55.1602 31.0612 55.4674 30.8789 55.7539C30.6966 56.0404 30.4388 56.2539 30.1055 56.3945C29.7721 56.5326 29.3568 56.6016 28.8594 56.6016C28.1354 56.6016 27.5794 56.4349 27.1914 56.1016C26.8034 55.7656 26.5716 55.2773 26.4961 54.6367ZM34.5195 55.1797L35.6133 55.3633C35.4727 55.7643 35.25 56.0703 34.9453 56.2812C34.6432 56.4896 34.2643 56.5938 33.8086 56.5938C33.0872 56.5938 32.5534 56.3581 32.207 55.8867C31.9336 55.5091 31.7969 55.0326 31.7969 54.457C31.7969 53.7695 31.9766 53.2318 32.3359 52.8438C32.6953 52.4531 33.1497 52.2578 33.6992 52.2578C34.3164 52.2578 34.8034 52.4622 35.1602 52.8711C35.5169 53.2773 35.6875 53.901 35.6719 54.7422H32.9219C32.9297 55.0677 33.0182 55.3216 33.1875 55.5039C33.3568 55.6836 33.5677 55.7734 33.8203 55.7734C33.9922 55.7734 34.1367 55.7266 34.2539 55.6328C34.3711 55.5391 34.4596 55.388 34.5195 55.1797ZM34.582 54.0703C34.5742 53.7526 34.4922 53.5117 34.3359 53.3477C34.1797 53.181 33.9896 53.0977 33.7656 53.0977C33.526 53.0977 33.3281 53.1849 33.1719 53.3594C33.0156 53.5339 32.9388 53.7708 32.9414 54.0703H34.582ZM38.4727 52.3516V53.2266H37.7227V54.8984C37.7227 55.237 37.7292 55.4349 37.7422 55.4922C37.7578 55.5469 37.7904 55.5924 37.8398 55.6289C37.8919 55.6654 37.9544 55.6836 38.0273 55.6836C38.1289 55.6836 38.276 55.6484 38.4688 55.5781L38.5625 56.4297C38.3073 56.5391 38.0182 56.5938 37.6953 56.5938C37.4974 56.5938 37.319 56.5612 37.1602 56.4961C37.0013 56.4284 36.8841 56.3424 36.8086 56.2383C36.7357 56.1315 36.6849 55.9883 36.6562 55.8086C36.6328 55.681 36.6211 55.4232 36.6211 55.0352V53.2266H36.1172V52.3516H36.6211V51.5273L37.7227 50.8867V52.3516H38.4727ZM45.1328 54.3945L46.2539 54.75C46.082 55.375 45.7956 55.8398 45.3945 56.1445C44.9961 56.4466 44.4896 56.5977 43.875 56.5977C43.1146 56.5977 42.4896 56.3385 42 55.8203C41.5104 55.2995 41.2656 54.5885 41.2656 53.6875C41.2656 52.7344 41.5117 51.9948 42.0039 51.4688C42.4961 50.9401 43.1432 50.6758 43.9453 50.6758C44.6458 50.6758 45.2148 50.8828 45.6523 51.2969C45.9128 51.5417 46.1081 51.8932 46.2383 52.3516L45.0938 52.625C45.026 52.3281 44.8841 52.0938 44.668 51.9219C44.4544 51.75 44.194 51.6641 43.8867 51.6641C43.4622 51.6641 43.1172 51.8164 42.8516 52.1211C42.5885 52.4258 42.457 52.9193 42.457 53.6016C42.457 54.3255 42.5872 54.8411 42.8477 55.1484C43.1081 55.4557 43.4466 55.6094 43.8633 55.6094C44.1706 55.6094 44.4349 55.5117 44.6562 55.3164C44.8776 55.1211 45.0365 54.8138 45.1328 54.3945ZM46.9883 54.3672C46.9883 54.0026 47.0781 53.6497 47.2578 53.3086C47.4375 52.9674 47.6914 52.707 48.0195 52.5273C48.3503 52.3477 48.7188 52.2578 49.125 52.2578C49.7526 52.2578 50.2669 52.4622 50.668 52.8711C51.069 53.2773 51.2695 53.7917 51.2695 54.4141C51.2695 55.0417 51.0664 55.5625 50.6602 55.9766C50.2565 56.388 49.7474 56.5938 49.1328 56.5938C48.7526 56.5938 48.3893 56.5078 48.043 56.3359C47.6992 56.1641 47.4375 55.9128 47.2578 55.582C47.0781 55.2487 46.9883 54.8438 46.9883 54.3672ZM48.1133 54.4258C48.1133 54.8372 48.2109 55.1523 48.4062 55.3711C48.6016 55.5898 48.8424 55.6992 49.1289 55.6992C49.4154 55.6992 49.6549 55.5898 49.8477 55.3711C50.043 55.1523 50.1406 54.8346 50.1406 54.418C50.1406 54.0117 50.043 53.6992 49.8477 53.4805C49.6549 53.2617 49.4154 53.1523 49.1289 53.1523C48.8424 53.1523 48.6016 53.2617 48.4062 53.4805C48.2109 53.6992 48.1133 54.0143 48.1133 54.4258ZM52.1328 56.5V50.7734H53.2305V56.5H52.1328ZM54.1055 54.3672C54.1055 54.0026 54.1953 53.6497 54.375 53.3086C54.5547 52.9674 54.8086 52.707 55.1367 52.5273C55.4674 52.3477 55.8359 52.2578 56.2422 52.2578C56.8698 52.2578 57.3841 52.4622 57.7852 52.8711C58.1862 53.2773 58.3867 53.7917 58.3867 54.4141C58.3867 55.0417 58.1836 55.5625 57.7773 55.9766C57.3737 56.388 56.8646 56.5938 56.25 56.5938C55.8698 56.5938 55.5065 56.5078 55.1602 56.3359C54.8164 56.1641 54.5547 55.9128 54.375 55.582C54.1953 55.2487 54.1055 54.8438 54.1055 54.3672ZM55.2305 54.4258C55.2305 54.8372 55.3281 55.1523 55.5234 55.3711C55.7188 55.5898 55.9596 55.6992 56.2461 55.6992C56.5326 55.6992 56.7721 55.5898 56.9648 55.3711C57.1602 55.1523 57.2578 54.8346 57.2578 54.418C57.2578 54.0117 57.1602 53.6992 56.9648 53.4805C56.7721 53.2617 56.5326 53.1523 56.2461 53.1523C55.9596 53.1523 55.7188 53.2617 55.5234 53.4805C55.3281 53.6992 55.2305 54.0143 55.2305 54.4258ZM60.3008 56.5H59.2031V52.3516H60.2227V52.9414C60.3971 52.6628 60.5534 52.4792 60.6914 52.3906C60.832 52.3021 60.9909 52.2578 61.168 52.2578C61.418 52.2578 61.6589 52.3268 61.8906 52.4648L61.5508 53.4219C61.3659 53.3021 61.194 53.2422 61.0352 53.2422C60.8815 53.2422 60.7513 53.2852 60.6445 53.3711C60.5378 53.4544 60.4531 53.6068 60.3906 53.8281C60.3307 54.0495 60.3008 54.513 60.3008 55.2188V56.5Z" fill="#4D4D87"/>
<rect x="20.25" y="68.25" width="48.5" height="15.5" rx="3.75" fill="#D9E8FB"/>
<rect x="20.25" y="68.25" width="48.5" height="15.5" rx="3.75" stroke="#4D4D87" stroke-width="0.5"/>
<path d="M26.5742 72.7734H27.7305V75.875C27.7305 76.3672 27.7448 76.6862 27.7734 76.832C27.8229 77.0664 27.9401 77.2552 28.125 77.3984C28.3125 77.5391 28.5677 77.6094 28.8906 77.6094C29.2188 77.6094 29.4661 77.543 29.6328 77.4102C29.7995 77.2747 29.8997 77.1094 29.9336 76.9141C29.9674 76.7188 29.9844 76.3945 29.9844 75.9414V72.7734H31.1406V75.7812C31.1406 76.4688 31.1094 76.9544 31.0469 77.2383C30.9844 77.5221 30.8685 77.7617 30.6992 77.957C30.5326 78.1523 30.3086 78.3086 30.0273 78.4258C29.7461 78.5404 29.3789 78.5977 28.9258 78.5977C28.3789 78.5977 27.9635 78.5352 27.6797 78.4102C27.3984 78.2826 27.1758 78.1185 27.0117 77.918C26.8477 77.7148 26.7396 77.5026 26.6875 77.2812C26.612 76.9531 26.5742 76.4688 26.5742 75.8281V72.7734ZM36.1289 78.5H35.0312V76.3828C35.0312 75.9349 35.0078 75.6458 34.9609 75.5156C34.9141 75.3828 34.8372 75.2799 34.7305 75.207C34.6263 75.1341 34.5 75.0977 34.3516 75.0977C34.1615 75.0977 33.9909 75.1497 33.8398 75.2539C33.6888 75.3581 33.5846 75.4961 33.5273 75.668C33.4727 75.8398 33.4453 76.1576 33.4453 76.6211V78.5H32.3477V74.3516H33.3672V74.9609C33.7292 74.4922 34.1849 74.2578 34.7344 74.2578C34.9766 74.2578 35.1979 74.3021 35.3984 74.3906C35.599 74.4766 35.75 74.5872 35.8516 74.7227C35.9557 74.8581 36.0273 75.0117 36.0664 75.1836C36.1081 75.3555 36.1289 75.6016 36.1289 75.9219V78.5ZM41.0508 78.5H40.0312V77.8906C39.862 78.1276 39.6615 78.3047 39.4297 78.4219C39.2005 78.5365 38.9688 78.5938 38.7344 78.5938C38.2578 78.5938 37.849 78.4023 37.5078 78.0195C37.1693 77.6341 37 77.0977 37 76.4102C37 75.707 37.1654 75.1732 37.4961 74.8086C37.8268 74.4414 38.2448 74.2578 38.75 74.2578C39.2135 74.2578 39.6146 74.4505 39.9531 74.8359V72.7734H41.0508V78.5ZM38.1211 76.3359C38.1211 76.7786 38.1823 77.099 38.3047 77.2969C38.4818 77.5833 38.7292 77.7266 39.0469 77.7266C39.2995 77.7266 39.5143 77.6198 39.6914 77.4062C39.8685 77.1901 39.957 76.8685 39.957 76.4414C39.957 75.9648 39.8711 75.6224 39.6992 75.4141C39.5273 75.2031 39.3073 75.0977 39.0391 75.0977C38.7786 75.0977 38.5599 75.2018 38.3828 75.4102C38.2083 75.6159 38.1211 75.9245 38.1211 76.3359ZM44.5391 77.1797L45.6328 77.3633C45.4922 77.7643 45.2695 78.0703 44.9648 78.2812C44.6628 78.4896 44.2839 78.5938 43.8281 78.5938C43.1068 78.5938 42.5729 78.3581 42.2266 77.8867C41.9531 77.5091 41.8164 77.0326 41.8164 76.457C41.8164 75.7695 41.9961 75.2318 42.3555 74.8438C42.7148 74.4531 43.1693 74.2578 43.7188 74.2578C44.3359 74.2578 44.8229 74.4622 45.1797 74.8711C45.5365 75.2773 45.707 75.901 45.6914 76.7422H42.9414C42.9492 77.0677 43.0378 77.3216 43.207 77.5039C43.3763 77.6836 43.5872 77.7734 43.8398 77.7734C44.0117 77.7734 44.1562 77.7266 44.2734 77.6328C44.3906 77.5391 44.4792 77.388 44.5391 77.1797ZM44.6016 76.0703C44.5938 75.7526 44.5117 75.5117 44.3555 75.3477C44.1992 75.181 44.0091 75.0977 43.7852 75.0977C43.5456 75.0977 43.3477 75.1849 43.1914 75.3594C43.0352 75.5339 42.9583 75.7708 42.9609 76.0703H44.6016ZM47.6406 78.5H46.543V74.3516H47.5625V74.9414C47.737 74.6628 47.8932 74.4792 48.0312 74.3906C48.1719 74.3021 48.3307 74.2578 48.5078 74.2578C48.7578 74.2578 48.9987 74.3268 49.2305 74.4648L48.8906 75.4219C48.7057 75.3021 48.5339 75.2422 48.375 75.2422C48.2214 75.2422 48.0911 75.2852 47.9844 75.3711C47.8776 75.4544 47.793 75.6068 47.7305 75.8281C47.6706 76.0495 47.6406 76.513 47.6406 77.2188V78.5ZM49.707 78.5V72.7734H50.8047V78.5H49.707ZM51.9336 73.7891V72.7734H53.0312V73.7891H51.9336ZM51.9336 78.5V74.3516H53.0312V78.5H51.9336ZM57.9336 78.5H56.8359V76.3828C56.8359 75.9349 56.8125 75.6458 56.7656 75.5156C56.7188 75.3828 56.6419 75.2799 56.5352 75.207C56.431 75.1341 56.3047 75.0977 56.1562 75.0977C55.9661 75.0977 55.7956 75.1497 55.6445 75.2539C55.4935 75.3581 55.3893 75.4961 55.332 75.668C55.2773 75.8398 55.25 76.1576 55.25 76.6211V78.5H54.1523V74.3516H55.1719V74.9609C55.5339 74.4922 55.9896 74.2578 56.5391 74.2578C56.7812 74.2578 57.0026 74.3021 57.2031 74.3906C57.4036 74.4766 57.5547 74.5872 57.6562 74.7227C57.7604 74.8581 57.832 75.0117 57.8711 75.1836C57.9128 75.3555 57.9336 75.6016 57.9336 75.9219V78.5ZM61.4531 77.1797L62.5469 77.3633C62.4062 77.7643 62.1836 78.0703 61.8789 78.2812C61.5768 78.4896 61.1979 78.5938 60.7422 78.5938C60.0208 78.5938 59.487 78.3581 59.1406 77.8867C58.8672 77.5091 58.7305 77.0326 58.7305 76.457C58.7305 75.7695 58.9102 75.2318 59.2695 74.8438C59.6289 74.4531 60.0833 74.2578 60.6328 74.2578C61.25 74.2578 61.737 74.4622 62.0938 74.8711C62.4505 75.2773 62.6211 75.901 62.6055 76.7422H59.8555C59.8633 77.0677 59.9518 77.3216 60.1211 77.5039C60.2904 77.6836 60.5013 77.7734 60.7539 77.7734C60.9258 77.7734 61.0703 77.7266 61.1875 77.6328C61.3047 77.5391 61.3932 77.388 61.4531 77.1797ZM61.5156 76.0703C61.5078 75.7526 61.4258 75.5117 61.2695 75.3477C61.1133 75.181 60.9232 75.0977 60.6992 75.0977C60.4596 75.0977 60.2617 75.1849 60.1055 75.3594C59.9492 75.5339 59.8724 75.7708 59.875 76.0703H61.5156Z" fill="#4D4D87"/>
<path d="M27.6172 104L26.0977 98.2734H26.875L27.7461 102.027C27.8398 102.421 27.9206 102.811 27.9883 103.199C28.1341 102.587 28.2201 102.234 28.2461 102.141L29.3359 98.2734H30.25L31.0703 101.172C31.276 101.891 31.4245 102.566 31.5156 103.199C31.5885 102.837 31.6836 102.422 31.8008 101.953L32.6992 98.2734H33.4609L31.8906 104H31.1602L29.9531 99.6367C29.8516 99.2721 29.7917 99.0482 29.7734 98.9648C29.7135 99.2279 29.6576 99.4518 29.6055 99.6367L28.3906 104H27.6172ZM33.9258 104V99.8516H34.5586V100.48C34.7201 100.186 34.8685 99.9922 35.0039 99.8984C35.1419 99.8047 35.293 99.7578 35.457 99.7578C35.694 99.7578 35.9349 99.8333 36.1797 99.9844L35.9375 100.637C35.7656 100.535 35.5938 100.484 35.4219 100.484C35.2682 100.484 35.1302 100.531 35.0078 100.625C34.8854 100.716 34.7982 100.844 34.7461 101.008C34.668 101.258 34.6289 101.531 34.6289 101.828V104H33.9258ZM36.6016 99.082V98.2734H37.3047V99.082H36.6016ZM36.6016 104V99.8516H37.3047V104H36.6016ZM39.9141 103.371L40.0156 103.992C39.8177 104.034 39.6406 104.055 39.4844 104.055C39.2292 104.055 39.0312 104.014 38.8906 103.934C38.75 103.853 38.651 103.747 38.5938 103.617C38.5365 103.484 38.5078 103.207 38.5078 102.785V100.398H37.9922V99.8516H38.5078V98.8242L39.207 98.4023V99.8516H39.9141V100.398H39.207V102.824C39.207 103.025 39.2188 103.154 39.2422 103.211C39.2682 103.268 39.3086 103.314 39.3633 103.348C39.4206 103.382 39.5013 103.398 39.6055 103.398C39.6836 103.398 39.7865 103.389 39.9141 103.371ZM43.4453 102.664L44.1719 102.754C44.0573 103.178 43.8451 103.508 43.5352 103.742C43.2253 103.977 42.8294 104.094 42.3477 104.094C41.7409 104.094 41.2591 103.908 40.9023 103.535C40.5482 103.16 40.3711 102.635 40.3711 101.961C40.3711 101.263 40.5508 100.721 40.9102 100.336C41.2695 99.9505 41.7357 99.7578 42.3086 99.7578C42.8633 99.7578 43.3164 99.9466 43.668 100.324C44.0195 100.702 44.1953 101.233 44.1953 101.918C44.1953 101.96 44.194 102.022 44.1914 102.105H41.0977C41.1237 102.561 41.2526 102.91 41.4844 103.152C41.7161 103.395 42.0052 103.516 42.3516 103.516C42.6094 103.516 42.8294 103.448 43.0117 103.312C43.194 103.177 43.3385 102.961 43.4453 102.664ZM41.1367 101.527H43.4531C43.4219 101.178 43.3333 100.917 43.1875 100.742C42.9635 100.471 42.6732 100.336 42.3164 100.336C41.9935 100.336 41.7214 100.444 41.5 100.66C41.2812 100.876 41.1602 101.165 41.1367 101.527ZM47.2539 105.598L47.1758 104.938C47.3294 104.979 47.4635 105 47.5781 105C47.7344 105 47.8594 104.974 47.9531 104.922C48.0469 104.87 48.1237 104.797 48.1836 104.703C48.2279 104.633 48.2995 104.458 48.3984 104.18C48.4115 104.141 48.4323 104.083 48.4609 104.008L46.8867 99.8516H47.6445L48.5078 102.254C48.6198 102.559 48.7201 102.879 48.8086 103.215C48.8893 102.892 48.9857 102.577 49.0977 102.27L49.9844 99.8516H50.6875L49.1094 104.07C48.9401 104.526 48.8086 104.84 48.7148 105.012C48.5898 105.243 48.4466 105.413 48.2852 105.52C48.1237 105.629 47.931 105.684 47.707 105.684C47.5716 105.684 47.4206 105.655 47.2539 105.598ZM51.0234 101.926C51.0234 101.158 51.237 100.589 51.6641 100.219C52.0208 99.9115 52.4557 99.7578 52.9688 99.7578C53.5391 99.7578 54.0052 99.9453 54.3672 100.32C54.7292 100.693 54.9102 101.208 54.9102 101.867C54.9102 102.401 54.8294 102.822 54.668 103.129C54.5091 103.434 54.276 103.671 53.9688 103.84C53.6641 104.009 53.3307 104.094 52.9688 104.094C52.388 104.094 51.918 103.908 51.5586 103.535C51.2018 103.163 51.0234 102.626 51.0234 101.926ZM51.7461 101.926C51.7461 102.457 51.862 102.855 52.0938 103.121C52.3255 103.384 52.6172 103.516 52.9688 103.516C53.3177 103.516 53.6081 103.383 53.8398 103.117C54.0716 102.852 54.1875 102.447 54.1875 101.902C54.1875 101.389 54.0703 101.001 53.8359 100.738C53.6042 100.473 53.3151 100.34 52.9688 100.34C52.6172 100.34 52.3255 100.471 52.0938 100.734C51.862 100.997 51.7461 101.395 51.7461 101.926ZM58.457 104V103.391C58.1341 103.859 57.6953 104.094 57.1406 104.094C56.8958 104.094 56.6667 104.047 56.4531 103.953C56.2422 103.859 56.0846 103.742 55.9805 103.602C55.8789 103.458 55.8073 103.284 55.7656 103.078C55.737 102.94 55.7227 102.721 55.7227 102.422V99.8516H56.4258V102.152C56.4258 102.52 56.4401 102.767 56.4688 102.895C56.513 103.079 56.6068 103.225 56.75 103.332C56.8932 103.436 57.0703 103.488 57.2812 103.488C57.4922 103.488 57.6901 103.435 57.875 103.328C58.0599 103.219 58.1901 103.072 58.2656 102.887C58.3438 102.699 58.3828 102.428 58.3828 102.074V99.8516H59.0859V104H58.457ZM60.1836 104V99.8516H60.8164V100.48C60.9779 100.186 61.1263 99.9922 61.2617 99.8984C61.3997 99.8047 61.5508 99.7578 61.7148 99.7578C61.9518 99.7578 62.1927 99.8333 62.4375 99.9844L62.1953 100.637C62.0234 100.535 61.8516 100.484 61.6797 100.484C61.526 100.484 61.388 100.531 61.2656 100.625C61.1432 100.716 61.056 100.844 61.0039 101.008C60.9258 101.258 60.8867 101.531 60.8867 101.828V104H60.1836ZM66.6172 103.371L66.7188 103.992C66.5208 104.034 66.3438 104.055 66.1875 104.055C65.9323 104.055 65.7344 104.014 65.5938 103.934C65.4531 103.853 65.3542 103.747 65.2969 103.617C65.2396 103.484 65.2109 103.207 65.2109 102.785V100.398H64.6953V99.8516H65.2109V98.8242L65.9102 98.4023V99.8516H66.6172V100.398H65.9102V102.824C65.9102 103.025 65.9219 103.154 65.9453 103.211C65.9714 103.268 66.0117 103.314 66.0664 103.348C66.1237 103.382 66.2044 103.398 66.3086 103.398C66.3867 103.398 66.4896 103.389 66.6172 103.371ZM70.1484 102.664L70.875 102.754C70.7604 103.178 70.5482 103.508 70.2383 103.742C69.9284 103.977 69.5326 104.094 69.0508 104.094C68.444 104.094 67.9622 103.908 67.6055 103.535C67.2513 103.16 67.0742 102.635 67.0742 101.961C67.0742 101.263 67.2539 100.721 67.6133 100.336C67.9727 99.9505 68.4388 99.7578 69.0117 99.7578C69.5664 99.7578 70.0195 99.9466 70.3711 100.324C70.7227 100.702 70.8984 101.233 70.8984 101.918C70.8984 101.96 70.8971 102.022 70.8945 102.105H67.8008C67.8268 102.561 67.9557 102.91 68.1875 103.152C68.4193 103.395 68.7083 103.516 69.0547 103.516C69.3125 103.516 69.5326 103.448 69.7148 103.312C69.8971 103.177 70.0417 102.961 70.1484 102.664ZM67.8398 101.527H70.1562C70.125 101.178 70.0365 100.917 69.8906 100.742C69.6667 100.471 69.3763 100.336 69.0195 100.336C68.6966 100.336 68.4245 100.444 68.2031 100.66C67.9844 100.876 67.8633 101.165 67.8398 101.527ZM71.293 104L72.8086 101.844L71.4062 99.8516H72.2852L72.9219 100.824C73.0417 101.009 73.138 101.164 73.2109 101.289C73.3255 101.117 73.431 100.965 73.5273 100.832L74.2266 99.8516H75.0664L73.6328 101.805L75.1758 104H74.3125L73.4609 102.711L73.2344 102.363L72.1445 104H71.293ZM77.2969 103.371L77.3984 103.992C77.2005 104.034 77.0234 104.055 76.8672 104.055C76.612 104.055 76.4141 104.014 76.2734 103.934C76.1328 103.853 76.0339 103.747 75.9766 103.617C75.9193 103.484 75.8906 103.207 75.8906 102.785V100.398H75.375V99.8516H75.8906V98.8242L76.5898 98.4023V99.8516H77.2969V100.398H76.5898V102.824C76.5898 103.025 76.6016 103.154 76.625 103.211C76.651 103.268 76.6914 103.314 76.7461 103.348C76.8034 103.382 76.8841 103.398 76.9883 103.398C77.0664 103.398 77.1693 103.389 77.2969 103.371ZM80.2148 104V98.2734H80.918V100.328C81.2461 99.9479 81.6602 99.7578 82.1602 99.7578C82.4674 99.7578 82.7344 99.819 82.9609 99.9414C83.1875 100.061 83.349 100.228 83.4453 100.441C83.5443 100.655 83.5938 100.965 83.5938 101.371V104H82.8906V101.371C82.8906 101.02 82.8138 100.764 82.6602 100.605C82.5091 100.444 82.2943 100.363 82.0156 100.363C81.8073 100.363 81.6107 100.418 81.4258 100.527C81.2435 100.634 81.1133 100.78 81.0352 100.965C80.957 101.15 80.918 101.405 80.918 101.73V104H80.2148ZM87.5078 102.664L88.2344 102.754C88.1198 103.178 87.9076 103.508 87.5977 103.742C87.2878 103.977 86.8919 104.094 86.4102 104.094C85.8034 104.094 85.3216 103.908 84.9648 103.535C84.6107 103.16 84.4336 102.635 84.4336 101.961C84.4336 101.263 84.6133 100.721 84.9727 100.336C85.332 99.9505 85.7982 99.7578 86.3711 99.7578C86.9258 99.7578 87.3789 99.9466 87.7305 100.324C88.082 100.702 88.2578 101.233 88.2578 101.918C88.2578 101.96 88.2565 102.022 88.2539 102.105H85.1602C85.1862 102.561 85.3151 102.91 85.5469 103.152C85.7786 103.395 86.0677 103.516 86.4141 103.516C86.6719 103.516 86.8919 103.448 87.0742 103.312C87.2565 103.177 87.401 102.961 87.5078 102.664ZM85.1992 101.527H87.5156C87.4844 101.178 87.3958 100.917 87.25 100.742C87.026 100.471 86.7357 100.336 86.3789 100.336C86.056 100.336 85.7839 100.444 85.5625 100.66C85.3438 100.876 85.2227 101.165 85.1992 101.527ZM89.1133 104V99.8516H89.7461V100.48C89.9076 100.186 90.056 99.9922 90.1914 99.8984C90.3294 99.8047 90.4805 99.7578 90.6445 99.7578C90.8815 99.7578 91.1224 99.8333 91.3672 99.9844L91.125 100.637C90.9531 100.535 90.7812 100.484 90.6094 100.484C90.4557 100.484 90.3177 100.531 90.1953 100.625C90.0729 100.716 89.9857 100.844 89.9336 101.008C89.8555 101.258 89.8164 101.531 89.8164 101.828V104H89.1133ZM94.625 102.664L95.3516 102.754C95.237 103.178 95.0247 103.508 94.7148 103.742C94.4049 103.977 94.0091 104.094 93.5273 104.094C92.9206 104.094 92.4388 103.908 92.082 103.535C91.7279 103.16 91.5508 102.635 91.5508 101.961C91.5508 101.263 91.7305 100.721 92.0898 100.336C92.4492 99.9505 92.9154 99.7578 93.4883 99.7578C94.043 99.7578 94.4961 99.9466 94.8477 100.324C95.1992 100.702 95.375 101.233 95.375 101.918C95.375 101.96 95.3737 102.022 95.3711 102.105H92.2773C92.3034 102.561 92.4323 102.91 92.6641 103.152C92.8958 103.395 93.1849 103.516 93.5312 103.516C93.7891 103.516 94.0091 103.448 94.1914 103.312C94.3737 103.177 94.5182 102.961 94.625 102.664ZM92.3164 101.527H94.6328C94.6016 101.178 94.513 100.917 94.3672 100.742C94.1432 100.471 93.8529 100.336 93.4961 100.336C93.1732 100.336 92.901 100.444 92.6797 100.66C92.4609 100.876 92.3398 101.165 92.3164 101.527Z" fill="#808080"/>
<rect x="74.25" y="68.25" width="30.5" height="15.5" rx="3.75" fill="#D9E8FB"/>
<rect x="74.25" y="68.25" width="30.5" height="15.5" rx="3.75" stroke="#4D4D87" stroke-width="0.5"/>
<path d="M80.5469 78.5V72.7734H81.7031V78.5H80.5469ZM84.7031 74.3516V75.2266H83.9531V76.8984C83.9531 77.237 83.9596 77.4349 83.9727 77.4922C83.9883 77.5469 84.0208 77.5924 84.0703 77.6289C84.1224 77.6654 84.1849 77.6836 84.2578 77.6836C84.3594 77.6836 84.5065 77.6484 84.6992 77.5781L84.793 78.4297C84.5378 78.5391 84.2487 78.5938 83.9258 78.5938C83.7279 78.5938 83.5495 78.5612 83.3906 78.4961C83.2318 78.4284 83.1146 78.3424 83.0391 78.2383C82.9661 78.1315 82.9154 77.9883 82.8867 77.8086C82.8633 77.681 82.8516 77.4232 82.8516 77.0352V75.2266H82.3477V74.3516H82.8516V73.5273L83.9531 72.8867V74.3516H84.7031ZM86.2852 75.6172L85.2891 75.4375C85.401 75.0365 85.5938 74.7396 85.8672 74.5469C86.1406 74.3542 86.5469 74.2578 87.0859 74.2578C87.5755 74.2578 87.9401 74.3164 88.1797 74.4336C88.4193 74.5482 88.5872 74.6953 88.6836 74.875C88.7826 75.0521 88.832 75.3789 88.832 75.8555L88.8203 77.1367C88.8203 77.5013 88.8372 77.7708 88.8711 77.9453C88.9076 78.1172 88.974 78.3021 89.0703 78.5H87.9844C87.9557 78.4271 87.9206 78.319 87.8789 78.1758C87.8607 78.1107 87.8477 78.0677 87.8398 78.0469C87.6523 78.2292 87.4518 78.3659 87.2383 78.457C87.0247 78.5482 86.7969 78.5938 86.5547 78.5938C86.1276 78.5938 85.7904 78.4779 85.543 78.2461C85.2982 78.0143 85.1758 77.7214 85.1758 77.3672C85.1758 77.1328 85.2318 76.9245 85.3438 76.7422C85.4557 76.5573 85.612 76.4167 85.8125 76.3203C86.0156 76.2214 86.3073 76.1354 86.6875 76.0625C87.2005 75.9661 87.556 75.8763 87.7539 75.793V75.6836C87.7539 75.4727 87.7018 75.3229 87.5977 75.2344C87.4935 75.1432 87.2969 75.0977 87.0078 75.0977C86.8125 75.0977 86.6602 75.1367 86.5508 75.2148C86.4414 75.2904 86.3529 75.4245 86.2852 75.6172ZM87.7539 76.5078C87.6133 76.5547 87.3906 76.6107 87.0859 76.6758C86.7812 76.7409 86.582 76.8047 86.4883 76.8672C86.3451 76.9688 86.2734 77.0977 86.2734 77.2539C86.2734 77.4076 86.3307 77.5404 86.4453 77.6523C86.5599 77.7643 86.7057 77.8203 86.8828 77.8203C87.0807 77.8203 87.2695 77.7552 87.4492 77.625C87.582 77.526 87.6693 77.4049 87.7109 77.2617C87.7396 77.168 87.7539 76.9896 87.7539 76.7266V76.5078ZM89.918 78.5V72.7734H91.0156V78.5H89.918ZM92.1445 73.7891V72.7734H93.2422V73.7891H92.1445ZM92.1445 78.5V74.3516H93.2422V78.5H92.1445ZM97.9883 75.5781L96.9062 75.7734C96.8698 75.5573 96.7865 75.3945 96.6562 75.2852C96.5286 75.1758 96.362 75.1211 96.1562 75.1211C95.8828 75.1211 95.6641 75.2161 95.5 75.4062C95.3385 75.5938 95.2578 75.9089 95.2578 76.3516C95.2578 76.8438 95.3398 77.1914 95.5039 77.3945C95.6706 77.5977 95.8932 77.6992 96.1719 77.6992C96.3802 77.6992 96.5508 77.6406 96.6836 77.5234C96.8164 77.4036 96.9102 77.1992 96.9648 76.9102L98.043 77.0938C97.931 77.5885 97.7161 77.9622 97.3984 78.2148C97.0807 78.4674 96.6549 78.5938 96.1211 78.5938C95.5143 78.5938 95.0299 78.4023 94.668 78.0195C94.3086 77.6367 94.1289 77.1068 94.1289 76.4297C94.1289 75.7448 94.3099 75.2122 94.6719 74.832C95.0339 74.4492 95.5234 74.2578 96.1406 74.2578C96.6458 74.2578 97.0469 74.3672 97.3438 74.5859C97.6432 74.8021 97.8581 75.1328 97.9883 75.5781Z" fill="#4D4D87"/>
<rect x="110.25" y="68.25" width="29.5" height="15.5" rx="3.75" fill="#D9E8FB"/>
<rect x="110.25" y="68.25" width="29.5" height="15.5" rx="3.75" stroke="#4D4D87" stroke-width="0.5"/>
<path d="M116.586 72.7734H118.875C119.328 72.7734 119.665 72.793 119.887 72.832C120.111 72.8685 120.31 72.9466 120.484 73.0664C120.661 73.1862 120.809 73.3464 120.926 73.5469C121.043 73.7448 121.102 73.9674 121.102 74.2148C121.102 74.4831 121.029 74.7292 120.883 74.9531C120.74 75.1771 120.544 75.3451 120.297 75.457C120.646 75.5586 120.914 75.7318 121.102 75.9766C121.289 76.2214 121.383 76.5091 121.383 76.8398C121.383 77.1003 121.322 77.3542 121.199 77.6016C121.079 77.8464 120.914 78.043 120.703 78.1914C120.495 78.3372 120.237 78.4271 119.93 78.4609C119.737 78.4818 119.272 78.4948 118.535 78.5H116.586V72.7734ZM117.742 73.7266V75.0508H118.5C118.951 75.0508 119.23 75.0443 119.34 75.0312C119.538 75.0078 119.693 74.9401 119.805 74.8281C119.919 74.7135 119.977 74.5638 119.977 74.3789C119.977 74.2018 119.927 74.0586 119.828 73.9492C119.732 73.8372 119.587 73.7695 119.395 73.7461C119.28 73.7331 118.951 73.7266 118.406 73.7266H117.742ZM117.742 76.0039V77.5352H118.812C119.229 77.5352 119.493 77.5234 119.605 77.5C119.777 77.4688 119.917 77.3932 120.023 77.2734C120.133 77.151 120.188 76.9883 120.188 76.7852C120.188 76.6133 120.146 76.4674 120.062 76.3477C119.979 76.2279 119.858 76.1406 119.699 76.0859C119.543 76.0312 119.202 76.0039 118.676 76.0039H117.742ZM122.102 76.3672C122.102 76.0026 122.191 75.6497 122.371 75.3086C122.551 74.9674 122.805 74.707 123.133 74.5273C123.464 74.3477 123.832 74.2578 124.238 74.2578C124.866 74.2578 125.38 74.4622 125.781 74.8711C126.182 75.2773 126.383 75.7917 126.383 76.4141C126.383 77.0417 126.18 77.5625 125.773 77.9766C125.37 78.388 124.861 78.5938 124.246 78.5938C123.866 78.5938 123.503 78.5078 123.156 78.3359C122.812 78.1641 122.551 77.9128 122.371 77.582C122.191 77.2487 122.102 76.8438 122.102 76.3672ZM123.227 76.4258C123.227 76.8372 123.324 77.1523 123.52 77.3711C123.715 77.5898 123.956 77.6992 124.242 77.6992C124.529 77.6992 124.768 77.5898 124.961 77.3711C125.156 77.1523 125.254 76.8346 125.254 76.418C125.254 76.0117 125.156 75.6992 124.961 75.4805C124.768 75.2617 124.529 75.1523 124.242 75.1523C123.956 75.1523 123.715 75.2617 123.52 75.4805C123.324 75.6992 123.227 76.0143 123.227 76.4258ZM127.246 78.5V72.7734H128.344V78.5H127.246ZM133.277 78.5H132.258V77.8906C132.089 78.1276 131.888 78.3047 131.656 78.4219C131.427 78.5365 131.195 78.5938 130.961 78.5938C130.484 78.5938 130.076 78.4023 129.734 78.0195C129.396 77.6341 129.227 77.0977 129.227 76.4102C129.227 75.707 129.392 75.1732 129.723 74.8086C130.053 74.4414 130.471 74.2578 130.977 74.2578C131.44 74.2578 131.841 74.4505 132.18 74.8359V72.7734H133.277V78.5ZM130.348 76.3359C130.348 76.7786 130.409 77.099 130.531 77.2969C130.708 77.5833 130.956 77.7266 131.273 77.7266C131.526 77.7266 131.741 77.6198 131.918 77.4062C132.095 77.1901 132.184 76.8685 132.184 76.4414C132.184 75.9648 132.098 75.6224 131.926 75.4141C131.754 75.2031 131.534 75.0977 131.266 75.0977C131.005 75.0977 130.786 75.2018 130.609 75.4102C130.435 75.6159 130.348 75.9245 130.348 76.3359Z" fill="#4D4D87"/>
<rect x="145.25" y="68.25" width="56.5" height="15.5" rx="3.75" fill="#D9E8FB"/>
<rect x="145.25" y="68.25" width="56.5" height="15.5" rx="3.75" stroke="#4D4D87" stroke-width="0.5"/>
<path d="M151.566 78.5V72.7734H153.297L154.336 76.6797L155.363 72.7734H157.098V78.5H156.023V73.9922L154.887 78.5H153.773L152.641 73.9922V78.5H151.566ZM157.984 76.3672C157.984 76.0026 158.074 75.6497 158.254 75.3086C158.434 74.9674 158.688 74.707 159.016 74.5273C159.346 74.3477 159.715 74.2578 160.121 74.2578C160.749 74.2578 161.263 74.4622 161.664 74.8711C162.065 75.2773 162.266 75.7917 162.266 76.4141C162.266 77.0417 162.062 77.5625 161.656 77.9766C161.253 78.388 160.743 78.5938 160.129 78.5938C159.749 78.5938 159.385 78.5078 159.039 78.3359C158.695 78.1641 158.434 77.9128 158.254 77.582C158.074 77.2487 157.984 76.8438 157.984 76.3672ZM159.109 76.4258C159.109 76.8372 159.207 77.1523 159.402 77.3711C159.598 77.5898 159.839 77.6992 160.125 77.6992C160.411 77.6992 160.651 77.5898 160.844 77.3711C161.039 77.1523 161.137 76.8346 161.137 76.418C161.137 76.0117 161.039 75.6992 160.844 75.4805C160.651 75.2617 160.411 75.1523 160.125 75.1523C159.839 75.1523 159.598 75.2617 159.402 75.4805C159.207 75.6992 159.109 76.0143 159.109 76.4258ZM166.902 78.5H165.805V76.3828C165.805 75.9349 165.781 75.6458 165.734 75.5156C165.688 75.3828 165.611 75.2799 165.504 75.207C165.4 75.1341 165.273 75.0977 165.125 75.0977C164.935 75.0977 164.764 75.1497 164.613 75.2539C164.462 75.3581 164.358 75.4961 164.301 75.668C164.246 75.8398 164.219 76.1576 164.219 76.6211V78.5H163.121V74.3516H164.141V74.9609C164.503 74.4922 164.958 74.2578 165.508 74.2578C165.75 74.2578 165.971 74.3021 166.172 74.3906C166.372 74.4766 166.523 74.5872 166.625 74.7227C166.729 74.8581 166.801 75.0117 166.84 75.1836C166.882 75.3555 166.902 75.6016 166.902 75.9219V78.5ZM167.766 76.3672C167.766 76.0026 167.855 75.6497 168.035 75.3086C168.215 74.9674 168.469 74.707 168.797 74.5273C169.128 74.3477 169.496 74.2578 169.902 74.2578C170.53 74.2578 171.044 74.4622 171.445 74.8711C171.846 75.2773 172.047 75.7917 172.047 76.4141C172.047 77.0417 171.844 77.5625 171.438 77.9766C171.034 78.388 170.525 78.5938 169.91 78.5938C169.53 78.5938 169.167 78.5078 168.82 78.3359C168.477 78.1641 168.215 77.9128 168.035 77.582C167.855 77.2487 167.766 76.8438 167.766 76.3672ZM168.891 76.4258C168.891 76.8372 168.988 77.1523 169.184 77.3711C169.379 77.5898 169.62 77.6992 169.906 77.6992C170.193 77.6992 170.432 77.5898 170.625 77.3711C170.82 77.1523 170.918 76.8346 170.918 76.418C170.918 76.0117 170.82 75.6992 170.625 75.4805C170.432 75.2617 170.193 75.1523 169.906 75.1523C169.62 75.1523 169.379 75.2617 169.184 75.4805C168.988 75.6992 168.891 76.0143 168.891 76.4258ZM172.523 77.3164L173.625 77.1484C173.672 77.362 173.767 77.5247 173.91 77.6367C174.053 77.7461 174.254 77.8008 174.512 77.8008C174.796 77.8008 175.009 77.7487 175.152 77.6445C175.249 77.5716 175.297 77.474 175.297 77.3516C175.297 77.2682 175.271 77.1992 175.219 77.1445C175.164 77.0924 175.042 77.0443 174.852 77C173.966 76.8047 173.405 76.6263 173.168 76.4648C172.84 76.2409 172.676 75.9297 172.676 75.5312C172.676 75.1719 172.818 74.8698 173.102 74.625C173.385 74.3802 173.826 74.2578 174.422 74.2578C174.99 74.2578 175.411 74.3503 175.688 74.5352C175.964 74.7201 176.154 74.9935 176.258 75.3555L175.223 75.5469C175.178 75.3854 175.094 75.2617 174.969 75.1758C174.846 75.0898 174.671 75.0469 174.441 75.0469C174.152 75.0469 173.945 75.0872 173.82 75.168C173.737 75.2253 173.695 75.2995 173.695 75.3906C173.695 75.4688 173.732 75.5352 173.805 75.5898C173.904 75.6628 174.245 75.7656 174.828 75.8984C175.414 76.0312 175.823 76.194 176.055 76.3867C176.284 76.582 176.398 76.8542 176.398 77.2031C176.398 77.5833 176.24 77.9102 175.922 78.1836C175.604 78.457 175.134 78.5938 174.512 78.5938C173.947 78.5938 173.499 78.4792 173.168 78.25C172.84 78.0208 172.625 77.7096 172.523 77.3164ZM177.332 74.3516H178.355V74.9609C178.488 74.7526 178.668 74.5833 178.895 74.4531C179.121 74.3229 179.372 74.2578 179.648 74.2578C180.13 74.2578 180.539 74.4466 180.875 74.8242C181.211 75.2018 181.379 75.7279 181.379 76.4023C181.379 77.0951 181.21 77.6341 180.871 78.0195C180.533 78.4023 180.122 78.5938 179.641 78.5938C179.411 78.5938 179.203 78.5482 179.016 78.457C178.831 78.3659 178.635 78.2096 178.43 77.9883V80.0781H177.332V74.3516ZM178.418 76.3555C178.418 76.8216 178.51 77.1667 178.695 77.3906C178.88 77.612 179.105 77.7227 179.371 77.7227C179.626 77.7227 179.839 77.6211 180.008 77.418C180.177 77.2122 180.262 76.8763 180.262 76.4102C180.262 75.9753 180.174 75.6523 180 75.4414C179.826 75.2305 179.609 75.125 179.352 75.125C179.083 75.125 178.861 75.2292 178.684 75.4375C178.507 75.6432 178.418 75.9492 178.418 76.3555ZM183.074 75.6172L182.078 75.4375C182.19 75.0365 182.383 74.7396 182.656 74.5469C182.93 74.3542 183.336 74.2578 183.875 74.2578C184.365 74.2578 184.729 74.3164 184.969 74.4336C185.208 74.5482 185.376 74.6953 185.473 74.875C185.572 75.0521 185.621 75.3789 185.621 75.8555L185.609 77.1367C185.609 77.5013 185.626 77.7708 185.66 77.9453C185.697 78.1172 185.763 78.3021 185.859 78.5H184.773C184.745 78.4271 184.71 78.319 184.668 78.1758C184.65 78.1107 184.637 78.0677 184.629 78.0469C184.441 78.2292 184.241 78.3659 184.027 78.457C183.814 78.5482 183.586 78.5938 183.344 78.5938C182.917 78.5938 182.579 78.4779 182.332 78.2461C182.087 78.0143 181.965 77.7214 181.965 77.3672C181.965 77.1328 182.021 76.9245 182.133 76.7422C182.245 76.5573 182.401 76.4167 182.602 76.3203C182.805 76.2214 183.096 76.1354 183.477 76.0625C183.99 75.9661 184.345 75.8763 184.543 75.793V75.6836C184.543 75.4727 184.491 75.3229 184.387 75.2344C184.283 75.1432 184.086 75.0977 183.797 75.0977C183.602 75.0977 183.449 75.1367 183.34 75.2148C183.23 75.2904 183.142 75.4245 183.074 75.6172ZM184.543 76.5078C184.402 76.5547 184.18 76.6107 183.875 76.6758C183.57 76.7409 183.371 76.8047 183.277 76.8672C183.134 76.9688 183.062 77.0977 183.062 77.2539C183.062 77.4076 183.12 77.5404 183.234 77.6523C183.349 77.7643 183.495 77.8203 183.672 77.8203C183.87 77.8203 184.059 77.7552 184.238 77.625C184.371 77.526 184.458 77.4049 184.5 77.2617C184.529 77.168 184.543 76.9896 184.543 76.7266V76.5078ZM190.324 75.5781L189.242 75.7734C189.206 75.5573 189.122 75.3945 188.992 75.2852C188.865 75.1758 188.698 75.1211 188.492 75.1211C188.219 75.1211 188 75.2161 187.836 75.4062C187.674 75.5938 187.594 75.9089 187.594 76.3516C187.594 76.8438 187.676 77.1914 187.84 77.3945C188.007 77.5977 188.229 77.6992 188.508 77.6992C188.716 77.6992 188.887 77.6406 189.02 77.5234C189.152 77.4036 189.246 77.1992 189.301 76.9102L190.379 77.0938C190.267 77.5885 190.052 77.9622 189.734 78.2148C189.417 78.4674 188.991 78.5938 188.457 78.5938C187.85 78.5938 187.366 78.4023 187.004 78.0195C186.645 77.6367 186.465 77.1068 186.465 76.4297C186.465 75.7448 186.646 75.2122 187.008 74.832C187.37 74.4492 187.859 74.2578 188.477 74.2578C188.982 74.2578 189.383 74.3672 189.68 74.5859C189.979 74.8021 190.194 75.1328 190.324 75.5781ZM193.562 77.1797L194.656 77.3633C194.516 77.7643 194.293 78.0703 193.988 78.2812C193.686 78.4896 193.307 78.5938 192.852 78.5938C192.13 78.5938 191.596 78.3581 191.25 77.8867C190.977 77.5091 190.84 77.0326 190.84 76.457C190.84 75.7695 191.02 75.2318 191.379 74.8438C191.738 74.4531 192.193 74.2578 192.742 74.2578C193.359 74.2578 193.846 74.4622 194.203 74.8711C194.56 75.2773 194.73 75.901 194.715 76.7422H191.965C191.973 77.0677 192.061 77.3216 192.23 77.5039C192.4 77.6836 192.611 77.7734 192.863 77.7734C193.035 77.7734 193.18 77.7266 193.297 77.6328C193.414 77.5391 193.503 77.388 193.562 77.1797ZM193.625 76.0703C193.617 75.7526 193.535 75.5117 193.379 75.3477C193.223 75.181 193.033 75.0977 192.809 75.0977C192.569 75.0977 192.371 75.1849 192.215 75.3594C192.059 75.5339 191.982 75.7708 191.984 76.0703H193.625Z" fill="#4D4D87"/>
<rect x="207.25" y="68.25" width="72.5" height="15.5" rx="3.75" fill="#D9E8FB"/>
<rect x="207.25" y="68.25" width="72.5" height="15.5" rx="3.75" stroke="#4D4D87" stroke-width="0.5"/>
<path d="M213.586 78.5V72.7734H216.02C216.632 72.7734 217.076 72.8255 217.352 72.9297C217.63 73.0312 217.853 73.2135 218.02 73.4766C218.186 73.7396 218.27 74.0404 218.27 74.3789C218.27 74.8086 218.143 75.1641 217.891 75.4453C217.638 75.724 217.26 75.8997 216.758 75.9727C217.008 76.1185 217.214 76.2786 217.375 76.4531C217.539 76.6276 217.759 76.9375 218.035 77.3828L218.734 78.5H217.352L216.516 77.2539C216.219 76.8086 216.016 76.5286 215.906 76.4141C215.797 76.2969 215.681 76.2174 215.559 76.1758C215.436 76.1315 215.242 76.1094 214.977 76.1094H214.742V78.5H213.586ZM214.742 75.1953H215.598C216.152 75.1953 216.499 75.1719 216.637 75.125C216.775 75.0781 216.883 74.9974 216.961 74.8828C217.039 74.7682 217.078 74.625 217.078 74.4531C217.078 74.2604 217.026 74.1055 216.922 73.9883C216.82 73.8685 216.676 73.793 216.488 73.7617C216.395 73.7487 216.113 73.7422 215.645 73.7422H214.742V75.1953ZM221.758 77.1797L222.852 77.3633C222.711 77.7643 222.488 78.0703 222.184 78.2812C221.882 78.4896 221.503 78.5938 221.047 78.5938C220.326 78.5938 219.792 78.3581 219.445 77.8867C219.172 77.5091 219.035 77.0326 219.035 76.457C219.035 75.7695 219.215 75.2318 219.574 74.8438C219.934 74.4531 220.388 74.2578 220.938 74.2578C221.555 74.2578 222.042 74.4622 222.398 74.8711C222.755 75.2773 222.926 75.901 222.91 76.7422H220.16C220.168 77.0677 220.257 77.3216 220.426 77.5039C220.595 77.6836 220.806 77.7734 221.059 77.7734C221.23 77.7734 221.375 77.7266 221.492 77.6328C221.609 77.5391 221.698 77.388 221.758 77.1797ZM221.82 76.0703C221.812 75.7526 221.73 75.5117 221.574 75.3477C221.418 75.181 221.228 75.0977 221.004 75.0977C220.764 75.0977 220.566 75.1849 220.41 75.3594C220.254 75.5339 220.177 75.7708 220.18 76.0703H221.82ZM223.727 74.3516H224.738V74.918C225.1 74.4779 225.531 74.2578 226.031 74.2578C226.297 74.2578 226.527 74.3125 226.723 74.4219C226.918 74.5312 227.078 74.6966 227.203 74.918C227.385 74.6966 227.582 74.5312 227.793 74.4219C228.004 74.3125 228.229 74.2578 228.469 74.2578C228.773 74.2578 229.031 74.3203 229.242 74.4453C229.453 74.5677 229.611 74.7487 229.715 74.9883C229.79 75.1654 229.828 75.4518 229.828 75.8477V78.5H228.73V76.1289C228.73 75.7174 228.693 75.4518 228.617 75.332C228.516 75.1758 228.359 75.0977 228.148 75.0977C227.995 75.0977 227.85 75.1445 227.715 75.2383C227.579 75.332 227.482 75.4701 227.422 75.6523C227.362 75.832 227.332 76.1172 227.332 76.5078V78.5H226.234V76.2266C226.234 75.8229 226.215 75.5625 226.176 75.4453C226.137 75.3281 226.076 75.2409 225.992 75.1836C225.911 75.1263 225.801 75.0977 225.66 75.0977C225.491 75.0977 225.339 75.1432 225.203 75.2344C225.068 75.3255 224.97 75.457 224.91 75.6289C224.853 75.8008 224.824 76.0859 224.824 76.4844V78.5H223.727V74.3516ZM230.672 76.3672C230.672 76.0026 230.762 75.6497 230.941 75.3086C231.121 74.9674 231.375 74.707 231.703 74.5273C232.034 74.3477 232.402 74.2578 232.809 74.2578C233.436 74.2578 233.951 74.4622 234.352 74.8711C234.753 75.2773 234.953 75.7917 234.953 76.4141C234.953 77.0417 234.75 77.5625 234.344 77.9766C233.94 78.388 233.431 78.5938 232.816 78.5938C232.436 78.5938 232.073 78.5078 231.727 78.3359C231.383 78.1641 231.121 77.9128 230.941 77.582C230.762 77.2487 230.672 76.8438 230.672 76.3672ZM231.797 76.4258C231.797 76.8372 231.895 77.1523 232.09 77.3711C232.285 77.5898 232.526 77.6992 232.812 77.6992C233.099 77.6992 233.339 77.5898 233.531 77.3711C233.727 77.1523 233.824 76.8346 233.824 76.418C233.824 76.0117 233.727 75.6992 233.531 75.4805C233.339 75.2617 233.099 75.1523 232.812 75.1523C232.526 75.1523 232.285 75.2617 232.09 75.4805C231.895 75.6992 231.797 76.0143 231.797 76.4258ZM236.957 78.5L235.285 74.3516H236.438L237.219 76.4688L237.445 77.1758C237.505 76.9961 237.543 76.8776 237.559 76.8203C237.595 76.7031 237.634 76.5859 237.676 76.4688L238.465 74.3516H239.594L237.945 78.5H236.957ZM242.672 77.1797L243.766 77.3633C243.625 77.7643 243.402 78.0703 243.098 78.2812C242.796 78.4896 242.417 78.5938 241.961 78.5938C241.24 78.5938 240.706 78.3581 240.359 77.8867C240.086 77.5091 239.949 77.0326 239.949 76.457C239.949 75.7695 240.129 75.2318 240.488 74.8438C240.848 74.4531 241.302 74.2578 241.852 74.2578C242.469 74.2578 242.956 74.4622 243.312 74.8711C243.669 75.2773 243.84 75.901 243.824 76.7422H241.074C241.082 77.0677 241.171 77.3216 241.34 77.5039C241.509 77.6836 241.72 77.7734 241.973 77.7734C242.145 77.7734 242.289 77.7266 242.406 77.6328C242.523 77.5391 242.612 77.388 242.672 77.1797ZM242.734 76.0703C242.727 75.7526 242.645 75.5117 242.488 75.3477C242.332 75.181 242.142 75.0977 241.918 75.0977C241.678 75.0977 241.48 75.1849 241.324 75.3594C241.168 75.5339 241.091 75.7708 241.094 76.0703H242.734ZM246.965 78.5V72.7734H250.891V73.7422H248.121V75.0977H250.512V76.0664H248.121V78.5H246.965ZM251.586 76.3672C251.586 76.0026 251.676 75.6497 251.855 75.3086C252.035 74.9674 252.289 74.707 252.617 74.5273C252.948 74.3477 253.316 74.2578 253.723 74.2578C254.35 74.2578 254.865 74.4622 255.266 74.8711C255.667 75.2773 255.867 75.7917 255.867 76.4141C255.867 77.0417 255.664 77.5625 255.258 77.9766C254.854 78.388 254.345 78.5938 253.73 78.5938C253.35 78.5938 252.987 78.5078 252.641 78.3359C252.297 78.1641 252.035 77.9128 251.855 77.582C251.676 77.2487 251.586 76.8438 251.586 76.3672ZM252.711 76.4258C252.711 76.8372 252.809 77.1523 253.004 77.3711C253.199 77.5898 253.44 77.6992 253.727 77.6992C254.013 77.6992 254.253 77.5898 254.445 77.3711C254.641 77.1523 254.738 76.8346 254.738 76.418C254.738 76.0117 254.641 75.6992 254.445 75.4805C254.253 75.2617 254.013 75.1523 253.727 75.1523C253.44 75.1523 253.199 75.2617 253.004 75.4805C252.809 75.6992 252.711 76.0143 252.711 76.4258ZM257.781 78.5H256.684V74.3516H257.703V74.9414C257.878 74.6628 258.034 74.4792 258.172 74.3906C258.312 74.3021 258.471 74.2578 258.648 74.2578C258.898 74.2578 259.139 74.3268 259.371 74.4648L259.031 75.4219C258.846 75.3021 258.674 75.2422 258.516 75.2422C258.362 75.2422 258.232 75.2852 258.125 75.3711C258.018 75.4544 257.934 75.6068 257.871 75.8281C257.811 76.0495 257.781 76.513 257.781 77.2188V78.5ZM259.766 74.3516H260.777V74.918C261.139 74.4779 261.57 74.2578 262.07 74.2578C262.336 74.2578 262.566 74.3125 262.762 74.4219C262.957 74.5312 263.117 74.6966 263.242 74.918C263.424 74.6966 263.621 74.5312 263.832 74.4219C264.043 74.3125 264.268 74.2578 264.508 74.2578C264.812 74.2578 265.07 74.3203 265.281 74.4453C265.492 74.5677 265.65 74.7487 265.754 74.9883C265.829 75.1654 265.867 75.4518 265.867 75.8477V78.5H264.77V76.1289C264.77 75.7174 264.732 75.4518 264.656 75.332C264.555 75.1758 264.398 75.0977 264.188 75.0977C264.034 75.0977 263.889 75.1445 263.754 75.2383C263.618 75.332 263.521 75.4701 263.461 75.6523C263.401 75.832 263.371 76.1172 263.371 76.5078V78.5H262.273V76.2266C262.273 75.8229 262.254 75.5625 262.215 75.4453C262.176 75.3281 262.115 75.2409 262.031 75.1836C261.951 75.1263 261.84 75.0977 261.699 75.0977C261.53 75.0977 261.378 75.1432 261.242 75.2344C261.107 75.3255 261.009 75.457 260.949 75.6289C260.892 75.8008 260.863 76.0859 260.863 76.4844V78.5H259.766V74.3516ZM267.785 75.6172L266.789 75.4375C266.901 75.0365 267.094 74.7396 267.367 74.5469C267.641 74.3542 268.047 74.2578 268.586 74.2578C269.076 74.2578 269.44 74.3164 269.68 74.4336C269.919 74.5482 270.087 74.6953 270.184 74.875C270.283 75.0521 270.332 75.3789 270.332 75.8555L270.32 77.1367C270.32 77.5013 270.337 77.7708 270.371 77.9453C270.408 78.1172 270.474 78.3021 270.57 78.5H269.484C269.456 78.4271 269.421 78.319 269.379 78.1758C269.361 78.1107 269.348 78.0677 269.34 78.0469C269.152 78.2292 268.952 78.3659 268.738 78.457C268.525 78.5482 268.297 78.5938 268.055 78.5938C267.628 78.5938 267.29 78.4779 267.043 78.2461C266.798 78.0143 266.676 77.7214 266.676 77.3672C266.676 77.1328 266.732 76.9245 266.844 76.7422C266.956 76.5573 267.112 76.4167 267.312 76.3203C267.516 76.2214 267.807 76.1354 268.188 76.0625C268.701 75.9661 269.056 75.8763 269.254 75.793V75.6836C269.254 75.4727 269.202 75.3229 269.098 75.2344C268.993 75.1432 268.797 75.0977 268.508 75.0977C268.312 75.0977 268.16 75.1367 268.051 75.2148C267.941 75.2904 267.853 75.4245 267.785 75.6172ZM269.254 76.5078C269.113 76.5547 268.891 76.6107 268.586 76.6758C268.281 76.7409 268.082 76.8047 267.988 76.8672C267.845 76.9688 267.773 77.0977 267.773 77.2539C267.773 77.4076 267.831 77.5404 267.945 77.6523C268.06 77.7643 268.206 77.8203 268.383 77.8203C268.581 77.8203 268.77 77.7552 268.949 77.625C269.082 77.526 269.169 77.4049 269.211 77.2617C269.24 77.168 269.254 76.9896 269.254 76.7266V76.5078ZM273.32 74.3516V75.2266H272.57V76.8984C272.57 77.237 272.577 77.4349 272.59 77.4922C272.605 77.5469 272.638 77.5924 272.688 77.6289C272.74 77.6654 272.802 77.6836 272.875 77.6836C272.977 77.6836 273.124 77.6484 273.316 77.5781L273.41 78.4297C273.155 78.5391 272.866 78.5938 272.543 78.5938C272.345 78.5938 272.167 78.5612 272.008 78.4961C271.849 78.4284 271.732 78.3424 271.656 78.2383C271.583 78.1315 271.533 77.9883 271.504 77.8086C271.48 77.681 271.469 77.4232 271.469 77.0352V75.2266H270.965V74.3516H271.469V73.5273L272.57 72.8867V74.3516H273.32Z" fill="#4D4D87"/>
</svg>
