<svg width="250" height="140" viewBox="0 0 250 140" fill="none" xmlns="http://www.w3.org/2000/svg">
<g clip-path="url(#clip0_5600_1561)">
<rect width="250" height="140" fill="#3E416D"/>
<path fill-rule="evenodd" clip-rule="evenodd" d="M90.8112 44.1556H90.2527C86.6126 44.14 83.1465 42.5955 80.701 39.8992C76.9474 35.7769 75.9084 29.5879 76.1598 25.5438L79.5112 25.7505C79.2822 29.4147 80.3323 34.5089 83.1867 37.6481C85.0329 39.6605 87.639 40.8055 90.37 40.8041C95.0285 40.9605 98.5754 39.2904 100.475 37.5029C103.502 34.6486 105.602 29.9175 105.714 26.0521C105.887 19.5894 105.362 1.75406 105.362 1.63117L108.714 1.59207C108.714 1.71496 108.853 19.5782 108.669 26.1024C108.54 30.8894 106.161 36.0227 102.458 39.5082C99.33 42.5167 95.1508 44.1844 90.8112 44.1556Z" fill="#2F3152"/>
<path fill-rule="evenodd" clip-rule="evenodd" d="M70.4177 44.9599C70.0006 44.9599 69.5761 44.9487 69.1441 44.9264C62.3351 44.5521 58.2184 41.2621 55.9561 38.5698C52.8451 34.8752 51.371 30.0739 51.8729 25.2701L55.783 25.7337C55.3305 29.4259 56.012 33.3862 58.5759 36.4137C60.408 38.6033 63.8209 40.8823 69.429 41.1616C77.1429 41.5917 85.9126 37.3018 87.0856 26.0074C87.2253 24.6389 87.1415 22.8347 85.9294 21.9857C85.0133 21.3377 83.5498 21.3433 82.1981 21.9857C80.6762 22.6357 79.6381 24.0735 79.5001 25.7226L76.1487 25.5159C76.2535 22.6411 77.9174 20.0522 80.4888 18.7627C82.9521 17.5785 86.3539 17.5171 88.2754 18.8688C89.4205 19.6732 90.8225 22.0583 90.3812 26.3649C89.3869 35.7769 82.2483 44.9543 70.4177 44.9599Z" fill="#2F3152"/>
<path fill-rule="evenodd" clip-rule="evenodd" d="M43.8015 44.7421C38.657 44.7421 34.3783 43.1557 31.3788 40.1338C28.5859 37.3409 26.6699 33.4309 26.8543 29.1522L30.714 29.3421C30.5688 32.6936 31.6189 35.6205 33.7583 37.771C36.2663 40.2958 40.1261 41.1225 44.7287 40.9549C55.4199 40.5583 61.5307 33.5426 62.1451 26.3984C62.4021 23.3709 61.0001 22.6113 59.464 22.4493C57.7436 22.2706 56.1125 22.9073 55.7606 25.7337L51.8506 25.2701C52.4427 20.444 56.146 18.2767 59.4919 18.6175C63.8265 19.0699 65.7759 23.019 65.4575 26.6833C64.987 31.2975 62.8714 35.5882 59.4975 38.7709C55.6377 42.4798 50.5379 44.5131 44.7455 44.7141L43.8015 44.7421Z" fill="#2F3152"/>
<path fill-rule="evenodd" clip-rule="evenodd" d="M42.0755 85.7136L37.9587 85.6409C37.9587 85.1717 40.0255 51.6125 39.5619 29.3644C39.4837 25.5885 37.3276 23.5608 35.0597 23.5106C33.1997 23.5106 30.9095 24.974 30.714 29.3421L26.8542 29.1522C27.1335 22.8012 31.4625 20.0809 35.1324 20.1368C38.9027 20.2206 42.9133 23.4882 42.9133 29.3421C42.9133 38.5698 42.0755 85.2444 42.0755 85.7136Z" fill="#2F3152"/>
<path fill-rule="evenodd" clip-rule="evenodd" d="M127.258 25.4545V-1.91578L131.448 -2.20624L131.168 26.0019" fill="#2F3152"/>
<path fill-rule="evenodd" clip-rule="evenodd" d="M216.737 36.7768L217.077 44.9152H220.719C220.327 42.0199 220.299 39.087 220.635 36.1847L216.737 36.7768Z" fill="#2F3152"/>
<path fill-rule="evenodd" clip-rule="evenodd" d="M208.218 147.246C208.218 147.246 205.548 139.616 195.371 135.93C187.691 133.137 183.166 130.847 183.166 119.787C183.166 111.408 182.915 76.9496 183.043 71.3582C183.172 65.7669 186.601 63.7281 189.908 62.2031C194.104 60.3339 198.392 58.6784 202.755 57.243C210.017 54.897 211.402 49.9815 211.402 47.0713C211.402 47.0713 225.299 43.2171 225.981 47.116C226.662 51.0149 228.522 54.3775 232.421 56.4386C236.32 58.4998 242.42 61.1865 245.827 62.879C249.234 64.5715 254.815 67.2862 255.15 73.8997C255.485 80.5133 256.926 113.251 256.166 120.675C255.15 130.673 249.659 136.03 242.437 136.946C231.762 138.304 226.165 147.794 226.165 147.794" fill="#646AA1"/>
<path fill-rule="evenodd" clip-rule="evenodd" d="M229.517 47.9371C229.517 49.3559 229.746 50.7859 227.998 50.9534C226.249 51.121 212.559 51.283 210.888 51.283C209.218 51.283 208.833 50.5233 208.693 49.1995C208.554 47.8757 208.47 45.1107 208.47 44.2785C208.47 43.4462 208.47 41.6085 210.145 41.5247C211.821 41.4409 226.406 41.4409 227.523 41.4409C228.64 41.4409 229.148 41.8766 229.36 43.3624C229.498 44.8832 229.55 46.4105 229.517 47.9371Z" fill="#4D4D87"/>
<path fill-rule="evenodd" clip-rule="evenodd" d="M258.177 84.0435C258.177 85.4623 258.406 86.8922 256.658 87.0542C254.91 87.2162 183.825 87.6128 182.155 87.6128C180.485 87.6128 180.099 86.8531 179.96 85.5237C179.82 84.1943 179.736 81.4405 179.736 80.6027C179.736 79.7648 179.736 77.9382 181.412 77.8545C183.088 77.7707 255.077 77.5305 256.161 77.5305C257.244 77.5305 257.786 77.9662 257.993 79.452C258.142 80.9777 258.204 82.5107 258.177 84.0435Z" fill="#4D4D87"/>
<path fill-rule="evenodd" clip-rule="evenodd" d="M180.334 110.972C180.334 109.448 180.53 108.235 181.898 108.235H256.876C258.183 108.235 258.635 108.844 258.552 109.833C258.468 110.822 258.485 114.391 258.485 115.458C258.485 116.525 258.289 117.888 257.312 117.737C256.334 117.586 183.831 117.206 182.658 117.128C181.485 117.05 180.267 117.178 180.267 115.888C180.267 114.598 180.334 112.14 180.334 110.972Z" fill="#4D4D87"/>
<path fill-rule="evenodd" clip-rule="evenodd" d="M226.406 34.7715C231.433 30.5654 232.958 23.734 229.316 18.8968C226.584 15.266 218.954 10.1662 211.637 17.3495C204.319 24.5328 207.514 32.5093 210.911 35.3692C214.307 38.2291 220.775 39.4971 226.406 34.7715Z" fill="#4D4D87"/>
<path fill-rule="evenodd" clip-rule="evenodd" d="M224.73 32.7941C228.64 29.5041 229.858 24.1585 227.009 20.3714C224.875 17.5338 218.904 13.5456 213.184 19.1649C207.464 24.7842 209.955 31.0234 212.625 33.2633C215.295 35.5032 220.328 36.4863 224.73 32.7941Z" fill="#646AA1"/>
<path fill-rule="evenodd" clip-rule="evenodd" d="M218.619 27.4541C220.027 27.7111 221.412 26.5772 220.736 24.9517C220.06 23.3262 218.775 23.1307 217.748 24.2311C217.223 24.703 217.009 25.4295 217.193 26.1104C217.377 26.7912 217.928 27.3107 218.619 27.4541Z" fill="#2F3152"/>
<path fill-rule="evenodd" clip-rule="evenodd" d="M219.083 24.4602C219.083 24.4602 224.372 22.0583 225.227 21.779C226.081 21.4997 226.674 21.8796 225.512 22.6281C224.35 23.3765 219.703 26.1638 219.703 26.1638L219.083 24.4602Z" fill="#2F3152"/>
<path fill-rule="evenodd" clip-rule="evenodd" d="M73.4229 80.7479C73.4229 80.7479 73.2665 112.073 73.8865 130.126H76.6794C76.6794 130.126 75.9085 91.7015 76.0649 80.4127L73.4229 80.7479Z" fill="#2F3152"/>
<path fill-rule="evenodd" clip-rule="evenodd" d="M34.8754 80.5524C34.8754 80.5524 34.652 108.716 34.8028 114.268C34.9201 118.709 36.998 121.485 40.4779 121.563C43.9578 121.641 45.924 118.86 45.9575 114.771C46.0302 104.124 46.2257 80.4742 46.2257 80.4742" fill="#646AA1"/>
<path fill-rule="evenodd" clip-rule="evenodd" d="M57.6764 80.2061C57.6764 80.2061 57.4921 108.392 57.6038 113.922C57.6764 117.513 59.0952 121.25 62.5696 121.328C66.0439 121.407 68.3843 118.631 68.6692 115.095C68.9541 111.559 69.0267 80.1446 69.0267 80.1446" fill="#646AA1"/>
<path fill-rule="evenodd" clip-rule="evenodd" d="M33.1774 75.7207C31.876 75.7877 30.541 73.1289 32.9149 72.9278C35.2889 72.7267 44.7791 72.8161 46.9799 72.7547C49.1807 72.6932 49.1471 75.7877 46.762 75.6313C44.3769 75.4749 33.1774 75.7207 33.1774 75.7207Z" fill="#646AA1"/>
<path fill-rule="evenodd" clip-rule="evenodd" d="M56.2354 75.6034C54.3866 75.6704 53.6325 73.3691 55.8891 73.1848C58.1458 73.0004 68.2728 73.0116 70.0099 73.0116C71.7471 73.0116 72.1884 75.2459 69.4514 75.3465C66.1334 75.4358 56.2354 75.6034 56.2354 75.6034Z" fill="#646AA1"/>
<path fill-rule="evenodd" clip-rule="evenodd" d="M10.5606 80.167C10.5606 80.167 10.3819 108.33 10.488 113.883C10.5606 117.474 11.9794 121.217 15.4538 121.289C18.9281 121.362 21.2741 118.591 21.559 115.044C21.8439 111.498 21.9109 80.0888 21.9109 80.0888" fill="#646AA1"/>
<path fill-rule="evenodd" clip-rule="evenodd" d="M9.06357 75.8547C7.21468 75.9218 6.4606 73.6204 8.71725 73.4361C10.9739 73.2518 21.1009 73.2629 22.8381 73.2629C24.5752 73.2629 25.0165 75.4973 22.2795 75.5978C18.9615 75.6928 9.06357 75.8547 9.06357 75.8547Z" fill="#646AA1"/>
<path fill-rule="evenodd" clip-rule="evenodd" d="M9.11935 75.5642C9.11935 75.5642 50.454 75.3464 69.4456 75.3464H78.0533C79.2486 75.3464 79.5559 76.0781 79.6341 77.5807C79.7123 79.0833 79.8631 81.6304 78.1706 81.7477C76.4781 81.865 1.16522 81.865 -0.41555 81.8259C-1.99632 81.7868 -2.73364 81.3232 -2.73364 78.4297C-2.73364 75.5363 -1.80641 75.5642 9.11935 75.5642Z" fill="#4D4D87"/>
<path fill-rule="evenodd" clip-rule="evenodd" d="M80.0587 136.103C80.0587 137.695 80.3156 139.303 78.3494 139.488C76.3832 139.672 1.74625 140.046 -0.130563 140.046C-2.00738 140.046 -2.44865 139.186 -2.60506 137.695C-2.76704 136.114 -2.85083 133.103 -2.85083 132.165C-2.85083 131.226 -2.85083 129.165 -0.974013 129.07C0.902804 128.975 76.5676 128.819 77.7853 128.819C79.003 128.819 79.6118 129.305 79.8464 130.975C80.0116 132.679 80.0824 134.391 80.0587 136.103Z" fill="#4D4D87"/>
<path fill-rule="evenodd" clip-rule="evenodd" d="M137.033 30.0124C137.033 30.0124 137.073 30.2694 137.073 35.5982C137.073 40.927 138.05 44.1165 140.703 49.4229C143.357 54.7294 152.992 75.3967 155.645 80.5636C158.298 85.7304 157.131 91.0369 147.172 91.4558C141.586 91.6904 113.143 91.2715 106.63 91.2715C97.6929 91.2715 100.436 82.7085 102.485 78.4242C104.535 74.1399 114.774 52.7297 117.008 47.8869C119.243 43.044 120.734 37.4638 120.734 33.3639C120.734 29.2639 120.93 30.3643 120.93 30.3643" fill="#646AA1"/>
<path fill-rule="evenodd" clip-rule="evenodd" d="M145.233 89.0595C150.143 88.8863 155.26 87.1994 152.54 81.4852C149.819 75.7709 147.557 71.0566 147.088 69.9897C146.619 68.9228 138.341 71.6654 130.548 71.5872C121.315 71.5202 117.958 69.783 113.612 69.6601C112.255 69.6102 110.896 69.6982 109.557 69.9227C109.557 69.9227 106.569 76.5697 105.088 80.1558C103.608 83.7418 102.402 88.5903 109.624 88.8416C116.846 89.093 139.452 89.255 145.233 89.0595Z" fill="#4D4D87"/>
<path fill-rule="evenodd" clip-rule="evenodd" d="M129.146 106.096C128.09 113.302 130.889 118.664 127.191 130.115C126.225 133.103 123.84 131.584 125.024 128.998C128.375 121.68 125.862 110.358 127.118 104.772C127.66 102.359 129.632 102.745 129.146 106.096Z" fill="#2F3152"/>
<path fill-rule="evenodd" clip-rule="evenodd" d="M139.502 118.53C139.502 119.966 139.737 121.412 137.961 121.585C136.184 121.759 122.321 121.921 120.611 121.921C118.902 121.921 118.522 121.15 118.377 119.804C118.232 118.457 118.154 115.664 118.154 114.815C118.154 113.966 118.154 112.106 119.829 112.023C121.505 111.939 136.335 111.939 137.436 111.939C138.536 111.939 139.083 112.38 139.296 113.883C139.452 115.427 139.521 116.978 139.502 118.53Z" fill="#4D4D87"/>
<path fill-rule="evenodd" clip-rule="evenodd" d="M150.372 131.355C150.372 134.282 150.847 137.231 147.227 137.577C143.608 137.924 115.349 138.264 111.903 138.264C108.457 138.264 107.652 136.695 107.362 133.952C107.055 131.048 106.904 125.518 106.904 123.797C106.904 122.077 106.904 118.284 110.35 118.111C113.797 117.938 143.954 117.938 146.194 117.938C148.434 117.938 149.546 118.832 149.987 121.904C150.439 125.149 150.372 131.355 150.372 131.355Z" fill="#4D4D87"/>
<path fill-rule="evenodd" clip-rule="evenodd" d="M127.588 94.7178C127.934 99.1864 123.678 101.421 123.348 105.431C123.175 107.571 125.231 109.626 127.549 109.799C129.867 109.973 132.514 107.565 132.944 105.001C133.375 102.437 132.302 98.2313 127.588 94.7178Z" fill="#646AA1"/>
<path fill-rule="evenodd" clip-rule="evenodd" d="M165.387 141.432C165.387 141.432 165.04 23.0917 165.04 17.2043C165.04 11.3169 171.274 11.3113 171.62 17.9025C171.967 24.4937 171.274 142.822 171.274 142.822L165.387 141.432Z" fill="#646AA1"/>
<path fill-rule="evenodd" clip-rule="evenodd" d="M131.637 31.7552C131.637 31.7552 172.106 32.0345 180.63 31.2916C183.289 31.0625 187.216 36.3746 176.128 36.3746C165.04 36.3746 130.369 36.2573 130.369 36.2573" fill="#646AA1"/>
<path fill-rule="evenodd" clip-rule="evenodd" d="M116.796 32.2746C116.796 30.5375 117.02 29.1578 118.584 29.1578H139.134C140.619 29.1578 141.139 29.8504 141.066 30.9731C140.994 32.0959 140.988 36.1735 140.988 37.3856C140.988 38.5977 140.765 40.1785 139.653 39.983C138.542 39.7875 120.835 39.3797 119.472 39.2903C118.109 39.201 116.746 39.3518 116.746 37.8771C116.746 36.4025 116.796 33.604 116.796 32.2746Z" fill="#4D4D87"/>
<path fill-rule="evenodd" clip-rule="evenodd" d="M168.699 26.0074C164.264 25.6276 160.225 28.1747 159.65 32.2579C159.214 35.3189 160.432 41.452 167.42 41.5191C174.408 41.5861 176.692 36.2014 176.458 33.1851C176.223 30.1688 173.681 26.4431 168.699 26.0074Z" fill="#2F3152"/>
<path fill-rule="evenodd" clip-rule="evenodd" d="M170.732 30.3867C168.799 28.8785 166.174 28.845 164.683 30.5543C163.566 31.839 162.286 35.0229 165.493 37.1566C168.699 39.2904 170.944 37.4359 171.732 35.9725C172.519 34.509 172.905 32.0792 170.732 30.3867Z" fill="#646AA1"/>
<path fill-rule="evenodd" clip-rule="evenodd" d="M118.601 29.1578C115.741 29.1578 113.573 25.8566 117.668 25.4489C121.762 25.0411 135.738 24.9182 138.603 24.8903C141.469 24.8623 143.144 29.0908 139.162 29.1857C135.179 29.2807 118.601 29.1578 118.601 29.1578Z" fill="#646AA1"/>
<path fill-rule="evenodd" clip-rule="evenodd" d="M164.253 73.721C164.253 73.721 163.99 107.705 164.169 114.408C164.308 119.759 166.816 123.11 171.011 123.205C175.206 123.3 177.586 119.943 177.625 115.011C177.714 102.164 177.949 73.6317 177.949 73.6317" fill="#D9E8FB"/>
<path fill-rule="evenodd" clip-rule="evenodd" d="M191.774 73.3021C191.774 73.3021 191.556 107.286 191.69 113.989C191.774 118.318 193.483 122.831 197.678 122.926C201.873 123.021 204.699 119.664 205.04 115.385C205.381 111.106 205.47 73.2127 205.47 73.2127" fill="#D9E8FB"/>
<path fill-rule="evenodd" clip-rule="evenodd" d="M78.4722 41.5917L78.7627 52.3611C78.8189 54.512 80.0925 56.444 82.0471 57.3436C88.13 60.1364 100.799 68.0403 100.67 85.2724C100.53 103.029 85.3483 116.262 71.5962 116.089C53.4815 115.86 39.5618 106.688 40.26 84.0547C40.8186 65.8674 54.8668 58.9187 60.3688 56.8967C61.6882 56.4163 62.5922 55.1933 62.6645 53.791L63.2231 41.7481L78.4722 41.5917Z" fill="#D9E8FB"/>
<path fill-rule="evenodd" clip-rule="evenodd" d="M78.4723 41.5917L63.2399 41.7202L63.1282 44.0718L78.5784 45.5688L78.4723 41.5917Z" fill="#BFDAF9"/>
<path fill-rule="evenodd" clip-rule="evenodd" d="M43.2374 91.3106C43.0139 88.5568 59.4696 93.2265 67.3958 93.0924L65.2955 96.3433L46.2648 94.7849L43.2374 91.3106Z" fill="#FFAB00"/>
<path fill-rule="evenodd" clip-rule="evenodd" d="M69.1553 93.5002C77.5339 94.109 86.2198 90.9922 96.9221 92.4165L96.8774 93.2041L85.6109 96.5556L69.1553 93.5002Z" fill="#FFAB00"/>
<path fill-rule="evenodd" clip-rule="evenodd" d="M68.6134 113.614C49.2364 112.497 44.2316 97.5387 43.2373 91.3106C43.2373 91.3106 45.9464 93.4778 50.7334 93.7459C55.5204 94.0141 63.5807 90.6794 71.775 90.59C79.9693 90.5006 85.4992 94.0196 96.8774 93.2041C96.8774 93.2041 90.828 114.877 68.6134 113.614Z" fill="#FFD011"/>
<path fill-rule="evenodd" clip-rule="evenodd" d="M112.964 144.939C112.964 144.939 112.618 26.6051 112.618 20.7121C112.618 14.8191 118.852 14.8191 119.198 21.4048C119.545 27.9904 118.852 146.33 118.852 146.33L112.964 144.939Z" fill="#BFDAF9"/>
<path fill-rule="evenodd" clip-rule="evenodd" d="M79.2152 35.263C79.2152 35.263 119.684 35.5423 128.208 34.805C130.867 34.5704 134.794 39.8824 123.706 39.8824C112.618 39.8824 77.9417 39.7707 77.9417 39.7707" fill="#BFDAF9"/>
<path fill-rule="evenodd" clip-rule="evenodd" d="M60.7375 35.7769C60.7375 34.0453 60.961 32.6601 62.5194 32.6601H79.5392C81.025 32.6601 81.5501 33.3527 81.4719 34.481C81.3937 35.6093 81.3993 39.6758 81.3993 40.8879C81.3993 42.1 81.1758 43.6808 80.0587 43.4909C78.9415 43.3009 64.7481 42.882 63.4131 42.7982C62.0781 42.7144 60.6873 42.8541 60.6873 41.3794C60.6873 39.9048 60.7375 37.1119 60.7375 35.7769Z" fill="#96BCEF"/>
<path fill-rule="evenodd" clip-rule="evenodd" d="M190.97 69.8947C190.97 69.8947 108.418 69.2021 105.066 69.0848C101.715 68.9675 99.8715 73.2462 104.374 73.4752C108.876 73.7042 190.277 74.3969 190.277 74.3969" fill="#BFDAF9"/>
<path fill-rule="evenodd" clip-rule="evenodd" d="M188.769 70.5874C188.769 69.2524 188.372 67.9118 190.026 67.7554C191.679 67.599 204.392 67.437 205.967 67.437C207.542 67.437 208.174 68.934 208.174 70.1964C208.174 71.4588 208.252 73.2686 208.252 74.0562C208.252 74.8438 208.252 76.5753 206.677 76.6535C205.102 76.7317 191.523 76.7317 190.478 76.7317C189.433 76.7317 188.746 76.3352 188.746 74.922L188.769 70.5874Z" fill="#96BCEF"/>
<path fill-rule="evenodd" clip-rule="evenodd" d="M116.277 29.5209C111.842 29.1355 107.803 31.6826 107.228 35.7658C106.792 38.8323 108.01 44.9655 114.998 45.0269C121.985 45.0884 124.287 39.687 124.03 36.6986C123.773 33.7102 121.259 29.951 116.277 29.5209Z" fill="#96BCEF"/>
<path fill-rule="evenodd" clip-rule="evenodd" d="M118.31 33.9001C116.377 32.3919 113.752 32.3528 112.261 34.0677C111.143 35.3468 109.864 38.5363 113.07 40.67C116.277 42.8038 118.522 40.9493 119.31 39.4803C120.097 38.0112 120.483 35.5926 118.31 33.9001Z" fill="#BFDAF9"/>
<path fill-rule="evenodd" clip-rule="evenodd" d="M107.663 69.7328C106.083 74.9331 111.836 80.1949 118.276 77.9662C123.304 76.2178 125.175 68.8111 120.282 65.5881C115.389 62.3651 109.105 65.0128 107.663 69.7328Z" fill="#4D4D87"/>
<path fill-rule="evenodd" clip-rule="evenodd" d="M111.026 70.7885C110.144 73.6875 113.355 76.6256 116.953 75.3799C119.779 74.408 120.807 70.269 118.07 68.4704C115.333 66.6717 111.825 68.1743 111.026 70.7885Z" fill="#4D4D87"/>
<path fill-rule="evenodd" clip-rule="evenodd" d="M180.714 73.6651C180.714 75.0057 180.932 76.3519 179.278 76.5083C177.625 76.6647 164.699 76.8211 163.124 76.8211C161.549 76.8211 161.186 76.1061 161.052 74.8772C160.918 73.6484 160.845 71.0175 160.845 70.2299C160.845 69.4423 160.845 67.7107 162.42 67.6325C163.996 67.5543 177.781 67.5543 178.803 67.5543C179.826 67.5543 180.334 67.9621 180.535 69.3641C180.674 70.7933 180.734 72.2292 180.714 73.6651Z" fill="#96BCEF"/>
<path fill-rule="evenodd" clip-rule="evenodd" d="M64.7928 62.1194C63.2847 60.0582 57.0454 61.1586 52.8784 64.4654C48.7114 67.7721 46.5888 73.1233 48.6276 75.2962C49.9403 76.6982 55.9952 73.4529 59.531 70.4645C63.0668 67.4761 66.2898 64.1582 64.7928 62.1194Z" fill="#F0F5FD"/>
<path fill-rule="evenodd" clip-rule="evenodd" d="M62.5194 32.6657C61.6835 32.7197 60.8445 32.7028 60.0114 32.6154C58.1179 32.4813 57.1683 28.549 60.6873 28.4149C64.2063 28.2808 74.8416 28.2138 80.6006 28.0742C83.5163 28.0071 83.8347 32.7159 79.5393 32.6657C75.2438 32.6154 62.5194 32.6657 62.5194 32.6657Z" fill="#D9E8FB"/>
<path fill-rule="evenodd" clip-rule="evenodd" d="M162.421 67.6158C160.845 67.6996 159.237 64.4878 162.102 64.2643C164.968 64.0409 176.413 64.1247 179.066 64.0521C181.719 63.9795 181.68 67.7052 178.804 67.5208C175.927 67.3365 162.421 67.6158 162.421 67.6158Z" fill="#D9E8FB"/>
<path fill-rule="evenodd" clip-rule="evenodd" d="M190.025 67.7554C187.791 67.8336 186.886 65.0408 189.612 64.8341C192.338 64.6274 204.554 64.6218 206.649 64.6218C208.743 64.6218 209.274 67.3421 205.967 67.4147C201.968 67.5544 190.025 67.7554 190.025 67.7554Z" fill="#D9E8FB"/>
<path fill-rule="evenodd" clip-rule="evenodd" d="M166.007 96.9186C166.007 100.957 166.23 112.307 166.23 114.491C166.23 116.675 168.956 118.2 168.956 115.257C168.956 112.313 168.626 98.7731 168.52 96.8237C168.414 94.8743 166.007 94.4274 166.007 96.9186Z" fill="#F0F5FD"/>
<path fill-rule="evenodd" clip-rule="evenodd" d="M193.634 97.0918C193.634 101.13 193.773 112.687 193.773 114.871C193.773 117.055 196.823 119.094 196.84 115.581C196.84 112.637 196.583 98.6391 196.477 96.6729C196.371 94.7067 193.634 94.5782 193.634 97.0918Z" fill="#F0F5FD"/>
<path fill-rule="evenodd" clip-rule="evenodd" d="M159.108 53.1431C161.287 50.6016 169.207 46.4402 173.883 46.9987C177.273 47.3618 179.334 48.9314 180.424 48.088C181.513 47.2445 177.759 39.458 166.638 30.2582C155.517 21.0585 147.479 17.2992 145.412 19.5782C143.831 21.3433 145.619 25.164 146.529 26.8397C146.822 27.3644 146.805 28.0071 146.485 28.5155C144.976 30.9508 140.625 38.0112 139.223 40.1785C137.29 43.2172 136.067 44.4963 133.447 46.3229C126.409 51.2886 98.8156 66.2864 91.5262 69.5987C84.2368 72.9111 80.0642 77.3294 82.1421 86.9816C86.4208 106.85 105.787 120.91 125.186 122.58C138.033 123.697 140.916 118.575 142.016 111.542C143.116 104.51 148.211 81.6696 150.434 71.1181C151.551 65.873 154.98 58.0697 159.086 53.1151" fill="#F9FAFE"/>
<path fill-rule="evenodd" clip-rule="evenodd" d="M164.806 31.0235C157.639 25.164 150.506 20.6898 149.054 22.0862C147.602 23.4827 153.126 29.6605 160.784 35.5368C168.442 41.413 177.055 46.105 178.1 45.4403C179.144 44.7756 172.436 37.2628 164.806 31.0235Z" fill="#BFDAF9"/>
<path fill-rule="evenodd" clip-rule="evenodd" d="M149.937 66.3366C149.965 65.8339 147.596 64.9793 145.284 65.0742C141.524 65.2306 136.631 67.4984 131.241 67.3532C125.421 67.1912 122.7 63.8062 118.813 61.8456C114.925 59.885 109.769 61.0134 108.725 62.4042L105.58 71.9L146.418 74.436L149.937 66.3366Z" fill="#1E96FF"/>
<path fill-rule="evenodd" clip-rule="evenodd" d="M108.725 62.3875C102.402 66.035 94.66 70.2522 90.6717 72.5647C86.6835 74.8772 84.5274 77.7204 84.6447 84.211C85.0469 103.286 110.457 119.63 126.113 120.055C133.542 120.256 138.676 119.049 139.771 111.721C141.173 102.281 145.597 78.2901 149.965 66.3366C149.909 67.1633 147.172 68.1073 144.552 67.8224C139.24 67.2639 137.659 63.2086 132.537 63.27C128.549 63.3203 124.125 67.4147 117.606 67.4147C112.11 67.4147 108.278 64.376 108.725 62.3875Z" fill="#43CBFF"/>
<path opacity="0.5" fill-rule="evenodd" clip-rule="evenodd" d="M93.1628 99.583C90.3699 95.5557 87.2307 89.6907 87.0576 83.7027C86.9626 80.3513 87.7279 76.849 91.6267 74.9443C93.861 73.8662 98.4302 71.3023 101.972 69.2915C104.653 67.7721 104.653 68.3698 102.139 70.6544C99.5006 72.987 96.9872 75.4575 94.6095 78.0555C92.2412 80.8484 91.6937 83.3229 92.0736 87.4508C92.5377 91.4069 93.4889 95.2905 94.9056 99.0133C96.1624 102.454 95.3748 102.806 93.1628 99.583Z" fill="#B1E9FF"/>
<path fill-rule="evenodd" clip-rule="evenodd" d="M116.958 91.8971C116.891 90.2309 118.165 88.8154 119.829 88.7076C120.781 88.6747 121.707 89.0156 122.41 89.6572C124.577 91.5898 122.594 93.8968 121.421 94.2598C120.248 94.6229 117.148 94.8631 116.958 91.8971Z" fill="#F9FAFE"/>
<path fill-rule="evenodd" clip-rule="evenodd" d="M117.427 101.778C121.226 106.722 125.108 109.341 127.85 108.001C129.554 107.174 130.057 104.348 130.09 101.371C130.124 97.6225 129.23 93.2488 126.772 88.2216C124.951 84.468 123.169 81.0551 120.935 78.7258C117.751 75.4135 114.104 74.0617 111.836 75.1677C109.568 76.2737 109.138 79.91 109.819 84.5239C110.304 88.1439 111.349 91.6662 112.92 94.9636C114.188 97.3817 115.698 99.6649 117.427 101.778ZM128.123 101.161C128.286 103.522 128.476 106.276 127.459 106.772C125.337 107.833 121.186 103.443 118.081 99.2926C116.675 97.5149 115.439 95.6092 114.389 93.6007C113.083 90.8657 112.183 87.9546 111.719 84.9595C111.076 81.1668 110.663 77.9997 112.422 77.1395C113.159 76.782 113.986 76.6536 114.796 76.7708C116.36 77.106 118.611 78.6141 120.315 80.4574C122.125 82.418 123.6 85.2612 125.113 88.3724C127.158 92.5673 127.962 96.1646 128.018 99.2367C128.029 99.798 128.075 100.462 128.123 101.161Z" fill="#F9FAFE"/>
<path fill-rule="evenodd" clip-rule="evenodd" d="M111.183 85.2333C105.463 86.585 101.687 88.9925 101.737 92.0423C101.771 93.9359 103.983 95.5893 106.524 96.8851C109.702 98.5106 113.78 99.544 119.053 99.449C122.963 99.382 126.583 99.22 129.454 98.181C133.542 96.7008 136.078 94.5168 136.034 91.992C135.989 89.4673 133.643 86.585 129.442 85.25C126.555 84.3339 122.645 83.9709 118.785 84.0379C116.215 84.1648 113.667 84.5655 111.183 85.2333ZM107.87 94.9943C105.787 94.1126 103.335 93.0743 103.335 91.9082C103.29 89.4784 108.641 87.5234 113.395 86.4509C115.457 85.9189 117.568 85.5988 119.695 85.4958C122.538 85.4772 125.366 85.9089 128.074 86.7749C131.559 87.8306 133.989 89.3667 134.023 91.372C134.056 93.3773 131.9 95.5502 128.51 96.7287C126.13 97.5554 123.136 97.6895 119.891 97.7509C115.523 97.8236 112.149 97.008 109.512 95.7177C109.041 95.4901 108.471 95.2487 107.87 94.9943Z" fill="#F9FAFE"/>
<path fill-rule="evenodd" clip-rule="evenodd" d="M109.892 94.2766C107.457 100.32 107.099 105.152 109.663 106.828C111.221 107.833 113.964 106.716 116.595 105.119C119.913 103.085 123.303 99.8959 126.504 94.9692C128.878 91.3106 130.989 87.8697 131.911 84.6356C133.229 80.0217 132.213 76.7988 130.096 75.4247C127.979 74.0506 124.929 74.9666 121.214 78.1058C118.26 80.5328 115.685 83.3868 113.573 86.5738C112.104 89.0186 110.871 91.5979 109.892 94.2766ZM115.747 103.181C113.751 104.575 111.428 106.198 110.456 105.565H110.428C108.389 104.242 110.054 98.2649 112.126 93.3326C112.952 91.1469 113.981 89.0431 115.198 87.0486C116.922 84.4442 119.014 82.1036 121.41 80.1C124.398 77.5137 127.197 76.1676 128.867 77.2512C130.537 78.3349 131.04 81.5243 129.922 85.2835C129.129 87.92 127.398 90.7297 125.454 93.7236C122.834 97.7565 120.086 100.382 117.405 102.058C116.911 102.367 116.344 102.764 115.747 103.181Z" fill="#F9FAFE"/>
<path fill-rule="evenodd" clip-rule="evenodd" d="M158.572 37.7543C156.5 36.207 154.79 35.682 157.706 38.7262C161.064 42.2526 164.954 45.2307 169.235 47.5517C170.739 47.0609 172.321 46.8563 173.899 46.9484C174.395 47.0018 174.887 47.082 175.374 47.1886C170.9 45.8927 163.934 41.7649 158.572 37.7543Z" fill="#D9E8FB"/>
<path fill-rule="evenodd" clip-rule="evenodd" d="M78.7515 92.5785C78.7515 92.5785 74.1767 87.7245 72.9088 81.0216C72.6853 79.8485 73.3445 79.1168 74.5845 78.9101C75.8245 78.7035 76.8691 78.8543 77.0422 80.2228C77.3271 82.5185 78.2823 86.5682 80.9858 91.8635C81.1516 92.3717 80.8883 92.9205 80.3881 93.1091C79.7854 93.325 79.1129 93.107 78.7515 92.5785Z" fill="#4D4D87"/>
<path fill-rule="evenodd" clip-rule="evenodd" d="M75.0314 94.4274C73.1155 93.8074 69.1161 90.886 67.4292 88.1043C66.8706 87.2106 67.6582 86.6967 68.1609 86.2889C68.6637 85.8812 69.4848 85.2164 69.926 86.0152C71.7135 89.3164 74.2773 92.0311 76.0704 93.165C76.8691 93.7236 76.1486 94.8184 75.0314 94.4274Z" fill="#4D4D87"/>
</g>
<defs>
<clipPath id="clip0_5600_1561">
<rect width="250" height="140" fill="white"/>
</clipPath>
</defs>
</svg>
