<svg width="260" height="140" viewBox="0 0 260 140" fill="none" xmlns="http://www.w3.org/2000/svg">
<g clip-path="url(#clip0_6743_2669)">
<path d="M0.000732422 0H260.001V140H0.000732422V0Z" fill="#3E416D"/>
<path d="M-6.29852 46.2148C-6.29852 46.2148 41.2015 46.3535 44.1415 46.3535C47.0815 46.3535 47.2915 44.9668 47.5015 42.8868C47.7115 40.8068 48.9015 15.9855 48.9015 15.9855L55.7615 16.3321C55.7615 16.3321 54.3615 41.9855 54.0115 47.3935C53.6615 52.8015 49.8115 52.5935 44.9115 52.5935C40.0115 52.5935 -6.22852 52.2468 -6.22852 52.2468L-6.22852 46.2148L-6.29852 46.2148Z" fill="#4D4D87"/>
<path d="M32.1013 11.3401L0 11.4591V16.4641L32.7253 15.7501L32.1013 11.3401Z" fill="#4D4D87"/>
<path d="M152.632 0C152.285 5.39 151.356 23.52 151.356 23.52L158.081 23.8C158.081 23.8 159.149 2.1 159.288 0" fill="#2F3152"/>
<path d="M260.001 107.153C260.001 107.153 217.638 106.67 216.598 106.6C215.558 106.53 214.934 106.46 214.865 104.64C214.795 102.82 214.379 87.14 214.379 87.14L208.971 87C208.971 87 209.457 103.03 209.526 104.22C209.595 105.41 209.526 106.53 208.278 106.53H199.334L199.195 111.99L260.001 113.243" fill="#2F3152"/>
<path d="M235.456 49.2871C238.576 49.4971 241.003 50.4771 241.003 54.2571C241.003 58.0371 240.933 82.3971 240.795 85.9671C240.725 89.5371 239.477 91.7771 235.04 91.7071C230.603 91.6371 198.917 91.4971 198.917 91.4971L198.363 49.0071C198.432 49.0071 231.92 49.0771 235.456 49.2871Z" fill="#646AA1"/>
<path d="M1.11039 105L60.1824 105.35L59.7664 111.93L1.20052 112.588L1.11039 105Z" fill="#2F3152"/>
<path d="M3.67578 82.4001C7.21178 82.6801 10.5398 83.4501 10.5398 87.7201C10.5398 91.9901 10.4011 120.48 10.4011 123.77C10.4011 127.06 10.2625 130.7 5.27046 130.7H0.00111961V82.3931C0.00111961 82.3931 1.24911 82.1901 3.67578 82.4001Z" fill="#4D4D87"/>
<path d="M251.761 19.2148C251.761 19.2148 204.261 19.3535 201.321 19.3535C198.381 19.3535 198.171 17.9668 197.961 15.8868C197.751 13.8068 196.561 -11.0145 196.561 -11.0145L189.701 -10.6679C189.701 -10.6679 191.101 14.9855 191.451 20.3935C191.801 25.8015 195.651 25.5935 200.551 25.5935C205.451 25.5935 251.691 25.2468 251.691 25.2468L251.691 19.2148L251.761 19.2148Z" fill="#4D4D87"/>
<path d="M252.443 38.7201C249.323 38.5101 246.411 37.8101 246.411 34.0301C246.411 30.2501 246.55 5.12009 246.55 2.18009C246.55 -0.759914 246.689 -3.90991 251.057 -3.90991C255.425 -3.90991 260.001 -3.87491 260.001 -3.87491V39.0071C260.001 39.0071 254.593 38.8671 252.443 38.7271V38.7201Z" fill="#646AA1"/>
<path d="M29.5365 0.139824C29.6751 3.42982 31.1311 24.7798 31.1311 26.9498C31.1311 29.1198 31.9631 31.4998 34.4591 31.3598C36.9551 31.2198 71.2058 30.6598 71.2058 30.6598L70.5818 0.0698242" fill="#646AA1"/>
<path d="M43.5367 148.296C43.6754 145.006 45.1314 123.656 45.1314 121.486C45.1314 119.316 45.9634 116.936 48.4594 117.076C50.9554 117.216 85.2061 117.776 85.2061 117.776L84.582 148.366" fill="#646AA1"/>
<path d="M199.194 120.4C202.175 120.4 204.602 117.95 204.602 114.94C204.463 99.6798 204.116 55.9298 204.671 25.0598C204.74 22.0498 202.73 20.0198 199.263 20.0198C148.442 20.0898 92.2122 18.3398 60.5962 18.3398C57.4069 18.3398 55.3269 20.0898 55.4655 23.1698C56.6442 59.7098 57.1989 100.73 57.4069 115.15C57.4762 118.16 59.8335 120.54 62.8149 120.54H199.194V120.4Z" fill="#F9FAFE"/>
<path d="M204.602 25.0601C204.74 20.7201 203.978 20.0201 199.194 20.0201C148.372 19.8101 92.1431 18.0601 60.5271 18.3401C56.1591 18.3401 55.3271 19.4601 55.3964 23.1701C55.3964 24.5701 55.4658 25.9701 55.5351 27.3701C71.0658 27.5101 142.687 28.0001 204.602 28.9101V25.0601Z" fill="#BFDAF9"/>
<path d="M204.601 27.7901C202.382 27.7201 121.332 26.3201 116.825 26.3201C112.318 26.3201 111.209 21.4901 108.713 21.4901C106.217 21.4901 85.9715 21.0701 82.7822 21.0701C79.5928 21.0701 79.1075 26.2501 76.3342 26.2501C73.5608 26.2501 55.4648 26.1801 55.4648 26.1801C55.5342 28.1401 55.6035 30.1001 55.6728 31.9901C114.606 32.2001 188.862 33.0401 204.532 33.2501C204.532 31.4301 204.532 29.6101 204.601 27.7901Z" fill="#D9E8FB"/>
<path d="M67.7372 22.1201C67.3212 20.6501 63.7158 20.0901 64.0625 23.0301C64.4092 25.9701 68.4305 24.3601 67.7372 22.1201Z" fill="#96BCEF"/>
<path d="M59.1404 21.14C57.8924 21.91 57.9617 24.08 59.1404 24.57C60.3191 24.99 62.0524 24.71 62.1217 23.24C62.2604 21.7 60.3191 20.44 59.1404 21.14Z" fill="#96BCEF"/>
<path d="M70.0264 22.0501C69.5411 22.8901 69.6798 24.0101 70.7198 24.5701C71.6904 25.1301 72.7304 24.5701 73.0771 23.9401C73.4238 23.3101 73.7704 21.9101 72.6611 21.2801C71.4131 20.6501 70.4424 21.3501 70.0264 22.0501Z" fill="#96BCEF"/>
<path d="M67.5996 53.3441C67.5996 50.5441 68.7089 49.6341 70.9969 49.7041C73.2849 49.7741 96.9969 50.4741 99.2849 50.6141C101.573 50.6841 102.336 51.3141 102.474 53.6941C102.544 55.6541 102.128 73.0141 101.92 79.1741C101.92 80.3641 100.88 81.3441 99.7009 81.2741L69.9569 80.8541C68.7783 80.8541 67.8076 79.8741 67.8076 78.6841L67.5996 53.3441Z" fill="#D9E8FB"/>
<path d="M102.474 53.6939C102.405 51.3139 101.573 50.6839 99.2849 50.6139C96.9969 50.5439 73.2849 49.8439 70.9969 49.7039C68.7089 49.6339 67.5996 50.4739 67.5996 53.3439L67.7383 72.5939C67.7383 72.5939 72.8689 68.1839 77.7223 64.4039C78.2769 63.9839 78.8316 63.9139 79.3169 64.2639C80.7729 65.3139 83.3383 67.4139 83.3383 67.4139C83.3383 67.4139 88.3303 63.7039 91.3116 60.8339C91.9356 60.2039 92.6289 60.4839 93.1836 61.1839C96.1649 64.6839 102.266 72.7339 102.266 72.7339C102.405 63.7739 102.544 54.8139 102.474 53.6939Z" fill="#BFDAF9"/>
<path d="M75.4343 54.8841C73.077 55.0241 71.3437 59.1541 73.493 60.6941C75.6423 62.2341 79.0397 60.9741 79.525 58.7341C80.0797 56.4941 78.2077 54.7441 75.4343 54.8841Z" fill="#D9E8FB"/>
<path d="M72.8693 74.8339C71.7599 74.9039 70.7893 76.7239 73.1466 76.7239C75.5039 76.7239 94.2239 76.5839 96.1653 76.6539C98.1066 76.6539 98.4533 74.3439 96.3733 74.4139C94.2933 74.4139 74.9493 74.6939 72.8693 74.8339Z" fill="#BFDAF9"/>
<path d="M115.023 53.8339C115.093 51.5939 115.994 50.5439 118.074 50.5439C120.154 50.5439 144.074 50.7539 145.946 50.7539C147.818 50.7539 149.829 51.1039 149.69 54.0439C149.621 56.3539 149.205 72.524 149.066 78.8939C149.066 80.364 147.887 81.4839 146.431 81.4839L117.381 81.2039C115.925 81.2039 114.746 80.014 114.815 78.544L115.023 53.8339Z" fill="#D9E8FB"/>
<path d="M145.945 50.6841C144.073 50.6841 120.153 50.4741 118.073 50.4741C115.993 50.4741 115.092 51.5241 115.022 53.7641L114.953 71.3341C114.953 71.3341 119.806 67.6941 125.63 63.0041C126.185 62.5141 127.017 62.5141 127.572 63.0041C128.75 64.0541 130.9 65.9441 130.9 65.9441C130.9 65.9441 135.337 62.4441 138.734 59.9241C139.497 59.3641 140.26 59.5741 140.745 60.0641C143.31 62.9341 149.481 69.7941 149.481 69.7941C149.62 62.0941 149.758 55.1641 149.758 53.9041C149.828 51.0341 147.817 50.6841 145.945 50.6841Z" fill="#BFDAF9"/>
<path d="M120.432 56.1441C119.461 57.6841 119.808 59.7141 121.749 60.8341C123.552 61.8141 125.424 60.8341 126.117 59.6441C126.81 58.4541 127.434 56.0041 125.285 54.8141C123.066 53.6241 121.264 54.8841 120.432 56.1441Z" fill="#D9E8FB"/>
<path d="M120.016 74.414C117.797 74.554 117.589 76.374 119.877 76.444C122.165 76.514 141.786 76.514 144.005 76.584C146.224 76.654 146.709 74.554 143.936 74.344C141.162 74.134 124.176 74.134 120.016 74.414Z" fill="#BFDAF9"/>
<path d="M161.269 53.2741C161.269 51.6641 162.031 50.5441 163.626 50.5441H192.538C194.479 50.5441 195.311 51.4541 195.45 53.6241C195.519 55.4441 195.242 73.4341 195.103 79.5241C195.103 80.6441 194.202 81.4841 193.093 81.4841H162.933C161.823 81.4841 160.922 80.5741 160.922 79.4541L161.269 53.2741Z" fill="#D9E8FB"/>
<path d="M195.45 53.6241C195.381 51.3841 194.479 50.5441 192.538 50.5441H163.626C162.031 50.5441 161.269 51.6641 161.269 53.2741L161.061 72.5941C163.21 70.6341 167.439 66.7841 169.589 64.9641C170.282 64.3341 171.045 64.3341 171.669 64.8241C173.055 65.7341 175.343 67.4141 175.343 67.4141C175.343 67.4141 180.058 63.7741 183.317 61.2541C184.01 60.7641 184.634 60.9041 185.258 61.4641C187.962 63.9141 192.954 69.1641 195.311 71.6841C195.45 63.0041 195.519 54.6041 195.45 53.6241Z" fill="#BFDAF9"/>
<path d="M172.362 57.1941C171.6 54.5341 165.152 53.5541 165.845 58.8041C166.538 64.1241 173.541 61.2541 172.362 57.1941Z" fill="#D9E8FB"/>
<path d="M166.399 74.554C163.834 74.694 163.695 76.654 165.983 76.654H190.458C192.261 76.654 192.33 74.4841 190.042 74.4841C187.685 74.4841 169.381 74.414 166.399 74.554Z" fill="#BFDAF9"/>
<path d="M72.3827 35.56C69.6094 35.21 66.9747 37.17 66.6974 39.9C66.4201 42.56 68.4307 44.66 71.4121 44.87C74.3934 45.08 76.0574 42.42 76.2654 40.81C76.4734 39.13 75.2947 35.91 72.3827 35.56Z" fill="#D9E8FB"/>
<path d="M166.796 37.63C165.845 37.72 165 37.81 165 39.34C165 40.87 165.106 43.12 165.106 43.84C165.106 44.56 165.211 45.64 166.479 45.64C167.746 45.64 191.62 46 193.099 46C194.577 46 195 45.37 195 44.29V38.53C195 37.63 194.577 37 193.415 37C192.148 37 167.958 37.54 166.796 37.63Z" fill="#BFDAF9"/>
<path d="M149.968 90.2394C150.037 89.3994 150.384 88.8394 151.493 88.7694C152.603 88.6994 167.925 88.5594 169.104 88.4894C170.283 88.4194 170.491 89.0494 170.491 89.8894V94.1594C170.491 94.9994 169.936 95.6994 169.035 95.6994C168.133 95.6994 152.603 95.6994 151.632 95.6294C150.661 95.6294 149.968 95.2794 149.968 94.1594C149.899 93.0394 149.899 91.4294 149.968 90.2394Z" fill="#BFDAF9"/>
<path d="M91.1035 93.1093C91.1035 90.5193 92.6289 88.7693 94.4315 88.7693H145.253C146.293 88.7693 146.709 88.9793 146.709 89.6793C146.778 90.3793 146.917 94.0893 146.917 94.7193C146.986 95.3493 146.64 95.8393 145.808 95.9093C144.976 95.9093 95.8182 96.5393 94.9862 96.5393C92.5595 96.5393 91.1035 95.6993 91.1035 93.1093Z" fill="#D9E8FB"/>
<path d="M112.181 111.17C111.21 111.17 110.933 111.8 111.002 113.27C111.072 114.74 111.141 115.3 112.32 115.23C113.498 115.16 146.501 114.88 147.472 114.88C148.442 114.88 148.858 114.25 148.928 113.06C148.997 111.87 148.928 111.17 147.749 111.17C146.501 111.1 114.469 111.17 112.181 111.17Z" fill="#D9E8FB"/>
<path d="M86.1118 104.589C85.0025 104.589 84.5865 105.149 84.6558 106.689C84.7251 108.229 84.7251 108.579 86.1811 108.579C87.6371 108.579 172.917 108.159 174.581 108.159C176.245 108.159 176.8 107.599 176.8 105.919C176.8 104.239 176.869 103.539 175.066 103.539C173.264 103.539 87.6371 104.589 86.1118 104.589Z" fill="#D9E8FB"/>
<path d="M164.618 53.5206C164.618 53.5206 161.476 50.2364 160.447 49.024C159.486 47.8084 157.178 45.8157 155.025 45.7782C152.871 45.7407 110.874 45.85 106.498 45.7782C102.121 45.7064 101.225 47.2909 101.358 50.0877C101.492 52.8845 102.908 86.0528 103.025 88.5C103.142 90.9472 104.107 93.1958 105.453 95.234C106.803 97.3421 109.945 102.098 109.945 102.098L164.618 53.5206Z" fill="#1E96FF"/>
<path d="M130 102C130 102 130.243 140.01 130.243 142.46C130.243 144.91 136.621 144.77 136.621 141.9V102H130Z" fill="#4D4D87"/>
<path d="M199 68C199 68 195.408 64.8009 195.01 64.3316C194.638 63.8611 193.745 63.0898 192.911 63.0753C192.078 63.0607 175.823 63.1031 174.129 63.0753C172.435 63.0475 172.088 63.6608 172.139 64.7433C172.191 65.8258 172.739 78.6638 172.784 79.611C172.83 80.5583 173.203 81.4286 173.724 82.2175C174.247 83.0334 178 87 178 87L199 68Z" fill="#FFAB00"/>
<path d="M134 78.6213C134 78.6213 172.01 78.3787 174.46 78.3787C176.91 78.3787 176.77 72 173.9 72L134 72L134 78.6213Z" fill="#4D4D87"/>
<path d="M84 78.6213C84 78.6213 102.01 78.3787 104.46 78.3787C106.91 78.3787 106.77 72 103.9 72L84 72L84 78.6213Z" fill="#4D4D87"/>
<path d="M165.596 56.5576C165.631 54.3834 164.403 51.9191 161.145 52.0043C157.886 52.0894 115.145 52.9214 112.025 53C108.905 53.0786 107.653 54.4698 107.776 57.0568C108.319 68.4539 108.86 88.0637 109.189 99.3309C109.246 101.991 110.659 103.956 113.498 103.821C116.338 103.686 157.311 102.644 160.43 102.566C163.619 102.484 164.677 99.9104 164.755 97.1736C164.989 84.6182 165.497 64.6915 165.596 56.5576Z" fill="#43CBFF"/>
<path d="M199.47 69.2474C199.483 68.4059 199.008 67.4521 197.747 67.485C196.486 67.518 180.489 67.6468 179.281 67.6773C178.074 67.7077 177.589 68.2462 177.637 69.2475C177.847 73.6588 177.51 81.4421 177.637 85.8032C177.659 86.8328 178.206 87.5934 179.305 87.541C180.404 87.4887 196.263 87.0856 197.47 87.0552C198.705 87.0235 199.114 86.0275 199.144 84.9682C199.235 80.1085 199.432 72.3957 199.47 69.2474Z" fill="#FFD011"/>
<path d="M92.9996 68C92.9996 68 89.4079 64.8009 89.0094 64.3316C88.6378 63.8611 87.7444 63.0898 86.9109 63.0753C86.0773 63.0607 69.822 63.1031 68.1281 63.0753C66.4342 63.0475 66.0873 63.6608 66.1389 64.7433C66.1905 65.8258 66.7388 78.6638 66.7839 79.611C66.829 80.5583 67.2026 81.4286 67.7238 82.2175C68.2463 83.0334 71.9995 87 71.9995 87L92.9996 68Z" fill="#FFAB00"/>
<path d="M-13 78.6213C-13 78.6213 65.01 78.3787 67.46 78.3787C69.91 78.3787 69.77 72 66.9 72L-13 72L-13 78.6213Z" fill="#4D4D87"/>
<path d="M93.4691 69.2474C93.4827 68.4059 93.0074 67.4521 91.7462 67.485C90.4851 67.518 74.4885 67.6468 73.2809 67.6773C72.0734 67.7077 71.5886 68.2462 71.6363 69.2475C71.8465 73.6588 71.5092 81.4421 71.6365 85.8032C71.6587 86.8328 72.2054 87.5934 73.3044 87.541C74.4034 87.4887 90.2622 87.0856 91.4698 87.0552C92.7041 87.0235 93.1134 86.0275 93.1435 84.9682C93.2343 80.1085 93.431 72.3957 93.4691 69.2474Z" fill="#FFD011"/>
<path d="M154.02 80.0099C153.604 79.3099 152.633 78.3999 150.553 78.6799C149.028 78.8199 147.919 80.1499 148.543 82.0399C149.583 85.1899 157.833 85.1199 158.596 90.7899C159.22 95.1999 155.753 97.6499 151.94 97.7899C148.404 97.9299 145.145 95.6899 144.244 92.6099C144.174 92.3299 144.244 91.7699 144.868 91.4899C145.492 91.2799 146.67 90.9999 147.294 90.8599C147.849 90.7199 148.196 90.9299 148.334 91.4199C148.681 92.4699 149.582 94.2199 151.454 94.2899C153.812 94.3599 154.99 92.8199 154.366 90.7899C153.396 87.6399 145.908 87.8499 144.66 82.2499C143.828 78.6799 145.838 76.0199 149.86 75.4599C152.148 75.1799 155.406 76.2999 156.793 78.3999C156.932 78.6799 156.932 79.1699 156.308 79.6599C156.03 79.8699 155.406 80.1499 155.06 80.2899C154.505 80.5699 154.228 80.4299 154.02 80.0099Z" fill="white"/>
<path d="M126.053 76.3845C124.365 76.3845 124.436 76.5254 124.868 79.015C125.017 79.8605 125.096 80.4085 126.493 80.3694C128.009 80.3302 129.077 80.1502 130.207 80.111C131.338 80.0719 131.275 80.5025 131.244 81.4968C131.212 82.491 131.283 95.4086 131.267 96.8257C131.252 98.2427 131.322 98.0548 133.584 97.8826C135.845 97.7103 135.319 97.5616 135.351 96.7161C135.351 96.7161 135.201 82.7024 135.201 81.4419C135.201 80.5729 135.343 80.1189 136.042 80.0719C136.74 80.0249 139.41 79.9936 140.305 80.0406C141.208 80.0876 141.625 79.4612 141.593 78.3417C141.562 77.2222 141.86 75.9617 140.737 76.0009C136.222 76.181 127.742 76.3923 126.053 76.3845Z" fill="white"/>
<path d="M182.321 63.556C182.321 63.556 182.408 55.0868 182.723 48.0881C182.73 47.6028 182.394 46.627 181.768 46.4096C180.794 45.979 179.125 45.2606 177.801 44.8247C173.971 43.4498 174.96 38.1947 178.936 39.1557C180.75 39.5989 182.281 40.1766 184.371 40.832C186.81 41.6312 188.601 43.5303 188.59 48.9387C188.64 54.9722 188.512 61.4992 188.48 63.6483C188.428 67.1146 182.431 65.5686 182.321 63.556Z" fill="#4D4D87"/>
<path d="M165.221 105.002C166.072 104.505 166.554 104.852 167.048 105.419C168.463 107.103 171.774 110.816 176.089 114.002C176.339 114.141 176.516 114.551 176.031 115.29C175.564 115.962 174.398 117.099 173.766 117.582C173.219 118.016 172.799 117.975 172.287 117.476C170.555 115.635 166.371 110.89 164.47 106.468C164.323 106.211 164.285 105.548 165.221 105.002Z" fill="#3E416D"/>
<path d="M170.27 102.233C171.92 103.037 176.025 104.862 180.351 104.789C180.637 104.793 181.063 104.545 181.298 103.666C181.425 103.193 181.344 102.156 181.27 101.629C181.067 100.778 180.952 100.674 180.446 100.684C178.627 100.776 174.167 100.813 170.849 100.069C170.581 99.9973 170.156 100.246 169.872 101.039C169.52 101.815 169.819 102.04 170.27 102.233Z" fill="#3E416D"/>
</g>
<defs>
<clipPath id="clip0_6743_2669">
<rect width="260" height="140" fill="white"/>
</clipPath>
</defs>
</svg>
