<svg width="317" height="168" viewBox="0 0 317 168" fill="none" xmlns="http://www.w3.org/2000/svg">
<g id="front-end" clip-path="url(#clip0_5020_9078)">
<rect width="317" height="168" fill="#4D4D87"/>
<g id="html">
<rect id="Rectangle" x="-14" y="-30" width="346.667" height="208" fill="#3E416D"/>
<g id="Clipped">
<mask id="mask0_5020_9078" style="mask-type:luminance" maskUnits="userSpaceOnUse" x="-14" y="-30" width="347" height="208">
<rect id="Rectangle_2" x="-14" y="-30" width="346.667" height="208" fill="white"/>
</mask>
<g mask="url(#mask0_5020_9078)">
<g id="Group">
<path id="Path" fill-rule="evenodd" clip-rule="evenodd" d="M116.286 -7.61401C122.543 -9.92801 126.833 -9.78068 129 -3.71401C131.166 2.35265 159.333 83.5333 161.352 88.8807C163.372 94.228 163.666 100 156.586 102.314C149.505 104.628 19.0803 149.114 13.4469 150.847C7.81361 152.581 4.78027 149.981 3.1856 144.919C1.59094 139.858 -28.4477 58.114 -30.3197 52.914C-32.1917 47.714 -32.7811 42.8 -25.1197 40.2C-17.4584 37.6 81.9136 5.09999 116.286 -7.61401Z" fill="#373960"/>
<path id="Path_2" fill-rule="evenodd" clip-rule="evenodd" d="M115.852 2.35271C118.01 1.60737 119.033 2.21404 119.613 3.36671C120.194 4.51937 150.519 90.1807 151.099 91.6194C151.68 93.058 150.085 93.786 149.366 94.0807C148.647 94.3754 17.7801 139.147 16.1855 139.719C14.5908 140.291 12.8661 139.867 12.5801 139.147C12.2941 138.428 -20.2145 54.3527 -20.7865 53.2C-21.3585 52.0474 -20.6479 51.3194 -19.2005 50.7474C-17.7532 50.1754 73.6801 16.9474 115.852 2.35271Z" fill="#4D4D87"/>
<g id="Clipped_2">
<mask id="mask1_5020_9078" style="mask-type:luminance" maskUnits="userSpaceOnUse" x="-21" y="2" width="173" height="138">
<path id="Path_3" fill-rule="evenodd" clip-rule="evenodd" d="M115.852 2.35276C118.01 1.60742 119.033 2.21409 119.614 3.36676C120.194 4.51942 150.519 90.1808 151.1 91.6194C151.68 93.0581 150.086 93.7861 149.366 94.0808C148.647 94.3754 17.7804 139.147 16.1857 139.719C14.5911 140.291 12.8664 139.867 12.5804 139.147C12.2944 138.428 -20.2143 54.3528 -20.7863 53.2001C-21.3583 52.0474 -20.6476 51.3194 -19.2003 50.7474C-17.7529 50.1754 73.6804 16.9474 115.852 2.35276Z" fill="white"/>
</mask>
<g mask="url(#mask1_5020_9078)">
<g id="Group_2">
<path id="Path_4" fill-rule="evenodd" clip-rule="evenodd" d="M1.60046 74.78C0.733796 72.57 0.179129 71.3134 3.3338 70.1694C6.48846 69.0254 107.481 33.3967 110.402 32.4C113.322 31.4034 115.272 31.334 116.035 33.44C116.798 35.546 131.635 76.6434 132.337 78.628C133.039 80.6127 133.923 82.554 130.508 83.75C127.094 84.946 27.7218 120.8 25.1998 121.667C22.6778 122.533 20.9445 121.727 19.9998 119.552C12.8671 103.467 3.9838 80.812 1.60046 74.78Z" fill="#555595"/>
<path id="Path_5" fill-rule="evenodd" clip-rule="evenodd" d="M63.8883 64.328C56.383 66.1134 51.1223 72.5007 52.3963 79.538C53.3583 84.816 58.697 94.2714 70.2323 90.5447C81.7677 86.818 82.6257 76.73 80.5543 71.9114C78.483 67.0927 72.321 62.326 63.8883 64.328Z" fill="#4D4D87"/>
<path id="Path_6" fill-rule="evenodd" clip-rule="evenodd" d="M95.3912 129.649C95.3912 129.649 90.1912 111.189 89.6539 109.308C89.1166 107.427 88.9259 106.162 91.0579 105.252C93.1899 104.342 130.292 91.784 132.459 90.9607C134.625 90.1374 135.925 90.38 136.792 92.642C137.659 94.904 144.358 112.419 144.358 112.419L95.3912 129.649Z" fill="#555595"/>
<path id="Path_7" fill-rule="evenodd" clip-rule="evenodd" d="M24.8019 127.907C23.4672 128.349 22.8779 128.973 23.5452 130.975C24.2126 132.977 24.3339 133.193 26.0326 132.578C27.7312 131.963 78.8299 115.522 80.1646 115.08C81.4992 114.638 82.1232 114.109 81.4732 112.315C80.8232 110.521 80.6066 110.331 78.5872 110.79C76.5679 111.249 26.8039 127.248 24.8019 127.907Z" fill="#555595"/>
<path id="Path_8" fill-rule="evenodd" clip-rule="evenodd" d="M60.7761 76.4007C60.3861 75.0487 60.1868 73.9914 61.6428 73.9914C63.0988 73.9914 71.4881 75.3867 72.5888 75.5167C73.0573 75.5506 73.4593 75.8634 73.6073 76.3092C73.7552 76.755 73.6201 77.2461 73.2648 77.5534C71.4101 79.7201 66.5828 84.9461 65.8981 85.4574C65.2135 85.9687 64.2168 86.0814 63.8701 85.2841C63.0295 83.3081 61.4955 78.8794 60.7761 76.4007Z" fill="#555595"/>
<path id="Path_9" fill-rule="evenodd" clip-rule="evenodd" d="M-16.8854 67.3527C-16.8854 67.3527 69.4866 36.8807 126.687 15.2141L119.753 -0.0999267L-23.3854 50.4527L-16.8854 67.3527Z" fill="#555595"/>
</g>
</g>
</g>
<path id="Path_10" fill-rule="evenodd" clip-rule="evenodd" d="M307.811 38.4667L340.562 90.9607L358.701 81.3147L329.113 23.014L307.811 38.4667Z" fill="#373960"/>
<path id="Path_11" fill-rule="evenodd" clip-rule="evenodd" d="M309.682 -18.846C304.257 -15.83 281.663 -3.09866 276.896 -0.212656C272.13 2.67334 270.102 6.14868 272.996 11.054C275.891 15.9593 290.035 36.6207 293.502 41.3873C296.968 46.154 301.016 47.3153 306.363 44.282C311.71 41.2487 332.796 29.1153 337.416 26.082C342.035 23.0487 342.616 16.982 338.568 11.2013C334.521 5.42068 323.263 -12.6667 320.23 -16.6793C317.196 -20.692 313.6 -21.0127 309.682 -18.846Z" fill="#4D4D87"/>
<path id="Path_12" fill-rule="evenodd" clip-rule="evenodd" d="M300.513 0.203285C293.796 4.01662 290.979 12.3366 294.195 18.7066C296.578 23.4993 305.981 29.8866 315.35 23.716C325.464 17.0513 322.431 7.57862 319.111 3.53128C314.502 -1.87639 306.712 -3.2703 300.513 0.203285Z" fill="#555595"/>
<path id="Path_13" fill-rule="evenodd" clip-rule="evenodd" d="M301.31 12.2153C300.565 11.028 300.071 10.0573 301.501 9.61532C304.965 8.89875 308.47 8.40374 311.996 8.13332C313.097 8.06399 313.99 8.80932 313.643 9.79732C312.414 13.2157 310.951 16.5457 309.266 19.764C308.755 20.44 307.819 20.83 307.264 20.1627C305.852 18.5333 302.688 14.3993 301.31 12.2153Z" fill="#4D4D87"/>
<g id="Clipped_3">
<mask id="mask2_5020_9078" style="mask-type:luminance" maskUnits="userSpaceOnUse" x="-15" y="-30" width="348" height="208">
<rect id="Rectangle_3" x="-14.0002" y="-30" width="346.667" height="208" fill="white"/>
</mask>
<g mask="url(#mask2_5020_9078)">
<g id="Group_3">
<path id="Path_14" fill-rule="evenodd" clip-rule="evenodd" d="M39.084 180.704C39.084 160.069 37.2987 51.9434 36.64 42.6267C35.9814 33.31 37.082 28.6387 47.2914 28.1967C57.5007 27.7547 249.675 24.652 259.217 24.2014C268.759 23.7507 273.422 25.068 273.647 34.6014C273.873 44.1347 273.205 144.226 273.422 176.847L39.084 180.704Z" fill="#2F3152"/>
<path id="Path_15" fill-rule="evenodd" clip-rule="evenodd" d="M260.734 73.1334C265.049 73.1152 269.363 73.3293 273.656 73.7747V77.6314L261.141 76.6607L260.734 73.1334Z" fill="#3E416D"/>
<path id="Path_16" fill-rule="evenodd" clip-rule="evenodd" d="M47.0663 46.8387C47.0663 46.8387 152.548 42.254 259.218 39.446C262.476 39.3594 262.832 40.3127 262.918 42.254C265.432 99.8007 266.324 185.02 266.324 185.02L47.9243 182.801L47.0663 46.8387Z" fill="#F9FAFE"/>
<g id="Clipped_4">
<mask id="mask3_5020_9078" style="mask-type:luminance" maskUnits="userSpaceOnUse" x="47" y="39" width="220" height="147">
<path id="Path_17" fill-rule="evenodd" clip-rule="evenodd" d="M47.066 46.8388C47.066 46.8388 152.548 42.2541 259.217 39.4461C262.476 39.3594 262.831 40.3128 262.918 42.2541C265.431 99.8008 266.324 185.02 266.324 185.02L47.924 182.801L47.066 46.8388Z" fill="white"/>
</mask>
<g mask="url(#mask3_5020_9078)">
<g id="Group_4">
<path id="Path_18" fill-rule="evenodd" clip-rule="evenodd" d="M86.2751 43.5887C86.2751 43.5887 86.4051 58.4954 86.3445 60.5407C86.2838 62.5861 86.6825 62.9327 88.6238 62.9327C90.5651 62.9327 218.442 59.0501 220.998 58.9374C223.555 58.8247 223.772 58.2701 223.659 56.2161C223.546 54.1621 222.714 37.9121 222.714 37.9121L86.2751 43.5887Z" fill="#D9E8FB"/>
<path id="Path_19" fill-rule="evenodd" clip-rule="evenodd" d="M87.9733 81.462C87.8433 78.7234 87.6786 77.1287 91.3793 77.0247C95.0799 76.9207 213.354 74.5027 216.76 74.5027C220.166 74.5027 222.237 75.1007 222.307 77.6834C222.376 80.266 223.641 130.723 223.711 133.15C223.78 135.577 224.005 138.029 220.019 138.107C216.032 138.185 99.3699 141.357 96.4059 141.435C93.4419 141.513 91.9253 139.953 91.6739 137.215C89.8193 116.969 88.3459 88.9327 87.9733 81.462Z" fill="#D9E8FB"/>
<path id="Path_20" fill-rule="evenodd" clip-rule="evenodd" d="M156.9 93.3267C148.406 92.59 140.667 97.4694 139.566 105.287C138.743 111.154 141.074 122.897 154.447 123.019C167.82 123.14 172.24 112.835 171.78 107.072C171.321 101.309 166.442 94.15 156.9 93.3267Z" fill="#BFDAF9"/>
<path id="Path_21" fill-rule="evenodd" clip-rule="evenodd" d="M166.459 186.034C166.459 186.034 167.325 155.857 167.403 153.69C167.481 151.523 167.733 150.145 170.289 149.92C172.846 149.695 216.11 149.426 218.667 149.313C221.223 149.201 222.549 149.92 222.662 152.581C222.775 155.241 223.823 184.985 223.823 184.985L166.459 186.034Z" fill="#D9E8FB"/>
<path id="Path_22" fill-rule="evenodd" clip-rule="evenodd" d="M92.6719 149.92C91.1205 149.92 90.2885 150.362 90.2885 152.693C90.2885 155.025 90.3405 155.293 92.3425 155.25C94.3445 155.207 153.642 155.692 155.202 155.692C156.762 155.692 157.585 155.354 157.533 153.248C157.481 151.142 157.308 150.865 155.029 150.648C152.749 150.431 95.0032 149.92 92.6719 149.92Z" fill="#D9E8FB"/>
<path id="Path_23" fill-rule="evenodd" clip-rule="evenodd" d="M155.305 161.074C156.969 161.117 157.905 161.941 157.905 163.847C157.905 165.754 157.463 166.179 155.574 166.231C153.684 166.283 93.8842 165.069 92.3849 165.009C90.8855 164.948 90.7209 164.012 90.6515 162.573C90.5822 161.135 90.9809 160.294 92.3155 160.242C93.6502 160.19 151.31 160.961 155.305 161.074Z" fill="#D9E8FB"/>
<path id="Path_24" fill-rule="evenodd" clip-rule="evenodd" d="M149.447 104.905C149.508 103.354 149.673 102.175 151.181 102.687C152.689 103.198 161.017 107.575 162.127 108.086C162.603 108.286 162.914 108.752 162.914 109.269C162.914 109.786 162.603 110.252 162.127 110.452C159.423 112.081 152.55 115.895 151.657 116.189C150.765 116.484 149.681 116.259 149.586 115.323C149.413 112.931 149.335 107.8 149.447 104.905Z" fill="#D9E8FB"/>
</g>
</g>
</g>
<path id="Path_25" fill-rule="evenodd" clip-rule="evenodd" d="M234.613 100.468C233.599 100.381 230.591 100.78 230.522 103.068C230.453 105.356 229.655 122.819 229.655 124.267C229.655 125.714 231.311 126.667 233.261 126.633L234.613 100.468Z" fill="#3E416D"/>
<path id="Path_26" fill-rule="evenodd" clip-rule="evenodd" d="M230.297 180.262C230.297 180.262 232.75 119.318 233.486 86.5754C233.66 78.7754 236.164 75.1527 242.396 75.2567C259.07 75.5427 294.266 78.03 299.37 78.212C304.475 78.394 308.47 80.0494 308.089 86.2547C306.477 112.255 299.856 187.334 299.856 187.334L230.297 180.262Z" fill="#2F3152"/>
<path id="Path_27" fill-rule="evenodd" clip-rule="evenodd" d="M233.433 178.728C233.433 178.728 237.316 100.087 237.533 97.2614C237.749 94.436 239.361 94.5314 240.54 94.5314C244.007 94.5314 276.073 95.8834 300.548 98.388C302.732 98.6134 303.226 99.792 303.096 101.413C302.966 103.033 295.53 185.679 295.53 185.679L233.433 178.728Z" fill="#F9FAFE"/>
<path id="Path_28" fill-rule="evenodd" clip-rule="evenodd" d="M258.438 84.9634C255.326 84.9114 254.347 87.9447 258.169 88.3434C261.991 88.7421 274.636 89.4614 276.802 89.5394C278.969 89.6174 279.454 86.1681 276.629 85.9514C273.804 85.7347 261.462 85.0241 258.438 84.9634Z" fill="#3E416D"/>
<path id="Path_29" fill-rule="evenodd" clip-rule="evenodd" d="M285.278 86.1334C283.658 86.0294 282.158 87.6241 283.32 89.3141C283.713 89.929 284.4 90.2937 285.13 90.276C285.859 90.2582 286.527 89.8607 286.89 89.2274C287.331 88.6307 287.393 87.835 287.051 87.1771C286.708 86.5192 286.02 86.1142 285.278 86.1334Z" fill="#3E416D"/>
<path id="Path_30" fill-rule="evenodd" clip-rule="evenodd" d="M292.576 116.241C294.5 116.519 295.583 116.926 295.531 118.98C295.479 121.034 292.68 149.365 292.489 151.047C292.299 152.728 291.666 153.707 289.283 153.647C286.899 153.586 245.611 151.246 243.904 151.116C242.197 150.986 240.689 150.249 240.749 148.022C240.81 145.795 241.98 117.065 242.136 115.019C242.292 112.974 242.821 112.74 245.152 112.87C247.483 113 289.057 115.739 292.576 116.241Z" fill="#D9E8FB"/>
<path id="Path_31" fill-rule="evenodd" clip-rule="evenodd" d="M289.482 159.54C290.166 159.583 290.591 159.774 290.626 160.355C290.66 160.935 290.704 162.357 290.704 162.859C290.704 163.362 290.582 163.925 289.837 163.891L241.85 160.571C241.39 160.571 240.983 160.363 240.983 159.557C241.026 158.892 241.104 158.23 241.217 157.573C241.271 157.143 241.652 156.831 242.084 156.862C242.647 156.845 287.67 159.41 289.482 159.54Z" fill="#D9E8FB"/>
<path id="Path_32" fill-rule="evenodd" clip-rule="evenodd" d="M289.178 167.791C289.681 167.791 290.175 168.068 290.149 168.657C290.123 169.247 290.001 170.46 289.967 170.98C289.932 171.5 289.889 172.124 289.031 172.037C288.173 171.951 242.482 168.016 241.607 167.903C240.731 167.791 240.619 167.435 240.653 166.794C240.688 166.153 240.783 165.433 240.844 164.861C240.905 164.289 241.017 163.995 241.867 164.073C242.716 164.151 285.001 167.496 289.178 167.791Z" fill="#D9E8FB"/>
<path id="Path_33" fill-rule="evenodd" clip-rule="evenodd" d="M268.906 124.267C263.177 123.521 257.83 127.56 257.327 133.003C256.825 138.445 260.881 142.623 267.025 143.108C273.17 143.593 276.602 138.159 276.94 134.866C277.278 131.573 274.938 125.047 268.906 124.267Z" fill="#BFDAF9"/>
<path id="Path_34" fill-rule="evenodd" clip-rule="evenodd" d="M264.097 131.131C264.167 130.073 264.314 129.501 265.337 129.917C266.359 130.333 270.866 132.517 271.637 132.899C272.409 133.28 272.504 133.965 271.689 134.346C270.875 134.727 266.073 137.726 265.389 138.073C264.704 138.419 264.305 138.411 264.21 137.509C264.065 135.386 264.027 133.257 264.097 131.131Z" fill="#D9E8FB"/>
<g id="Clipped_5">
<mask id="mask4_5020_9078" style="mask-type:luminance" maskUnits="userSpaceOnUse" x="233" y="94" width="71" height="92">
<path id="Path_35" fill-rule="evenodd" clip-rule="evenodd" d="M233.433 178.728C233.433 178.728 237.316 100.087 237.533 97.2613C237.749 94.436 239.361 94.5313 240.54 94.5313C244.007 94.5313 276.073 95.8833 300.548 98.388C302.732 98.6133 303.226 99.792 303.096 101.413C302.966 103.033 295.53 185.679 295.53 185.679L233.433 178.728Z" fill="white"/>
</mask>
<g mask="url(#mask4_5020_9078)">
<path id="Path_36" fill-rule="evenodd" clip-rule="evenodd" d="M235.756 106.873C235.756 106.873 280.562 108.814 302.922 110.296L304.812 96.2474L236.761 92.7807L235.756 106.873Z" fill="#D9E8FB"/>
</g>
</g>
<path id="Path_37" fill-rule="evenodd" clip-rule="evenodd" d="M160.201 32.4781C158.364 31.2041 155.469 32.0187 155.642 34.8267C155.816 37.6347 158.476 37.9207 159.898 37.2534C161.319 36.5861 162.645 34.1854 160.201 32.4781Z" fill="#3E416D"/>
</g>
</g>
</g>
</g>
</g>
</g>
</g>
</g>
<defs>
<clipPath id="clip0_5020_9078">
<rect width="317" height="168" fill="white"/>
</clipPath>
</defs>
</svg>
