<svg width="300" height="180" viewBox="0 0 300 180" fill="none" xmlns="http://www.w3.org/2000/svg">
<g clip-path="url(#clip0_1361_580)">
<rect width="300" height="180" fill="white"/>
<path d="M107.623 26.584C108.359 26.584 108.791 26.7867 108.919 27.192C108.983 27.3947 109.015 27.6613 109.015 27.992C109.015 28.3227 108.977 28.5893 108.903 28.792C108.839 28.984 108.732 29.1227 108.583 29.208C108.359 29.336 108.033 29.4 107.607 29.4L106.583 29.336V33.624C106.583 34.0293 106.529 34.3333 106.423 34.536C106.327 34.728 106.172 34.856 105.959 34.92C105.756 34.984 105.489 35.016 105.159 35.016C104.828 35.016 104.561 34.984 104.359 34.92C104.167 34.8453 104.028 34.7333 103.943 34.584C103.857 34.424 103.804 34.28 103.783 34.152C103.772 34.024 103.767 33.8373 103.767 33.592V29.352H103.191C102.913 29.3307 102.716 29.2667 102.599 29.16C102.396 28.9573 102.295 28.568 102.295 27.992C102.295 27.1173 102.609 26.68 103.239 26.68H103.767V25.832C103.767 25.0107 104.06 24.2693 104.647 23.608C105.233 22.936 106.081 22.6 107.191 22.6C107.436 22.6 107.617 22.6107 107.735 22.632C107.863 22.6427 108.007 22.6907 108.167 22.776C108.455 22.9147 108.599 23.3253 108.599 24.008C108.599 24.52 108.508 24.888 108.327 25.112C108.177 25.2827 107.943 25.3787 107.623 25.4C107.527 25.4 107.377 25.4 107.175 25.4C106.78 25.4 106.583 25.5333 106.583 25.8V26.68L107.623 26.584ZM115.626 26.664C115.828 26.728 115.994 26.84 116.122 27C116.26 27.1493 116.33 27.3947 116.33 27.736C116.33 28.0773 116.228 28.4507 116.026 28.856C115.823 29.2613 115.53 29.464 115.146 29.464C114.954 29.464 114.767 29.4213 114.586 29.336C114.415 29.2507 114.186 29.208 113.898 29.208C113.61 29.208 113.338 29.3093 113.082 29.512C112.836 29.7147 112.714 29.96 112.714 30.248V33.608C112.714 33.8533 112.703 34.04 112.682 34.168C112.671 34.2853 112.623 34.424 112.538 34.584C112.378 34.8613 111.962 35 111.29 35C110.778 35 110.41 34.9093 110.186 34.728C110.015 34.5787 109.919 34.3493 109.898 34.04C109.898 33.9333 109.898 33.7787 109.898 33.576V27.96C109.898 27.7147 109.903 27.5333 109.914 27.416C109.935 27.288 109.983 27.1493 110.058 27C110.207 26.712 110.623 26.568 111.306 26.568C111.946 26.568 112.346 26.6907 112.506 26.936C112.623 27.1067 112.682 27.2827 112.682 27.464C112.735 27.3893 112.81 27.2987 112.906 27.192C113.012 27.0853 113.231 26.9413 113.562 26.76C113.892 26.5787 114.18 26.488 114.426 26.488C114.682 26.488 114.895 26.504 115.066 26.536C115.236 26.5573 115.423 26.6 115.626 26.664ZM117.21 27.976C117.21 27.7307 117.216 27.5493 117.226 27.432C117.248 27.304 117.296 27.16 117.37 27C117.52 26.7227 117.936 26.584 118.618 26.584C119.13 26.584 119.493 26.6747 119.706 26.856C119.888 27.0053 119.984 27.2347 119.994 27.544C120.005 27.6507 120.01 27.8053 120.01 28.008V33.608C120.01 33.8533 120 34.04 119.978 34.168C119.968 34.2853 119.92 34.424 119.834 34.584C119.696 34.8613 119.285 35 118.602 35C117.93 35 117.52 34.856 117.37 34.568C117.296 34.408 117.248 34.2693 117.226 34.152C117.216 34.0347 117.21 33.848 117.21 33.592V27.976ZM119.834 25.016C119.76 25.1653 119.621 25.272 119.418 25.336C119.216 25.4 118.944 25.432 118.602 25.432C118.272 25.432 118.005 25.4 117.802 25.336C117.6 25.272 117.456 25.16 117.37 25C117.296 24.84 117.248 24.7013 117.226 24.584C117.216 24.456 117.21 24.2693 117.21 24.024C117.21 23.7787 117.216 23.5973 117.226 23.48C117.248 23.352 117.296 23.2133 117.37 23.064C117.52 22.776 117.936 22.632 118.618 22.632C119.29 22.632 119.696 22.776 119.834 23.064C119.92 23.224 119.968 23.368 119.978 23.496C120 23.6133 120.01 23.7947 120.01 24.04C120.01 24.2853 120 24.472 119.978 24.6C119.968 24.7173 119.92 24.856 119.834 25.016ZM129.416 29.784C129.416 30.4347 129.251 30.92 128.92 31.24C128.6 31.5493 128.243 31.704 127.848 31.704H124.056C124.056 32.0027 124.232 32.2533 124.584 32.456C124.936 32.6587 125.288 32.76 125.64 32.76C126.259 32.76 126.744 32.696 127.096 32.568L127.272 32.504C127.528 32.3867 127.742 32.328 127.912 32.328C128.254 32.328 128.547 32.568 128.792 33.048C128.931 33.336 129 33.5813 129 33.784C129 34.7333 127.864 35.208 125.592 35.208C124.803 35.208 124.099 35.0747 123.48 34.808C122.872 34.5307 122.398 34.168 122.056 33.72C121.384 32.856 121.048 31.8907 121.048 30.824C121.048 29.48 121.48 28.408 122.344 27.608C123.219 26.7973 124.307 26.392 125.608 26.392C127.091 26.392 128.179 26.9147 128.872 27.96C129.235 28.5147 129.416 29.1227 129.416 29.784ZM126.04 30.248C126.446 30.248 126.648 30.0773 126.648 29.736C126.648 29.4907 126.552 29.2933 126.36 29.144C126.179 28.9947 125.912 28.92 125.56 28.92C125.219 28.92 124.878 29.064 124.536 29.352C124.195 29.6293 124.024 29.928 124.024 30.248H126.04ZM135.148 26.568C136.215 26.568 137.1 26.9787 137.804 27.8C138.519 28.6107 138.876 29.6027 138.876 30.776V33.592C138.876 33.8373 138.866 34.024 138.844 34.152C138.834 34.2693 138.791 34.4027 138.716 34.552C138.567 34.84 138.151 34.984 137.468 34.984C136.711 34.984 136.274 34.7867 136.156 34.392C136.092 34.2107 136.06 33.9387 136.06 33.576V30.76C136.06 30.3227 135.932 29.9813 135.676 29.736C135.431 29.4907 135.095 29.368 134.668 29.368C134.252 29.368 133.911 29.496 133.644 29.752C133.388 30.008 133.26 30.344 133.26 30.76V33.592C133.26 33.8373 133.25 34.024 133.228 34.152C133.218 34.2693 133.17 34.4027 133.084 34.552C132.946 34.84 132.535 34.984 131.852 34.984C131.18 34.984 130.77 34.84 130.62 34.552C130.546 34.392 130.498 34.2533 130.476 34.136C130.466 34.008 130.46 33.8213 130.46 33.576V27.912C130.46 27.6773 130.466 27.5013 130.476 27.384C130.498 27.256 130.551 27.1173 130.636 26.968C130.786 26.7013 131.196 26.568 131.868 26.568C132.519 26.568 132.919 26.6907 133.068 26.936C133.175 27.1173 133.228 27.336 133.228 27.592C133.271 27.5173 133.367 27.4107 133.516 27.272C133.666 27.1333 133.81 27.0213 133.948 26.936C134.311 26.6907 134.711 26.568 135.148 26.568ZM145.811 23.064C145.897 22.904 146.041 22.792 146.243 22.728C146.446 22.664 146.713 22.632 147.043 22.632C147.385 22.632 147.657 22.664 147.859 22.728C148.062 22.792 148.201 22.904 148.275 23.064C148.361 23.224 148.409 23.368 148.419 23.496C148.441 23.6133 148.451 23.7947 148.451 24.04V33.592C148.451 33.8373 148.441 34.024 148.419 34.152C148.409 34.2693 148.361 34.4027 148.275 34.552C148.115 34.84 147.662 34.984 146.915 34.984C146.179 34.984 145.769 34.7227 145.683 34.2C145.235 34.712 144.611 34.968 143.811 34.968C142.851 34.968 141.977 34.552 141.187 33.72C140.398 32.8773 140.003 31.9013 140.003 30.792C140.003 29.672 140.398 28.6907 141.187 27.848C141.987 27.0053 142.862 26.584 143.811 26.584C144.601 26.584 145.214 26.8507 145.651 27.384V24.024C145.651 23.7787 145.657 23.5973 145.667 23.48C145.689 23.352 145.737 23.2133 145.811 23.064ZM143.219 31.752C143.497 32.04 143.833 32.184 144.227 32.184C144.622 32.184 144.947 32.04 145.203 31.752C145.47 31.464 145.603 31.1493 145.603 30.808C145.603 30.456 145.475 30.1307 145.219 29.832C144.974 29.5333 144.638 29.384 144.211 29.384C143.785 29.384 143.443 29.5333 143.187 29.832C142.931 30.12 142.803 30.44 142.803 30.792C142.803 31.144 142.942 31.464 143.219 31.752ZM149.79 34.248C149.587 34.12 149.486 33.9173 149.486 33.64C149.486 33.3627 149.689 32.9413 150.094 32.376C150.211 32.1947 150.398 32.104 150.654 32.104C150.921 32.104 151.278 32.2373 151.726 32.504C152.174 32.76 152.579 32.888 152.942 32.888C153.593 32.888 153.918 32.76 153.918 32.504C153.918 32.3013 153.561 32.152 152.846 32.056C152.174 31.96 151.507 31.7093 150.846 31.304C150.537 31.112 150.281 30.8133 150.078 30.408C149.875 29.992 149.774 29.5013 149.774 28.936C149.774 27.2507 150.931 26.408 153.246 26.408C154.003 26.408 154.782 26.5893 155.582 26.952C155.955 27.1227 156.142 27.336 156.142 27.592C156.142 27.848 156.025 28.1627 155.79 28.536C155.555 28.9093 155.315 29.096 155.07 29.096C154.942 29.096 154.702 29.016 154.35 28.856C154.009 28.696 153.635 28.616 153.23 28.616C152.601 28.616 152.286 28.7333 152.286 28.968C152.286 29.288 152.649 29.496 153.374 29.592C154.078 29.6667 154.761 29.8693 155.422 30.2C155.731 30.3493 155.987 30.6107 156.19 30.984C156.403 31.3467 156.51 31.8053 156.51 32.36C156.51 32.9147 156.403 33.3893 156.19 33.784C155.987 34.168 155.699 34.456 155.326 34.648C154.643 34.9787 153.785 35.144 152.75 35.144C151.726 35.144 150.739 34.8453 149.79 34.248ZM162.178 26.584C163.127 26.584 163.997 27.0053 164.786 27.848C165.586 28.6907 165.986 29.672 165.986 30.792C165.986 31.9013 165.591 32.8773 164.802 33.72C164.013 34.552 163.165 34.968 162.258 34.968C161.351 34.968 160.706 34.712 160.322 34.2C160.237 34.7227 159.778 34.984 158.946 34.984C158.274 34.984 157.863 34.84 157.714 34.552C157.639 34.392 157.591 34.2533 157.57 34.136C157.559 34.008 157.554 33.8213 157.554 33.576V24.024C157.554 23.7787 157.559 23.5973 157.57 23.48C157.591 23.352 157.639 23.2133 157.714 23.064C157.863 22.776 158.279 22.632 158.962 22.632C159.634 22.632 160.039 22.776 160.178 23.064C160.263 23.224 160.311 23.368 160.322 23.496C160.343 23.6133 160.354 23.7947 160.354 24.04V27.368C160.781 26.8453 161.389 26.584 162.178 26.584ZM160.77 31.752C161.037 32.04 161.367 32.184 161.762 32.184C162.157 32.184 162.493 32.04 162.77 31.752C163.047 31.464 163.186 31.144 163.186 30.792C163.186 30.44 163.058 30.12 162.802 29.832C162.546 29.5333 162.205 29.384 161.778 29.384C161.351 29.384 161.01 29.5333 160.754 29.832C160.509 30.1307 160.386 30.456 160.386 30.808C160.386 31.1493 160.514 31.464 160.77 31.752ZM166.783 30.792C166.783 29.512 167.231 28.456 168.127 27.624C169.023 26.792 170.047 26.376 171.199 26.376C172.351 26.376 173.369 26.792 174.255 27.624C175.14 28.4453 175.583 29.496 175.583 30.776C175.583 31.6613 175.353 32.4507 174.895 33.144C174.436 33.8267 173.876 34.3333 173.215 34.664C172.564 34.984 171.887 35.144 171.183 35.144C170.479 35.144 169.796 34.9733 169.135 34.632C168.473 34.28 167.913 33.768 167.455 33.096C167.007 32.4133 166.783 31.6453 166.783 30.792ZM170.127 31.944C170.468 32.2 170.815 32.328 171.167 32.328C171.519 32.328 171.871 32.1947 172.223 31.928C172.575 31.6613 172.751 31.2667 172.751 30.744C172.751 30.2213 172.585 29.832 172.255 29.576C171.924 29.32 171.567 29.192 171.183 29.192C170.799 29.192 170.441 29.3253 170.111 29.592C169.78 29.8587 169.615 30.2533 169.615 30.776C169.615 31.288 169.785 31.6773 170.127 31.944ZM176.377 30.792C176.377 29.512 176.825 28.456 177.721 27.624C178.617 26.792 179.641 26.376 180.793 26.376C181.945 26.376 182.963 26.792 183.849 27.624C184.734 28.4453 185.177 29.496 185.177 30.776C185.177 31.6613 184.947 32.4507 184.489 33.144C184.03 33.8267 183.47 34.3333 182.809 34.664C182.158 34.984 181.481 35.144 180.777 35.144C180.073 35.144 179.39 34.9733 178.729 34.632C178.067 34.28 177.507 33.768 177.049 33.096C176.601 32.4133 176.377 31.6453 176.377 30.792ZM179.721 31.944C180.062 32.2 180.409 32.328 180.761 32.328C181.113 32.328 181.465 32.1947 181.817 31.928C182.169 31.6613 182.345 31.2667 182.345 30.744C182.345 30.2213 182.179 29.832 181.849 29.576C181.518 29.32 181.161 29.192 180.777 29.192C180.393 29.192 180.035 29.3253 179.705 29.592C179.374 29.8587 179.209 30.2533 179.209 30.776C179.209 31.288 179.379 31.6773 179.721 31.944ZM191.17 30.776L193.298 32.536C193.565 32.76 193.73 32.9307 193.794 33.048C193.869 33.1653 193.906 33.2773 193.906 33.384C193.906 33.64 193.741 33.9867 193.41 34.424C193.048 34.872 192.728 35.096 192.45 35.096C192.216 35.096 191.89 34.9413 191.474 34.632L191.314 34.52C191.069 34.3173 190.69 33.9653 190.178 33.464C189.666 32.952 189.277 32.5893 189.01 32.376V33.608C189.01 33.8533 189 34.04 188.978 34.168C188.968 34.2853 188.92 34.424 188.834 34.584C188.696 34.8613 188.285 35 187.602 35C186.93 35 186.52 34.856 186.37 34.568C186.296 34.408 186.248 34.2693 186.226 34.152C186.216 34.024 186.21 33.8373 186.21 33.592V24.008C186.21 23.7627 186.216 23.5813 186.226 23.464C186.248 23.336 186.296 23.192 186.37 23.032C186.52 22.744 186.936 22.6 187.618 22.6C188.13 22.6 188.493 22.6907 188.706 22.872C188.888 23.0213 188.984 23.256 188.994 23.576C189.005 23.672 189.01 23.8213 189.01 24.024V29.096C189.202 28.936 189.49 28.664 189.874 28.28C190.269 27.896 190.562 27.624 190.754 27.464L190.946 27.336C191.32 27.048 191.64 26.904 191.906 26.904C192.173 26.904 192.477 27.1227 192.818 27.56C193.17 27.9867 193.346 28.3227 193.346 28.568C193.346 28.8133 193.149 29.1013 192.754 29.432L191.17 30.776ZM197.268 32.36C197.45 32.5413 197.54 32.9147 197.54 33.48V33.544C197.54 33.8 197.53 33.992 197.508 34.12C197.498 34.2373 197.444 34.3813 197.348 34.552C197.188 34.8613 196.783 35.016 196.132 35.016C195.492 35.016 195.066 34.9147 194.852 34.712C194.65 34.5093 194.548 34.1253 194.548 33.56V33.496C194.548 33.2507 194.554 33.064 194.564 32.936C194.586 32.808 194.639 32.664 194.724 32.504C194.884 32.184 195.284 32.024 195.924 32.024C196.575 32.024 197.023 32.136 197.268 32.36Z" fill="black"/>
<rect x="20" y="49" width="260" height="60" fill="#FFF5EE"/>
<rect x="20" y="149" width="260" height="60" fill="#FF7F50"/>
<path d="M82.7749 163.041H84.8535V163.204H84.7393C84.6631 163.204 84.5518 163.237 84.4053 163.305C84.2588 163.372 84.1255 163.469 84.0054 163.595C83.8853 163.721 83.7373 163.926 83.5615 164.21L82.1245 166.473V167.967C82.1245 168.333 82.1655 168.562 82.2476 168.653C82.3589 168.776 82.5347 168.837 82.7749 168.837H82.9683V169H80.437V168.837H80.6479C80.8999 168.837 81.0786 168.761 81.1841 168.609C81.2485 168.515 81.2808 168.301 81.2808 167.967V166.557L79.646 164.061C79.4526 163.768 79.3208 163.584 79.2505 163.511C79.1831 163.438 79.041 163.35 78.8242 163.248C78.7656 163.218 78.6807 163.204 78.5693 163.204V163.041H81.1182V163.204H80.9863C80.8486 163.204 80.7212 163.236 80.604 163.3C80.4897 163.365 80.4326 163.461 80.4326 163.59C80.4326 163.696 80.522 163.886 80.7007 164.162L81.9443 166.082L83.1133 164.245C83.2891 163.97 83.377 163.765 83.377 163.63C83.377 163.548 83.355 163.475 83.311 163.41C83.27 163.346 83.21 163.296 83.1309 163.261C83.0518 163.223 82.9331 163.204 82.7749 163.204V163.041ZM86.3345 164.856C86.9438 164.856 87.4331 165.087 87.8022 165.55C88.1157 165.946 88.2725 166.4 88.2725 166.913C88.2725 167.273 88.186 167.638 88.0132 168.007C87.8403 168.376 87.6016 168.654 87.2969 168.842C86.9951 169.029 86.6582 169.123 86.2861 169.123C85.6797 169.123 85.1978 168.881 84.8403 168.398C84.5386 167.991 84.3877 167.534 84.3877 167.027C84.3877 166.658 84.4785 166.292 84.6602 165.928C84.8447 165.562 85.0864 165.292 85.3853 165.12C85.6841 164.944 86.0005 164.856 86.3345 164.856ZM86.1982 165.142C86.043 165.142 85.8862 165.188 85.728 165.282C85.5728 165.373 85.4468 165.534 85.3501 165.766C85.2534 165.997 85.2051 166.294 85.2051 166.658C85.2051 167.244 85.3208 167.749 85.5522 168.174C85.7866 168.599 86.0942 168.811 86.4751 168.811C86.7593 168.811 86.9937 168.694 87.1782 168.459C87.3628 168.225 87.4551 167.822 87.4551 167.251C87.4551 166.536 87.3013 165.974 86.9937 165.563C86.7856 165.282 86.5205 165.142 86.1982 165.142ZM92.3945 164.975V167.414C92.3945 167.879 92.4048 168.165 92.4253 168.271C92.4487 168.373 92.4839 168.445 92.5308 168.486C92.5806 168.527 92.6377 168.547 92.7021 168.547C92.793 168.547 92.8955 168.522 93.0098 168.473L93.0713 168.626L91.8672 169.123H91.6694V168.271C91.3237 168.646 91.0601 168.881 90.8784 168.978C90.6968 169.075 90.5049 169.123 90.3027 169.123C90.0771 169.123 89.8809 169.059 89.7139 168.93C89.5498 168.798 89.4355 168.629 89.3711 168.424C89.3066 168.219 89.2744 167.929 89.2744 167.554V165.757C89.2744 165.566 89.2539 165.435 89.2129 165.361C89.1719 165.288 89.1104 165.232 89.0283 165.194C88.9492 165.153 88.8042 165.134 88.5933 165.137V164.975H90.0039V167.668C90.0039 168.043 90.0684 168.29 90.1973 168.407C90.3291 168.524 90.4873 168.583 90.6719 168.583C90.7979 168.583 90.9399 168.543 91.0981 168.464C91.2593 168.385 91.4497 168.234 91.6694 168.011V165.73C91.6694 165.502 91.627 165.348 91.542 165.269C91.46 165.187 91.2871 165.143 91.0234 165.137V164.975H92.3945ZM94.5435 164.856V165.761C94.8804 165.158 95.2261 164.856 95.5806 164.856C95.7417 164.856 95.875 164.906 95.9805 165.005C96.0859 165.102 96.1387 165.215 96.1387 165.344C96.1387 165.458 96.1006 165.555 96.0244 165.634C95.9482 165.713 95.8574 165.752 95.752 165.752C95.6494 165.752 95.5337 165.703 95.4048 165.603C95.2788 165.5 95.1851 165.449 95.1235 165.449C95.0708 165.449 95.0137 165.479 94.9521 165.537C94.8203 165.657 94.6841 165.855 94.5435 166.13V168.06C94.5435 168.282 94.5713 168.451 94.627 168.565C94.665 168.644 94.7324 168.71 94.8291 168.763C94.9258 168.815 95.0649 168.842 95.2466 168.842V169H93.1855V168.842C93.3906 168.842 93.543 168.81 93.6426 168.745C93.7158 168.698 93.7671 168.624 93.7964 168.521C93.811 168.471 93.8184 168.329 93.8184 168.095V166.535C93.8184 166.066 93.8081 165.788 93.7876 165.7C93.77 165.609 93.7349 165.543 93.6821 165.502C93.6323 165.461 93.5693 165.44 93.4932 165.44C93.4023 165.44 93.2998 165.462 93.1855 165.506L93.1416 165.348L94.3589 164.856H94.5435ZM100.186 165.291V167.937C100.186 168.312 100.227 168.549 100.309 168.648C100.417 168.777 100.562 168.842 100.744 168.842H101.109V169H98.7051V168.842H98.8853C99.0024 168.842 99.1094 168.812 99.2061 168.754C99.3027 168.695 99.3687 168.616 99.4038 168.517C99.4419 168.417 99.4609 168.224 99.4609 167.937V165.291H98.6787V164.975H99.4609V164.711C99.4609 164.31 99.5254 163.97 99.6543 163.691C99.7832 163.413 99.9795 163.189 100.243 163.019C100.51 162.846 100.809 162.76 101.14 162.76C101.447 162.76 101.73 162.859 101.988 163.059C102.158 163.19 102.243 163.338 102.243 163.502C102.243 163.59 102.205 163.674 102.128 163.753C102.052 163.829 101.97 163.867 101.882 163.867C101.815 163.867 101.743 163.844 101.667 163.797C101.594 163.747 101.503 163.643 101.395 163.485C101.286 163.324 101.187 163.215 101.096 163.16C101.005 163.104 100.904 163.076 100.792 163.076C100.658 163.076 100.543 163.113 100.45 163.186C100.356 163.256 100.289 163.368 100.248 163.52C100.207 163.669 100.186 164.058 100.186 164.685V164.975H101.223V165.291H100.186ZM102.788 164.856V165.761C103.125 165.158 103.47 164.856 103.825 164.856C103.986 164.856 104.119 164.906 104.225 165.005C104.33 165.102 104.383 165.215 104.383 165.344C104.383 165.458 104.345 165.555 104.269 165.634C104.192 165.713 104.102 165.752 103.996 165.752C103.894 165.752 103.778 165.703 103.649 165.603C103.523 165.5 103.429 165.449 103.368 165.449C103.315 165.449 103.258 165.479 103.196 165.537C103.064 165.657 102.928 165.855 102.788 166.13V168.06C102.788 168.282 102.815 168.451 102.871 168.565C102.909 168.644 102.977 168.71 103.073 168.763C103.17 168.815 103.309 168.842 103.491 168.842V169H101.43V168.842C101.635 168.842 101.787 168.81 101.887 168.745C101.96 168.698 102.011 168.624 102.041 168.521C102.055 168.471 102.062 168.329 102.062 168.095V166.535C102.062 166.066 102.052 165.788 102.032 165.7C102.014 165.609 101.979 165.543 101.926 165.502C101.876 165.461 101.813 165.44 101.737 165.44C101.646 165.44 101.544 165.462 101.43 165.506L101.386 165.348L102.603 164.856H102.788ZM105.631 162.751C105.754 162.751 105.858 162.795 105.943 162.883C106.031 162.968 106.075 163.072 106.075 163.195C106.075 163.318 106.031 163.423 105.943 163.511C105.858 163.599 105.754 163.643 105.631 163.643C105.508 163.643 105.402 163.599 105.314 163.511C105.227 163.423 105.183 163.318 105.183 163.195C105.183 163.072 105.225 162.968 105.31 162.883C105.398 162.795 105.505 162.751 105.631 162.751ZM105.996 164.856V168.09C105.996 168.342 106.013 168.511 106.048 168.596C106.086 168.678 106.141 168.739 106.211 168.78C106.284 168.821 106.416 168.842 106.606 168.842V169H104.651V168.842C104.847 168.842 104.979 168.823 105.046 168.785C105.114 168.747 105.167 168.684 105.205 168.596C105.246 168.508 105.266 168.339 105.266 168.09V166.539C105.266 166.103 105.253 165.82 105.227 165.691C105.206 165.597 105.174 165.533 105.13 165.498C105.086 165.459 105.026 165.44 104.95 165.44C104.868 165.44 104.768 165.462 104.651 165.506L104.589 165.348L105.802 164.856H105.996ZM107.789 166.491C107.786 167.088 107.931 167.557 108.224 167.897C108.517 168.237 108.861 168.407 109.256 168.407C109.52 168.407 109.749 168.335 109.942 168.191C110.138 168.045 110.302 167.796 110.434 167.444L110.57 167.532C110.509 167.934 110.33 168.3 110.034 168.631C109.738 168.959 109.368 169.123 108.922 169.123C108.439 169.123 108.024 168.936 107.679 168.561C107.336 168.183 107.165 167.676 107.165 167.04C107.165 166.352 107.34 165.815 107.692 165.432C108.046 165.045 108.49 164.852 109.023 164.852C109.475 164.852 109.845 165.001 110.135 165.3C110.425 165.596 110.57 165.993 110.57 166.491H107.789ZM107.789 166.236H109.652C109.637 165.978 109.606 165.796 109.56 165.691C109.486 165.527 109.376 165.398 109.23 165.304C109.086 165.21 108.936 165.164 108.777 165.164C108.534 165.164 108.316 165.259 108.123 165.449C107.932 165.637 107.821 165.899 107.789 166.236ZM112.284 165.708C112.756 165.14 113.206 164.856 113.633 164.856C113.853 164.856 114.042 164.912 114.2 165.023C114.358 165.131 114.484 165.312 114.578 165.563C114.643 165.739 114.675 166.009 114.675 166.372V168.09C114.675 168.345 114.695 168.518 114.736 168.609C114.769 168.682 114.82 168.739 114.89 168.78C114.963 168.821 115.097 168.842 115.29 168.842V169H113.299V168.842H113.383C113.57 168.842 113.701 168.814 113.774 168.758C113.85 168.7 113.903 168.615 113.932 168.503C113.944 168.459 113.95 168.322 113.95 168.09V166.442C113.95 166.076 113.901 165.811 113.805 165.647C113.711 165.48 113.551 165.396 113.326 165.396C112.977 165.396 112.63 165.587 112.284 165.968V168.09C112.284 168.363 112.3 168.531 112.333 168.596C112.374 168.681 112.429 168.744 112.5 168.785C112.573 168.823 112.719 168.842 112.939 168.842V169H110.948V168.842H111.036C111.241 168.842 111.379 168.791 111.449 168.688C111.522 168.583 111.559 168.383 111.559 168.09V166.596C111.559 166.113 111.547 165.818 111.524 165.713C111.503 165.607 111.47 165.536 111.423 165.498C111.379 165.459 111.319 165.44 111.243 165.44C111.161 165.44 111.062 165.462 110.948 165.506L110.882 165.348L112.095 164.856H112.284V165.708ZM118.454 168.547C118.258 168.752 118.066 168.9 117.878 168.991C117.691 169.079 117.489 169.123 117.272 169.123C116.833 169.123 116.449 168.94 116.121 168.574C115.792 168.205 115.628 167.731 115.628 167.154C115.628 166.577 115.81 166.05 116.173 165.572C116.537 165.092 117.004 164.852 117.575 164.852C117.93 164.852 118.223 164.964 118.454 165.19V164.447C118.454 163.987 118.442 163.705 118.419 163.599C118.398 163.494 118.365 163.422 118.318 163.384C118.271 163.346 118.212 163.327 118.142 163.327C118.066 163.327 117.965 163.35 117.839 163.397L117.782 163.243L118.981 162.751H119.179V167.405C119.179 167.876 119.189 168.165 119.21 168.271C119.233 168.373 119.269 168.445 119.315 168.486C119.365 168.527 119.422 168.547 119.487 168.547C119.566 168.547 119.671 168.522 119.803 168.473L119.852 168.626L118.656 169.123H118.454V168.547ZM118.454 168.24V166.166C118.437 165.966 118.384 165.785 118.296 165.621C118.208 165.457 118.091 165.333 117.944 165.251C117.801 165.167 117.66 165.124 117.522 165.124C117.265 165.124 117.035 165.24 116.833 165.471C116.566 165.776 116.433 166.221 116.433 166.807C116.433 167.399 116.562 167.853 116.819 168.169C117.077 168.483 117.364 168.64 117.681 168.64C117.947 168.64 118.205 168.506 118.454 168.24ZM120.313 170.499V170.305C120.615 170.206 120.848 170.05 121.012 169.839C121.179 169.631 121.262 169.41 121.262 169.176C121.262 169.12 121.249 169.073 121.223 169.035C121.202 169.009 121.182 168.996 121.161 168.996C121.129 168.996 121.059 169.025 120.95 169.083C120.897 169.11 120.842 169.123 120.783 169.123C120.64 169.123 120.525 169.081 120.44 168.996C120.355 168.911 120.313 168.793 120.313 168.644C120.313 168.5 120.367 168.377 120.476 168.275C120.587 168.172 120.722 168.121 120.88 168.121C121.073 168.121 121.245 168.206 121.394 168.376C121.546 168.543 121.623 168.766 121.623 169.044C121.623 169.346 121.517 169.625 121.306 169.883C121.098 170.144 120.767 170.349 120.313 170.499ZM126.18 165.805H128.948V164.1C128.948 163.795 128.929 163.595 128.891 163.498C128.862 163.425 128.8 163.362 128.707 163.309C128.581 163.239 128.447 163.204 128.307 163.204H128.096V163.041H130.645V163.204H130.434C130.293 163.204 130.16 163.237 130.034 163.305C129.94 163.352 129.875 163.423 129.84 163.52C129.808 163.614 129.792 163.807 129.792 164.1V167.945C129.792 168.247 129.811 168.446 129.849 168.543C129.878 168.616 129.938 168.679 130.029 168.732C130.158 168.802 130.293 168.837 130.434 168.837H130.645V169H128.096V168.837H128.307C128.55 168.837 128.727 168.766 128.838 168.622C128.912 168.528 128.948 168.303 128.948 167.945V166.13H126.18V167.945C126.18 168.247 126.199 168.446 126.237 168.543C126.266 168.616 126.328 168.679 126.421 168.732C126.547 168.802 126.681 168.837 126.821 168.837H127.037V169H124.483V168.837H124.694C124.94 168.837 125.119 168.766 125.23 168.622C125.301 168.528 125.336 168.303 125.336 167.945V164.1C125.336 163.795 125.317 163.595 125.279 163.498C125.25 163.425 125.189 163.362 125.099 163.309C124.97 163.239 124.835 163.204 124.694 163.204H124.483V163.041H127.037V163.204H126.821C126.681 163.204 126.547 163.237 126.421 163.305C126.331 163.352 126.268 163.423 126.232 163.52C126.197 163.614 126.18 163.807 126.18 164.1V165.805ZM133.396 168.42C132.982 168.739 132.723 168.924 132.618 168.974C132.459 169.047 132.291 169.083 132.112 169.083C131.834 169.083 131.604 168.988 131.422 168.798C131.244 168.607 131.154 168.357 131.154 168.046C131.154 167.85 131.198 167.68 131.286 167.537C131.406 167.337 131.614 167.15 131.91 166.974C132.209 166.798 132.704 166.584 133.396 166.333V166.174C133.396 165.773 133.331 165.498 133.202 165.348C133.076 165.199 132.892 165.124 132.648 165.124C132.464 165.124 132.317 165.174 132.209 165.273C132.098 165.373 132.042 165.487 132.042 165.616L132.051 165.871C132.051 166.006 132.016 166.11 131.945 166.183C131.878 166.256 131.789 166.293 131.677 166.293C131.569 166.293 131.479 166.255 131.409 166.179C131.342 166.103 131.308 165.999 131.308 165.867C131.308 165.615 131.437 165.383 131.695 165.172C131.953 164.961 132.314 164.856 132.78 164.856C133.138 164.856 133.431 164.916 133.659 165.036C133.832 165.127 133.959 165.269 134.042 165.462C134.094 165.588 134.121 165.846 134.121 166.236V167.603C134.121 167.986 134.128 168.222 134.143 168.31C134.157 168.395 134.181 168.452 134.213 168.481C134.248 168.511 134.288 168.525 134.332 168.525C134.378 168.525 134.419 168.515 134.455 168.495C134.516 168.457 134.635 168.35 134.811 168.174V168.42C134.482 168.859 134.169 169.079 133.87 169.079C133.727 169.079 133.612 169.029 133.527 168.93C133.442 168.83 133.398 168.66 133.396 168.42ZM133.396 168.134V166.601C132.953 166.776 132.667 166.901 132.539 166.974C132.307 167.103 132.142 167.238 132.042 167.378C131.942 167.519 131.893 167.673 131.893 167.84C131.893 168.051 131.956 168.227 132.082 168.367C132.208 168.505 132.353 168.574 132.517 168.574C132.739 168.574 133.032 168.427 133.396 168.134ZM136.292 164.856V165.761C136.628 165.158 136.974 164.856 137.329 164.856C137.49 164.856 137.623 164.906 137.729 165.005C137.834 165.102 137.887 165.215 137.887 165.344C137.887 165.458 137.849 165.555 137.772 165.634C137.696 165.713 137.605 165.752 137.5 165.752C137.397 165.752 137.282 165.703 137.153 165.603C137.027 165.5 136.933 165.449 136.872 165.449C136.819 165.449 136.762 165.479 136.7 165.537C136.568 165.657 136.432 165.855 136.292 166.13V168.06C136.292 168.282 136.319 168.451 136.375 168.565C136.413 168.644 136.48 168.71 136.577 168.763C136.674 168.815 136.813 168.842 136.995 168.842V169H134.934V168.842C135.139 168.842 135.291 168.81 135.391 168.745C135.464 168.698 135.515 168.624 135.544 168.521C135.559 168.471 135.566 168.329 135.566 168.095V166.535C135.566 166.066 135.556 165.788 135.536 165.7C135.518 165.609 135.483 165.543 135.43 165.502C135.38 165.461 135.317 165.44 135.241 165.44C135.15 165.44 135.048 165.462 134.934 165.506L134.89 165.348L136.107 164.856H136.292ZM139.289 164.856V165.761C139.625 165.158 139.971 164.856 140.326 164.856C140.487 164.856 140.62 164.906 140.726 165.005C140.831 165.102 140.884 165.215 140.884 165.344C140.884 165.458 140.846 165.555 140.77 165.634C140.693 165.713 140.603 165.752 140.497 165.752C140.395 165.752 140.279 165.703 140.15 165.603C140.024 165.5 139.93 165.449 139.869 165.449C139.816 165.449 139.759 165.479 139.697 165.537C139.565 165.657 139.429 165.855 139.289 166.13V168.06C139.289 168.282 139.316 168.451 139.372 168.565C139.41 168.644 139.478 168.71 139.574 168.763C139.671 168.815 139.81 168.842 139.992 168.842V169H137.931V168.842C138.136 168.842 138.288 168.81 138.388 168.745C138.461 168.698 138.512 168.624 138.542 168.521C138.556 168.471 138.563 168.329 138.563 168.095V166.535C138.563 166.066 138.553 165.788 138.533 165.7C138.515 165.609 138.48 165.543 138.427 165.502C138.377 165.461 138.314 165.44 138.238 165.44C138.147 165.44 138.045 165.462 137.931 165.506L137.887 165.348L139.104 164.856H139.289ZM140.879 164.975H142.756V165.137H142.664C142.532 165.137 142.432 165.167 142.365 165.225C142.3 165.281 142.268 165.351 142.268 165.436C142.268 165.55 142.316 165.708 142.413 165.911L143.393 167.941L144.294 165.717C144.344 165.597 144.369 165.479 144.369 165.361C144.369 165.309 144.358 165.269 144.338 165.243C144.314 165.21 144.278 165.186 144.228 165.168C144.178 165.147 144.09 165.137 143.964 165.137V164.975H145.274V165.137C145.166 165.149 145.082 165.172 145.023 165.208C144.965 165.243 144.9 165.309 144.83 165.405C144.804 165.446 144.754 165.559 144.681 165.744L143.042 169.76C142.883 170.15 142.675 170.444 142.417 170.644C142.163 170.843 141.917 170.942 141.679 170.942C141.506 170.942 141.364 170.893 141.253 170.793C141.142 170.693 141.086 170.579 141.086 170.45C141.086 170.327 141.125 170.228 141.205 170.151C141.287 170.078 141.398 170.042 141.539 170.042C141.635 170.042 141.767 170.074 141.934 170.138C142.051 170.182 142.125 170.204 142.154 170.204C142.242 170.204 142.337 170.159 142.439 170.068C142.545 169.977 142.65 169.801 142.756 169.541L143.042 168.842L141.596 165.805C141.552 165.714 141.481 165.602 141.385 165.467C141.312 165.364 141.251 165.295 141.205 165.26C141.137 165.213 141.029 165.172 140.879 165.137V164.975ZM145.221 170.499V170.305C145.523 170.206 145.756 170.05 145.92 169.839C146.087 169.631 146.17 169.41 146.17 169.176C146.17 169.12 146.157 169.073 146.131 169.035C146.11 169.009 146.09 168.996 146.069 168.996C146.037 168.996 145.967 169.025 145.858 169.083C145.806 169.11 145.75 169.123 145.691 169.123C145.548 169.123 145.434 169.081 145.349 168.996C145.264 168.911 145.221 168.793 145.221 168.644C145.221 168.5 145.275 168.377 145.384 168.275C145.495 168.172 145.63 168.121 145.788 168.121C145.981 168.121 146.153 168.206 146.302 168.376C146.455 168.543 146.531 168.766 146.531 169.044C146.531 169.346 146.425 169.625 146.214 169.883C146.006 170.144 145.675 170.349 145.221 170.499ZM150.539 162.747C150.665 162.747 150.771 162.791 150.859 162.878C150.947 162.966 150.991 163.073 150.991 163.199C150.991 163.322 150.947 163.428 150.859 163.516C150.771 163.604 150.665 163.647 150.539 163.647C150.416 163.647 150.31 163.604 150.222 163.516C150.134 163.428 150.09 163.322 150.09 163.199C150.09 163.073 150.134 162.966 150.222 162.878C150.31 162.791 150.416 162.747 150.539 162.747ZM150.917 164.856V168.908C150.917 169.596 150.77 170.107 150.477 170.441C150.184 170.775 149.803 170.942 149.334 170.942C149.068 170.942 148.87 170.894 148.741 170.797C148.612 170.701 148.548 170.601 148.548 170.499C148.548 170.396 148.584 170.308 148.658 170.235C148.728 170.162 148.812 170.125 148.908 170.125C148.984 170.125 149.062 170.144 149.141 170.182C149.191 170.203 149.286 170.276 149.427 170.402C149.57 170.531 149.69 170.595 149.787 170.595C149.857 170.595 149.926 170.567 149.994 170.512C150.061 170.459 150.111 170.368 150.143 170.239C150.175 170.113 150.191 169.838 150.191 169.413V166.548C150.191 166.105 150.178 165.821 150.152 165.695C150.131 165.599 150.099 165.533 150.055 165.498C150.011 165.459 149.951 165.44 149.875 165.44C149.793 165.44 149.693 165.462 149.576 165.506L149.515 165.348L150.728 164.856H150.917ZM155.553 164.975V167.414C155.553 167.879 155.563 168.165 155.583 168.271C155.607 168.373 155.642 168.445 155.689 168.486C155.739 168.527 155.796 168.547 155.86 168.547C155.951 168.547 156.054 168.522 156.168 168.473L156.229 168.626L155.025 169.123H154.828V168.271C154.482 168.646 154.218 168.881 154.037 168.978C153.855 169.075 153.663 169.123 153.461 169.123C153.235 169.123 153.039 169.059 152.872 168.93C152.708 168.798 152.594 168.629 152.529 168.424C152.465 168.219 152.433 167.929 152.433 167.554V165.757C152.433 165.566 152.412 165.435 152.371 165.361C152.33 165.288 152.269 165.232 152.187 165.194C152.107 165.153 151.962 165.134 151.751 165.137V164.975H153.162V167.668C153.162 168.043 153.227 168.29 153.355 168.407C153.487 168.524 153.646 168.583 153.83 168.583C153.956 168.583 154.098 168.543 154.256 168.464C154.417 168.385 154.608 168.234 154.828 168.011V165.73C154.828 165.502 154.785 165.348 154.7 165.269C154.618 165.187 154.445 165.143 154.182 165.137V164.975H155.553ZM159.125 164.856V166.227H158.98C158.869 165.796 158.726 165.503 158.55 165.348C158.377 165.193 158.156 165.115 157.886 165.115C157.681 165.115 157.516 165.169 157.39 165.278C157.264 165.386 157.201 165.506 157.201 165.638C157.201 165.802 157.248 165.943 157.341 166.06C157.432 166.18 157.617 166.308 157.895 166.442L158.537 166.754C159.131 167.044 159.429 167.427 159.429 167.901C159.429 168.268 159.29 168.563 159.011 168.789C158.736 169.012 158.427 169.123 158.084 169.123C157.838 169.123 157.557 169.079 157.24 168.991C157.144 168.962 157.064 168.947 157.003 168.947C156.936 168.947 156.883 168.985 156.845 169.062H156.7V167.625H156.845C156.927 168.035 157.083 168.344 157.315 168.552C157.546 168.76 157.806 168.864 158.093 168.864C158.295 168.864 158.459 168.805 158.585 168.688C158.714 168.568 158.778 168.424 158.778 168.257C158.778 168.055 158.707 167.885 158.563 167.748C158.422 167.61 158.14 167.436 157.715 167.225C157.29 167.014 157.012 166.823 156.88 166.653C156.748 166.486 156.682 166.275 156.682 166.021C156.682 165.689 156.795 165.413 157.021 165.19C157.249 164.967 157.543 164.856 157.904 164.856C158.062 164.856 158.254 164.89 158.479 164.957C158.629 165.001 158.729 165.023 158.778 165.023C158.825 165.023 158.862 165.013 158.888 164.992C158.915 164.972 158.945 164.926 158.98 164.856H159.125ZM161.2 163.652V164.975H162.14V165.282H161.2V167.893C161.2 168.153 161.236 168.329 161.31 168.42C161.386 168.511 161.482 168.556 161.6 168.556C161.696 168.556 161.79 168.527 161.881 168.468C161.972 168.407 162.042 168.317 162.092 168.2H162.263C162.161 168.487 162.016 168.704 161.828 168.851C161.641 168.994 161.447 169.066 161.248 169.066C161.113 169.066 160.981 169.029 160.853 168.956C160.724 168.88 160.628 168.773 160.567 168.635C160.505 168.495 160.475 168.279 160.475 167.989V165.282H159.837V165.137C159.999 165.073 160.163 164.964 160.33 164.812C160.5 164.657 160.65 164.474 160.782 164.263C160.85 164.151 160.943 163.948 161.063 163.652H161.2ZM167.387 164.856V166.227H167.242C167.131 165.796 166.987 165.503 166.812 165.348C166.639 165.193 166.417 165.115 166.148 165.115C165.943 165.115 165.777 165.169 165.651 165.278C165.525 165.386 165.462 165.506 165.462 165.638C165.462 165.802 165.509 165.943 165.603 166.06C165.694 166.18 165.878 166.308 166.157 166.442L166.798 166.754C167.393 167.044 167.69 167.427 167.69 167.901C167.69 168.268 167.551 168.563 167.273 168.789C166.998 169.012 166.688 169.123 166.346 169.123C166.1 169.123 165.818 169.079 165.502 168.991C165.405 168.962 165.326 168.947 165.265 168.947C165.197 168.947 165.145 168.985 165.106 169.062H164.961V167.625H165.106C165.188 168.035 165.345 168.344 165.577 168.552C165.808 168.76 166.067 168.864 166.354 168.864C166.557 168.864 166.721 168.805 166.847 168.688C166.976 168.568 167.04 168.424 167.04 168.257C167.04 168.055 166.968 167.885 166.825 167.748C166.684 167.61 166.401 167.436 165.977 167.225C165.552 167.014 165.273 166.823 165.142 166.653C165.01 166.486 164.944 166.275 164.944 166.021C164.944 165.689 165.057 165.413 165.282 165.19C165.511 164.967 165.805 164.856 166.166 164.856C166.324 164.856 166.516 164.89 166.741 164.957C166.891 165.001 166.99 165.023 167.04 165.023C167.087 165.023 167.124 165.013 167.15 164.992C167.176 164.972 167.207 164.926 167.242 164.856H167.387ZM169.475 162.751V165.695C169.8 165.338 170.058 165.109 170.248 165.01C170.438 164.907 170.629 164.856 170.819 164.856C171.048 164.856 171.244 164.919 171.408 165.045C171.572 165.171 171.694 165.369 171.773 165.638C171.829 165.826 171.856 166.168 171.856 166.667V168.09C171.856 168.345 171.877 168.52 171.918 168.613C171.947 168.684 171.997 168.739 172.067 168.78C172.138 168.821 172.267 168.842 172.454 168.842V169H170.477V168.842H170.569C170.756 168.842 170.887 168.814 170.96 168.758C171.033 168.7 171.084 168.615 171.114 168.503C171.123 168.457 171.127 168.319 171.127 168.09V166.667C171.127 166.227 171.104 165.938 171.057 165.801C171.013 165.663 170.941 165.561 170.841 165.493C170.742 165.423 170.622 165.388 170.481 165.388C170.337 165.388 170.188 165.426 170.033 165.502C169.877 165.578 169.691 165.732 169.475 165.963V168.09C169.475 168.366 169.489 168.537 169.519 168.604C169.551 168.672 169.608 168.729 169.69 168.776C169.775 168.82 169.92 168.842 170.125 168.842V169H168.13V168.842C168.309 168.842 168.449 168.814 168.552 168.758C168.61 168.729 168.657 168.673 168.692 168.591C168.728 168.509 168.745 168.342 168.745 168.09V164.447C168.745 163.987 168.733 163.705 168.71 163.599C168.689 163.494 168.656 163.422 168.609 163.384C168.565 163.346 168.505 163.327 168.429 163.327C168.367 163.327 168.268 163.35 168.13 163.397L168.068 163.243L169.272 162.751H169.475ZM175.073 168.42C174.66 168.739 174.401 168.924 174.295 168.974C174.137 169.047 173.969 169.083 173.79 169.083C173.512 169.083 173.282 168.988 173.1 168.798C172.921 168.607 172.832 168.357 172.832 168.046C172.832 167.85 172.876 167.68 172.964 167.537C173.084 167.337 173.292 167.15 173.588 166.974C173.887 166.798 174.382 166.584 175.073 166.333V166.174C175.073 165.773 175.009 165.498 174.88 165.348C174.754 165.199 174.569 165.124 174.326 165.124C174.142 165.124 173.995 165.174 173.887 165.273C173.775 165.373 173.72 165.487 173.72 165.616L173.729 165.871C173.729 166.006 173.693 166.11 173.623 166.183C173.556 166.256 173.466 166.293 173.355 166.293C173.247 166.293 173.157 166.255 173.087 166.179C173.02 166.103 172.986 165.999 172.986 165.867C172.986 165.615 173.115 165.383 173.373 165.172C173.63 164.961 173.992 164.856 174.458 164.856C174.815 164.856 175.108 164.916 175.337 165.036C175.51 165.127 175.637 165.269 175.719 165.462C175.772 165.588 175.798 165.846 175.798 166.236V167.603C175.798 167.986 175.806 168.222 175.82 168.31C175.835 168.395 175.858 168.452 175.891 168.481C175.926 168.511 175.965 168.525 176.009 168.525C176.056 168.525 176.097 168.515 176.132 168.495C176.194 168.457 176.312 168.35 176.488 168.174V168.42C176.16 168.859 175.847 169.079 175.548 169.079C175.404 169.079 175.29 169.029 175.205 168.93C175.12 168.83 175.076 168.66 175.073 168.42ZM175.073 168.134V166.601C174.631 166.776 174.345 166.901 174.216 166.974C173.985 167.103 173.819 167.238 173.72 167.378C173.62 167.519 173.57 167.673 173.57 167.84C173.57 168.051 173.633 168.227 173.759 168.367C173.885 168.505 174.03 168.574 174.194 168.574C174.417 168.574 174.71 168.427 175.073 168.134ZM177.969 164.856V165.761C178.306 165.158 178.652 164.856 179.006 164.856C179.167 164.856 179.301 164.906 179.406 165.005C179.512 165.102 179.564 165.215 179.564 165.344C179.564 165.458 179.526 165.555 179.45 165.634C179.374 165.713 179.283 165.752 179.178 165.752C179.075 165.752 178.959 165.703 178.831 165.603C178.705 165.5 178.611 165.449 178.549 165.449C178.497 165.449 178.439 165.479 178.378 165.537C178.246 165.657 178.11 165.855 177.969 166.13V168.06C177.969 168.282 177.997 168.451 178.053 168.565C178.091 168.644 178.158 168.71 178.255 168.763C178.352 168.815 178.491 168.842 178.672 168.842V169H176.611V168.842C176.816 168.842 176.969 168.81 177.068 168.745C177.142 168.698 177.193 168.624 177.222 168.521C177.237 168.471 177.244 168.329 177.244 168.095V166.535C177.244 166.066 177.234 165.788 177.213 165.7C177.196 165.609 177.161 165.543 177.108 165.502C177.058 165.461 176.995 165.44 176.919 165.44C176.828 165.44 176.726 165.462 176.611 165.506L176.567 165.348L177.785 164.856H177.969ZM180.465 166.491C180.462 167.088 180.607 167.557 180.9 167.897C181.193 168.237 181.538 168.407 181.933 168.407C182.197 168.407 182.425 168.335 182.619 168.191C182.815 168.045 182.979 167.796 183.111 167.444L183.247 167.532C183.186 167.934 183.007 168.3 182.711 168.631C182.415 168.959 182.044 169.123 181.599 169.123C181.116 169.123 180.701 168.936 180.355 168.561C180.013 168.183 179.841 167.676 179.841 167.04C179.841 166.352 180.017 165.815 180.369 165.432C180.723 165.045 181.167 164.852 181.7 164.852C182.151 164.852 182.522 165.001 182.812 165.3C183.102 165.596 183.247 165.993 183.247 166.491H180.465ZM180.465 166.236H182.329C182.314 165.978 182.283 165.796 182.236 165.691C182.163 165.527 182.053 165.398 181.907 165.304C181.763 165.21 181.612 165.164 181.454 165.164C181.211 165.164 180.993 165.259 180.799 165.449C180.609 165.637 180.498 165.899 180.465 166.236ZM186.631 168.547C186.435 168.752 186.243 168.9 186.055 168.991C185.868 169.079 185.666 169.123 185.449 169.123C185.009 169.123 184.625 168.94 184.297 168.574C183.969 168.205 183.805 167.731 183.805 167.154C183.805 166.577 183.987 166.05 184.35 165.572C184.713 165.092 185.181 164.852 185.752 164.852C186.106 164.852 186.399 164.964 186.631 165.19V164.447C186.631 163.987 186.619 163.705 186.596 163.599C186.575 163.494 186.542 163.422 186.495 163.384C186.448 163.346 186.389 163.327 186.319 163.327C186.243 163.327 186.142 163.35 186.016 163.397L185.958 163.243L187.158 162.751H187.356V167.405C187.356 167.876 187.366 168.165 187.387 168.271C187.41 168.373 187.445 168.445 187.492 168.486C187.542 168.527 187.599 168.547 187.664 168.547C187.743 168.547 187.848 168.522 187.98 168.473L188.028 168.626L186.833 169.123H186.631V168.547ZM186.631 168.24V166.166C186.613 165.966 186.561 165.785 186.473 165.621C186.385 165.457 186.268 165.333 186.121 165.251C185.978 165.167 185.837 165.124 185.699 165.124C185.441 165.124 185.211 165.24 185.009 165.471C184.743 165.776 184.609 166.221 184.609 166.807C184.609 167.399 184.738 167.853 184.996 168.169C185.254 168.483 185.541 168.64 185.857 168.64C186.124 168.64 186.382 168.506 186.631 168.24ZM192.818 168.42C192.405 168.739 192.146 168.924 192.041 168.974C191.882 169.047 191.714 169.083 191.535 169.083C191.257 169.083 191.027 168.988 190.845 168.798C190.667 168.607 190.577 168.357 190.577 168.046C190.577 167.85 190.621 167.68 190.709 167.537C190.829 167.337 191.037 167.15 191.333 166.974C191.632 166.798 192.127 166.584 192.818 166.333V166.174C192.818 165.773 192.754 165.498 192.625 165.348C192.499 165.199 192.314 165.124 192.071 165.124C191.887 165.124 191.74 165.174 191.632 165.273C191.521 165.373 191.465 165.487 191.465 165.616L191.474 165.871C191.474 166.006 191.438 166.11 191.368 166.183C191.301 166.256 191.211 166.293 191.1 166.293C190.992 166.293 190.902 166.255 190.832 166.179C190.765 166.103 190.731 165.999 190.731 165.867C190.731 165.615 190.86 165.383 191.118 165.172C191.375 164.961 191.737 164.856 192.203 164.856C192.561 164.856 192.854 164.916 193.082 165.036C193.255 165.127 193.382 165.269 193.464 165.462C193.517 165.588 193.543 165.846 193.543 166.236V167.603C193.543 167.986 193.551 168.222 193.565 168.31C193.58 168.395 193.604 168.452 193.636 168.481C193.671 168.511 193.71 168.525 193.754 168.525C193.801 168.525 193.842 168.515 193.877 168.495C193.939 168.457 194.058 168.35 194.233 168.174V168.42C193.905 168.859 193.592 169.079 193.293 169.079C193.149 169.079 193.035 169.029 192.95 168.93C192.865 168.83 192.821 168.66 192.818 168.42ZM192.818 168.134V166.601C192.376 166.776 192.09 166.901 191.961 166.974C191.73 167.103 191.564 167.238 191.465 167.378C191.365 167.519 191.315 167.673 191.315 167.84C191.315 168.051 191.378 168.227 191.504 168.367C191.63 168.505 191.775 168.574 191.939 168.574C192.162 168.574 192.455 168.427 192.818 168.134ZM196.497 165.375L197.736 164.874H197.903V165.814C198.111 165.459 198.319 165.212 198.527 165.071C198.738 164.928 198.959 164.856 199.19 164.856C199.595 164.856 199.932 165.014 200.201 165.331C200.532 165.717 200.698 166.221 200.698 166.842C200.698 167.537 200.499 168.111 200.1 168.565C199.772 168.937 199.359 169.123 198.861 169.123C198.644 169.123 198.457 169.092 198.298 169.031C198.181 168.987 198.049 168.899 197.903 168.767V169.993C197.903 170.269 197.919 170.443 197.951 170.516C197.986 170.592 198.045 170.652 198.127 170.696C198.212 170.74 198.364 170.762 198.584 170.762V170.925H196.475V170.762H196.584C196.746 170.765 196.883 170.734 196.998 170.67C197.053 170.638 197.096 170.585 197.125 170.512C197.157 170.441 197.173 170.26 197.173 169.967V166.161C197.173 165.9 197.162 165.735 197.138 165.665C197.115 165.594 197.077 165.542 197.024 165.506C196.974 165.471 196.905 165.454 196.817 165.454C196.747 165.454 196.658 165.474 196.549 165.515L196.497 165.375ZM197.903 166.073V167.576C197.903 167.901 197.916 168.115 197.942 168.218C197.983 168.388 198.083 168.537 198.241 168.666C198.402 168.795 198.604 168.859 198.848 168.859C199.141 168.859 199.378 168.745 199.56 168.517C199.797 168.218 199.916 167.797 199.916 167.255C199.916 166.64 199.781 166.167 199.511 165.836C199.324 165.607 199.101 165.493 198.843 165.493C198.703 165.493 198.563 165.528 198.426 165.599C198.32 165.651 198.146 165.81 197.903 166.073ZM203.255 164.856C203.865 164.856 204.354 165.087 204.723 165.55C205.037 165.946 205.193 166.4 205.193 166.913C205.193 167.273 205.107 167.638 204.934 168.007C204.761 168.376 204.522 168.654 204.218 168.842C203.916 169.029 203.579 169.123 203.207 169.123C202.601 169.123 202.119 168.881 201.761 168.398C201.459 167.991 201.309 167.534 201.309 167.027C201.309 166.658 201.399 166.292 201.581 165.928C201.766 165.562 202.007 165.292 202.306 165.12C202.605 164.944 202.921 164.856 203.255 164.856ZM203.119 165.142C202.964 165.142 202.807 165.188 202.649 165.282C202.494 165.373 202.368 165.534 202.271 165.766C202.174 165.997 202.126 166.294 202.126 166.658C202.126 167.244 202.242 167.749 202.473 168.174C202.708 168.599 203.015 168.811 203.396 168.811C203.68 168.811 203.915 168.694 204.099 168.459C204.284 168.225 204.376 167.822 204.376 167.251C204.376 166.536 204.222 165.974 203.915 165.563C203.707 165.282 203.441 165.142 203.119 165.142ZM208.388 164.856V166.227H208.243C208.132 165.796 207.988 165.503 207.812 165.348C207.64 165.193 207.418 165.115 207.149 165.115C206.944 165.115 206.778 165.169 206.652 165.278C206.526 165.386 206.463 165.506 206.463 165.638C206.463 165.802 206.51 165.943 206.604 166.06C206.695 166.18 206.879 166.308 207.158 166.442L207.799 166.754C208.394 167.044 208.691 167.427 208.691 167.901C208.691 168.268 208.552 168.563 208.274 168.789C207.999 169.012 207.689 169.123 207.347 169.123C207.101 169.123 206.819 169.079 206.503 168.991C206.406 168.962 206.327 168.947 206.266 168.947C206.198 168.947 206.146 168.985 206.107 169.062H205.962V167.625H206.107C206.189 168.035 206.346 168.344 206.578 168.552C206.809 168.76 207.068 168.864 207.355 168.864C207.558 168.864 207.722 168.805 207.848 168.688C207.977 168.568 208.041 168.424 208.041 168.257C208.041 168.055 207.969 167.885 207.826 167.748C207.685 167.61 207.402 167.436 206.978 167.225C206.553 167.014 206.274 166.823 206.143 166.653C206.011 166.486 205.945 166.275 205.945 166.021C205.945 165.689 206.058 165.413 206.283 165.19C206.512 164.967 206.806 164.856 207.167 164.856C207.325 164.856 207.517 164.89 207.742 164.957C207.892 165.001 207.991 165.023 208.041 165.023C208.088 165.023 208.125 165.013 208.151 164.992C208.177 164.972 208.208 164.926 208.243 164.856H208.388ZM210.462 163.652V164.975H211.403V165.282H210.462V167.893C210.462 168.153 210.499 168.329 210.572 168.42C210.648 168.511 210.745 168.556 210.862 168.556C210.959 168.556 211.053 168.527 211.144 168.468C211.234 168.407 211.305 168.317 211.354 168.2H211.526C211.423 168.487 211.278 168.704 211.091 168.851C210.903 168.994 210.71 169.066 210.511 169.066C210.376 169.066 210.244 169.029 210.115 168.956C209.986 168.88 209.891 168.773 209.83 168.635C209.768 168.495 209.737 168.279 209.737 167.989V165.282H209.1V165.137C209.261 165.073 209.425 164.964 209.592 164.812C209.762 164.657 209.913 164.474 210.045 164.263C210.112 164.151 210.206 163.948 210.326 163.652H210.462ZM213.099 167.422H212.932L212.545 163.863C212.528 163.708 212.519 163.592 212.519 163.516C212.519 163.331 212.567 163.183 212.664 163.072C212.764 162.96 212.882 162.905 213.02 162.905C213.158 162.905 213.273 162.96 213.367 163.072C213.464 163.183 213.512 163.349 213.512 163.568C213.512 163.639 213.506 163.737 213.495 163.863L213.099 167.422ZM213.011 168.152C213.146 168.152 213.26 168.2 213.354 168.297C213.451 168.391 213.499 168.503 213.499 168.635C213.499 168.77 213.451 168.886 213.354 168.982C213.26 169.076 213.146 169.123 213.011 169.123C212.876 169.123 212.761 169.076 212.664 168.982C212.57 168.886 212.523 168.77 212.523 168.635C212.523 168.503 212.57 168.391 212.664 168.297C212.761 168.2 212.876 168.152 213.011 168.152Z" fill="black"/>
<path d="M30.2435 61.268H30.8875C30.9568 61.268 31.0142 61.2853 31.0595 61.32C31.1048 61.3547 31.1355 61.3987 31.1515 61.452L32.3355 65.436C32.3568 65.508 32.3755 65.5853 32.3915 65.668C32.4102 65.7507 32.4275 65.8373 32.4435 65.928C32.4622 65.8373 32.4808 65.7507 32.4995 65.668C32.5182 65.5827 32.5395 65.5053 32.5635 65.436L33.9115 61.452C33.9275 61.4067 33.9582 61.3653 34.0035 61.328C34.0515 61.288 34.1088 61.268 34.1755 61.268H34.3995C34.4688 61.268 34.5248 61.2853 34.5675 61.32C34.6128 61.3547 34.6448 61.3987 34.6635 61.452L36.0035 65.436C36.0515 65.5747 36.0942 65.7333 36.1315 65.912C36.1475 65.824 36.1622 65.74 36.1755 65.66C36.1888 65.58 36.2062 65.5053 36.2275 65.436L37.4155 61.452C37.4288 61.404 37.4582 61.3613 37.5035 61.324C37.5515 61.2867 37.6088 61.268 37.6755 61.268H38.2795L36.4915 67H35.7955L34.3435 62.628C34.3142 62.5453 34.2875 62.4493 34.2635 62.34C34.2502 62.3933 34.2368 62.4453 34.2235 62.496C34.2128 62.544 34.2008 62.588 34.1875 62.628L32.7275 67H32.0315L30.2435 61.268ZM38.9199 67V61.108H39.6319V63.492C39.8053 63.308 39.9973 63.1613 40.2079 63.052C40.4186 62.94 40.6613 62.884 40.9359 62.884C41.1573 62.884 41.3519 62.9213 41.5199 62.996C41.6906 63.068 41.8319 63.172 41.9439 63.308C42.0586 63.4413 42.1453 63.6027 42.2039 63.792C42.2626 63.9813 42.2919 64.1907 42.2919 64.42V67H41.5799V64.42C41.5799 64.1133 41.5093 63.876 41.3679 63.708C41.2293 63.5373 41.0159 63.452 40.7279 63.452C40.5173 63.452 40.3199 63.5027 40.1359 63.604C39.9546 63.7053 39.7866 63.8427 39.6319 64.016V67H38.9199ZM46.3413 67H46.0253C45.9559 67 45.8999 66.9893 45.8573 66.968C45.8146 66.9467 45.7866 66.9013 45.7733 66.832L45.6933 66.456C45.5866 66.552 45.4826 66.6387 45.3813 66.716C45.2799 66.7907 45.1733 66.8547 45.0613 66.908C44.9493 66.9587 44.8293 66.9973 44.7013 67.024C44.5759 67.0507 44.4359 67.064 44.2813 67.064C44.1239 67.064 43.9759 67.0427 43.8372 67C43.7013 66.9547 43.5826 66.888 43.4813 66.8C43.3799 66.712 43.2986 66.6013 43.2373 66.468C43.1786 66.332 43.1493 66.172 43.1493 65.988C43.1493 65.828 43.1933 65.6747 43.2812 65.528C43.3693 65.3787 43.5106 65.2467 43.7053 65.132C43.9026 65.0173 44.1599 64.924 44.4773 64.852C44.7946 64.7773 45.1826 64.7347 45.6413 64.724V64.408C45.6413 64.0933 45.5733 63.856 45.4373 63.696C45.3039 63.5333 45.1053 63.452 44.8413 63.452C44.6679 63.452 44.5213 63.4747 44.4013 63.52C44.2839 63.5627 44.1813 63.612 44.0933 63.668C44.0079 63.7213 43.9333 63.7707 43.8693 63.816C43.8079 63.8587 43.7466 63.88 43.6853 63.88C43.6373 63.88 43.5946 63.868 43.5573 63.844C43.5226 63.8173 43.4946 63.7853 43.4733 63.748L43.3453 63.52C43.5693 63.304 43.8106 63.1427 44.0693 63.036C44.3279 62.9293 44.6146 62.876 44.9293 62.876C45.1559 62.876 45.3573 62.9133 45.5333 62.988C45.7093 63.0627 45.8573 63.1667 45.9773 63.3C46.0973 63.4333 46.1879 63.5947 46.2493 63.784C46.3106 63.9733 46.3413 64.1813 46.3413 64.408V67ZM44.4933 66.564C44.6186 66.564 44.7333 66.552 44.8372 66.528C44.9413 66.5013 45.0386 66.4653 45.1293 66.42C45.2226 66.372 45.3106 66.3147 45.3933 66.248C45.4786 66.1813 45.5613 66.1053 45.6413 66.02V65.176C45.3133 65.1867 45.0346 65.2133 44.8053 65.256C44.5759 65.296 44.3893 65.3493 44.2453 65.416C44.1013 65.4827 43.9959 65.5613 43.9293 65.652C43.8653 65.7427 43.8333 65.844 43.8333 65.956C43.8333 66.0627 43.8506 66.1547 43.8853 66.232C43.9199 66.3093 43.9666 66.3733 44.0253 66.424C44.0839 66.472 44.1533 66.508 44.2333 66.532C44.3133 66.5533 44.3999 66.564 44.4933 66.564ZM48.6479 67.064C48.3279 67.064 48.0813 66.9747 47.9079 66.796C47.7373 66.6173 47.6519 66.36 47.6519 66.024V63.544H47.1639C47.1213 63.544 47.0853 63.532 47.0559 63.508C47.0266 63.4813 47.0119 63.4413 47.0119 63.388V63.104L47.6759 63.02L47.8399 61.768C47.8453 61.728 47.8626 61.696 47.8919 61.672C47.9213 61.6453 47.9586 61.632 48.0039 61.632H48.3639V63.028H49.5239V63.544H48.3639V65.976C48.3639 66.1467 48.4053 66.2733 48.4879 66.356C48.5706 66.4387 48.6773 66.48 48.8079 66.48C48.8826 66.48 48.9466 66.4707 48.9999 66.452C49.0559 66.4307 49.1039 66.408 49.1439 66.384C49.1839 66.36 49.2173 66.3387 49.2439 66.32C49.2733 66.2987 49.2986 66.288 49.3199 66.288C49.3573 66.288 49.3906 66.3107 49.4199 66.356L49.6279 66.696C49.5053 66.8107 49.3573 66.9013 49.1839 66.968C49.0106 67.032 48.8319 67.064 48.6479 67.064ZM50.9043 60.968C50.9816 61.096 51.0376 61.224 51.0723 61.352C51.107 61.48 51.1243 61.608 51.1243 61.736C51.1243 61.9787 51.0643 62.2107 50.9443 62.432C50.827 62.6507 50.663 62.852 50.4523 63.036L50.2323 62.9C50.211 62.8867 50.1963 62.872 50.1883 62.856C50.183 62.84 50.1803 62.824 50.1803 62.808C50.1803 62.7707 50.1936 62.7387 50.2203 62.712C50.263 62.6613 50.3043 62.6067 50.3443 62.548C50.3843 62.4867 50.4203 62.424 50.4523 62.36C50.4843 62.2933 50.5096 62.224 50.5283 62.152C50.547 62.08 50.5563 62.004 50.5563 61.924C50.5563 61.8387 50.543 61.7507 50.5163 61.66C50.4923 61.5693 50.4496 61.4733 50.3883 61.372C50.3696 61.3427 50.3603 61.3133 50.3603 61.284C50.3603 61.22 50.3963 61.1733 50.4683 61.144L50.9043 60.968ZM54.4196 63.616C54.3876 63.6747 54.3383 63.704 54.2716 63.704C54.2316 63.704 54.1863 63.6893 54.1356 63.66C54.085 63.6307 54.0223 63.5987 53.9476 63.564C53.8756 63.5267 53.789 63.4933 53.6876 63.464C53.5863 63.432 53.4663 63.416 53.3276 63.416C53.2076 63.416 53.0996 63.432 53.0036 63.464C52.9076 63.4933 52.825 63.5347 52.7556 63.588C52.689 63.6413 52.637 63.704 52.5996 63.776C52.565 63.8453 52.5476 63.9213 52.5476 64.004C52.5476 64.108 52.577 64.1947 52.6356 64.264C52.697 64.3333 52.777 64.3933 52.8756 64.444C52.9743 64.4947 53.0863 64.54 53.2116 64.58C53.337 64.6173 53.465 64.6587 53.5956 64.704C53.729 64.7467 53.8583 64.7947 53.9836 64.848C54.109 64.9013 54.221 64.968 54.3196 65.048C54.4183 65.128 54.497 65.2267 54.5556 65.344C54.617 65.4587 54.6476 65.5973 54.6476 65.76C54.6476 65.9467 54.6143 66.12 54.5476 66.28C54.481 66.4373 54.3823 66.5747 54.2516 66.692C54.121 66.8067 53.961 66.8973 53.7716 66.964C53.5823 67.0307 53.3636 67.064 53.1156 67.064C52.833 67.064 52.577 67.0187 52.3476 66.928C52.1183 66.8347 51.9236 66.716 51.7636 66.572L51.9316 66.3C51.953 66.2653 51.9783 66.2387 52.0076 66.22C52.037 66.2013 52.0756 66.192 52.1236 66.192C52.1716 66.192 52.2223 66.2107 52.2756 66.248C52.329 66.2853 52.393 66.3267 52.4676 66.372C52.545 66.4173 52.637 66.4587 52.7436 66.496C52.853 66.5333 52.989 66.552 53.1516 66.552C53.2903 66.552 53.4116 66.5347 53.5156 66.5C53.6196 66.4627 53.7063 66.4133 53.7756 66.352C53.845 66.2907 53.8956 66.22 53.9276 66.14C53.9623 66.06 53.9796 65.9747 53.9796 65.884C53.9796 65.772 53.949 65.68 53.8876 65.608C53.829 65.5333 53.7503 65.4707 53.6516 65.42C53.553 65.3667 53.4396 65.3213 53.3116 65.284C53.1863 65.244 53.057 65.2027 52.9236 65.16C52.793 65.1173 52.6636 65.0693 52.5356 65.016C52.4103 64.96 52.2983 64.8907 52.1996 64.808C52.101 64.7253 52.021 64.624 51.9596 64.504C51.901 64.3813 51.8716 64.2333 51.8716 64.06C51.8716 63.9053 51.9036 63.7573 51.9676 63.616C52.0316 63.472 52.125 63.3467 52.2476 63.24C52.3703 63.1307 52.521 63.044 52.6996 62.98C52.8783 62.916 53.0823 62.884 53.3116 62.884C53.5783 62.884 53.817 62.9267 54.0276 63.012C54.241 63.0947 54.425 63.2093 54.5796 63.356L54.4196 63.616ZM58.7553 62.884C59.0513 62.884 59.3179 62.9333 59.5553 63.032C59.7953 63.1307 59.9979 63.2707 60.1633 63.452C60.3313 63.6333 60.4593 63.8533 60.5473 64.112C60.6379 64.368 60.6833 64.6547 60.6833 64.972C60.6833 65.292 60.6379 65.58 60.5473 65.836C60.4593 66.092 60.3313 66.3107 60.1633 66.492C59.9979 66.6733 59.7953 66.8133 59.5553 66.912C59.3179 67.008 59.0513 67.056 58.7553 67.056C58.4593 67.056 58.1913 67.008 57.9513 66.912C57.7139 66.8133 57.5113 66.6733 57.3433 66.492C57.1753 66.3107 57.0459 66.092 56.9553 65.836C56.8646 65.58 56.8193 65.292 56.8193 64.972C56.8193 64.6547 56.8646 64.368 56.9553 64.112C57.0459 63.8533 57.1753 63.6333 57.3433 63.452C57.5113 63.2707 57.7139 63.1307 57.9513 63.032C58.1913 62.9333 58.4593 62.884 58.7553 62.884ZM58.7553 66.5C59.1553 66.5 59.4539 66.3667 59.6513 66.1C59.8486 65.8307 59.9473 65.456 59.9473 64.976C59.9473 64.4933 59.8486 64.1173 59.6513 63.848C59.4539 63.5787 59.1553 63.444 58.7553 63.444C58.5526 63.444 58.3766 63.4787 58.2273 63.548C58.0779 63.6173 57.9526 63.7173 57.8513 63.848C57.7526 63.9787 57.6779 64.14 57.6273 64.332C57.5793 64.5213 57.5553 64.736 57.5553 64.976C57.5553 65.216 57.5793 65.4307 57.6273 65.62C57.6779 65.8093 57.7526 65.9693 57.8513 66.1C57.9526 66.228 58.0779 66.3267 58.2273 66.396C58.3766 66.4653 58.5526 66.5 58.7553 66.5ZM61.5606 67V62.948H61.9846C62.0859 62.948 62.1499 62.9973 62.1766 63.096L62.2326 63.536C62.4086 63.3413 62.6046 63.184 62.8206 63.064C63.0392 62.944 63.2912 62.884 63.5766 62.884C63.7979 62.884 63.9926 62.9213 64.1606 62.996C64.3312 63.068 64.4726 63.172 64.5846 63.308C64.6992 63.4413 64.7859 63.6027 64.8446 63.792C64.9032 63.9813 64.9326 64.1907 64.9326 64.42V67H64.2206V64.42C64.2206 64.1133 64.1499 63.876 64.0086 63.708C63.8699 63.5373 63.6566 63.452 63.3686 63.452C63.1579 63.452 62.9606 63.5027 62.7766 63.604C62.5952 63.7053 62.4272 63.8427 62.2726 64.016V67H61.5606ZM68.7408 68.196C68.7168 68.2493 68.6861 68.292 68.6488 68.324C68.6141 68.356 68.5594 68.372 68.4848 68.372H67.9568L68.6968 66.764L67.0248 62.948H67.6408C67.7021 62.948 67.7501 62.964 67.7848 62.996C67.8194 63.0253 67.8448 63.0587 67.8608 63.096L68.9448 65.648C68.9688 65.7067 68.9888 65.7653 69.0048 65.824C69.0234 65.8827 69.0394 65.9427 69.0528 66.004C69.0714 65.9427 69.0901 65.8827 69.1088 65.824C69.1274 65.7653 69.1488 65.7053 69.1727 65.644L70.2248 63.096C70.2408 63.0533 70.2674 63.0187 70.3048 62.992C70.3448 62.9627 70.3874 62.948 70.4328 62.948H71.0008L68.7408 68.196ZM73.1849 62.884C73.4809 62.884 73.7476 62.9333 73.9849 63.032C74.2249 63.1307 74.4276 63.2707 74.5929 63.452C74.7609 63.6333 74.8889 63.8533 74.9769 64.112C75.0676 64.368 75.1129 64.6547 75.1129 64.972C75.1129 65.292 75.0676 65.58 74.9769 65.836C74.8889 66.092 74.7609 66.3107 74.5929 66.492C74.4276 66.6733 74.2249 66.8133 73.9849 66.912C73.7476 67.008 73.4809 67.056 73.1849 67.056C72.8889 67.056 72.6209 67.008 72.3809 66.912C72.1436 66.8133 71.9409 66.6733 71.7729 66.492C71.6049 66.3107 71.4756 66.092 71.3849 65.836C71.2943 65.58 71.2489 65.292 71.2489 64.972C71.2489 64.6547 71.2943 64.368 71.3849 64.112C71.4756 63.8533 71.6049 63.6333 71.7729 63.452C71.9409 63.2707 72.1436 63.1307 72.3809 63.032C72.6209 62.9333 72.8889 62.884 73.1849 62.884ZM73.1849 66.5C73.5849 66.5 73.8836 66.3667 74.0809 66.1C74.2783 65.8307 74.3769 65.456 74.3769 64.976C74.3769 64.4933 74.2783 64.1173 74.0809 63.848C73.8836 63.5787 73.5849 63.444 73.1849 63.444C72.9823 63.444 72.8063 63.4787 72.6569 63.548C72.5076 63.6173 72.3823 63.7173 72.2809 63.848C72.1823 63.9787 72.1076 64.14 72.0569 64.332C72.0089 64.5213 71.9849 64.736 71.9849 64.976C71.9849 65.216 72.0089 65.4307 72.0569 65.62C72.1076 65.8093 72.1823 65.9693 72.2809 66.1C72.3823 66.228 72.5076 66.3267 72.6569 66.396C72.8063 66.4653 72.9823 66.5 73.1849 66.5ZM76.6063 62.948V65.532C76.6063 65.8387 76.6769 66.076 76.8183 66.244C76.9596 66.412 77.1729 66.496 77.4583 66.496C77.6663 66.496 77.8623 66.4467 78.0463 66.348C78.2303 66.2493 78.3996 66.112 78.5543 65.936V62.948H79.2663V67H78.8423C78.7409 67 78.6769 66.9507 78.6503 66.852L78.5943 66.416C78.4183 66.6107 78.2209 66.768 78.0023 66.888C77.7836 67.0053 77.5329 67.064 77.2503 67.064C77.0289 67.064 76.8329 67.028 76.6623 66.956C76.4943 66.8813 76.3529 66.7773 76.2383 66.644C76.1236 66.5107 76.0369 66.3493 75.9783 66.16C75.9223 65.9707 75.8943 65.7613 75.8943 65.532V62.948H76.6063ZM80.4356 67V62.948H80.8436C80.9209 62.948 80.9742 62.9627 81.0036 62.992C81.0329 63.0213 81.0529 63.072 81.0636 63.144L81.1116 63.776C81.2502 63.4933 81.4209 63.2733 81.6236 63.116C81.8289 62.956 82.0689 62.876 82.3436 62.876C82.4556 62.876 82.5569 62.8893 82.6476 62.916C82.7382 62.94 82.8222 62.9747 82.8996 63.02L82.8076 63.552C82.7889 63.6187 82.7476 63.652 82.6836 63.652C82.6462 63.652 82.5889 63.64 82.5116 63.616C82.4342 63.5893 82.3262 63.576 82.1876 63.576C81.9396 63.576 81.7316 63.648 81.5636 63.792C81.3982 63.936 81.2596 64.1453 81.1476 64.42V67H80.4356ZM85.209 67V62.948H85.633C85.7343 62.948 85.7983 62.9973 85.825 63.096L85.877 63.512C86.0263 63.328 86.193 63.1773 86.377 63.06C86.5637 62.9427 86.7797 62.884 87.025 62.884C87.2997 62.884 87.521 62.96 87.689 63.112C87.8597 63.264 87.9823 63.4693 88.057 63.728C88.113 63.5813 88.1863 63.4547 88.277 63.348C88.3703 63.2413 88.4743 63.1533 88.589 63.084C88.7037 63.0147 88.825 62.964 88.953 62.932C89.0837 62.9 89.2157 62.884 89.349 62.884C89.5623 62.884 89.7517 62.9187 89.917 62.988C90.085 63.0547 90.2263 63.1533 90.341 63.284C90.4583 63.4147 90.5477 63.576 90.609 63.768C90.6703 63.9573 90.701 64.1747 90.701 64.42V67H89.989V64.42C89.989 64.1027 89.9197 63.8627 89.781 63.7C89.6423 63.5347 89.441 63.452 89.177 63.452C89.0597 63.452 88.9477 63.4733 88.841 63.516C88.737 63.556 88.645 63.616 88.565 63.696C88.485 63.776 88.421 63.8773 88.373 64C88.3277 64.12 88.305 64.26 88.305 64.42V67H87.593V64.42C87.593 64.0947 87.5277 63.852 87.397 63.692C87.2663 63.532 87.0757 63.452 86.825 63.452C86.649 63.452 86.485 63.5 86.333 63.596C86.1837 63.6893 86.0463 63.8173 85.921 63.98V67H85.209ZM92.5713 62.948V67H91.8593V62.948H92.5713ZM92.7313 61.676C92.7313 61.7453 92.7166 61.8107 92.6873 61.872C92.6606 61.9307 92.6233 61.984 92.5753 62.032C92.53 62.0773 92.4766 62.1133 92.4153 62.14C92.354 62.1667 92.2886 62.18 92.2193 62.18C92.15 62.18 92.0846 62.1667 92.0233 62.14C91.9646 62.1133 91.9113 62.0773 91.8633 62.032C91.818 61.984 91.782 61.9307 91.7553 61.872C91.7286 61.8107 91.7153 61.7453 91.7153 61.676C91.7153 61.6067 91.7286 61.5413 91.7553 61.48C91.782 61.416 91.818 61.3613 91.8633 61.316C91.9113 61.268 91.9646 61.2307 92.0233 61.204C92.0846 61.1773 92.15 61.164 92.2193 61.164C92.2886 61.164 92.354 61.1773 92.4153 61.204C92.4766 61.2307 92.53 61.268 92.5753 61.316C92.6233 61.3613 92.6606 61.416 92.6873 61.48C92.7166 61.5413 92.7313 61.6067 92.7313 61.676ZM93.8262 67V62.948H94.2502C94.3515 62.948 94.4155 62.9973 94.4422 63.096L94.4982 63.536C94.6742 63.3413 94.8702 63.184 95.0862 63.064C95.3049 62.944 95.5569 62.884 95.8422 62.884C96.0635 62.884 96.2582 62.9213 96.4262 62.996C96.5969 63.068 96.7382 63.172 96.8502 63.308C96.9649 63.4413 97.0515 63.6027 97.1102 63.792C97.1689 63.9813 97.1982 64.1907 97.1982 64.42V67H96.4862V64.42C96.4862 64.1133 96.4155 63.876 96.2742 63.708C96.1355 63.5373 95.9222 63.452 95.6342 63.452C95.4235 63.452 95.2262 63.5027 95.0422 63.604C94.8609 63.7053 94.6929 63.8427 94.5382 64.016V67H93.8262ZM101.124 67C101.022 67 100.958 66.9507 100.932 66.852L100.868 66.36C100.694 66.5707 100.496 66.74 100.272 66.868C100.05 66.9933 99.7955 67.056 99.5075 67.056C99.2755 67.056 99.0648 67.012 98.8755 66.924C98.6862 66.8333 98.5248 66.7013 98.3915 66.528C98.2582 66.3547 98.1555 66.1387 98.0835 65.88C98.0115 65.6213 97.9755 65.324 97.9755 64.988C97.9755 64.6893 98.0155 64.412 98.0955 64.156C98.1755 63.8973 98.2902 63.6733 98.4395 63.484C98.5915 63.2947 98.7755 63.1467 98.9915 63.04C99.2075 62.9307 99.4528 62.876 99.7275 62.876C99.9755 62.876 100.188 62.9187 100.364 63.004C100.54 63.0867 100.697 63.204 100.836 63.356V61.108H101.548V67H101.124ZM99.7435 66.48C99.9755 66.48 100.178 66.4267 100.352 66.32C100.528 66.2133 100.689 66.0627 100.836 65.868V63.908C100.705 63.732 100.561 63.6093 100.404 63.54C100.249 63.468 100.077 63.432 99.8875 63.432C99.5088 63.432 99.2182 63.5667 99.0155 63.836C98.8128 64.1053 98.7115 64.4893 98.7115 64.988C98.7115 65.252 98.7342 65.4787 98.7795 65.668C98.8248 65.8547 98.8915 66.0093 98.9795 66.132C99.0675 66.252 99.1755 66.34 99.3035 66.396C99.4315 66.452 99.5782 66.48 99.7435 66.48ZM105.515 67.064C105.195 67.064 104.948 66.9747 104.775 66.796C104.604 66.6173 104.519 66.36 104.519 66.024V63.544H104.031C103.988 63.544 103.952 63.532 103.923 63.508C103.894 63.4813 103.879 63.4413 103.879 63.388V63.104L104.543 63.02L104.707 61.768C104.712 61.728 104.73 61.696 104.759 61.672C104.788 61.6453 104.826 61.632 104.871 61.632H105.231V63.028H106.391V63.544H105.231V65.976C105.231 66.1467 105.272 66.2733 105.355 66.356C105.438 66.4387 105.544 66.48 105.675 66.48C105.75 66.48 105.814 66.4707 105.867 66.452C105.923 66.4307 105.971 66.408 106.011 66.384C106.051 66.36 106.084 66.3387 106.111 66.32C106.14 66.2987 106.166 66.288 106.187 66.288C106.224 66.288 106.258 66.3107 106.287 66.356L106.495 66.696C106.372 66.8107 106.224 66.9013 106.051 66.968C105.878 67.032 105.699 67.064 105.515 67.064ZM108.912 62.884C109.208 62.884 109.474 62.9333 109.712 63.032C109.952 63.1307 110.154 63.2707 110.32 63.452C110.488 63.6333 110.616 63.8533 110.704 64.112C110.794 64.368 110.84 64.6547 110.84 64.972C110.84 65.292 110.794 65.58 110.704 65.836C110.616 66.092 110.488 66.3107 110.32 66.492C110.154 66.6733 109.952 66.8133 109.712 66.912C109.474 67.008 109.208 67.056 108.912 67.056C108.616 67.056 108.348 67.008 108.108 66.912C107.87 66.8133 107.668 66.6733 107.5 66.492C107.332 66.3107 107.202 66.092 107.112 65.836C107.021 65.58 106.976 65.292 106.976 64.972C106.976 64.6547 107.021 64.368 107.112 64.112C107.202 63.8533 107.332 63.6333 107.5 63.452C107.668 63.2707 107.87 63.1307 108.108 63.032C108.348 62.9333 108.616 62.884 108.912 62.884ZM108.912 66.5C109.312 66.5 109.61 66.3667 109.808 66.1C110.005 65.8307 110.104 65.456 110.104 64.976C110.104 64.4933 110.005 64.1173 109.808 63.848C109.61 63.5787 109.312 63.444 108.912 63.444C108.709 63.444 108.533 63.4787 108.384 63.548C108.234 63.6173 108.109 63.7173 108.008 63.848C107.909 63.9787 107.834 64.14 107.784 64.332C107.736 64.5213 107.712 64.736 107.712 64.976C107.712 65.216 107.736 65.4307 107.784 65.62C107.834 65.8093 107.909 65.9693 108.008 66.1C108.109 66.228 108.234 66.3267 108.384 66.396C108.533 66.4653 108.709 66.5 108.912 66.5ZM114.569 67C114.467 67 114.403 66.9507 114.377 66.852L114.313 66.36C114.139 66.5707 113.941 66.74 113.717 66.868C113.495 66.9933 113.241 67.056 112.953 67.056C112.721 67.056 112.51 67.012 112.321 66.924C112.131 66.8333 111.97 66.7013 111.837 66.528C111.703 66.3547 111.601 66.1387 111.529 65.88C111.457 65.6213 111.421 65.324 111.421 64.988C111.421 64.6893 111.461 64.412 111.541 64.156C111.621 63.8973 111.735 63.6733 111.885 63.484C112.037 63.2947 112.221 63.1467 112.437 63.04C112.653 62.9307 112.898 62.876 113.173 62.876C113.421 62.876 113.633 62.9187 113.809 63.004C113.985 63.0867 114.142 63.204 114.281 63.356V61.108H114.993V67H114.569ZM113.189 66.48C113.421 66.48 113.623 66.4267 113.797 66.32C113.973 66.2133 114.134 66.0627 114.281 65.868V63.908C114.15 63.732 114.006 63.6093 113.849 63.54C113.694 63.468 113.522 63.432 113.333 63.432C112.954 63.432 112.663 63.5667 112.461 63.836C112.258 64.1053 112.157 64.4893 112.157 64.988C112.157 65.252 112.179 65.4787 112.225 65.668C112.27 65.8547 112.337 66.0093 112.425 66.132C112.513 66.252 112.621 66.34 112.749 66.396C112.877 66.452 113.023 66.48 113.189 66.48ZM119.162 67H118.846C118.776 67 118.72 66.9893 118.678 66.968C118.635 66.9467 118.607 66.9013 118.594 66.832L118.514 66.456C118.407 66.552 118.303 66.6387 118.202 66.716C118.1 66.7907 117.994 66.8547 117.882 66.908C117.77 66.9587 117.65 66.9973 117.522 67.024C117.396 67.0507 117.256 67.064 117.102 67.064C116.944 67.064 116.796 67.0427 116.658 67C116.522 66.9547 116.403 66.888 116.302 66.8C116.2 66.712 116.119 66.6013 116.058 66.468C115.999 66.332 115.97 66.172 115.97 65.988C115.97 65.828 116.014 65.6747 116.102 65.528C116.19 65.3787 116.331 65.2467 116.526 65.132C116.723 65.0173 116.98 64.924 117.298 64.852C117.615 64.7773 118.003 64.7347 118.462 64.724V64.408C118.462 64.0933 118.394 63.856 118.258 63.696C118.124 63.5333 117.926 63.452 117.662 63.452C117.488 63.452 117.342 63.4747 117.222 63.52C117.104 63.5627 117.002 63.612 116.914 63.668C116.828 63.7213 116.754 63.7707 116.69 63.816C116.628 63.8587 116.567 63.88 116.506 63.88C116.458 63.88 116.415 63.868 116.378 63.844C116.343 63.8173 116.315 63.7853 116.294 63.748L116.166 63.52C116.39 63.304 116.631 63.1427 116.89 63.036C117.148 62.9293 117.435 62.876 117.75 62.876C117.976 62.876 118.178 62.9133 118.354 62.988C118.53 63.0627 118.678 63.1667 118.798 63.3C118.918 63.4333 119.008 63.5947 119.07 63.784C119.131 63.9733 119.162 64.1813 119.162 64.408V67ZM117.314 66.564C117.439 66.564 117.554 66.552 117.658 66.528C117.762 66.5013 117.859 66.4653 117.95 66.42C118.043 66.372 118.131 66.3147 118.214 66.248C118.299 66.1813 118.382 66.1053 118.462 66.02V65.176C118.134 65.1867 117.855 65.2133 117.626 65.256C117.396 65.296 117.21 65.3493 117.066 65.416C116.922 65.4827 116.816 65.5613 116.75 65.652C116.686 65.7427 116.654 65.844 116.654 65.956C116.654 66.0627 116.671 66.1547 116.706 66.232C116.74 66.3093 116.787 66.3733 116.846 66.424C116.904 66.472 116.974 66.508 117.054 66.532C117.134 66.5533 117.22 66.564 117.314 66.564ZM121.303 68.196C121.279 68.2493 121.249 68.292 121.211 68.324C121.177 68.356 121.122 68.372 121.047 68.372H120.519L121.259 66.764L119.587 62.948H120.203C120.265 62.948 120.313 62.964 120.347 62.996C120.382 63.0253 120.407 63.0587 120.423 63.096L121.507 65.648C121.531 65.7067 121.551 65.7653 121.567 65.824C121.586 65.8827 121.602 65.9427 121.615 66.004C121.634 65.9427 121.653 65.8827 121.671 65.824C121.69 65.7653 121.711 65.7053 121.735 65.644L122.787 63.096C122.803 63.0533 122.83 63.0187 122.867 62.992C122.907 62.9627 122.95 62.948 122.995 62.948H123.563L121.303 68.196ZM123.761 61.78C123.844 61.7027 123.934 61.6293 124.033 61.56C124.134 61.4907 124.244 61.4293 124.361 61.376C124.481 61.3227 124.609 61.2813 124.745 61.252C124.884 61.22 125.033 61.204 125.193 61.204C125.404 61.204 125.598 61.2347 125.777 61.296C125.958 61.3573 126.114 61.444 126.245 61.556C126.376 61.668 126.478 61.804 126.553 61.964C126.628 62.124 126.665 62.304 126.665 62.504C126.665 62.7067 126.634 62.8813 126.573 63.028C126.514 63.1747 126.438 63.304 126.345 63.416C126.254 63.5253 126.154 63.6213 126.045 63.704C125.936 63.784 125.833 63.86 125.737 63.932C125.644 64.004 125.562 64.076 125.493 64.148C125.426 64.22 125.388 64.3 125.377 64.388L125.305 65H124.817L124.769 64.336V64.292C124.769 64.18 124.798 64.0813 124.857 63.996C124.918 63.908 124.994 63.8267 125.085 63.752C125.178 63.6747 125.277 63.5987 125.381 63.524C125.488 63.4467 125.586 63.3627 125.677 63.272C125.77 63.1787 125.846 63.0733 125.905 62.956C125.966 62.8387 125.997 62.7 125.997 62.54C125.997 62.4253 125.974 62.3213 125.929 62.228C125.884 62.1347 125.822 62.056 125.745 61.992C125.668 61.9253 125.576 61.8747 125.469 61.84C125.365 61.8053 125.253 61.788 125.133 61.788C124.97 61.788 124.83 61.808 124.713 61.848C124.598 61.888 124.501 61.932 124.421 61.98C124.341 62.028 124.276 62.072 124.225 62.112C124.177 62.152 124.137 62.172 124.105 62.172C124.038 62.172 123.986 62.1413 123.949 62.08L123.761 61.78ZM124.545 66.56C124.545 66.4907 124.557 66.4253 124.581 66.364C124.608 66.3027 124.642 66.2493 124.685 66.204C124.73 66.1587 124.784 66.1227 124.845 66.096C124.906 66.0693 124.972 66.056 125.041 66.056C125.11 66.056 125.176 66.0693 125.237 66.096C125.298 66.1227 125.352 66.1587 125.397 66.204C125.442 66.2493 125.477 66.3027 125.501 66.364C125.528 66.4253 125.541 66.4907 125.541 66.56C125.541 66.632 125.528 66.6987 125.501 66.76C125.477 66.8187 125.442 66.8707 125.397 66.916C125.352 66.9613 125.298 66.996 125.237 67.02C125.176 67.0467 125.11 67.06 125.041 67.06C124.972 67.06 124.906 67.0467 124.845 67.02C124.784 66.996 124.73 66.9613 124.685 66.916C124.642 66.8707 124.608 66.8187 124.581 66.76C124.557 66.6987 124.545 66.632 124.545 66.56Z" fill="#808080"/>
<rect x="136.25" y="117.25" width="28.5" height="15.5" rx="1.75" fill="#F0F0F0"/>
<rect x="136.25" y="117.25" width="28.5" height="15.5" rx="1.75" stroke="black" stroke-width="0.5"/>
<path d="M146.654 126.504H143.534L142.862 128H142.246L144.806 122.4H145.39L147.95 128H147.326L146.654 126.504ZM146.438 126.024L145.094 123.016L143.75 126.024H146.438ZM152.558 122.064V128H152.014V127.168C151.843 127.451 151.616 127.667 151.334 127.816C151.056 127.965 150.742 128.04 150.39 128.04C149.995 128.04 149.638 127.949 149.318 127.768C148.998 127.587 148.747 127.333 148.566 127.008C148.384 126.683 148.294 126.312 148.294 125.896C148.294 125.48 148.384 125.109 148.566 124.784C148.747 124.459 148.998 124.208 149.318 124.032C149.638 123.851 149.995 123.76 150.39 123.76C150.731 123.76 151.038 123.832 151.31 123.976C151.587 124.115 151.814 124.32 151.99 124.592V122.064H152.558ZM150.438 127.536C150.731 127.536 150.995 127.469 151.23 127.336C151.47 127.197 151.656 127.003 151.79 126.752C151.928 126.501 151.998 126.216 151.998 125.896C151.998 125.576 151.928 125.291 151.79 125.04C151.656 124.789 151.47 124.597 151.23 124.464C150.995 124.325 150.731 124.256 150.438 124.256C150.139 124.256 149.87 124.325 149.63 124.464C149.395 124.597 149.208 124.789 149.07 125.04C148.936 125.291 148.87 125.576 148.87 125.896C148.87 126.216 148.936 126.501 149.07 126.752C149.208 127.003 149.395 127.197 149.63 127.336C149.87 127.469 150.139 127.536 150.438 127.536ZM157.98 122.064V128H157.436V127.168C157.265 127.451 157.038 127.667 156.756 127.816C156.478 127.965 156.164 128.04 155.812 128.04C155.417 128.04 155.06 127.949 154.74 127.768C154.42 127.587 154.169 127.333 153.988 127.008C153.806 126.683 153.716 126.312 153.716 125.896C153.716 125.48 153.806 125.109 153.988 124.784C154.169 124.459 154.42 124.208 154.74 124.032C155.06 123.851 155.417 123.76 155.812 123.76C156.153 123.76 156.46 123.832 156.732 123.976C157.009 124.115 157.236 124.32 157.412 124.592V122.064H157.98ZM155.86 127.536C156.153 127.536 156.417 127.469 156.652 127.336C156.892 127.197 157.078 127.003 157.212 126.752C157.35 126.501 157.42 126.216 157.42 125.896C157.42 125.576 157.35 125.291 157.212 125.04C157.078 124.789 156.892 124.597 156.652 124.464C156.417 124.325 156.153 124.256 155.86 124.256C155.561 124.256 155.292 124.325 155.052 124.464C154.817 124.597 154.63 124.789 154.492 125.04C154.358 125.291 154.292 125.576 154.292 125.896C154.292 126.216 154.358 126.501 154.492 126.752C154.63 127.003 154.817 127.197 155.052 127.336C155.292 127.469 155.561 127.536 155.86 127.536Z" fill="black"/>
</g>
<defs>
<clipPath id="clip0_1361_580">
<rect width="300" height="180" fill="white"/>
</clipPath>
</defs>
</svg>
