<svg width="300" height="180" fill="none" xmlns="http://www.w3.org/2000/svg"><path fill="#fff" d="M0 0h300v180H0z"/><rect x="20" y="20" width="260" height="24" rx="4" fill="#3E416D"/><path d="M35.11 36h-2.122l-2.69-3.715c-.198.008-.36.012-.485.012h-.165l-.181-.012v2.309c0 .5.055.81.164.931.148.172.371.258.668.258h.31V36h-3.404v-.217h.299c.336 0 .576-.11.72-.328.083-.121.124-.408.124-.861V29.46c0-.5-.055-.81-.164-.932-.153-.172-.38-.258-.68-.258h-.299v-.216H30.1c.843 0 1.464.062 1.863.187a2.09 2.09 0 0 1 1.02.68c.28.328.421.72.421 1.178 0 .488-.16.912-.48 1.271-.317.36-.809.613-1.477.762l1.64 2.28c.376.523.698.87.968 1.042.27.172.62.281 1.054.328V36Zm-5.643-4.084c.074 0 .139.002.193.006h.135c.758 0 1.328-.164 1.71-.492.388-.328.58-.746.58-1.254 0-.496-.155-.899-.468-1.207-.308-.313-.719-.469-1.23-.469-.227 0-.534.037-.92.111v3.305Zm8.953 3.31c-.55.426-.897.672-1.037.739a1.596 1.596 0 0 1-.674.146 1.22 1.22 0 0 1-.92-.38c-.238-.254-.357-.588-.357-1.003 0-.261.058-.488.175-.68.16-.265.438-.515.833-.75.398-.233 1.058-.519 1.98-.855v-.21c0-.536-.086-.903-.258-1.102-.168-.2-.414-.299-.738-.299-.246 0-.442.066-.586.2a.6.6 0 0 0-.223.456l.012.34c0 .18-.047.319-.14.416a.462.462 0 0 1-.358.147.465.465 0 0 1-.357-.153.606.606 0 0 1-.135-.416c0-.336.172-.644.515-.925.344-.282.826-.422 1.448-.422.476 0 .867.08 1.172.24.23.12.4.31.51.568.07.168.105.512.105 1.032v1.822c0 .511.01.826.029.943.02.113.05.19.094.229.047.039.1.058.158.058a.32.32 0 0 0 .164-.04c.082-.052.24-.194.475-.429v.329c-.438.586-.856.879-1.254.879a.57.57 0 0 1-.457-.2c-.114-.133-.172-.36-.176-.68Zm0-.38V32.8c-.59.234-.97.4-1.143.498-.308.172-.529.351-.662.539a1.038 1.038 0 0 0-.199.615c0 .281.084.516.252.703.168.184.361.276.58.276.297 0 .688-.196 1.172-.586Zm1.992-4.213h2.25v.217c-.207.015-.344.052-.41.11-.063.06-.094.143-.094.253 0 .121.033.267.1.44l1.148 3.087 1.154-2.513-.304-.791c-.094-.235-.217-.397-.37-.487-.085-.055-.245-.088-.48-.1v-.216h2.555v.217c-.281.011-.48.062-.598.152-.078.063-.117.162-.117.299 0 .078.016.158.047.24l1.219 3.082 1.13-2.97c.079-.212.118-.38.118-.505 0-.074-.04-.14-.117-.199-.075-.058-.223-.092-.446-.1v-.216h1.694v.217c-.34.05-.59.28-.75.691l-1.793 4.623h-.24l-1.342-3.428-1.565 3.428h-.217l-1.722-4.512c-.114-.285-.225-.476-.334-.574-.11-.101-.281-.178-.516-.228v-.217Zm14.057 1.646v2.315c0 .5.054.81.164.931.148.172.373.258.674.258h.304V36h-3.404v-.217h.299c.336 0 .576-.11.72-.328.079-.121.118-.408.118-.861V29.46c0-.5-.053-.81-.159-.932-.152-.172-.378-.258-.68-.258h-.298v-.216h2.912c.711 0 1.272.074 1.682.222.41.145.756.391 1.037.739.281.347.422.76.422 1.236 0 .648-.215 1.176-.645 1.582-.425.406-1.03.61-1.81.61-.192 0-.399-.014-.621-.042a8.07 8.07 0 0 1-.715-.123Zm0-.334c.207.04.39.069.55.088.16.02.297.03.41.03a1.39 1.39 0 0 0 1.05-.47c.296-.316.445-.724.445-1.224 0-.344-.07-.662-.211-.955a1.437 1.437 0 0 0-.598-.662 1.729 1.729 0 0 0-.879-.223c-.199 0-.455.037-.767.112v3.304Zm7.218-1.47c.813 0 1.465.308 1.958.925a2.85 2.85 0 0 1 .627 1.817c0 .48-.116.967-.346 1.459-.23.492-.549.863-.955 1.113-.403.25-.852.375-1.348.375-.808 0-1.451-.322-1.928-.967a2.996 2.996 0 0 1-.603-1.828c0-.492.12-.98.363-1.465.246-.488.568-.847.967-1.078.398-.234.82-.351 1.266-.351Zm-.181.38c-.207 0-.416.063-.627.188-.207.121-.375.336-.504.645-.129.308-.193.705-.193 1.189 0 .781.154 1.455.462 2.021.313.567.723.85 1.231.85.379 0 .691-.156.938-.469.246-.312.369-.85.369-1.611 0-.953-.205-1.703-.616-2.25-.277-.375-.63-.563-1.06-.563Zm4.922-3.187c.164 0 .303.059.416.176a.556.556 0 0 1 .175.416.575.575 0 0 1-.175.422.556.556 0 0 1-.416.175.575.575 0 0 1-.422-.175.575.575 0 0 1-.176-.422c0-.164.057-.303.17-.416a.582.582 0 0 1 .428-.176Zm.486 2.807v4.312c0 .336.023.56.07.674.051.11.123.191.217.246.098.055.274.082.528.082V36H65.12v-.21c.262 0 .438-.026.527-.077.09-.05.16-.135.211-.252.055-.117.082-.342.082-.674V32.72c0-.582-.017-.96-.052-1.131-.028-.125-.07-.211-.13-.258a.355.355 0 0 0-.24-.076c-.109 0-.242.03-.398.088l-.082-.211 1.617-.656h.258Zm3.053 1.136c.629-.758 1.228-1.136 1.799-1.136.293 0 .544.074.755.222.211.145.38.385.504.721.086.234.13.594.13 1.078v2.291c0 .34.027.57.081.691a.485.485 0 0 0 .205.229c.098.055.276.082.534.082V36H71.32v-.21h.112c.25 0 .424-.038.521-.112a.607.607 0 0 0 .211-.34c.016-.059.023-.242.023-.55V32.59c0-.488-.064-.842-.193-1.06-.125-.223-.338-.335-.638-.335-.465 0-.928.254-1.39.762v2.83c0 .363.022.588.065.674a.566.566 0 0 0 .223.252c.098.05.293.076.586.076V36h-2.654v-.21h.117c.273 0 .457-.07.55-.206.098-.14.147-.406.147-.797v-1.992c0-.645-.016-1.037-.047-1.178-.027-.14-.072-.236-.135-.287a.355.355 0 0 0-.24-.076c-.11 0-.24.03-.392.088l-.088-.211 1.617-.656h.252v1.136Zm5.994-2.742v1.764h1.254v.41H75.96v3.48c0 .348.049.582.146.704.102.12.23.181.387.181a.683.683 0 0 0 .375-.117.791.791 0 0 0 .281-.357h.229c-.137.382-.33.672-.58.867-.25.191-.508.287-.774.287a1.05 1.05 0 0 1-.527-.147.922.922 0 0 1-.38-.427c-.083-.188-.124-.475-.124-.862v-3.609h-.85v-.193c.215-.086.434-.23.657-.434.226-.207.427-.451.603-.732.09-.149.215-.42.375-.815h.182Zm5.25 1.606v1.828h-.193c-.149-.574-.34-.965-.575-1.172-.23-.207-.525-.31-.884-.31-.274 0-.495.072-.662.216-.169.145-.253.305-.253.48 0 .22.063.407.188.563.121.16.367.33.738.51l.856.416c.793.387 1.19.896 1.19 1.53 0 .487-.186.882-.557 1.183-.368.297-.78.445-1.237.445-.328 0-.703-.059-1.125-.176a1.142 1.142 0 0 0-.316-.058c-.09 0-.16.05-.211.152h-.193v-1.916h.193c.11.547.318.959.627 1.236.309.278.654.416 1.037.416.27 0 .488-.078.656-.234a.758.758 0 0 0 .258-.574.904.904 0 0 0-.287-.68c-.188-.183-.564-.416-1.13-.697-.567-.281-.938-.535-1.114-.762-.176-.223-.264-.504-.264-.844 0-.441.15-.81.451-1.107.305-.297.698-.445 1.178-.445.211 0 .467.044.768.134.199.059.332.088.398.088a.233.233 0 0 0 .146-.04.56.56 0 0 0 .124-.182h.193Zm2.525-.006c.18 0 .332.064.457.193a.613.613 0 0 1 .194.457c0 .18-.065.334-.194.463a.622.622 0 0 1-.457.188.642.642 0 0 1-.65-.65c0-.18.062-.333.187-.458a.632.632 0 0 1 .463-.193Zm-.011 4.388a.62.62 0 0 1 .463.194.632.632 0 0 1 .193.463c0 .18-.065.334-.194.463a.642.642 0 0 1-.462.187.642.642 0 0 1-.65-.65.64.64 0 0 1 .187-.463.632.632 0 0 1 .463-.194Z" fill="#fff"/><path d="M24.127 54.905v2.06h-.163c-.053-.395-.148-.71-.286-.944a1.458 1.458 0 0 0-.58-.558 1.61 1.61 0 0 0-.782-.207c-.305 0-.557.094-.756.282-.2.184-.299.395-.299.632 0 .182.063.348.19.497.18.22.613.513 1.296.879.556.299.936.529 1.138.69.205.158.362.346.47.562.111.217.167.444.167.681 0 .452-.176.841-.527 1.17-.349.325-.799.487-1.35.487-.172 0-.335-.013-.487-.04a5.226 5.226 0 0 1-.567-.157c-.284-.094-.465-.141-.54-.141a.238.238 0 0 0-.176.066c-.041.044-.072.135-.093.272h-.162v-2.043h.162c.076.427.179.748.308.962.129.211.325.387.589.528.266.14.558.21.874.21.366 0 .655-.096.866-.29a.896.896 0 0 0 .32-.685.917.917 0 0 0-.122-.444 1.297 1.297 0 0 0-.374-.418c-.114-.087-.426-.273-.936-.558-.51-.287-.873-.515-1.09-.685a1.853 1.853 0 0 1-.487-.563 1.396 1.396 0 0 1-.168-.676c0-.428.165-.796.493-1.103.328-.31.745-.466 1.252-.466.317 0 .652.077 1.007.233.163.073.28.11.347.11a.259.259 0 0 0 .184-.066c.05-.047.09-.14.119-.277h.163Zm3.445 5.515c-.413.32-.673.504-.778.554-.158.073-.327.11-.505.11a.913.913 0 0 1-.69-.286c-.18-.19-.268-.441-.268-.752 0-.196.044-.366.131-.51.12-.199.329-.386.624-.562.3-.176.794-.39 1.486-.641v-.159c0-.401-.065-.676-.194-.826-.126-.15-.31-.224-.553-.224a.624.624 0 0 0-.44.15.45.45 0 0 0-.167.342l.01.255a.433.433 0 0 1-.106.312.347.347 0 0 1-.268.11.349.349 0 0 1-.269-.114.455.455 0 0 1-.1-.312c0-.252.128-.484.386-.695.258-.21.62-.316 1.085-.316.358 0 .65.06.88.18.172.091.3.233.382.426.052.126.079.384.079.774v1.367c0 .383.007.62.022.707.015.085.038.142.07.171a.18.18 0 0 0 .119.044.24.24 0 0 0 .123-.03 2.78 2.78 0 0 0 .356-.321v.246c-.328.44-.642.66-.94.66a.428.428 0 0 1-.343-.15c-.085-.1-.13-.27-.132-.51Zm0-.286v-1.533c-.443.175-.728.3-.857.373-.232.129-.397.264-.497.404a.782.782 0 0 0-.15.462.76.76 0 0 0 .19.527.575.575 0 0 0 .435.207c.223 0 .515-.147.879-.44Zm2.913-2.421c.293-.293.466-.462.519-.505a1.57 1.57 0 0 1 .426-.26 1.21 1.21 0 0 1 .453-.092c.252 0 .469.073.65.22.182.146.303.359.365.637.302-.352.557-.582.765-.69.208-.111.422-.167.641-.167.214 0 .403.056.567.167.167.108.299.287.396.536.064.17.096.437.096.8v1.731c0 .252.02.425.057.519.03.064.084.12.163.167.08.044.208.066.387.066V61h-1.987v-.158h.084c.173 0 .307-.034.404-.101a.392.392 0 0 0 .145-.224 2.82 2.82 0 0 0 .018-.427v-1.73c0-.328-.04-.56-.119-.694-.114-.188-.297-.282-.55-.282-.155 0-.311.04-.47.119-.155.076-.344.22-.566.43l-.01.049.01.189v1.92c0 .276.014.447.044.514.032.068.09.125.175.172.085.044.23.066.435.066V61H31.55v-.158c.223 0 .375-.027.457-.08a.407.407 0 0 0 .176-.237c.014-.05.022-.194.022-.435v-1.73c0-.328-.049-.564-.145-.708a.62.62 0 0 0-.54-.28.97.97 0 0 0-.471.127 1.83 1.83 0 0 0-.563.435v2.157c0 .264.018.435.053.514.038.08.092.14.163.18.073.039.22.058.44.058V61H29.15v-.158c.185 0 .314-.02.387-.057a.392.392 0 0 0 .167-.19c.038-.087.057-.256.057-.505v-1.538c0-.442-.013-.728-.04-.857-.02-.096-.052-.162-.096-.197a.266.266 0 0 0-.18-.058.846.846 0 0 0-.295.066l-.066-.158 1.213-.492h.19v.857Zm8.737.778c-.003.597.142 1.066.435 1.406.293.34.637.51 1.033.51.263 0 .492-.072.685-.216.196-.146.36-.395.492-.747l.136.088a2.1 2.1 0 0 1-.536 1.099 1.434 1.434 0 0 1-1.111.492c-.484 0-.898-.188-1.244-.563-.343-.377-.514-.884-.514-1.52 0-.688.175-1.225.527-1.608a1.73 1.73 0 0 1 1.331-.58c.452 0 .822.149 1.112.448.29.296.435.693.435 1.19h-2.781Zm0-.255h1.863c-.015-.258-.045-.44-.092-.545a.868.868 0 0 0-.33-.387.815.815 0 0 0-.453-.14.91.91 0 0 0-.654.285c-.19.188-.302.45-.334.787Zm5.603 2.184c-.413.32-.673.504-.778.554-.158.073-.327.11-.505.11a.913.913 0 0 1-.69-.286c-.18-.19-.268-.441-.268-.752 0-.196.043-.366.131-.51.12-.199.328-.386.624-.562.3-.176.794-.39 1.486-.641v-.159c0-.401-.065-.676-.194-.826-.126-.15-.31-.224-.553-.224a.624.624 0 0 0-.44.15.45.45 0 0 0-.167.342l.009.255c0 .135-.035.239-.105.312a.347.347 0 0 1-.269.11.349.349 0 0 1-.268-.114.454.454 0 0 1-.1-.312c0-.252.128-.484.386-.695.258-.21.62-.316 1.085-.316.358 0 .65.06.88.18.172.091.3.233.382.426.052.126.079.384.079.774v1.367c0 .383.007.62.022.707.014.085.038.142.07.171a.18.18 0 0 0 .119.044.24.24 0 0 0 .123-.03 2.78 2.78 0 0 0 .356-.321v.246c-.328.44-.642.66-.94.66a.428.428 0 0 1-.343-.15c-.085-.1-.13-.27-.132-.51Zm0-.286v-1.533c-.443.175-.728.3-.857.373-.232.129-.397.264-.497.404a.782.782 0 0 0-.15.462c0 .21.064.387.19.527a.575.575 0 0 0 .435.207c.223 0 .515-.147.879-.44Zm2.896-3.278v.905c.337-.603.682-.905 1.037-.905a.56.56 0 0 1 .4.15.445.445 0 0 1 .158.338c0 .114-.038.21-.114.29a.365.365 0 0 1-.273.118c-.102 0-.218-.05-.347-.149-.126-.102-.22-.154-.281-.154-.053 0-.11.03-.172.088-.131.12-.268.318-.408.593v1.93c0 .222.028.39.083.505a.46.46 0 0 0 .202.198c.097.052.236.079.418.079V61h-2.061v-.158c.205 0 .357-.032.457-.097a.375.375 0 0 0 .154-.224c.014-.05.022-.192.022-.426v-1.56c0-.47-.01-.747-.031-.835a.315.315 0 0 0-.106-.198.287.287 0 0 0-.189-.062.87.87 0 0 0-.307.066l-.044-.158 1.217-.492h.185Zm2.992.852c.472-.568.922-.852 1.35-.852a.96.96 0 0 1 .566.167c.159.108.285.288.378.54.065.176.097.446.097.81v1.717c0 .255.02.428.062.519.032.073.083.13.153.171.074.041.207.062.4.062V61h-1.99v-.158h.083c.188 0 .318-.028.391-.084a.455.455 0 0 0 .158-.255c.012-.044.018-.181.018-.413v-1.648c0-.366-.048-.631-.145-.795-.094-.167-.254-.25-.48-.25-.348 0-.695.19-1.04.57v2.123c0 .273.016.441.048.506a.424.424 0 0 0 .167.189c.073.038.22.057.44.057V61h-1.992v-.158h.088c.205 0 .343-.051.413-.154.074-.105.11-.305.11-.598v-1.494c0-.483-.011-.778-.035-.883-.02-.106-.054-.177-.1-.215a.266.266 0 0 0-.181-.058.846.846 0 0 0-.295.066l-.066-.158 1.213-.492h.19v.852Zm4.004.783c-.003.597.142 1.066.435 1.406.293.34.637.51 1.033.51.263 0 .492-.072.685-.216.196-.146.36-.395.492-.747l.136.088a2.1 2.1 0 0 1-.536 1.099 1.434 1.434 0 0 1-1.111.492c-.484 0-.898-.188-1.244-.563-.343-.377-.514-.884-.514-1.52 0-.688.176-1.225.527-1.608a1.73 1.73 0 0 1 1.332-.58c.45 0 .821.149 1.111.448.29.296.435.693.435 1.19h-2.781Zm0-.255h1.863c-.015-.258-.045-.44-.092-.545a.868.868 0 0 0-.33-.387.815.815 0 0 0-.452-.14.91.91 0 0 0-.655.285c-.19.188-.302.45-.334.787Zm6.165 2.311a2.074 2.074 0 0 1-.575.444 1.41 1.41 0 0 1-.607.132c-.44 0-.823-.183-1.151-.55-.328-.368-.492-.842-.492-1.419 0-.577.181-1.104.545-1.582.363-.48.83-.72 1.401-.72.355 0 .648.112.88.338v-.743c0-.46-.012-.742-.036-.848-.02-.105-.054-.177-.1-.215a.27.27 0 0 0-.177-.057.925.925 0 0 0-.303.07l-.057-.154 1.2-.492h.197v4.654c0 .471.01.76.031.865.024.103.059.175.106.216.05.04.107.061.171.061.08 0 .185-.024.316-.074l.049.154-1.196.496h-.202v-.576Zm0-.307v-2.075a1.387 1.387 0 0 0-.158-.544.893.893 0 0 0-.351-.37.826.826 0 0 0-.422-.127c-.258 0-.488.116-.69.347-.267.305-.4.75-.4 1.336 0 .592.129 1.046.387 1.362.257.314.544.47.86.47.268 0 .525-.133.774-.4Zm5.353-2.242c-.472-.386-.776-.697-.914-.931a1.444 1.444 0 0 1-.202-.73c0-.386.15-.719.448-.997.299-.281.696-.422 1.19-.422.481 0 .868.13 1.161.391.293.26.44.558.44.892 0 .223-.08.45-.238.681-.158.232-.488.504-.989.818.516.398.857.712 1.024.94.223.299.334.614.334.945 0 .419-.16.778-.479 1.077-.32.296-.738.444-1.257.444-.565 0-1.006-.178-1.322-.532-.252-.284-.378-.595-.378-.932 0-.264.088-.524.263-.782.18-.26.485-.548.919-.861Zm.69-.47c.351-.316.574-.565.668-.747.093-.184.14-.392.14-.624 0-.307-.086-.548-.259-.72-.173-.176-.409-.264-.707-.264-.3 0-.542.086-.73.26a.8.8 0 0 0-.281.606c0 .152.038.304.114.457.08.152.19.297.334.435l.72.597Zm-.484.638a2.05 2.05 0 0 0-.54.672 1.76 1.76 0 0 0-.176.782c0 .378.103.681.308.91.208.225.471.338.79.338.317 0 .57-.09.761-.268a.859.859 0 0 0 .286-.65c0-.211-.056-.4-.167-.567-.208-.31-.629-.717-1.262-1.218Zm6.755.637v.624h-.8V61h-.725v-1.573h-2.523v-.563l2.765-3.946h.483v3.885h.8Zm-1.525 0v-2.958l-2.092 2.958h2.092Zm4.078-1.428 1.24-.502h.166v.941c.208-.355.416-.602.624-.743.211-.143.432-.215.664-.215.404 0 .741.158 1.01.475.332.386.497.89.497 1.511 0 .695-.199 1.269-.597 1.723a1.582 1.582 0 0 1-1.24.558 1.55 1.55 0 0 1-.562-.092 1.32 1.32 0 0 1-.396-.264v1.226c0 .276.016.45.049.523a.388.388 0 0 0 .175.18c.085.044.238.066.457.066v.163h-2.109v-.163h.11a.798.798 0 0 0 .413-.092.305.305 0 0 0 .127-.158c.033-.07.049-.252.049-.545V58.16c0-.26-.012-.426-.035-.496a.294.294 0 0 0-.115-.159.354.354 0 0 0-.206-.052c-.07 0-.16.02-.268.061l-.053-.14Zm1.406.698v1.503c0 .325.013.54.04.642.04.17.14.32.299.448a.94.94 0 0 0 .606.193c.293 0 .53-.114.712-.342.237-.3.356-.72.356-1.262 0-.615-.135-1.088-.404-1.42-.188-.228-.41-.342-.668-.342a.91.91 0 0 0-.418.106c-.105.052-.28.21-.523.474Zm5.353-1.217c.61 0 1.098.231 1.468.694.313.396.47.85.47 1.363 0 .36-.087.725-.26 1.094a1.882 1.882 0 0 1-.716.835 1.876 1.876 0 0 1-1.01.281c-.607 0-1.089-.242-1.446-.725a2.246 2.246 0 0 1-.453-1.371c0-.37.09-.736.272-1.099.185-.366.427-.636.726-.808.298-.176.615-.264.949-.264Zm-.136.286a.918.918 0 0 0-.47.14c-.156.091-.282.252-.379.484-.096.231-.145.528-.145.892 0 .586.116 1.091.348 1.516.234.425.542.637.922.637a.858.858 0 0 0 .704-.352c.184-.234.276-.637.276-1.208 0-.715-.153-1.277-.461-1.688-.208-.28-.473-.421-.795-.421Zm3.691-2.391c.123 0 .227.044.312.132a.417.417 0 0 1 .132.312.431.431 0 0 1-.132.316.417.417 0 0 1-.312.132.431.431 0 0 1-.316-.132.431.431 0 0 1-.132-.316c0-.123.042-.227.127-.312a.437.437 0 0 1 .321-.132Zm.365 2.105v3.234c0 .252.017.42.053.506a.403.403 0 0 0 .162.184c.073.041.205.062.396.062V61h-1.956v-.158c.196 0 .328-.02.395-.057a.381.381 0 0 0 .159-.19c.04-.087.061-.256.061-.505v-1.55c0-.438-.013-.72-.04-.85-.02-.093-.052-.157-.096-.192a.266.266 0 0 0-.18-.058.88.88 0 0 0-.299.066l-.061-.158 1.212-.492h.194Zm2.29.852c.471-.568.92-.852 1.348-.852a.96.96 0 0 1 .567.167c.159.108.285.288.378.54.065.176.097.446.097.81v1.717c0 .255.02.428.061.519a.37.37 0 0 0 .154.171c.074.041.207.062.4.062V61h-1.99v-.158h.083c.187 0 .318-.028.391-.084a.455.455 0 0 0 .158-.255c.012-.044.018-.181.018-.413v-1.648c0-.366-.048-.631-.145-.795-.094-.167-.254-.25-.48-.25-.348 0-.695.19-1.04.57v2.123c0 .273.015.441.048.506a.424.424 0 0 0 .167.189c.073.038.22.057.44.057V61H87.38v-.158h.088c.205 0 .343-.051.413-.154.074-.105.11-.305.11-.598v-1.494c0-.483-.011-.778-.035-.883-.02-.106-.054-.177-.101-.215a.266.266 0 0 0-.18-.058.846.846 0 0 0-.295.066l-.066-.158 1.213-.492h.19v.852Zm4.495-2.056v1.323h.94v.307h-.94v2.61c0 .261.037.437.11.528.076.09.173.136.29.136.097 0 .19-.03.281-.088a.593.593 0 0 0 .211-.268h.171c-.102.287-.247.504-.435.65a.945.945 0 0 1-.58.216.792.792 0 0 1-.395-.11.692.692 0 0 1-.286-.32c-.061-.141-.092-.357-.092-.647v-2.707h-.637v-.145c.16-.064.325-.173.492-.325.17-.155.32-.338.452-.55.068-.11.162-.314.282-.61h.136Zm3.937 1.204v1.371h-.145c-.111-.43-.254-.724-.43-.879a.957.957 0 0 0-.664-.233.734.734 0 0 0-.496.163c-.126.108-.19.228-.19.36 0 .164.047.305.141.422.091.12.276.248.554.382l.641.312c.595.29.893.673.893 1.147 0 .367-.14.662-.418.888a1.437 1.437 0 0 1-.927.334c-.246 0-.527-.044-.844-.132a.856.856 0 0 0-.237-.044c-.068 0-.12.038-.158.114h-.145v-1.437h.145c.082.41.238.72.47.928.231.208.49.312.778.312a.694.694 0 0 0 .492-.176.569.569 0 0 0 .193-.43.678.678 0 0 0-.215-.51c-.14-.138-.423-.313-.848-.523-.425-.211-.703-.402-.835-.572a.99.99 0 0 1-.198-.633c0-.33.113-.607.338-.83.229-.223.523-.334.884-.334.158 0 .35.034.575.101.15.044.25.066.3.066.046 0 .083-.01.11-.03a.422.422 0 0 0 .091-.137h.145Zm5.124 0c.61 0 1.099.231 1.468.694.314.396.47.85.47 1.363 0 .36-.086.725-.259 1.094-.173.369-.411.647-.716.835a1.878 1.878 0 0 1-1.011.281c-.606 0-1.088-.242-1.446-.725a2.25 2.25 0 0 1-.452-1.371c0-.37.09-.736.272-1.099.185-.366.426-.636.725-.808a1.84 1.84 0 0 1 .949-.264Zm-.136.286a.917.917 0 0 0-.47.14c-.155.091-.281.252-.378.484-.097.231-.145.528-.145.892 0 .586.116 1.091.347 1.516.235.425.542.637.923.637a.857.857 0 0 0 .703-.352c.185-.234.277-.637.277-1.208 0-.715-.154-1.277-.461-1.688-.208-.28-.474-.421-.796-.421Zm6.196-.167v2.439c0 .465.011.751.031.856.024.103.059.175.106.216.05.04.107.061.171.061a.786.786 0 0 0 .308-.074l.061.154-1.204.496h-.198v-.852c-.345.374-.609.61-.791.707a1.204 1.204 0 0 1-.575.145.935.935 0 0 1-.589-.193 1.027 1.027 0 0 1-.343-.506c-.064-.205-.097-.495-.097-.87v-1.797c0-.19-.02-.322-.061-.396a.397.397 0 0 0-.185-.167c-.079-.04-.224-.06-.435-.057v-.162h1.411v2.694c0 .375.064.62.193.738a.69.69 0 0 0 .475.176.97.97 0 0 0 .426-.12c.161-.078.352-.23.571-.452v-2.28c0-.229-.042-.383-.127-.462-.082-.082-.255-.126-.519-.132v-.162h1.371Zm2.141-1.323v1.323h.94v.307h-.94v2.61c0 .261.036.437.109.528.077.09.173.136.291.136.096 0 .19-.03.281-.088a.594.594 0 0 0 .211-.268h.171c-.102.287-.247.504-.435.65a.944.944 0 0 1-.58.216.793.793 0 0 1-.396-.11.693.693 0 0 1-.285-.32c-.062-.141-.092-.357-.092-.647v-2.707h-.638v-.145c.161-.064.326-.173.492-.325.17-.155.321-.338.453-.55.068-.11.161-.314.281-.61h.137Zm5.554 1.204c.61 0 1.099.231 1.468.694.314.396.47.85.47 1.363 0 .36-.086.725-.259 1.094a1.89 1.89 0 0 1-.716.835 1.878 1.878 0 0 1-1.011.281c-.606 0-1.088-.242-1.446-.725a2.244 2.244 0 0 1-.452-1.371c0-.37.09-.736.272-1.099.185-.366.426-.636.725-.808a1.84 1.84 0 0 1 .949-.264Zm-.136.286a.917.917 0 0 0-.47.14c-.155.091-.281.252-.378.484-.097.231-.145.528-.145.892 0 .586.116 1.091.347 1.516.234.425.542.637.923.637a.859.859 0 0 0 .703-.352c.185-.234.277-.637.277-1.208 0-.715-.154-1.277-.462-1.688-.208-.28-.473-.421-.795-.421Zm4.241.149v2.646c0 .375.041.612.123.711a.538.538 0 0 0 .435.194h.365V61h-2.404v-.158h.18c.117 0 .224-.03.321-.088a.454.454 0 0 0 .198-.237c.038-.1.057-.293.057-.58V57.29h-.783v-.316h.783v-.264c0-.401.064-.741.193-1.02.129-.278.325-.502.589-.672.267-.173.565-.26.896-.26.308 0 .591.1.849.3.169.131.254.28.254.443a.36.36 0 0 1-.114.25.344.344 0 0 1-.246.115.414.414 0 0 1-.215-.07c-.073-.05-.164-.154-.273-.312-.108-.161-.208-.27-.299-.325a.564.564 0 0 0-.303-.084.54.54 0 0 0-.343.11.597.597 0 0 0-.202.334c-.041.15-.061.538-.061 1.165v.29h1.037v.316h-1.037Zm4.447-1.665 1.45-.708h.145v5.032c0 .334.013.542.04.624a.334.334 0 0 0 .176.189c.087.044.266.069.536.074V61h-2.241v-.163c.281-.006.462-.029.544-.07a.374.374 0 0 0 .172-.171c.032-.073.048-.289.048-.646v-3.217c0-.434-.014-.712-.044-.835a.342.342 0 0 0-.114-.207.292.292 0 0 0-.193-.066c-.109 0-.26.046-.453.137l-.066-.136Zm7.572 4.227L131.735 61h-3.515v-.163c1.034-.943 1.762-1.714 2.184-2.311.422-.598.633-1.144.633-1.64 0-.377-.116-.688-.348-.93a1.105 1.105 0 0 0-.83-.366 1.3 1.3 0 0 0-.791.26c-.232.17-.403.42-.514.751h-.163c.073-.542.261-.958.563-1.248.304-.29.684-.435 1.138-.435.483 0 .886.155 1.208.466.325.31.488.676.488 1.098 0 .302-.07.604-.211.906-.217.474-.568.977-1.055 1.507-.729.797-1.185 1.277-1.366 1.441h1.555c.317 0 .538-.011.664-.035a.882.882 0 0 0 .347-.14.95.95 0 0 0 .268-.308h.163Zm.699-1.797c0-.68.102-1.264.307-1.754.205-.492.478-.858.818-1.098a1.38 1.38 0 0 1 .817-.286c.457 0 .867.233 1.23.699.455.577.682 1.36.682 2.346 0 .692-.1 1.28-.299 1.763-.199.483-.454.834-.765 1.054-.308.217-.605.325-.892.325-.568 0-1.042-.335-1.419-1.006-.32-.565-.479-1.246-.479-2.043Zm.861.11c0 .82.101 1.49.303 2.008.167.436.416.655.747.655.158 0 .322-.07.492-.211.17-.144.299-.383.387-.717.135-.504.202-1.214.202-2.131 0-.68-.07-1.247-.211-1.7-.105-.338-.241-.576-.408-.717a.675.675 0 0 0-.435-.145c-.2 0-.377.09-.532.268-.211.243-.355.626-.431 1.147a10.687 10.687 0 0 0-.114 1.543ZM24.118 71.005H21.81l-.405.94c-.1.232-.15.405-.15.519 0 .09.043.171.128.242.088.067.276.11.563.131V73H20.07v-.163c.25-.044.41-.1.484-.171.15-.14.315-.426.496-.857l2.096-4.904h.154l2.075 4.957c.166.398.317.657.452.778.138.117.328.183.571.197V73h-2.35v-.163c.237-.011.396-.05.478-.118a.305.305 0 0 0 .128-.246c0-.13-.059-.333-.176-.611l-.36-.857Zm-.123-.325-1.011-2.409-1.037 2.409h2.048Zm4.174-3.929v5.34c0 .251.018.418.053.5a.414.414 0 0 0 .172.19c.076.04.218.06.426.06V73h-1.973v-.158c.184 0 .31-.02.378-.057a.381.381 0 0 0 .158-.19c.038-.087.057-.256.057-.505v-3.656c0-.454-.01-.732-.03-.835-.021-.105-.055-.177-.102-.215a.252.252 0 0 0-.171-.057.82.82 0 0 0-.29.07l-.075-.154 1.2-.492h.197Zm1.798 3.74c-.003.597.142 1.066.435 1.406.293.34.637.51 1.033.51.263 0 .492-.072.685-.216.196-.146.36-.395.492-.747l.136.088a2.1 2.1 0 0 1-.536 1.099 1.434 1.434 0 0 1-1.111.492c-.484 0-.898-.188-1.244-.563-.343-.377-.514-.884-.514-1.52 0-.688.176-1.225.527-1.608a1.73 1.73 0 0 1 1.332-.58c.45 0 .821.149 1.111.448.29.296.435.693.435 1.19h-2.781Zm0-.255h1.863c-.015-.258-.045-.44-.092-.545a.868.868 0 0 0-.33-.387.815.815 0 0 0-.452-.14.91.91 0 0 0-.655.285c-.19.188-.302.45-.334.787Zm3.16-1.261h1.893v.162c-.12 0-.205.02-.254.062a.206.206 0 0 0-.07.162c0 .07.05.179.153.325l.145.22.286.457.33-.457c.21-.29.316-.473.316-.55a.191.191 0 0 0-.075-.153c-.05-.044-.13-.066-.242-.066v-.162h1.363v.162a.742.742 0 0 0-.374.119c-.143.1-.34.316-.589.65l-.549.734 1.002 1.442c.246.354.422.568.527.641a.81.81 0 0 0 .409.119V73h-1.899v-.158a.48.48 0 0 0 .308-.088.192.192 0 0 0 .084-.163c0-.067-.094-.237-.282-.51l-.589-.86-.646.86c-.199.267-.298.425-.298.475 0 .07.032.135.096.194a.496.496 0 0 0 .3.092V73h-1.315v-.158a.595.595 0 0 0 .277-.11c.111-.085.299-.302.563-.65l.843-1.121-.764-1.108c-.217-.316-.386-.514-.506-.593a.755.755 0 0 0-.444-.123v-.162Zm7.589 1.516c-.003.597.142 1.066.435 1.406.293.34.637.51 1.033.51.263 0 .492-.072.685-.216.196-.146.36-.395.492-.747l.137.088c-.062.402-.24.768-.537 1.099a1.434 1.434 0 0 1-1.111.492c-.484 0-.898-.188-1.244-.563-.343-.377-.514-.884-.514-1.52 0-.688.176-1.225.527-1.608a1.73 1.73 0 0 1 1.332-.58c.45 0 .822.149 1.111.448.29.296.436.693.436 1.19h-2.782Zm0-.255h1.863c-.014-.258-.045-.44-.092-.545a.868.868 0 0 0-.33-.387.814.814 0 0 0-.452-.14.91.91 0 0 0-.655.285c-.19.188-.302.45-.334.787Zm5.603 2.184c-.413.32-.672.504-.778.554-.158.073-.327.11-.505.11a.913.913 0 0 1-.69-.286c-.179-.19-.268-.441-.268-.752 0-.196.044-.366.131-.51.12-.199.329-.386.624-.562.3-.176.794-.39 1.486-.642v-.158c0-.401-.065-.676-.194-.826-.126-.15-.31-.224-.553-.224a.624.624 0 0 0-.44.15.45.45 0 0 0-.167.342l.01.255a.433.433 0 0 1-.106.312.347.347 0 0 1-.268.11.349.349 0 0 1-.268-.114.454.454 0 0 1-.102-.312c0-.252.13-.484.387-.695.258-.21.62-.316 1.086-.316.357 0 .65.06.879.18.172.091.3.233.382.426.053.126.079.384.079.774v1.367c0 .383.007.62.022.707.015.085.038.142.07.171a.18.18 0 0 0 .119.044.24.24 0 0 0 .123-.03 2.74 2.74 0 0 0 .356-.321v.246c-.328.44-.642.66-.94.66a.427.427 0 0 1-.343-.15c-.085-.1-.13-.27-.132-.51Zm0-.286v-1.533c-.443.175-.728.3-.857.373-.232.129-.397.264-.497.404a.782.782 0 0 0-.15.462.76.76 0 0 0 .19.527.575.575 0 0 0 .435.207c.223 0 .516-.147.879-.44Zm2.896-3.278v.905c.337-.603.682-.905 1.037-.905a.56.56 0 0 1 .4.15.445.445 0 0 1 .158.338c0 .114-.038.21-.114.29a.365.365 0 0 1-.273.118c-.102 0-.218-.05-.347-.149-.126-.102-.22-.154-.281-.154-.053 0-.11.03-.172.088-.131.12-.267.318-.408.593v1.93c0 .222.028.39.083.505a.458.458 0 0 0 .203.198c.096.052.235.079.417.079V73h-2.061v-.158c.205 0 .357-.032.457-.097a.376.376 0 0 0 .154-.224c.014-.05.022-.192.022-.426v-1.56c0-.47-.01-.747-.031-.835a.315.315 0 0 0-.106-.198.287.287 0 0 0-.188-.062.87.87 0 0 0-.308.066l-.044-.158 1.217-.492h.185Zm2.992.853c.472-.569.922-.853 1.35-.853a.96.96 0 0 1 .566.167c.159.108.285.288.379.54.064.176.096.446.096.81v1.717c0 .255.02.428.062.519a.36.36 0 0 0 .154.171c.073.041.206.062.4.062V73h-1.991v-.158h.083c.188 0 .318-.028.391-.084a.456.456 0 0 0 .158-.255c.012-.043.018-.181.018-.413v-1.648c0-.366-.048-.631-.145-.795-.094-.167-.253-.25-.479-.25-.349 0-.696.19-1.041.57v2.123c0 .273.016.441.048.506a.423.423 0 0 0 .167.189c.073.038.22.057.44.057V73h-1.991v-.158h.087c.206 0 .343-.052.414-.154.073-.106.11-.305.11-.598v-1.494c0-.483-.012-.778-.036-.883-.02-.106-.054-.177-.1-.215a.266.266 0 0 0-.181-.058.845.845 0 0 0-.294.066l-.066-.158 1.213-.492h.189v.853Zm4.004.782c-.003.597.142 1.066.435 1.406.293.34.637.51 1.033.51.263 0 .492-.072.685-.216.197-.146.36-.395.492-.747l.137.088c-.062.402-.24.768-.537 1.099a1.434 1.434 0 0 1-1.111.492c-.484 0-.898-.188-1.244-.563-.343-.377-.514-.884-.514-1.52 0-.688.176-1.225.527-1.608a1.73 1.73 0 0 1 1.332-.58c.451 0 .822.149 1.112.448.29.296.435.693.435 1.19H56.21Zm0-.255h1.863c-.014-.258-.045-.44-.092-.545a.868.868 0 0 0-.33-.387.814.814 0 0 0-.452-.14.91.91 0 0 0-.655.285c-.19.188-.302.45-.334.787Zm6.166 2.311a2.074 2.074 0 0 1-.576.444c-.188.088-.39.132-.607.132-.44 0-.823-.183-1.151-.55-.328-.368-.492-.842-.492-1.419 0-.577.181-1.104.545-1.582.363-.48.83-.72 1.402-.72.354 0 .647.112.879.338v-.743c0-.46-.012-.742-.036-.848-.02-.105-.054-.177-.1-.215a.27.27 0 0 0-.176-.057.926.926 0 0 0-.304.07l-.057-.154 1.2-.492h.198v4.654c0 .471.01.76.03.865.024.103.059.175.106.216.05.04.107.061.171.061.08 0 .185-.025.317-.074l.048.153-1.195.497h-.203v-.576Zm0-.307v-2.075a1.387 1.387 0 0 0-.159-.544.892.892 0 0 0-.351-.37.826.826 0 0 0-.422-.127c-.258 0-.488.116-.69.347-.267.305-.4.75-.4 1.336 0 .592.129 1.046.387 1.362.258.314.545.47.861.47.267 0 .524-.133.773-.4Zm7.813-1.437v.624h-.8V73h-.725v-1.573h-2.522v-.563l2.764-3.946h.483v3.885h.8Zm-1.525 0v-2.958l-2.092 2.958h2.092Zm5.744-3.762-.343.747h-1.793l-.391.8c.776.114 1.391.403 1.846.866.39.398.584.867.584 1.406 0 .313-.064.603-.193.87a2.314 2.314 0 0 1-.48.681 2.45 2.45 0 0 1-1.682.695c-.358 0-.619-.06-.783-.18-.16-.124-.241-.258-.241-.405 0-.082.033-.154.1-.215a.354.354 0 0 1 .256-.097.51.51 0 0 1 .197.035c.059.024.157.084.295.18.22.153.442.229.668.229.343 0 .643-.13.9-.387.261-.26.392-.577.392-.95 0-.36-.116-.695-.347-1.005a2.222 2.222 0 0 0-.959-.726c-.319-.131-.754-.208-1.305-.228l1.143-2.316h2.136Zm2.834 2.334 1.24-.501h.166v.94c.208-.354.416-.602.624-.743.211-.143.433-.215.664-.215.404 0 .741.158 1.01.475.332.386.497.89.497 1.511 0 .695-.199 1.269-.597 1.723a1.582 1.582 0 0 1-1.24.558 1.55 1.55 0 0 1-.562-.092 1.32 1.32 0 0 1-.396-.264v1.226c0 .276.016.45.049.523a.387.387 0 0 0 .176.18c.085.044.237.066.457.066v.163h-2.11v-.163h.11a.797.797 0 0 0 .413-.092.305.305 0 0 0 .128-.158c.032-.07.048-.252.048-.545V70.16c0-.26-.012-.426-.035-.496a.295.295 0 0 0-.115-.159.353.353 0 0 0-.206-.052c-.07 0-.16.02-.268.061l-.053-.14Zm1.406.698v1.503c0 .325.014.54.04.642.041.17.14.32.299.448a.94.94 0 0 0 .606.193c.293 0 .53-.114.712-.342.237-.3.356-.72.356-1.262 0-.615-.135-1.088-.404-1.42-.188-.228-.41-.342-.668-.342a.91.91 0 0 0-.418.106c-.105.052-.28.21-.523.474Zm5.353-1.217c.61 0 1.099.231 1.468.694.313.396.47.85.47 1.363 0 .36-.087.725-.26 1.094a1.882 1.882 0 0 1-.716.835 1.877 1.877 0 0 1-1.01.281c-.607 0-1.089-.242-1.446-.725a2.247 2.247 0 0 1-.453-1.371c0-.37.091-.736.273-1.099a1.84 1.84 0 0 1 1.674-1.072Zm-.136.286a.918.918 0 0 0-.47.14c-.156.091-.282.252-.378.484-.097.231-.145.528-.145.892 0 .586.115 1.091.347 1.516.234.425.542.637.923.637a.858.858 0 0 0 .703-.352c.184-.234.277-.637.277-1.208 0-.715-.154-1.277-.462-1.688-.208-.28-.473-.421-.795-.421Zm3.691-2.391c.123 0 .227.044.312.132a.417.417 0 0 1 .132.312.431.431 0 0 1-.132.316.417.417 0 0 1-.312.132.432.432 0 0 1-.316-.132.431.431 0 0 1-.132-.316c0-.123.042-.227.127-.312a.437.437 0 0 1 .321-.132Zm.365 2.105v3.234c0 .252.017.42.053.506a.403.403 0 0 0 .162.184c.073.041.205.062.396.062V73h-1.956v-.158c.196 0 .328-.02.396-.057a.381.381 0 0 0 .158-.19c.04-.087.061-.256.061-.505v-1.55c0-.438-.013-.72-.04-.85-.02-.093-.052-.157-.096-.192a.266.266 0 0 0-.18-.058.88.88 0 0 0-.299.066l-.061-.158 1.212-.492h.194Zm2.29.853c.471-.569.92-.853 1.349-.853a.96.96 0 0 1 .566.167c.159.108.285.288.378.54.065.176.097.446.097.81v1.717c0 .255.02.428.062.519.032.073.083.13.153.171.074.041.207.062.4.062V73h-1.99v-.158h.083c.188 0 .318-.028.391-.084a.456.456 0 0 0 .158-.255c.012-.043.018-.181.018-.413v-1.648c0-.366-.048-.631-.145-.795-.094-.167-.254-.25-.48-.25-.348 0-.695.19-1.04.57v2.123c0 .273.016.441.048.506a.423.423 0 0 0 .167.189c.073.038.22.057.44.057V73h-1.992v-.158h.088c.206 0 .343-.052.413-.154.074-.106.11-.305.11-.598v-1.494c0-.483-.011-.778-.035-.883-.02-.106-.054-.177-.1-.215a.266.266 0 0 0-.181-.058.845.845 0 0 0-.294.066l-.066-.158 1.212-.492h.19v.853Zm4.495-2.057v1.323h.94v.307h-.94v2.61c0 .261.037.437.11.528.076.09.173.136.29.136.097 0 .19-.03.281-.088a.594.594 0 0 0 .211-.268h.171c-.102.287-.247.504-.435.65a.945.945 0 0 1-.58.216.792.792 0 0 1-.395-.11.692.692 0 0 1-.286-.32c-.061-.141-.092-.357-.092-.647v-2.707h-.637v-.145c.16-.064.325-.173.492-.325.17-.155.32-.338.453-.55a4.93 4.93 0 0 0 .28-.61h.137Zm3.938 1.204v1.371H98.5c-.112-.43-.255-.724-.431-.879a.957.957 0 0 0-.664-.233.735.735 0 0 0-.496.163c-.126.108-.19.228-.19.36 0 .164.048.305.141.422.091.12.276.248.554.382l.642.312c.594.29.892.673.892 1.147 0 .367-.14.663-.418.888a1.437 1.437 0 0 1-.927.334c-.246 0-.527-.044-.844-.132a.857.857 0 0 0-.237-.044c-.067 0-.12.038-.158.114h-.145v-1.437h.145c.082.41.239.72.47.928.231.208.49.312.778.312a.694.694 0 0 0 .492-.176.569.569 0 0 0 .193-.43.678.678 0 0 0-.215-.51c-.14-.138-.423-.313-.848-.523-.425-.211-.703-.402-.835-.572a.99.99 0 0 1-.198-.633c0-.33.113-.607.339-.83.228-.223.522-.334.883-.334.158 0 .35.034.576.101.149.044.249.066.298.066.047 0 .084-.01.11-.03a.42.42 0 0 0 .093-.137h.144Zm5.124 0c.609 0 1.098.231 1.467.694.314.396.471.85.471 1.363 0 .36-.087.725-.26 1.094-.173.369-.411.647-.716.835a1.878 1.878 0 0 1-1.011.281c-.606 0-1.088-.242-1.446-.725a2.25 2.25 0 0 1-.452-1.371c0-.37.091-.736.272-1.099.185-.366.427-.635.725-.808.299-.176.616-.264.95-.264Zm-.137.286a.917.917 0 0 0-.47.14c-.155.091-.281.252-.378.484-.096.231-.145.528-.145.892 0 .586.116 1.091.347 1.516.235.425.542.637.923.637a.857.857 0 0 0 .703-.352c.185-.234.277-.637.277-1.208 0-.715-.154-1.277-.461-1.688-.208-.28-.473-.421-.796-.421Zm6.197-.167v2.439c0 .465.01.751.03.856.024.103.059.175.106.216.05.04.107.061.171.061a.782.782 0 0 0 .308-.074l.061.153-1.204.497h-.197v-.853c-.346.376-.61.611-.792.708a1.204 1.204 0 0 1-.575.145.935.935 0 0 1-.589-.193 1.033 1.033 0 0 1-.343-.506c-.064-.205-.097-.495-.097-.87v-1.797c0-.19-.02-.322-.061-.396a.397.397 0 0 0-.185-.167c-.079-.04-.224-.06-.435-.057v-.162h1.411v2.694c0 .374.064.62.193.738a.69.69 0 0 0 .475.175.97.97 0 0 0 .426-.118c.161-.08.352-.23.572-.453v-2.28c0-.229-.043-.383-.128-.462-.082-.082-.255-.126-.518-.132v-.162h1.371Zm2.14-1.323v1.323h.94v.307h-.94v2.61c0 .261.036.437.11.528a.36.36 0 0 0 .29.136c.096 0 .19-.03.281-.088a.594.594 0 0 0 .211-.268h.171c-.102.287-.247.504-.435.65a.944.944 0 0 1-.58.216.787.787 0 0 1-.395-.11.69.69 0 0 1-.286-.32c-.062-.141-.092-.357-.092-.647v-2.707h-.638v-.145a1.65 1.65 0 0 0 .493-.325c.17-.155.32-.338.452-.55.068-.11.161-.314.282-.61h.136Zm5.554 1.204c.61 0 1.099.231 1.468.694.314.396.47.85.47 1.363 0 .36-.086.725-.259 1.094-.173.369-.411.647-.716.835a1.878 1.878 0 0 1-1.011.281c-.606 0-1.088-.242-1.446-.725a2.25 2.25 0 0 1-.452-1.371c0-.37.09-.736.272-1.099.185-.366.426-.635.725-.808a1.84 1.84 0 0 1 .949-.264Zm-.136.286a.917.917 0 0 0-.47.14c-.155.091-.281.252-.378.484-.097.231-.145.528-.145.892 0 .586.116 1.091.347 1.516.235.425.542.637.923.637a.857.857 0 0 0 .703-.352c.185-.234.277-.637.277-1.208 0-.715-.154-1.277-.461-1.688-.208-.28-.474-.421-.796-.421Zm4.241.149v2.645c0 .375.041.613.123.712a.538.538 0 0 0 .435.194h.365V73h-2.404v-.158h.18c.117 0 .224-.03.321-.088a.445.445 0 0 0 .198-.237c.038-.1.057-.293.057-.58V69.29h-.782v-.316h.782v-.264c0-.401.064-.741.193-1.02.129-.278.325-.502.589-.672.267-.173.565-.26.897-.26.307 0 .59.1.848.3.17.131.255.28.255.443a.36.36 0 0 1-.115.25.344.344 0 0 1-.246.115.414.414 0 0 1-.215-.07c-.073-.05-.164-.154-.273-.312-.108-.161-.208-.27-.298-.325a.57.57 0 0 0-.304-.084.538.538 0 0 0-.342.11.592.592 0 0 0-.203.334c-.041.15-.061.538-.061 1.165v.29h1.037v.316h-1.037Zm4.447-1.665 1.45-.708h.145v5.032c0 .334.014.542.04.624a.334.334 0 0 0 .176.189c.088.044.266.069.536.074V73h-2.241v-.163c.281-.005.463-.029.545-.07a.371.371 0 0 0 .171-.171c.032-.074.048-.289.048-.646v-3.217c0-.434-.014-.712-.044-.835a.342.342 0 0 0-.114-.207.292.292 0 0 0-.193-.066c-.109 0-.26.046-.453.137l-.066-.136Zm7.572 4.227L133.229 73h-3.515v-.163c1.034-.943 1.762-1.713 2.184-2.311.422-.598.633-1.144.633-1.64 0-.377-.116-.688-.347-.93a1.109 1.109 0 0 0-.831-.366 1.3 1.3 0 0 0-.791.26c-.231.17-.403.42-.514.751h-.163c.073-.542.261-.958.563-1.248.304-.29.684-.435 1.138-.435.483 0 .886.155 1.208.466.326.31.488.677.488 1.098 0 .302-.07.604-.211.906-.217.474-.568.977-1.054 1.507-.73.797-1.185 1.277-1.367 1.441h1.556c.316 0 .537-.011.663-.035a.882.882 0 0 0 .347-.14.95.95 0 0 0 .268-.308h.163Zm.699-1.797c0-.68.102-1.264.307-1.754.205-.492.478-.858.818-1.098a1.38 1.38 0 0 1 .817-.286c.457 0 .867.233 1.231.699.454.577.681 1.36.681 2.346 0 .692-.1 1.28-.299 1.763-.199.483-.454.835-.765 1.054-.307.217-.605.326-.892.326-.568 0-1.041-.336-1.419-1.007-.32-.565-.479-1.246-.479-2.043Zm.861.11c0 .82.101 1.49.303 2.008.167.436.416.655.747.655.159 0 .323-.07.493-.211.169-.144.298-.383.386-.717.135-.504.202-1.214.202-2.131 0-.68-.07-1.247-.211-1.7-.105-.338-.241-.576-.408-.717a.671.671 0 0 0-.435-.145c-.2 0-.377.09-.532.268-.211.243-.355.626-.431 1.147a10.687 10.687 0 0 0-.114 1.542Zm-114.31 9.038v-.163h2.553v.163h-.216c-.243 0-.42.071-.531.215-.07.094-.106.32-.106.677v2.913c0 .448-.05.812-.15 1.09a1.69 1.69 0 0 1-.505.73c-.24.205-.53.307-.87.307-.275 0-.492-.067-.65-.202-.158-.138-.237-.294-.237-.47 0-.144.036-.252.11-.325a.479.479 0 0 1 .338-.137c.094 0 .177.031.25.093.076.061.172.225.286.492.067.158.154.237.26.237.078 0 .152-.048.219-.145.07-.097.105-.268.105-.514v-4.07c0-.301-.019-.5-.057-.597a.393.393 0 0 0-.184-.189.809.809 0 0 0-.4-.105h-.215Zm3.568 3.287c-.003.597.142 1.066.435 1.406.293.34.637.51 1.033.51.263 0 .492-.072.685-.216.197-.146.36-.395.492-.747l.137.088c-.062.402-.24.768-.537 1.099a1.434 1.434 0 0 1-1.111.492c-.484 0-.898-.188-1.244-.563-.343-.377-.514-.884-.514-1.52 0-.688.176-1.225.527-1.608a1.73 1.73 0 0 1 1.332-.58c.45 0 .822.149 1.111.448.29.296.436.693.436 1.19h-2.782Zm0-.255h1.863c-.014-.258-.045-.44-.092-.545a.868.868 0 0 0-.33-.387.814.814 0 0 0-.452-.14.91.91 0 0 0-.655.285c-.19.188-.302.45-.334.787Zm5.924-1.38v1.371h-.145c-.112-.43-.255-.724-.431-.879a.957.957 0 0 0-.664-.233.735.735 0 0 0-.496.163c-.126.108-.19.228-.19.36 0 .164.048.305.142.422.09.12.275.248.553.382l.642.312c.595.29.892.673.892 1.147 0 .367-.14.663-.418.888a1.437 1.437 0 0 1-.927.334c-.246 0-.527-.044-.844-.132a.857.857 0 0 0-.237-.044c-.067 0-.12.038-.158.114h-.145v-1.437h.145c.082.41.239.72.47.928.232.208.49.312.778.312a.693.693 0 0 0 .492-.176.568.568 0 0 0 .194-.43.678.678 0 0 0-.216-.51c-.14-.138-.423-.313-.848-.523-.425-.211-.703-.402-.835-.572a.99.99 0 0 1-.198-.633c0-.33.113-.607.339-.83.228-.223.523-.334.883-.334.158 0 .35.034.576.101.15.044.249.066.299.066.046 0 .083-.01.11-.03a.423.423 0 0 0 .092-.137h.145Zm3.506 0v1.371h-.145c-.11-.43-.254-.724-.43-.879a.957.957 0 0 0-.664-.233.734.734 0 0 0-.496.163c-.126.108-.19.228-.19.36 0 .164.048.305.141.422.091.12.276.248.554.382l.642.312c.594.29.892.673.892 1.147 0 .367-.14.663-.418.888a1.437 1.437 0 0 1-.927.334c-.246 0-.527-.044-.844-.132a.857.857 0 0 0-.237-.044c-.067 0-.12.038-.158.114h-.145v-1.437h.145c.082.41.239.72.47.928.231.208.49.312.778.312a.694.694 0 0 0 .492-.176.569.569 0 0 0 .193-.43.678.678 0 0 0-.215-.51c-.14-.138-.423-.313-.848-.523-.425-.211-.703-.402-.835-.572a.99.99 0 0 1-.198-.633c0-.33.113-.607.338-.83.229-.223.523-.334.884-.334.158 0 .35.034.575.101.15.044.25.066.3.066.046 0 .083-.01.11-.03a.422.422 0 0 0 .092-.137h.145Zm1.93-2.105c.123 0 .227.044.312.132a.417.417 0 0 1 .132.312.431.431 0 0 1-.132.316.417.417 0 0 1-.312.132.432.432 0 0 1-.317-.132.431.431 0 0 1-.132-.316c0-.123.043-.227.128-.312a.437.437 0 0 1 .32-.132Zm.364 2.105v3.234c0 .252.018.42.053.506a.403.403 0 0 0 .163.184c.073.041.205.062.395.062V85h-1.955v-.158c.196 0 .328-.02.395-.057a.38.38 0 0 0 .158-.19c.041-.087.062-.256.062-.505v-1.55c0-.438-.013-.72-.04-.85-.02-.093-.052-.157-.096-.192a.266.266 0 0 0-.18-.058.88.88 0 0 0-.3.066l-.06-.158 1.212-.492h.194Zm1.793 1.635c-.002.597.142 1.066.435 1.406.293.34.638.51 1.033.51.264 0 .492-.072.686-.216.196-.146.36-.395.492-.747l.136.088a2.1 2.1 0 0 1-.536 1.099 1.434 1.434 0 0 1-1.112.492c-.483 0-.898-.188-1.243-.563-.343-.377-.515-.884-.515-1.52 0-.688.176-1.225.528-1.608a1.73 1.73 0 0 1 1.331-.58c.452 0 .822.149 1.112.448.29.296.435.693.435 1.19h-2.782Zm0-.255h1.864c-.015-.258-.046-.44-.093-.545a.868.868 0 0 0-.33-.387.814.814 0 0 0-.452-.14.91.91 0 0 0-.655.285c-.19.188-.301.45-.334.787Zm6.25.255c-.004.597.142 1.066.434 1.406.294.34.638.51 1.033.51.264 0 .492-.072.686-.216.196-.146.36-.395.492-.747l.136.088a2.1 2.1 0 0 1-.536 1.099 1.435 1.435 0 0 1-1.112.492c-.483 0-.898-.188-1.243-.563-.343-.377-.515-.884-.515-1.52 0-.688.176-1.225.528-1.608a1.73 1.73 0 0 1 1.331-.58c.451 0 .822.149 1.112.448.29.296.435.693.435 1.19h-2.782Zm0-.255h1.863c-.015-.258-.046-.44-.093-.545a.868.868 0 0 0-.33-.387.815.815 0 0 0-.452-.14.91.91 0 0 0-.655.285c-.19.188-.301.45-.334.787Zm5.602 2.184c-.413.32-.672.504-.777.554-.159.073-.327.11-.506.11a.913.913 0 0 1-.69-.286c-.178-.19-.268-.441-.268-.752 0-.196.044-.366.132-.51.12-.199.328-.386.624-.562.299-.176.794-.39 1.486-.642v-.158c0-.401-.065-.676-.194-.826-.126-.15-.31-.224-.554-.224a.624.624 0 0 0-.44.15.45.45 0 0 0-.166.342l.009.255c0 .135-.035.239-.106.312a.347.347 0 0 1-.268.11.349.349 0 0 1-.268-.114.455.455 0 0 1-.1-.312c0-.252.128-.484.386-.695.258-.21.62-.316 1.085-.316.358 0 .65.06.88.18.172.091.3.233.382.426.052.126.079.384.079.774v1.367c0 .383.007.62.021.707.015.085.039.142.07.171a.18.18 0 0 0 .12.044.24.24 0 0 0 .123-.03c.061-.038.18-.145.355-.321v.246c-.328.44-.641.66-.94.66a.428.428 0 0 1-.343-.15c-.085-.1-.129-.27-.132-.51Zm0-.286v-1.533c-.442.175-.728.3-.857.373-.23.129-.396.264-.496.404a.78.78 0 0 0-.15.462.76.76 0 0 0 .19.527.575.575 0 0 0 .435.207c.222 0 .515-.147.878-.44Zm2.896-3.278v.905c.337-.603.683-.905 1.038-.905a.56.56 0 0 1 .4.15.445.445 0 0 1 .158.338c0 .114-.038.21-.115.29a.365.365 0 0 1-.272.118c-.103 0-.218-.05-.347-.149-.126-.102-.22-.154-.282-.154-.052 0-.11.03-.17.088-.133.12-.269.318-.41.593v1.93c0 .222.028.39.084.505a.455.455 0 0 0 .202.198c.097.052.236.079.418.079V85h-2.061v-.158c.205 0 .357-.032.457-.097a.376.376 0 0 0 .153-.224c.015-.05.022-.192.022-.426v-1.56c0-.47-.01-.747-.03-.835a.315.315 0 0 0-.106-.198.287.287 0 0 0-.189-.062.87.87 0 0 0-.307.066l-.044-.158 1.217-.492h.184Zm2.993.853c.472-.569.922-.853 1.35-.853a.96.96 0 0 1 .566.167c.158.108.284.288.378.54.064.176.097.446.097.81v1.717c0 .255.02.428.061.519a.37.37 0 0 0 .154.171c.073.041.207.062.4.062V85h-1.99v-.158h.083c.187 0 .318-.028.39-.084a.455.455 0 0 0 .16-.255c.01-.043.017-.181.017-.413v-1.648c0-.366-.049-.631-.145-.795-.094-.167-.254-.25-.48-.25-.348 0-.695.19-1.04.57v2.123c0 .273.015.441.048.506a.424.424 0 0 0 .166.189c.074.038.22.057.44.057V85h-1.99v-.158h.087c.205 0 .343-.052.413-.154.073-.106.11-.305.11-.598v-1.494c0-.483-.012-.778-.035-.883-.02-.106-.054-.177-.101-.215a.266.266 0 0 0-.18-.058.846.846 0 0 0-.295.066l-.066-.158 1.213-.492h.19v.853Zm4.004.782c-.003.597.142 1.066.435 1.406.293.34.637.51 1.032.51.264 0 .492-.072.686-.216.196-.146.36-.395.492-.747l.136.088a2.1 2.1 0 0 1-.536 1.099 1.434 1.434 0 0 1-1.112.492c-.483 0-.898-.188-1.243-.563-.343-.377-.514-.884-.514-1.52 0-.688.175-1.225.527-1.608a1.73 1.73 0 0 1 1.331-.58c.452 0 .822.149 1.112.448.29.296.435.693.435 1.19h-2.781Zm0-.255h1.863c-.015-.258-.046-.44-.092-.545a.868.868 0 0 0-.33-.387.815.815 0 0 0-.453-.14.91.91 0 0 0-.655.285c-.19.188-.301.45-.333.787Zm6.165 2.311a2.074 2.074 0 0 1-.576.444 1.41 1.41 0 0 1-.606.132c-.44 0-.823-.183-1.151-.55-.328-.368-.493-.842-.493-1.419 0-.577.182-1.104.545-1.582.364-.48.83-.72 1.402-.72.355 0 .648.112.88.338v-.743c0-.46-.013-.742-.036-.848-.02-.105-.054-.177-.101-.215a.27.27 0 0 0-.176-.057.925.925 0 0 0-.303.07l-.057-.154 1.2-.492h.197v4.654c0 .471.01.76.03.865a.41.41 0 0 0 .106.216c.05.04.107.061.172.061a.972.972 0 0 0 .316-.074l.049.153-1.196.497h-.202v-.576Zm0-.307v-2.075a1.387 1.387 0 0 0-.158-.544.892.892 0 0 0-.352-.37.825.825 0 0 0-.422-.127c-.257 0-.487.116-.69.347-.266.305-.4.75-.4 1.336 0 .592.13 1.046.387 1.362.258.314.545.47.862.47.266 0 .524-.133.773-.4Zm4.1.883v-.163a2.36 2.36 0 0 0 1.064-.263c.328-.173.644-.473.949-.901.308-.428.521-.898.642-1.41-.46.295-.877.443-1.249.443-.418 0-.777-.161-1.076-.483-.3-.326-.448-.756-.448-1.292 0-.522.149-.986.448-1.393.36-.496.83-.743 1.41-.743.49 0 .909.202 1.257.606.428.501.642 1.12.642 1.855 0 .662-.163 1.28-.488 1.854a4.118 4.118 0 0 1-1.358 1.424c-.471.31-.986.466-1.542.466h-.25Zm2.725-3.063c.052-.38.079-.686.079-.914 0-.284-.048-.59-.145-.918-.097-.331-.234-.585-.413-.76a.829.829 0 0 0-.602-.264c-.261 0-.49.117-.686.351-.196.235-.294.583-.294 1.046 0 .618.13 1.102.39 1.45.191.252.426.378.704.378.135 0 .294-.032.479-.097.185-.064.347-.155.488-.272Zm1.775 3.063v-.163a2.36 2.36 0 0 0 1.064-.263c.328-.173.644-.473.949-.901.308-.428.521-.898.642-1.41-.46.295-.877.443-1.249.443-.418 0-.777-.161-1.076-.483-.3-.326-.448-.756-.448-1.292 0-.522.149-.986.448-1.393.36-.496.83-.743 1.41-.743.49 0 .909.202 1.257.606.428.501.642 1.12.642 1.855 0 .662-.163 1.28-.488 1.854a4.118 4.118 0 0 1-1.358 1.424c-.471.31-.986.466-1.542.466h-.25Zm2.725-3.063c.052-.38.079-.686.079-.914 0-.284-.048-.59-.145-.918-.097-.331-.234-.585-.413-.76a.829.829 0 0 0-.602-.264c-.261 0-.49.117-.686.351-.196.235-.294.583-.294 1.046 0 .618.13 1.102.39 1.45.191.252.426.378.704.378.135 0 .294-.032.479-.097.185-.064.347-.155.488-.272Zm3.542-.686 1.239-.5h.167v.94c.208-.354.416-.602.624-.743a1.16 1.16 0 0 1 .664-.215c.404 0 .74.158 1.01.475.331.386.497.89.497 1.511 0 .695-.2 1.269-.598 1.723a1.582 1.582 0 0 1-1.239.558c-.217 0-.404-.03-.563-.092a1.32 1.32 0 0 1-.395-.264v1.226c0 .276.016.45.048.523a.387.387 0 0 0 .176.18c.085.044.237.066.457.066v.163h-2.11v-.163h.11a.798.798 0 0 0 .414-.092.305.305 0 0 0 .127-.158c.032-.07.049-.252.049-.545V82.16c0-.26-.012-.426-.036-.496a.294.294 0 0 0-.114-.159.353.353 0 0 0-.206-.052c-.07 0-.16.02-.269.061l-.052-.14Zm1.406.7v1.502c0 .325.013.54.04.642.04.17.14.32.298.448a.94.94 0 0 0 .607.193c.293 0 .53-.114.712-.342.237-.3.356-.72.356-1.262 0-.615-.135-1.088-.405-1.42-.187-.228-.41-.342-.667-.342a.91.91 0 0 0-.418.106c-.106.052-.28.21-.523.474Zm5.353-1.218c.609 0 1.098.231 1.467.694.314.396.47.85.47 1.363 0 .36-.086.725-.259 1.094-.173.369-.411.647-.716.835a1.877 1.877 0 0 1-1.01.281c-.607 0-1.09-.242-1.447-.725a2.247 2.247 0 0 1-.452-1.371c0-.37.09-.736.272-1.099.185-.366.426-.635.725-.808.3-.176.616-.264.95-.264Zm-.137.286a.918.918 0 0 0-.47.14c-.155.091-.281.252-.378.484-.097.231-.145.528-.145.892 0 .586.116 1.091.347 1.516.235.425.542.637.923.637a.858.858 0 0 0 .703-.352c.185-.234.277-.637.277-1.208 0-.715-.154-1.277-.461-1.688-.208-.28-.473-.421-.796-.421Zm3.692-2.391c.123 0 .227.044.312.132a.417.417 0 0 1 .132.312.431.431 0 0 1-.132.316.417.417 0 0 1-.312.132.432.432 0 0 1-.317-.132.432.432 0 0 1-.132-.316c0-.123.043-.227.128-.312a.436.436 0 0 1 .32-.132Zm.365 2.105v3.234c0 .252.017.42.052.506a.403.403 0 0 0 .163.184c.073.041.205.062.395.062V85h-1.955v-.158c.196 0 .328-.02.395-.057a.381.381 0 0 0 .159-.19c.04-.087.061-.256.061-.505v-1.55c0-.438-.013-.72-.04-.85-.02-.093-.052-.157-.096-.192a.266.266 0 0 0-.18-.058.88.88 0 0 0-.3.066l-.06-.158 1.212-.492h.194Zm2.29.853c.47-.569.92-.853 1.348-.853a.96.96 0 0 1 .567.167c.158.108.284.288.378.54.064.176.097.446.097.81v1.717c0 .255.02.428.061.519.032.073.084.13.154.171.073.041.207.062.4.062V85h-1.99v-.158h.083c.187 0 .318-.028.39-.084a.455.455 0 0 0 .159-.255c.012-.043.018-.181.018-.413v-1.648c0-.366-.049-.631-.145-.795-.094-.167-.254-.25-.48-.25-.348 0-.695.19-1.04.57v2.123c0 .273.015.441.047.506a.424.424 0 0 0 .167.189c.074.038.22.057.44.057V85h-1.99v-.158h.087c.205 0 .343-.052.413-.154.073-.106.11-.305.11-.598v-1.494c0-.483-.012-.778-.035-.883-.02-.106-.054-.177-.101-.215a.266.266 0 0 0-.18-.058.846.846 0 0 0-.295.066l-.066-.158 1.213-.492h.19v.853Zm4.495-2.057v1.323h.94v.307h-.94v2.61c0 .261.036.437.11.528.076.09.172.136.29.136.096 0 .19-.03.28-.088a.594.594 0 0 0 .212-.268h.171c-.102.287-.247.504-.435.65a.945.945 0 0 1-.58.216.792.792 0 0 1-.395-.11.692.692 0 0 1-.286-.32c-.062-.141-.092-.357-.092-.647v-2.707h-.638v-.145a1.65 1.65 0 0 0 .493-.325c.17-.155.32-.338.452-.55.068-.11.161-.314.281-.61h.137Zm3.937 1.204v1.371h-.145c-.111-.43-.255-.724-.431-.879-.172-.155-.394-.233-.663-.233a.736.736 0 0 0-.497.163c-.126.108-.189.228-.189.36 0 .164.047.305.141.422.091.12.275.248.554.382l.641.312c.595.29.892.673.892 1.147 0 .367-.139.663-.417.888a1.437 1.437 0 0 1-.927.334c-.246 0-.528-.044-.844-.132a.86.86 0 0 0-.237-.044c-.068 0-.12.038-.159.114h-.145v-1.437h.145c.082.41.239.72.471.928.231.208.49.312.777.312a.694.694 0 0 0 .493-.176.568.568 0 0 0 .193-.43.68.68 0 0 0-.215-.51c-.141-.138-.424-.313-.848-.523-.425-.211-.704-.402-.835-.572a.99.99 0 0 1-.198-.633c0-.33.113-.607.338-.83.229-.223.523-.334.883-.334.159 0 .351.034.576.101.15.044.249.066.299.066a.18.18 0 0 0 .11-.03.426.426 0 0 0 .092-.137h.145Zm5.124 0c.61 0 1.099.231 1.468.694.313.396.47.85.47 1.363 0 .36-.086.725-.259 1.094a1.89 1.89 0 0 1-.716.835 1.878 1.878 0 0 1-1.011.281c-.607 0-1.089-.242-1.446-.725a2.245 2.245 0 0 1-.453-1.371c0-.37.091-.736.273-1.099a1.84 1.84 0 0 1 1.674-1.072Zm-.136.286a.917.917 0 0 0-.47.14c-.156.091-.282.252-.378.484-.097.231-.145.528-.145.892 0 .586.116 1.091.347 1.516.234.425.542.637.923.637a.859.859 0 0 0 .703-.352c.184-.234.277-.637.277-1.208 0-.715-.154-1.277-.462-1.688-.208-.28-.473-.421-.795-.421Zm6.196-.167v2.439c0 .465.01.751.031.856a.403.403 0 0 0 .105.216c.05.04.107.061.172.061a.778.778 0 0 0 .307-.074l.062.153-1.204.497h-.198v-.853c-.346.376-.609.611-.791.708a1.208 1.208 0 0 1-.576.145.935.935 0 0 1-.588-.193 1.027 1.027 0 0 1-.343-.506c-.065-.205-.097-.495-.097-.87v-1.797c0-.19-.02-.322-.061-.396a.397.397 0 0 0-.185-.167c-.079-.04-.224-.06-.435-.057v-.162h1.411v2.694c0 .374.064.62.193.738a.69.69 0 0 0 .475.175.97.97 0 0 0 .426-.118c.161-.08.351-.23.571-.453v-2.28c0-.229-.042-.383-.127-.462-.082-.082-.255-.126-.519-.132v-.162h1.371Zm2.14-1.323v1.323h.941v.307h-.941v2.61c0 .261.037.437.11.528.076.09.173.136.29.136a.52.52 0 0 0 .282-.088.592.592 0 0 0 .21-.268h.172c-.103.287-.248.504-.435.65a.946.946 0 0 1-.58.216.793.793 0 0 1-.396-.11.687.687 0 0 1-.285-.32c-.062-.141-.093-.357-.093-.647v-2.707h-.637v-.145a1.66 1.66 0 0 0 .492-.325c.17-.155.321-.338.453-.55a4.84 4.84 0 0 0 .281-.61h.136Zm5.555 1.204c.609 0 1.099.231 1.468.694.313.396.47.85.47 1.363 0 .36-.086.725-.259 1.094a1.89 1.89 0 0 1-.717.835 1.872 1.872 0 0 1-1.01.281c-.607 0-1.089-.242-1.446-.725a2.245 2.245 0 0 1-.453-1.371c0-.37.091-.736.273-1.099a1.84 1.84 0 0 1 1.674-1.072Zm-.136.286a.917.917 0 0 0-.47.14c-.156.091-.282.252-.378.484-.097.231-.145.528-.145.892 0 .586.115 1.091.347 1.516.234.425.542.637.923.637a.859.859 0 0 0 .703-.352c.184-.234.277-.637.277-1.208 0-.715-.154-1.277-.462-1.688-.208-.28-.473-.421-.795-.421Zm4.241.149v2.645c0 .375.041.613.123.712a.538.538 0 0 0 .435.194h.364V85h-2.403v-.158h.18c.117 0 .224-.03.321-.088a.447.447 0 0 0 .197-.237c.038-.1.057-.293.057-.58V81.29h-.782v-.316h.782v-.264c0-.401.065-.741.194-1.02.129-.278.325-.502.589-.672a1.61 1.61 0 0 1 .896-.26c.308 0 .591.1.848.3.17.131.255.28.255.443a.36.36 0 0 1-.114.25.344.344 0 0 1-.246.115.411.411 0 0 1-.215-.07c-.074-.05-.165-.154-.273-.312-.108-.161-.208-.27-.299-.325a.569.569 0 0 0-.303-.084.54.54 0 0 0-.343.11.591.591 0 0 0-.202.334c-.041.15-.061.538-.061 1.165v.29h1.037v.316h-1.037Zm4.447-1.665 1.45-.708h.145v5.032c0 .334.013.542.04.624a.332.332 0 0 0 .175.189c.088.044.267.069.537.074V85h-2.242v-.163c.282-.005.463-.029.545-.07a.378.378 0 0 0 .172-.171c.032-.074.048-.289.048-.646v-3.217c0-.434-.015-.712-.044-.835a.352.352 0 0 0-.114-.207.293.293 0 0 0-.194-.066c-.108 0-.259.046-.452.137l-.066-.136Zm7.572 4.227L136.745 85h-3.516v-.163c1.035-.943 1.763-1.713 2.185-2.311.421-.598.632-1.144.632-1.64 0-.377-.115-.688-.347-.93a1.105 1.105 0 0 0-.83-.366 1.3 1.3 0 0 0-.791.26c-.232.17-.403.42-.515.751h-.162c.073-.542.261-.958.562-1.248.305-.29.684-.435 1.139-.435.483 0 .886.155 1.208.466.325.31.488.677.488 1.098 0 .302-.07.604-.211.906-.217.474-.568.977-1.055 1.507-.729.797-1.185 1.277-1.366 1.441h1.555c.317 0 .538-.011.664-.035a.888.888 0 0 0 .347-.14.962.962 0 0 0 .268-.308h.163Zm.698-1.797c0-.68.103-1.264.308-1.754.205-.492.477-.858.817-1.098a1.38 1.38 0 0 1 .818-.286c.457 0 .867.233 1.23.699.454.577.681 1.36.681 2.346 0 .692-.099 1.28-.298 1.763-.2.483-.455.835-.765 1.054-.308.217-.605.326-.892.326-.569 0-1.042-.336-1.42-1.007-.319-.565-.479-1.246-.479-2.043Zm.862.11c0 .82.101 1.49.303 2.008.167.436.416.655.747.655.158 0 .322-.07.492-.211.17-.144.299-.383.387-.717.135-.504.202-1.214.202-2.131 0-.68-.07-1.247-.211-1.7-.105-.338-.242-.576-.409-.717a.671.671 0 0 0-.435-.145c-.199 0-.376.09-.531.268-.211.243-.355.626-.431 1.147a10.687 10.687 0 0 0-.114 1.542Z" fill="#000"/><rect x="20" y="100" width="260" height="24" rx="4" fill="#3E416D"/><path d="M29.46 112.279v2.315c0 .5.056.81.165.931.148.172.373.258.674.258h.305V116h-3.405v-.217h.299c.336 0 .576-.109.72-.328.079-.121.118-.408.118-.861v-5.133c0-.5-.053-.811-.158-.932-.153-.172-.38-.258-.68-.258h-.299v-.216h2.912c.711 0 1.272.074 1.682.222.41.145.756.391 1.037.739.281.347.422.759.422 1.236 0 .648-.215 1.176-.645 1.582-.425.406-1.029.609-1.81.609a4.97 4.97 0 0 1-.621-.041 7.858 7.858 0 0 1-.715-.123Zm0-.334c.208.039.392.069.552.088.16.02.297.029.41.029a1.39 1.39 0 0 0 1.049-.468c.297-.317.445-.725.445-1.225 0-.344-.07-.662-.21-.955a1.434 1.434 0 0 0-.599-.662 1.734 1.734 0 0 0-.878-.223c-.2 0-.456.037-.768.112v3.304Zm5.497.709c-.004.797.19 1.422.58 1.875.39.453.85.68 1.377.68.352 0 .656-.096.914-.287.262-.195.48-.527.656-.996l.182.117c-.082.535-.32 1.023-.715 1.465a1.914 1.914 0 0 1-1.482.656c-.645 0-1.197-.25-1.659-.75-.457-.504-.685-1.18-.685-2.027 0-.918.234-1.633.703-2.145a2.31 2.31 0 0 1 1.775-.773c.602 0 1.096.199 1.483.597.387.395.58.924.58 1.588h-3.709Zm0-.34h2.484c-.02-.343-.06-.585-.123-.726a1.158 1.158 0 0 0-.44-.516 1.086 1.086 0 0 0-.603-.187c-.324 0-.615.127-.873.381-.254.25-.402.599-.445 1.048Zm6-1.839v1.207c.45-.805.91-1.207 1.383-1.207.215 0 .392.066.533.199.14.129.211.279.211.451 0 .152-.05.281-.152.387a.488.488 0 0 1-.364.158c-.136 0-.29-.066-.462-.199-.169-.137-.294-.205-.376-.205-.07 0-.146.039-.228.117-.176.16-.358.424-.545.791v2.572c0 .297.037.522.111.674a.615.615 0 0 0 .27.264c.129.07.314.105.556.105V116h-2.747v-.211c.273 0 .476-.043.609-.129a.498.498 0 0 0 .205-.299c.02-.066.03-.256.03-.568v-2.08c0-.625-.014-.996-.042-1.113a.422.422 0 0 0-.14-.264.382.382 0 0 0-.252-.082 1.15 1.15 0 0 0-.41.088l-.06-.211 1.624-.656h.246Zm6.984 3.486c-.144.707-.427 1.252-.85 1.635-.421.379-.888.568-1.4.568-.609 0-1.14-.256-1.593-.768-.453-.511-.68-1.203-.68-2.074 0-.843.25-1.529.75-2.056.504-.528 1.107-.791 1.81-.791.528 0 .962.14 1.301.421.34.278.51.567.51.868a.482.482 0 0 1-.146.363c-.094.09-.227.135-.399.135-.23 0-.404-.074-.521-.223-.067-.082-.112-.238-.135-.469-.02-.23-.098-.406-.235-.527-.136-.117-.326-.176-.568-.176-.39 0-.705.145-.943.434-.317.383-.475.888-.475 1.517 0 .641.156 1.207.469 1.7.316.488.742.732 1.277.732a1.54 1.54 0 0 0 1.032-.393c.214-.179.423-.505.627-.978l.17.082Zm1.676-1.307c-.004.797.19 1.422.58 1.875.39.453.85.68 1.377.68.352 0 .657-.096.914-.287.262-.195.48-.527.657-.996l.181.117c-.082.535-.32 1.023-.715 1.465a1.914 1.914 0 0 1-1.482.656c-.645 0-1.197-.25-1.658-.75-.457-.504-.686-1.18-.686-2.027 0-.918.235-1.633.703-2.145.473-.515 1.065-.773 1.776-.773.601 0 1.095.199 1.482.597.387.395.58.924.58 1.588h-3.709Zm0-.34h2.485c-.02-.343-.061-.585-.123-.726a1.157 1.157 0 0 0-.44-.516 1.086 1.086 0 0 0-.604-.187c-.324 0-.615.127-.873.381-.253.25-.402.599-.445 1.048Zm5.994-.703c.63-.757 1.229-1.136 1.8-1.136.292 0 .544.074.755.222.211.145.379.385.504.721.086.234.129.594.129 1.078v2.291c0 .34.027.57.082.692a.488.488 0 0 0 .205.228c.098.055.275.082.533.082V116h-2.654v-.211h.111c.25 0 .424-.037.522-.111a.609.609 0 0 0 .21-.34c.016-.059.024-.242.024-.551v-2.197c0-.488-.064-.842-.193-1.061-.125-.222-.338-.334-.639-.334-.465 0-.928.254-1.389.762v2.83c0 .363.022.588.065.674a.57.57 0 0 0 .222.252c.098.051.293.076.586.076V116H53.83v-.211h.117c.274 0 .457-.068.551-.205.098-.141.147-.406.147-.797v-1.992c0-.645-.016-1.037-.047-1.178-.028-.14-.073-.236-.135-.287a.353.353 0 0 0-.24-.076c-.11 0-.24.029-.393.088l-.088-.211 1.617-.656h.252v1.136Zm5.995-2.742v1.764h1.253v.41h-1.254v3.48c0 .348.05.582.147.704.101.121.23.181.387.181a.684.684 0 0 0 .375-.117.791.791 0 0 0 .28-.357h.23c-.137.382-.33.671-.58.867-.25.191-.509.287-.774.287a1.05 1.05 0 0 1-.527-.147.92.92 0 0 1-.381-.427c-.082-.188-.123-.475-.123-.862v-3.609h-.85v-.193a2.22 2.22 0 0 0 .656-.434c.227-.207.428-.451.604-.732.09-.149.215-.42.375-.815h.181Zm4.822 6.358c-.551.425-.897.671-1.037.738a1.596 1.596 0 0 1-.674.146c-.371 0-.678-.127-.92-.381-.238-.253-.357-.587-.357-1.001 0-.262.058-.489.175-.68.16-.266.438-.516.832-.75.399-.235 1.059-.52 1.98-.856v-.211c0-.535-.085-.902-.257-1.101-.168-.199-.414-.299-.738-.299-.246 0-.442.066-.586.199a.6.6 0 0 0-.223.457l.012.34c0 .18-.047.318-.14.416a.461.461 0 0 1-.358.147.464.464 0 0 1-.358-.153c-.09-.101-.135-.24-.135-.416 0-.336.172-.644.516-.926.344-.281.826-.421 1.447-.421.477 0 .868.08 1.172.24.23.121.4.31.51.568.07.168.105.512.105 1.031v1.823c0 .511.01.826.03.943.02.113.05.19.094.229a.24.24 0 0 0 .158.058.313.313 0 0 0 .164-.041c.082-.051.24-.193.474-.428v.329c-.437.585-.855.878-1.253.878a.57.57 0 0 1-.458-.199c-.113-.133-.171-.359-.175-.679Zm0-.381v-2.045c-.59.234-.971.4-1.143.498-.308.172-.53.351-.662.539a1.04 1.04 0 0 0-.2.615c0 .281.085.516.253.703.168.184.361.276.58.276.297 0 .687-.196 1.172-.586Zm3.726-.803a1.78 1.78 0 0 1-.756-.668 1.802 1.802 0 0 1-.263-.955c0-.531.199-.988.597-1.371.403-.383.916-.574 1.541-.574.512 0 .956.125 1.33.375h1.137c.168 0 .266.005.293.017a.092.092 0 0 1 .059.047c.023.035.035.098.035.188a.52.52 0 0 1-.03.21.116.116 0 0 1-.064.047c-.027.012-.125.018-.293.018h-.697c.219.281.328.641.328 1.078 0 .5-.191.928-.574 1.283-.383.356-.897.533-1.541.533a3 3 0 0 1-.815-.117 1.59 1.59 0 0 0-.351.393.619.619 0 0 0-.088.281c0 .067.031.131.094.193.066.063.193.108.38.135.11.016.383.03.82.041.806.02 1.327.047 1.565.082.364.051.653.186.867.405.22.218.329.488.329.808 0 .442-.207.856-.621 1.242-.61.571-1.405.856-2.385.856-.754 0-1.39-.17-1.91-.51-.293-.195-.44-.398-.44-.609 0-.094.022-.188.065-.282.066-.144.203-.345.41-.603.027-.035.226-.246.597-.633a1.982 1.982 0 0 1-.433-.322.498.498 0 0 1-.123-.328c0-.137.055-.297.164-.481.113-.183.371-.443.773-.779Zm1.02-3.287a.914.914 0 0 0-.727.346c-.195.23-.293.584-.293 1.06 0 .617.133 1.096.399 1.436a.946.946 0 0 0 .773.386.922.922 0 0 0 .733-.334c.191-.222.287-.572.287-1.048 0-.622-.135-1.108-.405-1.459a.928.928 0 0 0-.767-.387ZM70.096 116a2.875 2.875 0 0 0-.416.557 1 1 0 0 0-.14.474c0 .188.112.352.339.492.39.243.955.364 1.693.364.703 0 1.221-.125 1.553-.375.336-.246.504-.51.504-.791 0-.203-.1-.348-.299-.434-.203-.086-.605-.137-1.207-.152-.879-.024-1.555-.069-2.027-.135Zm5.525-3.346c-.004.797.19 1.422.58 1.875.39.453.85.68 1.377.68.352 0 .656-.096.914-.287.262-.195.48-.527.656-.996l.182.117c-.082.535-.32 1.023-.715 1.465a1.914 1.914 0 0 1-1.482.656c-.645 0-1.197-.25-1.658-.75-.457-.504-.686-1.18-.686-2.027 0-.918.234-1.633.703-2.145.473-.515 1.065-.773 1.776-.773.601 0 1.095.199 1.482.597.387.395.58.924.58 1.588h-3.709Zm0-.34h2.485c-.02-.343-.061-.585-.124-.726a1.157 1.157 0 0 0-.439-.516 1.086 1.086 0 0 0-.604-.187c-.324 0-.615.127-.873.381-.254.25-.402.599-.445 1.048Zm7.898-1.839v1.828h-.193c-.148-.574-.34-.965-.574-1.172-.23-.207-.525-.311-.885-.311-.273 0-.494.073-.662.217-.168.145-.252.305-.252.481 0 .218.063.406.188.562.12.16.367.33.738.51l.855.416c.793.387 1.19.896 1.19 1.529 0 .488-.186.883-.557 1.184-.367.297-.78.445-1.236.445a4.27 4.27 0 0 1-1.125-.176 1.141 1.141 0 0 0-.317-.058c-.09 0-.16.05-.21.152h-.194v-1.916h.194c.109.547.318.959.627 1.236a1.51 1.51 0 0 0 1.037.416c.27 0 .488-.078.656-.234a.758.758 0 0 0 .258-.574.905.905 0 0 0-.288-.68c-.187-.184-.564-.416-1.13-.697-.567-.281-.938-.535-1.114-.762-.175-.223-.263-.504-.263-.844 0-.441.15-.81.45-1.107.306-.297.698-.445 1.179-.445.21 0 .466.045.767.134.2.059.332.088.399.088a.23.23 0 0 0 .146-.041.562.562 0 0 0 .123-.181h.194Zm2.526-.006c.18 0 .332.064.457.193a.612.612 0 0 1 .193.457.63.63 0 0 1-.193.463.622.622 0 0 1-.457.188.642.642 0 0 1-.65-.651.62.62 0 0 1 .187-.457.63.63 0 0 1 .463-.193Zm-.012 4.388a.62.62 0 0 1 .463.194.632.632 0 0 1 .194.463.633.633 0 0 1-.194.463.641.641 0 0 1-.463.187.641.641 0 0 1-.65-.65.64.64 0 0 1 .187-.463.632.632 0 0 1 .463-.194Z" fill="#fff"/><path d="M24.127 134.905v2.061h-.163c-.053-.396-.148-.711-.286-.945a1.463 1.463 0 0 0-.58-.558 1.608 1.608 0 0 0-.782-.207c-.305 0-.557.094-.756.282-.2.184-.299.395-.299.632 0 .182.063.348.19.497.18.22.613.513 1.296.879.556.299.936.529 1.138.69.205.158.362.346.47.562.111.217.167.444.167.681 0 .452-.176.841-.527 1.169-.349.326-.799.488-1.35.488-.172 0-.335-.013-.487-.039a5.326 5.326 0 0 1-.567-.159c-.284-.093-.465-.14-.54-.14a.238.238 0 0 0-.176.066c-.041.044-.072.135-.093.272h-.162v-2.043h.162c.076.428.179.748.308.962.129.211.325.387.589.528.266.14.558.21.874.21.366 0 .655-.096.866-.29a.894.894 0 0 0 .32-.685.915.915 0 0 0-.122-.444 1.29 1.29 0 0 0-.374-.417c-.114-.088-.426-.274-.936-.559-.51-.287-.873-.515-1.09-.685a1.857 1.857 0 0 1-.487-.563 1.393 1.393 0 0 1-.168-.676c0-.428.165-.796.493-1.103.328-.311.745-.466 1.252-.466.317 0 .652.077 1.007.233.163.073.28.11.347.11a.259.259 0 0 0 .184-.066c.05-.047.09-.14.119-.277h.163Zm3.445 5.515c-.413.319-.673.504-.778.554a1.191 1.191 0 0 1-.505.109.914.914 0 0 1-.69-.285c-.18-.191-.268-.441-.268-.752 0-.196.044-.366.131-.509.12-.2.329-.387.624-.563.3-.176.794-.39 1.486-.641v-.159c0-.401-.065-.676-.194-.826-.126-.149-.31-.224-.553-.224a.627.627 0 0 0-.44.149.45.45 0 0 0-.167.343l.01.255a.433.433 0 0 1-.106.312.348.348 0 0 1-.268.11.35.35 0 0 1-.269-.114.454.454 0 0 1-.1-.312c0-.252.128-.484.386-.695.258-.211.62-.316 1.085-.316.358 0 .65.06.88.18a.83.83 0 0 1 .382.426c.052.126.079.384.079.774v1.367c0 .383.007.619.022.707.015.085.038.142.07.171.035.03.075.044.119.044.047 0 .088-.01.123-.03a2.78 2.78 0 0 0 .356-.321v.246c-.328.439-.642.659-.94.659a.43.43 0 0 1-.343-.149c-.085-.1-.13-.27-.132-.51Zm0-.286v-1.533c-.443.175-.728.3-.857.373-.232.129-.397.264-.497.404a.784.784 0 0 0-.15.462.76.76 0 0 0 .19.527.575.575 0 0 0 .435.207c.223 0 .515-.147.879-.44Zm2.913-2.421c.293-.293.466-.462.519-.505.132-.112.274-.198.426-.26a1.21 1.21 0 0 1 .453-.092c.252 0 .469.073.65.22.182.146.303.359.365.637.302-.352.557-.582.765-.69.208-.111.422-.167.641-.167.214 0 .403.056.567.167.167.108.299.287.396.536.064.17.096.437.096.8v1.731c0 .252.02.425.057.519.03.064.084.12.163.167.08.044.208.066.387.066V141h-1.987v-.158h.084c.173 0 .307-.034.404-.101a.393.393 0 0 0 .145-.224 2.76 2.76 0 0 0 .018-.427v-1.731c0-.328-.04-.56-.119-.694-.114-.188-.297-.282-.55-.282-.155 0-.311.04-.47.119-.155.076-.344.22-.566.431l-.01.048.01.189v1.92c0 .276.014.447.044.514.032.068.09.125.175.172.085.044.23.066.435.066V141H31.55v-.158c.223 0 .375-.027.457-.079a.408.408 0 0 0 .176-.238c.014-.049.022-.194.022-.435v-1.731c0-.328-.049-.564-.145-.708a.62.62 0 0 0-.54-.281.97.97 0 0 0-.471.128c-.243.128-.43.273-.563.435v2.157c0 .264.018.435.053.514a.4.4 0 0 0 .163.181c.073.038.22.057.44.057V141H29.15v-.158c.185 0 .314-.019.387-.057a.392.392 0 0 0 .167-.189c.038-.088.057-.257.057-.506v-1.538c0-.442-.013-.728-.04-.857-.02-.096-.052-.162-.096-.197a.262.262 0 0 0-.18-.058.844.844 0 0 0-.295.066l-.066-.158 1.213-.492h.19v.857Zm10.662-.857v1.371h-.145c-.112-.431-.255-.724-.431-.879a.957.957 0 0 0-.664-.233.732.732 0 0 0-.496.163c-.126.108-.19.228-.19.36 0 .164.048.305.141.422.091.12.276.248.554.382l.642.312c.594.29.892.673.892 1.147 0 .367-.14.662-.418.888a1.435 1.435 0 0 1-.927.334c-.246 0-.527-.044-.844-.132a.869.869 0 0 0-.237-.044c-.068 0-.12.038-.158.115h-.145v-1.437h.145c.082.41.239.719.47.927.231.208.49.312.778.312a.695.695 0 0 0 .492-.176.569.569 0 0 0 .193-.431.676.676 0 0 0-.215-.509c-.14-.138-.423-.312-.848-.523-.425-.211-.703-.402-.835-.572a.989.989 0 0 1-.198-.632c0-.332.113-.608.338-.831.229-.223.524-.334.884-.334.158 0 .35.034.576.101.149.044.248.066.298.066.047 0 .084-.01.11-.031a.42.42 0 0 0 .093-.136h.145Zm4.324 2.615c-.109.53-.321.939-.637 1.226-.317.284-.667.426-1.05.426-.458 0-.856-.192-1.196-.576-.34-.383-.51-.902-.51-1.555 0-.633.188-1.147.563-1.543.378-.395.83-.593 1.358-.593.395 0 .72.105.975.316.255.208.382.425.382.651a.36.36 0 0 1-.11.272c-.07.068-.17.101-.298.101-.173 0-.303-.055-.391-.167-.05-.061-.084-.178-.101-.351a.57.57 0 0 0-.176-.396c-.103-.088-.245-.132-.427-.132a.872.872 0 0 0-.707.326c-.237.287-.356.666-.356 1.138 0 .48.117.905.352 1.274.237.366.556.55.958.55.287 0 .544-.099.773-.295.161-.135.318-.379.47-.734l.128.062Zm2.549-2.615c.609 0 1.098.231 1.467.694.314.396.47.85.47 1.363 0 .36-.086.725-.259 1.094a1.89 1.89 0 0 1-.716.835 1.88 1.88 0 0 1-1.01.281c-.607 0-1.09-.242-1.447-.725a2.245 2.245 0 0 1-.452-1.371c0-.369.09-.735.272-1.099.185-.366.427-.636.725-.808.3-.176.615-.264.95-.264Zm-.137.286a.914.914 0 0 0-.47.14c-.155.091-.281.252-.378.484-.096.231-.145.528-.145.892 0 .586.116 1.091.347 1.516.235.425.542.637.923.637a.857.857 0 0 0 .703-.352c.185-.234.277-.637.277-1.208 0-.715-.154-1.277-.461-1.688-.208-.281-.473-.421-.796-.421Zm3.845-.286v.905c.337-.603.683-.905 1.038-.905.16 0 .294.05.4.149.105.097.158.21.158.339a.403.403 0 0 1-.114.29.365.365 0 0 1-.273.118c-.102 0-.218-.049-.347-.149-.126-.103-.22-.154-.281-.154-.053 0-.11.03-.172.088-.132.12-.268.318-.409.593v1.93c0 .222.028.391.084.505a.458.458 0 0 0 .202.198c.097.052.236.079.418.079V141H50.37v-.158c.205 0 .357-.032.457-.097a.374.374 0 0 0 .153-.224c.015-.05.022-.192.022-.426v-1.56c0-.469-.01-.747-.03-.835a.316.316 0 0 0-.106-.198.288.288 0 0 0-.189-.062.868.868 0 0 0-.307.066l-.044-.158 1.217-.492h.184Zm2.497 1.635c-.003.597.142 1.066.435 1.406.293.34.637.51 1.032.51.264 0 .493-.072.686-.216.196-.146.36-.395.492-.747l.136.088a2.1 2.1 0 0 1-.536 1.099 1.435 1.435 0 0 1-1.112.492c-.483 0-.898-.187-1.243-.562-.343-.378-.514-.885-.514-1.521 0-.688.175-1.225.527-1.608a1.73 1.73 0 0 1 1.331-.58c.452 0 .822.149 1.112.448.29.296.435.693.435 1.191h-2.781Zm0-.255h1.863c-.015-.258-.046-.44-.092-.545a.87.87 0 0 0-.33-.387.812.812 0 0 0-.453-.14.911.911 0 0 0-.654.285c-.19.188-.302.45-.334.787Zm6.165 2.311a2.078 2.078 0 0 1-.575.444 1.41 1.41 0 0 1-.607.132c-.44 0-.823-.183-1.151-.549-.329-.369-.492-.843-.492-1.42s.181-1.104.544-1.582c.364-.48.83-.72 1.402-.72.355 0 .648.112.88.338v-.743c0-.46-.013-.742-.036-.848-.02-.105-.054-.177-.101-.215a.27.27 0 0 0-.176-.057.921.921 0 0 0-.303.07l-.057-.154 1.2-.492h.197v4.654c0 .471.01.76.031.866a.404.404 0 0 0 .105.215c.05.041.107.061.172.061a.972.972 0 0 0 .316-.074l.049.153-1.196.497h-.202v-.576Zm0-.307v-2.074c-.017-.2-.07-.381-.158-.545a.895.895 0 0 0-.352-.37.835.835 0 0 0-.422-.127c-.257 0-.487.116-.69.347-.266.305-.4.75-.4 1.336 0 .592.13 1.046.387 1.362.258.314.545.471.862.471.266 0 .524-.134.773-.4Zm4.53-5.199h3.196v.167l-1.987 5.915h-.492l1.78-5.366h-1.64c-.33 0-.566.04-.707.119a1.478 1.478 0 0 0-.593.624l-.127-.048.57-1.411Zm3.92 3.015c0-.68.103-1.264.308-1.754.206-.492.478-.858.818-1.098.264-.191.536-.286.817-.286.457 0 .867.233 1.23.699.455.577.682 1.359.682 2.346 0 .692-.1 1.279-.299 1.763-.2.483-.454.835-.765 1.054-.307.217-.605.325-.892.325-.568 0-1.041-.335-1.42-1.006-.319-.565-.478-1.246-.478-2.043Zm.862.11c0 .82.101 1.489.303 2.008.167.436.416.655.747.655.159 0 .323-.071.493-.211.17-.144.298-.383.386-.717.135-.504.203-1.214.203-2.131 0-.68-.07-1.247-.211-1.701-.106-.337-.242-.575-.41-.716a.67.67 0 0 0-.434-.145c-.2 0-.377.089-.532.268-.21.243-.354.626-.43 1.147a10.67 10.67 0 0 0-.115 1.543Zm9.43-3.261-4.341 6.341H74.4l4.342-6.341h.39Zm-4.517 0c.396 0 .702.164.919.492.22.328.33.705.33 1.129 0 .51-.124.904-.37 1.182-.246.279-.542.418-.888.418-.231 0-.443-.063-.637-.189a1.347 1.347 0 0 1-.466-.571 2.012 2.012 0 0 1-.171-.84c0-.307.059-.59.176-.848a1.27 1.27 0 0 1 .479-.58c.205-.129.414-.193.628-.193Zm-.013.246c-.15 0-.283.088-.4.264-.114.175-.171.544-.171 1.107 0 .407.032.718.096.932a.77.77 0 0 0 .233.373.337.337 0 0 0 .229.079c.14 0 .26-.076.36-.228.147-.226.22-.602.22-1.13 0-.556-.072-.947-.215-1.173-.094-.149-.211-.224-.352-.224Zm4.329 2.891c.208 0 .414.066.62.198.207.132.367.324.478.576.115.252.172.529.172.83 0 .519-.125.916-.374 1.191-.249.273-.543.409-.883.409-.214 0-.422-.066-.624-.198a1.36 1.36 0 0 1-.475-.562 1.973 1.973 0 0 1-.171-.84c0-.307.057-.588.171-.843a1.29 1.29 0 0 1 .475-.572c.202-.126.406-.189.61-.189Zm.004.233c-.14 0-.262.079-.365.238-.131.205-.197.593-.197 1.164 0 .525.067.891.202 1.099.1.149.22.224.36.224.135 0 .255-.081.36-.242.141-.214.211-.581.211-1.103 0-.551-.07-.936-.21-1.155-.097-.15-.217-.225-.36-.225Zm2.703 1.872c.137 0 .253.049.347.145.094.094.14.208.14.343a.472.472 0 0 1-.144.347.466.466 0 0 1-.343.141.48.48 0 0 1-.488-.488.48.48 0 0 1 .488-.488Zm-57.52 10.858H21.81l-.405.94c-.1.232-.15.405-.15.519 0 .091.043.171.128.242.088.067.276.111.563.131V153H20.07v-.163c.25-.044.41-.101.484-.171.15-.141.315-.426.496-.857l2.096-4.904h.154l2.075 4.957c.166.398.317.658.452.778.138.117.328.183.571.197V153h-2.35v-.163c.237-.011.396-.051.478-.118a.306.306 0 0 0 .128-.246c0-.129-.059-.333-.176-.611l-.36-.857Zm-.123-.325-1.011-2.409-1.037 2.409h2.048Zm4.174-3.929v5.339c0 .252.018.419.053.501a.414.414 0 0 0 .172.189c.076.041.218.062.426.062V153h-1.973v-.158c.184 0 .31-.019.378-.057a.38.38 0 0 0 .158-.189c.038-.088.057-.257.057-.506v-3.656c0-.454-.01-.732-.03-.835-.021-.105-.055-.177-.102-.215a.253.253 0 0 0-.171-.057.816.816 0 0 0-.29.07l-.075-.154 1.2-.492h.197Zm1.798 3.74c-.003.597.142 1.066.435 1.406.293.34.637.51 1.033.51.263 0 .492-.072.685-.216.196-.146.36-.395.492-.747l.136.088a2.1 2.1 0 0 1-.536 1.099 1.435 1.435 0 0 1-1.111.492c-.484 0-.898-.187-1.244-.562-.343-.378-.514-.885-.514-1.521 0-.688.176-1.225.527-1.608a1.73 1.73 0 0 1 1.332-.58c.45 0 .821.149 1.111.448.29.296.435.693.435 1.191h-2.781Zm0-.255h1.863c-.015-.258-.045-.44-.092-.545a.87.87 0 0 0-.33-.387.812.812 0 0 0-.452-.14.911.911 0 0 0-.655.285c-.19.188-.302.45-.334.787Zm3.16-1.261h1.893v.162c-.12 0-.205.021-.254.062a.205.205 0 0 0-.07.162c0 .071.05.179.153.326.032.046.08.12.145.219l.286.457.33-.457c.21-.29.316-.473.316-.549a.191.191 0 0 0-.075-.154c-.05-.044-.13-.066-.242-.066v-.162h1.363v.162a.748.748 0 0 0-.374.119c-.143.099-.34.316-.589.65l-.549.734 1.002 1.442c.246.354.422.568.527.641a.81.81 0 0 0 .409.119V153h-1.899v-.158c.132 0 .235-.03.308-.088a.192.192 0 0 0 .084-.163c0-.067-.094-.237-.282-.509l-.589-.862-.646.862c-.199.266-.298.424-.298.474 0 .07.032.135.096.194a.501.501 0 0 0 .3.092V153h-1.315v-.158a.594.594 0 0 0 .277-.11c.111-.085.299-.302.563-.65l.843-1.121-.764-1.107c-.217-.317-.386-.515-.506-.594a.756.756 0 0 0-.444-.123v-.162Zm9.514-.119v1.371h-.145c-.112-.431-.255-.724-.431-.879a.956.956 0 0 0-.664-.233.732.732 0 0 0-.496.163c-.126.108-.19.228-.19.36 0 .164.048.305.141.422.091.12.276.248.554.382l.642.312c.595.29.892.673.892 1.147 0 .367-.14.662-.418.888a1.435 1.435 0 0 1-.927.334c-.246 0-.527-.044-.844-.132a.87.87 0 0 0-.237-.044c-.067 0-.12.038-.158.115h-.145v-1.437h.145c.082.41.239.719.47.927.232.208.49.312.778.312a.695.695 0 0 0 .492-.176.57.57 0 0 0 .194-.431.676.676 0 0 0-.216-.509c-.14-.138-.423-.312-.848-.523-.425-.211-.703-.402-.835-.572a.99.99 0 0 1-.198-.632c0-.332.113-.608.339-.831.228-.223.523-.334.883-.334.158 0 .35.034.576.101.149.044.249.066.299.066.046 0 .083-.01.11-.031a.418.418 0 0 0 .092-.136h.145Zm4.324 2.615c-.109.53-.321.939-.637 1.226-.317.284-.667.426-1.05.426-.458 0-.856-.192-1.196-.576-.34-.383-.51-.902-.51-1.555 0-.633.188-1.147.563-1.543.378-.395.83-.593 1.358-.593.395 0 .72.105.975.316.255.208.383.425.383.651a.36.36 0 0 1-.11.272c-.07.068-.17.101-.3.101-.172 0-.302-.055-.39-.167-.05-.061-.084-.178-.101-.351a.57.57 0 0 0-.176-.396c-.103-.088-.245-.132-.426-.132a.872.872 0 0 0-.708.326c-.237.287-.356.666-.356 1.138 0 .48.117.905.352 1.274.237.366.556.55.958.55.287 0 .545-.099.773-.295.161-.135.318-.379.47-.734l.128.062Zm2.549-2.615c.609 0 1.098.231 1.467.694.314.396.47.85.47 1.363 0 .36-.086.725-.259 1.094a1.89 1.89 0 0 1-.716.835 1.88 1.88 0 0 1-1.01.281c-.607 0-1.089-.242-1.447-.725a2.246 2.246 0 0 1-.452-1.371c0-.369.09-.735.272-1.099.185-.366.427-.636.726-.808.298-.176.615-.264.949-.264Zm-.137.286a.914.914 0 0 0-.47.14c-.155.091-.281.252-.378.484-.096.231-.145.528-.145.892 0 .586.116 1.091.347 1.516.235.425.542.637.923.637a.857.857 0 0 0 .703-.352c.185-.234.277-.637.277-1.208 0-.715-.154-1.277-.461-1.688-.208-.281-.473-.421-.796-.421Zm3.846-.286v.905c.337-.603.682-.905 1.037-.905.16 0 .294.05.4.149.105.097.158.21.158.339a.402.402 0 0 1-.114.29.365.365 0 0 1-.273.118c-.102 0-.218-.049-.347-.149-.126-.103-.22-.154-.281-.154-.053 0-.11.03-.172.088-.132.12-.268.318-.408.593v1.93c0 .222.028.391.083.505a.457.457 0 0 0 .202.198c.097.052.236.079.418.079V153h-2.061v-.158c.205 0 .357-.032.457-.097a.374.374 0 0 0 .154-.224c.014-.05.022-.192.022-.426v-1.56c0-.469-.01-.747-.031-.835a.315.315 0 0 0-.106-.198.288.288 0 0 0-.189-.062.868.868 0 0 0-.307.066l-.044-.158 1.217-.492h.185Zm2.496 1.635c-.003.597.142 1.066.435 1.406.293.34.637.51 1.032.51.264 0 .493-.072.686-.216.196-.146.36-.395.492-.747l.137.088c-.062.402-.24.768-.537 1.099a1.435 1.435 0 0 1-1.111.492c-.484 0-.898-.187-1.244-.562-.343-.378-.514-.885-.514-1.521 0-.688.175-1.225.527-1.608a1.73 1.73 0 0 1 1.332-.58c.45 0 .821.149 1.111.448.29.296.436.693.436 1.191h-2.782Zm0-.255h1.863c-.015-.258-.045-.44-.092-.545a.87.87 0 0 0-.33-.387.813.813 0 0 0-.452-.14.912.912 0 0 0-.655.285c-.19.188-.302.45-.334.787Zm6.165 2.311a2.078 2.078 0 0 1-.575.444 1.41 1.41 0 0 1-.607.132c-.44 0-.823-.183-1.151-.549-.328-.369-.492-.843-.492-1.42s.181-1.104.544-1.582c.364-.48.831-.72 1.402-.72.355 0 .648.112.88.338v-.743c0-.46-.012-.742-.036-.848-.02-.105-.054-.177-.101-.215a.27.27 0 0 0-.176-.057.921.921 0 0 0-.303.07l-.057-.154 1.2-.492h.197v4.654c0 .471.01.76.031.866.024.102.059.174.106.215a.26.26 0 0 0 .171.061.96.96 0 0 0 .316-.074l.049.153-1.196.497h-.202v-.576Zm0-.307v-2.074c-.017-.2-.07-.381-.158-.545a.895.895 0 0 0-.352-.37.834.834 0 0 0-.421-.127c-.258 0-.488.116-.69.347-.267.305-.4.75-.4 1.336 0 .592.129 1.046.386 1.362.258.314.545.471.862.471.266 0 .524-.134.773-.4Zm4.083-4.065c.17-.402.384-.711.641-.927.261-.22.585-.33.972-.33.477 0 .843.155 1.098.466.194.231.29.479.29.742 0 .434-.272.882-.817 1.345.366.144.643.349.83.615.188.267.282.581.282.941 0 .515-.164.962-.493 1.34-.427.492-1.047.738-1.858.738-.402 0-.676-.049-.822-.149-.144-.1-.216-.206-.216-.321a.3.3 0 0 1 .102-.224.36.36 0 0 1 .25-.097c.073 0 .148.012.224.036.05.014.163.068.339.162.175.091.297.145.364.163.109.032.224.048.347.048.3 0 .559-.116.778-.347.223-.231.334-.505.334-.822 0-.231-.051-.457-.153-.677a1.198 1.198 0 0 0-.251-.373 1.775 1.775 0 0 0-.519-.316 1.65 1.65 0 0 0-.672-.146h-.14v-.131c.23-.03.462-.113.694-.251.234-.138.404-.303.51-.496.105-.194.158-.406.158-.638 0-.301-.095-.545-.286-.729a.952.952 0 0 0-.703-.281c-.454 0-.834.243-1.138.729l-.145-.07Zm4.948-1.134h3.195v.167l-1.986 5.915h-.493l1.78-5.366h-1.639c-.331 0-.567.04-.708.119a1.478 1.478 0 0 0-.593.624l-.127-.048.571-1.411Zm4.72 5.106c.137 0 .253.049.347.145.094.094.14.208.14.343a.472.472 0 0 1-.144.347.466.466 0 0 1-.343.141.48.48 0 0 1-.488-.488.48.48 0 0 1 .488-.488Zm5.031-5.106-.342.747H78.53l-.391.8c.776.114 1.391.403 1.845.866.39.398.585.867.585 1.406 0 .313-.065.603-.194.87a2.304 2.304 0 0 1-.479.681 2.435 2.435 0 0 1-1.683.694c-.357 0-.618-.06-.782-.18-.161-.123-.242-.258-.242-.404a.28.28 0 0 1 .102-.215.352.352 0 0 1 .254-.097c.077 0 .142.012.198.035.059.024.157.084.295.18.22.153.442.229.668.229.342 0 .643-.129.9-.387.261-.261.392-.577.392-.949 0-.36-.116-.696-.348-1.006a2.22 2.22 0 0 0-.958-.726c-.319-.131-.754-.208-1.305-.228l1.143-2.316h2.135Zm6.711-.136-4.342 6.341h-.391l4.342-6.341h.391Zm-4.518 0c.396 0 .702.164.919.492.22.328.33.705.33 1.129 0 .51-.124.904-.37 1.182-.246.279-.542.418-.887.418-.232 0-.444-.063-.638-.189a1.345 1.345 0 0 1-.465-.571 2.01 2.01 0 0 1-.172-.84c0-.307.059-.59.176-.848a1.27 1.27 0 0 1 .479-.58c.205-.129.415-.193.628-.193Zm-.013.246c-.15 0-.282.088-.4.264-.114.175-.171.544-.171 1.107 0 .407.032.718.097.932.05.161.127.285.233.373a.337.337 0 0 0 .228.079c.14 0 .26-.076.36-.228.147-.226.22-.602.22-1.13 0-.556-.072-.947-.215-1.173-.094-.149-.211-.224-.352-.224Zm4.329 2.891c.208 0 .414.066.62.198.207.132.367.324.478.576.115.252.172.529.172.83 0 .519-.125.916-.374 1.191-.249.273-.543.409-.883.409-.214 0-.422-.066-.624-.198a1.36 1.36 0 0 1-.475-.562 1.972 1.972 0 0 1-.171-.84c0-.307.057-.588.171-.843.118-.255.276-.446.475-.572.202-.126.406-.189.61-.189Zm.004.233c-.14 0-.262.079-.365.238-.131.205-.197.593-.197 1.164 0 .525.067.891.202 1.099.1.149.22.224.36.224.135 0 .255-.081.36-.242.141-.214.212-.581.212-1.103 0-.551-.07-.936-.211-1.155-.097-.15-.217-.225-.36-.225Zm2.703 1.872c.137 0 .253.049.347.145.094.094.14.208.14.343a.472.472 0 0 1-.144.347.466.466 0 0 1-.343.141.48.48 0 0 1-.488-.488.48.48 0 0 1 .488-.488Zm-68.986 7.057v-.163h2.554v.163h-.216c-.243 0-.42.071-.531.215-.07.094-.106.319-.106.677v2.913c0 .449-.05.812-.15 1.09a1.694 1.694 0 0 1-.505.73c-.24.205-.53.307-.87.307-.275 0-.492-.067-.65-.202-.158-.138-.237-.294-.237-.47 0-.144.036-.252.11-.325a.479.479 0 0 1 .338-.137c.094 0 .177.031.25.093.076.061.172.225.286.492.067.158.154.237.26.237.078 0 .152-.048.219-.145.07-.096.105-.268.105-.514v-4.069c0-.302-.019-.501-.057-.598a.396.396 0 0 0-.184-.189.811.811 0 0 0-.4-.105h-.215Zm3.569 3.287c-.003.597.142 1.066.435 1.406.293.34.637.51 1.033.51.263 0 .492-.072.685-.216.197-.146.36-.395.492-.747l.137.088c-.062.402-.24.768-.537 1.099a1.435 1.435 0 0 1-1.111.492c-.484 0-.898-.187-1.244-.562-.343-.378-.514-.885-.514-1.521 0-.688.176-1.225.527-1.608a1.73 1.73 0 0 1 1.332-.58c.45 0 .822.149 1.111.448.29.296.436.693.436 1.191h-2.782Zm0-.255h1.863c-.014-.258-.045-.44-.092-.545a.87.87 0 0 0-.33-.387.812.812 0 0 0-.452-.14.911.911 0 0 0-.655.285c-.19.188-.302.45-.334.787Zm5.924-1.38v1.371h-.145c-.112-.431-.255-.724-.431-.879a.957.957 0 0 0-.664-.233.732.732 0 0 0-.496.163c-.126.108-.19.228-.19.36 0 .164.048.305.142.422.09.12.275.248.553.382l.642.312c.595.29.892.673.892 1.147 0 .367-.14.662-.418.888a1.435 1.435 0 0 1-.927.334c-.246 0-.527-.044-.844-.132a.87.87 0 0 0-.237-.044c-.067 0-.12.038-.158.115h-.145v-1.437h.145c.082.41.239.719.47.927.232.208.49.312.778.312a.694.694 0 0 0 .492-.176.569.569 0 0 0 .194-.431.676.676 0 0 0-.216-.509c-.14-.138-.423-.312-.848-.523-.425-.211-.703-.402-.835-.572a.989.989 0 0 1-.198-.632c0-.332.113-.608.339-.831.228-.223.523-.334.883-.334.158 0 .35.034.576.101.15.044.249.066.299.066.046 0 .083-.01.11-.031a.42.42 0 0 0 .092-.136h.145Zm3.506 0v1.371h-.145c-.11-.431-.254-.724-.43-.879a.957.957 0 0 0-.664-.233.732.732 0 0 0-.496.163c-.126.108-.19.228-.19.36 0 .164.048.305.141.422.091.12.276.248.554.382l.642.312c.594.29.892.673.892 1.147 0 .367-.14.662-.418.888a1.435 1.435 0 0 1-.927.334c-.246 0-.527-.044-.844-.132a.87.87 0 0 0-.237-.044c-.067 0-.12.038-.158.115h-.145v-1.437h.145c.082.41.239.719.47.927.231.208.49.312.778.312a.695.695 0 0 0 .492-.176.569.569 0 0 0 .193-.431.676.676 0 0 0-.215-.509c-.14-.138-.423-.312-.848-.523-.425-.211-.703-.402-.835-.572a.99.99 0 0 1-.198-.632c0-.332.113-.608.338-.831.229-.223.523-.334.884-.334.158 0 .35.034.575.101.15.044.25.066.3.066.046 0 .083-.01.11-.031a.418.418 0 0 0 .092-.136h.145Zm1.93-2.105c.123 0 .227.044.312.132a.417.417 0 0 1 .132.312.43.43 0 0 1-.132.316.417.417 0 0 1-.312.132.431.431 0 0 1-.317-.132.43.43 0 0 1-.132-.316c0-.123.043-.227.128-.312a.436.436 0 0 1 .32-.132Zm.364 2.105v3.234c0 .252.018.421.053.506a.401.401 0 0 0 .163.184c.073.041.205.062.395.062V165h-1.955v-.158c.196 0 .328-.019.395-.057a.38.38 0 0 0 .158-.189c.041-.088.062-.257.062-.506v-1.551c0-.436-.013-.719-.04-.848-.02-.094-.052-.158-.096-.193a.261.261 0 0 0-.18-.058.879.879 0 0 0-.3.066l-.06-.158 1.212-.492h.194Zm1.793 1.635c-.002.597.142 1.066.435 1.406.293.34.638.51 1.033.51.264 0 .492-.072.686-.216.196-.146.36-.395.492-.747l.136.088a2.1 2.1 0 0 1-.536 1.099 1.435 1.435 0 0 1-1.112.492c-.483 0-.898-.187-1.243-.562-.343-.378-.515-.885-.515-1.521 0-.688.176-1.225.528-1.608a1.73 1.73 0 0 1 1.331-.58c.452 0 .822.149 1.112.448.29.296.435.693.435 1.191h-2.782Zm0-.255h1.864c-.015-.258-.046-.44-.093-.545a.87.87 0 0 0-.33-.387.812.812 0 0 0-.452-.14.911.911 0 0 0-.655.285c-.19.188-.301.45-.334.787Zm8.174-1.38v1.371h-.145c-.111-.431-.255-.724-.43-.879a.957.957 0 0 0-.664-.233.732.732 0 0 0-.497.163c-.126.108-.189.228-.189.36 0 .164.047.305.141.422.09.12.276.248.554.382l.641.312c.595.29.892.673.892 1.147 0 .367-.139.662-.417.888a1.435 1.435 0 0 1-.927.334c-.246 0-.528-.044-.844-.132a.87.87 0 0 0-.237-.044c-.068 0-.12.038-.158.115h-.145v-1.437h.145c.082.41.238.719.47.927.231.208.49.312.778.312a.695.695 0 0 0 .492-.176.57.57 0 0 0 .193-.431.676.676 0 0 0-.215-.509c-.14-.138-.424-.312-.848-.523-.425-.211-.704-.402-.835-.572a.99.99 0 0 1-.198-.632c0-.332.113-.608.338-.831.229-.223.523-.334.884-.334.158 0 .35.034.575.101.15.044.25.066.3.066a.17.17 0 0 0 .109-.031.416.416 0 0 0 .092-.136h.145Zm4.325 2.615c-.109.53-.321.939-.638 1.226-.316.284-.666.426-1.05.426-.457 0-.855-.192-1.195-.576-.34-.383-.51-.902-.51-1.555 0-.633.187-1.147.562-1.543.378-.395.831-.593 1.358-.593.396 0 .721.105.976.316.255.208.382.425.382.651a.36.36 0 0 1-.11.272c-.07.068-.17.101-.298.101-.173 0-.304-.055-.392-.167-.05-.061-.083-.178-.1-.351a.57.57 0 0 0-.176-.396c-.103-.088-.245-.132-.427-.132a.872.872 0 0 0-.707.326c-.237.287-.356.666-.356 1.138 0 .48.117.905.351 1.274.238.366.557.55.958.55.288 0 .545-.099.774-.295.16-.135.318-.379.47-.734l.127.062Zm2.548-2.615c.61 0 1.099.231 1.468.694.313.396.47.85.47 1.363 0 .36-.086.725-.259 1.094a1.89 1.89 0 0 1-.716.835 1.88 1.88 0 0 1-1.011.281c-.607 0-1.088-.242-1.446-.725a2.245 2.245 0 0 1-.452-1.371c0-.369.09-.735.272-1.099.185-.366.426-.636.725-.808.299-.176.615-.264.95-.264Zm-.136.286a.914.914 0 0 0-.47.14c-.155.091-.281.252-.378.484-.097.231-.145.528-.145.892 0 .586.116 1.091.347 1.516.234.425.542.637.923.637a.857.857 0 0 0 .703-.352c.185-.234.277-.637.277-1.208 0-.715-.154-1.277-.462-1.688-.208-.281-.473-.421-.795-.421Zm3.845-.286v.905c.337-.603.683-.905 1.037-.905a.56.56 0 0 1 .4.149c.106.097.159.21.159.339a.402.402 0 0 1-.115.29.365.365 0 0 1-.272.118c-.103 0-.219-.049-.347-.149-.126-.103-.22-.154-.282-.154-.052 0-.11.03-.171.088-.132.12-.268.318-.409.593v1.93c0 .222.028.391.084.505a.457.457 0 0 0 .202.198.898.898 0 0 0 .417.079V165h-2.06v-.158c.204 0 .357-.032.456-.097a.374.374 0 0 0 .154-.224c.015-.05.022-.192.022-.426v-1.56c0-.469-.01-.747-.03-.835a.316.316 0 0 0-.106-.198.288.288 0 0 0-.189-.062.868.868 0 0 0-.308.066l-.044-.158 1.218-.492h.184Zm2.496 1.635c-.003.597.142 1.066.435 1.406.293.34.638.51 1.033.51.264 0 .492-.072.686-.216.196-.146.36-.395.492-.747l.136.088a2.1 2.1 0 0 1-.536 1.099 1.435 1.435 0 0 1-1.112.492c-.483 0-.898-.187-1.244-.562-.342-.378-.514-.885-.514-1.521 0-.688.176-1.225.528-1.608a1.73 1.73 0 0 1 1.331-.58c.451 0 .822.149 1.112.448.29.296.435.693.435 1.191h-2.782Zm0-.255h1.864c-.015-.258-.046-.44-.093-.545a.87.87 0 0 0-.33-.387.813.813 0 0 0-.452-.14.911.911 0 0 0-.655.285c-.19.188-.301.45-.334.787Zm6.166 2.311a2.078 2.078 0 0 1-.576.444 1.41 1.41 0 0 1-.606.132c-.44 0-.824-.183-1.152-.549-.328-.369-.492-.843-.492-1.42s.182-1.104.545-1.582c.363-.48.83-.72 1.402-.72.355 0 .647.112.879.338v-.743c0-.46-.012-.742-.035-.848-.02-.105-.054-.177-.101-.215a.27.27 0 0 0-.176-.057.92.92 0 0 0-.303.07l-.057-.154 1.2-.492h.197v4.654c0 .471.01.76.03.866.024.102.06.174.106.215.05.041.107.061.172.061a.972.972 0 0 0 .316-.074l.048.153-1.195.497H65.4v-.576Zm0-.307v-2.074c-.018-.2-.07-.381-.158-.545a.895.895 0 0 0-.352-.37.834.834 0 0 0-.422-.127c-.258 0-.488.116-.69.347-.266.305-.4.75-.4 1.336 0 .592.13 1.046.387 1.362.258.314.545.471.861.471.267 0 .525-.134.774-.4Zm5.352-2.241c-.471-.387-.776-.698-.914-.932a1.445 1.445 0 0 1-.202-.73c0-.386.15-.719.449-.997.298-.281.695-.422 1.19-.422.48 0 .868.13 1.16.391.293.261.44.558.44.892 0 .223-.08.45-.237.681-.159.232-.488.504-.99.818.517.398.858.712 1.025.94.222.299.334.614.334.945 0 .419-.16.778-.48 1.077-.319.296-.737.443-1.256.443-.565 0-1.006-.177-1.323-.531-.252-.284-.378-.595-.378-.932 0-.264.088-.524.264-.782.179-.261.485-.548.918-.861Zm.69-.471c.352-.316.575-.565.668-.747.094-.184.141-.392.141-.624 0-.307-.086-.548-.26-.72-.172-.176-.408-.264-.707-.264s-.542.086-.73.259a.801.801 0 0 0-.28.607c0 .152.037.304.114.457.079.152.19.297.334.435l.72.597Zm-.483.638a2.05 2.05 0 0 0-.54.672c-.118.24-.176.501-.176.782 0 .378.102.681.307.91.208.225.472.338.791.338.317 0 .57-.089.76-.268a.858.858 0 0 0 .286-.65 1 1 0 0 0-.167-.567c-.208-.311-.628-.716-1.261-1.217Zm6.693 1.687L77.234 165H73.72v-.163c1.034-.943 1.762-1.713 2.184-2.311.422-.598.633-1.144.633-1.639 0-.378-.116-.689-.347-.932a1.108 1.108 0 0 0-.831-.365 1.3 1.3 0 0 0-.791.26c-.232.17-.403.42-.514.751h-.163c.073-.542.26-.958.563-1.248.304-.29.684-.435 1.138-.435.483 0 .886.155 1.208.466.325.31.488.677.488 1.098 0 .302-.07.604-.21.906-.218.474-.57.977-1.055 1.507-.73.797-1.186 1.277-1.367 1.441h1.555c.317 0 .538-.011.664-.035a.884.884 0 0 0 .347-.14.968.968 0 0 0 .268-.308h.163Zm1.498.294c.138 0 .254.049.348.145a.47.47 0 0 1 .14.343.472.472 0 0 1-.145.347.466.466 0 0 1-.343.141.48.48 0 0 1-.487-.488.48.48 0 0 1 .488-.488Zm5.032-5.106-.343.747h-1.793l-.39.8c.776.114 1.39.403 1.845.866.39.398.584.867.584 1.406 0 .313-.064.603-.193.87a2.304 2.304 0 0 1-.479.681 2.435 2.435 0 0 1-1.683.694c-.357 0-.618-.06-.782-.18-.161-.123-.242-.258-.242-.404 0-.082.034-.154.101-.215a.352.352 0 0 1 .255-.097c.076 0 .142.012.198.035.058.024.156.084.294.18.22.153.443.229.668.229.343 0 .643-.129.901-.387.26-.261.391-.577.391-.949 0-.36-.116-.696-.347-1.006a2.22 2.22 0 0 0-.958-.726c-.32-.131-.754-.208-1.305-.228l1.142-2.316h2.136Zm6.71-.136-4.341 6.341h-.391l4.341-6.341h.392Zm-4.517 0c.395 0 .702.164.918.492.22.328.33.705.33 1.129 0 .51-.123.904-.37 1.182-.245.279-.541.418-.887.418-.231 0-.444-.063-.637-.189a1.346 1.346 0 0 1-.466-.571 2.01 2.01 0 0 1-.171-.84c0-.307.058-.59.176-.848a1.27 1.27 0 0 1 .479-.58c.205-.129.414-.193.628-.193Zm-.013.246c-.15 0-.283.088-.4.264-.114.175-.172.544-.172 1.107 0 .407.033.718.097.932a.77.77 0 0 0 .233.373.337.337 0 0 0 .229.079c.14 0 .26-.076.36-.228.147-.226.22-.602.22-1.13 0-.556-.072-.947-.216-1.173-.093-.149-.21-.224-.351-.224Zm4.328 2.891c.208 0 .415.066.62.198.208.132.368.324.48.576.113.252.17.529.17.83 0 .519-.124.916-.373 1.191-.25.273-.544.409-.883.409-.214 0-.422-.066-.624-.198a1.36 1.36 0 0 1-.475-.562 1.972 1.972 0 0 1-.171-.84c0-.307.057-.588.171-.843a1.29 1.29 0 0 1 .475-.572c.202-.126.405-.189.61-.189Zm.005.233c-.14 0-.262.079-.365.238-.132.205-.198.593-.198 1.164 0 .525.068.891.203 1.099.1.149.22.224.36.224.135 0 .255-.081.36-.242.14-.214.211-.581.211-1.103 0-.551-.07-.936-.21-1.155-.097-.15-.218-.225-.361-.225Zm2.703 1.872c.137 0 .253.049.347.145a.47.47 0 0 1 .14.343.472.472 0 0 1-.145.347.466.466 0 0 1-.343.141.48.48 0 0 1-.487-.488.48.48 0 0 1 .488-.488Z" fill="#000"/></svg>