<svg width="300" height="180" fill="none" xmlns="http://www.w3.org/2000/svg"><path fill="#191B33" d="M0 0h300v180H0z"/><g clip-path="url(#SQL__a)"><rect x="40" y="20" width="220" height="140" rx="4" fill="#252746"/><path fill="#333661" d="M40 20h220v28H40z"/><rect x="48" y="30" width="33" height="8" rx="4" fill="#4A4D85"/><rect x="98" y="30" width="43" height="8" rx="4" fill="#4A4D85"/><rect x="158" y="30" width="64" height="8" rx="4" fill="#4A4D85"/><rect x="48" y="58" width="10" height="8" rx="4" fill="#4A4D85"/><rect x="98" y="58" width="24" height="8" rx="4" fill="#4A4D85"/><rect x="158" y="58" width="80" height="8" rx="4" fill="#4A4D85"/><rect x="158" y="142" width="80" height="8" rx="4" fill="#4A4D85"/><rect x="158" y="86" width="70" height="8" rx="4" fill="#4A4D85"/><rect x="158" y="114" width="48" height="8" rx="4" fill="#4A4D85"/><rect x="98" y="86" width="36" height="8" rx="4" fill="#4A4D85"/><rect x="98" y="114" width="32" height="8" rx="4" fill="#4A4D85"/><rect x="98" y="142" width="43" height="8" rx="4" fill="#4A4D85"/><rect x="48" y="86" width="10" height="8" rx="4" fill="#4A4D85"/><rect x="48" y="114" width="10" height="8" rx="4" fill="#4A4D85"/><rect x="48" y="142" width="10" height="8" rx="4" fill="#4A4D85"/><path fill="#4A4D85" d="M38 75h224v1H38zm0 28h224v1H38zm0 28h224v1H38zm0-84h224v1H38z"/><path fill="#4A4D85" d="M89 160V20h1v140zm60 0V20h1v140z"/></g><rect x="39.5" y="19.5" width="221" height="141" rx="4.5" stroke="#4A4D85"/><defs><clipPath id="SQL__a"><rect x="40" y="20" width="220" height="140" rx="4" fill="#fff"/></clipPath></defs></svg>