<svg width="300" height="180" viewBox="0 0 300 180" fill="none" xmlns="http://www.w3.org/2000/svg">
<rect width="300" height="180" fill="#F5FFFA"/>
<rect x="20" y="20" width="260" height="30" fill="#40E0D0"/>
<rect x="20.5" y="60.5" width="259" height="109" stroke="black" stroke-dasharray="2 2"/>
<path d="M108.716 29.242V30.278H104.474V33.568H107.918V34.604H104.474V39H103.2V29.242H108.716ZM111.529 28.64V39H110.255V28.64H111.529ZM114.358 30.082C114.115 30.082 113.91 29.998 113.742 29.83C113.574 29.662 113.49 29.4567 113.49 29.214C113.49 28.9713 113.574 28.766 113.742 28.598C113.91 28.43 114.115 28.346 114.358 28.346C114.591 28.346 114.787 28.43 114.946 28.598C115.114 28.766 115.198 28.9713 115.198 29.214C115.198 29.4567 115.114 29.662 114.946 29.83C114.787 29.998 114.591 30.082 114.358 30.082ZM114.974 31.328V39H113.7V31.328H114.974ZM120.309 31.202C120.972 31.202 121.551 31.3467 122.045 31.636C122.549 31.9253 122.923 32.2893 123.165 32.728V31.328H124.453V39.168C124.453 39.868 124.304 40.4887 124.005 41.03C123.707 41.5807 123.277 42.01 122.717 42.318C122.167 42.626 121.523 42.78 120.785 42.78C119.777 42.78 118.937 42.542 118.265 42.066C117.593 41.59 117.197 40.9413 117.075 40.12H118.335C118.475 40.5867 118.765 40.96 119.203 41.24C119.642 41.5293 120.169 41.674 120.785 41.674C121.485 41.674 122.055 41.4547 122.493 41.016C122.941 40.5773 123.165 39.9613 123.165 39.168V37.558C122.913 38.006 122.54 38.3793 122.045 38.678C121.551 38.9767 120.972 39.126 120.309 39.126C119.628 39.126 119.007 38.958 118.447 38.622C117.897 38.286 117.463 37.8147 117.145 37.208C116.828 36.6013 116.669 35.9107 116.669 35.136C116.669 34.352 116.828 33.666 117.145 33.078C117.463 32.4807 117.897 32.0187 118.447 31.692C119.007 31.3653 119.628 31.202 120.309 31.202ZM123.165 35.15C123.165 34.5713 123.049 34.0673 122.815 33.638C122.582 33.2087 122.265 32.882 121.863 32.658C121.471 32.4247 121.037 32.308 120.561 32.308C120.085 32.308 119.651 32.42 119.259 32.644C118.867 32.868 118.555 33.1947 118.321 33.624C118.088 34.0533 117.971 34.5573 117.971 35.136C117.971 35.724 118.088 36.2373 118.321 36.676C118.555 37.1053 118.867 37.4367 119.259 37.67C119.651 37.894 120.085 38.006 120.561 38.006C121.037 38.006 121.471 37.894 121.863 37.67C122.265 37.4367 122.582 37.1053 122.815 36.676C123.049 36.2373 123.165 35.7287 123.165 35.15ZM130.414 31.188C130.993 31.188 131.516 31.314 131.982 31.566C132.449 31.8087 132.813 32.1773 133.074 32.672C133.345 33.1667 133.48 33.7687 133.48 34.478V39H132.22V34.66C132.22 33.8947 132.029 33.3113 131.646 32.91C131.264 32.4993 130.741 32.294 130.078 32.294C129.406 32.294 128.87 32.504 128.468 32.924C128.076 33.344 127.88 33.9553 127.88 34.758V39H126.606V28.64H127.88V32.42C128.132 32.028 128.478 31.7247 128.916 31.51C129.364 31.2953 129.864 31.188 130.414 31.188ZM137.115 32.378V36.9C137.115 37.2733 137.195 37.5393 137.353 37.698C137.512 37.8473 137.787 37.922 138.179 37.922H139.117V39H137.969C137.26 39 136.728 38.8367 136.373 38.51C136.019 38.1833 135.841 37.6467 135.841 36.9V32.378H134.847V31.328H135.841V29.396H137.115V31.328H139.117V32.378H137.115ZM149.279 33.974C149.634 34.03 149.956 34.1747 150.245 34.408C150.544 34.6413 150.777 34.9307 150.945 35.276C151.123 35.6213 151.211 35.99 151.211 36.382C151.211 36.8767 151.085 37.3247 150.833 37.726C150.581 38.118 150.213 38.4307 149.727 38.664C149.251 38.888 148.687 39 148.033 39H144.393V29.242H147.893C148.556 29.242 149.121 29.354 149.587 29.578C150.054 29.7927 150.404 30.0867 150.637 30.46C150.871 30.8333 150.987 31.2533 150.987 31.72C150.987 32.2987 150.829 32.7793 150.511 33.162C150.203 33.5353 149.793 33.806 149.279 33.974ZM145.667 33.456H147.809C148.407 33.456 148.869 33.316 149.195 33.036C149.522 32.756 149.685 32.3687 149.685 31.874C149.685 31.3793 149.522 30.992 149.195 30.712C148.869 30.432 148.397 30.292 147.781 30.292H145.667V33.456ZM147.921 37.95C148.556 37.95 149.051 37.8007 149.405 37.502C149.76 37.2033 149.937 36.788 149.937 36.256C149.937 35.7147 149.751 35.29 149.377 34.982C149.004 34.6647 148.505 34.506 147.879 34.506H145.667V37.95H147.921ZM156.325 39.126C155.607 39.126 154.953 38.9627 154.365 38.636C153.787 38.3093 153.329 37.8473 152.993 37.25C152.667 36.6433 152.503 35.9433 152.503 35.15C152.503 34.366 152.671 33.6753 153.007 33.078C153.353 32.4713 153.819 32.0093 154.407 31.692C154.995 31.3653 155.653 31.202 156.381 31.202C157.109 31.202 157.767 31.3653 158.355 31.692C158.943 32.0093 159.405 32.4667 159.741 33.064C160.087 33.6613 160.259 34.3567 160.259 35.15C160.259 35.9433 160.082 36.6433 159.727 37.25C159.382 37.8473 158.911 38.3093 158.313 38.636C157.716 38.9627 157.053 39.126 156.325 39.126ZM156.325 38.006C156.783 38.006 157.212 37.8987 157.613 37.684C158.015 37.4693 158.337 37.1473 158.579 36.718C158.831 36.2887 158.957 35.766 158.957 35.15C158.957 34.534 158.836 34.0113 158.593 33.582C158.351 33.1527 158.033 32.8353 157.641 32.63C157.249 32.4153 156.825 32.308 156.367 32.308C155.901 32.308 155.471 32.4153 155.079 32.63C154.697 32.8353 154.389 33.1527 154.155 33.582C153.922 34.0113 153.805 34.534 153.805 35.15C153.805 35.7753 153.917 36.3027 154.141 36.732C154.375 37.1613 154.683 37.4833 155.065 37.698C155.448 37.9033 155.868 38.006 156.325 38.006ZM165.28 39.126C164.562 39.126 163.908 38.9627 163.32 38.636C162.742 38.3093 162.284 37.8473 161.948 37.25C161.622 36.6433 161.458 35.9433 161.458 35.15C161.458 34.366 161.626 33.6753 161.962 33.078C162.308 32.4713 162.774 32.0093 163.362 31.692C163.95 31.3653 164.608 31.202 165.336 31.202C166.064 31.202 166.722 31.3653 167.31 31.692C167.898 32.0093 168.36 32.4667 168.696 33.064C169.042 33.6613 169.214 34.3567 169.214 35.15C169.214 35.9433 169.037 36.6433 168.682 37.25C168.337 37.8473 167.866 38.3093 167.268 38.636C166.671 38.9627 166.008 39.126 165.28 39.126ZM165.28 38.006C165.738 38.006 166.167 37.8987 166.568 37.684C166.97 37.4693 167.292 37.1473 167.534 36.718C167.786 36.2887 167.912 35.766 167.912 35.15C167.912 34.534 167.791 34.0113 167.548 33.582C167.306 33.1527 166.988 32.8353 166.596 32.63C166.204 32.4153 165.78 32.308 165.322 32.308C164.856 32.308 164.426 32.4153 164.034 32.63C163.652 32.8353 163.344 33.1527 163.11 33.582C162.877 34.0113 162.76 34.534 162.76 35.15C162.76 35.7753 162.872 36.3027 163.096 36.732C163.33 37.1613 163.638 37.4833 164.02 37.698C164.403 37.9033 164.823 38.006 165.28 38.006ZM175.174 39L172.164 35.612V39H170.89V28.64H172.164V34.73L175.118 31.328H176.896L173.284 35.15L176.91 39H175.174ZM178.753 30.082C178.51 30.082 178.305 29.998 178.137 29.83C177.969 29.662 177.885 29.4567 177.885 29.214C177.885 28.9713 177.969 28.766 178.137 28.598C178.305 28.43 178.51 28.346 178.753 28.346C178.986 28.346 179.182 28.43 179.341 28.598C179.509 28.766 179.593 28.9713 179.593 29.214C179.593 29.4567 179.509 29.662 179.341 29.83C179.182 29.998 178.986 30.082 178.753 30.082ZM179.369 31.328V39H178.095V31.328H179.369ZM185.278 31.188C186.211 31.188 186.967 31.4727 187.546 32.042C188.125 32.602 188.414 33.414 188.414 34.478V39H187.154V34.66C187.154 33.8947 186.963 33.3113 186.58 32.91C186.197 32.4993 185.675 32.294 185.012 32.294C184.34 32.294 183.803 32.504 183.402 32.924C183.01 33.344 182.814 33.9553 182.814 34.758V39H181.54V31.328H182.814V32.42C183.066 32.028 183.407 31.7247 183.836 31.51C184.275 31.2953 184.755 31.188 185.278 31.188ZM193.659 31.202C194.322 31.202 194.9 31.3467 195.395 31.636C195.899 31.9253 196.272 32.2893 196.515 32.728V31.328H197.803V39.168C197.803 39.868 197.654 40.4887 197.355 41.03C197.056 41.5807 196.627 42.01 196.067 42.318C195.516 42.626 194.872 42.78 194.135 42.78C193.127 42.78 192.287 42.542 191.615 42.066C190.943 41.59 190.546 40.9413 190.425 40.12H191.685C191.825 40.5867 192.114 40.96 192.553 41.24C192.992 41.5293 193.519 41.674 194.135 41.674C194.835 41.674 195.404 41.4547 195.843 41.016C196.291 40.5773 196.515 39.9613 196.515 39.168V37.558C196.263 38.006 195.89 38.3793 195.395 38.678C194.9 38.9767 194.322 39.126 193.659 39.126C192.978 39.126 192.357 38.958 191.797 38.622C191.246 38.286 190.812 37.8147 190.495 37.208C190.178 36.6013 190.019 35.9107 190.019 35.136C190.019 34.352 190.178 33.666 190.495 33.078C190.812 32.4807 191.246 32.0187 191.797 31.692C192.357 31.3653 192.978 31.202 193.659 31.202ZM196.515 35.15C196.515 34.5713 196.398 34.0673 196.165 33.638C195.932 33.2087 195.614 32.882 195.213 32.658C194.821 32.4247 194.387 32.308 193.911 32.308C193.435 32.308 193.001 32.42 192.609 32.644C192.217 32.868 191.904 33.1947 191.671 33.624C191.438 34.0533 191.321 34.5573 191.321 35.136C191.321 35.724 191.438 36.2373 191.671 36.676C191.904 37.1053 192.217 37.4367 192.609 37.67C193.001 37.894 193.435 38.006 193.911 38.006C194.387 38.006 194.821 37.894 195.213 37.67C195.614 37.4367 195.932 37.1053 196.165 36.676C196.398 36.2373 196.515 35.7287 196.515 35.15Z" fill="white"/>
<path d="M79.9031 77.563C79.9031 78.085 79.7231 78.52 79.3631 78.868C79.0091 79.21 78.4661 79.381 77.7341 79.381H76.5281V82H75.7091V75.727H77.7341C78.4421 75.727 78.9791 75.898 79.3451 76.24C79.7171 76.582 79.9031 77.023 79.9031 77.563ZM77.7341 78.706C78.1901 78.706 78.5261 78.607 78.7421 78.409C78.9581 78.211 79.0661 77.929 79.0661 77.563C79.0661 76.789 78.6221 76.402 77.7341 76.402H76.5281V78.706H77.7341ZM80.615 79.516C80.615 79.012 80.717 78.571 80.921 78.193C81.125 77.809 81.404 77.512 81.758 77.302C82.118 77.092 82.517 76.987 82.955 76.987C83.387 76.987 83.762 77.08 84.08 77.266C84.398 77.452 84.635 77.686 84.791 77.968V77.068H85.619V82H84.791V81.082C84.629 81.37 84.386 81.61 84.062 81.802C83.744 81.988 83.372 82.081 82.946 82.081C82.508 82.081 82.112 81.973 81.758 81.757C81.404 81.541 81.125 81.238 80.921 80.848C80.717 80.458 80.615 80.014 80.615 79.516ZM84.791 79.525C84.791 79.153 84.716 78.829 84.566 78.553C84.416 78.277 84.212 78.067 83.954 77.923C83.702 77.773 83.423 77.698 83.117 77.698C82.811 77.698 82.532 77.77 82.28 77.914C82.028 78.058 81.827 78.268 81.677 78.544C81.527 78.82 81.452 79.144 81.452 79.516C81.452 79.894 81.527 80.224 81.677 80.506C81.827 80.782 82.028 80.995 82.28 81.145C82.532 81.289 82.811 81.361 83.117 81.361C83.423 81.361 83.702 81.289 83.954 81.145C84.212 80.995 84.416 80.782 84.566 80.506C84.716 80.224 84.791 79.897 84.791 79.525ZM88.7491 82.081C88.3711 82.081 88.0321 82.018 87.7321 81.892C87.4321 81.76 87.1951 81.58 87.0211 81.352C86.8471 81.118 86.7511 80.851 86.7331 80.551H87.5791C87.6031 80.797 87.7171 80.998 87.9211 81.154C88.1311 81.31 88.4041 81.388 88.7401 81.388C89.0521 81.388 89.2981 81.319 89.4781 81.181C89.6581 81.043 89.7481 80.869 89.7481 80.659C89.7481 80.443 89.6521 80.284 89.4601 80.182C89.2681 80.074 88.9711 79.969 88.5691 79.867C88.2031 79.771 87.9031 79.675 87.6691 79.579C87.4411 79.477 87.2431 79.33 87.0751 79.138C86.9131 78.94 86.8321 78.682 86.8321 78.364C86.8321 78.112 86.9071 77.881 87.0571 77.671C87.2071 77.461 87.4201 77.296 87.6961 77.176C87.9721 77.05 88.2871 76.987 88.6411 76.987C89.1871 76.987 89.6281 77.125 89.9641 77.401C90.3001 77.677 90.4801 78.055 90.5041 78.535H89.6851C89.6671 78.277 89.5621 78.07 89.3701 77.914C89.1841 77.758 88.9321 77.68 88.6141 77.68C88.3201 77.68 88.0861 77.743 87.9121 77.869C87.7381 77.995 87.6511 78.16 87.6511 78.364C87.6511 78.526 87.7021 78.661 87.8041 78.769C87.9121 78.871 88.0441 78.955 88.2001 79.021C88.3621 79.081 88.5841 79.15 88.8661 79.228C89.2201 79.324 89.5081 79.42 89.7301 79.516C89.9521 79.606 90.1411 79.744 90.2971 79.93C90.4591 80.116 90.5431 80.359 90.5491 80.659C90.5491 80.929 90.4741 81.172 90.3241 81.388C90.1741 81.604 89.9611 81.775 89.6851 81.901C89.4151 82.021 89.1031 82.081 88.7491 82.081ZM93.4512 82.081C93.0732 82.081 92.7342 82.018 92.4342 81.892C92.1342 81.76 91.8972 81.58 91.7232 81.352C91.5492 81.118 91.4532 80.851 91.4352 80.551H92.2812C92.3052 80.797 92.4192 80.998 92.6232 81.154C92.8332 81.31 93.1062 81.388 93.4422 81.388C93.7542 81.388 94.0002 81.319 94.1802 81.181C94.3602 81.043 94.4502 80.869 94.4502 80.659C94.4502 80.443 94.3542 80.284 94.1622 80.182C93.9702 80.074 93.6732 79.969 93.2712 79.867C92.9052 79.771 92.6052 79.675 92.3712 79.579C92.1432 79.477 91.9452 79.33 91.7772 79.138C91.6152 78.94 91.5342 78.682 91.5342 78.364C91.5342 78.112 91.6092 77.881 91.7592 77.671C91.9092 77.461 92.1222 77.296 92.3982 77.176C92.6742 77.05 92.9892 76.987 93.3432 76.987C93.8892 76.987 94.3302 77.125 94.6662 77.401C95.0022 77.677 95.1822 78.055 95.2062 78.535H94.3872C94.3692 78.277 94.2642 78.07 94.0722 77.914C93.8862 77.758 93.6342 77.68 93.3162 77.68C93.0222 77.68 92.7882 77.743 92.6142 77.869C92.4402 77.995 92.3532 78.16 92.3532 78.364C92.3532 78.526 92.4042 78.661 92.5062 78.769C92.6142 78.871 92.7462 78.955 92.9022 79.021C93.0642 79.081 93.2862 79.15 93.5682 79.228C93.9222 79.324 94.2102 79.42 94.4322 79.516C94.6542 79.606 94.8432 79.744 94.9992 79.93C95.1612 80.116 95.2452 80.359 95.2512 80.659C95.2512 80.929 95.1762 81.172 95.0262 81.388C94.8762 81.604 94.6632 81.775 94.3872 81.901C94.1172 82.021 93.8052 82.081 93.4512 82.081ZM100.907 79.345C100.907 79.501 100.898 79.666 100.88 79.84H96.9384C96.9684 80.326 97.1334 80.707 97.4334 80.983C97.7394 81.253 98.1084 81.388 98.5404 81.388C98.8944 81.388 99.1884 81.307 99.4224 81.145C99.6624 80.977 99.8304 80.755 99.9264 80.479H100.808C100.676 80.953 100.412 81.34 100.016 81.64C99.6204 81.934 99.1284 82.081 98.5404 82.081C98.0724 82.081 97.6524 81.976 97.2804 81.766C96.9144 81.556 96.6264 81.259 96.4164 80.875C96.2064 80.485 96.1014 80.035 96.1014 79.525C96.1014 79.015 96.2034 78.568 96.4074 78.184C96.6114 77.8 96.8964 77.506 97.2624 77.302C97.6344 77.092 98.0604 76.987 98.5404 76.987C99.0084 76.987 99.4224 77.089 99.7824 77.293C100.142 77.497 100.418 77.779 100.61 78.139C100.808 78.493 100.907 78.895 100.907 79.345ZM100.061 79.174C100.061 78.862 99.9924 78.595 99.8544 78.373C99.7164 78.145 99.5274 77.974 99.2874 77.86C99.0534 77.74 98.7924 77.68 98.5044 77.68C98.0904 77.68 97.7364 77.812 97.4424 78.076C97.1544 78.34 96.9894 78.706 96.9474 79.174H100.061ZM104.391 76.978C104.991 76.978 105.477 77.161 105.849 77.527C106.221 77.887 106.407 78.409 106.407 79.093V82H105.597V79.21C105.597 78.718 105.474 78.343 105.228 78.085C104.982 77.821 104.646 77.689 104.22 77.689C103.788 77.689 103.443 77.824 103.185 78.094C102.933 78.364 102.807 78.757 102.807 79.273V82H101.988V77.068H102.807V77.77C102.969 77.518 103.188 77.323 103.464 77.185C103.746 77.047 104.055 76.978 104.391 76.978ZM109.779 76.987C110.205 76.987 110.577 77.08 110.895 77.266C111.219 77.452 111.459 77.686 111.615 77.968V77.068H112.443V82.108C112.443 82.558 112.347 82.957 112.155 83.305C111.963 83.659 111.687 83.935 111.327 84.133C110.973 84.331 110.559 84.43 110.085 84.43C109.437 84.43 108.897 84.277 108.465 83.971C108.033 83.665 107.778 83.248 107.7 82.72H108.51C108.6 83.02 108.786 83.26 109.068 83.44C109.35 83.626 109.689 83.719 110.085 83.719C110.535 83.719 110.901 83.578 111.183 83.296C111.471 83.014 111.615 82.618 111.615 82.108V81.073C111.453 81.361 111.213 81.601 110.895 81.793C110.577 81.985 110.205 82.081 109.779 82.081C109.341 82.081 108.942 81.973 108.582 81.757C108.228 81.541 107.949 81.238 107.745 80.848C107.541 80.458 107.439 80.014 107.439 79.516C107.439 79.012 107.541 78.571 107.745 78.193C107.949 77.809 108.228 77.512 108.582 77.302C108.942 77.092 109.341 76.987 109.779 76.987ZM111.615 79.525C111.615 79.153 111.54 78.829 111.39 78.553C111.24 78.277 111.036 78.067 110.778 77.923C110.526 77.773 110.247 77.698 109.941 77.698C109.635 77.698 109.356 77.77 109.104 77.914C108.852 78.058 108.651 78.268 108.501 78.544C108.351 78.82 108.276 79.144 108.276 79.516C108.276 79.894 108.351 80.224 108.501 80.506C108.651 80.782 108.852 80.995 109.104 81.145C109.356 81.289 109.635 81.361 109.941 81.361C110.247 81.361 110.526 81.289 110.778 81.145C111.036 80.995 111.24 80.782 111.39 80.506C111.54 80.224 111.615 79.897 111.615 79.525ZM118.327 79.345C118.327 79.501 118.318 79.666 118.3 79.84H114.358C114.388 80.326 114.553 80.707 114.853 80.983C115.159 81.253 115.528 81.388 115.96 81.388C116.314 81.388 116.608 81.307 116.842 81.145C117.082 80.977 117.25 80.755 117.346 80.479H118.228C118.096 80.953 117.832 81.34 117.436 81.64C117.04 81.934 116.548 82.081 115.96 82.081C115.492 82.081 115.072 81.976 114.7 81.766C114.334 81.556 114.046 81.259 113.836 80.875C113.626 80.485 113.521 80.035 113.521 79.525C113.521 79.015 113.623 78.568 113.827 78.184C114.031 77.8 114.316 77.506 114.682 77.302C115.054 77.092 115.48 76.987 115.96 76.987C116.428 76.987 116.842 77.089 117.202 77.293C117.562 77.497 117.838 77.779 118.03 78.139C118.228 78.493 118.327 78.895 118.327 79.345ZM117.481 79.174C117.481 78.862 117.412 78.595 117.274 78.373C117.136 78.145 116.947 77.974 116.707 77.86C116.473 77.74 116.212 77.68 115.924 77.68C115.51 77.68 115.156 77.812 114.862 78.076C114.574 78.34 114.409 78.706 114.367 79.174H117.481ZM120.227 77.869C120.371 77.587 120.575 77.368 120.839 77.212C121.109 77.056 121.436 76.978 121.82 76.978V77.824H121.604C120.686 77.824 120.227 78.322 120.227 79.318V82H119.408V77.068H120.227V77.869ZM130.097 82H129.278L125.984 77.005V82H125.165V75.718H125.984L129.278 80.704V75.718H130.097V82ZM131.187 79.516C131.187 79.012 131.289 78.571 131.493 78.193C131.697 77.809 131.976 77.512 132.33 77.302C132.69 77.092 133.089 76.987 133.527 76.987C133.959 76.987 134.334 77.08 134.652 77.266C134.97 77.452 135.207 77.686 135.363 77.968V77.068H136.191V82H135.363V81.082C135.201 81.37 134.958 81.61 134.634 81.802C134.316 81.988 133.944 82.081 133.518 82.081C133.08 82.081 132.684 81.973 132.33 81.757C131.976 81.541 131.697 81.238 131.493 80.848C131.289 80.458 131.187 80.014 131.187 79.516ZM135.363 79.525C135.363 79.153 135.288 78.829 135.138 78.553C134.988 78.277 134.784 78.067 134.526 77.923C134.274 77.773 133.995 77.698 133.689 77.698C133.383 77.698 133.104 77.77 132.852 77.914C132.6 78.058 132.399 78.268 132.249 78.544C132.099 78.82 132.024 79.144 132.024 79.516C132.024 79.894 132.099 80.224 132.249 80.506C132.399 80.782 132.6 80.995 132.852 81.145C133.104 81.289 133.383 81.361 133.689 81.361C133.995 81.361 134.274 81.289 134.526 81.145C134.784 80.995 134.988 80.782 135.138 80.506C135.288 80.224 135.363 79.897 135.363 79.525ZM143.506 76.978C143.89 76.978 144.232 77.059 144.532 77.221C144.832 77.377 145.069 77.614 145.243 77.932C145.417 78.25 145.504 78.637 145.504 79.093V82H144.694V79.21C144.694 78.718 144.571 78.343 144.325 78.085C144.085 77.821 143.758 77.689 143.344 77.689C142.918 77.689 142.579 77.827 142.327 78.103C142.075 78.373 141.949 78.766 141.949 79.282V82H141.139V79.21C141.139 78.718 141.016 78.343 140.77 78.085C140.53 77.821 140.203 77.689 139.789 77.689C139.363 77.689 139.024 77.827 138.772 78.103C138.52 78.373 138.394 78.766 138.394 79.282V82H137.575V77.068H138.394V77.779C138.556 77.521 138.772 77.323 139.042 77.185C139.318 77.047 139.621 76.978 139.951 76.978C140.365 76.978 140.731 77.071 141.049 77.257C141.367 77.443 141.604 77.716 141.76 78.076C141.898 77.728 142.126 77.458 142.444 77.266C142.762 77.074 143.116 76.978 143.506 76.978ZM151.348 79.345C151.348 79.501 151.339 79.666 151.321 79.84H147.379C147.409 80.326 147.574 80.707 147.874 80.983C148.18 81.253 148.549 81.388 148.981 81.388C149.335 81.388 149.629 81.307 149.863 81.145C150.103 80.977 150.271 80.755 150.367 80.479H151.249C151.117 80.953 150.853 81.34 150.457 81.64C150.061 81.934 149.569 82.081 148.981 82.081C148.513 82.081 148.093 81.976 147.721 81.766C147.355 81.556 147.067 81.259 146.857 80.875C146.647 80.485 146.542 80.035 146.542 79.525C146.542 79.015 146.644 78.568 146.848 78.184C147.052 77.8 147.337 77.506 147.703 77.302C148.075 77.092 148.501 76.987 148.981 76.987C149.449 76.987 149.863 77.089 150.223 77.293C150.583 77.497 150.859 77.779 151.051 78.139C151.249 78.493 151.348 78.895 151.348 79.345ZM150.502 79.174C150.502 78.862 150.433 78.595 150.295 78.373C150.157 78.145 149.968 77.974 149.728 77.86C149.494 77.74 149.233 77.68 148.945 77.68C148.531 77.68 148.177 77.812 147.883 78.076C147.595 78.34 147.43 78.706 147.388 79.174H150.502ZM152.69 82.054C152.534 82.054 152.402 82 152.294 81.892C152.186 81.784 152.132 81.652 152.132 81.496C152.132 81.34 152.186 81.208 152.294 81.1C152.402 80.992 152.534 80.938 152.69 80.938C152.84 80.938 152.966 80.992 153.068 81.1C153.176 81.208 153.23 81.34 153.23 81.496C153.23 81.652 153.176 81.784 153.068 81.892C152.966 82 152.84 82.054 152.69 82.054ZM152.69 78.202C152.534 78.202 152.402 78.148 152.294 78.04C152.186 77.932 152.132 77.8 152.132 77.644C152.132 77.488 152.186 77.356 152.294 77.248C152.402 77.14 152.534 77.086 152.69 77.086C152.84 77.086 152.966 77.14 153.068 77.248C153.176 77.356 153.23 77.488 153.23 77.644C153.23 77.8 153.176 77.932 153.068 78.04C152.966 78.148 152.84 78.202 152.69 78.202ZM158.733 82.063C158.319 82.063 157.947 81.991 157.617 81.847C157.293 81.697 157.038 81.493 156.852 81.235C156.666 80.971 156.57 80.668 156.564 80.326H157.437C157.467 80.62 157.587 80.869 157.797 81.073C158.013 81.271 158.325 81.37 158.733 81.37C159.123 81.37 159.429 81.274 159.651 81.082C159.879 80.884 159.993 80.632 159.993 80.326C159.993 80.086 159.927 79.891 159.795 79.741C159.663 79.591 159.498 79.477 159.3 79.399C159.102 79.321 158.835 79.237 158.499 79.147C158.085 79.039 157.752 78.931 157.5 78.823C157.254 78.715 157.041 78.547 156.861 78.319C156.687 78.085 156.6 77.773 156.6 77.383C156.6 77.041 156.687 76.738 156.861 76.474C157.035 76.21 157.278 76.006 157.59 75.862C157.908 75.718 158.271 75.646 158.679 75.646C159.267 75.646 159.747 75.793 160.119 76.087C160.497 76.381 160.71 76.771 160.758 77.257H159.858C159.828 77.017 159.702 76.807 159.48 76.627C159.258 76.441 158.964 76.348 158.598 76.348C158.256 76.348 157.977 76.438 157.761 76.618C157.545 76.792 157.437 77.038 157.437 77.356C157.437 77.584 157.5 77.77 157.626 77.914C157.758 78.058 157.917 78.169 158.103 78.247C158.295 78.319 158.562 78.403 158.904 78.499C159.318 78.613 159.651 78.727 159.903 78.841C160.155 78.949 160.371 79.12 160.551 79.354C160.731 79.582 160.821 79.894 160.821 80.29C160.821 80.596 160.74 80.884 160.578 81.154C160.416 81.424 160.176 81.643 159.858 81.811C159.54 81.979 159.165 82.063 158.733 82.063ZM166.4 77.068V82H165.581V81.271C165.425 81.523 165.206 81.721 164.924 81.865C164.648 82.003 164.342 82.072 164.006 82.072C163.622 82.072 163.277 81.994 162.971 81.838C162.665 81.676 162.422 81.436 162.242 81.118C162.068 80.8 161.981 80.413 161.981 79.957V77.068H162.791V79.849C162.791 80.335 162.914 80.71 163.16 80.974C163.406 81.232 163.742 81.361 164.168 81.361C164.606 81.361 164.951 81.226 165.203 80.956C165.455 80.686 165.581 80.293 165.581 79.777V77.068H166.4ZM168.395 81.325H170.816V82H167.459V81.325L169.853 77.734H167.477V77.068H170.798V77.734L168.395 81.325ZM171.573 79.516C171.573 79.012 171.675 78.571 171.879 78.193C172.083 77.809 172.362 77.512 172.716 77.302C173.076 77.092 173.475 76.987 173.913 76.987C174.345 76.987 174.72 77.08 175.038 77.266C175.356 77.452 175.593 77.686 175.749 77.968V77.068H176.577V82H175.749V81.082C175.587 81.37 175.344 81.61 175.02 81.802C174.702 81.988 174.33 82.081 173.904 82.081C173.466 82.081 173.07 81.973 172.716 81.757C172.362 81.541 172.083 81.238 171.879 80.848C171.675 80.458 171.573 80.014 171.573 79.516ZM175.749 79.525C175.749 79.153 175.674 78.829 175.524 78.553C175.374 78.277 175.17 78.067 174.912 77.923C174.66 77.773 174.381 77.698 174.075 77.698C173.769 77.698 173.49 77.77 173.238 77.914C172.986 78.058 172.785 78.268 172.635 78.544C172.485 78.82 172.41 79.144 172.41 79.516C172.41 79.894 172.485 80.224 172.635 80.506C172.785 80.782 172.986 80.995 173.238 81.145C173.49 81.289 173.769 81.361 174.075 81.361C174.381 81.361 174.66 81.289 174.912 81.145C175.17 80.995 175.374 80.782 175.524 80.506C175.674 80.224 175.749 79.897 175.749 79.525ZM180.364 76.978C180.964 76.978 181.45 77.161 181.822 77.527C182.194 77.887 182.38 78.409 182.38 79.093V82H181.57V79.21C181.57 78.718 181.447 78.343 181.201 78.085C180.955 77.821 180.619 77.689 180.193 77.689C179.761 77.689 179.416 77.824 179.158 78.094C178.906 78.364 178.78 78.757 178.78 79.273V82H177.961V77.068H178.78V77.77C178.942 77.518 179.161 77.323 179.437 77.185C179.719 77.047 180.028 76.978 180.364 76.978ZM186.121 76.978C186.721 76.978 187.207 77.161 187.579 77.527C187.951 77.887 188.137 78.409 188.137 79.093V82H187.327V79.21C187.327 78.718 187.204 78.343 186.958 78.085C186.712 77.821 186.376 77.689 185.95 77.689C185.518 77.689 185.173 77.824 184.915 78.094C184.663 78.364 184.537 78.757 184.537 79.273V82H183.718V77.068H184.537V77.77C184.699 77.518 184.918 77.323 185.194 77.185C185.476 77.047 185.785 76.978 186.121 76.978ZM193.975 79.345C193.975 79.501 193.966 79.666 193.948 79.84H190.006C190.036 80.326 190.201 80.707 190.501 80.983C190.807 81.253 191.176 81.388 191.608 81.388C191.962 81.388 192.256 81.307 192.49 81.145C192.73 80.977 192.898 80.755 192.994 80.479H193.876C193.744 80.953 193.48 81.34 193.084 81.64C192.688 81.934 192.196 82.081 191.608 82.081C191.14 82.081 190.72 81.976 190.348 81.766C189.982 81.556 189.694 81.259 189.484 80.875C189.274 80.485 189.169 80.035 189.169 79.525C189.169 79.015 189.271 78.568 189.475 78.184C189.679 77.8 189.964 77.506 190.33 77.302C190.702 77.092 191.128 76.987 191.608 76.987C192.076 76.987 192.49 77.089 192.85 77.293C193.21 77.497 193.486 77.779 193.678 78.139C193.876 78.493 193.975 78.895 193.975 79.345ZM193.129 79.174C193.129 78.862 193.06 78.595 192.922 78.373C192.784 78.145 192.595 77.974 192.355 77.86C192.121 77.74 191.86 77.68 191.572 77.68C191.158 77.68 190.804 77.812 190.51 78.076C190.222 78.34 190.057 78.706 190.015 79.174H193.129ZM201.649 77.563C201.649 78.085 201.469 78.52 201.109 78.868C200.755 79.21 200.212 79.381 199.48 79.381H198.274V82H197.455V75.727H199.48C200.188 75.727 200.725 75.898 201.091 76.24C201.463 76.582 201.649 77.023 201.649 77.563ZM199.48 78.706C199.936 78.706 200.272 78.607 200.488 78.409C200.704 78.211 200.812 77.929 200.812 77.563C200.812 76.789 200.368 76.402 199.48 76.402H198.274V78.706H199.48ZM202.361 79.516C202.361 79.012 202.463 78.571 202.667 78.193C202.871 77.809 203.15 77.512 203.504 77.302C203.864 77.092 204.263 76.987 204.701 76.987C205.133 76.987 205.508 77.08 205.826 77.266C206.144 77.452 206.381 77.686 206.537 77.968V77.068H207.365V82H206.537V81.082C206.375 81.37 206.132 81.61 205.808 81.802C205.49 81.988 205.118 82.081 204.692 82.081C204.254 82.081 203.858 81.973 203.504 81.757C203.15 81.541 202.871 81.238 202.667 80.848C202.463 80.458 202.361 80.014 202.361 79.516ZM206.537 79.525C206.537 79.153 206.462 78.829 206.312 78.553C206.162 78.277 205.958 78.067 205.7 77.923C205.448 77.773 205.169 77.698 204.863 77.698C204.557 77.698 204.278 77.77 204.026 77.914C203.774 78.058 203.573 78.268 203.423 78.544C203.273 78.82 203.198 79.144 203.198 79.516C203.198 79.894 203.273 80.224 203.423 80.506C203.573 80.782 203.774 80.995 204.026 81.145C204.278 81.289 204.557 81.361 204.863 81.361C205.169 81.361 205.448 81.289 205.7 81.145C205.958 80.995 206.162 80.782 206.312 80.506C206.462 80.224 206.537 79.897 206.537 79.525ZM209.568 77.869C209.712 77.587 209.916 77.368 210.18 77.212C210.45 77.056 210.777 76.978 211.161 76.978V77.824H210.945C210.027 77.824 209.568 78.322 209.568 79.318V82H208.749V77.068H209.568V77.869ZM214.861 82L212.926 79.822V82H212.107V75.34H212.926V79.255L214.825 77.068H215.968L213.646 79.525L215.977 82H214.861ZM221.238 79.345C221.238 79.501 221.229 79.666 221.211 79.84H217.269C217.299 80.326 217.464 80.707 217.764 80.983C218.07 81.253 218.439 81.388 218.871 81.388C219.225 81.388 219.519 81.307 219.753 81.145C219.993 80.977 220.161 80.755 220.257 80.479H221.139C221.007 80.953 220.743 81.34 220.347 81.64C219.951 81.934 219.459 82.081 218.871 82.081C218.403 82.081 217.983 81.976 217.611 81.766C217.245 81.556 216.957 81.259 216.747 80.875C216.537 80.485 216.432 80.035 216.432 79.525C216.432 79.015 216.534 78.568 216.738 78.184C216.942 77.8 217.227 77.506 217.593 77.302C217.965 77.092 218.391 76.987 218.871 76.987C219.339 76.987 219.753 77.089 220.113 77.293C220.473 77.497 220.749 77.779 220.941 78.139C221.139 78.493 221.238 78.895 221.238 79.345ZM220.392 79.174C220.392 78.862 220.323 78.595 220.185 78.373C220.047 78.145 219.858 77.974 219.618 77.86C219.384 77.74 219.123 77.68 218.835 77.68C218.421 77.68 218.067 77.812 217.773 78.076C217.485 78.34 217.32 78.706 217.278 79.174H220.392ZM223.138 77.869C223.282 77.587 223.486 77.368 223.75 77.212C224.02 77.056 224.347 76.978 224.731 76.978V77.824H224.515C223.597 77.824 223.138 78.322 223.138 79.318V82H222.319V77.068H223.138V77.869ZM109.294 93.727V100H108.475V93.727H109.294ZM112.643 93.727C113.327 93.727 113.918 93.856 114.416 94.114C114.92 94.366 115.304 94.729 115.568 95.203C115.838 95.677 115.973 96.235 115.973 96.877C115.973 97.519 115.838 98.077 115.568 98.551C115.304 99.019 114.92 99.379 114.416 99.631C113.918 99.877 113.327 100 112.643 100H110.69V93.727H112.643ZM112.643 99.325C113.453 99.325 114.071 99.112 114.497 98.686C114.923 98.254 115.136 97.651 115.136 96.877C115.136 96.097 114.92 95.488 114.488 95.05C114.062 94.612 113.447 94.393 112.643 94.393H111.509V99.325H112.643ZM119.146 97.525C119.146 97.015 119.248 96.571 119.452 96.193C119.656 95.809 119.938 95.512 120.298 95.302C120.664 95.092 121.081 94.987 121.549 94.987C122.155 94.987 122.653 95.134 123.043 95.428C123.439 95.722 123.7 96.13 123.826 96.652H122.944C122.86 96.352 122.695 96.115 122.449 95.941C122.209 95.767 121.909 95.68 121.549 95.68C121.081 95.68 120.703 95.842 120.415 96.166C120.127 96.484 119.983 96.937 119.983 97.525C119.983 98.119 120.127 98.578 120.415 98.902C120.703 99.226 121.081 99.388 121.549 99.388C121.909 99.388 122.209 99.304 122.449 99.136C122.689 98.968 122.854 98.728 122.944 98.416H123.826C123.694 98.92 123.43 99.325 123.034 99.631C122.638 99.931 122.143 100.081 121.549 100.081C121.081 100.081 120.664 99.976 120.298 99.766C119.938 99.556 119.656 99.259 119.452 98.875C119.248 98.491 119.146 98.041 119.146 97.525ZM127.07 100.081C126.608 100.081 126.188 99.976 125.81 99.766C125.438 99.556 125.144 99.259 124.928 98.875C124.718 98.485 124.613 98.035 124.613 97.525C124.613 97.021 124.721 96.577 124.937 96.193C125.159 95.803 125.459 95.506 125.837 95.302C126.215 95.092 126.638 94.987 127.106 94.987C127.574 94.987 127.997 95.092 128.375 95.302C128.753 95.506 129.05 95.8 129.266 96.184C129.488 96.568 129.599 97.015 129.599 97.525C129.599 98.035 129.485 98.485 129.257 98.875C129.035 99.259 128.732 99.556 128.348 99.766C127.964 99.976 127.538 100.081 127.07 100.081ZM127.07 99.361C127.364 99.361 127.64 99.292 127.898 99.154C128.156 99.016 128.363 98.809 128.519 98.533C128.681 98.257 128.762 97.921 128.762 97.525C128.762 97.129 128.684 96.793 128.528 96.517C128.372 96.241 128.168 96.037 127.916 95.905C127.664 95.767 127.391 95.698 127.097 95.698C126.797 95.698 126.521 95.767 126.269 95.905C126.023 96.037 125.825 96.241 125.675 96.517C125.525 96.793 125.45 97.129 125.45 97.525C125.45 97.927 125.522 98.266 125.666 98.542C125.816 98.818 126.014 99.025 126.26 99.163C126.506 99.295 126.776 99.361 127.07 99.361ZM133.079 94.978C133.679 94.978 134.165 95.161 134.537 95.527C134.909 95.887 135.095 96.409 135.095 97.093V100H134.285V97.21C134.285 96.718 134.162 96.343 133.916 96.085C133.67 95.821 133.334 95.689 132.908 95.689C132.476 95.689 132.131 95.824 131.873 96.094C131.621 96.364 131.495 96.757 131.495 97.273V100H130.676V95.068H131.495V95.77C131.657 95.518 131.876 95.323 132.152 95.185C132.434 95.047 132.743 94.978 133.079 94.978ZM138.44 95.743H137.405V100H136.586V95.743H135.947V95.068H136.586V94.717C136.586 94.165 136.727 93.763 137.009 93.511C137.297 93.253 137.756 93.124 138.386 93.124V93.808C138.026 93.808 137.771 93.88 137.621 94.024C137.477 94.162 137.405 94.393 137.405 94.717V95.068H138.44V95.743ZM139.818 94.267C139.662 94.267 139.53 94.213 139.422 94.105C139.314 93.997 139.26 93.865 139.26 93.709C139.26 93.553 139.314 93.421 139.422 93.313C139.53 93.205 139.662 93.151 139.818 93.151C139.968 93.151 140.094 93.205 140.196 93.313C140.304 93.421 140.358 93.553 140.358 93.709C140.358 93.865 140.304 93.997 140.196 94.105C140.094 94.213 139.968 94.267 139.818 94.267ZM140.214 95.068V100H139.395V95.068H140.214ZM142.429 95.869C142.573 95.587 142.777 95.368 143.041 95.212C143.311 95.056 143.638 94.978 144.022 94.978V95.824H143.806C142.888 95.824 142.429 96.322 142.429 97.318V100H141.61V95.068H142.429V95.869ZM150.898 94.978C151.282 94.978 151.624 95.059 151.924 95.221C152.224 95.377 152.461 95.614 152.635 95.932C152.809 96.25 152.896 96.637 152.896 97.093V100H152.086V97.21C152.086 96.718 151.963 96.343 151.717 96.085C151.477 95.821 151.15 95.689 150.736 95.689C150.31 95.689 149.971 95.827 149.719 96.103C149.467 96.373 149.341 96.766 149.341 97.282V100H148.531V97.21C148.531 96.718 148.408 96.343 148.162 96.085C147.922 95.821 147.595 95.689 147.181 95.689C146.755 95.689 146.416 95.827 146.164 96.103C145.912 96.373 145.786 96.766 145.786 97.282V100H144.967V95.068H145.786V95.779C145.948 95.521 146.164 95.323 146.434 95.185C146.71 95.047 147.013 94.978 147.343 94.978C147.757 94.978 148.123 95.071 148.441 95.257C148.759 95.443 148.996 95.716 149.152 96.076C149.29 95.728 149.518 95.458 149.836 95.266C150.154 95.074 150.508 94.978 150.898 94.978ZM158.739 97.345C158.739 97.501 158.73 97.666 158.712 97.84H154.77C154.8 98.326 154.965 98.707 155.265 98.983C155.571 99.253 155.94 99.388 156.372 99.388C156.726 99.388 157.02 99.307 157.254 99.145C157.494 98.977 157.662 98.755 157.758 98.479H158.64C158.508 98.953 158.244 99.34 157.848 99.64C157.452 99.934 156.96 100.081 156.372 100.081C155.904 100.081 155.484 99.976 155.112 99.766C154.746 99.556 154.458 99.259 154.248 98.875C154.038 98.485 153.933 98.035 153.933 97.525C153.933 97.015 154.035 96.568 154.239 96.184C154.443 95.8 154.728 95.506 155.094 95.302C155.466 95.092 155.892 94.987 156.372 94.987C156.84 94.987 157.254 95.089 157.614 95.293C157.974 95.497 158.25 95.779 158.442 96.139C158.64 96.493 158.739 96.895 158.739 97.345ZM157.893 97.174C157.893 96.862 157.824 96.595 157.686 96.373C157.548 96.145 157.359 95.974 157.119 95.86C156.885 95.74 156.624 95.68 156.336 95.68C155.922 95.68 155.568 95.812 155.274 96.076C154.986 96.34 154.821 96.706 154.779 97.174H157.893ZM159.514 97.516C159.514 97.012 159.616 96.571 159.82 96.193C160.024 95.809 160.303 95.512 160.657 95.302C161.017 95.092 161.419 94.987 161.863 94.987C162.247 94.987 162.604 95.077 162.934 95.257C163.264 95.431 163.516 95.662 163.69 95.95V93.34H164.518V100H163.69V99.073C163.528 99.367 163.288 99.61 162.97 99.802C162.652 99.988 162.28 100.081 161.854 100.081C161.416 100.081 161.017 99.973 160.657 99.757C160.303 99.541 160.024 99.238 159.82 98.848C159.616 98.458 159.514 98.014 159.514 97.516ZM163.69 97.525C163.69 97.153 163.615 96.829 163.465 96.553C163.315 96.277 163.111 96.067 162.853 95.923C162.601 95.773 162.322 95.698 162.016 95.698C161.71 95.698 161.431 95.77 161.179 95.914C160.927 96.058 160.726 96.268 160.576 96.544C160.426 96.82 160.351 97.144 160.351 97.516C160.351 97.894 160.426 98.224 160.576 98.506C160.726 98.782 160.927 98.995 161.179 99.145C161.431 99.289 161.71 99.361 162.016 99.361C162.322 99.361 162.601 99.289 162.853 99.145C163.111 98.995 163.315 98.782 163.465 98.506C163.615 98.224 163.69 97.897 163.69 97.525ZM167.504 93.646C168.098 93.646 168.578 93.814 168.944 94.15C169.31 94.486 169.493 94.936 169.493 95.5C169.493 96.13 169.298 96.598 168.908 96.904C168.518 97.204 167.99 97.354 167.324 97.354L167.297 98.209H166.586L166.55 96.787H166.811C167.405 96.787 167.87 96.697 168.206 96.517C168.542 96.337 168.71 95.998 168.71 95.5C168.71 95.14 168.602 94.855 168.386 94.645C168.17 94.435 167.879 94.33 167.513 94.33C167.141 94.33 166.847 94.432 166.631 94.636C166.421 94.834 166.316 95.107 166.316 95.455H165.542C165.542 95.095 165.623 94.78 165.785 94.51C165.947 94.234 166.175 94.021 166.469 93.871C166.769 93.721 167.114 93.646 167.504 93.646ZM166.937 100.054C166.781 100.054 166.649 100 166.541 99.892C166.433 99.784 166.379 99.652 166.379 99.496C166.379 99.34 166.433 99.208 166.541 99.1C166.649 98.992 166.781 98.938 166.937 98.938C167.087 98.938 167.213 98.992 167.315 99.1C167.423 99.208 167.477 99.34 167.477 99.496C167.477 99.652 167.423 99.784 167.315 99.892C167.213 100 167.087 100.054 166.937 100.054ZM170.883 100.054C170.727 100.054 170.595 100 170.487 99.892C170.379 99.784 170.325 99.652 170.325 99.496C170.325 99.34 170.379 99.208 170.487 99.1C170.595 98.992 170.727 98.938 170.883 98.938C171.033 98.938 171.159 98.992 171.261 99.1C171.369 99.208 171.423 99.34 171.423 99.496C171.423 99.652 171.369 99.784 171.261 99.892C171.159 100 171.033 100.054 170.883 100.054ZM170.883 96.202C170.727 96.202 170.595 96.148 170.487 96.04C170.379 95.932 170.325 95.8 170.325 95.644C170.325 95.488 170.379 95.356 170.487 95.248C170.595 95.14 170.727 95.086 170.883 95.086C171.033 95.086 171.159 95.14 171.261 95.248C171.369 95.356 171.423 95.488 171.423 95.644C171.423 95.8 171.369 95.932 171.261 96.04C171.159 96.148 171.033 96.202 170.883 96.202ZM175.937 95.743V98.65C175.937 98.89 175.988 99.061 176.09 99.163C176.192 99.259 176.369 99.307 176.621 99.307H177.224V100H176.486C176.03 100 175.688 99.895 175.46 99.685C175.232 99.475 175.118 99.13 175.118 98.65V95.743H174.479V95.068H175.118V93.826H175.937V95.068H177.224V95.743H175.937ZM179.035 95.869C179.179 95.587 179.383 95.368 179.647 95.212C179.917 95.056 180.244 94.978 180.628 94.978V95.824H180.412C179.494 95.824 179.035 96.322 179.035 97.318V100H178.216V95.068H179.035V95.869ZM185.947 95.068V100H185.128V99.271C184.972 99.523 184.753 99.721 184.471 99.865C184.195 100.003 183.889 100.072 183.553 100.072C183.169 100.072 182.824 99.994 182.518 99.838C182.212 99.676 181.969 99.436 181.789 99.118C181.615 98.8 181.528 98.413 181.528 97.957V95.068H182.338V97.849C182.338 98.335 182.461 98.71 182.707 98.974C182.953 99.232 183.289 99.361 183.715 99.361C184.153 99.361 184.498 99.226 184.75 98.956C185.002 98.686 185.128 98.293 185.128 97.777V95.068H185.947ZM191.83 97.345C191.83 97.501 191.821 97.666 191.803 97.84H187.861C187.891 98.326 188.056 98.707 188.356 98.983C188.662 99.253 189.031 99.388 189.463 99.388C189.817 99.388 190.111 99.307 190.345 99.145C190.585 98.977 190.753 98.755 190.849 98.479H191.731C191.599 98.953 191.335 99.34 190.939 99.64C190.543 99.934 190.051 100.081 189.463 100.081C188.995 100.081 188.575 99.976 188.203 99.766C187.837 99.556 187.549 99.259 187.339 98.875C187.129 98.485 187.024 98.035 187.024 97.525C187.024 97.015 187.126 96.568 187.33 96.184C187.534 95.8 187.819 95.506 188.185 95.302C188.557 95.092 188.983 94.987 189.463 94.987C189.931 94.987 190.345 95.089 190.705 95.293C191.065 95.497 191.341 95.779 191.533 96.139C191.731 96.493 191.83 96.895 191.83 97.345ZM190.984 97.174C190.984 96.862 190.915 96.595 190.777 96.373C190.639 96.145 190.45 95.974 190.21 95.86C189.976 95.74 189.715 95.68 189.427 95.68C189.013 95.68 188.659 95.812 188.365 96.076C188.077 96.34 187.912 96.706 187.87 97.174H190.984ZM80.2415 111.727V118H79.4225V111.727H80.2415ZM83.3833 118.081C83.0053 118.081 82.6663 118.018 82.3663 117.892C82.0663 117.76 81.8293 117.58 81.6553 117.352C81.4813 117.118 81.3853 116.851 81.3673 116.551H82.2133C82.2373 116.797 82.3513 116.998 82.5553 117.154C82.7653 117.31 83.0383 117.388 83.3743 117.388C83.6863 117.388 83.9323 117.319 84.1123 117.181C84.2923 117.043 84.3823 116.869 84.3823 116.659C84.3823 116.443 84.2863 116.284 84.0943 116.182C83.9023 116.074 83.6053 115.969 83.2033 115.867C82.8373 115.771 82.5373 115.675 82.3033 115.579C82.0753 115.477 81.8773 115.33 81.7093 115.138C81.5473 114.94 81.4663 114.682 81.4663 114.364C81.4663 114.112 81.5413 113.881 81.6913 113.671C81.8413 113.461 82.0543 113.296 82.3303 113.176C82.6063 113.05 82.9213 112.987 83.2753 112.987C83.8213 112.987 84.2623 113.125 84.5983 113.401C84.9343 113.677 85.1143 114.055 85.1383 114.535H84.3193C84.3013 114.277 84.1963 114.07 84.0043 113.914C83.8183 113.758 83.5663 113.68 83.2483 113.68C82.9543 113.68 82.7203 113.743 82.5463 113.869C82.3723 113.995 82.2853 114.16 82.2853 114.364C82.2853 114.526 82.3363 114.661 82.4383 114.769C82.5463 114.871 82.6783 114.955 82.8343 115.021C82.9963 115.081 83.2183 115.15 83.5003 115.228C83.8543 115.324 84.1423 115.42 84.3643 115.516C84.5863 115.606 84.7753 115.744 84.9313 115.93C85.0933 116.116 85.1773 116.359 85.1833 116.659C85.1833 116.929 85.1083 117.172 84.9583 117.388C84.8083 117.604 84.5953 117.775 84.3193 117.901C84.0493 118.021 83.7373 118.081 83.3833 118.081ZM93.5719 111.727V118H92.7529V115.156H89.5579V118H88.7389V111.727H89.5579V114.481H92.7529V111.727H93.5719ZM94.6643 115.516C94.6643 115.012 94.7663 114.571 94.9703 114.193C95.1743 113.809 95.4533 113.512 95.8073 113.302C96.1673 113.092 96.5663 112.987 97.0043 112.987C97.4363 112.987 97.8113 113.08 98.1293 113.266C98.4473 113.452 98.6843 113.686 98.8403 113.968V113.068H99.6683V118H98.8403V117.082C98.6783 117.37 98.4353 117.61 98.1113 117.802C97.7933 117.988 97.4213 118.081 96.9953 118.081C96.5573 118.081 96.1613 117.973 95.8073 117.757C95.4533 117.541 95.1743 117.238 94.9703 116.848C94.7663 116.458 94.6643 116.014 94.6643 115.516ZM98.8403 115.525C98.8403 115.153 98.7653 114.829 98.6153 114.553C98.4653 114.277 98.2613 114.067 98.0033 113.923C97.7513 113.773 97.4723 113.698 97.1663 113.698C96.8603 113.698 96.5813 113.77 96.3293 113.914C96.0773 114.058 95.8763 114.268 95.7263 114.544C95.5763 114.82 95.5013 115.144 95.5013 115.516C95.5013 115.894 95.5763 116.224 95.7263 116.506C95.8763 116.782 96.0773 116.995 96.3293 117.145C96.5813 117.289 96.8603 117.361 97.1663 117.361C97.4723 117.361 97.7513 117.289 98.0033 117.145C98.2613 116.995 98.4653 116.782 98.6153 116.506C98.7653 116.224 98.8403 115.897 98.8403 115.525ZM103.455 112.978C104.055 112.978 104.541 113.161 104.913 113.527C105.285 113.887 105.471 114.409 105.471 115.093V118H104.661V115.21C104.661 114.718 104.538 114.343 104.292 114.085C104.046 113.821 103.71 113.689 103.284 113.689C102.852 113.689 102.507 113.824 102.249 114.094C101.997 114.364 101.871 114.757 101.871 115.273V118H101.052V113.068H101.871V113.77C102.033 113.518 102.252 113.323 102.528 113.185C102.81 113.047 103.119 112.978 103.455 112.978ZM106.503 115.516C106.503 115.012 106.605 114.571 106.809 114.193C107.013 113.809 107.292 113.512 107.646 113.302C108.006 113.092 108.408 112.987 108.852 112.987C109.236 112.987 109.593 113.077 109.923 113.257C110.253 113.431 110.505 113.662 110.679 113.95V111.34H111.507V118H110.679V117.073C110.517 117.367 110.277 117.61 109.959 117.802C109.641 117.988 109.269 118.081 108.843 118.081C108.405 118.081 108.006 117.973 107.646 117.757C107.292 117.541 107.013 117.238 106.809 116.848C106.605 116.458 106.503 116.014 106.503 115.516ZM110.679 115.525C110.679 115.153 110.604 114.829 110.454 114.553C110.304 114.277 110.1 114.067 109.842 113.923C109.59 113.773 109.311 113.698 109.005 113.698C108.699 113.698 108.42 113.77 108.168 113.914C107.916 114.058 107.715 114.268 107.565 114.544C107.415 114.82 107.34 115.144 107.34 115.516C107.34 115.894 107.415 116.224 107.565 116.506C107.715 116.782 107.916 116.995 108.168 117.145C108.42 117.289 108.699 117.361 109.005 117.361C109.311 117.361 109.59 117.289 109.842 117.145C110.1 116.995 110.304 116.782 110.454 116.506C110.604 116.224 110.679 115.897 110.679 115.525ZM118.432 114.769C118.66 114.805 118.867 114.898 119.053 115.048C119.245 115.198 119.395 115.384 119.503 115.606C119.617 115.828 119.674 116.065 119.674 116.317C119.674 116.635 119.593 116.923 119.431 117.181C119.269 117.433 119.032 117.634 118.72 117.784C118.414 117.928 118.051 118 117.631 118H115.291V111.727H117.541C117.967 111.727 118.33 111.799 118.63 111.943C118.93 112.081 119.155 112.27 119.305 112.51C119.455 112.75 119.53 113.02 119.53 113.32C119.53 113.692 119.428 114.001 119.224 114.247C119.026 114.487 118.762 114.661 118.432 114.769ZM116.11 114.436H117.487C117.871 114.436 118.168 114.346 118.378 114.166C118.588 113.986 118.693 113.737 118.693 113.419C118.693 113.101 118.588 112.852 118.378 112.672C118.168 112.492 117.865 112.402 117.469 112.402H116.11V114.436ZM117.559 117.325C117.967 117.325 118.285 117.229 118.513 117.037C118.741 116.845 118.855 116.578 118.855 116.236C118.855 115.888 118.735 115.615 118.495 115.417C118.255 115.213 117.934 115.111 117.532 115.111H116.11V117.325H117.559ZM120.504 115.516C120.504 115.012 120.606 114.571 120.81 114.193C121.014 113.809 121.293 113.512 121.647 113.302C122.007 113.092 122.406 112.987 122.844 112.987C123.276 112.987 123.651 113.08 123.969 113.266C124.287 113.452 124.524 113.686 124.68 113.968V113.068H125.508V118H124.68V117.082C124.518 117.37 124.275 117.61 123.951 117.802C123.633 117.988 123.261 118.081 122.835 118.081C122.397 118.081 122.001 117.973 121.647 117.757C121.293 117.541 121.014 117.238 120.81 116.848C120.606 116.458 120.504 116.014 120.504 115.516ZM124.68 115.525C124.68 115.153 124.605 114.829 124.455 114.553C124.305 114.277 124.101 114.067 123.843 113.923C123.591 113.773 123.312 113.698 123.006 113.698C122.7 113.698 122.421 113.77 122.169 113.914C121.917 114.058 121.716 114.268 121.566 114.544C121.416 114.82 121.341 115.144 121.341 115.516C121.341 115.894 121.416 116.224 121.566 116.506C121.716 116.782 121.917 116.995 122.169 117.145C122.421 117.289 122.7 117.361 123.006 117.361C123.312 117.361 123.591 117.289 123.843 117.145C124.101 116.995 124.305 116.782 124.455 116.506C124.605 116.224 124.68 115.897 124.68 115.525ZM128.926 112.987C129.352 112.987 129.724 113.08 130.042 113.266C130.366 113.452 130.606 113.686 130.762 113.968V113.068H131.59V118.108C131.59 118.558 131.494 118.957 131.302 119.305C131.11 119.659 130.834 119.935 130.474 120.133C130.12 120.331 129.706 120.43 129.232 120.43C128.584 120.43 128.044 120.277 127.612 119.971C127.18 119.665 126.925 119.248 126.847 118.72H127.657C127.747 119.02 127.933 119.26 128.215 119.44C128.497 119.626 128.836 119.719 129.232 119.719C129.682 119.719 130.048 119.578 130.33 119.296C130.618 119.014 130.762 118.618 130.762 118.108V117.073C130.6 117.361 130.36 117.601 130.042 117.793C129.724 117.985 129.352 118.081 128.926 118.081C128.488 118.081 128.089 117.973 127.729 117.757C127.375 117.541 127.096 117.238 126.892 116.848C126.688 116.458 126.586 116.014 126.586 115.516C126.586 115.012 126.688 114.571 126.892 114.193C127.096 113.809 127.375 113.512 127.729 113.302C128.089 113.092 128.488 112.987 128.926 112.987ZM130.762 115.525C130.762 115.153 130.687 114.829 130.537 114.553C130.387 114.277 130.183 114.067 129.925 113.923C129.673 113.773 129.394 113.698 129.088 113.698C128.782 113.698 128.503 113.77 128.251 113.914C127.999 114.058 127.798 114.268 127.648 114.544C127.498 114.82 127.423 115.144 127.423 115.516C127.423 115.894 127.498 116.224 127.648 116.506C127.798 116.782 127.999 116.995 128.251 117.145C128.503 117.289 128.782 117.361 129.088 117.361C129.394 117.361 129.673 117.289 129.925 117.145C130.183 116.995 130.387 116.782 130.537 116.506C130.687 116.224 130.762 115.897 130.762 115.525ZM135.008 112.987C135.434 112.987 135.806 113.08 136.124 113.266C136.448 113.452 136.688 113.686 136.844 113.968V113.068H137.672V118.108C137.672 118.558 137.576 118.957 137.384 119.305C137.192 119.659 136.916 119.935 136.556 120.133C136.202 120.331 135.788 120.43 135.314 120.43C134.666 120.43 134.126 120.277 133.694 119.971C133.262 119.665 133.007 119.248 132.929 118.72H133.739C133.829 119.02 134.015 119.26 134.297 119.44C134.579 119.626 134.918 119.719 135.314 119.719C135.764 119.719 136.13 119.578 136.412 119.296C136.7 119.014 136.844 118.618 136.844 118.108V117.073C136.682 117.361 136.442 117.601 136.124 117.793C135.806 117.985 135.434 118.081 135.008 118.081C134.57 118.081 134.171 117.973 133.811 117.757C133.457 117.541 133.178 117.238 132.974 116.848C132.77 116.458 132.668 116.014 132.668 115.516C132.668 115.012 132.77 114.571 132.974 114.193C133.178 113.809 133.457 113.512 133.811 113.302C134.171 113.092 134.57 112.987 135.008 112.987ZM136.844 115.525C136.844 115.153 136.769 114.829 136.619 114.553C136.469 114.277 136.265 114.067 136.007 113.923C135.755 113.773 135.476 113.698 135.17 113.698C134.864 113.698 134.585 113.77 134.333 113.914C134.081 114.058 133.88 114.268 133.73 114.544C133.58 114.82 133.505 115.144 133.505 115.516C133.505 115.894 133.58 116.224 133.73 116.506C133.88 116.782 134.081 116.995 134.333 117.145C134.585 117.289 134.864 117.361 135.17 117.361C135.476 117.361 135.755 117.289 136.007 117.145C136.265 116.995 136.469 116.782 136.619 116.506C136.769 116.224 136.844 115.897 136.844 115.525ZM138.75 115.516C138.75 115.012 138.852 114.571 139.056 114.193C139.26 113.809 139.539 113.512 139.893 113.302C140.253 113.092 140.652 112.987 141.09 112.987C141.522 112.987 141.897 113.08 142.215 113.266C142.533 113.452 142.77 113.686 142.926 113.968V113.068H143.754V118H142.926V117.082C142.764 117.37 142.521 117.61 142.197 117.802C141.879 117.988 141.507 118.081 141.081 118.081C140.643 118.081 140.247 117.973 139.893 117.757C139.539 117.541 139.26 117.238 139.056 116.848C138.852 116.458 138.75 116.014 138.75 115.516ZM142.926 115.525C142.926 115.153 142.851 114.829 142.701 114.553C142.551 114.277 142.347 114.067 142.089 113.923C141.837 113.773 141.558 113.698 141.252 113.698C140.946 113.698 140.667 113.77 140.415 113.914C140.163 114.058 139.962 114.268 139.812 114.544C139.662 114.82 139.587 115.144 139.587 115.516C139.587 115.894 139.662 116.224 139.812 116.506C139.962 116.782 140.163 116.995 140.415 117.145C140.667 117.289 140.946 117.361 141.252 117.361C141.558 117.361 141.837 117.289 142.089 117.145C142.347 116.995 142.551 116.782 142.701 116.506C142.851 116.224 142.926 115.897 142.926 115.525ZM147.172 112.987C147.598 112.987 147.97 113.08 148.288 113.266C148.612 113.452 148.852 113.686 149.008 113.968V113.068H149.836V118.108C149.836 118.558 149.74 118.957 149.548 119.305C149.356 119.659 149.08 119.935 148.72 120.133C148.366 120.331 147.952 120.43 147.478 120.43C146.83 120.43 146.29 120.277 145.858 119.971C145.426 119.665 145.171 119.248 145.093 118.72H145.903C145.993 119.02 146.179 119.26 146.461 119.44C146.743 119.626 147.082 119.719 147.478 119.719C147.928 119.719 148.294 119.578 148.576 119.296C148.864 119.014 149.008 118.618 149.008 118.108V117.073C148.846 117.361 148.606 117.601 148.288 117.793C147.97 117.985 147.598 118.081 147.172 118.081C146.734 118.081 146.335 117.973 145.975 117.757C145.621 117.541 145.342 117.238 145.138 116.848C144.934 116.458 144.832 116.014 144.832 115.516C144.832 115.012 144.934 114.571 145.138 114.193C145.342 113.809 145.621 113.512 145.975 113.302C146.335 113.092 146.734 112.987 147.172 112.987ZM149.008 115.525C149.008 115.153 148.933 114.829 148.783 114.553C148.633 114.277 148.429 114.067 148.171 113.923C147.919 113.773 147.64 113.698 147.334 113.698C147.028 113.698 146.749 113.77 146.497 113.914C146.245 114.058 146.044 114.268 145.894 114.544C145.744 114.82 145.669 115.144 145.669 115.516C145.669 115.894 145.744 116.224 145.894 116.506C146.044 116.782 146.245 116.995 146.497 117.145C146.749 117.289 147.028 117.361 147.334 117.361C147.64 117.361 147.919 117.289 148.171 117.145C148.429 116.995 148.633 116.782 148.783 116.506C148.933 116.224 149.008 115.897 149.008 115.525ZM155.72 115.345C155.72 115.501 155.711 115.666 155.693 115.84H151.751C151.781 116.326 151.946 116.707 152.246 116.983C152.552 117.253 152.921 117.388 153.353 117.388C153.707 117.388 154.001 117.307 154.235 117.145C154.475 116.977 154.643 116.755 154.739 116.479H155.621C155.489 116.953 155.225 117.34 154.829 117.64C154.433 117.934 153.941 118.081 153.353 118.081C152.885 118.081 152.465 117.976 152.093 117.766C151.727 117.556 151.439 117.259 151.229 116.875C151.019 116.485 150.914 116.035 150.914 115.525C150.914 115.015 151.016 114.568 151.22 114.184C151.424 113.8 151.709 113.506 152.075 113.302C152.447 113.092 152.873 112.987 153.353 112.987C153.821 112.987 154.235 113.089 154.595 113.293C154.955 113.497 155.231 113.779 155.423 114.139C155.621 114.493 155.72 114.895 155.72 115.345ZM154.874 115.174C154.874 114.862 154.805 114.595 154.667 114.373C154.529 114.145 154.34 113.974 154.1 113.86C153.866 113.74 153.605 113.68 153.317 113.68C152.903 113.68 152.549 113.812 152.255 114.076C151.967 114.34 151.802 114.706 151.76 115.174H154.874ZM163.701 115.345C163.701 115.501 163.692 115.666 163.674 115.84H159.732C159.762 116.326 159.927 116.707 160.227 116.983C160.533 117.253 160.902 117.388 161.334 117.388C161.688 117.388 161.982 117.307 162.216 117.145C162.456 116.977 162.624 116.755 162.72 116.479H163.602C163.47 116.953 163.206 117.34 162.81 117.64C162.414 117.934 161.922 118.081 161.334 118.081C160.866 118.081 160.446 117.976 160.074 117.766C159.708 117.556 159.42 117.259 159.21 116.875C159 116.485 158.895 116.035 158.895 115.525C158.895 115.015 158.997 114.568 159.201 114.184C159.405 113.8 159.69 113.506 160.056 113.302C160.428 113.092 160.854 112.987 161.334 112.987C161.802 112.987 162.216 113.089 162.576 113.293C162.936 113.497 163.212 113.779 163.404 114.139C163.602 114.493 163.701 114.895 163.701 115.345ZM162.855 115.174C162.855 114.862 162.786 114.595 162.648 114.373C162.51 114.145 162.321 113.974 162.081 113.86C161.847 113.74 161.586 113.68 161.298 113.68C160.884 113.68 160.53 113.812 160.236 114.076C159.948 114.34 159.783 114.706 159.741 115.174H162.855ZM165.601 111.34V118H164.782V111.34H165.601ZM167.42 112.267C167.264 112.267 167.132 112.213 167.024 112.105C166.916 111.997 166.862 111.865 166.862 111.709C166.862 111.553 166.916 111.421 167.024 111.313C167.132 111.205 167.264 111.151 167.42 111.151C167.57 111.151 167.696 111.205 167.798 111.313C167.906 111.421 167.96 111.553 167.96 111.709C167.96 111.865 167.906 111.997 167.798 112.105C167.696 112.213 167.57 112.267 167.42 112.267ZM167.816 113.068V118H166.997V113.068H167.816ZM171.246 112.987C171.672 112.987 172.044 113.08 172.362 113.266C172.686 113.452 172.926 113.686 173.082 113.968V113.068H173.91V118.108C173.91 118.558 173.814 118.957 173.622 119.305C173.43 119.659 173.154 119.935 172.794 120.133C172.44 120.331 172.026 120.43 171.552 120.43C170.904 120.43 170.364 120.277 169.932 119.971C169.5 119.665 169.245 119.248 169.167 118.72H169.977C170.067 119.02 170.253 119.26 170.535 119.44C170.817 119.626 171.156 119.719 171.552 119.719C172.002 119.719 172.368 119.578 172.65 119.296C172.938 119.014 173.082 118.618 173.082 118.108V117.073C172.92 117.361 172.68 117.601 172.362 117.793C172.044 117.985 171.672 118.081 171.246 118.081C170.808 118.081 170.409 117.973 170.049 117.757C169.695 117.541 169.416 117.238 169.212 116.848C169.008 116.458 168.906 116.014 168.906 115.516C168.906 115.012 169.008 114.571 169.212 114.193C169.416 113.809 169.695 113.512 170.049 113.302C170.409 113.092 170.808 112.987 171.246 112.987ZM173.082 115.525C173.082 115.153 173.007 114.829 172.857 114.553C172.707 114.277 172.503 114.067 172.245 113.923C171.993 113.773 171.714 113.698 171.408 113.698C171.102 113.698 170.823 113.77 170.571 113.914C170.319 114.058 170.118 114.268 169.968 114.544C169.818 114.82 169.743 115.144 169.743 115.516C169.743 115.894 169.818 116.224 169.968 116.506C170.118 116.782 170.319 116.995 170.571 117.145C170.823 117.289 171.102 117.361 171.408 117.361C171.714 117.361 171.993 117.289 172.245 117.145C172.503 116.995 172.707 116.782 172.857 116.506C173.007 116.224 173.082 115.897 173.082 115.525ZM175.717 112.267C175.561 112.267 175.429 112.213 175.321 112.105C175.213 111.997 175.159 111.865 175.159 111.709C175.159 111.553 175.213 111.421 175.321 111.313C175.429 111.205 175.561 111.151 175.717 111.151C175.867 111.151 175.993 111.205 176.095 111.313C176.203 111.421 176.257 111.553 176.257 111.709C176.257 111.865 176.203 111.997 176.095 112.105C175.993 112.213 175.867 112.267 175.717 112.267ZM176.113 113.068V118H175.294V113.068H176.113ZM178.327 113.986C178.495 113.692 178.741 113.452 179.065 113.266C179.389 113.08 179.758 112.987 180.172 112.987C180.616 112.987 181.015 113.092 181.369 113.302C181.723 113.512 182.002 113.809 182.206 114.193C182.41 114.571 182.512 115.012 182.512 115.516C182.512 116.014 182.41 116.458 182.206 116.848C182.002 117.238 181.72 117.541 181.36 117.757C181.006 117.973 180.61 118.081 180.172 118.081C179.746 118.081 179.371 117.988 179.047 117.802C178.729 117.616 178.489 117.379 178.327 117.091V118H177.508V111.34H178.327V113.986ZM181.675 115.516C181.675 115.144 181.6 114.82 181.45 114.544C181.3 114.268 181.096 114.058 180.838 113.914C180.586 113.77 180.307 113.698 180.001 113.698C179.701 113.698 179.422 113.773 179.164 113.923C178.912 114.067 178.708 114.28 178.552 114.562C178.402 114.838 178.327 115.159 178.327 115.525C178.327 115.897 178.402 116.224 178.552 116.506C178.708 116.782 178.912 116.995 179.164 117.145C179.422 117.289 179.701 117.361 180.001 117.361C180.307 117.361 180.586 117.289 180.838 117.145C181.096 116.995 181.3 116.782 181.45 116.506C181.6 116.224 181.675 115.894 181.675 115.516ZM184.409 111.34V118H183.59V111.34H184.409ZM190.305 115.345C190.305 115.501 190.296 115.666 190.278 115.84H186.336C186.366 116.326 186.531 116.707 186.831 116.983C187.137 117.253 187.506 117.388 187.938 117.388C188.292 117.388 188.586 117.307 188.82 117.145C189.06 116.977 189.228 116.755 189.324 116.479H190.206C190.074 116.953 189.81 117.34 189.414 117.64C189.018 117.934 188.526 118.081 187.938 118.081C187.47 118.081 187.05 117.976 186.678 117.766C186.312 117.556 186.024 117.259 185.814 116.875C185.604 116.485 185.499 116.035 185.499 115.525C185.499 115.015 185.601 114.568 185.805 114.184C186.009 113.8 186.294 113.506 186.66 113.302C187.032 113.092 187.458 112.987 187.938 112.987C188.406 112.987 188.82 113.089 189.18 113.293C189.54 113.497 189.816 113.779 190.008 114.139C190.206 114.493 190.305 114.895 190.305 115.345ZM189.459 115.174C189.459 114.862 189.39 114.595 189.252 114.373C189.114 114.145 188.925 113.974 188.685 113.86C188.451 113.74 188.19 113.68 187.902 113.68C187.488 113.68 187.134 113.812 186.84 114.076C186.552 114.34 186.387 114.706 186.345 115.174H189.459ZM192.988 111.646C193.582 111.646 194.062 111.814 194.428 112.15C194.794 112.486 194.977 112.936 194.977 113.5C194.977 114.13 194.782 114.598 194.392 114.904C194.002 115.204 193.474 115.354 192.808 115.354L192.781 116.209H192.07L192.034 114.787H192.295C192.889 114.787 193.354 114.697 193.69 114.517C194.026 114.337 194.194 113.998 194.194 113.5C194.194 113.14 194.086 112.855 193.87 112.645C193.654 112.435 193.363 112.33 192.997 112.33C192.625 112.33 192.331 112.432 192.115 112.636C191.905 112.834 191.8 113.107 191.8 113.455H191.026C191.026 113.095 191.107 112.78 191.269 112.51C191.431 112.234 191.659 112.021 191.953 111.871C192.253 111.721 192.598 111.646 192.988 111.646ZM192.421 118.054C192.265 118.054 192.133 118 192.025 117.892C191.917 117.784 191.863 117.652 191.863 117.496C191.863 117.34 191.917 117.208 192.025 117.1C192.133 116.992 192.265 116.938 192.421 116.938C192.571 116.938 192.697 116.992 192.799 117.1C192.907 117.208 192.961 117.34 192.961 117.496C192.961 117.652 192.907 117.784 192.799 117.892C192.697 118 192.571 118.054 192.421 118.054ZM196.367 118.054C196.211 118.054 196.079 118 195.971 117.892C195.863 117.784 195.809 117.652 195.809 117.496C195.809 117.34 195.863 117.208 195.971 117.1C196.079 116.992 196.211 116.938 196.367 116.938C196.517 116.938 196.643 116.992 196.745 117.1C196.853 117.208 196.907 117.34 196.907 117.496C196.907 117.652 196.853 117.784 196.745 117.892C196.643 118 196.517 118.054 196.367 118.054ZM196.367 114.202C196.211 114.202 196.079 114.148 195.971 114.04C195.863 113.932 195.809 113.8 195.809 113.644C195.809 113.488 195.863 113.356 195.971 113.248C196.079 113.14 196.211 113.086 196.367 113.086C196.517 113.086 196.643 113.14 196.745 113.248C196.853 113.356 196.907 113.488 196.907 113.644C196.907 113.8 196.853 113.932 196.745 114.04C196.643 114.148 196.517 114.202 196.367 114.202ZM202.429 113.743H201.394V118H200.575V113.743H199.936V113.068H200.575V112.717C200.575 112.165 200.716 111.763 200.998 111.511C201.286 111.253 201.745 111.124 202.375 111.124V111.808C202.015 111.808 201.76 111.88 201.61 112.024C201.466 112.162 201.394 112.393 201.394 112.717V113.068H202.429V113.743ZM203.077 115.516C203.077 115.012 203.179 114.571 203.383 114.193C203.587 113.809 203.866 113.512 204.22 113.302C204.58 113.092 204.979 112.987 205.417 112.987C205.849 112.987 206.224 113.08 206.542 113.266C206.86 113.452 207.097 113.686 207.253 113.968V113.068H208.081V118H207.253V117.082C207.091 117.37 206.848 117.61 206.524 117.802C206.206 117.988 205.834 118.081 205.408 118.081C204.97 118.081 204.574 117.973 204.22 117.757C203.866 117.541 203.587 117.238 203.383 116.848C203.179 116.458 203.077 116.014 203.077 115.516ZM207.253 115.525C207.253 115.153 207.178 114.829 207.028 114.553C206.878 114.277 206.674 114.067 206.416 113.923C206.164 113.773 205.885 113.698 205.579 113.698C205.273 113.698 204.994 113.77 204.742 113.914C204.49 114.058 204.289 114.268 204.139 114.544C203.989 114.82 203.914 115.144 203.914 115.516C203.914 115.894 203.989 116.224 204.139 116.506C204.289 116.782 204.49 116.995 204.742 117.145C204.994 117.289 205.273 117.361 205.579 117.361C205.885 117.361 206.164 117.289 206.416 117.145C206.674 116.995 206.878 116.782 207.028 116.506C207.178 116.224 207.253 115.897 207.253 115.525ZM210.284 111.34V118H209.465V111.34H210.284ZM213.426 118.081C213.048 118.081 212.709 118.018 212.409 117.892C212.109 117.76 211.872 117.58 211.698 117.352C211.524 117.118 211.428 116.851 211.41 116.551H212.256C212.28 116.797 212.394 116.998 212.598 117.154C212.808 117.31 213.081 117.388 213.417 117.388C213.729 117.388 213.975 117.319 214.155 117.181C214.335 117.043 214.425 116.869 214.425 116.659C214.425 116.443 214.329 116.284 214.137 116.182C213.945 116.074 213.648 115.969 213.246 115.867C212.88 115.771 212.58 115.675 212.346 115.579C212.118 115.477 211.92 115.33 211.752 115.138C211.59 114.94 211.509 114.682 211.509 114.364C211.509 114.112 211.584 113.881 211.734 113.671C211.884 113.461 212.097 113.296 212.373 113.176C212.649 113.05 212.964 112.987 213.318 112.987C213.864 112.987 214.305 113.125 214.641 113.401C214.977 113.677 215.157 114.055 215.181 114.535H214.362C214.344 114.277 214.239 114.07 214.047 113.914C213.861 113.758 213.609 113.68 213.291 113.68C212.997 113.68 212.763 113.743 212.589 113.869C212.415 113.995 212.328 114.16 212.328 114.364C212.328 114.526 212.379 114.661 212.481 114.769C212.589 114.871 212.721 114.955 212.877 115.021C213.039 115.081 213.261 115.15 213.543 115.228C213.897 115.324 214.185 115.42 214.407 115.516C214.629 115.606 214.818 115.744 214.974 115.93C215.136 116.116 215.22 116.359 215.226 116.659C215.226 116.929 215.151 117.172 215.001 117.388C214.851 117.604 214.638 117.775 214.362 117.901C214.092 118.021 213.78 118.081 213.426 118.081ZM220.882 115.345C220.882 115.501 220.873 115.666 220.855 115.84H216.913C216.943 116.326 217.108 116.707 217.408 116.983C217.714 117.253 218.083 117.388 218.515 117.388C218.869 117.388 219.163 117.307 219.397 117.145C219.637 116.977 219.805 116.755 219.901 116.479H220.783C220.651 116.953 220.387 117.34 219.991 117.64C219.595 117.934 219.103 118.081 218.515 118.081C218.047 118.081 217.627 117.976 217.255 117.766C216.889 117.556 216.601 117.259 216.391 116.875C216.181 116.485 216.076 116.035 216.076 115.525C216.076 115.015 216.178 114.568 216.382 114.184C216.586 113.8 216.871 113.506 217.237 113.302C217.609 113.092 218.035 112.987 218.515 112.987C218.983 112.987 219.397 113.089 219.757 113.293C220.117 113.497 220.393 113.779 220.585 114.139C220.783 114.493 220.882 114.895 220.882 115.345ZM220.036 115.174C220.036 114.862 219.967 114.595 219.829 114.373C219.691 114.145 219.502 113.974 219.262 113.86C219.028 113.74 218.767 113.68 218.479 113.68C218.065 113.68 217.711 113.812 217.417 114.076C217.129 114.34 216.964 114.706 216.922 115.174H220.036ZM101.222 136L99.7281 133.435H98.7381V136H97.9191V129.727H99.9441C100.418 129.727 100.817 129.808 101.141 129.97C101.471 130.132 101.717 130.351 101.879 130.627C102.041 130.903 102.122 131.218 102.122 131.572C102.122 132.004 101.996 132.385 101.744 132.715C101.498 133.045 101.126 133.264 100.628 133.372L102.203 136H101.222ZM98.7381 132.778H99.9441C100.388 132.778 100.721 132.67 100.943 132.454C101.165 132.232 101.276 131.938 101.276 131.572C101.276 131.2 101.165 130.912 100.943 130.708C100.727 130.504 100.394 130.402 99.9441 130.402H98.7381V132.778ZM105.546 136.081C105.084 136.081 104.664 135.976 104.286 135.766C103.914 135.556 103.62 135.259 103.404 134.875C103.194 134.485 103.089 134.035 103.089 133.525C103.089 133.021 103.197 132.577 103.413 132.193C103.635 131.803 103.935 131.506 104.313 131.302C104.691 131.092 105.114 130.987 105.582 130.987C106.05 130.987 106.473 131.092 106.851 131.302C107.229 131.506 107.526 131.8 107.742 132.184C107.964 132.568 108.075 133.015 108.075 133.525C108.075 134.035 107.961 134.485 107.733 134.875C107.511 135.259 107.208 135.556 106.824 135.766C106.44 135.976 106.014 136.081 105.546 136.081ZM105.546 135.361C105.84 135.361 106.116 135.292 106.374 135.154C106.632 135.016 106.839 134.809 106.995 134.533C107.157 134.257 107.238 133.921 107.238 133.525C107.238 133.129 107.16 132.793 107.004 132.517C106.848 132.241 106.644 132.037 106.392 131.905C106.14 131.767 105.867 131.698 105.573 131.698C105.273 131.698 104.997 131.767 104.745 131.905C104.499 132.037 104.301 132.241 104.151 132.517C104.001 132.793 103.926 133.129 103.926 133.525C103.926 133.927 103.998 134.266 104.142 134.542C104.292 134.818 104.49 135.025 104.736 135.163C104.982 135.295 105.252 135.361 105.546 135.361ZM113.525 131.068V136H112.706V135.271C112.55 135.523 112.331 135.721 112.049 135.865C111.773 136.003 111.467 136.072 111.131 136.072C110.747 136.072 110.402 135.994 110.096 135.838C109.79 135.676 109.547 135.436 109.367 135.118C109.193 134.8 109.106 134.413 109.106 133.957V131.068H109.916V133.849C109.916 134.335 110.039 134.71 110.285 134.974C110.531 135.232 110.867 135.361 111.293 135.361C111.731 135.361 112.076 135.226 112.328 134.956C112.58 134.686 112.706 134.293 112.706 133.777V131.068H113.525ZM117.311 130.978C117.911 130.978 118.397 131.161 118.769 131.527C119.141 131.887 119.327 132.409 119.327 133.093V136H118.517V133.21C118.517 132.718 118.394 132.343 118.148 132.085C117.902 131.821 117.566 131.689 117.14 131.689C116.708 131.689 116.363 131.824 116.105 132.094C115.853 132.364 115.727 132.757 115.727 133.273V136H114.908V131.068H115.727V131.77C115.889 131.518 116.108 131.323 116.384 131.185C116.666 131.047 116.975 130.978 117.311 130.978ZM120.359 133.516C120.359 133.012 120.461 132.571 120.665 132.193C120.869 131.809 121.148 131.512 121.502 131.302C121.862 131.092 122.264 130.987 122.708 130.987C123.092 130.987 123.449 131.077 123.779 131.257C124.109 131.431 124.361 131.662 124.535 131.95V129.34H125.363V136H124.535V135.073C124.373 135.367 124.133 135.61 123.815 135.802C123.497 135.988 123.125 136.081 122.699 136.081C122.261 136.081 121.862 135.973 121.502 135.757C121.148 135.541 120.869 135.238 120.665 134.848C120.461 134.458 120.359 134.014 120.359 133.516ZM124.535 133.525C124.535 133.153 124.46 132.829 124.31 132.553C124.16 132.277 123.956 132.067 123.698 131.923C123.446 131.773 123.167 131.698 122.861 131.698C122.555 131.698 122.276 131.77 122.024 131.914C121.772 132.058 121.571 132.268 121.421 132.544C121.271 132.82 121.196 133.144 121.196 133.516C121.196 133.894 121.271 134.224 121.421 134.506C121.571 134.782 121.772 134.995 122.024 135.145C122.276 135.289 122.555 135.361 122.861 135.361C123.167 135.361 123.446 135.289 123.698 135.145C123.956 134.995 124.16 134.782 124.31 134.506C124.46 134.224 124.535 133.897 124.535 133.525ZM133.008 129.727V130.393H131.298V136H130.479V130.393H128.76V129.727H133.008ZM134.835 131.869C134.979 131.587 135.183 131.368 135.447 131.212C135.717 131.056 136.044 130.978 136.428 130.978V131.824H136.212C135.294 131.824 134.835 132.322 134.835 133.318V136H134.016V131.068H134.835V131.869ZM137.796 130.267C137.64 130.267 137.508 130.213 137.4 130.105C137.292 129.997 137.238 129.865 137.238 129.709C137.238 129.553 137.292 129.421 137.4 129.313C137.508 129.205 137.64 129.151 137.796 129.151C137.946 129.151 138.072 129.205 138.174 129.313C138.282 129.421 138.336 129.553 138.336 129.709C138.336 129.865 138.282 129.997 138.174 130.105C138.072 130.213 137.946 130.267 137.796 130.267ZM138.192 131.068V136H137.373V131.068H138.192ZM140.407 131.977C140.569 131.695 140.809 131.461 141.127 131.275C141.451 131.083 141.826 130.987 142.252 130.987C142.69 130.987 143.086 131.092 143.44 131.302C143.8 131.512 144.082 131.809 144.286 132.193C144.49 132.571 144.592 133.012 144.592 133.516C144.592 134.014 144.49 134.458 144.286 134.848C144.082 135.238 143.8 135.541 143.44 135.757C143.086 135.973 142.69 136.081 142.252 136.081C141.832 136.081 141.46 135.988 141.136 135.802C140.818 135.61 140.575 135.373 140.407 135.091V138.34H139.588V131.068H140.407V131.977ZM143.755 133.516C143.755 133.144 143.68 132.82 143.53 132.544C143.38 132.268 143.176 132.058 142.918 131.914C142.666 131.77 142.387 131.698 142.081 131.698C141.781 131.698 141.502 131.773 141.244 131.923C140.992 132.067 140.788 132.28 140.632 132.562C140.482 132.838 140.407 133.159 140.407 133.525C140.407 133.897 140.482 134.224 140.632 134.506C140.788 134.782 140.992 134.995 141.244 135.145C141.502 135.289 141.781 135.361 142.081 135.361C142.387 135.361 142.666 135.289 142.918 135.145C143.176 134.995 143.38 134.782 143.53 134.506C143.68 134.224 143.755 133.894 143.755 133.516ZM147.763 132.859C147.763 132.247 147.901 131.698 148.177 131.212C148.453 130.72 148.828 130.336 149.302 130.06C149.782 129.784 150.313 129.646 150.895 129.646C151.579 129.646 152.176 129.811 152.686 130.141C153.196 130.471 153.568 130.939 153.802 131.545H152.821C152.647 131.167 152.395 130.876 152.065 130.672C151.741 130.468 151.351 130.366 150.895 130.366C150.457 130.366 150.064 130.468 149.716 130.672C149.368 130.876 149.095 131.167 148.897 131.545C148.699 131.917 148.6 132.355 148.6 132.859C148.6 133.357 148.699 133.795 148.897 134.173C149.095 134.545 149.368 134.833 149.716 135.037C150.064 135.241 150.457 135.343 150.895 135.343C151.351 135.343 151.741 135.244 152.065 135.046C152.395 134.842 152.647 134.551 152.821 134.173H153.802C153.568 134.773 153.196 135.238 152.686 135.568C152.176 135.892 151.579 136.054 150.895 136.054C150.313 136.054 149.782 135.919 149.302 135.649C148.828 135.373 148.453 134.992 148.177 134.506C147.901 134.02 147.763 133.471 147.763 132.859ZM157.47 130.978C157.842 130.978 158.178 131.059 158.478 131.221C158.778 131.377 159.012 131.614 159.18 131.932C159.354 132.25 159.441 132.637 159.441 133.093V136H158.631V133.21C158.631 132.718 158.508 132.343 158.262 132.085C158.016 131.821 157.68 131.689 157.254 131.689C156.822 131.689 156.477 131.824 156.219 132.094C155.967 132.364 155.841 132.757 155.841 133.273V136H155.022V129.34H155.841V131.77C156.003 131.518 156.225 131.323 156.507 131.185C156.795 131.047 157.116 130.978 157.47 130.978ZM165.278 133.345C165.278 133.501 165.269 133.666 165.251 133.84H161.309C161.339 134.326 161.504 134.707 161.804 134.983C162.11 135.253 162.479 135.388 162.911 135.388C163.265 135.388 163.559 135.307 163.793 135.145C164.033 134.977 164.201 134.755 164.297 134.479H165.179C165.047 134.953 164.783 135.34 164.387 135.64C163.991 135.934 163.499 136.081 162.911 136.081C162.443 136.081 162.023 135.976 161.651 135.766C161.285 135.556 160.997 135.259 160.787 134.875C160.577 134.485 160.472 134.035 160.472 133.525C160.472 133.015 160.574 132.568 160.778 132.184C160.982 131.8 161.267 131.506 161.633 131.302C162.005 131.092 162.431 130.987 162.911 130.987C163.379 130.987 163.793 131.089 164.153 131.293C164.513 131.497 164.789 131.779 164.981 132.139C165.179 132.493 165.278 132.895 165.278 133.345ZM164.432 133.174C164.432 132.862 164.363 132.595 164.225 132.373C164.087 132.145 163.898 131.974 163.658 131.86C163.424 131.74 163.163 131.68 162.875 131.68C162.461 131.68 162.107 131.812 161.813 132.076C161.525 132.34 161.36 132.706 161.318 133.174H164.432ZM166.054 133.525C166.054 133.015 166.156 132.571 166.36 132.193C166.564 131.809 166.846 131.512 167.206 131.302C167.572 131.092 167.989 130.987 168.457 130.987C169.063 130.987 169.561 131.134 169.951 131.428C170.347 131.722 170.608 132.13 170.734 132.652H169.852C169.768 132.352 169.603 132.115 169.357 131.941C169.117 131.767 168.817 131.68 168.457 131.68C167.989 131.68 167.611 131.842 167.323 132.166C167.035 132.484 166.891 132.937 166.891 133.525C166.891 134.119 167.035 134.578 167.323 134.902C167.611 135.226 167.989 135.388 168.457 135.388C168.817 135.388 169.117 135.304 169.357 135.136C169.597 134.968 169.762 134.728 169.852 134.416H170.734C170.602 134.92 170.338 135.325 169.942 135.631C169.546 135.931 169.051 136.081 168.457 136.081C167.989 136.081 167.572 135.976 167.206 135.766C166.846 135.556 166.564 135.259 166.36 134.875C166.156 134.491 166.054 134.041 166.054 133.525ZM174.58 136L172.645 133.822V136H171.826V129.34H172.645V133.255L174.544 131.068H175.687L173.365 133.525L175.696 136H174.58ZM178.06 129.646C178.654 129.646 179.134 129.814 179.5 130.15C179.866 130.486 180.049 130.936 180.049 131.5C180.049 132.13 179.854 132.598 179.464 132.904C179.074 133.204 178.546 133.354 177.88 133.354L177.853 134.209H177.142L177.106 132.787H177.367C177.961 132.787 178.426 132.697 178.762 132.517C179.098 132.337 179.266 131.998 179.266 131.5C179.266 131.14 179.158 130.855 178.942 130.645C178.726 130.435 178.435 130.33 178.069 130.33C177.697 130.33 177.403 130.432 177.187 130.636C176.977 130.834 176.872 131.107 176.872 131.455H176.098C176.098 131.095 176.179 130.78 176.341 130.51C176.503 130.234 176.731 130.021 177.025 129.871C177.325 129.721 177.67 129.646 178.06 129.646ZM177.493 136.054C177.337 136.054 177.205 136 177.097 135.892C176.989 135.784 176.935 135.652 176.935 135.496C176.935 135.34 176.989 135.208 177.097 135.1C177.205 134.992 177.337 134.938 177.493 134.938C177.643 134.938 177.769 134.992 177.871 135.1C177.979 135.208 178.033 135.34 178.033 135.496C178.033 135.652 177.979 135.784 177.871 135.892C177.769 136 177.643 136.054 177.493 136.054ZM181.439 136.054C181.283 136.054 181.151 136 181.043 135.892C180.935 135.784 180.881 135.652 180.881 135.496C180.881 135.34 180.935 135.208 181.043 135.1C181.151 134.992 181.283 134.938 181.439 134.938C181.589 134.938 181.715 134.992 181.817 135.1C181.925 135.208 181.979 135.34 181.979 135.496C181.979 135.652 181.925 135.784 181.817 135.892C181.715 136 181.589 136.054 181.439 136.054ZM181.439 132.202C181.283 132.202 181.151 132.148 181.043 132.04C180.935 131.932 180.881 131.8 180.881 131.644C180.881 131.488 180.935 131.356 181.043 131.248C181.151 131.14 181.283 131.086 181.439 131.086C181.589 131.086 181.715 131.14 181.817 131.248C181.925 131.356 181.979 131.488 181.979 131.644C181.979 131.8 181.925 131.932 181.817 132.04C181.715 132.148 181.589 132.202 181.439 132.202ZM186.492 131.743V134.65C186.492 134.89 186.543 135.061 186.645 135.163C186.747 135.259 186.924 135.307 187.176 135.307H187.779V136H187.041C186.585 136 186.243 135.895 186.015 135.685C185.787 135.475 185.673 135.13 185.673 134.65V131.743H185.034V131.068H185.673V129.826H186.492V131.068H187.779V131.743H186.492ZM189.591 131.869C189.735 131.587 189.939 131.368 190.203 131.212C190.473 131.056 190.8 130.978 191.184 130.978V131.824H190.968C190.05 131.824 189.591 132.322 189.591 133.318V136H188.772V131.068H189.591V131.869ZM196.503 131.068V136H195.684V135.271C195.528 135.523 195.309 135.721 195.027 135.865C194.751 136.003 194.445 136.072 194.109 136.072C193.725 136.072 193.38 135.994 193.074 135.838C192.768 135.676 192.525 135.436 192.345 135.118C192.171 134.8 192.084 134.413 192.084 133.957V131.068H192.894V133.849C192.894 134.335 193.017 134.71 193.263 134.974C193.509 135.232 193.845 135.361 194.271 135.361C194.709 135.361 195.054 135.226 195.306 134.956C195.558 134.686 195.684 134.293 195.684 133.777V131.068H196.503ZM202.386 133.345C202.386 133.501 202.377 133.666 202.359 133.84H198.417C198.447 134.326 198.612 134.707 198.912 134.983C199.218 135.253 199.587 135.388 200.019 135.388C200.373 135.388 200.667 135.307 200.901 135.145C201.141 134.977 201.309 134.755 201.405 134.479H202.287C202.155 134.953 201.891 135.34 201.495 135.64C201.099 135.934 200.607 136.081 200.019 136.081C199.551 136.081 199.131 135.976 198.759 135.766C198.393 135.556 198.105 135.259 197.895 134.875C197.685 134.485 197.58 134.035 197.58 133.525C197.58 133.015 197.682 132.568 197.886 132.184C198.09 131.8 198.375 131.506 198.741 131.302C199.113 131.092 199.539 130.987 200.019 130.987C200.487 130.987 200.901 131.089 201.261 131.293C201.621 131.497 201.897 131.779 202.089 132.139C202.287 132.493 202.386 132.895 202.386 133.345ZM201.54 133.174C201.54 132.862 201.471 132.595 201.333 132.373C201.195 132.145 201.006 131.974 200.766 131.86C200.532 131.74 200.271 131.68 199.983 131.68C199.569 131.68 199.215 131.812 198.921 132.076C198.633 132.34 198.468 132.706 198.426 133.174H201.54ZM98.0236 152.605H95.2876L94.7836 154H93.9196L96.1876 147.763H97.1326L99.3916 154H98.5276L98.0236 152.605ZM97.7896 151.939L96.6556 148.771L95.5216 151.939H97.7896ZM101.199 149.869C101.343 149.587 101.547 149.368 101.811 149.212C102.081 149.056 102.408 148.978 102.792 148.978V149.824H102.576C101.658 149.824 101.199 150.322 101.199 151.318V154H100.38V149.068H101.199V149.869ZM108.237 151.345C108.237 151.501 108.228 151.666 108.21 151.84H104.268C104.298 152.326 104.463 152.707 104.763 152.983C105.069 153.253 105.438 153.388 105.87 153.388C106.224 153.388 106.518 153.307 106.752 153.145C106.992 152.977 107.16 152.755 107.256 152.479H108.138C108.006 152.953 107.742 153.34 107.346 153.64C106.95 153.934 106.458 154.081 105.87 154.081C105.402 154.081 104.982 153.976 104.61 153.766C104.244 153.556 103.956 153.259 103.746 152.875C103.536 152.485 103.431 152.035 103.431 151.525C103.431 151.015 103.533 150.568 103.737 150.184C103.941 149.8 104.226 149.506 104.592 149.302C104.964 149.092 105.39 148.987 105.87 148.987C106.338 148.987 106.752 149.089 107.112 149.293C107.472 149.497 107.748 149.779 107.94 150.139C108.138 150.493 108.237 150.895 108.237 151.345ZM107.391 151.174C107.391 150.862 107.322 150.595 107.184 150.373C107.046 150.145 106.857 149.974 106.617 149.86C106.383 149.74 106.122 149.68 105.834 149.68C105.42 149.68 105.066 149.812 104.772 150.076C104.484 150.34 104.319 150.706 104.277 151.174H107.391ZM113.464 154.081C113.086 154.081 112.747 154.018 112.447 153.892C112.147 153.76 111.91 153.58 111.736 153.352C111.562 153.118 111.466 152.851 111.448 152.551H112.294C112.318 152.797 112.432 152.998 112.636 153.154C112.846 153.31 113.119 153.388 113.455 153.388C113.767 153.388 114.013 153.319 114.193 153.181C114.373 153.043 114.463 152.869 114.463 152.659C114.463 152.443 114.367 152.284 114.175 152.182C113.983 152.074 113.686 151.969 113.284 151.867C112.918 151.771 112.618 151.675 112.384 151.579C112.156 151.477 111.958 151.33 111.79 151.138C111.628 150.94 111.547 150.682 111.547 150.364C111.547 150.112 111.622 149.881 111.772 149.671C111.922 149.461 112.135 149.296 112.411 149.176C112.687 149.05 113.002 148.987 113.356 148.987C113.902 148.987 114.343 149.125 114.679 149.401C115.015 149.677 115.195 150.055 115.219 150.535H114.4C114.382 150.277 114.277 150.07 114.085 149.914C113.899 149.758 113.647 149.68 113.329 149.68C113.035 149.68 112.801 149.743 112.627 149.869C112.453 149.995 112.366 150.16 112.366 150.364C112.366 150.526 112.417 150.661 112.519 150.769C112.627 150.871 112.759 150.955 112.915 151.021C113.077 151.081 113.299 151.15 113.581 151.228C113.935 151.324 114.223 151.42 114.445 151.516C114.667 151.606 114.856 151.744 115.012 151.93C115.174 152.116 115.258 152.359 115.264 152.659C115.264 152.929 115.189 153.172 115.039 153.388C114.889 153.604 114.676 153.775 114.4 153.901C114.13 154.021 113.818 154.081 113.464 154.081ZM120.92 151.345C120.92 151.501 120.911 151.666 120.893 151.84H116.951C116.981 152.326 117.146 152.707 117.446 152.983C117.752 153.253 118.121 153.388 118.553 153.388C118.907 153.388 119.201 153.307 119.435 153.145C119.675 152.977 119.843 152.755 119.939 152.479H120.821C120.689 152.953 120.425 153.34 120.029 153.64C119.633 153.934 119.141 154.081 118.553 154.081C118.085 154.081 117.665 153.976 117.293 153.766C116.927 153.556 116.639 153.259 116.429 152.875C116.219 152.485 116.114 152.035 116.114 151.525C116.114 151.015 116.216 150.568 116.42 150.184C116.624 149.8 116.909 149.506 117.275 149.302C117.647 149.092 118.073 148.987 118.553 148.987C119.021 148.987 119.435 149.089 119.795 149.293C120.155 149.497 120.431 149.779 120.623 150.139C120.821 150.493 120.92 150.895 120.92 151.345ZM120.074 151.174C120.074 150.862 120.005 150.595 119.867 150.373C119.729 150.145 119.54 149.974 119.3 149.86C119.066 149.74 118.805 149.68 118.517 149.68C118.103 149.68 117.749 149.812 117.455 150.076C117.167 150.34 117.002 150.706 116.96 151.174H120.074ZM121.695 151.516C121.695 151.012 121.797 150.571 122.001 150.193C122.205 149.809 122.484 149.512 122.838 149.302C123.198 149.092 123.597 148.987 124.035 148.987C124.467 148.987 124.842 149.08 125.16 149.266C125.478 149.452 125.715 149.686 125.871 149.968V149.068H126.699V154H125.871V153.082C125.709 153.37 125.466 153.61 125.142 153.802C124.824 153.988 124.452 154.081 124.026 154.081C123.588 154.081 123.192 153.973 122.838 153.757C122.484 153.541 122.205 153.238 122.001 152.848C121.797 152.458 121.695 152.014 121.695 151.516ZM125.871 151.525C125.871 151.153 125.796 150.829 125.646 150.553C125.496 150.277 125.292 150.067 125.034 149.923C124.782 149.773 124.503 149.698 124.197 149.698C123.891 149.698 123.612 149.77 123.36 149.914C123.108 150.058 122.907 150.268 122.757 150.544C122.607 150.82 122.532 151.144 122.532 151.516C122.532 151.894 122.607 152.224 122.757 152.506C122.907 152.782 123.108 152.995 123.36 153.145C123.612 153.289 123.891 153.361 124.197 153.361C124.503 153.361 124.782 153.289 125.034 153.145C125.292 152.995 125.496 152.782 125.646 152.506C125.796 152.224 125.871 151.897 125.871 151.525ZM129.082 149.743V152.65C129.082 152.89 129.133 153.061 129.235 153.163C129.337 153.259 129.514 153.307 129.766 153.307H130.369V154H129.631C129.175 154 128.833 153.895 128.605 153.685C128.377 153.475 128.263 153.13 128.263 152.65V149.743H127.624V149.068H128.263V147.826H129.082V149.068H130.369V149.743H129.082ZM133.107 154.081C132.729 154.081 132.39 154.018 132.09 153.892C131.79 153.76 131.553 153.58 131.379 153.352C131.205 153.118 131.109 152.851 131.091 152.551H131.937C131.961 152.797 132.075 152.998 132.279 153.154C132.489 153.31 132.762 153.388 133.098 153.388C133.41 153.388 133.656 153.319 133.836 153.181C134.016 153.043 134.106 152.869 134.106 152.659C134.106 152.443 134.01 152.284 133.818 152.182C133.626 152.074 133.329 151.969 132.927 151.867C132.561 151.771 132.261 151.675 132.027 151.579C131.799 151.477 131.601 151.33 131.433 151.138C131.271 150.94 131.19 150.682 131.19 150.364C131.19 150.112 131.265 149.881 131.415 149.671C131.565 149.461 131.778 149.296 132.054 149.176C132.33 149.05 132.645 148.987 132.999 148.987C133.545 148.987 133.986 149.125 134.322 149.401C134.658 149.677 134.838 150.055 134.862 150.535H134.043C134.025 150.277 133.92 150.07 133.728 149.914C133.542 149.758 133.29 149.68 132.972 149.68C132.678 149.68 132.444 149.743 132.27 149.869C132.096 149.995 132.009 150.16 132.009 150.364C132.009 150.526 132.06 150.661 132.162 150.769C132.27 150.871 132.402 150.955 132.558 151.021C132.72 151.081 132.942 151.15 133.224 151.228C133.578 151.324 133.866 151.42 134.088 151.516C134.31 151.606 134.499 151.744 134.655 151.93C134.817 152.116 134.901 152.359 134.907 152.659C134.907 152.929 134.832 153.172 134.682 153.388C134.532 153.604 134.319 153.775 134.043 153.901C133.773 154.021 133.461 154.081 133.107 154.081ZM138.157 151.516C138.157 151.012 138.259 150.571 138.463 150.193C138.667 149.809 138.946 149.512 139.3 149.302C139.66 149.092 140.059 148.987 140.497 148.987C140.929 148.987 141.304 149.08 141.622 149.266C141.94 149.452 142.177 149.686 142.333 149.968V149.068H143.161V154H142.333V153.082C142.171 153.37 141.928 153.61 141.604 153.802C141.286 153.988 140.914 154.081 140.488 154.081C140.05 154.081 139.654 153.973 139.3 153.757C138.946 153.541 138.667 153.238 138.463 152.848C138.259 152.458 138.157 152.014 138.157 151.516ZM142.333 151.525C142.333 151.153 142.258 150.829 142.108 150.553C141.958 150.277 141.754 150.067 141.496 149.923C141.244 149.773 140.965 149.698 140.659 149.698C140.353 149.698 140.074 149.77 139.822 149.914C139.57 150.058 139.369 150.268 139.219 150.544C139.069 150.82 138.994 151.144 138.994 151.516C138.994 151.894 139.069 152.224 139.219 152.506C139.369 152.782 139.57 152.995 139.822 153.145C140.074 153.289 140.353 153.361 140.659 153.361C140.965 153.361 141.244 153.289 141.496 153.145C141.754 152.995 141.958 152.782 142.108 152.506C142.258 152.224 142.333 151.897 142.333 151.525ZM146.381 153.244L147.911 149.068H148.784L146.849 154H145.895L143.96 149.068H144.842L146.381 153.244ZM149.284 151.516C149.284 151.012 149.386 150.571 149.59 150.193C149.794 149.809 150.073 149.512 150.427 149.302C150.787 149.092 151.186 148.987 151.624 148.987C152.056 148.987 152.431 149.08 152.749 149.266C153.067 149.452 153.304 149.686 153.46 149.968V149.068H154.288V154H153.46V153.082C153.298 153.37 153.055 153.61 152.731 153.802C152.413 153.988 152.041 154.081 151.615 154.081C151.177 154.081 150.781 153.973 150.427 153.757C150.073 153.541 149.794 153.238 149.59 152.848C149.386 152.458 149.284 152.014 149.284 151.516ZM153.46 151.525C153.46 151.153 153.385 150.829 153.235 150.553C153.085 150.277 152.881 150.067 152.623 149.923C152.371 149.773 152.092 149.698 151.786 149.698C151.48 149.698 151.201 149.77 150.949 149.914C150.697 150.058 150.496 150.268 150.346 150.544C150.196 150.82 150.121 151.144 150.121 151.516C150.121 151.894 150.196 152.224 150.346 152.506C150.496 152.782 150.697 152.995 150.949 153.145C151.201 153.289 151.48 153.361 151.786 153.361C152.092 153.361 152.371 153.289 152.623 153.145C152.881 152.995 153.085 152.782 153.235 152.506C153.385 152.224 153.46 151.897 153.46 151.525ZM156.095 148.267C155.939 148.267 155.807 148.213 155.699 148.105C155.591 147.997 155.537 147.865 155.537 147.709C155.537 147.553 155.591 147.421 155.699 147.313C155.807 147.205 155.939 147.151 156.095 147.151C156.245 147.151 156.371 147.205 156.473 147.313C156.581 147.421 156.635 147.553 156.635 147.709C156.635 147.865 156.581 147.997 156.473 148.105C156.371 148.213 156.245 148.267 156.095 148.267ZM156.491 149.068V154H155.672V149.068H156.491ZM158.706 147.34V154H157.887V147.34H158.706ZM159.796 151.516C159.796 151.012 159.898 150.571 160.102 150.193C160.306 149.809 160.585 149.512 160.939 149.302C161.299 149.092 161.698 148.987 162.136 148.987C162.568 148.987 162.943 149.08 163.261 149.266C163.579 149.452 163.816 149.686 163.972 149.968V149.068H164.8V154H163.972V153.082C163.81 153.37 163.567 153.61 163.243 153.802C162.925 153.988 162.553 154.081 162.127 154.081C161.689 154.081 161.293 153.973 160.939 153.757C160.585 153.541 160.306 153.238 160.102 152.848C159.898 152.458 159.796 152.014 159.796 151.516ZM163.972 151.525C163.972 151.153 163.897 150.829 163.747 150.553C163.597 150.277 163.393 150.067 163.135 149.923C162.883 149.773 162.604 149.698 162.298 149.698C161.992 149.698 161.713 149.77 161.461 149.914C161.209 150.058 161.008 150.268 160.858 150.544C160.708 150.82 160.633 151.144 160.633 151.516C160.633 151.894 160.708 152.224 160.858 152.506C161.008 152.782 161.209 152.995 161.461 153.145C161.713 153.289 161.992 153.361 162.298 153.361C162.604 153.361 162.883 153.289 163.135 153.145C163.393 152.995 163.597 152.782 163.747 152.506C163.897 152.224 163.972 151.897 163.972 151.525ZM167.003 149.986C167.171 149.692 167.417 149.452 167.741 149.266C168.065 149.08 168.434 148.987 168.848 148.987C169.292 148.987 169.691 149.092 170.045 149.302C170.399 149.512 170.678 149.809 170.882 150.193C171.086 150.571 171.188 151.012 171.188 151.516C171.188 152.014 171.086 152.458 170.882 152.848C170.678 153.238 170.396 153.541 170.036 153.757C169.682 153.973 169.286 154.081 168.848 154.081C168.422 154.081 168.047 153.988 167.723 153.802C167.405 153.616 167.165 153.379 167.003 153.091V154H166.184V147.34H167.003V149.986ZM170.351 151.516C170.351 151.144 170.276 150.82 170.126 150.544C169.976 150.268 169.772 150.058 169.514 149.914C169.262 149.77 168.983 149.698 168.677 149.698C168.377 149.698 168.098 149.773 167.84 149.923C167.588 150.067 167.384 150.28 167.228 150.562C167.078 150.838 167.003 151.159 167.003 151.525C167.003 151.897 167.078 152.224 167.228 152.506C167.384 152.782 167.588 152.995 167.84 153.145C168.098 153.289 168.377 153.361 168.677 153.361C168.983 153.361 169.262 153.289 169.514 153.145C169.772 152.995 169.976 152.782 170.126 152.506C170.276 152.224 170.351 151.894 170.351 151.516ZM173.085 147.34V154H172.266V147.34H173.085ZM178.981 151.345C178.981 151.501 178.972 151.666 178.954 151.84H175.012C175.042 152.326 175.207 152.707 175.507 152.983C175.813 153.253 176.182 153.388 176.614 153.388C176.968 153.388 177.262 153.307 177.496 153.145C177.736 152.977 177.904 152.755 178 152.479H178.882C178.75 152.953 178.486 153.34 178.09 153.64C177.694 153.934 177.202 154.081 176.614 154.081C176.146 154.081 175.726 153.976 175.354 153.766C174.988 153.556 174.7 153.259 174.49 152.875C174.28 152.485 174.175 152.035 174.175 151.525C174.175 151.015 174.277 150.568 174.481 150.184C174.685 149.8 174.97 149.506 175.336 149.302C175.708 149.092 176.134 148.987 176.614 148.987C177.082 148.987 177.496 149.089 177.856 149.293C178.216 149.497 178.492 149.779 178.684 150.139C178.882 150.493 178.981 150.895 178.981 151.345ZM178.135 151.174C178.135 150.862 178.066 150.595 177.928 150.373C177.79 150.145 177.601 149.974 177.361 149.86C177.127 149.74 176.866 149.68 176.578 149.68C176.164 149.68 175.81 149.812 175.516 150.076C175.228 150.34 175.063 150.706 175.021 151.174H178.135ZM181.664 147.646C182.258 147.646 182.738 147.814 183.104 148.15C183.47 148.486 183.653 148.936 183.653 149.5C183.653 150.13 183.458 150.598 183.068 150.904C182.678 151.204 182.15 151.354 181.484 151.354L181.457 152.209H180.746L180.71 150.787H180.971C181.565 150.787 182.03 150.697 182.366 150.517C182.702 150.337 182.87 149.998 182.87 149.5C182.87 149.14 182.762 148.855 182.546 148.645C182.33 148.435 182.039 148.33 181.673 148.33C181.301 148.33 181.007 148.432 180.791 148.636C180.581 148.834 180.476 149.107 180.476 149.455H179.702C179.702 149.095 179.783 148.78 179.945 148.51C180.107 148.234 180.335 148.021 180.629 147.871C180.929 147.721 181.274 147.646 181.664 147.646ZM181.097 154.054C180.941 154.054 180.809 154 180.701 153.892C180.593 153.784 180.539 153.652 180.539 153.496C180.539 153.34 180.593 153.208 180.701 153.1C180.809 152.992 180.941 152.938 181.097 152.938C181.247 152.938 181.373 152.992 181.475 153.1C181.583 153.208 181.637 153.34 181.637 153.496C181.637 153.652 181.583 153.784 181.475 153.892C181.373 154 181.247 154.054 181.097 154.054ZM185.042 154.054C184.886 154.054 184.754 154 184.646 153.892C184.538 153.784 184.484 153.652 184.484 153.496C184.484 153.34 184.538 153.208 184.646 153.1C184.754 152.992 184.886 152.938 185.042 152.938C185.192 152.938 185.318 152.992 185.42 153.1C185.528 153.208 185.582 153.34 185.582 153.496C185.582 153.652 185.528 153.784 185.42 153.892C185.318 154 185.192 154.054 185.042 154.054ZM185.042 150.202C184.886 150.202 184.754 150.148 184.646 150.04C184.538 149.932 184.484 149.8 184.484 149.644C184.484 149.488 184.538 149.356 184.646 149.248C184.754 149.14 184.886 149.086 185.042 149.086C185.192 149.086 185.318 149.14 185.42 149.248C185.528 149.356 185.582 149.488 185.582 149.644C185.582 149.8 185.528 149.932 185.42 150.04C185.318 150.148 185.192 150.202 185.042 150.202ZM190.096 149.743V152.65C190.096 152.89 190.147 153.061 190.249 153.163C190.351 153.259 190.528 153.307 190.78 153.307H191.383V154H190.645C190.189 154 189.847 153.895 189.619 153.685C189.391 153.475 189.277 153.13 189.277 152.65V149.743H188.638V149.068H189.277V147.826H190.096V149.068H191.383V149.743H190.096ZM193.194 149.869C193.338 149.587 193.542 149.368 193.806 149.212C194.076 149.056 194.403 148.978 194.787 148.978V149.824H194.571C193.653 149.824 193.194 150.322 193.194 151.318V154H192.375V149.068H193.194V149.869ZM200.107 149.068V154H199.288V153.271C199.132 153.523 198.913 153.721 198.631 153.865C198.355 154.003 198.049 154.072 197.713 154.072C197.329 154.072 196.984 153.994 196.678 153.838C196.372 153.676 196.129 153.436 195.949 153.118C195.775 152.8 195.688 152.413 195.688 151.957V149.068H196.498V151.849C196.498 152.335 196.621 152.71 196.867 152.974C197.113 153.232 197.449 153.361 197.875 153.361C198.313 153.361 198.658 153.226 198.91 152.956C199.162 152.686 199.288 152.293 199.288 151.777V149.068H200.107ZM205.989 151.345C205.989 151.501 205.98 151.666 205.962 151.84H202.02C202.05 152.326 202.215 152.707 202.515 152.983C202.821 153.253 203.19 153.388 203.622 153.388C203.976 153.388 204.27 153.307 204.504 153.145C204.744 152.977 204.912 152.755 205.008 152.479H205.89C205.758 152.953 205.494 153.34 205.098 153.64C204.702 153.934 204.21 154.081 203.622 154.081C203.154 154.081 202.734 153.976 202.362 153.766C201.996 153.556 201.708 153.259 201.498 152.875C201.288 152.485 201.183 152.035 201.183 151.525C201.183 151.015 201.285 150.568 201.489 150.184C201.693 149.8 201.978 149.506 202.344 149.302C202.716 149.092 203.142 148.987 203.622 148.987C204.09 148.987 204.504 149.089 204.864 149.293C205.224 149.497 205.5 149.779 205.692 150.139C205.89 150.493 205.989 150.895 205.989 151.345ZM205.143 151.174C205.143 150.862 205.074 150.595 204.936 150.373C204.798 150.145 204.609 149.974 204.369 149.86C204.135 149.74 203.874 149.68 203.586 149.68C203.172 149.68 202.818 149.812 202.524 150.076C202.236 150.34 202.071 150.706 202.029 151.174H205.143Z" fill="black"/>
</svg>
