<svg width="300" height="180" fill="none" xmlns="http://www.w3.org/2000/svg"><path fill="#fff" d="M0 0h300v180H0z"/><path d="M31.953 24.172 27.07 35.14h-2.156l-4.789-10.97h3.398L26 30.422l2.547-6.25h3.406Zm8.805 10.43c-.412.161-.792.291-1.14.39-.35.1-.769.149-1.259.149-.463 0-.786-.081-.968-.243a1.403 1.403 0 0 1-.391-.601 4.365 4.365 0 0 1-1.008.61c-.37.156-.854.234-1.453.234-.578 0-1.047-.1-1.406-.297-.354-.203-.604-.456-.75-.758a2.25 2.25 0 0 1-.211-.945c0-.49.122-.894.367-1.211.25-.323.583-.586 1-.79.417-.203.969-.413 1.656-.632l.883-.281c.203-.068.354-.12.453-.157.1-.036.203-.083.313-.14 0-.386-.078-.688-.235-.907-.156-.218-.494-.328-1.015-.328a3.68 3.68 0 0 0-1.711.407c-.526.27-1.008.62-1.446 1.046v-2.156a5.11 5.11 0 0 1 1.133-.61c.407-.16.831-.28 1.274-.359a7.72 7.72 0 0 1 1.343-.117c1.152 0 2.016.224 2.594.672.584.443.875 1.055.875 1.836v3.07c0 .292.026.51.078.657.058.14.16.21.305.21.177 0 .417-.075.719-.226v1.477Zm-3.914-1.524v-1.883c-.667.271-1.154.516-1.461.735a1.01 1.01 0 0 0-.461.875c0 .265.075.468.226.61.157.14.336.21.54.21.192 0 .382-.052.57-.156.192-.11.388-.24.586-.39Zm11.617 1.555c-.234.088-.482.172-.742.25a6.92 6.92 0 0 1-.883.18 6.69 6.69 0 0 1-1.063.078c-.87 0-1.606-.146-2.21-.438-.6-.297-1.063-.667-1.391-1.11a4.223 4.223 0 0 1-.672-1.366A4.787 4.787 0 0 1 41.312 31c0-.354.063-.763.188-1.227.13-.463.354-.911.672-1.343.318-.433.776-.795 1.375-1.086.604-.292 1.346-.438 2.226-.438.589 0 1.068.042 1.438.125.37.084.745.196 1.125.336v2.211c-.917-.291-1.633-.437-2.148-.437-.5 0-.946.15-1.336.453-.386.302-.579.77-.579 1.406 0 .422.097.779.29 1.07.192.287.437.498.734.633.297.136.594.203.89.203.282 0 .602-.041.961-.125.36-.083.797-.203 1.313-.36v2.212Zm9.625-.031a12.62 12.62 0 0 1-1.14.39c-.35.1-.769.149-1.258.149-.464 0-.787-.081-.97-.243a1.403 1.403 0 0 1-.39-.601 4.365 4.365 0 0 1-1.008.61c-.37.156-.854.234-1.453.234-.578 0-1.047-.1-1.406-.297-.354-.203-.604-.456-.75-.758a2.25 2.25 0 0 1-.211-.945c0-.49.122-.894.367-1.211.25-.323.584-.586 1-.79.417-.203.969-.413 1.656-.632l.883-.281c.203-.068.354-.12.453-.157.1-.036.203-.083.313-.14 0-.386-.078-.688-.234-.907-.157-.218-.495-.328-1.016-.328a3.68 3.68 0 0 0-1.711.407c-.526.27-1.008.62-1.445 1.046v-2.156c.349-.25.726-.453 1.132-.61.407-.16.831-.28 1.274-.359a7.72 7.72 0 0 1 1.344-.117c1.15 0 2.015.224 2.593.672.584.443.875 1.055.875 1.836v3.07c0 .292.026.51.078.657.058.14.16.21.305.21.177 0 .417-.075.719-.226v1.477Zm-3.914-1.524v-1.883c-.667.271-1.154.516-1.461.735a1.01 1.01 0 0 0-.461.875c0 .265.075.468.227.61.156.14.336.21.539.21.192 0 .382-.052.57-.156a5.2 5.2 0 0 0 .586-.39ZM65.25 34.54c-.292.14-.695.276-1.21.406-.511.13-1 .196-1.47.196-2.026 0-3.039-.99-3.039-2.97V29h-1.273v-.492l3.773-3.844h.32v2.383h2.688V29h-2.687v2.547c0 .297.018.536.054.719a.752.752 0 0 0 .305.46c.172.12.43.18.773.18.448 0 1.037-.187 1.766-.562v2.195Zm3.977-9.328c0 .328-.118.607-.352.836a1.155 1.155 0 0 1-.836.344c-.219 0-.42-.052-.602-.157a1.17 1.17 0 0 1-.421-.422 1.192 1.192 0 0 1-.157-.601c0-.323.115-.602.344-.836.23-.234.508-.352.836-.352.323 0 .602.118.836.352.234.234.352.513.352.836ZM69.453 35h-2.82v-7.953h2.82V35Zm10.727-3.984c0 .791-.172 1.497-.516 2.117-.344.62-.86 1.11-1.547 1.469-.682.359-1.515.539-2.5.539-.984 0-1.82-.18-2.508-.54-.682-.359-1.195-.848-1.539-1.468-.338-.62-.507-1.326-.507-2.117 0-.6.093-1.144.28-1.633.194-.49.483-.922.868-1.297.39-.38.87-.672 1.437-.875.568-.203 1.224-.305 1.97-.305.75 0 1.41.104 1.984.313.578.203 1.054.49 1.43.86.38.369.666.801.859 1.296.192.495.289 1.042.289 1.64Zm-2.961 0c0-.63-.138-1.123-.414-1.477-.271-.36-.667-.539-1.188-.539-.515 0-.911.18-1.187.54-.271.353-.407.845-.407 1.476 0 .625.139 1.12.415 1.484.275.365.669.547 1.18.547.52 0 .916-.18 1.187-.54.276-.364.414-.861.414-1.491ZM90.14 35h-2.813v-4.29c0-.437-.073-.817-.219-1.14-.14-.328-.453-.492-.937-.492-.23 0-.432.044-.61.133a1.811 1.811 0 0 0-.468.328 3.69 3.69 0 0 0-.344.39c-.094.126-.19.259-.29.4V35h-2.812v-7.953h2.813v1.14c.443-.474.885-.804 1.328-.992a3.749 3.749 0 0 1 1.492-.289c1.906 0 2.86 1.14 2.86 3.422V35Zm4.43-9.79c0 .33-.118.608-.352.837a1.157 1.157 0 0 1-.836.344c-.219 0-.42-.052-.602-.157a1.17 1.17 0 0 1-.422-.422 1.19 1.19 0 0 1-.156-.601c0-.323.115-.602.344-.836.229-.234.508-.352.836-.352.323 0 .601.118.836.352.234.234.351.513.351.836Zm.226 9.79h-2.82v-7.953h2.82V35Zm8.164-2.32c0 .729-.268 1.323-.805 1.78-.531.454-1.323.68-2.375.68a7.126 7.126 0 0 1-1.57-.156 13.765 13.765 0 0 1-1.5-.46v-2c.474.27.885.476 1.234.617.35.14.732.21 1.149.21.703 0 1.054-.192 1.054-.578a.462.462 0 0 0-.156-.343c-.099-.105-.276-.22-.531-.344-.25-.13-.586-.284-1.008-.461a4.047 4.047 0 0 1-1.328-.922c-.365-.385-.547-.857-.547-1.414 0-.396.12-.776.36-1.14.244-.365.611-.662 1.101-.891.49-.235 1.08-.352 1.773-.352.167 0 .378.013.633.04a6 6 0 0 1 .977.179c.396.099.771.24 1.125.422v1.945l-.422-.25a3.836 3.836 0 0 0-1.109-.445 2.948 2.948 0 0 0-.774-.102c-.323 0-.544.063-.664.188s-.18.25-.18.375c0 .13.063.252.188.367.125.11.404.247.836.414.625.24 1.125.487 1.5.742.375.25.64.526.797.828.161.302.242.66.242 1.07Zm7.805 1.86c-.292.14-.696.275-1.211.405-.511.13-1 .196-1.469.196-2.026 0-3.039-.99-3.039-2.97V29h-1.274v-.492l3.774-3.844h.32v2.383h2.688V29h-2.688v2.547c0 .297.018.536.055.719a.749.749 0 0 0 .305.46c.171.12.429.18.773.18.448 0 1.036-.187 1.766-.562v2.195Zm9.492.062c-.412.161-.792.291-1.141.39-.349.1-.768.149-1.258.149-.463 0-.786-.081-.968-.243a1.397 1.397 0 0 1-.391-.601 4.36 4.36 0 0 1-1.008.61c-.37.156-.854.234-1.453.234-.578 0-1.047-.1-1.406-.297-.354-.203-.604-.456-.75-.758a2.244 2.244 0 0 1-.211-.945c0-.49.122-.894.367-1.211.25-.323.583-.586 1-.79.417-.203.969-.413 1.656-.632l.883-.281c.203-.068.354-.12.453-.157.099-.036.203-.083.313-.14 0-.386-.078-.688-.235-.907-.156-.218-.494-.328-1.015-.328a3.68 3.68 0 0 0-1.711.407c-.526.27-1.008.62-1.445 1.046v-2.156a5.03 5.03 0 0 1 1.132-.61 6.517 6.517 0 0 1 1.274-.359 7.71 7.71 0 0 1 1.344-.117c1.151 0 2.015.224 2.593.672.584.443.875 1.055.875 1.836v3.07c0 .292.026.51.078.657.058.14.159.21.305.21.177 0 .417-.075.719-.226v1.477Zm-3.914-1.524v-1.883c-.667.271-1.154.516-1.461.735a1.011 1.011 0 0 0-.461.875c0 .265.075.468.226.61.157.14.336.21.54.21.192 0 .382-.052.57-.156.193-.11.388-.24.586-.39Zm17.586-1.226c0 .677-.175 1.263-.524 1.757-.344.495-.825.875-1.445 1.141-.62.26-1.331.39-2.133.39-.224 0-.5-.015-.828-.046-.323-.026-.755-.104-1.297-.235a10.255 10.255 0 0 1-1.68-.578v-2.656c.547.338 1.084.62 1.61.844a4.34 4.34 0 0 0 1.703.336c.557 0 .917-.091 1.078-.274.167-.187.25-.362.25-.523 0-.292-.141-.537-.422-.735-.281-.203-.69-.411-1.226-.625a9.911 9.911 0 0 1-1.563-.812 3.78 3.78 0 0 1-1.101-1.11c-.282-.442-.422-.966-.422-1.57 0-.583.143-1.11.429-1.578.287-.474.724-.851 1.313-1.133.588-.28 1.307-.422 2.156-.422.604 0 1.162.06 1.672.18.516.115.94.245 1.273.39.334.147.563.261.688.345v2.539a8.888 8.888 0 0 0-1.484-.852 4.111 4.111 0 0 0-1.743-.375c-.406 0-.7.078-.882.234a.73.73 0 0 0-.274.578c0 .214.091.399.274.555.182.156.507.346.976.57.833.391 1.5.743 2 1.055.5.313.891.675 1.172 1.086.286.406.43.914.43 1.524Zm9.922-.149h-5.602c.109.485.378.88.805 1.188.427.307.911.46 1.453.46.948 0 1.995-.265 3.14-.796v1.742a8.735 8.735 0 0 1-1.5.586c-.583.172-1.328.258-2.234.258-.979 0-1.812-.183-2.5-.547-.687-.365-1.203-.86-1.547-1.485-.338-.625-.508-1.333-.508-2.125 0-.78.17-1.479.508-2.093.344-.62.86-1.104 1.547-1.453.688-.355 1.521-.532 2.5-.532.646 0 1.268.14 1.867.422.604.276 1.099.732 1.485 1.367.39.63.586 1.446.586 2.446v.562Zm-2.641-1.39c0-.51-.128-.917-.383-1.22-.25-.306-.612-.46-1.086-.46-.469 0-.849.156-1.14.469-.287.307-.43.71-.43 1.21h3.039Zm12.281 4.289a12.41 12.41 0 0 1-1.14.39c-.349.1-.769.149-1.258.149-.464 0-.787-.081-.969-.243a1.406 1.406 0 0 1-.391-.601 4.374 4.374 0 0 1-1.007.61c-.37.156-.855.234-1.454.234-.578 0-1.046-.1-1.406-.297-.354-.203-.604-.456-.75-.758a2.259 2.259 0 0 1-.211-.945c0-.49.123-.894.367-1.211.25-.323.584-.586 1-.79.417-.203.969-.413 1.657-.632l.882-.281c.204-.068.355-.12.454-.157a2.61 2.61 0 0 0 .312-.14c0-.386-.078-.688-.234-.907-.156-.218-.495-.328-1.016-.328-.614 0-1.185.136-1.711.407-.526.27-1.008.62-1.445 1.046v-2.156c.349-.25.726-.453 1.133-.61.406-.16.83-.28 1.273-.359a7.726 7.726 0 0 1 1.344-.117c1.151 0 2.016.224 2.594.672.583.443.875 1.055.875 1.836v3.07c0 .292.026.51.078.657.057.14.159.21.304.21.178 0 .417-.075.719-.226v1.477Zm-3.914-1.524v-1.883c-.667.271-1.154.516-1.461.735a1.011 1.011 0 0 0-.461.875c0 .265.076.468.227.61.156.14.336.21.539.21.193 0 .383-.052.57-.156.193-.11.388-.24.586-.39Zm12.031-5.601-1.039 2.82c-.427-.406-.859-.61-1.297-.61-.395 0-.739.136-1.031.407-.286.265-.562.76-.828 1.484V35h-2.812v-7.953h2.812v1.922c.177-.474.49-.935.938-1.383.447-.453.974-.68 1.578-.68.317 0 .593.047.828.14.239.095.523.238.851.43Zm7.024 7.156c-.235.088-.482.172-.742.25a6.958 6.958 0 0 1-.883.18 6.693 6.693 0 0 1-1.063.078c-.869 0-1.606-.146-2.211-.438-.599-.297-1.062-.667-1.39-1.11a4.221 4.221 0 0 1-.672-1.366 4.79 4.79 0 0 1-.188-1.227c0-.354.063-.763.188-1.227.13-.463.354-.911.672-1.343.317-.433.776-.795 1.375-1.086.604-.292 1.346-.438 2.226-.438.589 0 1.068.042 1.438.125.37.084.745.196 1.125.336v2.211c-.917-.291-1.633-.437-2.149-.437-.5 0-.945.15-1.336.453-.385.302-.578.77-.578 1.406 0 .422.097.779.289 1.07.193.287.438.498.735.633.297.136.593.203.89.203.282 0 .602-.041.961-.125.36-.083.797-.203 1.313-.36v2.212ZM178.5 35h-2.812v-4.211a1.5 1.5 0 0 0 .007-.187c0-.38-.08-.73-.242-1.047-.161-.318-.469-.477-.922-.477-.354 0-.666.12-.937.36a4.578 4.578 0 0 0-.774.89V35h-2.812V24.172h2.812v4.015c.464-.494.922-.83 1.375-1.007a3.837 3.837 0 0 1 1.446-.274c1.906 0 2.859 1.07 2.859 3.211V35Z" fill="#2E8B57"/><path d="M25.991 93H20.85v-6.768h2.04v5.147h3.101V93Zm2.608-6.118c0 .205-.074.38-.22.522a.722.722 0 0 1-.523.215.731.731 0 0 1-.737-.737c0-.202.072-.376.215-.523a.703.703 0 0 1 .522-.22c.202 0 .376.074.523.22.146.147.22.321.22.523ZM28.74 93h-1.762v-4.97h1.762V93Zm5.103-1.45c0 .456-.168.827-.503 1.113-.332.283-.827.425-1.485.425-.367 0-.695-.033-.981-.098a8.508 8.508 0 0 1-.938-.288v-1.25a6.5 6.5 0 0 0 .772.386 1.9 1.9 0 0 0 .718.132c.44 0 .659-.12.659-.362a.288.288 0 0 0-.098-.214 1.21 1.21 0 0 0-.332-.215 8.75 8.75 0 0 0-.63-.288 2.53 2.53 0 0 1-.83-.577 1.238 1.238 0 0 1-.341-.883c0-.248.074-.485.224-.713.153-.228.383-.414.689-.557.306-.146.675-.22 1.108-.22.104 0 .236.008.395.025.163.013.367.05.61.112.248.062.483.15.704.264v1.216l-.264-.157a2.483 2.483 0 0 0-.693-.278 1.842 1.842 0 0 0-.483-.063c-.202 0-.34.039-.415.117-.075.078-.113.156-.113.234 0 .082.04.158.117.23.078.068.253.154.523.258.39.15.703.305.937.464.235.156.4.33.498.518a1.4 1.4 0 0 1 .152.669Zm4.878 1.162a4.14 4.14 0 0 1-.757.254 3.711 3.711 0 0 1-.918.122c-1.266 0-1.9-.619-1.9-1.856V89.25h-.795v-.308l2.358-2.402h.2v1.49h1.68v1.22h-1.68v1.592c0 .185.012.335.034.449a.47.47 0 0 0 .19.288c.108.075.27.112.484.112.28 0 .648-.117 1.104-.351v1.372Zm2.485-5.83c0 .205-.073.38-.22.522a.722.722 0 0 1-.522.215.731.731 0 0 1-.737-.737c0-.202.071-.376.214-.523a.703.703 0 0 1 .523-.22c.202 0 .376.074.522.22.147.147.22.321.22.523ZM41.348 93h-1.763v-4.97h1.763V93Zm6.523 0h-1.758v-2.68a1.72 1.72 0 0 0-.136-.714c-.088-.205-.284-.307-.586-.307a.84.84 0 0 0-.381.083c-.108.052-.205.12-.293.205a2.29 2.29 0 0 0-.215.244 9.96 9.96 0 0 0-.18.25V93h-1.759v-4.97h1.758v.712c.277-.296.554-.503.83-.62.28-.12.591-.18.933-.18 1.191 0 1.787.712 1.787 2.138V93Zm6.06-3.911h-.87c.306.267.46.594.46.981a1.444 1.444 0 0 1-.513 1.094 2.01 2.01 0 0 1-.62.361 2.912 2.912 0 0 1-.84.166c-.407.017-.61.126-.61.328 0 .078.026.135.078.17a.641.641 0 0 0 .244.084c.114.016.304.035.571.058.303.026.584.072.845.137.26.065.503.202.727.41.225.208.337.506.337.894 0 .309-.084.582-.254.82-.166.237-.436.423-.81.556-.375.134-.87.2-1.485.2-.885 0-1.536-.118-1.953-.356-.413-.237-.62-.555-.62-.952 0-.107.026-.231.078-.371.056-.14.17-.275.342-.405.176-.13.43-.218.762-.264a.634.634 0 0 1-.303-.244.673.673 0 0 1-.127-.386.9.9 0 0 1 .176-.513c.12-.169.314-.278.581-.327a2.089 2.089 0 0 1-.962-.552c-.27-.27-.405-.62-.405-1.05 0-.325.062-.61.185-.854.127-.244.301-.442.523-.596.221-.152.478-.265.771-.336.293-.075.614-.113.962-.113h2.73v1.06Zm-1.944.84a.753.753 0 0 0-.259-.6.83.83 0 0 0-.57-.23c-.271 0-.484.09-.64.273a.885.885 0 0 0-.23.576c0 .14.033.27.098.39a.805.805 0 0 0 .283.294c.124.072.27.107.44.107.253 0 .463-.08.63-.239a.765.765 0 0 0 .248-.571Zm.352 3.999c0-.218-.117-.36-.352-.425a2.767 2.767 0 0 0-.718-.093c-.406 0-.701.043-.883.127-.18.088-.269.226-.269.415 0 .371.375.557 1.123.557.335 0 .602-.049.801-.147.199-.094.298-.239.298-.434Zm12.441-4.19c0 .694-.127 1.25-.38 1.67-.251.42-.548.76-.89 1.02-.484.382-1.163.572-2.035.572h-3.653v-6.768h2.813c.423 0 .784.023 1.084.069.303.042.574.104.815.185a3.035 3.035 0 0 1 1.07.586 3.182 3.182 0 0 1 1.02 1.563c.104.338.156.706.156 1.103Zm-2.075-.088c0-.55-.106-.978-.317-1.284-.209-.309-.46-.516-.757-.62a2.663 2.663 0 0 0-.899-.156h-.869v4.009h.87c.533 0 .995-.127 1.386-.381.39-.254.586-.777.586-1.568Zm8.15 1.29h-3.502c.069.302.237.55.503.742.267.192.57.288.909.288.592 0 1.246-.166 1.963-.498v1.089a5.47 5.47 0 0 1-.938.366c-.365.107-.83.16-1.396.16-.612 0-1.133-.113-1.563-.34a2.297 2.297 0 0 1-.967-.929 2.744 2.744 0 0 1-.317-1.328c0-.488.106-.924.317-1.308.215-.388.537-.69.967-.909.43-.22.95-.332 1.563-.332.403 0 .792.088 1.166.264.378.173.687.457.928.855.244.394.367.903.367 1.528v.352Zm-1.65-.87c0-.319-.08-.573-.24-.761-.156-.192-.383-.288-.679-.288a.93.93 0 0 0-.713.293c-.179.192-.268.444-.268.756h1.9Zm6.44 2.642a4.137 4.137 0 0 1-.757.254 3.711 3.711 0 0 1-.918.122c-1.266 0-1.9-.619-1.9-1.856V89.25h-.796v-.308l2.359-2.402h.2v1.49h1.68v1.22h-1.68v1.592c0 .185.011.335.034.449a.47.47 0 0 0 .19.288c.108.075.27.112.484.112.28 0 .648-.117 1.103-.351v1.372Zm5.932.039a8.1 8.1 0 0 1-.713.244 2.9 2.9 0 0 1-.786.093c-.29 0-.491-.05-.605-.151a.876.876 0 0 1-.245-.376c-.188.152-.398.28-.63.38-.23.098-.533.147-.908.147-.36 0-.654-.062-.879-.186a1.11 1.11 0 0 1-.468-.473 1.406 1.406 0 0 1-.132-.591c0-.306.076-.558.23-.757.156-.202.364-.366.624-.493s.606-.259 1.036-.396l.551-.175c.127-.043.222-.075.284-.098a1.78 1.78 0 0 0 .195-.088c0-.24-.049-.43-.147-.566-.097-.137-.309-.205-.634-.205-.384 0-.741.084-1.07.254-.329.169-.63.387-.903.654V88.62c.218-.156.454-.283.708-.38.254-.102.52-.176.796-.225a4.71 4.71 0 0 1 .84-.074c.72 0 1.26.14 1.62.42.365.277.548.66.548 1.148v1.919c0 .182.016.319.049.41.035.088.099.132.19.132.11 0 .26-.047.45-.142v.923Zm-2.446-.952v-1.177c-.417.17-.721.322-.913.46a.631.631 0 0 0-.288.546c0 .166.047.293.141.38.098.089.21.133.337.133.12 0 .24-.033.357-.098.12-.068.242-.15.366-.244Zm4.858-4.917c0 .205-.073.38-.22.522a.722.722 0 0 1-.522.215.731.731 0 0 1-.737-.737.72.72 0 0 1 .215-.523.703.703 0 0 1 .522-.22c.202 0 .376.074.522.22.147.147.22.321.22.523ZM84.131 93h-1.763v-4.97h1.763V93Zm3.066 0h-1.762v-6.768h1.762V93Zm5.103-1.45c0 .456-.168.827-.503 1.113-.332.283-.827.425-1.484.425a4.45 4.45 0 0 1-.982-.098 8.495 8.495 0 0 1-.937-.288v-1.25a6.5 6.5 0 0 0 .771.386 1.9 1.9 0 0 0 .718.132c.44 0 .659-.12.659-.362a.288.288 0 0 0-.098-.214 1.21 1.21 0 0 0-.332-.215 8.73 8.73 0 0 0-.63-.288 2.53 2.53 0 0 1-.83-.577 1.238 1.238 0 0 1-.341-.883c0-.248.074-.485.224-.713.153-.228.383-.414.689-.557.306-.146.675-.22 1.108-.22.104 0 .236.008.396.025.162.013.366.05.61.112.247.062.482.15.703.264v1.216l-.264-.157a2.483 2.483 0 0 0-.693-.278 1.842 1.842 0 0 0-.483-.063c-.202 0-.34.039-.415.117-.075.078-.113.156-.113.234 0 .082.04.158.117.23.079.068.253.154.523.258.39.15.703.305.937.464.235.156.4.33.498.518a1.4 1.4 0 0 1 .152.669Zm-67.292 18.723c0-.273.096-.506.289-.699a.956.956 0 0 1 .7-.293.96.96 0 0 1 .702.289c.193.193.29.427.29.703a.961.961 0 0 1-.294.704.955.955 0 0 1-.699.289.956.956 0 0 1-.7-.293.964.964 0 0 1-.288-.7ZM34.449 113h-1.847v-5.457h1.43c.45 0 .801.061 1.054.184.253.119.445.286.578.5.133.211.2.455.2.734 0 .536-.278.921-.833 1.152.399.076.715.24.95.492.236.253.355.555.355.907 0 .278-.072.527-.215.746a1.558 1.558 0 0 1-.633.535c-.276.138-.622.207-1.039.207Zm-.394-4.762h-.672v1.641h.52c.416 0 .712-.08.886-.238a.792.792 0 0 0 .266-.618c0-.523-.334-.785-1-.785Zm.058 2.336h-.73v1.731h.77c.426 0 .715-.033.867-.098a.83.83 0 0 0 .367-.312.804.804 0 0 0 .14-.454.768.768 0 0 0-.148-.457.85.85 0 0 0-.414-.308c-.18-.068-.464-.102-.852-.102Zm5.961.692h-2.527c.018.343.133.617.344.82.213.203.488.305.824.305.469 0 .9-.146 1.297-.438v.695c-.219.146-.437.25-.653.313a2.717 2.717 0 0 1-.754.094c-.395 0-.716-.082-.96-.246a1.813 1.813 0 0 1-.59-.661 2.048 2.048 0 0 1-.22-.964c0-.547.156-.991.466-1.332.31-.344.712-.516 1.207-.516.476 0 .857.167 1.14.5.284.333.426.78.426 1.34v.09Zm-2.511-.426h1.808c-.018-.284-.103-.503-.254-.656-.15-.154-.354-.231-.61-.231a.882.882 0 0 0-.628.231c-.162.153-.267.372-.316.656Zm5.683-3.297h.715V113h-1.52c-.53 0-.955-.168-1.273-.504-.315-.336-.473-.786-.473-1.351 0-.529.166-.964.496-1.305.334-.341.758-.512 1.274-.512.24 0 .5.051.781.152v-1.937Zm0 4.848v-2.278a1.474 1.474 0 0 0-.672-.168c-.354 0-.636.116-.847.348-.209.232-.313.544-.313.937 0 .37.091.655.273.856.11.12.226.2.348.242.123.042.343.063.66.063h.551Zm1.504.351v-.765c.2.14.405.255.613.343.211.086.388.129.532.129a.661.661 0 0 0 .382-.109c.107-.073.16-.16.16-.262a.344.344 0 0 0-.105-.258c-.068-.07-.216-.17-.445-.3-.459-.256-.76-.473-.903-.653a.951.951 0 0 1-.21-.594.83.83 0 0 1 .32-.675c.216-.175.493-.262.832-.262.351 0 .712.099 1.082.297v.703c-.422-.255-.767-.383-1.035-.383-.138 0-.25.03-.336.09a.266.266 0 0 0-.125.23c0 .084.038.163.113.239.078.075.214.166.406.273l.254.145c.6.338.899.713.899 1.125a.898.898 0 0 1-.348.726c-.23.188-.525.281-.887.281a2.24 2.24 0 0 1-.57-.066 3.954 3.954 0 0 1-.629-.254Zm3.59-.629c.133 0 .246.047.34.141.093.094.14.207.14.34 0 .13-.047.241-.14.332a.47.47 0 0 1-.34.136.46.46 0 0 1-.332-.136.446.446 0 0 1-.14-.332.47.47 0 0 1 .136-.34.45.45 0 0 1 .336-.141Zm.062-2.777c.133 0 .246.047.34.141a.46.46 0 0 1 .14.339.47.47 0 0 1-.48.473.461.461 0 0 1-.332-.137.463.463 0 0 1-.136-.336c0-.132.045-.246.136-.339a.445.445 0 0 1 .332-.141Zm5.54-1.809.078-.054.472.597a4.86 4.86 0 0 0-1.039.879 3.411 3.411 0 0 0-.633 1.121c.29-.148.577-.222.864-.222.43 0 .791.152 1.086.457.294.304.44.678.44 1.121 0 .456-.16.842-.48 1.16-.32.318-.71.476-1.167.476-.514 0-.929-.179-1.247-.539-.315-.362-.472-.834-.472-1.418 0-.437.08-.872.242-1.304a4.42 4.42 0 0 1 .703-1.219 5.59 5.59 0 0 1 1.152-1.055Zm-1.29 3.352c-.02.122-.03.259-.03.41 0 .307.088.56.265.758.18.198.409.297.687.297.25 0 .456-.085.617-.254a.883.883 0 0 0 .246-.641.828.828 0 0 0-.261-.637c-.172-.164-.4-.246-.684-.246-.146 0-.278.023-.398.067a2.254 2.254 0 0 0-.442.246Zm-27.644 11.394c0-.273.096-.506.289-.699a.956.956 0 0 1 .7-.293.96.96 0 0 1 .702.289c.193.193.29.427.29.703a.961.961 0 0 1-.294.704.955.955 0 0 1-.699.289.956.956 0 0 1-.7-.293.964.964 0 0 1-.288-.7ZM32.625 125v-5.457h1.367c.552 0 .99.137 1.313.41.325.274.488.643.488 1.109 0 .318-.08.593-.238.825a1.422 1.422 0 0 1-.684.519c.175.115.345.271.512.469.166.198.4.543.703 1.035.19.31.342.543.457.699l.289.391h-.93l-.238-.359a.895.895 0 0 0-.047-.067l-.152-.215-.242-.398-.262-.426a4.195 4.195 0 0 0-.445-.535 1.558 1.558 0 0 0-.364-.285c-.106-.06-.287-.09-.543-.09h-.203V125h-.781Zm1.016-4.793h-.235v1.723h.297c.396 0 .667-.034.813-.102a.753.753 0 0 0 .343-.305.888.888 0 0 0 .125-.468.825.825 0 0 0-.136-.465.725.725 0 0 0-.387-.297c-.164-.057-.438-.086-.82-.086Zm6.761 3.059h-2.527c.018.343.133.617.344.82.213.203.488.305.824.305.469 0 .901-.146 1.297-.438v.695c-.219.146-.436.25-.653.313a2.716 2.716 0 0 1-.753.094c-.396 0-.717-.082-.961-.246a1.813 1.813 0 0 1-.59-.661 2.048 2.048 0 0 1-.219-.964c0-.547.155-.991.465-1.332.31-.344.712-.516 1.207-.516.477 0 .857.167 1.14.5.284.333.426.78.426 1.34v.09Zm-2.511-.426h1.808c-.018-.284-.103-.503-.254-.656-.15-.154-.354-.231-.61-.231a.882.882 0 0 0-.628.231c-.161.153-.267.372-.316.656Zm5.484-1.434h.77l-1.586 3.656h-.239l-1.625-3.656h.778l.968 2.211.934-2.211Zm1.676-1.511c.117 0 .217.04.3.121.084.08.126.179.126.296a.405.405 0 0 1-.125.297.408.408 0 0 1-.59 0 .415.415 0 0 1-.125-.297c0-.109.041-.205.125-.289a.394.394 0 0 1 .289-.128Zm-.352 1.511h.711V125h-.71v-3.594Zm4.805 1.86h-2.527c.018.343.132.617.343.82.214.203.489.305.825.305.468 0 .9-.146 1.296-.438v.695c-.218.146-.436.25-.652.313a2.717 2.717 0 0 1-.754.094c-.396 0-.716-.082-.96-.246a1.813 1.813 0 0 1-.59-.661 2.046 2.046 0 0 1-.22-.964c0-.547.156-.991.465-1.332.31-.344.713-.516 1.208-.516.476 0 .856.167 1.14.5.284.333.426.78.426 1.34v.09Zm-2.512-.426h1.809c-.018-.284-.103-.503-.254-.656-.151-.154-.354-.231-.61-.231a.882.882 0 0 0-.628.231c-.162.153-.267.372-.317.656Zm7.774-1.434h.761l-1.586 3.656h-.222l-1.067-2.503-1.047 2.503h-.23l-1.602-3.656h.762l.942 2.18.914-2.18h.527l.91 2.18.938-2.18Zm4.945 1.305-.594-.359c-.372-.227-.638-.45-.797-.668a1.292 1.292 0 0 1-.234-.762c0-.43.148-.779.445-1.047.3-.268.688-.402 1.164-.402.456 0 .874.127 1.254.382v.887c-.393-.377-.816-.566-1.27-.566-.255 0-.464.06-.628.179a.537.537 0 0 0-.246.454c0 .164.06.317.18.461.12.143.313.292.581.449l.598.351c.667.396 1 .901 1 1.516 0 .437-.147.793-.441 1.066-.292.274-.672.41-1.141.41-.539 0-1.03-.165-1.473-.496v-.992c.422.534.91.801 1.465.801a.918.918 0 0 0 .61-.203.647.647 0 0 0 .246-.516c0-.333-.24-.648-.72-.945Zm4.91 1.449v.703a2.985 2.985 0 0 1-1.047.199c-.562 0-1.011-.166-1.347-.5-.334-.333-.5-.779-.5-1.339 0-.565.162-1.021.488-1.368.325-.346.754-.519 1.285-.519.185 0 .35.018.496.055.148.033.33.099.547.195v.758c-.36-.229-.693-.344-1-.344-.32 0-.583.113-.79.34-.205.224-.308.51-.308.859 0 .367.111.659.332.875.224.216.525.324.903.324.273 0 .587-.079.941-.238Zm2.531-2.762c.547 0 1.002.178 1.364.532.362.351.543.794.543 1.328 0 .518-.184.949-.551 1.293-.367.341-.83.511-1.387.511-.539 0-.99-.173-1.352-.519a1.739 1.739 0 0 1-.542-1.305c0-.526.182-.963.546-1.312.368-.352.827-.528 1.38-.528Zm-.039.641c-.34 0-.62.112-.84.336-.218.224-.328.509-.328.855 0 .344.112.625.336.844.224.216.512.324.863.324.35 0 .635-.109.856-.328.224-.221.336-.504.336-.847a1.13 1.13 0 0 0-.348-.848 1.209 1.209 0 0 0-.875-.336Zm3.496-.633v.824l.04-.062c.343-.555.687-.832 1.03-.832.269 0 .549.135.84.406l-.375.625c-.247-.234-.476-.351-.687-.351-.23 0-.428.109-.598.328-.166.218-.25.478-.25.777V125h-.715v-3.594h.715Zm5.473 1.86h-2.527c.018.343.132.617.343.82.214.203.489.305.825.305.468 0 .9-.146 1.296-.438v.695c-.218.146-.436.25-.652.313a2.717 2.717 0 0 1-.754.094c-.396 0-.716-.082-.96-.246a1.814 1.814 0 0 1-.59-.661 2.048 2.048 0 0 1-.22-.964c0-.547.156-.991.466-1.332.31-.344.712-.516 1.207-.516.476 0 .856.167 1.14.5.284.333.426.78.426 1.34v.09Zm-2.512-.426h1.809c-.018-.284-.103-.503-.254-.656-.151-.154-.354-.231-.61-.231a.882.882 0 0 0-.628.231c-.162.153-.267.372-.317.656Zm3.621 1.273c.133 0 .246.047.34.141.094.094.14.207.14.34 0 .13-.046.241-.14.332a.47.47 0 0 1-.34.136.46.46 0 0 1-.332-.136.446.446 0 0 1-.14-.332.47.47 0 0 1 .137-.34.45.45 0 0 1 .335-.141Zm.063-2.777c.133 0 .246.047.34.141a.46.46 0 0 1 .14.339.47.47 0 0 1-.48.473.461.461 0 0 1-.332-.137.462.462 0 0 1-.137-.336c0-.132.046-.246.137-.339a.445.445 0 0 1 .332-.141Zm5.922-1.863h.32v3.062h.61v.664h-.61V125h-.762v-1.801h-2.308v-.336l2.75-3.39Zm-.442 3.062v-1.582l-1.261 1.582h1.261Zm2.473 1.594c.133 0 .246.045.34.137a.45.45 0 0 1 .14.336c0 .13-.046.239-.14.328a.47.47 0 0 1-.34.132.465.465 0 0 1-.336-.132.44.44 0 0 1-.137-.328c0-.133.046-.245.137-.336a.453.453 0 0 1 .336-.137Zm1.277-4.586h3.532l-2.473 5.519-.695-.292 2-4.481h-2.364v-.746Zm3.993 1.465c0-.427.16-.789.48-1.086.32-.3.712-.449 1.176-.449.456 0 .84.148 1.152.445.315.294.473.658.473 1.09 0 .487-.227.889-.68 1.207.505.292.758.721.758 1.289 0 .45-.164.823-.492 1.117-.328.294-.742.441-1.242.441-.495 0-.91-.149-1.246-.449a1.442 1.442 0 0 1-.504-1.117c0-.555.257-.982.773-1.281a1.978 1.978 0 0 1-.5-.559 1.364 1.364 0 0 1-.148-.648Zm2.504.023a.769.769 0 0 0-.247-.586.862.862 0 0 0-.617-.23.873.873 0 0 0-.62.226.761.761 0 0 0-.243.582c0 .227.084.421.254.582a.868.868 0 0 0 .617.243c.237 0 .439-.08.606-.239a.776.776 0 0 0 .25-.578Zm.066 2.504v-.078c0-.25-.09-.453-.27-.609-.177-.159-.407-.239-.691-.239-.279 0-.507.08-.684.239a.796.796 0 0 0-.261.617c0 .252.09.458.27.617.179.159.412.238.698.238.274 0 .498-.073.672-.218a.7.7 0 0 0 .266-.567Zm-68.04 10.738c0-.273.097-.506.29-.699a.956.956 0 0 1 .7-.293.96.96 0 0 1 .702.289c.193.193.29.427.29.703a.961.961 0 0 1-.294.704.955.955 0 0 1-.699.289.956.956 0 0 1-.7-.293.964.964 0 0 1-.288-.7Zm12.298 1.461v.86c-.573.312-1.235.468-1.985.468-.61 0-1.126-.122-1.55-.367a2.702 2.702 0 0 1-1.008-1.011 2.75 2.75 0 0 1-.371-1.395c0-.794.282-1.462.847-2.004.568-.542 1.267-.812 2.098-.812.573 0 1.21.149 1.91.449v.84c-.638-.365-1.262-.547-1.871-.547-.625 0-1.145.198-1.559.594-.411.393-.617.886-.617 1.48 0 .599.203 1.091.61 1.477.406.385.925.578 1.558.578.662 0 1.308-.203 1.938-.61Zm2.582-2.336c.547 0 1.001.178 1.363.532.362.351.543.794.543 1.328 0 .518-.184.949-.55 1.293-.368.341-.83.511-1.388.511-.539 0-.99-.173-1.351-.519a1.739 1.739 0 0 1-.543-1.305c0-.526.182-.963.547-1.312.367-.352.827-.528 1.379-.528Zm-.04.641c-.34 0-.62.112-.84.336-.218.224-.327.509-.327.855 0 .344.112.625.336.844.224.216.511.324.863.324.349 0 .634-.109.855-.328.224-.221.336-.504.336-.847a1.13 1.13 0 0 0-.347-.848 1.209 1.209 0 0 0-.875-.336Zm2.56 2.703v-.765c.2.14.404.255.613.343.21.086.388.129.53.129a.662.662 0 0 0 .384-.109c.106-.073.16-.16.16-.262a.344.344 0 0 0-.106-.258c-.067-.07-.216-.17-.445-.3-.458-.256-.76-.473-.902-.653a.951.951 0 0 1-.211-.594.83.83 0 0 1 .32-.675c.216-.175.493-.262.832-.262.352 0 .712.099 1.082.297v.703c-.422-.255-.767-.383-1.035-.383-.138 0-.25.03-.336.09a.266.266 0 0 0-.125.23c0 .084.038.163.113.239.078.075.214.166.407.273l.253.145c.6.338.899.713.899 1.125a.898.898 0 0 1-.348.726c-.229.188-.525.281-.886.281a2.24 2.24 0 0 1-.57-.066 3.958 3.958 0 0 1-.63-.254Zm2.75-2.765 1.335-1.313v.742h1.137v.641h-1.137v1.762c0 .411.17.617.512.617.255 0 .525-.086.809-.258v.664c-.274.154-.572.23-.895.23-.326 0-.596-.095-.813-.285a.83.83 0 0 1-.167-.191 1.115 1.115 0 0 1-.114-.281c-.028-.117-.043-.339-.043-.664v-1.594h-.625v-.07Zm3.503 2.136c.133 0 .246.047.34.141.094.094.14.207.14.34 0 .13-.046.241-.14.332a.47.47 0 0 1-.34.136.46.46 0 0 1-.332-.136.446.446 0 0 1-.14-.332.47.47 0 0 1 .136-.34.45.45 0 0 1 .336-.141Zm.063-2.777c.133 0 .246.047.34.141.093.093.14.207.14.339a.456.456 0 0 1-.14.336.47.47 0 0 1-.34.137.462.462 0 0 1-.332-.137.463.463 0 0 1-.137-.336c0-.132.046-.246.137-.339a.445.445 0 0 1 .332-.141Zm4.699-1.793h.781V137h-.781v-5.457Zm5.223-.07h.32v3.062h.61v.664h-.61V137h-.762v-1.801h-2.309v-.336l2.75-3.39Zm-.442 3.062v-1.582l-1.262 1.582h1.262Zm3.633-3.062c.5 0 .913.263 1.238.789.328.523.492 1.189.492 1.996 0 .828-.164 1.501-.492 2.019-.325.519-.748.778-1.27.778-.528 0-.952-.254-1.273-.762-.32-.508-.48-1.181-.48-2.02 0-.828.165-1.501.496-2.019.33-.521.76-.781 1.289-.781Zm.008.742h-.04c-.299 0-.537.185-.714.555-.175.367-.262.865-.262 1.496 0 .645.086 1.152.258 1.519.172.367.409.551.71.551.303 0 .541-.184.716-.551.174-.367.261-.866.261-1.496 0-.633-.084-1.137-.254-1.512-.166-.375-.391-.562-.675-.562Zm-36.836 14.058c0-.273.096-.506.289-.699a.956.956 0 0 1 .7-.293.96.96 0 0 1 .702.289c.193.193.29.427.29.703a.961.961 0 0 1-.294.704.955.955 0 0 1-.699.289.956.956 0 0 1-.7-.293.964.964 0 0 1-.288-.7Zm7.55 2.727v-5.465h1.731c.52 0 .936.141 1.246.422.31.281.465.659.465 1.133 0 .318-.08.599-.238.844a1.378 1.378 0 0 1-.653.535c-.276.109-.672.164-1.187.164h-.578V149h-.785Zm1.594-4.77h-.808v1.708h.855c.318 0 .563-.075.735-.223.172-.151.257-.366.257-.645 0-.56-.346-.84-1.039-.84Zm4.149 1.168c.547 0 1.001.178 1.363.532.362.351.543.794.543 1.328 0 .518-.184.949-.55 1.293-.368.341-.83.511-1.387.511-.54 0-.99-.173-1.352-.519a1.739 1.739 0 0 1-.543-1.305c0-.526.182-.963.547-1.312.367-.352.827-.528 1.379-.528Zm-.04.641c-.34 0-.62.112-.84.336-.218.224-.327.509-.327.855 0 .344.112.625.336.844.224.216.511.324.863.324.349 0 .634-.109.855-.328.224-.221.336-.504.336-.847a1.13 1.13 0 0 0-.347-.848 1.208 1.208 0 0 0-.875-.336Zm4.454-.641c.547 0 1.001.178 1.363.532.362.351.543.794.543 1.328 0 .518-.184.949-.55 1.293-.368.341-.83.511-1.387.511-.54 0-.99-.173-1.352-.519a1.739 1.739 0 0 1-.543-1.305c0-.526.182-.963.547-1.312.367-.352.827-.528 1.379-.528Zm-.04.641c-.34 0-.62.112-.84.336-.218.224-.327.509-.327.855 0 .344.112.625.336.844.224.216.511.324.863.324.349 0 .634-.109.855-.328.224-.221.336-.504.336-.847a1.13 1.13 0 0 0-.347-.848 1.209 1.209 0 0 0-.875-.336Zm2.75-2.496h.712V149h-.711v-5.457Zm2.079 4.57c.133 0 .246.047.34.141.093.094.14.207.14.34 0 .13-.047.241-.14.332a.47.47 0 0 1-.34.136.46.46 0 0 1-.332-.136.446.446 0 0 1-.14-.332.47.47 0 0 1 .136-.34.45.45 0 0 1 .336-.141Zm.062-2.777c.133 0 .246.047.34.141a.46.46 0 0 1 .14.339.456.456 0 0 1-.14.336.47.47 0 0 1-.34.137.461.461 0 0 1-.332-.137.462.462 0 0 1-.136-.336c0-.132.045-.246.136-.339a.445.445 0 0 1 .332-.141Zm6.97-1.793h.944l-2.015 2.57V149h-.8v-2.887l-2.017-2.57h.946l1.46 1.883 1.481-1.883Zm4.515 3.723h-2.528c.019.343.133.617.344.82.214.203.489.305.824.305.47 0 .901-.146 1.297-.438v.695c-.218.146-.436.25-.652.313a2.716 2.716 0 0 1-.754.094c-.396 0-.716-.082-.96-.246a1.814 1.814 0 0 1-.59-.661 2.048 2.048 0 0 1-.22-.964c0-.547.155-.991.465-1.332.31-.344.713-.516 1.207-.516.477 0 .857.167 1.141.5.284.333.426.78.426 1.34v.09Zm-2.512-.426h1.809c-.019-.284-.103-.503-.254-.656-.151-.154-.354-.231-.61-.231a.882.882 0 0 0-.629.231c-.161.153-.266.372-.316.656Zm3.11 1.902v-.765c.2.14.404.255.613.343.21.086.388.129.531.129a.662.662 0 0 0 .383-.109c.107-.073.16-.16.16-.262a.344.344 0 0 0-.105-.258c-.068-.07-.217-.17-.446-.3-.458-.256-.759-.473-.902-.653a.951.951 0 0 1-.211-.594.83.83 0 0 1 .32-.675c.216-.175.494-.262.832-.262.352 0 .712.099 1.082.297v.703c-.422-.255-.767-.383-1.035-.383-.138 0-.25.03-.336.09a.266.266 0 0 0-.125.23c0 .084.038.163.113.239.079.075.214.166.407.273l.254.145c.599.338.898.713.898 1.125a.898.898 0 0 1-.348.726c-.229.188-.524.281-.886.281-.214 0-.404-.022-.57-.066a3.958 3.958 0 0 1-.63-.254Zm-34.641 9.531c0-.273.096-.506.289-.699a.956.956 0 0 1 .7-.293.96.96 0 0 1 .702.289c.193.193.29.427.29.703a.961.961 0 0 1-.294.704.955.955 0 0 1-.699.289.956.956 0 0 1-.7-.293.964.964 0 0 1-.288-.7Zm7.594-2.73h.78v4.746h2.458V161h-3.238v-5.457Zm5.543 1.855c.546 0 1 .178 1.363.532.362.351.543.794.543 1.328 0 .518-.184.949-.551 1.293-.367.341-.83.511-1.387.511-.539 0-.99-.173-1.351-.519a1.738 1.738 0 0 1-.543-1.305c0-.526.182-.963.547-1.312.367-.352.826-.528 1.379-.528Zm-.04.641c-.34 0-.62.112-.84.336-.218.224-.328.509-.328.855 0 .344.113.625.336.844.224.216.512.324.864.324.349 0 .634-.109.855-.328.224-.221.336-.504.336-.847a1.13 1.13 0 0 0-.348-.848 1.209 1.209 0 0 0-.874-.336Zm5.43 2.121v.703a2.985 2.985 0 0 1-1.047.199c-.562 0-1.011-.166-1.347-.5-.334-.333-.5-.779-.5-1.339 0-.565.162-1.021.488-1.368.325-.346.754-.519 1.285-.519.185 0 .35.018.496.055.149.033.33.099.547.195v.758c-.36-.229-.693-.344-1-.344-.32 0-.583.113-.789.34-.206.224-.309.51-.309.859 0 .367.111.659.332.875.224.216.525.324.903.324.273 0 .587-.079.941-.238Zm3.07-1.32v1.527c0 .123.042.184.126.184.085 0 .22-.064.402-.192v.434a2.204 2.204 0 0 1-.39.211.804.804 0 0 1-.306.058c-.304 0-.484-.119-.539-.359a1.544 1.544 0 0 1-.964.352.848.848 0 0 1-.875-.871c0-.227.08-.429.242-.606.164-.18.396-.321.695-.426l.91-.312v-.192c0-.432-.216-.648-.648-.648-.388 0-.766.201-1.133.602v-.778c.276-.325.673-.488 1.191-.488.388 0 .7.102.934.305a.948.948 0 0 1 .21.261.89.89 0 0 1 .118.325c.018.106.027.311.027.613Zm-.699 1.449v-1.066l-.476.183c-.242.097-.414.194-.516.293a.487.487 0 0 0-.148.363c0 .149.047.27.14.364a.51.51 0 0 0 .371.14c.227 0 .437-.092.63-.277Zm1.352-2.312 1.336-1.313v.742h1.136v.641h-1.136v1.762c0 .411.17.617.511.617.256 0 .525-.086.81-.258v.664c-.274.154-.573.23-.895.23-.326 0-.597-.095-.813-.285a.826.826 0 0 1-.168-.191 1.111 1.111 0 0 1-.113-.281c-.029-.117-.043-.339-.043-.664v-1.594h-.625v-.07Zm3.535-2.082c.117 0 .217.04.3.121.084.08.126.179.126.296a.405.405 0 0 1-.125.297.408.408 0 0 1-.301.125.394.394 0 0 1-.29-.125.415.415 0 0 1-.124-.297.4.4 0 0 1 .125-.289.394.394 0 0 1 .289-.128Zm-.352 1.511h.711V161h-.71v-3.594Zm3.461-.008c.547 0 1.002.178 1.364.532.362.351.543.794.543 1.328 0 .518-.184.949-.551 1.293-.367.341-.83.511-1.387.511-.539 0-.99-.173-1.352-.519a1.739 1.739 0 0 1-.542-1.305c0-.526.182-.963.546-1.312.368-.352.827-.528 1.38-.528Zm-.039.641c-.34 0-.62.112-.84.336-.218.224-.328.509-.328.855 0 .344.112.625.336.844.224.216.512.324.864.324.348 0 .634-.109.855-.328.224-.221.336-.504.336-.847a1.13 1.13 0 0 0-.348-.848 1.209 1.209 0 0 0-.875-.336Zm3.446-.633v.457c.317-.351.678-.527 1.082-.527.224 0 .432.059.625.176.192.114.338.273.437.476.102.201.152.52.152.957V161h-.71v-2.047c0-.367-.056-.629-.168-.785-.112-.159-.3-.238-.563-.238-.336 0-.621.168-.855.504V161h-.727v-3.594h.727Zm3.625 2.707c.132 0 .246.047.34.141.093.094.14.207.14.34 0 .13-.047.241-.14.332a.47.47 0 0 1-.34.136.46.46 0 0 1-.332-.136.446.446 0 0 1-.141-.332.47.47 0 0 1 .137-.34.45.45 0 0 1 .336-.141Zm.062-2.777c.133 0 .246.047.34.141a.46.46 0 0 1 .14.339.456.456 0 0 1-.14.336.47.47 0 0 1-.34.137.461.461 0 0 1-.332-.137.463.463 0 0 1-.137-.336c0-.132.046-.246.137-.339a.445.445 0 0 1 .332-.141Zm3.691-1.793h.782V161h-.781v-5.457Zm1.391 2.434 1.336-1.313v.742h1.137v.641h-1.137v1.762c0 .411.17.617.512.617.255 0 .525-.086.808-.258v.664c-.273.154-.571.23-.894.23-.326 0-.597-.095-.813-.285a.826.826 0 0 1-.168-.191 1.111 1.111 0 0 1-.113-.281c-.029-.117-.043-.339-.043-.664v-1.594h-.625v-.07Zm5.426.863v1.527c0 .123.042.184.125.184.086 0 .22-.064.402-.192v.434a2.2 2.2 0 0 1-.39.211.804.804 0 0 1-.305.058c-.305 0-.484-.119-.54-.359a1.544 1.544 0 0 1-.964.352.849.849 0 0 1-.875-.871c0-.227.08-.429.242-.606.164-.18.396-.321.695-.426l.91-.312v-.192c0-.432-.216-.648-.648-.648-.388 0-.765.201-1.133.602v-.778c.276-.325.674-.488 1.192-.488.388 0 .7.102.933.305a.946.946 0 0 1 .211.261.891.891 0 0 1 .118.325c.018.106.027.311.027.613Zm-.7 1.449v-1.066l-.476.183c-.242.097-.414.194-.516.293a.487.487 0 0 0-.148.363c0 .149.047.27.14.364a.51.51 0 0 0 .372.14c.226 0 .436-.092.629-.277Zm1.872-4.746h.71V161h-.71v-5.457Zm3.941 1.863h.801l-2.543 5.426h-.793l1.223-2.602-1.39-2.824h.808l.968 2.028.926-2.028Z" fill="#000"/><rect x="20" y="51" width="260" height="20" rx="4" fill="#2E8B57"/><path d="M27.137 57.535h4.558v.696h-1.902V63h-.785v-4.77h-1.871v-.695Zm5.187.008h.711v2.336c.297-.362.666-.543 1.106-.543.24 0 .454.06.644.18s.33.285.422.496c.094.21.14.524.14.941V63h-.71v-2.223c0-.263-.065-.474-.196-.633a.615.615 0 0 0-.507-.242.86.86 0 0 0-.442.121c-.138.081-.29.215-.457.403V63h-.71v-5.457Zm4.383.352c.117 0 .218.04.3.12.084.081.126.18.126.297a.406.406 0 0 1-.125.297.41.41 0 0 1-.59 0 .414.414 0 0 1-.125-.297.4.4 0 0 1 .125-.289.391.391 0 0 1 .289-.129Zm-.352 1.511h.711V63h-.71v-3.594Zm1.567 3.336v-.765c.2.14.405.255.613.343.211.086.388.13.531.13a.662.662 0 0 0 .383-.11c.107-.073.16-.16.16-.262a.343.343 0 0 0-.105-.258c-.068-.07-.216-.17-.445-.3-.459-.256-.76-.473-.903-.653a.952.952 0 0 1-.21-.594c0-.276.106-.5.32-.675.216-.175.493-.262.832-.262.351 0 .712.099 1.082.297v.703c-.422-.255-.767-.383-1.035-.383-.139 0-.25.03-.336.09a.267.267 0 0 0-.125.23c0 .084.037.163.113.239.078.075.213.166.406.273l.254.145c.599.338.898.713.898 1.125a.899.899 0 0 1-.347.726c-.23.188-.525.282-.887.282-.213 0-.404-.023-.57-.067a4 4 0 0 1-.63-.254Zm5.434 2.09v-5.426h1.246c.638 0 1.134.16 1.488.477.357.317.535.761.535 1.332 0 .539-.168.982-.504 1.328-.333.346-.759.52-1.277.52-.23 0-.483-.051-.762-.153v1.922h-.727Zm1.23-4.762h-.504v2.211c.219.112.448.168.688.168.333 0 .605-.116.816-.347.214-.232.32-.53.32-.895 0-.234-.05-.441-.152-.621a.887.887 0 0 0-.41-.39c-.172-.084-.425-.126-.758-.126Zm3.578-.664v.825l.04-.063c.343-.555.687-.832 1.03-.832.269 0 .549.135.84.406l-.375.625c-.247-.234-.476-.351-.687-.351-.23 0-.429.109-.598.328-.167.218-.25.478-.25.777V63h-.715v-3.594h.715Zm4.129-.008c.547 0 1.001.177 1.363.532.362.351.543.794.543 1.328 0 .518-.183.949-.55 1.293-.368.34-.83.511-1.387.511-.54 0-.99-.173-1.352-.519a1.738 1.738 0 0 1-.543-1.305c0-.526.183-.963.547-1.312.367-.352.827-.528 1.379-.528Zm-.04.641c-.34 0-.62.112-.839.336-.219.224-.328.51-.328.855 0 .344.112.626.336.844.224.216.512.324.863.324.35 0 .634-.109.856-.328.224-.221.336-.504.336-.847a1.13 1.13 0 0 0-.348-.848 1.208 1.208 0 0 0-.875-.336Zm2.688 4.793v-5.426h1.246c.639 0 1.135.16 1.489.477.357.317.535.761.535 1.332 0 .539-.168.982-.504 1.328-.333.346-.76.52-1.277.52-.23 0-.483-.051-.762-.153v1.922h-.727Zm1.23-4.762h-.503v2.211c.219.112.448.168.688.168.333 0 .605-.116.816-.347.213-.232.32-.53.32-.895 0-.234-.05-.441-.152-.621a.886.886 0 0 0-.41-.39c-.172-.084-.425-.126-.758-.126Zm5.88 1.196h-2.528c.019.343.133.617.344.82.214.203.489.305.824.305a2.14 2.14 0 0 0 1.297-.438v.695c-.218.146-.436.25-.652.313a2.698 2.698 0 0 1-.754.094c-.396 0-.716-.082-.96-.246a1.811 1.811 0 0 1-.59-.66 2.05 2.05 0 0 1-.22-.965c0-.547.155-.991.465-1.332.31-.344.713-.516 1.207-.516.477 0 .857.167 1.141.5.284.333.426.78.426 1.34v.09Zm-2.512-.426h1.809c-.019-.284-.103-.503-.254-.656-.151-.154-.354-.23-.61-.23a.883.883 0 0 0-.629.23c-.161.153-.266.372-.316.656Zm4.047-1.434v.825l.039-.063c.344-.555.688-.832 1.031-.832.268 0 .548.135.84.406l-.375.625c-.247-.234-.477-.351-.687-.351-.23 0-.429.109-.598.328-.167.218-.25.478-.25.777V63h-.715v-3.594h.715Zm1.906.57 1.336-1.312v.742h1.137v.64h-1.137v1.763c0 .411.17.617.512.617.255 0 .525-.086.808-.258v.664c-.273.154-.571.23-.894.23-.326 0-.596-.095-.813-.285a.829.829 0 0 1-.168-.191 1.106 1.106 0 0 1-.113-.281c-.028-.117-.043-.339-.043-.664v-1.594h-.625v-.07Zm5.367-.57h.801l-2.543 5.426h-.793l1.223-2.601-1.39-2.825h.808l.969 2.028.925-2.028Zm3.903-1.511c.117 0 .217.04.3.12.084.081.126.18.126.297a.406.406 0 0 1-.126.297.41.41 0 0 1-.59 0 .414.414 0 0 1-.124-.297c0-.109.041-.205.125-.289a.391.391 0 0 1 .289-.129Zm-.352 1.511h.711V63h-.71v-3.594Zm1.567 3.336v-.765c.2.14.404.255.613.343.21.086.388.13.531.13a.662.662 0 0 0 .383-.11c.107-.073.16-.16.16-.262a.343.343 0 0 0-.105-.258c-.068-.07-.217-.17-.446-.3-.458-.256-.759-.473-.902-.653a.952.952 0 0 1-.211-.594c0-.276.107-.5.32-.675.217-.175.494-.262.832-.262.352 0 .713.099 1.082.297v.703c-.421-.255-.767-.383-1.035-.383-.138 0-.25.03-.336.09a.266.266 0 0 0-.125.23c0 .084.038.163.114.239.078.075.213.166.406.273l.254.145c.599.338.898.713.898 1.125a.899.899 0 0 1-.347.726c-.23.188-.525.282-.887.282a2.23 2.23 0 0 1-.57-.067 4 4 0 0 1-.63-.254Zm7.738-1.902v1.527c0 .123.041.184.125.184.086 0 .22-.064.402-.192v.434a2.166 2.166 0 0 1-.39.21.803.803 0 0 1-.305.06c-.305 0-.484-.12-.54-.36-.301.234-.623.352-.964.352a.848.848 0 0 1-.875-.871c0-.227.08-.429.242-.606.164-.18.396-.322.696-.426l.91-.312v-.192c0-.432-.217-.648-.649-.648-.388 0-.765.2-1.133.602v-.778c.276-.325.674-.488 1.192-.488.388 0 .699.102.933.305a.949.949 0 0 1 .211.261.889.889 0 0 1 .118.325c.018.106.027.31.027.613Zm-.7 1.45v-1.067l-.476.183c-.242.097-.414.194-.516.293a.486.486 0 0 0-.148.364c0 .148.047.269.14.363a.51.51 0 0 0 .372.14c.226 0 .436-.092.629-.277Zm7.028-1.9V63h-.715v-2c0-.398-.053-.676-.16-.832-.107-.159-.293-.238-.559-.238a.847.847 0 0 0-.41.101 1.825 1.825 0 0 0-.422.36V63h-.71v-3.594h.71v.473c.362-.362.716-.543 1.063-.543.456 0 .808.216 1.058.648.38-.437.778-.656 1.192-.656.349 0 .635.128.86.383.226.255.34.645.34 1.168V63h-.712v-2.129c0-.3-.061-.529-.184-.687-.122-.16-.298-.239-.527-.239-.294 0-.569.149-.824.446Zm5.484.45v1.527c0 .123.042.184.125.184.086 0 .22-.064.403-.192v.434a2.166 2.166 0 0 1-.39.21.803.803 0 0 1-.306.06c-.304 0-.484-.12-.539-.36-.302.234-.623.352-.964.352a.848.848 0 0 1-.875-.871c0-.227.08-.429.242-.606.164-.18.395-.322.695-.426l.91-.312v-.192c0-.432-.216-.648-.648-.648-.388 0-.766.2-1.133.602v-.778c.276-.325.673-.488 1.191-.488.388 0 .7.102.934.305a.949.949 0 0 1 .21.261.889.889 0 0 1 .118.325c.018.106.027.31.027.613Zm-.699 1.45v-1.067l-.476.183c-.243.097-.415.194-.516.293a.486.486 0 0 0-.148.364.49.49 0 0 0 .14.363.51.51 0 0 0 .371.14c.227 0 .436-.092.63-.277Zm1.352-2.313 1.336-1.313v.742h1.136v.64h-1.136v1.763c0 .411.17.617.511.617.256 0 .525-.086.809-.258v.664c-.273.154-.572.23-.895.23-.325 0-.596-.095-.812-.285a.829.829 0 0 1-.168-.191 1.106 1.106 0 0 1-.113-.281c-.029-.117-.043-.339-.043-.664v-1.594h-.625v-.07Zm5.863 2.183v.703c-.357.133-.706.2-1.047.2-.562 0-1.012-.167-1.348-.5-.333-.334-.5-.78-.5-1.34 0-.565.163-1.021.489-1.367.325-.347.754-.52 1.285-.52.185 0 .35.018.496.055.148.034.331.099.547.195v.758c-.36-.23-.693-.344-1-.344-.32 0-.583.113-.789.34-.206.224-.309.51-.309.86 0 .366.11.658.332.874.224.216.525.324.903.324.273 0 .587-.079.941-.238Zm.797-4.617h.711v2.336c.297-.362.665-.543 1.105-.543.24 0 .455.06.645.18s.331.285.422.496c.093.21.14.524.14.941V63h-.711v-2.223c0-.263-.065-.474-.195-.633a.616.616 0 0 0-.508-.242.86.86 0 0 0-.441.121 1.99 1.99 0 0 0-.457.403V63h-.711v-5.457Zm5.078 5.05a.446.446 0 0 1-.141.333.456.456 0 0 1-.336.136.505.505 0 0 1-.355-.132.45.45 0 0 1-.141-.336c0-.14.047-.258.141-.352a.461.461 0 0 1 .344-.144c.14 0 .256.048.347.144a.477.477 0 0 1 .141.352Zm-.566-1.296-.063-.2c-.055-.156-.118-.511-.191-1.066a11.403 11.403 0 0 1-.106-1.414c0-.763.15-1.144.449-1.144.292 0 .438.37.438 1.113 0 .617-.059 1.249-.176 1.895l-.105.597-.063.227c-.023.08-.058.12-.105.12-.029 0-.055-.042-.078-.128Zm4.007-3.754h.782V63h-.782v-5.457Zm1.391 2.434 1.336-1.313v.742h1.137v.64h-1.137v1.763c0 .411.171.617.512.617.255 0 .524-.086.808-.258v.664c-.273.154-.571.23-.894.23-.326 0-.597-.095-.813-.285a.863.863 0 0 1-.168-.191 1.106 1.106 0 0 1-.113-.281c-.029-.117-.043-.339-.043-.664v-1.594h-.625v-.07Zm5.762-2.082c.117 0 .217.04.3.12.084.081.126.18.126.297a.404.404 0 0 1-.126.297.408.408 0 0 1-.589 0 .412.412 0 0 1-.125-.297c0-.109.041-.205.125-.289a.39.39 0 0 1 .289-.129Zm-.352 1.511h.711V63h-.711v-3.594Zm1.567 3.336v-.765c.2.14.405.255.613.343.211.086.388.13.531.13a.662.662 0 0 0 .383-.11c.107-.073.16-.16.16-.262a.343.343 0 0 0-.105-.258c-.068-.07-.217-.17-.446-.3-.458-.256-.759-.473-.902-.653a.95.95 0 0 1-.211-.594c0-.276.107-.5.32-.675.216-.175.494-.262.832-.262.352 0 .713.099 1.082.297v.703c-.422-.255-.767-.383-1.035-.383-.138 0-.25.03-.336.09a.267.267 0 0 0-.125.23c0 .084.038.163.114.239.078.075.213.166.406.273l.254.145c.599.338.898.713.898 1.125a.898.898 0 0 1-.348.726c-.229.188-.524.282-.886.282-.214 0-.404-.023-.571-.067a4 4 0 0 1-.628-.254Zm7.543-5.27v.29c.518.078.916.234 1.195.468v.899a2.39 2.39 0 0 0-1.195-.664v1.582c.473.14.833.346 1.078.617.247.268.371.578.371.93 0 .351-.121.665-.364.941a1.46 1.46 0 0 1-.421.336c-.159.086-.381.152-.664.2v.867h-.657v-.868c-.442-.041-.944-.228-1.504-.558v-.985c.25.227.491.407.723.54.234.132.495.227.781.285v-1.72c-.437-.15-.746-.29-.925-.421a1.444 1.444 0 0 1-.418-.469 1.146 1.146 0 0 1-.153-.558c0-.368.137-.68.41-.938.274-.26.636-.422 1.086-.484v-.29h.657Zm-.657 2.368v-1.375a.925.925 0 0 0-.519.23.57.57 0 0 0-.199.434c0 .15.045.276.136.375.091.099.253.197.485.293.039.016.071.03.097.043Zm.778 1.12-.121-.066v1.45c.447-.104.671-.334.671-.688a.58.58 0 0 0-.121-.379c-.078-.101-.221-.207-.429-.316Zm3.265-3.417h.782V63h-.782v-5.457Zm4.414-.07c.5 0 .913.263 1.239.789.328.523.492 1.188.492 1.996 0 .828-.164 1.501-.492 2.02-.326.518-.749.777-1.27.777-.529 0-.953-.254-1.273-.762-.321-.508-.481-1.181-.481-2.02 0-.828.166-1.5.496-2.02.331-.52.761-.78 1.289-.78Zm.008.742h-.039c-.299 0-.538.185-.715.554-.174.368-.262.866-.262 1.497 0 .645.086 1.152.258 1.52.172.366.409.55.711.55s.541-.184.715-.55c.175-.368.262-.867.262-1.497 0-.633-.085-1.137-.254-1.512-.167-.375-.392-.562-.676-.562Zm7.387 3.945v.703c-.357.133-.706.2-1.047.2-.563 0-1.012-.167-1.348-.5-.333-.334-.5-.78-.5-1.34 0-.565.163-1.021.489-1.367.325-.347.753-.52 1.285-.52.185 0 .35.018.496.055.148.034.331.099.547.195v.758c-.36-.23-.693-.344-1-.344-.321 0-.584.113-.789.34-.206.224-.309.51-.309.86 0 .366.111.658.332.874.224.216.525.324.902.324.274 0 .588-.079.942-.238Zm.797-4.617h.711v2.336c.297-.362.665-.543 1.105-.543.24 0 .455.06.645.18s.33.285.422.496c.093.21.14.524.14.941V63h-.711v-2.223c0-.263-.065-.474-.195-.633a.616.616 0 0 0-.508-.242.86.86 0 0 0-.441.121 1.99 1.99 0 0 0-.457.403V63h-.711v-5.457Zm7.078 3.723h-2.528c.019.343.133.617.344.82.214.203.489.305.824.305.469 0 .902-.146 1.297-.438v.695c-.218.146-.436.25-.652.313a2.701 2.701 0 0 1-.754.094c-.396 0-.716-.082-.961-.246a1.814 1.814 0 0 1-.59-.66 2.048 2.048 0 0 1-.218-.965c0-.547.155-.991.464-1.332.31-.344.713-.516 1.207-.516.477 0 .857.167 1.141.5.284.333.426.78.426 1.34v.09Zm-2.512-.426h1.809c-.019-.284-.103-.503-.254-.656-.151-.154-.354-.23-.61-.23a.881.881 0 0 0-.628.23c-.162.153-.267.372-.317.656Zm5.543 0v1.527c0 .123.042.184.125.184.086 0 .22-.064.402-.192v.434a2.145 2.145 0 0 1-.39.21.806.806 0 0 1-.305.06c-.305 0-.484-.12-.539-.36a1.548 1.548 0 0 1-.965.352.855.855 0 0 1-.625-.246.85.85 0 0 1-.25-.625c0-.227.081-.429.242-.606.164-.18.396-.322.696-.426l.91-.312v-.192c0-.432-.216-.648-.649-.648-.388 0-.765.2-1.132.602v-.778c.276-.325.673-.488 1.191-.488.388 0 .699.102.934.305a.96.96 0 0 1 .211.261.905.905 0 0 1 .117.325c.018.106.027.31.027.613Zm-.699 1.45v-1.067l-.477.183c-.242.097-.414.194-.515.293a.486.486 0 0 0-.149.364c0 .148.047.269.141.363a.51.51 0 0 0 .371.14c.227 0 .436-.092.629-.277Zm1.808 2.542v-5.426h1.247c.638 0 1.134.16 1.488.477.357.317.535.761.535 1.332 0 .539-.168.982-.504 1.328-.333.346-.759.52-1.277.52a2.25 2.25 0 0 1-.762-.153v1.922h-.727Zm1.231-4.762h-.504v2.211c.219.112.448.168.688.168.333 0 .605-.116.816-.347.213-.232.32-.53.32-.895 0-.234-.051-.441-.152-.621a.889.889 0 0 0-.41-.39c-.172-.084-.425-.126-.758-.126Zm5.879 1.196h-2.528c.019.343.133.617.344.82.214.203.489.305.824.305.469 0 .902-.146 1.297-.438v.695c-.218.146-.436.25-.652.313a2.701 2.701 0 0 1-.754.094c-.396 0-.716-.082-.961-.246a1.814 1.814 0 0 1-.59-.66 2.048 2.048 0 0 1-.218-.965c0-.547.155-.991.464-1.332.31-.344.713-.516 1.207-.516.477 0 .857.167 1.141.5.284.333.426.78.426 1.34v.09Zm-2.512-.426h1.809c-.019-.284-.103-.503-.254-.656-.151-.154-.354-.23-.61-.23a.881.881 0 0 0-.628.23c-.162.153-.267.372-.317.656Zm4.047-1.434v.825l.039-.063c.344-.555.688-.832 1.031-.832.269 0 .548.135.84.406l-.375.625c-.247-.234-.476-.351-.687-.351-.23 0-.429.109-.598.328-.167.218-.25.478-.25.777V63h-.715v-3.594h.715Zm4.133.57 1.336-1.312v.742h1.136v.64h-1.136v1.763c0 .411.17.617.511.617.256 0 .525-.086.809-.258v.664a1.79 1.79 0 0 1-.894.23c-.326 0-.597-.095-.813-.285a.815.815 0 0 1-.168-.191 1.106 1.106 0 0 1-.113-.281c-.029-.117-.043-.339-.043-.664v-1.594h-.625v-.07Zm3.152-2.433h.711v2.336c.297-.362.665-.543 1.106-.543.239 0 .454.06.644.18s.331.285.422.496c.094.21.141.524.141.941V63h-.711v-2.223c0-.263-.065-.474-.196-.633a.614.614 0 0 0-.507-.242.86.86 0 0 0-.442.121c-.138.081-.29.215-.457.403V63h-.711v-5.457Zm6.274 3.297v1.527c0 .123.041.184.125.184.086 0 .22-.064.402-.192v.434a2.18 2.18 0 0 1-.391.21.8.8 0 0 1-.304.06c-.305 0-.485-.12-.539-.36-.303.234-.624.352-.965.352a.847.847 0 0 1-.875-.871c0-.227.08-.429.242-.606.164-.18.396-.322.695-.426l.91-.312v-.192c0-.432-.216-.648-.648-.648-.388 0-.766.2-1.133.602v-.778c.276-.325.673-.488 1.192-.488.388 0 .699.102.933.305a.942.942 0 0 1 .211.261.869.869 0 0 1 .117.325c.018.106.028.31.028.613Zm-.7 1.45v-1.067l-.476.183c-.242.097-.414.194-.516.293a.486.486 0 0 0-.148.364c0 .148.047.269.14.363.097.093.22.14.371.14.227 0 .437-.092.629-.277Zm2.567-2.884v.457c.317-.351.678-.527 1.082-.527.224 0 .432.059.625.176a1.1 1.1 0 0 1 .437.476c.102.2.153.52.153.957V63h-.711v-2.047c0-.367-.056-.629-.168-.785-.112-.159-.3-.238-.563-.238-.336 0-.621.168-.855.504V63h-.727v-3.594h.727Zm7.715 0h.8l-2.543 5.426h-.793l1.223-2.601-1.391-2.825h.809l.969 2.028.926-2.028Zm3.027-.008c.547 0 1.001.177 1.363.532.362.351.543.794.543 1.328 0 .518-.183.949-.551 1.293-.367.34-.829.511-1.386.511-.539 0-.99-.173-1.352-.519a1.738 1.738 0 0 1-.543-1.305c0-.526.182-.963.547-1.312.367-.352.827-.528 1.379-.528Zm-.039.641c-.341 0-.621.112-.84.336-.219.224-.328.51-.328.855 0 .344.112.626.336.844.224.216.512.324.863.324.349 0 .634-.109.856-.328.224-.221.336-.504.336-.847a1.13 1.13 0 0 0-.348-.848 1.21 1.21 0 0 0-.875-.336ZM194.277 63v-.457a1.652 1.652 0 0 1-.519.383 1.345 1.345 0 0 1-.578.136c-.227 0-.437-.055-.629-.167a1.138 1.138 0 0 1-.434-.461c-.096-.196-.144-.519-.144-.97v-2.058h.711v2.051c0 .378.053.642.16.793.109.148.299.223.57.223.339 0 .626-.166.863-.496v-2.57h.711V63h-.711Zm2.473-3.594v.825l.039-.063c.344-.555.688-.832 1.031-.832.269 0 .548.135.84.406l-.375.625c-.247-.234-.476-.351-.687-.351-.23 0-.429.109-.598.328-.167.218-.25.478-.25.777V63h-.715v-3.594h.715Zm7.582.985V63h-.715v-2c0-.398-.053-.676-.16-.832-.107-.159-.293-.238-.559-.238a.848.848 0 0 0-.41.101 1.835 1.835 0 0 0-.422.36V63h-.711v-3.594h.711v.473c.362-.362.717-.543 1.063-.543.456 0 .809.216 1.059.648.38-.437.777-.656 1.191-.656.349 0 .635.128.859.383.227.255.34.645.34 1.168V63h-.711v-2.129c0-.3-.061-.529-.183-.687-.123-.16-.299-.239-.528-.239-.294 0-.569.149-.824.446Zm5.484.449v1.527c0 .123.042.184.125.184.086 0 .22-.064.403-.192v.434a2.18 2.18 0 0 1-.391.21.802.802 0 0 1-.305.06c-.304 0-.484-.12-.539-.36-.302.234-.623.352-.964.352a.847.847 0 0 1-.875-.871c0-.227.08-.429.242-.606.164-.18.396-.322.695-.426l.91-.312v-.192c0-.432-.216-.648-.648-.648-.388 0-.766.2-1.133.602v-.778c.276-.325.673-.488 1.191-.488.388 0 .7.102.934.305a.96.96 0 0 1 .211.261.905.905 0 0 1 .117.325c.018.106.027.31.027.613Zm-.699 1.45v-1.067l-.476.183c-.243.097-.414.194-.516.293a.486.486 0 0 0-.148.364.49.49 0 0 0 .14.363c.097.093.22.14.371.14.227 0 .436-.092.629-.277Zm4.336-2.884h.91l-1.48 1.77L214.469 63h-.91l-1.129-1.29-1.067 1.29h-.894l1.511-1.824-1.511-1.77h.894l1.067 1.235 1.023-1.235Zm1.887-1.511a.42.42 0 0 1 .426.417.407.407 0 0 1-.125.297.412.412 0 0 1-.59 0 .412.412 0 0 1-.125-.297c0-.109.041-.205.125-.289a.39.39 0 0 1 .289-.129Zm-.352 1.511h.711V63h-.711v-3.594Zm4.688.985V63h-.715v-2c0-.398-.053-.676-.16-.832-.107-.159-.293-.238-.559-.238a.848.848 0 0 0-.41.101 1.835 1.835 0 0 0-.422.36V63h-.711v-3.594h.711v.473c.362-.362.716-.543 1.063-.543.455 0 .808.216 1.058.648.38-.437.778-.656 1.192-.656.349 0 .635.128.859.383.227.255.34.645.34 1.168V63h-.711v-2.129c0-.3-.061-.529-.184-.687-.122-.16-.298-.239-.527-.239-.294 0-.569.149-.824.446ZM225.191 63v-.457a1.652 1.652 0 0 1-.519.383 1.345 1.345 0 0 1-.578.136 1.23 1.23 0 0 1-.629-.167 1.138 1.138 0 0 1-.434-.461c-.096-.196-.144-.519-.144-.97v-2.058h.711v2.051c0 .378.053.642.16.793.109.148.299.223.57.223.339 0 .626-.166.863-.496v-2.57h.711V63h-.711Zm4.657-2.61V63h-.715v-2c0-.398-.054-.676-.16-.832-.107-.159-.293-.238-.559-.238a.848.848 0 0 0-.41.101 1.835 1.835 0 0 0-.422.36V63h-.711v-3.594h.711v.473c.362-.362.716-.543 1.063-.543.455 0 .808.216 1.058.648.38-.437.777-.656 1.192-.656.348 0 .635.128.859.383.226.255.34.645.34 1.168V63h-.711v-2.129c0-.3-.061-.529-.184-.687-.122-.16-.298-.239-.527-.239-.294 0-.569.149-.824.446Zm3.593 1.739a.47.47 0 0 1 .34.137.45.45 0 0 1 .141.336c0 .13-.047.24-.141.328a.468.468 0 0 1-.34.133.467.467 0 0 1-.336-.133.44.44 0 0 1-.136-.328c0-.133.045-.245.136-.336a.46.46 0 0 1 .336-.137Z" fill="#fff"/></svg>