<svg width="300" height="180" viewBox="0 0 300 180" fill="none" xmlns="http://www.w3.org/2000/svg">
<rect width="300" height="180" fill="#FFF9F5"/>
<path d="M85.9531 76.7891L88.1953 77.5C87.8516 78.75 87.2786 79.6797 86.4766 80.2891C85.6797 80.8932 84.6667 81.1953 83.4375 81.1953C81.9167 81.1953 80.6667 80.6771 79.6875 79.6406C78.7083 78.599 78.2188 77.1771 78.2188 75.375C78.2188 73.4688 78.7109 71.9896 79.6953 70.9375C80.6797 69.8802 81.974 69.3516 83.5781 69.3516C84.9792 69.3516 86.1172 69.7656 86.9922 70.5938C87.513 71.0833 87.9036 71.7865 88.1641 72.7031L85.875 73.25C85.7396 72.6562 85.4557 72.1875 85.0234 71.8438C84.5964 71.5 84.0755 71.3281 83.4609 71.3281C82.612 71.3281 81.9219 71.6328 81.3906 72.2422C80.8646 72.8516 80.6016 73.8385 80.6016 75.2031C80.6016 76.651 80.862 77.6823 81.3828 78.2969C81.9036 78.9115 82.5807 79.2188 83.4141 79.2188C84.0286 79.2188 84.5573 79.0234 85 78.6328C85.4427 78.2422 85.7604 77.6276 85.9531 76.7891ZM91.8125 75.2344L89.8203 74.875C90.0443 74.0729 90.4297 73.4792 90.9766 73.0938C91.5234 72.7083 92.3359 72.5156 93.4141 72.5156C94.3932 72.5156 95.1224 72.6328 95.6016 72.8672C96.0807 73.0964 96.4167 73.3906 96.6094 73.75C96.8073 74.1042 96.9062 74.7578 96.9062 75.7109L96.8828 78.2734C96.8828 79.0026 96.9167 79.5417 96.9844 79.8906C97.0573 80.2344 97.1901 80.6042 97.3828 81H95.2109C95.1536 80.8542 95.0833 80.638 95 80.3516C94.9635 80.2214 94.9375 80.1354 94.9219 80.0938C94.5469 80.4583 94.1458 80.7318 93.7188 80.9141C93.2917 81.0964 92.8359 81.1875 92.3516 81.1875C91.4974 81.1875 90.8229 80.9557 90.3281 80.4922C89.8385 80.0286 89.5938 79.4427 89.5938 78.7344C89.5938 78.2656 89.7057 77.849 89.9297 77.4844C90.1536 77.1146 90.4661 76.8333 90.8672 76.6406C91.2734 76.4427 91.8568 76.2708 92.6172 76.125C93.6432 75.9323 94.3542 75.7526 94.75 75.5859V75.3672C94.75 74.9453 94.6458 74.6458 94.4375 74.4688C94.2292 74.2865 93.8359 74.1953 93.2578 74.1953C92.8672 74.1953 92.5625 74.2734 92.3438 74.4297C92.125 74.5807 91.9479 74.849 91.8125 75.2344ZM94.75 77.0156C94.4688 77.1094 94.0234 77.2214 93.4141 77.3516C92.8047 77.4818 92.4062 77.6094 92.2188 77.7344C91.9323 77.9375 91.7891 78.1953 91.7891 78.5078C91.7891 78.8151 91.9036 79.0807 92.1328 79.3047C92.362 79.5286 92.6536 79.6406 93.0078 79.6406C93.4036 79.6406 93.7812 79.5104 94.1406 79.25C94.4062 79.0521 94.5807 78.8099 94.6641 78.5234C94.7214 78.3359 94.75 77.9792 94.75 77.4531V77.0156ZM101.18 81H98.9844V72.7031H101.023V73.8828C101.372 73.3255 101.685 72.9583 101.961 72.7812C102.242 72.6042 102.56 72.5156 102.914 72.5156C103.414 72.5156 103.896 72.6536 104.359 72.9297L103.68 74.8438C103.31 74.6042 102.966 74.4844 102.648 74.4844C102.341 74.4844 102.081 74.5703 101.867 74.7422C101.654 74.9089 101.484 75.2135 101.359 75.6562C101.24 76.099 101.18 77.026 101.18 78.4375V81ZM117.109 76.7891L119.352 77.5C119.008 78.75 118.435 79.6797 117.633 80.2891C116.836 80.8932 115.823 81.1953 114.594 81.1953C113.073 81.1953 111.823 80.6771 110.844 79.6406C109.865 78.599 109.375 77.1771 109.375 75.375C109.375 73.4688 109.867 71.9896 110.852 70.9375C111.836 69.8802 113.13 69.3516 114.734 69.3516C116.135 69.3516 117.273 69.7656 118.148 70.5938C118.669 71.0833 119.06 71.7865 119.32 72.7031L117.031 73.25C116.896 72.6562 116.612 72.1875 116.18 71.8438C115.753 71.5 115.232 71.3281 114.617 71.3281C113.768 71.3281 113.078 71.6328 112.547 72.2422C112.021 72.8516 111.758 73.8385 111.758 75.2031C111.758 76.651 112.018 77.6823 112.539 78.2969C113.06 78.9115 113.737 79.2188 114.57 79.2188C115.185 79.2188 115.714 79.0234 116.156 78.6328C116.599 78.2422 116.917 77.6276 117.109 76.7891ZM120.82 76.7344C120.82 76.0052 121 75.2995 121.359 74.6172C121.719 73.9349 122.227 73.4141 122.883 73.0547C123.544 72.6953 124.281 72.5156 125.094 72.5156C126.349 72.5156 127.378 72.9245 128.18 73.7422C128.982 74.5547 129.383 75.5833 129.383 76.8281C129.383 78.0833 128.977 79.125 128.164 79.9531C127.357 80.776 126.339 81.1875 125.109 81.1875C124.349 81.1875 123.622 81.0156 122.93 80.6719C122.242 80.3281 121.719 79.8255 121.359 79.1641C121 78.4974 120.82 77.6875 120.82 76.7344ZM123.07 76.8516C123.07 77.6745 123.266 78.3047 123.656 78.7422C124.047 79.1797 124.529 79.3984 125.102 79.3984C125.674 79.3984 126.154 79.1797 126.539 78.7422C126.93 78.3047 127.125 77.6693 127.125 76.8359C127.125 76.0234 126.93 75.3984 126.539 74.9609C126.154 74.5234 125.674 74.3047 125.102 74.3047C124.529 74.3047 124.047 74.5234 123.656 74.9609C123.266 75.3984 123.07 76.0286 123.07 76.8516ZM136.57 81V79.7578C136.268 80.2005 135.87 80.5495 135.375 80.8047C134.885 81.0599 134.367 81.1875 133.82 81.1875C133.263 81.1875 132.763 81.0651 132.32 80.8203C131.878 80.5755 131.557 80.2318 131.359 79.7891C131.161 79.3464 131.062 78.7344 131.062 77.9531V72.7031H133.258V76.5156C133.258 77.6823 133.297 78.3984 133.375 78.6641C133.458 78.9245 133.607 79.1328 133.82 79.2891C134.034 79.4401 134.305 79.5156 134.633 79.5156C135.008 79.5156 135.344 79.4141 135.641 79.2109C135.938 79.0026 136.141 78.7474 136.25 78.4453C136.359 78.138 136.414 77.3906 136.414 76.2031V72.7031H138.609V81H136.57ZM148.438 81H146.242V76.7656C146.242 75.8698 146.195 75.2917 146.102 75.0312C146.008 74.7656 145.854 74.5599 145.641 74.4141C145.432 74.2682 145.18 74.1953 144.883 74.1953C144.503 74.1953 144.161 74.2995 143.859 74.5078C143.557 74.7161 143.349 74.9922 143.234 75.3359C143.125 75.6797 143.07 76.3151 143.07 77.2422V81H140.875V72.7031H142.914V73.9219C143.638 72.9844 144.549 72.5156 145.648 72.5156C146.133 72.5156 146.576 72.6042 146.977 72.7812C147.378 72.9531 147.68 73.1745 147.883 73.4453C148.091 73.7161 148.234 74.0234 148.312 74.3672C148.396 74.7109 148.438 75.2031 148.438 75.8438V81ZM154.477 72.7031V74.4531H152.977V77.7969C152.977 78.474 152.99 78.8698 153.016 78.9844C153.047 79.0938 153.112 79.1849 153.211 79.2578C153.315 79.3307 153.44 79.3672 153.586 79.3672C153.789 79.3672 154.083 79.2969 154.469 79.1562L154.656 80.8594C154.146 81.0781 153.568 81.1875 152.922 81.1875C152.526 81.1875 152.169 81.1224 151.852 80.9922C151.534 80.8568 151.299 80.6849 151.148 80.4766C151.003 80.263 150.901 79.9766 150.844 79.6172C150.797 79.362 150.773 78.8464 150.773 78.0703V74.4531H149.766V72.7031H150.773V71.0547L152.977 69.7734V72.7031H154.477ZM156.422 74.8984V72.7031H158.617V74.8984H156.422ZM156.422 81V78.8047H158.617V81H156.422ZM172.727 78.9609V81H165.031C165.115 80.2292 165.365 79.5 165.781 78.8125C166.198 78.1198 167.021 77.2031 168.25 76.0625C169.24 75.1406 169.846 74.5156 170.07 74.1875C170.372 73.7344 170.523 73.2865 170.523 72.8438C170.523 72.3542 170.391 71.9792 170.125 71.7188C169.865 71.4531 169.503 71.3203 169.039 71.3203C168.581 71.3203 168.216 71.4583 167.945 71.7344C167.674 72.0104 167.518 72.4688 167.477 73.1094L165.289 72.8906C165.419 71.6823 165.828 70.8151 166.516 70.2891C167.203 69.763 168.062 69.5 169.094 69.5C170.224 69.5 171.112 69.8047 171.758 70.4141C172.404 71.0234 172.727 71.7812 172.727 72.6875C172.727 73.2031 172.633 73.6953 172.445 74.1641C172.263 74.6276 171.971 75.1146 171.57 75.625C171.305 75.9635 170.826 76.4505 170.133 77.0859C169.44 77.7214 169 78.1432 168.812 78.3516C168.63 78.5599 168.482 78.763 168.367 78.9609H172.727Z" fill="#36454F"/>
<path d="M77.7109 105.344C77.7109 104.177 77.8854 103.198 78.2344 102.406C78.4948 101.823 78.849 101.299 79.2969 100.836C79.75 100.372 80.2448 100.029 80.7812 99.8047C81.4948 99.5026 82.3177 99.3516 83.25 99.3516C84.9375 99.3516 86.2865 99.875 87.2969 100.922C88.3125 101.969 88.8203 103.424 88.8203 105.289C88.8203 107.138 88.3177 108.586 87.3125 109.633C86.3073 110.674 84.9635 111.195 83.2812 111.195C81.5781 111.195 80.224 110.677 79.2188 109.641C78.2135 108.599 77.7109 107.167 77.7109 105.344ZM80.0938 105.266C80.0938 106.562 80.3932 107.547 80.9922 108.219C81.5911 108.885 82.3516 109.219 83.2734 109.219C84.1953 109.219 84.9505 108.888 85.5391 108.227C86.1328 107.56 86.4297 106.562 86.4297 105.234C86.4297 103.922 86.1406 102.943 85.5625 102.297C84.9896 101.651 84.2266 101.328 83.2734 101.328C82.3203 101.328 81.5521 101.656 80.9688 102.312C80.3854 102.964 80.0938 103.948 80.0938 105.266ZM98.1641 111H95.9688V106.766C95.9688 105.87 95.9219 105.292 95.8281 105.031C95.7344 104.766 95.5807 104.56 95.3672 104.414C95.1589 104.268 94.9062 104.195 94.6094 104.195C94.2292 104.195 93.888 104.299 93.5859 104.508C93.2839 104.716 93.0755 104.992 92.9609 105.336C92.8516 105.68 92.7969 106.315 92.7969 107.242V111H90.6016V102.703H92.6406V103.922C93.3646 102.984 94.276 102.516 95.375 102.516C95.8594 102.516 96.3021 102.604 96.7031 102.781C97.1042 102.953 97.4062 103.174 97.6094 103.445C97.8177 103.716 97.9609 104.023 98.0391 104.367C98.1224 104.711 98.1641 105.203 98.1641 105.844V111ZM105.203 108.359L107.391 108.727C107.109 109.529 106.664 110.141 106.055 110.562C105.451 110.979 104.693 111.188 103.781 111.188C102.339 111.188 101.271 110.716 100.578 109.773C100.031 109.018 99.7578 108.065 99.7578 106.914C99.7578 105.539 100.117 104.464 100.836 103.688C101.555 102.906 102.464 102.516 103.562 102.516C104.797 102.516 105.771 102.924 106.484 103.742C107.198 104.555 107.539 105.802 107.508 107.484H102.008C102.023 108.135 102.201 108.643 102.539 109.008C102.878 109.367 103.299 109.547 103.805 109.547C104.148 109.547 104.438 109.453 104.672 109.266C104.906 109.078 105.083 108.776 105.203 108.359ZM105.328 106.141C105.312 105.505 105.148 105.023 104.836 104.695C104.523 104.362 104.143 104.195 103.695 104.195C103.216 104.195 102.82 104.37 102.508 104.719C102.195 105.068 102.042 105.542 102.047 106.141H105.328ZM120.992 105.156L118.828 105.547C118.755 105.115 118.589 104.789 118.328 104.57C118.073 104.352 117.74 104.242 117.328 104.242C116.781 104.242 116.344 104.432 116.016 104.812C115.693 105.188 115.531 105.818 115.531 106.703C115.531 107.688 115.695 108.383 116.023 108.789C116.357 109.195 116.802 109.398 117.359 109.398C117.776 109.398 118.117 109.281 118.383 109.047C118.648 108.807 118.836 108.398 118.945 107.82L121.102 108.188C120.878 109.177 120.448 109.924 119.812 110.43C119.177 110.935 118.326 111.188 117.258 111.188C116.044 111.188 115.076 110.805 114.352 110.039C113.633 109.273 113.273 108.214 113.273 106.859C113.273 105.49 113.635 104.424 114.359 103.664C115.083 102.898 116.062 102.516 117.297 102.516C118.307 102.516 119.109 102.734 119.703 103.172C120.302 103.604 120.732 104.266 120.992 105.156ZM124.305 105.234L122.312 104.875C122.536 104.073 122.922 103.479 123.469 103.094C124.016 102.708 124.828 102.516 125.906 102.516C126.885 102.516 127.615 102.633 128.094 102.867C128.573 103.096 128.909 103.391 129.102 103.75C129.299 104.104 129.398 104.758 129.398 105.711L129.375 108.273C129.375 109.003 129.409 109.542 129.477 109.891C129.549 110.234 129.682 110.604 129.875 111H127.703C127.646 110.854 127.576 110.638 127.492 110.352C127.456 110.221 127.43 110.135 127.414 110.094C127.039 110.458 126.638 110.732 126.211 110.914C125.784 111.096 125.328 111.188 124.844 111.188C123.99 111.188 123.315 110.956 122.82 110.492C122.331 110.029 122.086 109.443 122.086 108.734C122.086 108.266 122.198 107.849 122.422 107.484C122.646 107.115 122.958 106.833 123.359 106.641C123.766 106.443 124.349 106.271 125.109 106.125C126.135 105.932 126.846 105.753 127.242 105.586V105.367C127.242 104.945 127.138 104.646 126.93 104.469C126.721 104.286 126.328 104.195 125.75 104.195C125.359 104.195 125.055 104.273 124.836 104.43C124.617 104.581 124.44 104.849 124.305 105.234ZM127.242 107.016C126.961 107.109 126.516 107.221 125.906 107.352C125.297 107.482 124.898 107.609 124.711 107.734C124.424 107.938 124.281 108.195 124.281 108.508C124.281 108.815 124.396 109.081 124.625 109.305C124.854 109.529 125.146 109.641 125.5 109.641C125.896 109.641 126.273 109.51 126.633 109.25C126.898 109.052 127.073 108.81 127.156 108.523C127.214 108.336 127.242 107.979 127.242 107.453V107.016ZM133.672 111H131.477V102.703H133.516V103.883C133.865 103.326 134.177 102.958 134.453 102.781C134.734 102.604 135.052 102.516 135.406 102.516C135.906 102.516 136.388 102.654 136.852 102.93L136.172 104.844C135.802 104.604 135.458 104.484 135.141 104.484C134.833 104.484 134.573 104.57 134.359 104.742C134.146 104.909 133.977 105.214 133.852 105.656C133.732 106.099 133.672 107.026 133.672 108.438V111ZM143.805 111L141.18 102.703H143.312L144.867 108.141L146.297 102.703H148.414L149.797 108.141L151.383 102.703H153.547L150.883 111H148.773L147.344 105.664L145.938 111H143.805ZM156.352 105.234L154.359 104.875C154.583 104.073 154.969 103.479 155.516 103.094C156.062 102.708 156.875 102.516 157.953 102.516C158.932 102.516 159.661 102.633 160.141 102.867C160.62 103.096 160.956 103.391 161.148 103.75C161.346 104.104 161.445 104.758 161.445 105.711L161.422 108.273C161.422 109.003 161.456 109.542 161.523 109.891C161.596 110.234 161.729 110.604 161.922 111H159.75C159.693 110.854 159.622 110.638 159.539 110.352C159.503 110.221 159.477 110.135 159.461 110.094C159.086 110.458 158.685 110.732 158.258 110.914C157.831 111.096 157.375 111.188 156.891 111.188C156.036 111.188 155.362 110.956 154.867 110.492C154.378 110.029 154.133 109.443 154.133 108.734C154.133 108.266 154.245 107.849 154.469 107.484C154.693 107.115 155.005 106.833 155.406 106.641C155.812 106.443 156.396 106.271 157.156 106.125C158.182 105.932 158.893 105.753 159.289 105.586V105.367C159.289 104.945 159.185 104.646 158.977 104.469C158.768 104.286 158.375 104.195 157.797 104.195C157.406 104.195 157.102 104.273 156.883 104.43C156.664 104.581 156.487 104.849 156.352 105.234ZM159.289 107.016C159.008 107.109 158.562 107.221 157.953 107.352C157.344 107.482 156.945 107.609 156.758 107.734C156.471 107.938 156.328 108.195 156.328 108.508C156.328 108.815 156.443 109.081 156.672 109.305C156.901 109.529 157.193 109.641 157.547 109.641C157.943 109.641 158.32 109.51 158.68 109.25C158.945 109.052 159.12 108.81 159.203 108.523C159.26 108.336 159.289 107.979 159.289 107.453V107.016ZM162.844 108.633L165.047 108.297C165.141 108.724 165.331 109.049 165.617 109.273C165.904 109.492 166.305 109.602 166.82 109.602C167.388 109.602 167.815 109.497 168.102 109.289C168.294 109.143 168.391 108.948 168.391 108.703C168.391 108.536 168.339 108.398 168.234 108.289C168.125 108.185 167.88 108.089 167.5 108C165.729 107.609 164.607 107.253 164.133 106.93C163.477 106.482 163.148 105.859 163.148 105.062C163.148 104.344 163.432 103.74 164 103.25C164.568 102.76 165.448 102.516 166.641 102.516C167.776 102.516 168.62 102.701 169.172 103.07C169.724 103.44 170.104 103.987 170.312 104.711L168.242 105.094C168.154 104.771 167.984 104.523 167.734 104.352C167.49 104.18 167.138 104.094 166.68 104.094C166.102 104.094 165.688 104.174 165.438 104.336C165.271 104.451 165.188 104.599 165.188 104.781C165.188 104.938 165.26 105.07 165.406 105.18C165.604 105.326 166.286 105.531 167.453 105.797C168.625 106.062 169.443 106.388 169.906 106.773C170.365 107.164 170.594 107.708 170.594 108.406C170.594 109.167 170.276 109.82 169.641 110.367C169.005 110.914 168.065 111.188 166.82 111.188C165.69 111.188 164.794 110.958 164.133 110.5C163.477 110.042 163.047 109.419 162.844 108.633ZM178.617 105.234L176.625 104.875C176.849 104.073 177.234 103.479 177.781 103.094C178.328 102.708 179.141 102.516 180.219 102.516C181.198 102.516 181.927 102.633 182.406 102.867C182.885 103.096 183.221 103.391 183.414 103.75C183.612 104.104 183.711 104.758 183.711 105.711L183.688 108.273C183.688 109.003 183.721 109.542 183.789 109.891C183.862 110.234 183.995 110.604 184.188 111H182.016C181.958 110.854 181.888 110.638 181.805 110.352C181.768 110.221 181.742 110.135 181.727 110.094C181.352 110.458 180.951 110.732 180.523 110.914C180.096 111.096 179.641 111.188 179.156 111.188C178.302 111.188 177.628 110.956 177.133 110.492C176.643 110.029 176.398 109.443 176.398 108.734C176.398 108.266 176.51 107.849 176.734 107.484C176.958 107.115 177.271 106.833 177.672 106.641C178.078 106.443 178.661 106.271 179.422 106.125C180.448 105.932 181.159 105.753 181.555 105.586V105.367C181.555 104.945 181.451 104.646 181.242 104.469C181.034 104.286 180.641 104.195 180.062 104.195C179.672 104.195 179.367 104.273 179.148 104.43C178.93 104.581 178.753 104.849 178.617 105.234ZM181.555 107.016C181.273 107.109 180.828 107.221 180.219 107.352C179.609 107.482 179.211 107.609 179.023 107.734C178.737 107.938 178.594 108.195 178.594 108.508C178.594 108.815 178.708 109.081 178.938 109.305C179.167 109.529 179.458 109.641 179.812 109.641C180.208 109.641 180.586 109.51 180.945 109.25C181.211 109.052 181.385 108.81 181.469 108.523C181.526 108.336 181.555 107.979 181.555 107.453V107.016ZM193.492 111H191.453V109.781C191.115 110.255 190.714 110.609 190.25 110.844C189.792 111.073 189.328 111.188 188.859 111.188C187.906 111.188 187.089 110.805 186.406 110.039C185.729 109.268 185.391 108.195 185.391 106.82C185.391 105.414 185.721 104.346 186.383 103.617C187.044 102.883 187.88 102.516 188.891 102.516C189.818 102.516 190.62 102.901 191.297 103.672V99.5469H193.492V111ZM187.633 106.672C187.633 107.557 187.755 108.198 188 108.594C188.354 109.167 188.849 109.453 189.484 109.453C189.99 109.453 190.419 109.24 190.773 108.812C191.128 108.38 191.305 107.737 191.305 106.883C191.305 105.93 191.133 105.245 190.789 104.828C190.445 104.406 190.005 104.195 189.469 104.195C188.948 104.195 188.51 104.404 188.156 104.82C187.807 105.232 187.633 105.849 187.633 106.672ZM203.273 111H201.234V109.781C200.896 110.255 200.495 110.609 200.031 110.844C199.573 111.073 199.109 111.188 198.641 111.188C197.688 111.188 196.87 110.805 196.188 110.039C195.51 109.268 195.172 108.195 195.172 106.82C195.172 105.414 195.503 104.346 196.164 103.617C196.826 102.883 197.661 102.516 198.672 102.516C199.599 102.516 200.401 102.901 201.078 103.672V99.5469H203.273V111ZM197.414 106.672C197.414 107.557 197.536 108.198 197.781 108.594C198.135 109.167 198.63 109.453 199.266 109.453C199.771 109.453 200.201 109.24 200.555 108.812C200.909 108.38 201.086 107.737 201.086 106.883C201.086 105.93 200.914 105.245 200.57 104.828C200.227 104.406 199.786 104.195 199.25 104.195C198.729 104.195 198.292 104.404 197.938 104.82C197.589 105.232 197.414 105.849 197.414 106.672ZM210.25 108.359L212.438 108.727C212.156 109.529 211.711 110.141 211.102 110.562C210.497 110.979 209.74 111.188 208.828 111.188C207.385 111.188 206.318 110.716 205.625 109.773C205.078 109.018 204.805 108.065 204.805 106.914C204.805 105.539 205.164 104.464 205.883 103.688C206.602 102.906 207.51 102.516 208.609 102.516C209.844 102.516 210.818 102.924 211.531 103.742C212.245 104.555 212.586 105.802 212.555 107.484H207.055C207.07 108.135 207.247 108.643 207.586 109.008C207.924 109.367 208.346 109.547 208.852 109.547C209.195 109.547 209.484 109.453 209.719 109.266C209.953 109.078 210.13 108.776 210.25 108.359ZM210.375 106.141C210.359 105.505 210.195 105.023 209.883 104.695C209.57 104.362 209.19 104.195 208.742 104.195C208.263 104.195 207.867 104.37 207.555 104.719C207.242 105.068 207.089 105.542 207.094 106.141H210.375ZM221.961 111H219.922V109.781C219.583 110.255 219.182 110.609 218.719 110.844C218.26 111.073 217.797 111.188 217.328 111.188C216.375 111.188 215.557 110.805 214.875 110.039C214.198 109.268 213.859 108.195 213.859 106.82C213.859 105.414 214.19 104.346 214.852 103.617C215.513 102.883 216.349 102.516 217.359 102.516C218.286 102.516 219.089 102.901 219.766 103.672V99.5469H221.961V111ZM216.102 106.672C216.102 107.557 216.224 108.198 216.469 108.594C216.823 109.167 217.318 109.453 217.953 109.453C218.458 109.453 218.888 109.24 219.242 108.812C219.596 108.38 219.773 107.737 219.773 106.883C219.773 105.93 219.602 105.245 219.258 104.828C218.914 104.406 218.474 104.195 217.938 104.195C217.417 104.195 216.979 104.404 216.625 104.82C216.276 105.232 216.102 105.849 216.102 106.672Z" fill="#36454F"/>
<rect x="77" y="30" width="39" height="24" rx="4" fill="#00BFFF"/>
<path d="M88.9883 44.5L91.1875 38.7734H92.0039L94.3477 44.5H93.4844L92.8164 42.7656H90.4219L89.793 44.5H88.9883ZM90.6406 42.1484H92.582L91.9844 40.5625C91.8021 40.0807 91.6667 39.6849 91.5781 39.375C91.5052 39.7422 91.4023 40.1068 91.2695 40.4688L90.6406 42.1484ZM97.5547 44.5V43.9766C97.2917 44.388 96.9049 44.5938 96.3945 44.5938C96.0638 44.5938 95.7591 44.5026 95.4805 44.3203C95.2044 44.138 94.9896 43.8841 94.8359 43.5586C94.6849 43.2305 94.6094 42.8542 94.6094 42.4297C94.6094 42.0156 94.6784 41.6406 94.8164 41.3047C94.9544 40.9661 95.1615 40.707 95.4375 40.5273C95.7135 40.3477 96.0221 40.2578 96.3633 40.2578C96.6133 40.2578 96.8359 40.3112 97.0312 40.418C97.2266 40.5221 97.3854 40.6589 97.5078 40.8281V38.7734H98.207V44.5H97.5547ZM95.332 42.4297C95.332 42.9609 95.444 43.3581 95.668 43.6211C95.8919 43.8841 96.1562 44.0156 96.4609 44.0156C96.7682 44.0156 97.0286 43.8906 97.2422 43.6406C97.4583 43.388 97.5664 43.0039 97.5664 42.4883C97.5664 41.9206 97.457 41.5039 97.2383 41.2383C97.0195 40.9727 96.75 40.8398 96.4297 40.8398C96.1172 40.8398 95.8555 40.9674 95.6445 41.2227C95.4362 41.4779 95.332 41.8802 95.332 42.4297ZM102.008 44.5V43.9766C101.745 44.388 101.358 44.5938 100.848 44.5938C100.517 44.5938 100.212 44.5026 99.9336 44.3203C99.6576 44.138 99.4427 43.8841 99.2891 43.5586C99.138 43.2305 99.0625 42.8542 99.0625 42.4297C99.0625 42.0156 99.1315 41.6406 99.2695 41.3047C99.4076 40.9661 99.6146 40.707 99.8906 40.5273C100.167 40.3477 100.475 40.2578 100.816 40.2578C101.066 40.2578 101.289 40.3112 101.484 40.418C101.68 40.5221 101.839 40.6589 101.961 40.8281V38.7734H102.66V44.5H102.008ZM99.7852 42.4297C99.7852 42.9609 99.8971 43.3581 100.121 43.6211C100.345 43.8841 100.609 44.0156 100.914 44.0156C101.221 44.0156 101.482 43.8906 101.695 43.6406C101.911 43.388 102.02 43.0039 102.02 42.4883C102.02 41.9206 101.91 41.5039 101.691 41.2383C101.473 40.9727 101.203 40.8398 100.883 40.8398C100.57 40.8398 100.309 40.9674 100.098 41.2227C99.8893 41.4779 99.7852 41.8802 99.7852 42.4297Z" fill="white"/>
<rect x="77" y="126" width="54" height="24" rx="4" fill="#00BFFF"/>
<path d="M89.3594 138.66L90.0742 138.598C90.1081 138.884 90.1862 139.12 90.3086 139.305C90.4336 139.487 90.6263 139.635 90.8867 139.75C91.1471 139.862 91.4401 139.918 91.7656 139.918C92.0547 139.918 92.3099 139.875 92.5312 139.789C92.7526 139.703 92.9167 139.586 93.0234 139.438C93.1328 139.286 93.1875 139.122 93.1875 138.945C93.1875 138.766 93.1354 138.609 93.0312 138.477C92.9271 138.341 92.7552 138.228 92.5156 138.137C92.362 138.077 92.0221 137.984 91.4961 137.859C90.9701 137.732 90.6016 137.612 90.3906 137.5C90.1172 137.357 89.9128 137.18 89.7773 136.969C89.6445 136.755 89.5781 136.517 89.5781 136.254C89.5781 135.965 89.6602 135.695 89.8242 135.445C89.9883 135.193 90.2279 135.001 90.543 134.871C90.8581 134.741 91.2083 134.676 91.5938 134.676C92.0182 134.676 92.3919 134.745 92.7148 134.883C93.0404 135.018 93.2904 135.219 93.4648 135.484C93.6393 135.75 93.7331 136.051 93.7461 136.387L93.0195 136.441C92.9805 136.079 92.8477 135.806 92.6211 135.621C92.3971 135.436 92.0651 135.344 91.625 135.344C91.1667 135.344 90.832 135.428 90.6211 135.598C90.4128 135.764 90.3086 135.966 90.3086 136.203C90.3086 136.409 90.3828 136.578 90.5312 136.711C90.6771 136.844 91.0573 136.98 91.6719 137.121C92.2891 137.259 92.7122 137.38 92.9414 137.484C93.2747 137.638 93.5208 137.833 93.6797 138.07C93.8385 138.305 93.918 138.576 93.918 138.883C93.918 139.188 93.8307 139.475 93.6562 139.746C93.4818 140.014 93.2305 140.224 92.9023 140.375C92.5768 140.523 92.2096 140.598 91.8008 140.598C91.2826 140.598 90.8477 140.522 90.4961 140.371C90.1471 140.22 89.8724 139.993 89.6719 139.691C89.474 139.387 89.3698 139.043 89.3594 138.66ZM97.582 140.5V139.891C97.2591 140.359 96.8203 140.594 96.2656 140.594C96.0208 140.594 95.7917 140.547 95.5781 140.453C95.3672 140.359 95.2096 140.242 95.1055 140.102C95.0039 139.958 94.9323 139.784 94.8906 139.578C94.862 139.44 94.8477 139.221 94.8477 138.922V136.352H95.5508V138.652C95.5508 139.02 95.5651 139.267 95.5938 139.395C95.638 139.579 95.7318 139.725 95.875 139.832C96.0182 139.936 96.1953 139.988 96.4062 139.988C96.6172 139.988 96.8151 139.935 97 139.828C97.1849 139.719 97.3151 139.572 97.3906 139.387C97.4688 139.199 97.5078 138.928 97.5078 138.574V136.352H98.2109V140.5H97.582ZM99.9648 140.5H99.3125V134.773H100.016V136.816C100.312 136.444 100.691 136.258 101.152 136.258C101.408 136.258 101.648 136.31 101.875 136.414C102.104 136.516 102.292 136.66 102.438 136.848C102.586 137.033 102.702 137.257 102.785 137.52C102.868 137.783 102.91 138.064 102.91 138.363C102.91 139.074 102.734 139.624 102.383 140.012C102.031 140.4 101.609 140.594 101.117 140.594C100.628 140.594 100.243 140.389 99.9648 139.98V140.5ZM99.957 138.395C99.957 138.892 100.025 139.251 100.16 139.473C100.382 139.835 100.681 140.016 101.059 140.016C101.366 140.016 101.632 139.883 101.855 139.617C102.079 139.349 102.191 138.951 102.191 138.422C102.191 137.88 102.083 137.48 101.867 137.223C101.654 136.965 101.395 136.836 101.09 136.836C100.783 136.836 100.517 136.97 100.293 137.238C100.069 137.504 99.957 137.889 99.957 138.395ZM105.305 139.871L105.406 140.492C105.208 140.534 105.031 140.555 104.875 140.555C104.62 140.555 104.422 140.514 104.281 140.434C104.141 140.353 104.042 140.247 103.984 140.117C103.927 139.984 103.898 139.707 103.898 139.285V136.898H103.383V136.352H103.898V135.324L104.598 134.902V136.352H105.305V136.898H104.598V139.324C104.598 139.525 104.609 139.654 104.633 139.711C104.659 139.768 104.699 139.814 104.754 139.848C104.811 139.882 104.892 139.898 104.996 139.898C105.074 139.898 105.177 139.889 105.305 139.871ZM105.988 140.5V136.352H106.621V136.98C106.783 136.686 106.931 136.492 107.066 136.398C107.204 136.305 107.355 136.258 107.52 136.258C107.757 136.258 107.997 136.333 108.242 136.484L108 137.137C107.828 137.035 107.656 136.984 107.484 136.984C107.331 136.984 107.193 137.031 107.07 137.125C106.948 137.216 106.861 137.344 106.809 137.508C106.73 137.758 106.691 138.031 106.691 138.328V140.5H105.988ZM111.367 139.988C111.107 140.21 110.855 140.366 110.613 140.457C110.374 140.548 110.116 140.594 109.84 140.594C109.384 140.594 109.034 140.483 108.789 140.262C108.544 140.038 108.422 139.753 108.422 139.406C108.422 139.203 108.467 139.018 108.559 138.852C108.652 138.682 108.773 138.547 108.922 138.445C109.073 138.344 109.242 138.267 109.43 138.215C109.568 138.178 109.776 138.143 110.055 138.109C110.622 138.042 111.04 137.961 111.309 137.867C111.311 137.771 111.312 137.71 111.312 137.684C111.312 137.397 111.246 137.195 111.113 137.078C110.934 136.919 110.667 136.84 110.312 136.84C109.982 136.84 109.737 136.898 109.578 137.016C109.422 137.13 109.306 137.335 109.23 137.629L108.543 137.535C108.605 137.241 108.708 137.004 108.852 136.824C108.995 136.642 109.202 136.503 109.473 136.406C109.743 136.307 110.057 136.258 110.414 136.258C110.768 136.258 111.056 136.299 111.277 136.383C111.499 136.466 111.661 136.572 111.766 136.699C111.87 136.824 111.943 136.983 111.984 137.176C112.008 137.296 112.02 137.512 112.02 137.824V138.762C112.02 139.415 112.034 139.829 112.062 140.004C112.094 140.176 112.154 140.341 112.242 140.5H111.508C111.435 140.354 111.388 140.184 111.367 139.988ZM111.309 138.418C111.053 138.522 110.671 138.611 110.16 138.684C109.871 138.725 109.667 138.772 109.547 138.824C109.427 138.876 109.335 138.953 109.27 139.055C109.204 139.154 109.172 139.264 109.172 139.387C109.172 139.574 109.242 139.73 109.383 139.855C109.526 139.98 109.734 140.043 110.008 140.043C110.279 140.043 110.52 139.984 110.73 139.867C110.941 139.747 111.096 139.585 111.195 139.379C111.271 139.22 111.309 138.986 111.309 138.676V138.418ZM115.82 138.98L116.512 139.07C116.436 139.547 116.242 139.921 115.93 140.191C115.62 140.46 115.238 140.594 114.785 140.594C114.217 140.594 113.76 140.409 113.414 140.039C113.07 139.667 112.898 139.134 112.898 138.441C112.898 137.993 112.973 137.602 113.121 137.266C113.27 136.93 113.495 136.678 113.797 136.512C114.102 136.342 114.432 136.258 114.789 136.258C115.24 136.258 115.608 136.372 115.895 136.602C116.181 136.828 116.365 137.151 116.445 137.57L115.762 137.676C115.697 137.397 115.581 137.188 115.414 137.047C115.25 136.906 115.051 136.836 114.816 136.836C114.462 136.836 114.174 136.964 113.953 137.219C113.732 137.471 113.621 137.872 113.621 138.422C113.621 138.979 113.728 139.384 113.941 139.637C114.155 139.889 114.434 140.016 114.777 140.016C115.053 140.016 115.284 139.931 115.469 139.762C115.654 139.592 115.771 139.332 115.82 138.98ZM118.648 139.871L118.75 140.492C118.552 140.534 118.375 140.555 118.219 140.555C117.964 140.555 117.766 140.514 117.625 140.434C117.484 140.353 117.385 140.247 117.328 140.117C117.271 139.984 117.242 139.707 117.242 139.285V136.898H116.727V136.352H117.242V135.324L117.941 134.902V136.352H118.648V136.898H117.941V139.324C117.941 139.525 117.953 139.654 117.977 139.711C118.003 139.768 118.043 139.814 118.098 139.848C118.155 139.882 118.236 139.898 118.34 139.898C118.418 139.898 118.521 139.889 118.648 139.871Z" fill="white"/>
</svg>
