<svg width="300" height="180" fill="none" xmlns="http://www.w3.org/2000/svg"><path fill="#fff" d="M0 0h300v180H0z"/><path d="M89.043 38.117c.3.866.765 1.517 1.396 1.953.632.437 1.423.655 2.374.655.26 0 .537-.026.83-.078v.595c-.984.248-1.862.371-2.637.371-1.211 0-2.295-.296-3.252-.888-.95-.593-1.667-1.462-2.148-2.608-1.602-.338-2.894-1.123-3.877-2.353-.977-1.23-1.465-2.699-1.465-4.405 0-1.979.664-3.623 1.992-4.931 1.328-1.315 3.014-1.973 5.058-1.973 2.038 0 3.718.658 5.04 1.973 1.321 1.315 1.982 2.959 1.982 4.931 0 1.72-.518 3.213-1.553 4.483-1.035 1.27-2.282 2.028-3.74 2.275Zm-1.738-12.92c-1.172 0-2.077.609-2.715 1.826-.534 1.023-.8 2.478-.8 4.366 0 2.265.4 3.945 1.2 5.039.56.762 1.332 1.142 2.315 1.142.99 0 1.76-.374 2.314-1.123.8-1.074 1.201-2.689 1.201-4.844 0-2.122-.25-3.658-.752-4.609-.625-1.198-1.546-1.797-2.763-1.797Zm17.236 3.672v7.149c0 .696.065 1.132.195 1.308.131.17.394.277.791.322V38h-3.72v-1.22c-.437.52-.873.901-1.309 1.142a3.045 3.045 0 0 1-1.465.351 2.19 2.19 0 0 1-1.377-.468c-.397-.32-.664-.69-.8-1.114-.137-.423-.206-1.162-.206-2.216v-3.623c0-.69-.065-1.12-.195-1.29-.124-.169-.387-.28-.79-.332v-.36h3.72v6.24c0 .65.03 1.07.088 1.26a.874.874 0 0 0 .293.429.787.787 0 0 0 .468.146c.235 0 .446-.062.635-.185.261-.17.573-.511.938-1.026v-4.882c0-.69-.065-1.12-.196-1.29-.123-.169-.387-.28-.791-.332v-.36h3.721Zm10.049 4.238h-5.01c.059 1.211.381 2.168.967 2.871.449.54.989.811 1.621.811a1.86 1.86 0 0 0 1.064-.322c.319-.222.661-.615 1.026-1.182l.332.215c-.495 1.01-1.042 1.725-1.641 2.148-.599.417-1.292.625-2.08.625-1.354 0-2.379-.52-3.076-1.562-.56-.84-.84-1.882-.84-3.125 0-1.523.41-2.734 1.231-3.633.826-.905 1.793-1.357 2.9-1.357.924 0 1.725.38 2.402 1.142.684.756 1.052 1.878 1.104 3.37Zm-2.402-.654c0-1.048-.059-1.768-.176-2.158-.111-.39-.287-.687-.528-.889-.136-.117-.319-.175-.546-.175-.339 0-.616.165-.831.497-.384.58-.576 1.374-.576 2.383v.342h2.657Zm12.373-3.584v7.149c0 .696.065 1.132.195 1.308.13.17.394.277.791.322V38h-3.721v-1.22c-.436.52-.872.901-1.308 1.142a3.05 3.05 0 0 1-1.465.351 2.19 2.19 0 0 1-1.377-.468c-.397-.32-.664-.69-.801-1.114-.137-.423-.205-1.162-.205-2.216v-3.623c0-.69-.065-1.12-.195-1.29-.124-.169-.388-.28-.791-.332v-.36h3.72v6.24c0 .65.03 1.07.088 1.26a.875.875 0 0 0 .293.429.787.787 0 0 0 .469.146c.234 0 .446-.062.635-.185.26-.17.573-.511.937-1.026v-4.882c0-.69-.065-1.12-.195-1.29-.124-.169-.388-.28-.791-.332v-.36h3.721Zm10.048 4.238H129.6c.058 1.211.38 2.168.966 2.871.45.54.99.811 1.622.811.39 0 .745-.107 1.064-.322.319-.222.661-.615 1.025-1.182l.332.215c-.494 1.01-1.041 1.725-1.64 2.148-.599.417-1.293.625-2.08.625-1.354 0-2.38-.52-3.077-1.562-.559-.84-.839-1.882-.839-3.125 0-1.523.41-2.734 1.23-3.633.827-.905 1.794-1.357 2.901-1.357.924 0 1.725.38 2.402 1.142.683.756 1.051 1.878 1.103 3.37Zm-2.402-.654c0-1.048-.059-1.768-.176-2.158-.11-.39-.286-.687-.527-.889-.137-.117-.319-.175-.547-.175-.339 0-.615.165-.83.497-.384.58-.576 1.374-.576 2.383v.342h2.656Zm5.752-8.008c.423 0 .781.15 1.074.45.293.293.44.647.44 1.064 0 .417-.15.771-.45 1.064-.293.293-.647.44-1.064.44-.417 0-.771-.147-1.064-.44a1.45 1.45 0 0 1-.44-1.064c0-.417.147-.771.44-1.064.293-.3.647-.45 1.064-.45Zm1.367 4.424v7.236c0 .645.075 1.058.225 1.24.15.177.442.277.879.303V38h-4.932v-.352c.404-.013.703-.13.898-.351.131-.15.196-.547.196-1.191v-5.333c0-.644-.075-1.054-.225-1.23-.15-.182-.439-.287-.869-.313v-.36h3.828Zm5.733 0v1.182c.468-.508.918-.876 1.347-1.104.43-.234.892-.351 1.387-.351.592 0 1.084.166 1.475.498.39.325.651.732.781 1.22.104.372.156 1.084.156 2.14v3.554c0 .703.062 1.142.186 1.318.13.17.397.277.8.322V38h-4.619v-.352c.345-.045.593-.188.742-.43.105-.162.157-.566.157-1.21v-4.063c0-.748-.03-1.22-.088-1.416a.833.833 0 0 0-.303-.449.712.712 0 0 0-.459-.166c-.56 0-1.081.4-1.562 1.201v4.893c0 .683.061 1.116.185 1.299.13.182.368.296.713.341V38h-4.619v-.352c.384-.039.657-.162.82-.37.111-.144.166-.567.166-1.27v-5.156c0-.69-.065-1.12-.195-1.29-.124-.169-.387-.28-.791-.332v-.36h3.721Zm13.261.108h3.076v1.074h-1.748c.319.319.541.609.664.869.157.351.235.72.235 1.103 0 .651-.182 1.218-.547 1.7-.358.475-.85.85-1.475 1.123-.618.267-1.168.4-1.65.4-.039 0-.43-.016-1.172-.049-.293 0-.54.098-.742.293a.917.917 0 0 0-.293.684c0 .234.088.426.264.576.182.15.475.225.879.225l1.689-.02c1.367 0 2.308.15 2.822.45.736.416 1.104 1.057 1.104 1.923 0 .553-.169 1.055-.508 1.504a2.968 2.968 0 0 1-1.338 1.006c-.84.319-1.807.478-2.9.478a9.612 9.612 0 0 1-2.246-.244c-.677-.156-1.163-.377-1.455-.664-.293-.28-.44-.576-.44-.889 0-.299.111-.57.332-.81.228-.234.648-.433 1.26-.596-.846-.416-1.27-.996-1.27-1.738 0-.45.173-.885.518-1.309.345-.423.892-.79 1.641-1.103-.873-.32-1.504-.739-1.895-1.26a2.927 2.927 0 0 1-.586-1.807c0-.891.365-1.663 1.094-2.314.729-.658 1.666-.986 2.812-.986.606 0 1.231.127 1.875.38Zm-1.689.224c-.378 0-.697.192-.957.576-.261.378-.391 1.166-.391 2.364 0 .97.127 1.637.381 2.002.26.358.566.537.918.537.391 0 .716-.18.977-.537.26-.358.39-1.055.39-2.09 0-1.166-.146-1.96-.439-2.383a.999.999 0 0 0-.879-.469Zm-.576 10.147c-.664 0-1.104.055-1.319.166-.371.201-.556.475-.556.82 0 .332.192.631.576.898.384.274 1.107.41 2.168.41.905 0 1.614-.12 2.129-.36.521-.242.781-.58.781-1.016a.6.6 0 0 0-.146-.41c-.176-.196-.443-.33-.801-.4-.352-.073-1.296-.108-2.832-.108Zm22.978-14.59v3.584h-.351c-.209-.827-.44-1.42-.694-1.777a2.652 2.652 0 0 0-1.045-.87c-.247-.117-.68-.175-1.298-.175h-.987v10.214c0 .677.036 1.1.108 1.27.078.17.224.319.439.45.221.123.521.185.899.185h.439V38h-6.934v-.361h.44c.384 0 .693-.069.928-.205.169-.092.302-.248.4-.47.072-.155.107-.566.107-1.23V25.52h-.957c-.892 0-1.539.19-1.943.567-.566.527-.924 1.28-1.074 2.256h-.371v-3.584h11.894Zm3.223-.313c.423 0 .781.15 1.074.45.293.293.44.647.44 1.064 0 .417-.15.771-.45 1.064-.293.293-.647.44-1.064.44a1.45 1.45 0 0 1-1.065-.44 1.449 1.449 0 0 1-.439-1.064c0-.417.146-.771.439-1.064.293-.3.648-.45 1.065-.45Zm1.367 4.424v7.236c0 .645.075 1.058.225 1.24.149.177.442.277.879.303V38h-4.932v-.352c.404-.013.703-.13.898-.351.131-.15.196-.547.196-1.191v-5.333c0-.644-.075-1.054-.225-1.23-.15-.182-.439-.287-.869-.313v-.36h3.828Zm9.453 6.778.303.234c-.43.807-.967 1.41-1.611 1.806a3.845 3.845 0 0 1-2.041.586c-1.218 0-2.191-.459-2.92-1.377-.73-.918-1.094-2.021-1.094-3.31 0-1.244.332-2.337.996-3.281.801-1.14 1.904-1.71 3.311-1.71.944 0 1.692.238 2.246.714.56.475.839 1.005.839 1.591 0 .372-.113.668-.341.89-.222.22-.515.331-.879.331a1.3 1.3 0 0 1-.957-.38c-.248-.255-.401-.707-.459-1.358-.039-.41-.134-.697-.283-.86a.697.697 0 0 0-.528-.244c-.312 0-.579.166-.801.498-.338.502-.507 1.27-.507 2.305 0 .86.136 1.683.41 2.47.273.782.648 1.365 1.123 1.749a2 2 0 0 0 1.269.42c.319 0 .622-.075.909-.225.286-.15.625-.433 1.015-.85Zm5.147-10.89v8.712l2.119-2.08c.436-.424.706-.73.81-.918.111-.19.166-.371.166-.547a.545.545 0 0 0-.214-.44c-.144-.117-.424-.201-.84-.254v-.36h4.091v.36c-.39.02-.732.114-1.025.284-.293.162-.866.66-1.719 1.494l-.996.976 2.149 3.145c.866 1.276 1.38 1.992 1.543 2.148.221.222.501.345.839.371V38h-4.716v-.352c.208 0 .358-.039.449-.117.098-.078.146-.163.146-.254 0-.15-.136-.426-.41-.83l-1.806-2.646-.586.576v1.64c0 .697.065 1.133.195 1.31.13.168.397.276.801.321V38h-4.717v-.352c.384-.039.658-.162.82-.37.111-.144.166-.564.166-1.26V26.74c0-.69-.065-1.12-.195-1.289-.124-.17-.387-.28-.791-.332v-.361h3.721Zm15.156 8.35h-5.01c.059 1.211.381 2.168.967 2.871.449.54.99.811 1.621.811a1.86 1.86 0 0 0 1.064-.322c.319-.222.661-.615 1.026-1.182l.332.215c-.495 1.01-1.042 1.725-1.641 2.148-.599.417-1.292.625-2.08.625-1.354 0-2.379-.52-3.076-1.562-.56-.84-.84-1.882-.84-3.125 0-1.523.41-2.734 1.231-3.633.826-.905 1.793-1.357 2.9-1.357.925 0 1.725.38 2.402 1.142.684.756 1.052 1.878 1.104 3.37Zm-2.402-.654c0-1.048-.059-1.768-.176-2.158-.111-.39-.287-.687-.528-.889-.136-.117-.319-.175-.546-.175-.339 0-.616.165-.831.497-.384.58-.576 1.374-.576 2.383v.342h2.657Zm7.177-6.924v3.34h2.168v.967h-2.168v5.635c0 .527.023.869.069 1.025a.8.8 0 0 0 .263.371.594.594 0 0 0 .342.137c.423 0 .824-.322 1.201-.967l.293.215c-.527 1.25-1.383 1.875-2.568 1.875-.58 0-1.071-.16-1.475-.479-.397-.325-.651-.686-.761-1.084-.066-.22-.098-.82-.098-1.796v-4.932h-1.191v-.342c.82-.58 1.516-1.188 2.089-1.826.58-.638 1.084-1.35 1.514-2.139h.322ZM20 66h126v40H20z" fill="#1E96FF"/><path d="m45.097 89 2.749-7.158h1.02L51.796 89h-1.08l-.834-2.168h-2.993L46.102 89h-1.005Zm2.065-2.94h2.427l-.747-1.982a19.593 19.593 0 0 1-.508-1.484c-.091.459-.22.915-.386 1.367l-.786 2.1Zm8.662 1.04.864.113c-.094.596-.336 1.063-.727 1.401-.387.335-.864.503-1.43.503-.71 0-1.282-.23-1.715-.693-.43-.466-.644-1.131-.644-1.997 0-.56.093-1.05.278-1.47a1.93 1.93 0 0 1 .845-.942c.38-.212.794-.318 1.24-.318.563 0 1.024.144 1.382.43.358.283.588.687.688 1.21l-.854.133c-.081-.349-.226-.61-.435-.786a1.109 1.109 0 0 0-.747-.264c-.442 0-.802.16-1.079.478-.276.316-.415.818-.415 1.504 0 .697.134 1.203.4 1.519.267.316.616.473 1.045.473.346 0 .634-.105.865-.317.23-.211.377-.537.44-.976Zm5 0 .864.113c-.094.596-.336 1.063-.727 1.401-.387.335-.864.503-1.43.503-.71 0-1.282-.23-1.715-.693-.43-.466-.644-1.131-.644-1.997 0-.56.093-1.05.278-1.47a1.93 1.93 0 0 1 .845-.942c.38-.212.794-.318 1.24-.318.563 0 1.024.144 1.382.43.358.283.588.687.688 1.21l-.854.133c-.081-.349-.226-.61-.435-.786a1.109 1.109 0 0 0-.747-.264c-.442 0-.802.16-1.079.478-.276.316-.415.818-.415 1.504 0 .697.134 1.203.4 1.519.267.316.616.473 1.045.473.346 0 .634-.105.865-.317.23-.211.377-.537.44-.976Zm1.29-.693c0-.96.266-1.671.8-2.134.446-.384.99-.576 1.63-.576.714 0 1.297.235 1.749.703.452.466.679 1.11.679 1.934 0 .667-.101 1.193-.303 1.577a2.11 2.11 0 0 1-.874.889 2.53 2.53 0 0 1-1.25.317c-.726 0-1.314-.233-1.763-.698-.446-.465-.669-1.136-.669-2.012Zm.903 0c0 .664.144 1.162.434 1.494.29.33.655.493 1.094.493.436 0 .8-.166 1.089-.498.29-.332.434-.838.434-1.518 0-.641-.146-1.126-.44-1.455a1.38 1.38 0 0 0-1.083-.498c-.44 0-.804.164-1.094.493-.29.329-.434.825-.434 1.49ZM71.405 89v-.762c-.403.586-.952.88-1.645.88-.306 0-.593-.06-.86-.177-.263-.117-.46-.263-.59-.439a1.7 1.7 0 0 1-.269-.654c-.036-.173-.054-.446-.054-.82v-3.214h.88v2.876c0 .46.017.769.053.928a.927.927 0 0 0 .352.547c.178.13.4.195.663.195.264 0 .512-.066.743-.2.23-.137.394-.32.488-.552.098-.234.147-.573.147-1.015v-2.779h.878V89h-.786Zm2.168 0v-5.186h.791v.738c.381-.57.931-.855 1.65-.855.313 0 .6.057.86.171.264.11.46.257.59.44.131.182.222.398.274.649.033.163.05.448.05.855V89h-.88v-3.154c0-.358-.034-.625-.102-.801a.83.83 0 0 0-.367-.425 1.131 1.131 0 0 0-.61-.161c-.374 0-.698.119-.972.356-.27.238-.405.689-.405 1.353V89h-.879Zm7.486-.786.127.776a3.258 3.258 0 0 1-.665.078c-.319 0-.566-.05-.742-.151a.85.85 0 0 1-.37-.395c-.072-.166-.108-.513-.108-1.04v-2.984h-.645v-.684h.645V82.53l.874-.527v1.811h.884v.684h-.884v3.032c0 .25.014.412.044.484a.384.384 0 0 0 .151.17.599.599 0 0 0 .303.064c.097 0 .226-.011.386-.034Zm3.471-2.7c0-1.188.32-2.118.957-2.788.638-.674 1.462-1.011 2.471-1.011.66 0 1.257.158 1.787.474.53.315.934.756 1.211 1.323.28.563.42 1.203.42 1.919 0 .726-.147 1.375-.44 1.948a3.015 3.015 0 0 1-1.245 1.304 3.573 3.573 0 0 1-1.738.44 3.378 3.378 0 0 1-1.806-.49 3.143 3.143 0 0 1-1.207-1.332 4.04 4.04 0 0 1-.41-1.787Zm.977.014c0 .863.231 1.543.693 2.041.466.495 1.048.742 1.748.742.713 0 1.3-.25 1.758-.751.462-.502.693-1.213.693-2.134 0-.583-.099-1.09-.297-1.524a2.233 2.233 0 0 0-.865-1.01 2.32 2.32 0 0 0-1.274-.362c-.67 0-1.248.231-1.733.694-.482.459-.723 1.227-.723 2.304Zm6.982 5.46v-7.174h.801v.674c.189-.263.402-.46.64-.59.237-.134.525-.2.864-.2.443 0 .833.113 1.172.341.338.228.594.55.766.967.173.413.26.867.26 1.362 0 .53-.097 1.01-.289 1.436a2.15 2.15 0 0 1-.83.976 2.13 2.13 0 0 1-1.142.337c-.293 0-.557-.062-.791-.185a1.802 1.802 0 0 1-.572-.47v2.525h-.879Zm.796-4.552c0 .668.135 1.161.405 1.48.27.319.598.478.982.478.39 0 .724-.164 1-.493.28-.332.42-.844.42-1.538 0-.66-.136-1.155-.41-1.484-.27-.329-.594-.493-.971-.493-.374 0-.706.175-.996.527-.287.348-.43.856-.43 1.523Zm8.32.894.909.112c-.144.531-.409.943-.796 1.236-.388.293-.882.44-1.485.44-.758 0-1.36-.234-1.806-.7-.443-.468-.664-1.124-.664-1.967 0-.872.224-1.55.673-2.031.45-.482 1.032-.723 1.749-.723.693 0 1.259.236 1.699.708.439.472.659 1.136.659 1.992 0 .052-.002.13-.005.235h-3.867c.032.57.194 1.006.483 1.308.29.303.651.454 1.084.454.323 0 .598-.084.825-.253.228-.17.409-.44.542-.81Zm-2.885-1.42h2.895c-.039-.437-.15-.764-.332-.982a1.347 1.347 0 0 0-1.089-.508c-.403 0-.743.135-1.02.405-.274.27-.425.632-.454 1.084Zm4.902 3.09v-5.186h.791v.738c.381-.57.931-.855 1.65-.855.313 0 .599.057.86.171.264.11.46.257.591.44.13.182.221.398.273.649.033.163.049.448.049.855V89h-.879v-3.154c0-.358-.034-.625-.103-.801a.826.826 0 0 0-.366-.425 1.13 1.13 0 0 0-.61-.161c-.374 0-.698.119-.972.356-.27.238-.405.689-.405 1.353V89h-.879Zm5.571-6.147v-1.011h.879v1.01h-.879Zm0 6.147v-5.186h.879V89h-.879Zm2.222 0v-5.186h.791v.738c.381-.57.931-.855 1.65-.855.313 0 .599.057.86.171.263.11.46.257.591.44.13.182.221.398.273.649.033.163.049.448.049.855V89h-.879v-3.154c0-.358-.034-.625-.103-.801a.826.826 0 0 0-.366-.425 1.13 1.13 0 0 0-.61-.161c-.374 0-.698.119-.972.356-.27.238-.405.689-.405 1.353V89h-.879Zm5.405.43.855.127c.036.263.135.455.298.576.218.163.516.244.893.244.407 0 .721-.081.943-.244a1.2 1.2 0 0 0 .449-.684c.045-.179.067-.555.063-1.128-.384.453-.862.679-1.435.679-.713 0-1.265-.257-1.656-.772-.39-.514-.585-1.13-.585-1.85 0-.495.089-.95.268-1.367.179-.42.438-.744.776-.972a2.117 2.117 0 0 1 1.202-.342c.612 0 1.116.248 1.513.742v-.624h.811v4.482c0 .807-.083 1.379-.249 1.714a1.784 1.784 0 0 1-.781.8c-.355.196-.793.293-1.314.293-.618 0-1.118-.14-1.499-.42-.381-.276-.565-.694-.552-1.254Zm.728-3.116c0 .68.135 1.177.405 1.49.27.312.609.468 1.016.468a1.3 1.3 0 0 0 1.015-.463c.274-.313.411-.801.411-1.465 0-.635-.142-1.113-.425-1.436-.28-.322-.619-.483-1.016-.483-.391 0-.723.16-.996.478-.273.316-.41.786-.41 1.411Z" fill="#fff"/><path fill="#1E96FF" d="M154 66h126v40H154z"/><path d="m176.102 89 2.749-7.158h1.02l2.93 7.158h-1.079l-.835-2.168h-2.993L177.107 89h-1.005Zm2.065-2.94h2.427l-.747-1.982a19.699 19.699 0 0 1-.508-1.484 9.11 9.11 0 0 1-.386 1.367l-.786 2.1Zm8.662 1.04.864.113c-.094.596-.337 1.063-.727 1.401-.388.335-.864.503-1.431.503-.709 0-1.281-.23-1.714-.693-.429-.466-.644-1.131-.644-1.997 0-.56.093-1.05.278-1.47a1.93 1.93 0 0 1 .845-.942 2.512 2.512 0 0 1 1.24-.318c.563 0 1.024.144 1.382.43.358.283.587.687.688 1.21l-.854.133c-.082-.349-.226-.61-.435-.786a1.108 1.108 0 0 0-.747-.264c-.442 0-.802.16-1.079.478-.277.316-.415.818-.415 1.504 0 .697.134 1.203.4 1.519.267.316.616.473 1.045.473.345 0 .634-.105.865-.317.231-.211.377-.537.439-.976Zm5 0 .864.113c-.094.596-.337 1.063-.727 1.401-.388.335-.864.503-1.431.503-.709 0-1.281-.23-1.714-.693-.429-.466-.644-1.131-.644-1.997 0-.56.093-1.05.278-1.47a1.93 1.93 0 0 1 .845-.942 2.512 2.512 0 0 1 1.24-.318c.563 0 1.024.144 1.382.43.358.283.587.687.688 1.21l-.854.133c-.082-.349-.226-.61-.435-.786a1.108 1.108 0 0 0-.747-.264c-.442 0-.802.16-1.079.478-.277.316-.415.818-.415 1.504 0 .697.134 1.203.4 1.519.267.316.616.473 1.045.473.345 0 .634-.105.865-.317.231-.211.377-.537.439-.976Zm1.289-.693c0-.96.267-1.671.801-2.134.446-.384.99-.576 1.631-.576.713 0 1.295.235 1.748.703.452.466.679 1.11.679 1.934 0 .667-.101 1.193-.303 1.577-.199.381-.49.677-.874.889a2.533 2.533 0 0 1-1.25.317c-.726 0-1.314-.233-1.763-.698-.446-.465-.669-1.136-.669-2.012Zm.903 0c0 .664.145 1.162.435 1.494.29.33.654.493 1.094.493.436 0 .799-.166 1.089-.498.289-.332.434-.838.434-1.518 0-.641-.146-1.126-.439-1.455a1.38 1.38 0 0 0-1.084-.498c-.44 0-.804.164-1.094.493-.29.329-.435.825-.435 1.49ZM202.41 89v-.762c-.403.586-.952.88-1.645.88-.306 0-.593-.06-.86-.177-.263-.117-.46-.263-.591-.439a1.714 1.714 0 0 1-.268-.654c-.036-.173-.054-.446-.054-.82v-3.214h.879v2.876c0 .46.018.769.054.928a.925.925 0 0 0 .351.547 1.1 1.1 0 0 0 .664.195c.264 0 .511-.066.743-.2.231-.137.393-.32.488-.552.098-.234.146-.573.146-1.015v-2.779h.879V89h-.786Zm2.168 0v-5.186h.791v.738c.381-.57.931-.855 1.651-.855.312 0 .598.057.859.171.264.11.461.257.591.44.13.182.221.398.273.649.033.163.049.448.049.855V89h-.879v-3.154c0-.358-.034-.625-.102-.801a.833.833 0 0 0-.367-.425 1.13 1.13 0 0 0-.61-.161c-.374 0-.698.119-.972.356-.27.238-.405.689-.405 1.353V89h-.879Zm7.485-.786.127.776a3.25 3.25 0 0 1-.664.078c-.319 0-.566-.05-.742-.151a.85.85 0 0 1-.371-.395c-.072-.166-.107-.513-.107-1.04v-2.984h-.645v-.684h.645V82.53l.874-.527v1.811h.883v.684h-.883v3.032c0 .25.014.412.044.484a.382.382 0 0 0 .151.17.602.602 0 0 0 .303.064c.097 0 .226-.011.385-.034Zm2.417.786 2.749-7.158h1.021L221.18 89h-1.079l-.835-2.168h-2.994L215.486 89h-1.006Zm2.066-2.94h2.427l-.747-1.982a19.256 19.256 0 0 1-.508-1.484 9.11 9.11 0 0 1-.386 1.367l-.786 2.1Zm8.662 1.04.864.113c-.094.596-.337 1.063-.727 1.401-.388.335-.865.503-1.431.503-.71 0-1.281-.23-1.714-.693-.429-.466-.644-1.131-.644-1.997 0-.56.092-1.05.278-1.47a1.93 1.93 0 0 1 .845-.942 2.512 2.512 0 0 1 1.24-.318c.563 0 1.024.144 1.382.43.358.283.587.687.688 1.21l-.854.133c-.082-.349-.226-.61-.435-.786a1.108 1.108 0 0 0-.747-.264c-.443 0-.802.16-1.079.478-.277.316-.415.818-.415 1.504 0 .697.133 1.203.4 1.519.267.316.616.473 1.045.473.345 0 .633-.105.865-.317.231-.211.377-.537.439-.976Zm3.535 1.114.127.776a3.258 3.258 0 0 1-.664.078c-.319 0-.566-.05-.742-.151a.846.846 0 0 1-.371-.395c-.072-.166-.108-.513-.108-1.04v-2.984h-.644v-.684h.644V82.53l.874-.527v1.811h.884v.684h-.884v3.032c0 .25.015.412.044.484a.385.385 0 0 0 .152.17.595.595 0 0 0 .302.064c.098 0 .227-.011.386-.034Zm.869-5.361v-1.011h.879v1.01h-.879Zm0 6.147v-5.186h.879V89h-.879Zm3.662 0-1.972-5.186h.927l1.114 3.106c.12.335.231.683.332 1.045.078-.274.187-.602.327-.987l1.152-3.163h.904L234.095 89h-.821Zm6.944-.64c-.326.277-.64.472-.943.586a2.69 2.69 0 0 1-.966.171c-.57 0-1.008-.138-1.314-.415a1.385 1.385 0 0 1-.459-1.07c0-.253.057-.484.171-.693.117-.211.269-.38.454-.507.189-.127.401-.223.635-.288.172-.046.433-.09.781-.132.71-.085 1.232-.186 1.568-.303l.004-.23c0-.358-.083-.61-.249-.756-.224-.199-.558-.298-1.001-.298-.413 0-.719.073-.918.22-.195.143-.34.398-.434.766l-.859-.117c.078-.368.206-.664.385-.889.179-.228.438-.402.777-.522.338-.124.73-.186 1.176-.186.443 0 .803.052 1.079.156.277.105.481.237.611.396.13.156.221.355.273.596.03.15.044.42.044.81v1.172c0 .817.018 1.335.054 1.553.039.215.114.421.225.62h-.918a1.844 1.844 0 0 1-.176-.64Zm-.073-1.963c-.319.13-.798.241-1.436.332-.361.053-.617.111-.767.176a.759.759 0 0 0-.468.703c0 .235.088.43.263.586.179.157.44.235.782.235.338 0 .639-.073.903-.22.264-.15.457-.353.581-.61.094-.199.142-.492.142-.88v-.322Zm4.174 1.817.127.776a3.25 3.25 0 0 1-.664.078c-.319 0-.566-.05-.742-.151a.85.85 0 0 1-.371-.395c-.072-.166-.107-.513-.107-1.04v-2.984h-.645v-.684h.645V82.53l.874-.527v1.811h.883v.684h-.883v3.032c0 .25.014.412.043.484a.385.385 0 0 0 .152.17.597.597 0 0 0 .303.064c.097 0 .226-.011.385-.034Zm.869-5.361v-1.011h.879v1.01h-.879Zm0 6.147v-5.186h.879V89h-.879Zm1.895-2.593c0-.96.267-1.671.801-2.134.446-.384.989-.576 1.631-.576.713 0 1.295.235 1.748.703.452.466.678 1.11.678 1.934 0 .667-.101 1.193-.302 1.577-.199.381-.49.677-.874.889a2.533 2.533 0 0 1-1.25.317c-.726 0-1.314-.233-1.763-.698-.446-.465-.669-1.136-.669-2.012Zm.903 0c0 .664.145 1.162.435 1.494.29.33.654.493 1.094.493.436 0 .799-.166 1.089-.498.289-.332.434-.838.434-1.518 0-.641-.146-1.126-.439-1.455a1.38 1.38 0 0 0-1.084-.498c-.44 0-.804.164-1.094.493-.29.329-.435.825-.435 1.49ZM252.977 89v-5.186h.791v.738c.38-.57.931-.855 1.65-.855.312 0 .599.057.859.171.264.11.461.257.591.44a1.7 1.7 0 0 1 .274.649c.032.163.048.448.048.855V89h-.878v-3.154c0-.358-.035-.625-.103-.801a.826.826 0 0 0-.366-.425 1.133 1.133 0 0 0-.611-.161c-.374 0-.698.119-.971.356-.27.238-.406.689-.406 1.353V89h-.878Z" fill="#fff"/><path fill="#1E96FF" d="M20 116h126v40H20z"/><path d="m51.057 136.49.947.239c-.199.778-.557 1.373-1.074 1.783-.515.407-1.145.61-1.89.61-.771 0-1.4-.156-1.885-.469-.482-.315-.85-.771-1.103-1.367a4.896 4.896 0 0 1-.376-1.919c0-.745.141-1.395.425-1.948a2.93 2.93 0 0 1 1.215-1.265 3.558 3.558 0 0 1 1.739-.434c.716 0 1.318.182 1.806.547.489.364.829.877 1.02 1.538l-.932.219c-.166-.52-.407-.9-.722-1.137-.316-.238-.713-.357-1.192-.357-.55 0-1.01.132-1.382.396a2.089 2.089 0 0 0-.776 1.064c-.15.443-.225.9-.225 1.372 0 .609.088 1.141.264 1.597.18.452.456.791.83 1.016.374.224.78.337 1.216.337.53 0 .98-.153 1.348-.459.367-.306.616-.761.747-1.363Zm5.39 1.87c-.325.277-.64.472-.942.586-.3.114-.622.171-.967.171-.57 0-1.007-.138-1.313-.415a1.385 1.385 0 0 1-.46-1.069c0-.254.058-.485.172-.694.117-.211.268-.38.454-.507.188-.127.4-.223.634-.288.173-.046.433-.09.782-.132.71-.085 1.232-.186 1.567-.303l.005-.23c0-.358-.083-.61-.25-.756-.224-.199-.557-.298-1-.298-.413 0-.72.073-.918.22-.195.143-.34.398-.435.766l-.859-.117c.078-.368.207-.664.386-.889.179-.228.438-.402.776-.522.339-.124.73-.186 1.177-.186.443 0 .802.052 1.079.157.277.104.48.236.61.395.13.156.222.355.274.596.029.149.044.42.044.81v1.172c0 .817.018 1.335.053 1.553.04.215.114.421.225.62h-.918a1.865 1.865 0 0 1-.176-.64Zm-.073-1.963c-.319.131-.797.241-1.436.332-.36.053-.616.111-.766.176a.758.758 0 0 0-.469.703c0 .235.088.43.264.586.179.157.44.235.781.235.339 0 .64-.074.903-.22.264-.15.458-.353.581-.61.095-.199.142-.492.142-.879v-.323Zm1.904 1.055.87-.137c.048.349.183.616.405.801.224.186.537.279.937.279.404 0 .703-.082.899-.245.195-.166.293-.359.293-.581a.533.533 0 0 0-.26-.468c-.12-.079-.42-.178-.898-.298-.644-.163-1.092-.303-1.342-.42a1.344 1.344 0 0 1-.567-.493 1.336 1.336 0 0 1-.19-.699c0-.231.052-.444.156-.639.107-.199.252-.363.435-.493a1.76 1.76 0 0 1 .556-.254c.238-.072.492-.108.762-.108.407 0 .763.059 1.07.176.309.117.536.277.683.479.146.198.247.465.303.8l-.86.118a.934.934 0 0 0-.342-.625c-.185-.15-.449-.225-.79-.225-.404 0-.692.067-.865.2-.172.134-.259.29-.259.469 0 .114.036.216.108.307a.773.773 0 0 0 .337.235c.088.032.346.107.776.224.622.166 1.055.303 1.299.411a1.3 1.3 0 0 1 .581.459c.14.201.21.452.21.752 0 .293-.086.569-.259.83-.17.257-.415.457-.737.6a2.72 2.72 0 0 1-1.094.21c-.674 0-1.188-.14-1.543-.42-.351-.28-.576-.695-.674-1.245ZM63.63 139v-7.158h.879v2.568c.41-.475.927-.713 1.552-.713.385 0 .718.077 1.001.23a1.3 1.3 0 0 1 .606.625c.124.267.185.654.185 1.162V139h-.878v-3.286c0-.44-.096-.759-.288-.957-.19-.202-.458-.303-.806-.303-.26 0-.506.068-.737.205a1.14 1.14 0 0 0-.489.547c-.097.231-.146.55-.146.957V139h-.88Zm9.712 0-1.9-7.158h.972l1.089 4.692c.117.492.218.98.303 1.465.182-.765.29-1.206.322-1.323l1.362-4.834h1.143l1.025 3.623c.257.898.443 1.743.557 2.534.091-.452.21-.972.356-1.558l1.123-4.599h.953L78.684 139h-.913l-1.51-5.454a23.518 23.518 0 0 1-.224-.84 17.64 17.64 0 0 1-.21.84L74.31 139h-.967Zm8.086-6.147v-1.011h.879v1.011h-.88Zm0 6.147v-5.186h.879V139h-.88Zm4.14-.786.127.776a3.265 3.265 0 0 1-.664.078c-.319 0-.566-.05-.742-.151a.85.85 0 0 1-.371-.396c-.072-.166-.108-.512-.108-1.04v-2.983h-.644v-.684h.645v-1.284l.874-.527v1.811h.883v.684h-.883v3.032c0 .251.014.412.043.484a.392.392 0 0 0 .152.171.602.602 0 0 0 .303.063c.097 0 .226-.011.385-.034Zm.865.786v-7.158h.878v2.568c.41-.475.928-.713 1.553-.713.384 0 .718.077 1.001.23.283.149.485.358.606.625.123.267.185.654.185 1.162V139h-.879v-3.286c0-.44-.096-.759-.288-.957-.189-.202-.457-.303-.805-.303-.26 0-.507.068-.738.205-.228.134-.39.316-.488.547-.098.231-.147.55-.147.957V139h-.878Zm8.93 0v-.654c-.329.514-.812.771-1.45.771-.413 0-.794-.114-1.142-.342a2.268 2.268 0 0 1-.806-.952c-.189-.41-.283-.88-.283-1.411 0-.517.086-.986.258-1.406.173-.423.432-.747.777-.972a2.08 2.08 0 0 1 1.157-.337 1.738 1.738 0 0 1 1.43.713v-2.568h.875V139h-.816Zm-2.778-2.588c0 .664.14 1.161.42 1.489.28.329.61.494.991.494.384 0 .71-.157.977-.469.27-.316.405-.796.405-1.441 0-.709-.137-1.23-.41-1.562-.274-.332-.61-.498-1.011-.498-.39 0-.718.159-.981.478-.26.319-.391.822-.391 1.509Zm4.97 2.588v-5.186h.792v.787c.202-.368.387-.611.556-.728a.989.989 0 0 1 .567-.176c.296 0 .597.095.903.283l-.303.816a1.256 1.256 0 0 0-.644-.191.83.83 0 0 0-.518.176.927.927 0 0 0-.327.479 3.418 3.418 0 0 0-.146 1.025V139h-.88Zm6.724-.64c-.325.277-.639.472-.942.586-.3.114-.622.171-.967.171-.57 0-1.007-.138-1.313-.415a1.385 1.385 0 0 1-.459-1.069c0-.254.057-.485.171-.694.117-.211.268-.38.454-.507.188-.127.4-.223.634-.288.173-.046.433-.09.782-.132.709-.085 1.232-.186 1.567-.303l.005-.23c0-.358-.083-.61-.249-.756-.225-.199-.558-.298-1.001-.298-.413 0-.719.073-.918.22-.195.143-.34.398-.435.766l-.859-.117c.078-.368.207-.664.386-.889.179-.228.438-.402.776-.522a3.417 3.417 0 0 1 1.177-.186c.443 0 .802.052 1.079.157.277.104.48.236.61.395.131.156.222.355.274.596.029.149.044.42.044.81v1.172c0 .817.018 1.335.053 1.553.04.215.114.421.225.62h-.918a1.867 1.867 0 0 1-.176-.64Zm-.073-1.963c-.319.131-.797.241-1.435.332-.362.053-.617.111-.767.176a.76.76 0 0 0-.469.703c0 .235.088.43.264.586.179.157.439.235.781.235.339 0 .64-.074.903-.22.264-.15.458-.353.581-.61.095-.199.142-.492.142-.879v-.323Zm3.213 2.603-1.587-5.186h.908l.825 2.994.308 1.113.269-1.069.825-3.038h.903l.776 3.008.259.991.298-1.001.889-2.998h.854L111.325 139h-.913l-.825-3.105-.2-.884-1.05 3.989h-.918Zm9.653-.64c-.325.277-.639.472-.942.586-.3.114-.622.171-.967.171-.57 0-1.007-.138-1.313-.415a1.385 1.385 0 0 1-.459-1.069c0-.254.057-.485.171-.694.117-.211.268-.38.454-.507.188-.127.4-.223.634-.288.173-.046.433-.09.782-.132.709-.085 1.232-.186 1.567-.303l.005-.23c0-.358-.083-.61-.249-.756-.225-.199-.558-.298-1.001-.298-.414 0-.719.073-.918.22-.195.143-.34.398-.435.766l-.859-.117c.078-.368.207-.664.386-.889.179-.228.438-.402.776-.522a3.417 3.417 0 0 1 1.177-.186c.443 0 .802.052 1.079.157.277.104.48.236.61.395.131.156.222.355.274.596.029.149.044.42.044.81v1.172c0 .817.018 1.335.053 1.553.039.215.114.421.225.62h-.918a1.867 1.867 0 0 1-.176-.64Zm-.073-1.963c-.319.131-.798.241-1.436.332-.361.053-.616.111-.766.176a.76.76 0 0 0-.469.703c0 .235.088.43.264.586.179.157.439.235.781.235.339 0 .64-.074.903-.22.264-.15.458-.353.581-.61.095-.199.142-.492.142-.879v-.323Zm2.236 2.603v-7.158h.879V139h-.879Z" fill="#fff"/><path fill="#1E96FF" d="M154 116h126v40H154z"/><path d="m181.05 139 2.749-7.158h1.02l2.93 7.158h-1.079l-.835-2.168h-2.993l-.786 2.168h-1.006Zm2.065-2.939h2.427l-.747-1.983a19.714 19.714 0 0 1-.508-1.484c-.091.459-.22.914-.386 1.367l-.786 2.1Zm8.662 1.04.865.112c-.095.596-.337 1.063-.728 1.401-.387.336-.864.503-1.431.503-.709 0-1.281-.231-1.713-.693-.43-.466-.645-1.131-.645-1.997 0-.56.093-1.05.278-1.47a1.93 1.93 0 0 1 .845-.942 2.508 2.508 0 0 1 1.24-.318c.563 0 1.024.143 1.382.43.358.283.588.687.689 1.211l-.855.132c-.081-.349-.226-.611-.434-.786a1.112 1.112 0 0 0-.748-.264c-.442 0-.802.159-1.079.478-.276.316-.415.817-.415 1.504 0 .697.134 1.203.401 1.519.267.316.615.474 1.045.474.345 0 .633-.106.864-.318.231-.211.377-.537.439-.976Zm5 0 .865.112c-.095.596-.337 1.063-.728 1.401-.387.336-.864.503-1.431.503-.709 0-1.281-.231-1.713-.693-.43-.466-.645-1.131-.645-1.997 0-.56.093-1.05.278-1.47a1.93 1.93 0 0 1 .845-.942 2.508 2.508 0 0 1 1.24-.318c.563 0 1.024.143 1.382.43.358.283.588.687.689 1.211l-.855.132c-.081-.349-.226-.611-.434-.786a1.112 1.112 0 0 0-.748-.264c-.442 0-.802.159-1.079.478-.276.316-.415.817-.415 1.504 0 .697.134 1.203.401 1.519.267.316.615.474 1.045.474.345 0 .633-.106.864-.318.231-.211.377-.537.439-.976Zm1.289-.694c0-.96.267-1.671.801-2.134.446-.384.99-.576 1.631-.576.713 0 1.296.235 1.748.703.453.466.679 1.11.679 1.934 0 .667-.101 1.193-.303 1.577a2.11 2.11 0 0 1-.874.889 2.536 2.536 0 0 1-1.25.317c-.726 0-1.313-.233-1.763-.698-.446-.466-.669-1.136-.669-2.012Zm.904 0c0 .664.145 1.162.434 1.494.29.329.655.494 1.094.494.436 0 .799-.166 1.089-.499.29-.332.434-.838.434-1.518 0-.641-.146-1.126-.439-1.455a1.38 1.38 0 0 0-1.084-.498c-.439 0-.804.164-1.094.493-.289.329-.434.825-.434 1.489Zm8.388 2.593v-.762c-.403.586-.952.879-1.645.879-.306 0-.593-.058-.859-.176-.264-.117-.461-.263-.591-.439a1.698 1.698 0 0 1-.269-.654c-.036-.173-.054-.446-.054-.821v-3.213h.879v2.876c0 .459.018.769.054.928a.926.926 0 0 0 .352.547c.179.13.4.195.664.195.263 0 .511-.066.742-.2.231-.137.394-.32.488-.552.098-.234.147-.573.147-1.015v-2.779h.879V139h-.787Zm2.168 0v-5.186h.791v.738c.381-.57.931-.855 1.651-.855.312 0 .599.057.859.171.264.111.461.257.591.44.13.182.221.398.273.649.033.163.049.448.049.855V139h-.879v-3.154c0-.358-.034-.625-.102-.801a.835.835 0 0 0-.366-.425 1.137 1.137 0 0 0-.611-.161c-.374 0-.698.119-.971.356-.271.238-.406.689-.406 1.353V139h-.879Zm7.486-.786.127.776a3.272 3.272 0 0 1-.664.078c-.319 0-.567-.05-.743-.151a.856.856 0 0 1-.371-.396c-.071-.166-.107-.512-.107-1.04v-2.983h-.645v-.684h.645v-1.284l.874-.527v1.811h.884v.684h-.884v3.032c0 .251.015.412.044.484a.39.39 0 0 0 .151.171.605.605 0 0 0 .303.063c.098 0 .226-.011.386-.034Zm3.759.786v-7.158h2.466c.557 0 .982.034 1.275.102.41.095.76.266 1.05.513.377.319.659.728.844 1.226.189.494.283 1.061.283 1.699a5 5 0 0 1-.19 1.445 3.56 3.56 0 0 1-.488 1.045c-.199.274-.417.49-.655.649a2.632 2.632 0 0 1-.854.357 4.87 4.87 0 0 1-1.148.122h-2.583Zm.948-.845h1.528c.472 0 .842-.044 1.108-.132.271-.087.485-.211.645-.371.225-.224.399-.525.522-.903.127-.381.191-.841.191-1.382 0-.749-.124-1.323-.371-1.723-.244-.404-.542-.674-.894-.811-.254-.098-.662-.146-1.225-.146h-1.504v5.468Zm9.717-.825.908.112c-.143.531-.409.943-.796 1.236-.388.293-.882.439-1.485.439-.758 0-1.36-.233-1.806-.698-.443-.469-.664-1.125-.664-1.968 0-.872.224-1.549.674-2.031.449-.482 1.032-.723 1.748-.723.693 0 1.259.236 1.699.708.439.472.659 1.136.659 1.992 0 .053-.002.131-.005.235h-3.867c.033.569.194 1.006.483 1.308.29.303.651.455 1.084.455.323 0 .598-.085.826-.254.227-.17.408-.44.542-.811Zm-2.886-1.421h2.895c-.039-.436-.149-.763-.332-.981a1.346 1.346 0 0 0-1.089-.508c-.403 0-.743.135-1.02.405-.274.27-.425.632-.454 1.084Zm4.902 5.078v-7.173h.801v.674c.189-.263.402-.46.64-.591.237-.133.525-.2.864-.2.443 0 .833.114 1.172.342.338.228.594.55.766.967.173.413.259.867.259 1.362 0 .531-.096 1.009-.288 1.436a2.15 2.15 0 0 1-.83.976 2.126 2.126 0 0 1-1.143.337c-.293 0-.556-.062-.791-.185a1.809 1.809 0 0 1-.571-.469v2.524h-.879Zm.796-4.55c0 .667.135 1.16.405 1.479.271.319.598.479.982.479.39 0 .724-.165 1.001-.494.28-.332.42-.844.42-1.538 0-.661-.137-1.155-.41-1.484-.271-.329-.595-.493-.972-.493-.375 0-.707.176-.996.527-.287.348-.43.856-.43 1.524Zm4.443-.03c0-.96.267-1.671.801-2.134.446-.384.99-.576 1.631-.576.713 0 1.296.235 1.748.703.453.466.679 1.11.679 1.934 0 .667-.101 1.193-.303 1.577a2.11 2.11 0 0 1-.874.889 2.536 2.536 0 0 1-1.25.317c-.726 0-1.313-.233-1.763-.698-.446-.466-.669-1.136-.669-2.012Zm.904 0c0 .664.145 1.162.434 1.494.29.329.655.494 1.094.494.436 0 .799-.166 1.089-.499.29-.332.434-.838.434-1.518 0-.641-.146-1.126-.439-1.455a1.38 1.38 0 0 0-1.084-.498c-.439 0-.804.164-1.094.493-.289.329-.434.825-.434 1.489Zm4.638 1.045.87-.137c.048.349.183.616.405.801.224.186.537.279.937.279.404 0 .703-.082.899-.245.195-.166.293-.359.293-.581a.535.535 0 0 0-.259-.468c-.121-.079-.42-.178-.899-.298-.644-.163-1.092-.303-1.342-.42a1.347 1.347 0 0 1-.567-.493 1.334 1.334 0 0 1-.19-.699c0-.231.052-.444.156-.639.108-.199.252-.363.435-.493a1.76 1.76 0 0 1 .556-.254c.238-.072.492-.108.762-.108.407 0 .763.059 1.069.176.31.117.538.277.684.479.146.198.247.465.303.8l-.86.118a.936.936 0 0 0-.341-.625c-.186-.15-.45-.225-.791-.225-.404 0-.692.067-.865.2-.172.134-.259.29-.259.469 0 .114.036.216.108.307a.775.775 0 0 0 .337.235c.088.032.347.107.776.224.622.166 1.055.303 1.299.411.247.104.441.257.581.459.14.201.21.452.21.752 0 .293-.086.569-.259.83a1.66 1.66 0 0 1-.737.6 2.72 2.72 0 0 1-1.094.21c-.674 0-1.188-.14-1.543-.42-.351-.28-.576-.695-.674-1.245Zm5.357-4.599v-1.011h.879v1.011h-.879Zm0 6.147v-5.186h.879V139h-.879Zm4.14-.786.127.776a3.256 3.256 0 0 1-.664.078c-.319 0-.566-.05-.742-.151a.851.851 0 0 1-.371-.396c-.072-.166-.107-.512-.107-1.04v-2.983h-.645v-.684h.645v-1.284l.874-.527v1.811h.883v.684h-.883v3.032c0 .251.014.412.044.484a.39.39 0 0 0 .151.171.605.605 0 0 0 .303.063c.097 0 .226-.011.385-.034Z" fill="#fff"/></svg>