<svg width="300" height="180" viewBox="0 0 300 180" fill="none" xmlns="http://www.w3.org/2000/svg">
<rect width="300" height="180" fill="url(#paint0_linear_5721_44)"/>
<path d="M113.207 38L109.105 20.8203H112.656L115.246 32.6211L118.387 20.8203H122.512L125.523 32.8203L128.16 20.8203H131.652L127.48 38H123.801L120.379 25.1562L116.969 38H113.207ZM132.203 31.6016C132.203 30.5078 132.473 29.4492 133.012 28.4258C133.551 27.4023 134.312 26.6211 135.297 26.082C136.289 25.543 137.395 25.2734 138.613 25.2734C140.496 25.2734 142.039 25.8867 143.242 27.1133C144.445 28.332 145.047 29.875 145.047 31.7422C145.047 33.625 144.438 35.1875 143.219 36.4297C142.008 37.6641 140.48 38.2812 138.637 38.2812C137.496 38.2812 136.406 38.0234 135.367 37.5078C134.336 36.9922 133.551 36.2383 133.012 35.2461C132.473 34.2461 132.203 33.0312 132.203 31.6016ZM135.578 31.7773C135.578 33.0117 135.871 33.957 136.457 34.6133C137.043 35.2695 137.766 35.5977 138.625 35.5977C139.484 35.5977 140.203 35.2695 140.781 34.6133C141.367 33.957 141.66 33.0039 141.66 31.7539C141.66 30.5352 141.367 29.5977 140.781 28.9414C140.203 28.2852 139.484 27.957 138.625 27.957C137.766 27.957 137.043 28.2852 136.457 28.9414C135.871 29.5977 135.578 30.543 135.578 31.7773ZM150.789 38H147.496V25.5547H150.555V27.3242C151.078 26.4883 151.547 25.9375 151.961 25.6719C152.383 25.4062 152.859 25.2734 153.391 25.2734C154.141 25.2734 154.863 25.4805 155.559 25.8945L154.539 28.7656C153.984 28.4062 153.469 28.2266 152.992 28.2266C152.531 28.2266 152.141 28.3555 151.82 28.6133C151.5 28.8633 151.246 29.3203 151.059 29.9844C150.879 30.6484 150.789 32.0391 150.789 34.1562V38ZM168.402 38H165.344V36.1719C164.836 36.8828 164.234 37.4141 163.539 37.7656C162.852 38.1094 162.156 38.2812 161.453 38.2812C160.023 38.2812 158.797 37.707 157.773 36.5586C156.758 35.4023 156.25 33.793 156.25 31.7305C156.25 29.6211 156.746 28.0195 157.738 26.9258C158.73 25.8242 159.984 25.2734 161.5 25.2734C162.891 25.2734 164.094 25.8516 165.109 27.0078V20.8203H168.402V38ZM159.613 31.5078C159.613 32.8359 159.797 33.7969 160.164 34.3906C160.695 35.25 161.438 35.6797 162.391 35.6797C163.148 35.6797 163.793 35.3594 164.324 34.7188C164.855 34.0703 165.121 33.1055 165.121 31.8242C165.121 30.3945 164.863 29.3672 164.348 28.7422C163.832 28.1094 163.172 27.793 162.367 27.793C161.586 27.793 160.93 28.1055 160.398 28.7305C159.875 29.3477 159.613 30.2734 159.613 31.5078ZM171.66 38V20.8203H174.953V38H171.66ZM185.547 34.0391L188.828 34.5898C188.406 35.793 187.738 36.7109 186.824 37.3438C185.918 37.9688 184.781 38.2812 183.414 38.2812C181.25 38.2812 179.648 37.5742 178.609 36.1602C177.789 35.0273 177.379 33.5977 177.379 31.8711C177.379 29.8086 177.918 28.1953 178.996 27.0312C180.074 25.8594 181.438 25.2734 183.086 25.2734C184.938 25.2734 186.398 25.8867 187.469 27.1133C188.539 28.332 189.051 30.2031 189.004 32.7266H180.754C180.777 33.7031 181.043 34.4648 181.551 35.0117C182.059 35.5508 182.691 35.8203 183.449 35.8203C183.965 35.8203 184.398 35.6797 184.75 35.3984C185.102 35.1172 185.367 34.6641 185.547 34.0391ZM185.734 30.7109C185.711 29.7578 185.465 29.0352 184.996 28.543C184.527 28.043 183.957 27.793 183.285 27.793C182.566 27.793 181.973 28.0547 181.504 28.5781C181.035 29.1016 180.805 29.8125 180.812 30.7109H185.734Z" fill="#102753"/>
<rect width="40" height="40" transform="translate(40 64)" fill="#CDCDCD"/>
<path d="M54.7383 76.6836H60.4609C61.5938 76.6836 62.4368 76.7324 62.9902 76.8301C63.5501 76.9212 64.0482 77.1165 64.4844 77.416C64.9271 77.7155 65.2949 78.1159 65.5879 78.6172C65.8809 79.112 66.0273 79.6686 66.0273 80.2871C66.0273 80.9577 65.8451 81.5729 65.4805 82.1328C65.1224 82.6927 64.6341 83.1126 64.0156 83.3926C64.888 83.6465 65.5586 84.0794 66.0273 84.6914C66.4961 85.3034 66.7305 86.0228 66.7305 86.8496C66.7305 87.5007 66.5775 88.1354 66.2715 88.7539C65.972 89.3659 65.5586 89.8574 65.0312 90.2285C64.5104 90.5931 63.8659 90.8177 63.0977 90.9023C62.6159 90.9544 61.4538 90.987 59.6113 91H54.7383V76.6836ZM57.6289 79.0664V82.377H59.5234C60.6497 82.377 61.3496 82.3607 61.623 82.3281C62.1178 82.2695 62.5052 82.1003 62.7852 81.8203C63.0716 81.5339 63.2148 81.1595 63.2148 80.6973C63.2148 80.2546 63.0911 79.8965 62.8438 79.623C62.6029 79.3431 62.2415 79.1738 61.7598 79.1152C61.4733 79.0827 60.6497 79.0664 59.2891 79.0664H57.6289ZM57.6289 84.7598V88.5879H60.3047C61.3464 88.5879 62.0072 88.5586 62.2871 88.5C62.7168 88.4219 63.0651 88.2331 63.332 87.9336C63.6055 87.6276 63.7422 87.2207 63.7422 86.7129C63.7422 86.2832 63.638 85.9186 63.4297 85.6191C63.2214 85.3197 62.9186 85.1016 62.5215 84.9648C62.1309 84.8281 61.278 84.7598 59.9629 84.7598H57.6289Z" fill="white"/>
<rect width="40" height="40" transform="translate(40 116)" fill="#227615"/>
<path d="M54.7383 143V128.684H60.8223C62.3522 128.684 63.4622 128.814 64.1523 129.074C64.849 129.328 65.4056 129.784 65.8223 130.441C66.2389 131.099 66.4473 131.851 66.4473 132.697C66.4473 133.771 66.1315 134.66 65.5 135.363C64.8685 136.06 63.9245 136.499 62.668 136.682C63.293 137.046 63.8073 137.447 64.2109 137.883C64.6211 138.319 65.1712 139.094 65.8613 140.207L67.6094 143H64.1523L62.0625 139.885C61.3203 138.771 60.8125 138.072 60.5391 137.785C60.2656 137.492 59.9759 137.294 59.6699 137.189C59.3639 137.079 58.8789 137.023 58.2148 137.023H57.6289V143H54.7383ZM57.6289 134.738H59.7676C61.1543 134.738 62.0202 134.68 62.3652 134.562C62.7103 134.445 62.9805 134.243 63.1758 133.957C63.3711 133.671 63.4688 133.312 63.4688 132.883C63.4688 132.401 63.3385 132.014 63.0781 131.721C62.8242 131.421 62.4629 131.232 61.9941 131.154C61.7598 131.122 61.0566 131.105 59.8848 131.105H57.6289V134.738Z" fill="white"/>
<rect width="40" height="40" transform="translate(85 64)" fill="#F2D92E"/>
<path d="M99.7383 91V76.6836H105.822C107.352 76.6836 108.462 76.8138 109.152 77.0742C109.849 77.3281 110.406 77.7839 110.822 78.4414C111.239 79.099 111.447 79.8509 111.447 80.6973C111.447 81.7715 111.132 82.6602 110.5 83.3633C109.868 84.0599 108.924 84.4993 107.668 84.6816C108.293 85.0462 108.807 85.4466 109.211 85.8828C109.621 86.319 110.171 87.0938 110.861 88.207L112.609 91H109.152L107.062 87.8848C106.32 86.7715 105.812 86.0716 105.539 85.7852C105.266 85.4922 104.976 85.2936 104.67 85.1895C104.364 85.0788 103.879 85.0234 103.215 85.0234H102.629V91H99.7383ZM102.629 82.7383H104.768C106.154 82.7383 107.02 82.6797 107.365 82.5625C107.71 82.4453 107.98 82.2435 108.176 81.957C108.371 81.6706 108.469 81.3125 108.469 80.8828C108.469 80.401 108.339 80.0137 108.078 79.7207C107.824 79.4212 107.463 79.2324 106.994 79.1543C106.76 79.1217 106.057 79.1055 104.885 79.1055H102.629V82.7383Z" fill="white"/>
<rect width="40" height="40" transform="translate(85 116)" fill="#227615"/>
<path d="M99.7852 143V128.684H110.4V131.105H102.676V134.279H109.863V136.691H102.676V140.588H110.674V143H99.7852Z" fill="white"/>
<rect width="40" height="40" transform="translate(130 64)" fill="#227615"/>
<path d="M157.639 91H154.494L153.244 87.748H147.521L146.34 91H143.273L148.85 76.6836H151.906L157.639 91ZM152.316 85.3359L150.344 80.0234L148.41 85.3359H152.316Z" fill="white"/>
<rect width="40" height="40" transform="translate(130 116)" fill="#227615"/>
<path d="M157.639 143H154.494L153.244 139.748H147.521L146.34 143H143.273L148.85 128.684H151.906L157.639 143ZM152.316 137.336L150.344 132.023L148.41 137.336H152.316Z" fill="white"/>
<rect width="40" height="40" transform="translate(175 64)" fill="#CDCDCD"/>
<path d="M189.768 91V76.6836H192.658V83.041L198.498 76.6836H202.385L196.994 82.2598L202.678 91H198.938L195.002 84.2812L192.658 86.6738V91H189.768Z" fill="white"/>
<rect width="40" height="40" transform="translate(175 116)" fill="#227615"/>
<path d="M198.889 137.736L201.691 138.625C201.262 140.188 200.546 141.35 199.543 142.111C198.547 142.867 197.281 143.244 195.744 143.244C193.843 143.244 192.281 142.596 191.057 141.301C189.833 139.999 189.221 138.221 189.221 135.969C189.221 133.586 189.836 131.737 191.066 130.422C192.297 129.1 193.915 128.439 195.92 128.439C197.671 128.439 199.094 128.957 200.188 129.992C200.839 130.604 201.327 131.483 201.652 132.629L198.791 133.312C198.622 132.57 198.267 131.984 197.727 131.555C197.193 131.125 196.542 130.91 195.773 130.91C194.712 130.91 193.85 131.291 193.186 132.053C192.528 132.814 192.199 134.048 192.199 135.754C192.199 137.564 192.525 138.853 193.176 139.621C193.827 140.389 194.673 140.773 195.715 140.773C196.483 140.773 197.144 140.529 197.697 140.041C198.251 139.553 198.648 138.785 198.889 137.736Z" fill="white"/>
<rect width="40" height="40" transform="translate(220 64)" fill="#F2D92E"/>
<path d="M234.785 91V76.6836H245.4V79.1055H237.676V82.2793H244.863V84.6914H237.676V88.5879H245.674V91H234.785Z" fill="white"/>
<rect width="40" height="40" transform="translate(220 116)" fill="#227615"/>
<path d="M239.064 143V131.105H234.816V128.684H246.193V131.105H241.955V143H239.064Z" fill="white"/>
<defs>
<linearGradient id="paint0_linear_5721_44" x1="0" y1="0" x2="300" y2="180" gradientUnits="userSpaceOnUse">
<stop stop-color="#F1E7E9"/>
<stop offset="1" stop-color="#E5EEFD"/>
</linearGradient>
</defs>
</svg>
