<svg width="300" height="180" viewBox="0 0 300 180" fill="none" xmlns="http://www.w3.org/2000/svg">
<g clip-path="url(#clip0_1329_7)">
<rect width="300" height="180" fill="#F2F2F2"/>
<text fill="black" xml:space="preserve" style="white-space: pre" font-family="Courier New" font-size="14" font-weight="bold" letter-spacing="0em"><tspan x="78.5303" y="35.2256">Welcome to Tara&#x2019;s </tspan><tspan x="112.163" y="51.2256">Portfolio</tspan></text>
<text fill="black" xml:space="preserve" style="white-space: pre" font-family="Courier New" font-size="10" font-weight="bold" letter-spacing="0em"><tspan x="29.9766" y="90.1611">About Me</tspan></text>
<text fill="black" xml:space="preserve" style="white-space: pre" font-family="Courier New" font-size="10" font-weight="bold" letter-spacing="0em"><tspan x="131.982" y="90.1611">Skills</tspan></text>
<text fill="black" xml:space="preserve" style="white-space: pre" font-family="Courier New" font-size="10" font-weight="bold" letter-spacing="0em"><tspan x="221.977" y="90.1611">Projects</tspan></text>
<line y1="101.5" x2="300" y2="101.5" stroke="black" stroke-dasharray="3 3"/>
<rect x="109" y="119" width="82" height="82" rx="41" fill="#D9D9D9"/>
<rect width="32" height="32" transform="translate(134 144)" fill="#D9D9D9"/>
<path d="M160.667 149.333H139.333C137.861 149.333 136.667 150.527 136.667 152V168C136.667 169.473 137.861 170.667 139.333 170.667H160.667C162.139 170.667 163.333 169.473 163.333 168V152C163.333 150.527 162.139 149.333 160.667 149.333Z" stroke="#AAA9A9" stroke-width="2" stroke-linecap="round" stroke-linejoin="round"/>
<path d="M136.667 165.333L146 158.667L152.667 164L156.667 161.333L163.333 166.667" stroke="#AAA9A9" stroke-width="2" stroke-linecap="round" stroke-linejoin="round"/>
<path d="M154.667 157.333C155.771 157.333 156.667 156.438 156.667 155.333C156.667 154.229 155.771 153.333 154.667 153.333C153.562 153.333 152.667 154.229 152.667 155.333C152.667 156.438 153.562 157.333 154.667 157.333Z" fill="#AAA9A9"/>
</g>
<defs>
<clipPath id="clip0_1329_7">
<rect width="300" height="180" fill="white"/>
</clipPath>
</defs>
</svg>
