<svg id="Layer_1" data-name="Layer 1" xmlns="http://www.w3.org/2000/svg" xmlns:xlink="http://www.w3.org/1999/xlink" viewBox="0 0 400 240"><defs><style>.cls-1{fill:none;}.cls-2{fill:#4d4d87;}.cls-3{clip-path:url(#clip-path);}.cls-4{fill:#3e416d;}.cls-5{fill:#646aa1;}.cls-6{fill:#d9e8fb;}.cls-7{fill:#bfdaf9;}.cls-8{fill:#96bcef;}.cls-9{fill:#f8f9fe;}.cls-10{fill:#d7465f;}.cls-11{fill:#e35067;}.cls-12{fill:#f05a6e;}.cls-13{fill:#ffab00;}.cls-14{fill:#ffd630;}</style><clipPath id="clip-path"><rect class="cls-1" y="0.07" width="400" height="240"/></clipPath></defs><title>challenges</title><rect class="cls-2" y="-0.07" width="400" height="240"/><g class="cls-3"><polygon class="cls-4" points="360.33 61.33 362 96.5 404.23 69.7 405.16 25.43 360.33 61.33"/><path class="cls-4" d="M328,43.84c-.37.56,0,36.28,0,36.28l-48,33.86-24-23.6Z"/><path class="cls-4" d="M364,117.46c.46,2.1,0,33.41,0,33.41l27.41,16.69V131.29l10.63-4.1V87.66Z"/><path class="cls-4" d="M279.93,131.5c1.7,1,1.88,5.74,1.88,8.53v28.84l51.91-33.31L332.2,96.5Z"/><polygon class="cls-4" points="266 31.38 266 69.7 301.17 43.1 301.39 6.08 266 31.38"/><polygon class="cls-4" points="221.81 6.63 221.81 37.52 196.79 24.21 220.79 6.63 221.81 6.63"/><polygon class="cls-4" points="241.01 48.79 241.01 87.66 223.01 96.14 223.01 128.87 203.32 148.56 196.05 82.73 241.01 48.79"/><path class="cls-4" d="M183.56,99.81c2.79,1.67,3.2,5.43,3.2,7.8v43.26L206,138.73s-.93-29.19-.69-38.92c.07-3.06.69-10.41-1.58-12.13C203,87.17,183.56,99.81,183.56,99.81Z"/><path class="cls-4" d="M353.07,225.52v20.93s-29.4-2.42-28.84-2.61S353.07,225.52,353.07,225.52Z"/><path class="cls-4" d="M388.84,197.13c.67.5,1.91.49,2.07,3.69l-.63,30.93L408,240.07l.75-56.69Z"/><polygon class="cls-4" points="336.7 152.68 334.85 180.77 314.19 165.89 336.7 152.68"/><path class="cls-4" d="M267.49,225.52a6.73,6.73,0,0,1,3.44,5.58c0,1.86.47,12.74.47,12.74l30.23-1.58s31.91-25.39,32-25.67,1.11-29,1.21-31.44a49.32,49.32,0,0,0-.38-6.19Z"/><path class="cls-4" d="M237.91,207.19c-.37.56,0,36.65,0,36.65H186.76Z"/><path class="cls-4" d="M242.3,160.76c1.47,1.55,1.33,3.92,1.33,7.27v29l17.16,5.11,1-53.11Z"/><path class="cls-4" d="M174,121.67c2.24,1.43,1.55,7.87,1.55,11.28v29.64l-8.79,1v28.87l-44-21.77-1.39-13.62Z"/><polygon class="cls-4" points="160.05 51.14 160.09 115.66 83.3 200.44 62.09 189.33 29.91 167.56 67.86 112.5 93.72 92.08 160.05 51.14"/><path class="cls-2" d="M84.05,165.89v72.19l80.37,15.07s1.17-29.89,1.17-31.75a5.4,5.4,0,0,0-2.57-4.67l-36.5-33.36Z"/><path class="cls-4" d="M162,216.12c2.54,1.6,4,3.35,4,6.42s-.41,19.72-.41,19.72L221.81,200V182.82a61.71,61.71,0,0,0-1.28-7.45Z"/><polygon class="cls-4" points="132.09 225.26 132.09 256.87 96.89 256.87 96.89 236.22 132.09 225.26"/><polygon class="cls-4" points="15.1 227.84 15.1 247.94 35.6 247.94 43.98 239.56 15.1 227.84"/><path class="cls-4" d="M87,200.44c-.15.63,0,37.64,0,37.64l-12,12L43.3,228l28.28-23.26Z"/><polygon class="cls-2" points="108.68 106 109.91 149.7 146 125.33 118.47 104.68 108.68 106"/><path class="cls-4" d="M116.52,22.09c1.92,1.15,3.34,3.15,3.53,7.06s.28,32.18.28,32.18l17-9.95L135.5,12.19Z"/><path class="cls-4" d="M80,21.15l17-16.33L100,78,80,90.38,79,29.24a8.52,8.52,0,0,0-3.41-6.09Z"/><polygon class="cls-4" points="16.7 35.66 16.7 78.45 -6.37 91.47 -9.35 47.75 16.7 35.66"/><polygon class="cls-4" points="73.86 53.89 73.86 93.04 56.33 131.29 -2.65 168.68 -0.06 97.05 73.86 53.89"/><path class="cls-5" d="M110,107.66l24.84,14.9a3,3,0,0,1,.19,5L85.26,162.9a3,3,0,0,0,.14,5l79.18,49.84a3,3,0,0,0,3.37-.12l52-38a3,3,0,0,0-.15-4.94l-13.37-8.59a3,3,0,0,1-.14-5l15.52-11.31a3,3,0,0,1,3.4-.09L242.3,160.9a3,3,0,0,0,3.21,0l14.86-9.13a3,3,0,0,0,0-5.14l-37.28-22a3,3,0,0,0-3.24.12L168,161a3,3,0,0,0,0,4.91l12.37,8.75a3,3,0,0,1,0,4.87l-14,10.29a3,3,0,0,1-3.28.18l-38.7-22.45a3,3,0,0,1-.25-5l50-35.82a3,3,0,0,0-.18-5l-47.7-29.14a3,3,0,0,0-3.37.16l-13.2,10A3,3,0,0,0,110,107.66Z"/><path class="cls-5" d="M144.93,39l13.82,9.14a3,3,0,0,1,.05,5L77.29,109.35a3,3,0,0,0,.06,5l13.84,9a3,3,0,0,1,.06,5L40.3,163.52a3,3,0,0,0,.09,5l45.28,29a3,3,0,0,1,.19,4.92L55.7,225.19a3,3,0,0,0,.36,5L72,239a3,3,0,0,0,3.12-.14L112,213.93a3,3,0,0,1,3.17-.12l15.38,8.89a3,3,0,0,1,.25,5l-51.51,37a3,3,0,0,1-3.25.16L16.58,230.3a3,3,0,0,1-.25-5l30.49-22.16a3,3,0,0,0-.24-5L1.41,171.36a3,3,0,0,1-.25-5L51.7,129.31a3,3,0,0,0-.18-5l-11.75-7.41a3,3,0,0,1-.14-5l101.89-72.9A3,3,0,0,1,144.93,39Z"/><path class="cls-5" d="M161.51,86.62l24.84,14.86a3,3,0,0,0,3.12,0l14.09-8.75a3,3,0,0,0,.12-5l-3.14-2.16a3,3,0,0,1-.12-4.87l39.43-29.82a3,3,0,0,0-.21-4.92L205.88,24.53a3,3,0,0,1-.15-5L219.79,9.39a3,3,0,0,1,3.29-.15l40.71,24a3,3,0,0,0,3.32-.18L300.19,8.5A3,3,0,0,0,300,3.55l-14.9-9.29a3,3,0,0,0-3.46.2L266,6.94a3,3,0,0,1-3.41.23L221.62-17.38a3,3,0,0,0-3.32.16L166.66,21a3,3,0,0,0,.24,5l33.82,20.3a3,3,0,0,1,.28,5L161.22,81.66A3,3,0,0,0,161.51,86.62Z"/><path class="cls-5" d="M332.92,128.75,281.74,166a3,3,0,0,0,.31,5l12.57,7a3,3,0,0,1,.32,5l-24.31,18a3,3,0,0,1-3.26.2l-30.09-17a3,3,0,0,0-3.24.18l-89.9,65a3,3,0,0,0,.17,5l43.5,27.32a3,3,0,0,1,.23,4.93l-29.5,22.54a3,3,0,0,0,.27,4.95l15.54,9.41a3,3,0,0,0,3.34-.16l51.1-37.92a3,3,0,0,0-.21-5l-45.07-27.85a3,3,0,0,1-.15-5l53.08-37.19a3,3,0,0,1,3.17-.17l30.16,16.55a3,3,0,0,0,3.2-.2l60.54-43.91a3,3,0,0,0-.21-5l-12.36-7.45a3,3,0,0,1-.19-5l14.57-10.44a3,3,0,0,1,3.23-.17l39.1,22.31a3,3,0,0,1,.67,4.69l-3.22,3.34a3,3,0,0,0,.66,4.68l13.08,7.51A3,3,0,0,0,392,197l23.63-16.39a3,3,0,0,0-.18-5l-79.28-47A3,3,0,0,0,332.92,128.75Z"/><path class="cls-5" d="M314.26-14.15l59.87,35.92a3,3,0,0,1,.39,4.87L361.27,37.71a3,3,0,0,1-3.39.32l-29.7-16.71a3,3,0,0,0-3.21.17L224.23,93.24a3,3,0,0,0,.2,5l57.2,34.26a3,3,0,0,0,3.24-.1l46.31-31.89a3,3,0,0,1,3.2-.13L364,117.46a3,3,0,0,0,3.21-.14L403.69,92a3,3,0,0,1,3.27-.1L433.68,108a3,3,0,0,0,4.55-2.53l.21-18.17a3,3,0,0,0-1.51-2.64l-31.49-18a3,3,0,0,0-3.18.13L366,91.55a3,3,0,0,1-3.25.08L333.56,73.84a3,3,0,0,0-3.33.14l-45.92,33.47a3,3,0,0,1-3.34.13L263.44,96.79a3,3,0,0,1-.17-5L326.13,47a3,3,0,0,1,3.24-.15l29.82,17.31a3,3,0,0,0,3.26-.16l52.79-38a3,3,0,0,0-.19-5L344-22.32a3,3,0,0,0-1.9-.42l-26.61,3A3,3,0,0,0,314.26-14.15Z"/><path class="cls-5" d="M405.22,119.59l-12.68,9.73a3,3,0,0,0,.31,5l41.27,24.22a3,3,0,0,0,4.52-2.48l.64-18a3,3,0,0,0-1.56-2.74l-29.23-15.95A3,3,0,0,0,405.22,119.59Z"/><path class="cls-5" d="M226.11,247.27l12.06-8.94a3,3,0,0,1,3.28-.19l29.24,16.74a3,3,0,0,0,3.19-.13l75.67-52.06a3,3,0,0,1,3.18-.14L411.6,236a3,3,0,0,1,.28,5l-31,22.42a3,3,0,0,0,.23,5L438,302.25a3,3,0,0,1,1.46,2.82l-1.24,15.34a3,3,0,0,1-4.48,2.36L343,270.87a3,3,0,0,1-.26-5l31.41-22.6a3,3,0,0,0-.34-5.08l-18.41-9.88a3,3,0,0,0-3.15.19l-75.34,53.16a3,3,0,0,1-3.32.09l-47.28-29.48A3,3,0,0,1,226.11,247.27Z"/><path class="cls-5" d="M23.66-8.18c15.45,9.26,45.46,27.42,53,32A3,3,0,0,0,80,23.61L95.69,11.82A3,3,0,0,1,99,11.64l19.41,11.6a3,3,0,0,0,3.26-.12l12.54-8.78a3,3,0,0,0-.08-5C124,2.77,96.49-15,95.52-14.56S81.27-5.12,76.66-2a3,3,0,0,1-3.2.1L53.59-13.55A3,3,0,0,0,52.05-14l-26.86.2A3,3,0,0,0,23.66-8.18Z"/><path class="cls-5" d="M-14.8,97.91l13.3,7.69a3,3,0,0,0,3.24-.15L72.59,55.27a3,3,0,0,0-.15-5l-56.35-35a3,3,0,0,0-3.34.11L-42.4,55a3,3,0,0,0-1.25,2.47l.22,19.91a3,3,0,0,0,4.75,2.4L15.18,41.06a3,3,0,0,1,3.24-.17l17.12,9.77a3,3,0,0,1,.28,5l-50.89,37.2A3,3,0,0,0-14.8,97.91Z"/></g><path class="cls-6" d="M310.26,138.62c-1.49-20.36-17.3-38.7-45.4-48.7-34.67-12.33-115.71-20.81-155.4,33.4-10.95,15-14.91,27.86-14.11,38.85,2.1,28.82,37,44.44,64.4,49.38,37.89,6.82,102,4.82,134.93-32.7C306.21,165.74,311.22,151.76,310.26,138.62Z"/><path class="cls-7" d="M282.67,146.2l9.89-9.14,15.36-30.49,2.34,32.05c1,13.14-4.05,27.12-15.58,40.23a80.79,80.79,0,0,1-8,7.92l-2.33-32.05Z"/><path class="cls-7" d="M172.4,125.05l.82-12.49,19.1-10.94,26.5.27L229.36,115l-5.44,25.45a17.5,17.5,0,0,0-7.45-4.2c-7.64-2.35-25.54-3.86-34.42,6.83a20.14,20.14,0,0,0-1.56,2.14Z"/><polygon class="cls-7" points="193.22 153.41 228.25 148.41 236.79 145.71 234.39 112.75 229.71 116.33 221.53 127.46 207.28 132.01 191.89 135.13 193.22 153.41"/><polygon class="cls-7" points="182.23 152.76 168.47 150.37 166.26 120.04 169.99 119.28 174.85 125.78 179.43 127.53 182.23 152.76"/><polygon class="cls-8" points="174.54 130.57 175.95 150.02 182.69 151.08 180.37 124.47 174.54 130.57"/><path class="cls-7" d="M297.67,131c-4.59-14.21-17.94-26.54-39-33.77C227.53,86.5,154.73,79.27,119,126.61c-6.55,8.68-10.34,16.56-11.93,23.68l-5.49-18.87,5.09-28.78L136.4,71,172,56.8l39.27-2.86,47.54,6.67,31.35,19L302.36,107,299,130.86"/><path class="cls-7" d="M141.53,136.38s-5.42-18.57-6-18.47,15.69-23.18,15.69-23.18l30.33-17,32.21.6,4.14,28.07C193,104,161,108.26,142.67,132.57c-.73,1-1.41,1.9-2,2.83M242.9,87.33l8.42,4.77,12.74,18.49-1.17,12.71c-4.87-4.82-11.62-8.9-20.12-11.82-1.62-.55-3.39-1.1-5.3-1.61l-3.34-23.54Z"/><polyline class="cls-8" points="217.66 74.57 219.49 99.64 215.33 99.95 214.11 82.38"/><polygon class="cls-7" points="135.4 140.99 113.64 152.16 136.25 169.1 135.4 140.99"/><polygon class="cls-8" points="275.16 150.03 277.36 180.19 286.68 186.77 285.82 153.35 275.16 150.03"/><path class="cls-9" d="M191.89,135.13c12,.94,28.42-.88,37.5-10.49,3.67-3.89,5.28-8,5-11.89-.44-6-5.42-11.39-14.31-14.29-11-3.58-36.62-5.95-49.28,10.1C167.3,113,166,116.8,166.26,120c.34,4.65,3.79,8.12,8.28,10.54l5.83-6.11c-2.16-1.49-3.67-3.42-3.85-5.84-.16-2.15.74-4.69,3.19-7.64,8.88-10.68,26.79-9.17,34.43-6.82,6.2,1.9,9.66,5.46,10,9.45.19,2.57-1,5.31-3.52,7.9-6.16,6.19-17.07,7.57-25.37,7.11Z"/><path class="cls-7" d="M194.25,189.46c23.2.55,51.27-4.43,67.6-22.45,7.43-8.21,10.68-16.95,10.08-25.16l-2.35-32.26-6.7,2.61-15.29,28.69-23,9.79-36.37,2.65-30.1-5.92-20-19.17-7-3.63,3.26,44.66L191,183.08Z"/><path class="cls-7" d="M251.56,206.18c-31.13,10.52-67.06,9.82-91.81,5.37-27.43-4.94-62.3-20.56-64.4-49.38l-2.34-32L98.53,123l1,13.68,30.94,29.65,39.26,12.33,47.9-.7,23.58-6.79,8,3Z"/><path class="cls-9" d="M284.35,154.72s5.5-5.08,8-7.92c11.52-13.11,16.53-27.09,15.57-40.23-1.48-20.36-17.29-38.7-45.4-48.7-34.66-12.33-115.7-20.8-155.39,33.4-11,15-14.92,27.87-14.12,38.85,2.1,28.82,37,44.44,64.4,49.38,24.76,4.45,60.69,5.15,91.82-5.37l-3.75-8c-28.3,9.7-61.26,9.21-83.84,5.31-24.64-4.25-55.94-17.81-57.77-42.93-.7-9.58,2.88-20.84,12.76-33.91,35.76-47.34,108.56-40.11,139.69-29.42,25.23,8.66,39.4,24.63,40.69,42.38.84,11.45-3.69,23.65-14.07,35.1a73.51,73.51,0,0,1-7.78,7.41Z"/><path class="cls-9" d="M217.66,74.57c-25.14-2.81-58.44,1-77.33,26-7.08,9.36-9.64,17.43-9.14,24.3,1.31,18,23.74,27.71,41.39,30.76,24.39,4.21,65.65,2.87,86.93-20.62,7.44-8.21,10.68-17,10.09-25.16-.93-12.72-11.09-24.16-29.17-30.37l-6.3,6.9c15.19,5,23.7,14.16,24.45,24.41.48,6.62-2.27,13.68-8.55,20.32-17.95,19-52.65,20.18-73.14,16.85-14.84-2.42-33.68-10.19-34.73-24.71-.41-5.53,1.77-12,7.75-19.62,15.72-19.93,43.18-23.23,64.2-21.2Z"/><polygon class="cls-9" points="137.88 132.41 106.11 147.52 112.82 154.62 144.28 139.34 137.88 132.41"/><path class="cls-9" d="M163.94,88.21s16.25,16.14,16.66,15.69,6.1-2.67,6.1-2.67L170.79,84.41Z"/><path class="cls-10" d="M222.42,87.72c-.11,1-2,1.41-4.57,1.25-2.29-.14-4.81.85-4.77,2.18L214.31,78l11.41,2.66Z"/><path class="cls-11" d="M210.64,83.26c6.45,0,12.09,1.72,11.78,4.46-.11,1-2,1.41-4.57,1.25-2.29-.14-4.81.85-4.77,2.18,0,1.62,1.88,3.28,7,2.1,29.59-6.78,33.5,1.48,56.91-16.42,1.91-1.46,4.09-2.62.18-5-27.46-16.38-26.42-26.56-50.12-29.35"/><path class="cls-12" d="M216.82,33.05c4,.59,11.22,2.58,11,7.39s-5.4,47.28-5.4,47.28c.31-2.74-5.33-4.49-11.78-4.46"/><path class="cls-13" d="M214.38,21.58c4-1.47,6.68,1.71,7.45,3.77a5.54,5.54,0,0,1-3.76,7.37,5.72,5.72,0,0,1-7.13-3.87C210.29,26.29,211.19,22.75,214.38,21.58Z"/><path class="cls-14" d="M203.16,133.48c6.34-44.8,15.65-102.17,15.65-102.17s-.44-1.26-2.73-1.66S213,30.92,213,30.92,204.11,89,197.72,133.1Z"/><path class="cls-9" d="M220.57,121.52c-6.16,6.19-17.07,7.57-25.37,7.11l-3.31,6.5c12,.94,28.42-.88,37.5-10.49Z"/></svg>