<svg width="300" height="180" viewBox="0 0 300 180" fill="none" xmlns="http://www.w3.org/2000/svg">
<rect width="300" height="180" fill="#F4E4A5"/>
<rect width="300" height="32" fill="#C14130"/>
<path d="M16 20.5V10H19V14.5H23.5V10H26.5V20.5H23.5V16H19V20.5H16ZM29.5 20.5V19H28V14.5H29.5V13H37V14.5H38.5V19H37V20.5H29.5ZM31 19H35.5V14.5H31V19ZM40 20.5V13H49V14.5H50.5V20.5H47.5V14.5H46V20.5H43V14.5H41.5V20.5H40ZM53.5 20.5V19H52V14.5H53.5V13H61V14.5H62.5V17.5H55V19H61V20.5H53.5ZM55 16H59.5V14.5H55V16Z" fill="#F4E4A5"/>
<path d="M98 20.5V10H107V11.5H108.5V16H107V17.5H101V20.5H98ZM101 16H105.5V11.5H101V16ZM111.5 20.5V19H110V14.5H111.5V13H119V14.5H120.5V19H119V20.5H111.5ZM113 19H117.5V14.5H113V19ZM122 20.5V10H125V16H128V14.5H129.5V13H132.5V14.5H131V16H129.5V17.5H131V19H132.5V20.5H129.5V19H128V17.5H125V20.5H122ZM141.5 11.5H140V10H141.5V11.5ZM144.5 14.5V17.5H137V19H143V20.5H135.5V19H134V14.5H135.5V13H138.5V11.5H140V13H143V14.5H144.5ZM141.5 14.5H137V16H141.5V14.5ZM147.5 20.5V19H146V14.5H147.5V13H153.5V10H156.5V20.5H147.5ZM149 19H153.5V14.5H149V19ZM159.5 20.5V19H158V14.5H159.5V13H167V14.5H168.5V17.5H161V19H167V20.5H159.5ZM161 16H165.5V14.5H161V16ZM170 20.5V19H171.5V17.5H173V16H171.5V14.5H170V13H173V14.5H174.5V16H176V14.5H177.5V13H180.5V14.5H179V16H177.5V17.5H179V19H180.5V20.5H177.5V19H176V17.5H174.5V19H173V20.5H170Z" fill="#F4E4A5"/>
<path d="M217.5 20.5V19H216V17.5H219V19H223.5V16H217.5V14.5H216V11.5H217.5V10H225V11.5H226.5V13H223.5V11.5H219V14.5H225V16H226.5V19H225V20.5H217.5ZM229.5 20.5V19H228V14.5H229.5V13H237V14.5H238.5V17.5H231V19H237V20.5H229.5ZM231 16H235.5V14.5H231V16ZM241.5 20.5V19H240V17.5H241.5V16H247.5V14.5H241.5V13H249V14.5H250.5V20.5H241.5ZM243 19H247.5V17.5H243V19ZM256.5 14.5H258V16H256.5V20.5H253.5V13H256.5V14.5ZM262.5 13V14.5H258V13H262.5ZM265.5 20.5V19H264V14.5H265.5V13H274.5V14.5H267V19H274.5V20.5H265.5ZM276 20.5V10H279V13H285V14.5H286.5V20.5H283.5V14.5H279V20.5H276Z" fill="#F4E4A5"/>
<path d="M17.25 66.75V64.5H15V51H19.5V60H21.75V51H24V60H26.25V51H30.75V64.5H28.5V66.75H26.25V64.5H24V62.25H21.75V64.5H19.5V66.75H17.25ZM35.25 66.75V64.5H33V57.75H35.25V55.5H46.5V57.75H48.75V62.25H37.5V64.5H46.5V66.75H35.25ZM37.5 60H44.25V57.75H37.5V60ZM53.25 66.75V64.5H57.75V53.25H55.5V51H62.25V64.5H66.75V66.75H53.25ZM71.25 66.75V64.5H69V57.75H71.25V55.5H84.75V57.75H73.5V64.5H84.75V66.75H71.25ZM89.25 66.75V64.5H87V57.75H89.25V55.5H100.5V57.75H102.75V64.5H100.5V66.75H89.25ZM91.5 64.5H98.25V57.75H91.5V64.5ZM105 66.75V55.5H118.5V57.75H120.75V66.75H116.25V57.75H114V66.75H109.5V57.75H107.25V66.75H105ZM125.25 66.75V64.5H123V57.75H125.25V55.5H136.5V57.75H138.75V62.25H127.5V64.5H136.5V66.75H125.25ZM127.5 60H134.25V57.75H127.5V60ZM165.75 66.75V57.75H161.25V55.5H165.75V51H170.25V55.5H174.75V57.75H170.25V66.75H165.75ZM179.25 66.75V64.5H177V57.75H179.25V55.5H190.5V57.75H192.75V64.5H190.5V66.75H179.25ZM181.5 64.5H188.25V57.75H181.5V64.5ZM219.75 66.75V57.75H215.25V55.5H219.75V51H224.25V55.5H228.75V57.75H224.25V66.75H219.75ZM231 66.75V51H235.5V55.5H244.5V57.75H246.75V66.75H242.25V57.75H235.5V66.75H231ZM251.25 66.75V64.5H249V57.75H251.25V55.5H262.5V57.75H264.75V62.25H253.5V64.5H262.5V66.75H251.25ZM253.5 60H260.25V57.75H253.5V60ZM51 89.75V74H64.5V76.25H66.75V83H64.5V85.25H55.5V89.75H51ZM55.5 83H62.25V76.25H55.5V83ZM71.25 89.75V87.5H69V80.75H71.25V78.5H82.5V80.75H84.75V87.5H82.5V89.75H71.25ZM73.5 87.5H80.25V80.75H73.5V87.5ZM87 89.75V74H91.5V83H96V80.75H98.25V78.5H102.75V80.75H100.5V83H98.25V85.25H100.5V87.5H102.75V89.75H98.25V87.5H96V85.25H91.5V89.75H87ZM116.25 76.25H114V74H116.25V76.25ZM120.75 80.75V85.25H109.5V87.5H118.5V89.75H107.25V87.5H105V80.75H107.25V78.5H111.75V76.25H114V78.5H118.5V80.75H120.75ZM116.25 80.75H109.5V83H116.25V80.75ZM125.25 89.75V87.5H123V80.75H125.25V78.5H134.25V74H138.75V89.75H125.25ZM127.5 87.5H134.25V80.75H127.5V87.5ZM143.25 89.75V87.5H141V80.75H143.25V78.5H154.5V80.75H156.75V85.25H145.5V87.5H154.5V89.75H143.25ZM145.5 83H152.25V80.75H145.5V83ZM159 89.75V87.5H161.25V85.25H163.5V83H161.25V80.75H159V78.5H163.5V80.75H165.75V83H168V80.75H170.25V78.5H174.75V80.75H172.5V83H170.25V85.25H172.5V87.5H174.75V89.75H170.25V87.5H168V85.25H165.75V87.5H163.5V89.75H159ZM195 89.75V78.5H197.25V76.25H199.5V74H206.25V76.25H208.5V78.5H210.75V89.75H206.25V85.25H199.5V89.75H195ZM199.5 83H206.25V78.5H204V76.25H201.75V78.5H199.5V83ZM213 92V78.5H226.5V80.75H228.75V85.25H226.5V87.5H217.5V92H213ZM217.5 85.25H224.25V80.75H217.5V85.25ZM231 92V78.5H244.5V80.75H246.75V85.25H244.5V87.5H235.5V92H231ZM235.5 85.25H242.25V80.75H235.5V85.25Z" fill="black"/>
<path d="M30 122.5V112H40.5V113.5H33V116.5H39V118H33V121H40.5V122.5H30ZM42 122.5V121H43.5V119.5H45V118H43.5V116.5H42V115H45V116.5H46.5V118H48V116.5H49.5V115H52.5V116.5H51V118H49.5V119.5H51V121H52.5V122.5H49.5V121H48V119.5H46.5V121H45V122.5H42ZM54 124V115H63V116.5H64.5V119.5H63V121H57V124H54ZM57 119.5H61.5V116.5H57V119.5ZM67.5 122.5V121H70.5V113.5H69V112H73.5V121H76.5V122.5H67.5ZM79.5 122.5V121H78V116.5H79.5V115H87V116.5H88.5V121H87V122.5H79.5ZM81 121H85.5V116.5H81V121ZM94.5 116.5H96V118H94.5V122.5H91.5V115H94.5V116.5ZM100.5 115V116.5H96V115H100.5ZM103.5 122.5V121H102V116.5H103.5V115H111V116.5H112.5V119.5H105V121H111V122.5H103.5ZM105 118H109.5V116.5H105V118ZM130.5 122.5V116.5H127.5V115H130.5V112H133.5V115H136.5V116.5H133.5V122.5H130.5ZM138 122.5V112H141V115H147V116.5H148.5V122.5H145.5V116.5H141V122.5H138ZM151.5 122.5V121H150V116.5H151.5V115H159V116.5H160.5V119.5H153V121H159V122.5H151.5ZM153 118H157.5V116.5H153V118ZM177 121H178.5V122.5H175.5V121H174V115H177V121ZM180 115V121H178.5V115H180ZM184.5 115V121H183V122.5H180V121H181.5V115H184.5ZM187.5 122.5V121H186V116.5H187.5V115H195V116.5H196.5V121H195V122.5H187.5ZM189 121H193.5V116.5H189V121ZM202.5 116.5H204V118H202.5V122.5H199.5V115H202.5V116.5ZM208.5 115V116.5H204V115H208.5ZM211.5 122.5V121H214.5V113.5H213V112H217.5V121H220.5V122.5H211.5ZM223.5 122.5V121H222V116.5H223.5V115H229.5V112H232.5V122.5H223.5ZM225 121H229.5V116.5H225V121ZM247.5 122.5V121H246V116.5H247.5V115H255V116.5H256.5V121H255V122.5H247.5ZM249 121H253.5V116.5H249V121ZM262.5 122.5V116.5H259.5V115H262.5V113.5H264V112H268.5V113.5H265.5V115H268.5V116.5H265.5V122.5H262.5ZM54 137.5V127H63V128.5H64.5V133H63V134.5H57V137.5H54ZM57 133H61.5V128.5H57V133ZM67.5 137.5V136H66V131.5H67.5V130H75V131.5H76.5V136H75V137.5H67.5ZM69 136H73.5V131.5H69V136ZM78 137.5V127H81V133H84V131.5H85.5V130H88.5V131.5H87V133H85.5V134.5H87V136H88.5V137.5H85.5V136H84V134.5H81V137.5H78ZM97.5 128.5H96V127H97.5V128.5ZM100.5 131.5V134.5H93V136H99V137.5H91.5V136H90V131.5H91.5V130H94.5V128.5H96V130H99V131.5H100.5ZM97.5 131.5H93V133H97.5V131.5ZM102 137.5V130H111V131.5H112.5V137.5H109.5V131.5H108V137.5H105V131.5H103.5V137.5H102ZM115.5 137.5V136H114V131.5H115.5V130H123V131.5H124.5V136H123V137.5H115.5ZM117 136H121.5V131.5H117V136ZM126 137.5V130H135V131.5H136.5V137.5H133.5V131.5H129V137.5H126ZM153 136H154.5V137.5H151.5V136H150V130H153V136ZM156 130V136H154.5V130H156ZM160.5 130V136H159V137.5H156V136H157.5V130H160.5ZM166.5 128.5V127H169.5V128.5H166.5ZM163.5 137.5V136H166.5V131.5H165V130H169.5V136H172.5V137.5H163.5ZM178.5 137.5V131.5H175.5V130H178.5V127H181.5V130H184.5V131.5H181.5V137.5H178.5ZM186 137.5V127H189V130H195V131.5H196.5V137.5H193.5V131.5H189V137.5H186ZM211.5 137.5V136H210V131.5H211.5V130H219V131.5H220.5V136H219V137.5H211.5ZM213 136H217.5V131.5H213V136ZM223.5 137.5V136H222V130H225V136H229.5V130H232.5V137.5H223.5ZM238.5 131.5H240V133H238.5V137.5H235.5V130H238.5V131.5ZM244.5 130V131.5H240V130H244.5ZM19.5 152.5V151H18V146.5H19.5V145H28.5V146.5H21V151H28.5V152.5H19.5ZM31.5 152.5V151H30V146.5H31.5V145H39V146.5H40.5V151H39V152.5H31.5ZM33 151H37.5V146.5H33V151ZM42 152.5V145H51V146.5H52.5V152.5H49.5V146.5H48V152.5H45V146.5H43.5V152.5H42ZM54 154V145H63V146.5H64.5V149.5H63V151H57V154H54ZM57 149.5H61.5V146.5H57V149.5ZM70.5 146.5H72V148H70.5V152.5H67.5V145H70.5V146.5ZM76.5 145V146.5H72V145H76.5ZM79.5 152.5V151H78V146.5H79.5V145H87V146.5H88.5V149.5H81V151H87V152.5H79.5ZM81 148H85.5V146.5H81V148ZM90 152.5V142H93V145H99V146.5H100.5V152.5H97.5V146.5H93V152.5H90ZM103.5 152.5V151H102V146.5H103.5V145H111V146.5H112.5V149.5H105V151H111V152.5H103.5ZM105 148H109.5V146.5H105V148ZM114 152.5V145H123V146.5H124.5V152.5H121.5V146.5H117V152.5H114ZM126 152.5V151H133.5V149.5H127.5V148H126V146.5H127.5V145H135V146.5H129V148H135V149.5H136.5V151H135V152.5H126ZM142.5 143.5V142H145.5V143.5H142.5ZM139.5 152.5V151H142.5V146.5H141V145H145.5V151H148.5V152.5H139.5ZM154.5 152.5V151H153V149.5H151.5V145H154.5V149.5H157.5V145H160.5V149.5H159V151H157.5V152.5H154.5ZM163.5 152.5V151H162V146.5H163.5V145H171V146.5H172.5V149.5H165V151H171V152.5H163.5ZM165 148H169.5V146.5H165V148ZM186 152.5V142H195V143.5H196.5V148H195V149.5H189V152.5H186ZM189 148H193.5V143.5H189V148ZM199.5 152.5V151H198V146.5H199.5V145H207V146.5H208.5V151H207V152.5H199.5ZM201 151H205.5V146.5H201V151ZM210 152.5V142H213V148H216V146.5H217.5V145H220.5V146.5H219V148H217.5V149.5H219V151H220.5V152.5H217.5V151H216V149.5H213V152.5H210ZM229.5 143.5H228V142H229.5V143.5ZM232.5 146.5V149.5H225V151H231V152.5H223.5V151H222V146.5H223.5V145H226.5V143.5H228V145H231V146.5H232.5ZM229.5 146.5H225V148H229.5V146.5ZM235.5 152.5V151H234V146.5H235.5V145H241.5V142H244.5V152.5H235.5ZM237 151H241.5V146.5H237V151ZM247.5 152.5V151H246V146.5H247.5V145H255V146.5H256.5V149.5H249V151H255V152.5H247.5ZM249 148H253.5V146.5H249V148ZM258 152.5V151H259.5V149.5H261V148H259.5V146.5H258V145H261V146.5H262.5V148H264V146.5H265.5V145H268.5V146.5H267V148H265.5V149.5H267V151H268.5V152.5H265.5V151H264V149.5H262.5V151H261V152.5H258ZM273 152.5V149.5H276V152.5H273Z" fill="black"/>
</svg>
