<svg xmlns="http://www.w3.org/2000/svg" width="300" height="180" fill="none" xmlns:v="https://vecta.io/nano"><path fill="#fff" d="M0 0h300v180H0z"/><g fill="#000"><path d="M33.35 18.455v4.59h-.381c-.287-1.198-.82-2.116-1.602-2.754s-1.667-.957-2.656-.957c-.827 0-1.585.238-2.275.713s-1.195 1.097-1.514 1.865c-.41.983-.615 2.077-.615 3.281 0 1.185.15 2.266.449 3.242.299.97.768 1.706 1.406 2.207.638.495 1.465.742 2.481.742.833 0 1.595-.182 2.285-.547.697-.365 1.429-.993 2.197-1.885v1.143c-.742.775-1.517 1.338-2.324 1.689-.801.345-1.738.518-2.812.518-1.413 0-2.669-.283-3.769-.85a6.04 6.04 0 0 1-2.539-2.441c-.593-1.061-.889-2.191-.889-3.389 0-1.263.329-2.461.986-3.594.664-1.133 1.556-2.012 2.676-2.637 1.126-.625 2.321-.937 3.584-.937.931 0 1.914.202 2.949.605.599.234.98.352 1.143.352.208 0 .387-.075.537-.225.156-.156.257-.4.303-.732h.381zm5.352.303v11.348c0 .645.075 1.058.225 1.24.15.176.443.277.879.303V32h-4.932v-.352c.404-.013.703-.13.899-.351.13-.15.195-.547.195-1.191v-9.453c0-.638-.075-1.045-.225-1.221-.15-.182-.439-.286-.869-.312v-.361h3.828zm7.031 11.895c-1.113.983-2.113 1.475-2.998 1.475-.521 0-.954-.169-1.299-.508-.345-.345-.517-.775-.517-1.289 0-.697.299-1.322.898-1.875.599-.56 1.904-1.302 3.916-2.227v-.918c0-.69-.039-1.123-.117-1.299-.072-.182-.212-.338-.42-.469-.208-.137-.443-.205-.703-.205-.423 0-.771.094-1.045.283-.169.117-.254.254-.254.41 0 .137.091.306.273.508.247.28.371.55.371.81a1.09 1.09 0 0 1-.361.82c-.234.221-.544.332-.928.332-.41 0-.755-.124-1.035-.371-.273-.247-.41-.537-.41-.869 0-.469.186-.915.557-1.338.371-.43.889-.758 1.553-.986s1.354-.342 2.07-.342c.866 0 1.55.185 2.051.557.508.365.837.762.986 1.192.091.273.137.902.137 1.885v3.545c0 .417.016.68.049.791a.47.47 0 0 0 .146.234.35.35 0 0 0 .225.078c.169 0 .342-.12.517-.361l.293.234c-.325.482-.664.833-1.016 1.055a2.19 2.19 0 0 1-1.182.322c-.521 0-.928-.12-1.221-.361-.293-.247-.472-.619-.537-1.113zm0-.713v-3.057c-.788.462-1.374.957-1.758 1.484-.254.352-.381.706-.381 1.064 0 .3.107.563.322.791.163.176.391.264.684.264.325 0 .703-.182 1.133-.547zm10.732-7.324l.147 3.115h-.332c-.397-.924-.81-1.556-1.24-1.895-.423-.338-.846-.508-1.27-.508a.95.95 0 0 0-.684.274c-.189.176-.283.381-.283.615 0 .176.065.345.195.508.208.267.791.726 1.748 1.377.957.644 1.585 1.195 1.885 1.65.306.449.459.954.459 1.514 0 .508-.127 1.006-.381 1.494a2.67 2.67 0 0 1-1.074 1.123 3.07 3.07 0 0 1-1.533.391c-.436 0-1.019-.137-1.748-.41-.195-.072-.329-.107-.4-.107-.215 0-.394.163-.537.488h-.322l-.156-3.281h.332c.293.859.693 1.504 1.201 1.934.514.43.999.645 1.455.645.313 0 .566-.094.762-.283.202-.195.303-.43.303-.703 0-.312-.098-.583-.293-.811s-.631-.573-1.309-1.035c-.996-.69-1.641-1.218-1.934-1.582-.43-.534-.645-1.123-.645-1.768 0-.703.241-1.338.723-1.904.488-.573 1.191-.859 2.109-.859.495 0 .973.12 1.435.361.176.098.319.146.43.146.117 0 .212-.023.283-.068.072-.052.186-.192.342-.42h.332zm7.793 0l.147 3.115h-.332c-.397-.924-.811-1.556-1.24-1.895-.423-.338-.846-.508-1.27-.508a.95.95 0 0 0-.684.274c-.189.176-.283.381-.283.615 0 .176.065.345.195.508.208.267.791.726 1.748 1.377.957.644 1.585 1.195 1.885 1.65.306.449.459.954.459 1.514 0 .508-.127 1.006-.381 1.494a2.67 2.67 0 0 1-1.074 1.123 3.07 3.07 0 0 1-1.533.391c-.436 0-1.019-.137-1.748-.41-.195-.072-.329-.107-.4-.107-.215 0-.394.163-.537.488h-.322l-.156-3.281h.332c.293.859.693 1.504 1.201 1.934.514.43.999.645 1.455.645.312 0 .566-.094.762-.283.202-.195.303-.43.303-.703 0-.312-.098-.583-.293-.811s-.632-.573-1.309-1.035c-.996-.69-1.641-1.218-1.934-1.582-.43-.534-.645-1.123-.645-1.768 0-.703.241-1.338.723-1.904.488-.573 1.191-.859 2.109-.859.495 0 .973.12 1.436.361.176.098.319.146.43.146.117 0 .212-.023.283-.068.072-.052.185-.192.342-.42h.332zm4.219-4.17c.423 0 .781.15 1.074.449a1.45 1.45 0 0 1 .439 1.064c0 .417-.15.771-.449 1.064a1.45 1.45 0 0 1-1.064.44 1.45 1.45 0 0 1-1.065-.44 1.45 1.45 0 0 1-.439-1.064 1.45 1.45 0 0 1 .439-1.064c.293-.299.648-.449 1.065-.449zm1.367 4.424v7.236c0 .645.075 1.058.225 1.24.15.176.443.277.879.303V32h-4.932v-.352c.404-.013.703-.13.898-.351.13-.15.195-.547.195-1.191v-5.332c0-.644-.075-1.055-.225-1.23-.15-.182-.439-.287-.869-.312v-.361h3.828zm9.453 6.777l.303.234c-.43.807-.967 1.41-1.611 1.807-.638.391-1.318.586-2.041.586-1.218 0-2.191-.459-2.92-1.377s-1.094-2.021-1.094-3.311c0-1.243.332-2.337.996-3.281.801-1.139 1.904-1.709 3.311-1.709.944 0 1.693.238 2.246.713.56.475.84 1.006.84 1.592 0 .371-.114.667-.342.889-.221.221-.514.332-.879.332-.384 0-.703-.127-.957-.381-.247-.254-.4-.706-.459-1.357-.039-.41-.133-.697-.283-.859s-.326-.244-.527-.244c-.312 0-.579.166-.801.498-.339.501-.508 1.27-.508 2.305a7.48 7.48 0 0 0 .41 2.471c.273.781.648 1.364 1.123 1.748a2 2 0 0 0 1.27.42c.319 0 .622-.075.908-.225s.625-.433 1.016-.85zm11.162-3.643v3.672c0 .716.042 1.169.127 1.357.091.182.247.329.469.439.228.111.641.166 1.24.166V32h-6.728v-.361c.612 0 1.025-.055 1.24-.166a.99.99 0 0 0 .459-.449c.091-.182.137-.631.137-1.348v-8.594c0-.716-.045-1.165-.137-1.348-.085-.189-.238-.339-.459-.449s-.635-.166-1.24-.166v-.361h5.772c1.901 0 3.265.339 4.092 1.016s1.24 1.524 1.24 2.539c0 .859-.267 1.595-.801 2.207s-1.27 1.029-2.207 1.25c-.631.156-1.699.234-3.203.234zm0-6.484v5.723l.488.02c.794 0 1.406-.234 1.836-.703.43-.475.645-1.208.645-2.197 0-.983-.215-1.702-.645-2.158s-1.071-.684-1.924-.684h-.4zm12.539 11.133c-1.113.983-2.113 1.475-2.998 1.475-.521 0-.954-.169-1.299-.508-.345-.345-.518-.775-.518-1.289 0-.697.299-1.322.898-1.875.599-.56 1.904-1.302 3.916-2.227v-.918c0-.69-.039-1.123-.117-1.299-.072-.182-.212-.338-.42-.469-.208-.137-.443-.205-.703-.205-.423 0-.772.094-1.045.283-.169.117-.254.254-.254.41 0 .137.091.306.273.508.248.28.372.55.372.81a1.09 1.09 0 0 1-.362.82c-.234.221-.543.332-.928.332-.41 0-.755-.124-1.035-.371-.273-.247-.41-.537-.41-.869 0-.469.186-.915.557-1.338.371-.43.889-.758 1.553-.986a6.33 6.33 0 0 1 2.07-.342c.866 0 1.549.185 2.051.557.507.365.836.762.986 1.192.091.273.137.902.137 1.885v3.545c0 .417.016.68.048.791.033.104.082.182.147.234a.35.35 0 0 0 .225.078c.169 0 .341-.12.517-.361l.293.234c-.325.482-.664.833-1.015 1.055-.346.215-.739.322-1.182.322-.521 0-.928-.12-1.221-.361-.293-.247-.472-.619-.537-1.113zm0-.713v-3.057c-.788.462-1.374.957-1.758 1.484-.254.352-.381.706-.381 1.064 0 .3.108.563.323.791.162.176.39.264.683.264.326 0 .703-.182 1.133-.547zm8.691-7.07v1.182c.469-.508.918-.876 1.348-1.104a2.85 2.85 0 0 1 1.387-.352c.592 0 1.084.166 1.474.498a2.34 2.34 0 0 1 .782 1.221c.104.371.156 1.084.156 2.139v3.555c0 .703.062 1.143.185 1.318.131.169.398.277.801.322V32h-4.619v-.352c.345-.045.593-.189.742-.43.104-.163.157-.567.157-1.211v-4.062c0-.749-.03-1.221-.088-1.416s-.16-.345-.303-.449a.71.71 0 0 0-.459-.166c-.56 0-1.081.4-1.563 1.201v4.893c0 .684.062 1.117.186 1.299.13.182.368.296.713.342V32h-4.619v-.352c.384-.039.657-.163.82-.371.111-.143.166-.566.166-1.27v-5.156c0-.69-.065-1.12-.195-1.289-.124-.169-.388-.28-.791-.332v-.361h3.72zm14.854 6.777l.303.234c-.43.807-.967 1.41-1.612 1.807-.638.391-1.318.586-2.041.586-1.217 0-2.19-.459-2.92-1.377s-1.093-2.021-1.093-3.311c0-1.243.332-2.337.996-3.281.801-1.139 1.904-1.709 3.31-1.709.944 0 1.693.238 2.246.713.56.475.84 1.006.84 1.592 0 .371-.114.667-.342.889-.221.221-.514.332-.878.332-.385 0-.704-.127-.957-.381-.248-.254-.401-.706-.459-1.357-.04-.41-.134-.697-.284-.859s-.325-.244-.527-.244c-.313 0-.579.166-.801.498-.338.501-.508 1.27-.508 2.305 0 .859.137 1.683.411 2.471.273.781.647 1.364 1.123 1.748.358.28.781.42 1.269.42a1.93 1.93 0 0 0 .908-.225c.287-.15.625-.433 1.016-.85zm6.475 1.006c-1.114.983-2.113 1.475-2.998 1.475-.521 0-.954-.169-1.299-.508-.345-.345-.518-.775-.518-1.289 0-.697.3-1.322.899-1.875.599-.56 1.904-1.302 3.916-2.227v-.918c0-.69-.039-1.123-.118-1.299-.071-.182-.211-.338-.42-.469a1.25 1.25 0 0 0-.703-.205c-.423 0-.771.094-1.045.283-.169.117-.253.254-.253.41 0 .137.091.306.273.508.247.28.371.55.371.81 0 .319-.12.593-.361.82-.235.221-.544.332-.928.332-.41 0-.755-.124-1.035-.371-.274-.247-.41-.537-.41-.869 0-.469.185-.915.556-1.338.371-.43.889-.758 1.553-.986a6.33 6.33 0 0 1 2.07-.342c.866 0 1.55.185 2.051.557.508.365.837.762.986 1.192.092.273.137.902.137 1.885v3.545c0 .417.016.68.049.791.033.104.081.182.147.234s.139.078.224.078c.169 0 .342-.12.518-.361l.293.234c-.326.482-.664.833-1.016 1.055a2.19 2.19 0 0 1-1.182.322c-.52 0-.927-.12-1.22-.361-.293-.247-.472-.619-.537-1.113zm0-.713v-3.057c-.788.462-1.374.957-1.758 1.484-.254.352-.381.706-.381 1.064 0 .3.107.563.322.791.163.176.391.264.684.264.325 0 .703-.182 1.133-.547zm8.671-11.182v8.711l2.12-2.08c.436-.423.706-.729.81-.918.111-.189.166-.371.166-.547s-.071-.322-.215-.439-.423-.202-.84-.254v-.361h4.092v.361c-.39.02-.732.114-1.025.283-.293.163-.866.661-1.719 1.494l-.996.977 2.148 3.145 1.543 2.148c.222.221.502.345.84.371V32h-4.717v-.352c.209 0 .359-.039.45-.117.097-.078.146-.163.146-.254 0-.15-.137-.426-.41-.83l-1.807-2.646-.586.576v1.641c0 .697.066 1.133.196 1.309.13.169.397.277.801.322V32h-4.717v-.352c.384-.039.657-.163.82-.371.111-.143.166-.563.166-1.26V20.74c0-.69-.065-1.12-.195-1.289-.124-.169-.388-.28-.791-.332v-.361h3.72zm15.157 8.35h-5.01c.059 1.211.381 2.168.967 2.871.449.54.989.811 1.621.811.39 0 .745-.108 1.064-.322.319-.221.661-.615 1.026-1.182l.332.215c-.495 1.009-1.042 1.725-1.641 2.148-.599.417-1.292.625-2.08.625-1.354 0-2.38-.521-3.076-1.563-.56-.84-.84-1.881-.84-3.125 0-1.523.41-2.734 1.23-3.633.827-.905 1.794-1.357 2.901-1.357.924 0 1.725.381 2.402 1.143.684.755 1.052 1.878 1.104 3.369zm-2.403-.654c0-1.048-.058-1.768-.175-2.158-.111-.391-.287-.687-.528-.889-.136-.117-.319-.176-.547-.176-.338 0-.615.166-.83.498-.384.579-.576 1.374-.576 2.383v.342h2.656zm9.327-3.838l.146 3.115h-.332c-.397-.924-.811-1.556-1.24-1.895-.423-.338-.847-.508-1.27-.508-.267 0-.495.091-.683.274-.189.176-.284.381-.284.615 0 .176.066.345.196.508.208.267.791.726 1.748 1.377.957.644 1.585 1.195 1.885 1.65.306.449.459.954.459 1.514 0 .508-.127 1.006-.381 1.494a2.67 2.67 0 0 1-1.075 1.123c-.462.26-.973.391-1.533.391-.436 0-1.019-.137-1.748-.41-.195-.072-.329-.107-.4-.107-.215 0-.394.163-.537.488h-.323l-.156-3.281h.332c.293.859.694 1.504 1.201 1.934.515.43 1 .645 1.455.645.313 0 .567-.094.762-.283.202-.195.303-.43.303-.703 0-.312-.098-.583-.293-.811s-.632-.573-1.309-1.035c-.996-.69-1.64-1.218-1.933-1.582-.43-.534-.645-1.123-.645-1.768 0-.703.241-1.338.723-1.904.488-.573 1.191-.859 2.109-.859a3.07 3.07 0 0 1 1.436.361c.176.098.319.146.429.146.118 0 .212-.023.284-.068.071-.052.185-.192.342-.42h.332z"/><path d="M21.055 73.626l1.45-.707h.145v5.032c0 .334.013.542.04.624s.088.145.176.189.267.069.536.075V79H21.16v-.163c.281-.006.463-.029.545-.07s.139-.101.171-.171.048-.289.048-.646v-3.217c0-.434-.015-.712-.044-.835-.021-.094-.059-.163-.114-.207s-.117-.066-.193-.066c-.108 0-.259.045-.453.136l-.066-.136zm9.395 3.845c-.108.53-.321.939-.637 1.226s-.666.426-1.05.426c-.457 0-.855-.192-1.195-.576s-.51-.902-.51-1.556c0-.633.188-1.147.563-1.542a1.81 1.81 0 0 1 1.358-.593c.395 0 .721.105.976.316s.382.425.382.65a.36.36 0 0 1-.11.272c-.07.067-.17.101-.299.101-.173 0-.303-.056-.391-.167-.05-.062-.084-.179-.101-.352s-.073-.305-.176-.395-.245-.132-.426-.132a.87.87 0 0 0-.707.325c-.237.287-.356.666-.356 1.138 0 .48.117.905.352 1.274s.557.549.958.549c.287 0 .545-.098.773-.294.161-.135.318-.379.47-.734l.127.061zm4.109-2.496v2.439l.031.857a.4.4 0 0 0 .106.215c.05.041.107.062.171.062.091 0 .193-.025.308-.075l.061.154-1.204.497h-.198v-.853c-.346.375-.609.611-.791.707a1.21 1.21 0 0 1-.576.145c-.226 0-.422-.064-.589-.193a1.03 1.03 0 0 1-.343-.505c-.064-.205-.097-.495-.097-.87v-1.797c0-.19-.02-.322-.062-.395s-.103-.129-.184-.167-.224-.06-.435-.057v-.163h1.411v2.694c0 .375.064.621.193.738a.69.69 0 0 0 .475.176c.126 0 .268-.039.426-.119s.352-.23.571-.453v-2.281c0-.229-.043-.382-.128-.462s-.255-.126-.518-.132v-.163h1.371zm.681.4l1.239-.501h.167v.94c.208-.354.416-.602.624-.743a1.16 1.16 0 0 1 .664-.215c.404 0 .741.158 1.011.475.331.387.497.891.497 1.512 0 .694-.199 1.269-.598 1.723a1.58 1.58 0 0 1-1.239.558 1.55 1.55 0 0 1-.562-.092c-.117-.044-.249-.132-.395-.264v1.226c0 .275.016.45.048.523s.094.136.176.18.237.066.457.066v.163h-2.109v-.163h.11c.161.003.299-.028.413-.092.056-.032.098-.085.127-.158s.048-.252.048-.545v-3.806c0-.261-.012-.426-.035-.497s-.061-.123-.114-.158-.119-.053-.207-.053c-.07 0-.16.021-.268.062l-.053-.141zm1.406.699v1.503c0 .325.013.539.039.642.041.17.141.319.299.448a.94.94 0 0 0 .606.193c.293 0 .53-.114.712-.343.237-.299.356-.719.356-1.261 0-.615-.135-1.088-.404-1.419-.187-.228-.41-.343-.668-.343a.91.91 0 0 0-.417.105c-.105.053-.28.211-.523.475zm7.207-.782v2.645c0 .375.041.612.123.712a.54.54 0 0 0 .435.193h.365V79h-2.404v-.158h.18c.117 0 .224-.029.321-.088s.163-.138.198-.237.057-.293.057-.58v-2.645h-.782v-.316h.782v-.264c0-.401.065-.741.193-1.019s.325-.502.589-.672.566-.259.896-.259c.308 0 .59.1.848.299.17.132.255.28.255.444 0 .088-.038.171-.114.251s-.158.114-.246.114c-.067 0-.139-.023-.215-.07s-.164-.154-.273-.312-.208-.27-.299-.325a.57.57 0 0 0-.303-.084.54.54 0 0 0-.343.11c-.094.07-.161.182-.202.334s-.062.538-.062 1.165v.29h1.037v.316h-1.037zm2.808-2.54v5.339c0 .252.018.419.053.501s.095.145.171.189.218.062.426.062V79h-1.973v-.158c.184 0 .31-.019.378-.057a.38.38 0 0 0 .158-.189c.038-.088.057-.256.057-.505v-3.656l-.031-.835c-.021-.105-.054-.177-.101-.215s-.101-.057-.171-.057a.82.82 0 0 0-.29.07l-.075-.154 1.2-.492h.198zm3.089 2.105c.609 0 1.099.231 1.468.694a2.13 2.13 0 0 1 .47 1.362c0 .36-.087.725-.259 1.094s-.412.648-.716.835-.639.281-1.011.281c-.606 0-1.088-.242-1.446-.725-.302-.407-.453-.864-.453-1.371 0-.369.091-.735.273-1.099s.426-.636.725-.809.615-.264.949-.264zm-.136.286c-.155 0-.312.047-.47.141s-.281.252-.378.483-.145.529-.145.892c0 .586.116 1.091.347 1.516s.542.637.923.637c.284 0 .519-.117.703-.352s.277-.637.277-1.209c0-.715-.154-1.277-.461-1.687a.95.95 0 0 0-.796-.422zm6.196-.167v2.439l.031.857c.023.103.059.174.105.215s.107.062.171.062c.091 0 .193-.025.308-.075l.062.154-1.204.497h-.198v-.853c-.346.375-.609.611-.791.707s-.373.145-.576.145c-.226 0-.422-.064-.589-.193a1.03 1.03 0 0 1-.343-.505c-.064-.205-.097-.495-.097-.87v-1.797c0-.19-.02-.322-.062-.395s-.102-.129-.185-.167-.224-.06-.435-.057v-.163h1.411v2.694c0 .375.065.621.193.738a.69.69 0 0 0 .475.176.97.97 0 0 0 .426-.119c.161-.079.352-.23.571-.453v-2.281c0-.229-.042-.382-.127-.462s-.255-.126-.519-.132v-.163h1.371zm2.149-.119v.905c.337-.603.683-.905 1.037-.905a.56.56 0 0 1 .4.149c.105.097.158.209.158.338 0 .114-.038.211-.114.29s-.167.119-.272.119-.218-.05-.347-.149-.22-.154-.281-.154c-.053 0-.11.029-.171.088-.132.12-.268.318-.409.593v1.929c0 .223.028.391.084.505.038.079.105.145.202.198s.236.079.417.079V79h-2.061v-.158c.205 0 .357-.032.457-.097.073-.047.124-.122.154-.224.015-.05.022-.192.022-.426v-1.56l-.031-.835c-.018-.091-.053-.157-.105-.198s-.113-.062-.189-.062a.87.87 0 0 0-.308.066l-.044-.158 1.217-.492h.185zm2.021 5.643v-.193c.302-.1.535-.255.699-.466s.251-.429.251-.664a.24.24 0 0 0-.04-.141c-.02-.026-.041-.04-.062-.04-.032 0-.102.029-.211.088a.37.37 0 0 1-.167.04c-.144 0-.258-.042-.343-.127s-.127-.202-.127-.352a.49.49 0 0 1 .163-.369c.111-.103.246-.154.404-.154.193 0 .365.085.514.255s.228.39.228.668c0 .302-.105.582-.316.839s-.539.466-.993.615zm8.143-2.646L67.707 79h-3.516v-.163c1.034-.943 1.762-1.714 2.184-2.312s.633-1.144.633-1.639c0-.378-.116-.689-.347-.932s-.508-.365-.831-.365a1.3 1.3 0 0 0-.791.259c-.231.17-.403.42-.514.752h-.163c.073-.542.261-.958.563-1.248s.684-.435 1.138-.435c.483 0 .886.155 1.209.466s.488.677.488 1.099c0 .302-.07.603-.211.905-.217.475-.568.977-1.055 1.507l-1.367 1.441h1.556c.316 0 .538-.012.664-.035s.245-.07.347-.141.192-.176.268-.308h.163zm3.582-1.362c-.003.598.142 1.066.435 1.406s.637.51 1.033.51c.264 0 .492-.072.686-.215s.36-.395.492-.747l.136.088c-.061.401-.24.768-.536 1.099s-.666.492-1.112.492c-.483 0-.898-.187-1.244-.562s-.514-.885-.514-1.52c0-.688.176-1.225.527-1.608a1.73 1.73 0 0 1 1.332-.58c.451 0 .822.149 1.112.448s.435.693.435 1.191h-2.782zm0-.255h1.863c-.015-.258-.045-.439-.092-.545a.87.87 0 0 0-.33-.387c-.144-.094-.294-.141-.453-.141a.91.91 0 0 0-.655.286c-.19.188-.302.45-.334.787zm4.399 1.296c-.246-.12-.435-.287-.567-.501a1.35 1.35 0 0 1-.198-.716c0-.398.149-.741.448-1.028s.687-.431 1.156-.431c.384 0 .716.094.998.281h.852c.126 0 .199.004.22.013s.035.018.044.035c.018.026.026.073.026.141 0 .076-.007.129-.022.158-.009.015-.025.026-.048.035s-.094.013-.22.013h-.523c.164.211.246.48.246.809 0 .375-.144.696-.431.962s-.672.4-1.156.4c-.199 0-.403-.029-.611-.088-.129.111-.217.209-.264.294s-.066.152-.066.211c0 .05.023.098.07.145s.145.081.286.101c.082.012.287.022.615.031l1.173.062c.272.038.489.139.65.303s.246.366.246.606c0 .331-.155.642-.466.932-.457.428-1.053.642-1.789.642-.565 0-1.043-.128-1.433-.382-.22-.147-.33-.299-.33-.457a.5.5 0 0 1 .048-.211c.05-.108.152-.259.308-.453.02-.026.17-.185.448-.475-.152-.091-.261-.171-.325-.242s-.092-.155-.092-.246c0-.103.041-.223.123-.36s.278-.332.58-.584zm.765-2.465c-.217 0-.398.086-.545.259s-.22.438-.22.795c0 .463.1.822.299 1.077.152.193.346.29.58.29a.69.69 0 0 0 .549-.251c.144-.167.215-.429.215-.787 0-.466-.101-.831-.303-1.094-.149-.193-.341-.29-.576-.29zM76.061 79c-.138.149-.242.289-.312.418s-.105.248-.105.356c0 .141.085.264.255.369.293.182.716.272 1.27.272.527 0 .916-.094 1.165-.281s.378-.382.378-.593c0-.152-.075-.261-.224-.325s-.454-.103-.905-.114L76.061 79zm4.544-1.468c-.246-.12-.435-.287-.567-.501a1.35 1.35 0 0 1-.198-.716c0-.398.149-.741.448-1.028s.687-.431 1.156-.431c.384 0 .716.094.998.281h.852c.126 0 .199.004.22.013s.035.018.044.035c.018.026.026.073.026.141 0 .076-.007.129-.022.158-.009.015-.025.026-.048.035s-.094.013-.22.013h-.523c.164.211.246.48.246.809 0 .375-.144.696-.431.962s-.672.4-1.156.4c-.199 0-.403-.029-.611-.088-.129.111-.217.209-.264.294s-.066.152-.066.211c0 .05.023.098.07.145s.145.081.286.101c.082.012.287.022.615.031l1.173.062c.272.038.489.139.65.303s.246.366.246.606c0 .331-.155.642-.466.932-.457.428-1.053.642-1.789.642-.565 0-1.043-.128-1.433-.382-.22-.147-.33-.299-.33-.457a.5.5 0 0 1 .048-.211c.05-.108.152-.259.308-.453.02-.026.17-.185.448-.475-.152-.091-.261-.171-.325-.242s-.092-.155-.092-.246c0-.103.041-.223.123-.36s.278-.332.58-.584zm.765-2.465c-.217 0-.398.086-.545.259s-.22.438-.22.795c0 .463.1.822.299 1.077.152.193.346.29.58.29a.69.69 0 0 0 .549-.251c.144-.167.215-.429.215-.787 0-.466-.101-.831-.303-1.094-.149-.193-.341-.29-.576-.29zM80.561 79c-.138.149-.242.289-.312.418s-.105.248-.105.356c0 .141.085.264.255.369.293.182.716.272 1.27.272.527 0 .916-.094 1.165-.281s.378-.382.378-.593c0-.152-.075-.261-.224-.325s-.454-.103-.905-.114L80.561 79zm6.069-4.144v1.371h-.145c-.111-.431-.255-.724-.431-.879s-.394-.233-.664-.233c-.205 0-.371.054-.497.163s-.189.228-.189.36c0 .164.047.305.141.422s.275.247.554.382l.642.312c.595.29.892.672.892 1.147 0 .366-.139.662-.417.888s-.584.334-.927.334c-.246 0-.527-.044-.844-.132-.097-.029-.176-.044-.237-.044-.067 0-.12.038-.158.114h-.145v-1.437h.145c.082.41.239.719.47.927s.491.312.778.312c.202 0 .366-.059.492-.176a.57.57 0 0 0 .193-.431.68.68 0 0 0-.215-.51c-.141-.138-.423-.312-.848-.523s-.703-.401-.835-.571-.198-.378-.198-.633a1.12 1.12 0 0 1 .338-.831c.228-.223.523-.334.883-.334a2.07 2.07 0 0 1 .576.101c.149.044.249.066.299.066s.084-.01.11-.031.057-.066.092-.136h.145zm1.107 5.643v-.193c.302-.1.535-.255.699-.466s.25-.429.25-.664c0-.056-.013-.103-.039-.141-.021-.026-.041-.04-.062-.04-.032 0-.103.029-.211.088-.053.026-.108.04-.167.04-.144 0-.258-.042-.343-.127s-.127-.202-.127-.352a.49.49 0 0 1 .163-.369c.111-.103.246-.154.404-.154.193 0 .365.085.514.255s.228.39.228.668c0 .302-.105.582-.316.839s-.539.466-.993.615zm5.071-6.873l1.45-.707h.145v5.032c0 .334.013.542.04.624s.088.145.176.189.267.069.536.075V79h-2.241v-.163c.281-.006.463-.029.545-.07s.139-.101.171-.171.048-.289.048-.646v-3.217c0-.434-.015-.712-.044-.835-.02-.094-.059-.163-.114-.207s-.117-.066-.193-.066c-.108 0-.259.045-.453.136l-.066-.136zm5.968-.874l-2.158 6.372h-.352l2.158-6.372h.352zm4.109 5.102L102.468 79h-3.516v-.163c1.034-.943 1.762-1.714 2.184-2.312s.633-1.144.633-1.639c0-.378-.116-.689-.347-.932s-.508-.365-.831-.365a1.3 1.3 0 0 0-.791.259c-.231.17-.403.42-.514.752h-.163c.073-.542.261-.958.563-1.248s.684-.435 1.138-.435c.484 0 .886.155 1.209.466a1.47 1.47 0 0 1 .488 1.099c0 .302-.071.603-.211.905-.217.475-.569.977-1.055 1.507l-1.367 1.441h1.556c.316 0 .537-.012.663-.035a.89.89 0 0 0 .348-.141c.102-.073.191-.176.268-.308h.162zm6.324-.382c-.108.53-.321.939-.637 1.226s-.667.426-1.051.426c-.457 0-.855-.192-1.195-.576s-.51-.902-.51-1.556c0-.633.188-1.147.563-1.542a1.81 1.81 0 0 1 1.358-.593c.395 0 .721.105.975.316s.383.425.383.65c0 .111-.037.202-.11.272s-.17.101-.299.101c-.173 0-.303-.056-.391-.167-.05-.062-.084-.179-.101-.352s-.073-.305-.176-.395-.245-.132-.426-.132c-.293 0-.529.108-.708.325-.237.287-.356.666-.356 1.138a2.33 2.33 0 0 0 .352 1.274c.237.366.557.549.958.549.287 0 .545-.098.773-.294.161-.135.318-.379.471-.734l.127.061zm4.109-2.496v2.439l.031.857c.023.103.058.174.105.215s.107.062.171.062c.091 0 .194-.025.308-.075l.062.154-1.204.497h-.198v-.853c-.346.375-.61.611-.791.707a1.21 1.21 0 0 1-.576.145c-.226 0-.422-.064-.589-.193s-.278-.3-.343-.505-.096-.495-.096-.87v-1.797c0-.19-.021-.322-.062-.395s-.102-.129-.184-.167-.224-.06-.435-.057v-.163h1.41v2.694c0 .375.065.621.194.738s.29.176.474.176a.97.97 0 0 0 .426-.119c.162-.079.352-.23.572-.453v-2.281c0-.229-.043-.382-.128-.462s-.255-.126-.518-.132v-.163h1.371zm.681.4l1.239-.501h.167v.94c.208-.354.416-.602.624-.743a1.16 1.16 0 0 1 .664-.215c.404 0 .741.158 1.011.475.331.387.496.891.496 1.512 0 .694-.199 1.269-.597 1.723-.329.372-.742.558-1.24.558-.217 0-.404-.031-.562-.092-.117-.044-.249-.132-.396-.264v1.226c0 .275.016.45.049.523s.093.136.175.18.238.066.457.066v.163h-2.109v-.163h.11c.161.003.299-.028.413-.092.056-.032.098-.085.127-.158s.049-.252.049-.545v-3.806c0-.261-.012-.426-.035-.497s-.062-.123-.115-.158a.35.35 0 0 0-.206-.053c-.07 0-.16.021-.268.062l-.053-.141zm1.406.699v1.503c0 .325.013.539.04.642.041.17.14.319.299.448s.363.193.606.193c.293 0 .53-.114.712-.343.237-.299.356-.719.356-1.261 0-.615-.135-1.088-.404-1.419-.188-.228-.41-.343-.668-.343a.91.91 0 0 0-.418.105c-.105.053-.28.211-.523.475zm6.829-.36l.519-.505a1.58 1.58 0 0 1 .426-.259c.153-.061.303-.092.453-.092a1 1 0 0 1 .65.22c.182.147.303.359.365.637.302-.352.557-.582.765-.69a1.34 1.34 0 0 1 .641-.167c.214 0 .403.056.567.167s.299.287.396.536c.064.17.096.436.096.8v1.731c0 .252.019.425.057.519a.39.39 0 0 0 .163.167c.079.044.208.066.387.066V79h-1.987v-.158h.084c.173 0 .308-.034.404-.101.068-.047.116-.122.145-.224.012-.05.018-.192.018-.426v-1.731c0-.328-.04-.56-.119-.694-.114-.187-.297-.281-.549-.281-.155 0-.312.04-.47.119s-.345.22-.567.431l-.009.048.009.189v1.92c0 .275.014.447.044.514s.09.124.175.171.23.066.436.066V79h-2.035v-.158c.223 0 .375-.026.457-.079a.41.41 0 0 0 .176-.237c.014-.05.022-.195.022-.435v-1.731c0-.328-.049-.564-.145-.708a.62.62 0 0 0-.541-.281.97.97 0 0 0-.47.128c-.243.129-.431.274-.563.435v2.158c0 .264.018.435.053.514s.092.139.163.18.219.057.439.057V79h-1.991v-.158c.185 0 .314-.019.387-.057s.129-.104.167-.189.057-.256.057-.505v-1.538l-.039-.857c-.021-.097-.053-.163-.097-.198s-.104-.057-.18-.057c-.082 0-.18.022-.295.066l-.065-.158 1.212-.492h.189v.857zm6.834-2.962c.123 0 .227.044.312.132s.132.189.132.312a.43.43 0 0 1-.132.316c-.085.088-.189.132-.312.132s-.229-.044-.317-.132-.131-.193-.131-.316.042-.227.127-.312.195-.132.321-.132zm.365 2.105v3.234c0 .252.017.42.052.505s.093.144.163.185.205.062.395.062V79h-1.955v-.158c.196 0 .328-.019.395-.057s.121-.101.159-.189.061-.256.061-.505v-1.551l-.039-.848c-.021-.094-.053-.158-.097-.193s-.104-.057-.18-.057a.88.88 0 0 0-.299.066l-.062-.158 1.213-.492h.194zm2.5-2.105v5.339c0 .252.018.419.053.501s.095.145.171.189.218.062.426.062V79h-1.973v-.158c.185 0 .311-.019.378-.057s.12-.101.158-.189.058-.256.058-.505v-3.656l-.031-.835c-.021-.105-.054-.177-.101-.215s-.101-.057-.172-.057-.172.023-.29.07l-.074-.154 1.199-.492h.198zm2.312 0v4.008l1.024-.936.377-.378c.024-.035.036-.07.036-.105 0-.059-.025-.108-.075-.15s-.126-.069-.237-.075v-.141h1.749v.141a1.67 1.67 0 0 0-.602.11c-.159.067-.333.188-.523.36l-1.033.954 1.033 1.305.58.686c.14.138.263.227.369.268.073.029.201.044.382.044V79h-1.955v-.158c.111-.003.186-.019.224-.048s.061-.076.061-.132c0-.067-.058-.176-.176-.325l-1.234-1.578v1.336c0 .261.017.432.052.514s.091.141.159.176.213.054.439.057V79h-2.048v-.158c.205 0 .359-.025.462-.075.061-.032.108-.082.14-.149.044-.097.066-.264.066-.501v-3.665l-.031-.853c-.02-.105-.054-.177-.101-.215s-.108-.061-.184-.061c-.062 0-.154.025-.277.075l-.075-.154 1.195-.492h.203z"/><path d="M23.683 125l-2.303-5.014v3.981c0 .366.04.595.119.686.108.123.28.184.514.184h.211V125h-2.074v-.163h.211c.252 0 .431-.076.536-.228.064-.094.097-.308.097-.642v-3.893c0-.264-.029-.454-.088-.572-.041-.085-.117-.155-.229-.21s-.284-.088-.527-.088v-.163h1.688l2.162 4.663 2.127-4.663h1.688v.163h-.207c-.255 0-.435.076-.54.228-.064.094-.097.308-.097.642v3.893c0 .366.041.595.123.686.108.123.28.184.514.184h.207V125h-2.531v-.163h.211c.255 0 .434-.076.536-.228.065-.094.097-.308.097-.642v-3.981L23.828 125h-.145zm5.629-6.249c.123 0 .227.044.312.132s.132.189.132.312a.43.43 0 0 1-.132.316c-.085.088-.189.132-.312.132a.43.43 0 0 1-.448-.448c0-.123.042-.227.127-.312s.195-.132.321-.132zm.365 2.105v3.234c0 .252.017.421.053.506a.4.4 0 0 0 .163.184c.073.041.205.062.396.062V125h-1.956v-.158c.196 0 .328-.019.395-.057a.38.38 0 0 0 .158-.189c.041-.088.062-.257.062-.506v-1.551l-.04-.848c-.02-.094-.053-.158-.097-.193s-.104-.058-.18-.058a.88.88 0 0 0-.299.066l-.062-.158 1.213-.492h.193zm.954.119h1.894v.162c-.12 0-.205.021-.255.062s-.07.095-.07.162.051.179.154.326l.145.219.286.457.33-.457c.211-.29.316-.473.316-.549 0-.062-.025-.113-.075-.154s-.13-.066-.242-.066v-.162h1.362v.162c-.144.009-.268.049-.373.119-.144.099-.34.316-.589.65l-.549.734 1.002 1.442c.246.354.422.568.527.641s.242.11.409.119V125h-1.898v-.158c.132 0 .234-.03.308-.088.056-.041.084-.095.084-.163s-.094-.237-.281-.509l-.589-.862-.646.862c-.199.266-.299.424-.299.474 0 .07.032.135.097.194s.167.086.299.092V125h-1.314v-.158c.105-.015.198-.051.277-.11.111-.085.299-.302.563-.65l.844-1.121-.765-1.107c-.217-.317-.385-.515-.505-.594s-.265-.123-.444-.123v-.162zm9.193 3.445l-.778.554a1.19 1.19 0 0 1-.505.109c-.278 0-.508-.095-.69-.285s-.268-.441-.268-.752c0-.196.044-.366.132-.509.12-.2.328-.387.624-.563s.794-.39 1.485-.641v-.159c0-.401-.064-.676-.193-.826s-.311-.224-.554-.224c-.185 0-.331.05-.44.149a.45.45 0 0 0-.167.343l.009.255c0 .135-.035.239-.105.312s-.157.11-.268.11a.35.35 0 0 1-.268-.114c-.067-.076-.101-.18-.101-.312 0-.252.129-.484.387-.695s.62-.316 1.086-.316c.357 0 .65.06.879.18a.83.83 0 0 1 .382.426c.053.126.079.384.079.774v1.367l.022.707c.015.085.038.142.07.171s.075.044.119.044.088-.01.123-.03a2.73 2.73 0 0 0 .356-.321v.246c-.328.439-.642.659-.941.659-.143 0-.258-.05-.343-.149s-.129-.27-.132-.51zm0-.286v-1.533l-.857.373c-.231.129-.397.264-.497.404s-.149.295-.149.462c0 .211.063.387.189.527s.271.207.435.207c.223 0 .516-.147.879-.44zm3.103-5.383v5.339c0 .252.018.419.053.501s.095.145.171.189.218.062.426.062V125h-1.973v-.158c.185 0 .311-.019.378-.057a.38.38 0 0 0 .158-.189c.038-.088.057-.257.057-.506v-3.656l-.031-.835c-.02-.105-.054-.177-.101-.215s-.101-.057-.171-.057c-.076 0-.173.023-.29.07l-.075-.154 1.2-.492h.198zm2.505 0v5.339c0 .252.018.419.053.501s.095.145.171.189.218.062.426.062V125h-1.973v-.158c.185 0 .31-.019.378-.057a.38.38 0 0 0 .158-.189c.038-.088.057-.257.057-.506v-3.656l-.031-.835c-.021-.105-.054-.177-.101-.215s-.101-.057-.171-.057c-.076 0-.173.023-.29.07l-.075-.154 1.2-.492h.198zm4.395 0c.123 0 .227.044.312.132s.132.189.132.312a.43.43 0 0 1-.132.316c-.085.088-.189.132-.312.132a.43.43 0 0 1-.448-.448c0-.123.042-.227.127-.312s.195-.132.321-.132zm.365 2.105v3.234c0 .252.018.421.053.506a.4.4 0 0 0 .163.184c.073.041.205.062.395.062V125h-1.956v-.158c.196 0 .328-.019.395-.057a.38.38 0 0 0 .158-.189c.041-.088.062-.257.062-.506v-1.551l-.04-.848c-.02-.094-.053-.158-.097-.193s-.104-.058-.18-.058a.88.88 0 0 0-.299.066l-.062-.158 1.213-.492h.193zm2.29.852c.472-.568.921-.852 1.349-.852.22 0 .409.056.567.167s.284.289.378.54c.065.176.097.446.097.809v1.718c0 .255.02.428.061.519.032.073.084.13.154.171s.207.062.4.062V125h-1.991v-.158h.084c.188 0 .318-.028.391-.084a.45.45 0 0 0 .158-.255c.012-.044.018-.181.018-.413v-1.648c0-.366-.048-.631-.145-.795s-.253-.251-.479-.251c-.349 0-.696.191-1.042.572v2.122c0 .273.016.441.048.506.041.085.097.148.167.189s.22.057.439.057V125h-1.991v-.158h.088c.205 0 .343-.051.413-.154s.11-.305.11-.598v-1.494l-.035-.883c-.021-.106-.054-.177-.101-.215s-.104-.058-.18-.058c-.082 0-.18.022-.294.066l-.066-.158 1.213-.492h.189v.852zm4.403 1.824c-.246-.12-.435-.287-.567-.501a1.35 1.35 0 0 1-.198-.716c0-.398.149-.741.448-1.028s.687-.431 1.156-.431a1.76 1.76 0 0 1 .997.281h.853c.126 0 .199.005.22.013s.035.018.044.036c.018.026.026.073.026.14a.39.39 0 0 1-.022.158c-.009.015-.025.027-.048.036s-.094.013-.22.013h-.523c.164.211.246.48.246.808 0 .375-.144.696-.431.963s-.672.4-1.156.4a2.27 2.27 0 0 1-.611-.088c-.129.111-.217.209-.264.294s-.066.152-.066.211c0 .05.023.098.07.145s.145.081.286.101a7.49 7.49 0 0 0 .615.031l1.173.061c.272.039.489.14.65.304s.246.366.246.606c0 .331-.155.642-.466.932-.457.428-1.053.641-1.788.641-.566 0-1.043-.127-1.433-.382-.22-.146-.329-.299-.329-.457 0-.07.016-.141.048-.211.05-.108.152-.259.308-.453a19.5 19.5 0 0 1 .448-.474c-.152-.091-.261-.172-.325-.242a.37.37 0 0 1-.092-.246c0-.102.041-.223.123-.36s.278-.333.58-.585zm.765-2.465c-.217 0-.398.086-.545.259s-.22.438-.22.796c0 .462.1.821.299 1.076.152.194.346.29.58.29a.69.69 0 0 0 .549-.25c.144-.167.215-.429.215-.787 0-.466-.101-.83-.303-1.094-.149-.193-.341-.29-.576-.29zM56.839 125c-.138.149-.242.289-.312.417s-.105.248-.105.356c0 .141.085.264.255.37.293.181.716.272 1.27.272.527 0 .915-.094 1.164-.281s.378-.383.378-.593c0-.153-.075-.261-.224-.326s-.454-.102-.905-.114L56.839 125zm4.645-4.144v.905c.337-.603.683-.905 1.037-.905a.56.56 0 0 1 .4.149c.105.097.158.21.158.339 0 .114-.038.211-.114.29s-.167.118-.272.118-.218-.049-.347-.149-.22-.154-.281-.154c-.053 0-.11.03-.171.088-.132.12-.268.318-.409.593v1.93c0 .222.028.391.084.505.038.079.105.145.202.198s.236.079.417.079V125h-2.061v-.158c.205 0 .357-.032.457-.097.073-.047.124-.121.154-.224.015-.05.022-.192.022-.426v-1.56l-.031-.835c-.018-.091-.053-.157-.105-.198s-.113-.062-.189-.062c-.091 0-.193.022-.308.066l-.044-.158 1.217-.492h.185zm2.496 1.635c-.003.597.142 1.066.435 1.406s.637.51 1.033.51c.264 0 .492-.072.686-.216s.36-.395.492-.747l.136.088c-.062.402-.24.768-.536 1.099s-.666.492-1.112.492c-.483 0-.898-.187-1.244-.562s-.514-.885-.514-1.521c0-.688.176-1.225.527-1.608a1.73 1.73 0 0 1 1.331-.58 1.48 1.48 0 0 1 1.112.448c.29.296.435.693.435 1.191h-2.782zm0-.255h1.863c-.015-.258-.046-.44-.092-.545a.87.87 0 0 0-.33-.387c-.144-.094-.294-.14-.453-.14a.91.91 0 0 0-.655.285c-.191.188-.302.45-.334.787zm6.166 2.311c-.196.205-.388.353-.576.444a1.41 1.41 0 0 1-.606.132c-.439 0-.823-.183-1.151-.549s-.492-.843-.492-1.42.182-1.104.545-1.582.831-.72 1.402-.72c.355 0 .647.112.879.338v-.743l-.035-.848c-.02-.105-.054-.177-.101-.215a.27.27 0 0 0-.176-.057.92.92 0 0 0-.303.07l-.057-.154 1.2-.492h.198v4.654l.031.866a.4.4 0 0 0 .105.215c.05.041.107.061.171.061.079 0 .185-.025.316-.074l.048.153-1.195.497h-.202v-.576zm0-.307v-2.074a1.4 1.4 0 0 0-.158-.545c-.088-.164-.205-.288-.352-.37s-.284-.127-.422-.127c-.258 0-.488.116-.69.347-.267.305-.4.75-.4 1.336 0 .592.129 1.046.387 1.362s.545.471.861.471c.267 0 .524-.134.773-.4zm2.681-5.489c.123 0 .227.044.312.132s.132.189.132.312a.43.43 0 0 1-.132.316c-.085.088-.189.132-.312.132a.43.43 0 0 1-.448-.448c0-.123.043-.227.127-.312s.195-.132.321-.132zm.365 2.105v3.234c0 .252.018.421.053.506a.4.4 0 0 0 .163.184c.073.041.205.062.395.062V125h-1.956v-.158c.196 0 .328-.019.395-.057a.38.38 0 0 0 .158-.189c.041-.088.061-.257.061-.506v-1.551l-.04-.848c-.02-.094-.053-.158-.097-.193s-.104-.058-.18-.058a.88.88 0 0 0-.299.066l-.061-.158 1.213-.492h.193zm1.793 1.635c-.003.597.142 1.066.435 1.406s.637.51 1.033.51c.264 0 .492-.072.686-.216s.36-.395.492-.747l.136.088c-.061.402-.24.768-.536 1.099s-.666.492-1.112.492c-.483 0-.898-.187-1.244-.562s-.514-.885-.514-1.521c0-.688.176-1.225.527-1.608a1.73 1.73 0 0 1 1.332-.58c.451 0 .822.149 1.112.448s.435.693.435 1.191h-2.782zm0-.255h1.863c-.015-.258-.046-.44-.092-.545a.87.87 0 0 0-.33-.387c-.144-.094-.294-.14-.453-.14a.91.91 0 0 0-.655.285c-.191.188-.302.45-.334.787zm4.496-.528c.472-.568.921-.852 1.349-.852.22 0 .409.056.567.167s.284.289.378.54c.064.176.097.446.097.809v1.718c0 .255.02.428.062.519.032.073.084.13.154.171s.207.062.4.062V125h-1.991v-.158h.084c.188 0 .318-.028.391-.084a.45.45 0 0 0 .158-.255c.012-.044.018-.181.018-.413v-1.648c0-.366-.048-.631-.145-.795s-.253-.251-.479-.251c-.349 0-.696.191-1.041.572v2.122c0 .273.016.441.048.506.041.085.097.148.167.189s.22.057.439.057V125h-1.991v-.158h.088c.205 0 .343-.051.413-.154s.11-.305.11-.598v-1.494l-.035-.883c-.02-.106-.054-.177-.101-.215s-.104-.058-.18-.058c-.082 0-.18.022-.294.066l-.066-.158 1.213-.492h.189v.852zm4.496-2.056v1.323h.94v.307h-.94v2.611c0 .26.037.436.11.527a.36.36 0 0 0 .29.136.51.51 0 0 0 .281-.088.59.59 0 0 0 .211-.268h.171c-.103.287-.248.504-.435.651s-.381.215-.58.215c-.135 0-.267-.037-.395-.11a.69.69 0 0 1-.286-.321c-.062-.14-.092-.356-.092-.646v-2.707h-.637v-.145c.161-.064.325-.173.492-.325s.321-.338.453-.549c.067-.112.161-.315.281-.611h.136zm3.938 1.204v1.371h-.145c-.111-.431-.255-.724-.431-.879s-.394-.233-.664-.233c-.205 0-.371.054-.497.163s-.189.228-.189.36c0 .164.047.305.141.422s.275.248.554.382l.642.312c.595.29.892.673.892 1.147 0 .367-.139.662-.418.888s-.584.334-.927.334c-.246 0-.527-.044-.844-.132-.097-.029-.176-.044-.237-.044-.067 0-.12.038-.158.115h-.145v-1.437h.145c.082.41.239.719.47.927s.491.312.778.312c.202 0 .366-.059.492-.176a.57.57 0 0 0 .193-.431c0-.202-.072-.372-.215-.509s-.423-.312-.848-.523-.703-.402-.835-.572-.198-.378-.198-.632a1.12 1.12 0 0 1 .338-.831c.229-.223.523-.334.883-.334.158 0 .35.034.576.101.149.044.249.066.299.066s.084-.01.11-.031a.42.42 0 0 0 .092-.136h.145zm4.179-2.105c.123 0 .227.044.312.132s.132.189.132.312a.43.43 0 0 1-.132.316c-.085.088-.189.132-.312.132a.43.43 0 0 1-.448-.448c0-.123.042-.227.127-.312s.195-.132.321-.132zm.365 2.105v3.234c0 .252.018.421.053.506a.4.4 0 0 0 .163.184c.073.041.205.062.395.062V125h-1.956v-.158c.196 0 .328-.019.395-.057a.38.38 0 0 0 .158-.189c.041-.088.062-.257.062-.506v-1.551l-.04-.848c-.02-.094-.053-.158-.097-.193s-.104-.058-.18-.058a.88.88 0 0 0-.299.066l-.062-.158 1.213-.492h.193zm2.29.852c.472-.568.921-.852 1.349-.852.22 0 .409.056.567.167s.284.289.378.54c.065.176.097.446.097.809v1.718c0 .255.02.428.061.519.032.073.084.13.154.171s.207.062.4.062V125h-1.991v-.158h.084c.188 0 .318-.028.391-.084a.45.45 0 0 0 .158-.255c.012-.044.018-.181.018-.413v-1.648c0-.366-.048-.631-.145-.795s-.253-.251-.479-.251c-.349 0-.696.191-1.041.572v2.122c0 .273.016.441.048.506.041.085.097.148.167.189s.22.057.439.057V125h-1.991v-.158h.088c.205 0 .343-.051.413-.154s.11-.305.11-.598v-1.494l-.035-.883c-.02-.106-.054-.177-.101-.215s-.104-.058-.18-.058c-.082 0-.18.022-.294.066l-.066-.158 1.213-.492h.189v.852zm7.857 2.712l-.778.554a1.19 1.19 0 0 1-.505.109.91.91 0 0 1-.69-.285c-.179-.191-.268-.441-.268-.752 0-.196.044-.366.132-.509.12-.2.328-.387.624-.563s.794-.39 1.485-.641v-.159c0-.401-.064-.676-.193-.826s-.311-.224-.554-.224c-.185 0-.331.05-.44.149s-.167.214-.167.343l.009.255c0 .135-.035.239-.105.312s-.157.11-.268.11-.198-.038-.268-.114a.45.45 0 0 1-.101-.312c0-.252.129-.484.386-.695s.62-.316 1.086-.316c.357 0 .65.06.879.18.173.091.3.233.382.426.053.126.079.384.079.774v1.367l.022.707c.015.085.038.142.07.171a.18.18 0 0 0 .119.044c.047 0 .088-.01.123-.03a2.71 2.71 0 0 0 .356-.321v.246c-.328.439-.642.659-.94.659-.144 0-.258-.05-.343-.149s-.129-.27-.132-.51zm0-.286v-1.533l-.857.373c-.231.129-.397.264-.497.404s-.149.295-.149.462c0 .211.063.387.189.527s.271.207.435.207c.223 0 .516-.147.879-.44zm5.071-2.465c.39-.542.81-.813 1.262-.813.413 0 .773.177 1.081.532s.461.833.461 1.445c0 .715-.237 1.291-.712 1.728-.407.375-.861.562-1.362.562-.235 0-.473-.042-.717-.127s-.486-.213-.738-.383v-4.17l-.035-.844c-.02-.105-.054-.177-.101-.215s-.106-.057-.176-.057c-.082 0-.184.023-.307.07l-.062-.154 1.209-.492h.197v2.918zm0 .281v2.408a1.75 1.75 0 0 0 .462.334c.161.074.325.11.492.11.267 0 .514-.146.743-.439s.347-.719.347-1.279c0-.516-.116-.911-.347-1.187s-.49-.417-.783-.417c-.155 0-.31.04-.465.119-.118.058-.267.175-.449.351zm5.366-1.094c.609 0 1.099.231 1.468.694.313.396.47.85.47 1.363 0 .36-.086.725-.259 1.094a1.89 1.89 0 0 1-.717.835c-.301.187-.638.281-1.01.281-.607 0-1.089-.242-1.446-.725-.302-.407-.453-.864-.453-1.371 0-.369.091-.735.273-1.099s.426-.636.725-.808a1.84 1.84 0 0 1 .949-.264zm-.136.286c-.155 0-.312.046-.47.14s-.282.252-.378.484-.145.528-.145.892c0 .586.115 1.091.347 1.516s.542.637.923.637c.284 0 .518-.117.703-.352s.277-.637.277-1.208c0-.715-.154-1.277-.462-1.688-.208-.281-.473-.421-.795-.421zm2.443-.167h1.688v.162c-.156.012-.258.04-.308.084s-.07.107-.07.189c0 .09.025.2.074.329l.862 2.316.865-1.885-.228-.593c-.07-.176-.163-.298-.277-.365-.064-.041-.184-.066-.36-.075v-.162h1.916v.162c-.211.009-.361.047-.448.114-.059.047-.088.122-.088.225 0 .058.011.118.035.18l.914 2.311.848-2.228c.059-.158.088-.284.088-.378 0-.055-.029-.105-.088-.149s-.167-.069-.334-.075v-.162h1.27v.162c-.255.038-.442.211-.562.519l-1.345 3.467h-.18l-1.007-2.571-1.173 2.571h-.163l-1.292-3.384c-.085-.214-.168-.357-.25-.43s-.211-.134-.387-.172v-.162zm8.112-2.224v5.339c0 .252.018.419.053.501a.41.41 0 0 0 .172.189c.076.041.218.062.426.062V125h-1.973v-.158c.184 0 .31-.019.378-.057s.12-.101.158-.189.057-.257.057-.506v-3.656l-.031-.835c-.02-.105-.054-.177-.101-.215s-.101-.057-.171-.057c-.076 0-.173.023-.29.07l-.075-.154 1.2-.492h.197zm6.9 2.224v2.439l.031.857c.023.102.058.174.105.215s.107.061.171.061c.091 0 .194-.025.308-.074l.062.153-1.204.497h-.198v-.852c-.346.375-.61.61-.791.707s-.374.145-.576.145c-.226 0-.422-.064-.589-.193s-.278-.301-.343-.506-.096-.495-.096-.87v-1.797c0-.191-.021-.322-.062-.396s-.102-.129-.184-.167-.224-.06-.435-.057v-.162h1.41v2.693c0 .375.065.622.194.739a.69.69 0 0 0 .474.176c.126 0 .268-.04.426-.119s.352-.23.572-.453v-2.281c0-.228-.043-.382-.128-.461s-.255-.126-.518-.132v-.162h1.371zm2.144.733c.472-.568.922-.852 1.35-.852a.96.96 0 0 1 .566.167c.159.108.285.289.378.54.065.176.097.446.097.809v1.718c0 .255.021.428.062.519.032.073.083.13.153.171s.207.062.4.062V125h-1.99v-.158h.083c.188 0 .318-.028.391-.084a.45.45 0 0 0 .158-.255c.012-.044.018-.181.018-.413v-1.648c0-.366-.048-.631-.145-.795s-.254-.251-.479-.251c-.349 0-.696.191-1.042.572v2.122c0 .273.017.441.049.506a.42.42 0 0 0 .167.189c.073.038.219.057.439.057V125h-1.991v-.158h.088c.205 0 .343-.051.413-.154s.11-.305.11-.598v-1.494l-.035-.883c-.02-.106-.054-.177-.101-.215s-.104-.058-.18-.058a.85.85 0 0 0-.295.066l-.065-.158 1.212-.492h.189v.852zm4.496-2.056v1.323h.94v.307H137v2.611c0 .26.037.436.11.527a.36.36 0 0 0 .29.136c.097 0 .19-.029.281-.088a.59.59 0 0 0 .211-.268h.171c-.102.287-.247.504-.435.651s-.38.215-.58.215c-.134 0-.266-.037-.395-.11a.69.69 0 0 1-.286-.321c-.061-.14-.092-.356-.092-.646v-2.707h-.637v-.145c.161-.064.325-.173.492-.325a2.61 2.61 0 0 0 .453-.549 5.02 5.02 0 0 0 .281-.611H137zm2.36-.901c.123 0 .227.044.312.132s.132.189.132.312a.43.43 0 0 1-.132.316c-.085.088-.189.132-.312.132s-.229-.044-.317-.132-.131-.193-.131-.316.042-.227.127-.312.195-.132.321-.132zm.365 2.105v3.234c0 .252.017.421.052.506s.093.143.163.184.205.062.395.062V125h-1.955v-.158c.196 0 .328-.019.395-.057s.121-.101.159-.189.061-.257.061-.506v-1.551l-.039-.848c-.021-.094-.053-.158-.097-.193s-.104-.058-.18-.058a.88.88 0 0 0-.299.066l-.062-.158 1.213-.492h.194zm2.5-2.105v5.339c0 .252.018.419.053.501s.095.145.171.189.218.062.426.062V125h-1.973v-.158c.185 0 .311-.019.378-.057s.12-.101.158-.189.058-.257.058-.506v-3.656l-.031-.835c-.021-.105-.054-.177-.101-.215s-.101-.057-.172-.057a.82.82 0 0 0-.29.07l-.074-.154 1.199-.492h.198zm5.972 2.105v1.371h-.145c-.111-.431-.255-.724-.43-.879s-.394-.233-.664-.233c-.205 0-.371.054-.497.163s-.189.228-.189.36c0 .164.047.305.141.422s.275.248.554.382l.641.312c.595.29.892.673.892 1.147 0 .367-.139.662-.417.888s-.584.334-.927.334c-.246 0-.528-.044-.844-.132-.097-.029-.176-.044-.237-.044-.068 0-.12.038-.158.115h-.146v-1.437h.146c.082.41.238.719.47.927s.49.312.778.312c.202 0 .366-.059.492-.176s.193-.264.193-.431c0-.202-.072-.372-.215-.509s-.424-.312-.848-.523-.704-.402-.835-.572-.198-.378-.198-.632a1.12 1.12 0 0 1 .338-.831c.229-.223.523-.334.884-.334.158 0 .35.034.575.101.15.044.249.066.299.066s.084-.01.11-.031.057-.066.092-.136h.145zm2.101.857l.518-.505c.132-.112.274-.198.427-.26a1.21 1.21 0 0 1 .452-.092c.252 0 .469.073.651.22s.303.359.364.637c.302-.352.557-.582.765-.69a1.35 1.35 0 0 1 .642-.167c.214 0 .403.056.567.167s.298.287.395.536c.065.17.097.437.097.8v1.731c0 .252.019.425.057.519.029.064.083.12.163.167s.208.066.386.066V125h-1.986v-.158h.083c.173 0 .308-.034.405-.101.067-.047.115-.122.145-.224.011-.05.017-.192.017-.427v-1.731c0-.328-.039-.56-.118-.694-.115-.188-.298-.282-.55-.282-.155 0-.312.04-.47.119s-.344.22-.567.431l-.009.048.009.189v1.92c0 .276.015.447.044.514s.091.125.176.172.23.066.435.066V125h-2.035v-.158c.223 0 .375-.027.457-.079s.144-.132.176-.238c.015-.049.022-.194.022-.435v-1.731c0-.328-.048-.564-.145-.708a.62.62 0 0 0-.54-.281c-.159 0-.315.043-.471.128-.243.128-.43.273-.562.435v2.157c0 .264.017.435.053.514s.092.14.162.181.22.057.44.057V125h-1.991v-.158c.184 0 .313-.019.387-.057s.129-.104.167-.189.057-.257.057-.506v-1.538l-.04-.857c-.02-.096-.053-.162-.096-.197s-.104-.058-.181-.058a.84.84 0 0 0-.294.066l-.066-.158 1.213-.492h.189v.857zm7.778-.857a1.78 1.78 0 0 1 1.468.694c.313.396.47.85.47 1.363 0 .36-.086.725-.259 1.094s-.412.647-.716.835-.639.281-1.011.281c-.607 0-1.089-.242-1.446-.725-.302-.407-.453-.864-.453-1.371 0-.369.091-.735.273-1.099s.426-.636.725-.808a1.84 1.84 0 0 1 .949-.264zm-.136.286c-.155 0-.312.046-.47.14s-.282.252-.378.484-.145.528-.145.892c0 .586.115 1.091.347 1.516s.542.637.923.637c.284 0 .518-.117.703-.352s.277-.637.277-1.208c0-.715-.154-1.277-.462-1.688-.208-.281-.473-.421-.795-.421zm4.636-.286a1.78 1.78 0 0 1 1.468.694c.313.396.47.85.47 1.363 0 .36-.086.725-.259 1.094s-.412.647-.716.835-.639.281-1.011.281c-.607 0-1.089-.242-1.446-.725-.302-.407-.453-.864-.453-1.371 0-.369.091-.735.273-1.099s.426-.636.725-.808a1.84 1.84 0 0 1 .949-.264zm-.136.286c-.155 0-.312.046-.47.14s-.282.252-.378.484-.145.528-.145.892c0 .586.115 1.091.347 1.516s.542.637.923.637c.284 0 .518-.117.703-.352s.277-.637.277-1.208c0-.715-.154-1.277-.462-1.688-.208-.281-.473-.421-.795-.421zm3.836-1.49v1.323h.941v.307h-.941v2.611c0 .26.037.436.11.527a.36.36 0 0 0 .29.136.51.51 0 0 0 .282-.088.59.59 0 0 0 .21-.268h.172c-.103.287-.248.504-.435.651s-.381.215-.58.215c-.135 0-.267-.037-.396-.11s-.224-.183-.285-.321-.093-.356-.093-.646v-2.707h-.637v-.145c.161-.064.325-.173.492-.325a2.61 2.61 0 0 0 .453-.549 5.02 5.02 0 0 0 .281-.611h.136zm2.518-.901v2.944c.326-.357.583-.586.774-.685a1.19 1.19 0 0 1 .571-.154c.229 0 .425.063.589.189s.286.324.365.593c.055.188.083.53.083 1.029v1.423c0 .255.021.43.062.523a.34.34 0 0 0 .149.167c.071.041.199.062.387.062V125h-1.978v-.158h.093c.187 0 .318-.028.391-.084s.124-.143.154-.255c.008-.046.013-.184.013-.413v-1.423c0-.44-.024-.729-.071-.866s-.115-.24-.215-.308a.61.61 0 0 0-.36-.105c-.144 0-.293.038-.448.114s-.342.23-.559.461v2.127c0 .276.015.447.044.514s.09.125.172.172.23.066.435.066V125h-1.995v-.158a.89.89 0 0 0 .422-.084c.058-.029.105-.085.14-.167s.053-.249.053-.501v-3.643l-.035-.848c-.021-.105-.054-.177-.101-.215s-.104-.057-.18-.057c-.062 0-.162.023-.299.07l-.062-.154 1.204-.492h.202zm4.162 5.396c.138 0 .253.049.347.145s.141.208.141.343a.47.47 0 0 1-.145.347c-.094.094-.208.141-.343.141a.48.48 0 0 1-.488-.488.47.47 0 0 1 .141-.347.48.48 0 0 1 .347-.141z"/><path d="M21.846 138.209v1.736c0 .375.041.608.123.699.111.129.28.193.505.193h.229V141h-2.553v-.163h.224c.252 0 .432-.082.541-.246.059-.091.088-.306.088-.646v-3.849c0-.375-.04-.608-.119-.699-.114-.129-.284-.193-.51-.193h-.224v-.163h2.184c.533 0 .954.056 1.261.167s.567.293.778.554.316.57.316.927c0 .486-.161.882-.483 1.186s-.772.458-1.358.458c-.144 0-.299-.011-.466-.031l-.536-.093zm0-.25l.413.066c.12.015.223.022.308.022a1.04 1.04 0 0 0 .787-.352c.223-.237.334-.543.334-.918a1.63 1.63 0 0 0-.158-.716c-.105-.223-.255-.389-.448-.497a1.3 1.3 0 0 0-.659-.167c-.149 0-.341.028-.576.083v2.479zm5.414-1.103a1.78 1.78 0 0 1 1.468.694c.314.396.47.85.47 1.363 0 .36-.087.725-.259 1.094a1.89 1.89 0 0 1-.716.835 1.88 1.88 0 0 1-1.011.281c-.606 0-1.088-.242-1.446-.725-.302-.407-.453-.864-.453-1.371a2.44 2.44 0 0 1 .272-1.099c.185-.366.426-.636.725-.808a1.84 1.84 0 0 1 .949-.264zm-.136.286c-.155 0-.312.046-.47.14s-.281.252-.378.484-.145.528-.145.892c0 .586.116 1.091.347 1.516s.542.637.923.637c.284 0 .518-.117.703-.352s.277-.637.277-1.208c0-.715-.154-1.277-.462-1.688-.208-.281-.473-.421-.795-.421zm6.196-.167v2.439l.031.857a.4.4 0 0 0 .105.215c.05.041.107.061.171.061.091 0 .193-.025.308-.074l.062.153-1.204.497h-.198v-.852c-.346.375-.609.61-.791.707s-.373.145-.576.145c-.226 0-.422-.064-.589-.193a1.03 1.03 0 0 1-.343-.506c-.064-.205-.097-.495-.097-.87v-1.797c0-.191-.02-.322-.061-.396s-.103-.129-.185-.167-.224-.06-.435-.057v-.162h1.411v2.693c0 .375.064.622.193.739a.69.69 0 0 0 .475.176c.126 0 .268-.04.426-.119s.352-.23.571-.453v-2.281c0-.228-.043-.382-.127-.461s-.255-.126-.519-.132v-.162h1.371zm2.149-.119v.905c.337-.603.683-.905 1.037-.905a.56.56 0 0 1 .4.149c.105.097.158.21.158.339 0 .114-.038.211-.114.29s-.167.118-.273.118-.218-.049-.347-.149-.22-.154-.281-.154c-.053 0-.11.03-.171.088-.132.12-.268.318-.409.593v1.93c0 .222.028.391.083.505.038.079.105.145.202.198s.236.079.418.079V141h-2.061v-.158c.205 0 .358-.032.457-.097.073-.047.124-.121.154-.224.015-.05.022-.192.022-.426v-1.56l-.031-.835c-.018-.091-.053-.157-.105-.198s-.113-.062-.189-.062c-.091 0-.193.022-.308.066l-.044-.158 1.217-.492h.185zm5.238-1.204v1.323h.941v.307h-.941v2.611c0 .26.037.436.11.527a.36.36 0 0 0 .29.136.51.51 0 0 0 .281-.088.59.59 0 0 0 .211-.268h.171c-.102.287-.248.504-.435.651s-.381.215-.58.215c-.135 0-.267-.037-.395-.11a.69.69 0 0 1-.286-.321c-.061-.14-.092-.356-.092-.646v-2.707h-.637v-.145c.161-.064.325-.173.492-.325a2.61 2.61 0 0 0 .453-.549c.067-.112.161-.315.281-.611h.136zm2.518-.901v2.944c.325-.357.583-.586.773-.685a1.19 1.19 0 0 1 .571-.154c.228 0 .425.063.589.189s.286.324.365.593c.056.188.084.53.084 1.029v1.423c0 .255.02.43.062.523a.34.34 0 0 0 .149.167c.07.041.199.062.387.062V141h-1.977v-.158h.092c.188 0 .318-.028.391-.084s.125-.143.154-.255c.009-.046.013-.184.013-.413v-1.423c0-.44-.023-.729-.07-.866s-.116-.24-.215-.308a.61.61 0 0 0-.36-.105 1.02 1.02 0 0 0-.448.114c-.155.076-.341.23-.558.461v2.127c0 .276.015.447.044.514a.4.4 0 0 0 .171.172c.085.044.23.066.435.066V141H41.88v-.158c.179 0 .319-.028.422-.084.059-.029.105-.085.141-.167s.053-.249.053-.501v-3.643l-.035-.848c-.02-.105-.054-.177-.101-.215s-.104-.057-.18-.057c-.062 0-.161.023-.299.07l-.062-.154 1.204-.492h.202zm3.995 3.74c-.003.597.142 1.066.435 1.406s.637.51 1.033.51c.264 0 .492-.072.685-.216s.36-.395.492-.747l.136.088c-.062.402-.24.768-.536 1.099s-.666.492-1.112.492c-.483 0-.898-.187-1.244-.562s-.514-.885-.514-1.521c0-.688.176-1.225.527-1.608a1.73 1.73 0 0 1 1.332-.58 1.48 1.48 0 0 1 1.112.448c.29.296.435.693.435 1.191H47.22zm0-.255h1.863c-.015-.258-.045-.44-.092-.545a.87.87 0 0 0-.33-.387.81.81 0 0 0-.453-.14c-.243 0-.461.095-.655.285s-.302.45-.334.787zm6.675-.567c.39-.542.81-.813 1.261-.813.413 0 .773.177 1.081.532s.461.833.461 1.445c0 .715-.237 1.291-.712 1.728-.407.375-.861.562-1.362.562a2.16 2.16 0 0 1-.716-.127 3.3 3.3 0 0 1-.738-.383v-4.17l-.035-.844c-.02-.105-.054-.177-.101-.215a.27.27 0 0 0-.176-.057c-.082 0-.185.023-.308.07l-.062-.154 1.209-.492h.198v2.918zm0 .281v2.408c.149.147.303.258.461.334s.325.11.492.11c.267 0 .514-.146.743-.439s.347-.719.347-1.279c0-.516-.116-.911-.347-1.187s-.489-.417-.782-.417a1.02 1.02 0 0 0-.466.119c-.117.058-.267.175-.448.351zm5.678 2.47l-.778.554a1.19 1.19 0 0 1-.505.109c-.278 0-.508-.095-.69-.285s-.268-.441-.268-.752c0-.196.044-.366.132-.509.12-.2.328-.387.624-.563s.794-.39 1.485-.641v-.159c0-.401-.065-.676-.193-.826s-.311-.224-.554-.224c-.185 0-.331.05-.439.149a.45.45 0 0 0-.167.343l.009.255c0 .135-.035.239-.105.312s-.157.11-.268.11a.35.35 0 0 1-.268-.114c-.067-.076-.101-.18-.101-.312 0-.252.129-.484.387-.695s.62-.316 1.085-.316c.357 0 .65.06.879.18a.83.83 0 0 1 .382.426c.053.126.079.384.079.774v1.367l.022.707c.015.085.038.142.07.171s.075.044.119.044.088-.01.123-.03c.062-.038.18-.145.356-.321v.246c-.328.439-.642.659-.94.659-.144 0-.258-.05-.343-.149s-.129-.27-.132-.51zm0-.286v-1.533l-.857.373c-.231.129-.397.264-.497.404s-.149.295-.149.462c0 .211.063.387.189.527s.271.207.435.207c.223 0 .516-.147.879-.44zm2.887-4.482v1.323h.94v.307h-.94v2.611c0 .26.037.436.11.527a.36.36 0 0 0 .29.136.51.51 0 0 0 .281-.088c.091-.061.161-.151.211-.268h.171c-.102.287-.248.504-.435.651s-.381.215-.58.215c-.135 0-.267-.037-.395-.11a.69.69 0 0 1-.286-.321c-.062-.14-.092-.356-.092-.646v-2.707h-.637v-.145c.161-.064.325-.173.492-.325s.321-.338.453-.549c.067-.112.161-.315.281-.611h.136zm2.505 0v1.323h.941v.307h-.941v2.611c0 .26.037.436.11.527a.36.36 0 0 0 .29.136.51.51 0 0 0 .281-.088.59.59 0 0 0 .211-.268h.171c-.103.287-.248.504-.435.651s-.381.215-.58.215c-.135 0-.267-.037-.395-.11a.69.69 0 0 1-.286-.321c-.061-.14-.092-.356-.092-.646v-2.707h-.637v-.145c.161-.064.325-.173.492-.325a2.61 2.61 0 0 0 .453-.549c.067-.112.161-.315.281-.611h.136zm2.013 2.839c-.003.597.142 1.066.435 1.406s.637.51 1.033.51c.264 0 .492-.072.686-.216s.36-.395.492-.747l.136.088c-.061.402-.24.768-.536 1.099s-.666.492-1.112.492c-.483 0-.898-.187-1.244-.562s-.514-.885-.514-1.521c0-.688.176-1.225.527-1.608a1.73 1.73 0 0 1 1.332-.58 1.48 1.48 0 0 1 1.112.448c.29.296.435.693.435 1.191h-2.782zm0-.255h1.863c-.015-.258-.045-.44-.092-.545a.87.87 0 0 0-.33-.387.81.81 0 0 0-.453-.14c-.243 0-.461.095-.655.285s-.302.45-.334.787zm4.5-1.38v.905c.337-.603.683-.905 1.037-.905a.56.56 0 0 1 .4.149c.105.097.158.21.158.339 0 .114-.038.211-.114.29s-.167.118-.272.118-.218-.049-.347-.149-.22-.154-.281-.154c-.053 0-.11.03-.171.088-.132.12-.268.318-.409.593v1.93c0 .222.028.391.084.505.038.079.105.145.202.198s.236.079.418.079V141H70.12v-.158c.205 0 .357-.032.457-.097.073-.047.124-.121.154-.224.015-.05.022-.192.022-.426v-1.56l-.031-.835c-.018-.091-.053-.157-.105-.198s-.113-.062-.189-.062c-.091 0-.193.022-.308.066l-.044-.158 1.217-.492h.184zm5.093-2.105c.123 0 .227.044.312.132s.132.189.132.312a.43.43 0 0 1-.132.316c-.085.088-.189.132-.312.132a.43.43 0 0 1-.448-.448c0-.123.042-.227.127-.312s.195-.132.321-.132zm.365 2.105v3.234c0 .252.018.421.053.506a.4.4 0 0 0 .163.184c.073.041.205.062.396.062V141h-1.956v-.158c.196 0 .328-.019.395-.057a.38.38 0 0 0 .158-.189c.041-.088.062-.257.062-.506v-1.551l-.04-.848c-.02-.094-.053-.158-.097-.193s-.104-.058-.18-.058a.88.88 0 0 0-.299.066l-.061-.158 1.213-.492h.193zm2.29.852c.472-.568.921-.852 1.349-.852.22 0 .409.056.567.167s.284.289.378.54c.064.176.097.446.097.809v1.718c0 .255.02.428.061.519.032.073.084.13.154.171s.206.062.4.062V141H80.24v-.158h.084c.188 0 .318-.028.391-.084a.45.45 0 0 0 .158-.255 2.55 2.55 0 0 0 .018-.413v-1.648c0-.366-.048-.631-.145-.795s-.253-.251-.479-.251c-.349 0-.696.191-1.041.572v2.122c0 .273.016.441.048.506.041.085.097.148.167.189s.22.057.44.057V141h-1.991v-.158h.088c.205 0 .343-.051.413-.154s.11-.305.11-.598v-1.494l-.035-.883c-.02-.106-.054-.177-.101-.215s-.104-.058-.18-.058c-.082 0-.18.022-.294.066l-.066-.158 1.213-.492h.189v.852zm4.496-2.056v1.323h.94v.307h-.94v2.611c0 .26.037.436.11.527a.36.36 0 0 0 .29.136.51.51 0 0 0 .281-.088.59.59 0 0 0 .211-.268h.171c-.103.287-.248.504-.435.651s-.381.215-.58.215c-.135 0-.267-.037-.395-.11a.69.69 0 0 1-.286-.321c-.062-.14-.092-.356-.092-.646v-2.707h-.637v-.145c.161-.064.325-.173.492-.325s.321-.338.453-.549c.067-.112.161-.315.281-.611h.136zm3.305 1.204c.609 0 1.099.231 1.468.694.313.396.47.85.47 1.363 0 .36-.086.725-.259 1.094a1.89 1.89 0 0 1-.716.835 1.88 1.88 0 0 1-1.011.281c-.606 0-1.088-.242-1.446-.725-.302-.407-.453-.864-.453-1.371 0-.369.091-.735.273-1.099s.426-.636.725-.808a1.84 1.84 0 0 1 .949-.264zm-.136.286c-.155 0-.312.046-.47.14s-.281.252-.378.484-.145.528-.145.892c0 .586.116 1.091.347 1.516s.542.637.923.637c.284 0 .519-.117.703-.352s.277-.637.277-1.208c0-.715-.154-1.277-.461-1.688-.208-.281-.473-.421-.795-.421zm7.198 3.278l-.778.554a1.19 1.19 0 0 1-.505.109c-.278 0-.508-.095-.69-.285s-.268-.441-.268-.752c0-.196.044-.366.132-.509.12-.2.328-.387.624-.563s.794-.39 1.485-.641v-.159c0-.401-.064-.676-.193-.826s-.311-.224-.554-.224c-.184 0-.331.05-.439.149a.45.45 0 0 0-.167.343l.009.255c0 .135-.035.239-.105.312s-.157.11-.268.11a.35.35 0 0 1-.268-.114c-.067-.076-.101-.18-.101-.312 0-.252.129-.484.387-.695s.62-.316 1.085-.316c.357 0 .65.06.879.18a.83.83 0 0 1 .382.426c.053.126.079.384.079.774v1.367l.022.707c.015.085.038.142.07.171s.075.044.119.044.088-.01.123-.03c.061-.038.18-.145.356-.321v.246c-.328.439-.642.659-.94.659a.43.43 0 0 1-.343-.149c-.085-.1-.129-.27-.132-.51zm0-.286v-1.533l-.857.373c-.232.129-.397.264-.497.404s-.149.295-.149.462a.76.76 0 0 0 .189.527c.126.138.271.207.435.207.223 0 .516-.147.879-.44zm5.15-5.383v2.944c.325-.357.583-.586.773-.685s.381-.154.572-.154c.228 0 .424.063.588.189s.286.324.365.593c.056.188.084.53.084 1.029v1.423c0 .255.02.43.061.523.029.071.079.126.15.167s.199.062.386.062V141h-1.977v-.158h.092c.188 0 .318-.028.391-.084s.125-.143.154-.255c.009-.046.013-.184.013-.413v-1.423c0-.44-.023-.729-.07-.866s-.116-.24-.216-.308-.219-.105-.36-.105a1.02 1.02 0 0 0-.448.114c-.155.076-.341.23-.558.461v2.127c0 .276.015.447.044.514a.4.4 0 0 0 .171.172c.085.044.23.066.435.066V141h-1.995v-.158c.179 0 .319-.028.422-.084.059-.029.106-.085.141-.167s.053-.249.053-.501v-3.643l-.035-.848c-.02-.105-.054-.177-.101-.215s-.104-.057-.18-.057c-.062 0-.161.023-.299.07l-.062-.154 1.204-.492h.202zm3.994 3.74c-.003.597.143 1.066.435 1.406s.638.51 1.033.51c.264 0 .492-.072.686-.216s.36-.395.492-.747l.136.088a2.1 2.1 0 0 1-.536 1.099c-.296.328-.666.492-1.112.492a1.63 1.63 0 0 1-1.243-.562c-.343-.378-.515-.885-.515-1.521 0-.688.176-1.225.528-1.608s.798-.58 1.331-.58c.451 0 .822.149 1.112.448s.435.693.435 1.191h-2.782zm0-.255h1.864c-.015-.258-.046-.44-.093-.545a.87.87 0 0 0-.329-.387c-.144-.094-.295-.14-.453-.14-.243 0-.461.095-.655.285s-.301.45-.334.787zm5.603 2.184l-.777.554c-.159.073-.327.109-.506.109-.278 0-.508-.095-.69-.285s-.268-.441-.268-.752c0-.196.044-.366.132-.509.12-.2.328-.387.624-.563s.794-.39 1.485-.641v-.159c0-.401-.064-.676-.193-.826s-.31-.224-.554-.224c-.184 0-.331.05-.439.149s-.167.214-.167.343l.009.255c0 .135-.035.239-.106.312s-.156.11-.268.11a.35.35 0 0 1-.268-.114c-.067-.076-.101-.18-.101-.312 0-.252.129-.484.387-.695s.619-.316 1.085-.316c.358 0 .651.06.879.18.173.091.3.233.382.426.053.126.08.384.08.774v1.367l.022.707c.014.085.038.142.07.171s.075.044.118.044a.25.25 0 0 0 .124-.03c.061-.038.18-.145.355-.321v.246c-.328.439-.641.659-.94.659a.43.43 0 0 1-.343-.149c-.085-.1-.129-.27-.132-.51zm0-.286v-1.533l-.856.373c-.232.129-.397.264-.497.404a.78.78 0 0 0-.149.462c0 .211.063.387.188.527s.271.207.436.207c.222 0 .515-.147.878-.44zm2.888-4.482v1.323h.94v.307h-.94v2.611c0 .26.036.436.11.527a.36.36 0 0 0 .29.136.51.51 0 0 0 .281-.088.59.59 0 0 0 .211-.268h.171c-.102.287-.247.504-.435.651s-.381.215-.58.215c-.135 0-.267-.037-.396-.11a.69.69 0 0 1-.285-.321c-.062-.14-.092-.356-.092-.646v-2.707h-.638v-.145c.161-.064.326-.173.493-.325a2.64 2.64 0 0 0 .452-.549c.068-.112.161-.315.281-.611h.137zm2.012 2.839c-.003.597.142 1.066.435 1.406s.638.51 1.033.51c.264 0 .492-.072.686-.216s.36-.395.492-.747l.136.088a2.1 2.1 0 0 1-.536 1.099c-.296.328-.667.492-1.112.492-.483 0-.898-.187-1.244-.562s-.514-.885-.514-1.521c0-.688.176-1.225.528-1.608s.798-.58 1.331-.58c.451 0 .822.149 1.112.448s.435.693.435 1.191h-2.782zm0-.255h1.864c-.015-.258-.046-.44-.093-.545a.87.87 0 0 0-.329-.387c-.144-.094-.295-.14-.453-.14-.243 0-.461.095-.655.285s-.301.45-.334.787zm6.166 2.311c-.196.205-.388.353-.576.444s-.389.132-.606.132c-.44 0-.823-.183-1.152-.549s-.492-.843-.492-1.42.182-1.104.545-1.582.831-.72 1.402-.72c.354 0 .647.112.879.338v-.743l-.035-.848c-.021-.105-.054-.177-.101-.215s-.106-.057-.176-.057a.92.92 0 0 0-.303.07l-.057-.154 1.199-.492h.198v4.654l.031.866c.023.102.058.174.105.215s.107.061.172.061c.079 0 .184-.025.316-.074l.048.153-1.195.497h-.202v-.576zm0-.307v-2.074c-.018-.2-.07-.381-.158-.545s-.205-.288-.352-.37-.284-.127-.422-.127c-.258 0-.488.116-.69.347-.266.305-.4.75-.4 1.336 0 .592.129 1.046.387 1.362s.545.471.861.471c.267 0 .525-.134.774-.4zm3.617-2.865l1.239-.501h.167v.94c.208-.355.416-.602.624-.743s.432-.215.663-.215a1.27 1.27 0 0 1 1.011.475c.331.386.497.89.497 1.511 0 .695-.199 1.269-.598 1.723a1.58 1.58 0 0 1-1.239.558c-.217 0-.404-.031-.563-.092-.117-.044-.249-.132-.395-.264v1.226c0 .276.016.45.048.523s.094.136.176.18.237.066.457.066v.163h-2.109v-.163h.109c.162.003.299-.028.414-.092.055-.032.098-.085.127-.158s.048-.252.048-.545v-3.806c0-.261-.011-.426-.035-.496s-.061-.123-.114-.159-.119-.052-.207-.052c-.07 0-.159.02-.268.061l-.052-.14zm1.406.698v1.503c0 .325.013.539.039.642.041.17.141.319.299.448s.363.193.607.193c.293 0 .53-.114.712-.342.237-.299.356-.72.356-1.262 0-.615-.135-1.088-.405-1.419-.187-.229-.41-.343-.668-.343a.9.9 0 0 0-.417.106c-.106.052-.28.211-.523.474zm5.664 2.347l-.777.554c-.159.073-.327.109-.506.109-.278 0-.508-.095-.69-.285s-.268-.441-.268-.752c0-.196.044-.366.132-.509.12-.2.328-.387.624-.563s.794-.39 1.485-.641v-.159c0-.401-.064-.676-.193-.826s-.311-.224-.554-.224c-.184 0-.331.05-.439.149s-.167.214-.167.343l.009.255c0 .135-.036.239-.106.312s-.157.11-.268.11a.35.35 0 0 1-.268-.114c-.067-.076-.101-.18-.101-.312 0-.252.129-.484.387-.695s.619-.316 1.085-.316c.358 0 .651.06.879.18.173.091.3.233.382.426.053.126.079.384.079.774v1.367l.022.707c.015.085.039.142.071.171s.074.044.118.044.088-.01.123-.03c.062-.038.181-.145.356-.321v.246c-.328.439-.641.659-.94.659-.144 0-.258-.05-.343-.149s-.129-.27-.132-.51zm0-.286v-1.533l-.857.373c-.231.129-.397.264-.496.404a.78.78 0 0 0-.15.462c0 .211.063.387.189.527s.271.207.435.207c.223 0 .516-.147.879-.44zm2.892-2.426c.472-.568.921-.852 1.349-.852a.96.96 0 0 1 .567.167c.158.108.284.289.378.54.064.176.097.446.097.809v1.718c0 .255.02.428.061.519.032.073.084.13.154.171s.206.062.4.062V141h-1.991v-.158h.084c.187 0 .317-.028.391-.084a.45.45 0 0 0 .158-.255c.012-.044.018-.181.018-.413v-1.648c0-.366-.049-.631-.146-.795s-.253-.251-.479-.251c-.348 0-.695.191-1.041.572v2.122c0 .273.016.441.048.506.041.085.097.148.167.189s.22.057.44.057V141h-1.991v-.158h.088c.205 0 .343-.051.413-.154s.11-.305.11-.598v-1.494l-.035-.883c-.021-.106-.054-.177-.101-.215s-.104-.058-.181-.058a.84.84 0 0 0-.294.066l-.066-.158 1.213-.492h.189v.852zm7.857 2.712l-.777.554c-.159.073-.327.109-.506.109-.278 0-.508-.095-.69-.285s-.268-.441-.268-.752c0-.196.044-.366.132-.509.12-.2.328-.387.624-.563s.794-.39 1.485-.641v-.159c0-.401-.064-.676-.193-.826s-.311-.224-.554-.224c-.184 0-.331.05-.439.149s-.167.214-.167.343l.009.255c0 .135-.035.239-.106.312s-.157.11-.268.11a.35.35 0 0 1-.268-.114c-.067-.076-.101-.18-.101-.312 0-.252.129-.484.387-.695s.619-.316 1.085-.316c.358 0 .651.06.879.18.173.091.3.233.382.426.053.126.079.384.079.774v1.367l.022.707c.015.085.039.142.071.171s.074.044.118.044.088-.01.123-.03c.062-.038.181-.145.356-.321v.246c-.328.439-.641.659-.94.659-.144 0-.258-.05-.343-.149s-.129-.27-.132-.51zm0-.286v-1.533l-.857.373c-.231.129-.397.264-.496.404a.78.78 0 0 0-.15.462c0 .211.063.387.189.527s.271.207.435.207c.223 0 .516-.147.879-.44zm2.892-2.426c.472-.568.921-.852 1.349-.852a.96.96 0 0 1 .567.167c.158.108.284.289.378.54.064.176.097.446.097.809v1.718c0 .255.02.428.061.519.032.073.084.13.154.171s.207.062.4.062V141h-1.991v-.158h.084c.187 0 .318-.028.391-.084a.45.45 0 0 0 .158-.255c.012-.044.018-.181.018-.413v-1.648c0-.366-.049-.631-.145-.795s-.254-.251-.479-.251c-.349 0-.696.191-1.042.572v2.122c0 .273.016.441.048.506.041.085.097.148.167.189s.22.057.44.057V141h-1.991v-.158h.088c.205 0 .343-.051.413-.154s.11-.305.11-.598v-1.494l-.035-.883c-.021-.106-.054-.177-.101-.215s-.104-.058-.18-.058a.84.84 0 0 0-.295.066l-.066-.158 1.213-.492h.189v.852zm6.17 2.839c-.196.205-.388.353-.576.444s-.389.132-.606.132c-.44 0-.823-.183-1.152-.549s-.492-.843-.492-1.42.182-1.104.545-1.582.831-.72 1.402-.72c.355 0 .647.112.879.338v-.743l-.035-.848c-.021-.105-.054-.177-.101-.215s-.106-.057-.176-.057a.92.92 0 0 0-.303.07l-.057-.154 1.199-.492h.198v4.654l.031.866c.023.102.058.174.105.215s.107.061.172.061c.079 0 .184-.025.316-.074l.048.153-1.195.497h-.202v-.576zm0-.307v-2.074c-.018-.2-.07-.381-.158-.545s-.205-.288-.352-.37-.284-.127-.422-.127c-.258 0-.488.116-.69.347-.266.305-.4.75-.4 1.336 0 .592.129 1.046.387 1.362s.545.471.861.471c.267 0 .525-.134.774-.4zm7.326-.769c-.109.53-.321.939-.638 1.226s-.666.426-1.05.426c-.457 0-.855-.192-1.195-.576s-.51-.902-.51-1.555c0-.633.188-1.147.563-1.543a1.81 1.81 0 0 1 1.357-.593c.396 0 .721.105.976.316s.382.425.382.651c0 .111-.036.202-.11.272s-.169.101-.298.101c-.173 0-.304-.055-.391-.167-.05-.061-.084-.178-.102-.351s-.073-.305-.175-.396-.245-.132-.427-.132a.87.87 0 0 0-.707.326c-.237.287-.356.666-.356 1.138a2.32 2.32 0 0 0 .352 1.274c.237.366.556.55.958.55.287 0 .544-.099.773-.295.161-.135.318-.379.47-.734l.128.062zm2.548-2.615a1.78 1.78 0 0 1 1.468.694 2.13 2.13 0 0 1 .47 1.363c0 .36-.086.725-.259 1.094s-.411.647-.716.835-.639.281-1.011.281c-.606 0-1.088-.242-1.446-.725a2.25 2.25 0 0 1-.452-1.371c0-.369.09-.735.272-1.099s.426-.636.725-.808a1.84 1.84 0 0 1 .949-.264zm-.136.286c-.155 0-.312.046-.47.14s-.281.252-.378.484-.145.528-.145.892c0 .586.116 1.091.347 1.516s.542.637.923.637c.284 0 .519-.117.703-.352s.277-.637.277-1.208c0-.715-.154-1.277-.461-1.688-.208-.281-.474-.421-.796-.421zm4.636-.286a1.78 1.78 0 0 1 1.468.694 2.13 2.13 0 0 1 .47 1.363c0 .36-.086.725-.259 1.094s-.411.647-.716.835-.639.281-1.011.281c-.606 0-1.088-.242-1.446-.725a2.25 2.25 0 0 1-.452-1.371c0-.369.09-.735.272-1.099s.426-.636.725-.808a1.84 1.84 0 0 1 .949-.264zm-.136.286c-.155 0-.312.046-.47.14s-.281.252-.378.484-.145.528-.145.892c0 .586.116 1.091.347 1.516s.542.637.923.637c.284 0 .519-.117.703-.352s.277-.637.277-1.208c0-.715-.154-1.277-.461-1.688-.208-.281-.474-.421-.796-.421zm3.859-2.391v4.008l1.024-.936.377-.378c.024-.035.036-.07.036-.106 0-.058-.025-.108-.075-.149s-.126-.069-.237-.075v-.14h1.749v.14a1.68 1.68 0 0 0-.602.11c-.159.067-.333.188-.523.36l-1.033.954 1.033 1.305.58.686a1.19 1.19 0 0 0 .369.268c.073.029.201.044.382.044V141h-1.955v-.158c.111-.003.186-.019.224-.049s.061-.076.061-.131c0-.068-.058-.176-.176-.326l-1.234-1.577v1.336c0 .26.017.432.052.514s.091.141.159.176.213.054.439.057V141h-2.048v-.158c.205 0 .359-.025.462-.075.061-.032.108-.082.14-.149.044-.097.066-.264.066-.501v-3.665l-.031-.853c-.02-.105-.054-.177-.101-.215a.27.27 0 0 0-.184-.062c-.062 0-.154.025-.277.075l-.075-.154 1.195-.492h.203zm9.087 2.224v2.439l.031.857c.024.102.059.174.106.215s.107.061.171.061c.091 0 .193-.025.308-.074l.061.153-1.204.497h-.198v-.852c-.345.375-.609.61-.791.707a1.2 1.2 0 0 1-.575.145c-.226 0-.422-.064-.589-.193s-.278-.301-.343-.506-.097-.495-.097-.87v-1.797c0-.191-.02-.322-.061-.396s-.103-.129-.185-.167-.224-.06-.435-.057v-.162h1.411v2.693c0 .375.064.622.193.739a.69.69 0 0 0 .475.176c.126 0 .268-.04.426-.119s.352-.23.571-.453v-2.281c0-.228-.042-.382-.127-.461s-.255-.126-.519-.132v-.162h1.371zm2.145.733c.472-.568.921-.852 1.349-.852a.96.96 0 0 1 .567.167c.158.108.284.289.378.54.064.176.097.446.097.809v1.718c0 .255.02.428.061.519.032.073.084.13.154.171s.207.062.4.062V141h-1.991v-.158h.084c.187 0 .318-.028.391-.084a.45.45 0 0 0 .158-.255c.012-.044.018-.181.018-.413v-1.648c0-.366-.049-.631-.145-.795s-.254-.251-.479-.251c-.349 0-.696.191-1.042.572v2.122c0 .273.016.441.048.506.041.085.097.148.167.189s.22.057.44.057V141h-1.991v-.158h.088c.205 0 .343-.051.413-.154s.11-.305.11-.598v-1.494l-.035-.883c-.021-.106-.054-.177-.101-.215s-.104-.058-.18-.058a.84.84 0 0 0-.295.066l-.066-.158 1.213-.492h.189v.852zm4.496-2.056v1.323h.94v.307h-.94v2.611c0 .26.036.436.109.527s.173.136.291.136a.51.51 0 0 0 .281-.088.59.59 0 0 0 .211-.268h.171c-.102.287-.247.504-.435.651s-.381.215-.58.215c-.135 0-.267-.037-.396-.11a.69.69 0 0 1-.285-.321c-.062-.14-.092-.356-.092-.646v-2.707h-.638v-.145c.161-.064.326-.173.493-.325a2.64 2.64 0 0 0 .452-.549c.068-.112.161-.315.281-.611h.137zm2.359-.901c.124 0 .228.044.313.132a.42.42 0 0 1 .131.312c0 .123-.044.228-.131.316s-.189.132-.313.132a.43.43 0 0 1-.448-.448c0-.123.043-.227.128-.312s.195-.132.32-.132zm.365 2.105v3.234c0 .252.018.421.053.506s.092.143.163.184.205.062.395.062V141h-1.955v-.158c.196 0 .328-.019.395-.057s.12-.101.158-.189.062-.257.062-.506v-1.551l-.04-.848c-.02-.094-.053-.158-.096-.193s-.104-.058-.181-.058-.181.022-.298.066l-.062-.158 1.213-.492h.193zm2.501-2.105v5.339c0 .252.017.419.052.501a.42.42 0 0 0 .172.189c.076.041.218.062.426.062V141h-1.973v-.158c.185 0 .311-.019.378-.057s.12-.101.158-.189.057-.257.057-.506v-3.656l-.031-.835c-.02-.105-.054-.177-.101-.215s-.101-.057-.171-.057c-.076 0-.173.023-.29.07l-.075-.154 1.2-.492h.198zm4.447 4.781c-.246-.12-.435-.287-.567-.501a1.35 1.35 0 0 1-.198-.716c0-.398.15-.741.449-1.028s.687-.431 1.155-.431a1.76 1.76 0 0 1 .998.281h.852c.126 0 .2.005.22.013s.035.018.044.036c.018.026.026.073.026.14 0 .076-.007.129-.021.158-.009.015-.025.027-.049.036s-.094.013-.22.013h-.523c.165.211.247.48.247.808 0 .375-.144.696-.431.963s-.672.4-1.156.4c-.199 0-.403-.03-.611-.088a1.17 1.17 0 0 0-.263.294c-.044.082-.066.152-.066.211 0 .05.023.098.07.145s.145.081.286.101c.082.012.287.022.615.031l1.173.061c.273.039.49.14.651.304s.246.366.246.606c0 .331-.156.642-.466.932-.457.428-1.053.641-1.789.641-.565 0-1.043-.127-1.432-.382-.22-.146-.33-.299-.33-.457 0-.07.016-.141.048-.211.05-.108.153-.259.308-.453a21.4 21.4 0 0 1 .448-.474 1.53 1.53 0 0 1-.325-.242c-.061-.073-.092-.155-.092-.246 0-.102.041-.223.123-.36s.278-.333.58-.585zm.765-2.465c-.217 0-.399.086-.545.259s-.22.438-.22.796c0 .462.1.821.299 1.076.152.194.346.29.58.29a.69.69 0 0 0 .549-.25c.144-.167.216-.429.216-.787 0-.466-.102-.83-.304-1.094-.149-.193-.341-.29-.575-.29zm-.809 3.933c-.138.149-.242.289-.312.417s-.105.248-.105.356c0 .141.085.264.254.37.293.181.717.272 1.27.272.528 0 .916-.094 1.165-.281s.378-.383.378-.593c0-.153-.075-.261-.224-.326s-.454-.102-.905-.114l-1.521-.101zm5.436-4.144c.609 0 1.099.231 1.468.694.313.396.47.85.47 1.363 0 .36-.086.725-.259 1.094a1.89 1.89 0 0 1-.717.835c-.301.187-.638.281-1.01.281-.607 0-1.089-.242-1.446-.725-.302-.407-.453-.864-.453-1.371 0-.369.091-.735.273-1.099s.426-.636.725-.808a1.84 1.84 0 0 1 .949-.264zm-.136.286c-.155 0-.312.046-.47.14s-.282.252-.378.484-.145.528-.145.892c0 .586.115 1.091.347 1.516s.542.637.923.637c.284 0 .518-.117.703-.352s.277-.637.277-1.208c0-.715-.154-1.277-.462-1.688-.208-.281-.473-.421-.795-.421zm4.052-2.391v5.339c0 .252.017.419.052.501s.096.145.172.189.218.062.426.062V141h-1.973v-.158c.184 0 .31-.019.378-.057s.12-.101.158-.189.057-.257.057-.506v-3.656l-.031-.835c-.02-.105-.054-.177-.101-.215s-.101-.057-.171-.057c-.076 0-.173.023-.29.07l-.075-.154 1.2-.492h.198zm3.963 5.796c-.196.205-.388.353-.575.444s-.39.132-.607.132c-.439 0-.823-.183-1.151-.549s-.492-.843-.492-1.42a2.55 2.55 0 0 1 .545-1.582 1.68 1.68 0 0 1 1.402-.72c.354 0 .647.112.878.338v-.743l-.035-.848c-.02-.105-.054-.177-.101-.215a.27.27 0 0 0-.176-.057.92.92 0 0 0-.303.07l-.057-.154 1.2-.492h.198v4.654l.03.866c.024.102.059.174.106.215s.107.061.171.061c.079 0 .185-.025.317-.074l.048.153-1.195.497h-.203v-.576zm0-.307v-2.074c-.017-.2-.07-.381-.158-.545s-.205-.288-.351-.37-.284-.127-.422-.127c-.258 0-.488.116-.69.347-.267.305-.4.75-.4 1.336 0 .592.129 1.046.387 1.362s.545.471.861.471c.267 0 .524-.134.773-.4zm2.334-1.749c-.003.597.142 1.066.435 1.406s.637.51 1.033.51c.263 0 .492-.072.685-.216s.361-.395.492-.747l.137.088c-.062.402-.241.768-.536 1.099s-.667.492-1.112.492c-.484 0-.898-.187-1.244-.562s-.514-.885-.514-1.521c0-.688.176-1.225.527-1.608a1.73 1.73 0 0 1 1.332-.58c.451 0 .822.149 1.112.448s.435.693.435 1.191h-2.782zm0-.255h1.863c-.014-.258-.045-.44-.092-.545-.073-.164-.183-.293-.33-.387a.81.81 0 0 0-.452-.14c-.243 0-.462.095-.655.285s-.302.45-.334.787zm4.496-.528c.471-.568.921-.852 1.349-.852.219 0 .408.056.567.167s.284.289.378.54c.064.176.096.446.096.809v1.718c0 .255.021.428.062.519a.36.36 0 0 0 .154.171c.073.041.206.062.399.062V141h-1.99v-.158h.083c.188 0 .318-.028.391-.084s.129-.143.159-.255c.011-.044.017-.181.017-.413v-1.648c0-.366-.048-.631-.145-.795s-.253-.251-.479-.251c-.349 0-.696.191-1.041.572v2.122c0 .273.016.441.048.506.041.085.097.148.167.189s.22.057.439.057V141h-1.99v-.158h.088c.205 0 .342-.051.413-.154s.109-.305.109-.598v-1.494l-.035-.883c-.02-.106-.054-.177-.101-.215s-.104-.058-.18-.058a.84.84 0 0 0-.294.066l-.066-.158 1.213-.492h.189v.852zm4.17 2.439c.138 0 .253.049.347.145s.141.208.141.343-.049.251-.145.347-.208.141-.343.141a.48.48 0 0 1-.488-.488.47.47 0 0 1 .141-.347.48.48 0 0 1 .347-.141z"/></g><path d="M23.744 161.304h-2.105l-.25.58c-.082.193-.123.353-.123.479 0 .167.067.29.202.369.079.047.274.082.584.105V163H20.07v-.163a.89.89 0 0 0 .527-.263c.137-.143.308-.447.51-.901l2.131-4.755h.083l2.149 4.887c.205.463.373.754.505.874.1.091.24.144.422.158V163h-2.883v-.163h.119c.231 0 .394-.032.488-.096.064-.047.097-.115.097-.202a.54.54 0 0 0-.026-.163c-.006-.026-.05-.136-.132-.33l-.316-.742zm-.149-.325l-.888-2.053-.914 2.053h1.802zm7.181-2.088v3.217c0 .313.029.51.088.589s.177.124.356.145V163h-1.674v-.549c-.196.234-.393.405-.589.514a1.33 1.33 0 0 1-.659.158c-.232 0-.438-.07-.62-.211s-.299-.31-.36-.501-.092-.523-.092-.997v-1.631c0-.31-.029-.504-.088-.58s-.174-.126-.356-.149v-.163h1.674v2.808c0 .293.013.482.039.567s.073.15.132.193.132.066.211.066c.106 0 .201-.027.286-.083.117-.076.258-.23.422-.462v-2.197c0-.31-.029-.504-.088-.58s-.174-.126-.356-.149v-.163h1.674zm2.672-1.503v1.503h.976v.435h-.976v2.536c0 .237.01.391.031.461a.33.33 0 0 0 .119.167c.056.044.107.062.154.062.19 0 .371-.145.54-.435l.132.096c-.237.563-.623.844-1.156.844a1.04 1.04 0 0 1-.664-.215c-.179-.147-.293-.309-.343-.488-.029-.1-.044-.369-.044-.809v-2.219h-.536v-.154c.369-.26.683-.534.94-.821s.488-.608.681-.963h.145zm3.045-.347v2.377c.226-.237.432-.404.62-.501a1.26 1.26 0 0 1 .585-.149c.258 0 .477.073.659.22s.306.319.365.518.092.529.092.998v1.604c0 .313.029.51.088.589s.177.124.356.145V163h-2.083v-.158c.147-.021.256-.079.33-.176.053-.076.079-.262.079-.558v-1.833c0-.339-.013-.552-.04-.637a.39.39 0 0 0-.136-.202c-.064-.047-.132-.075-.211-.075-.117 0-.231.041-.343.123s-.231.22-.36.422v2.202c0 .293.022.476.066.549.056.1.17.161.343.185V163H34.82v-.158c.173-.018.296-.073.369-.167.05-.065.075-.254.075-.567v-4.175c0-.31-.029-.504-.088-.58s-.174-.126-.356-.149v-.163h1.674zm5.269 1.727a1.9 1.9 0 0 1 .998.277c.308.184.54.447.699.787a2.6 2.6 0 0 1 .242 1.116c0 .583-.148 1.071-.444 1.463-.357.475-.851.712-1.481.712-.618 0-1.094-.217-1.428-.65a2.4 2.4 0 0 1-.501-1.508 2.43 2.43 0 0 1 .51-1.538c.343-.439.812-.659 1.406-.659zm.018.312c-.149 0-.278.057-.387.171s-.176.334-.211.668-.048.793-.048 1.385a5.79 5.79 0 0 0 .062.879c.032.208.101.366.207.474s.226.163.36.163a.5.5 0 0 0 .33-.11.74.74 0 0 0 .229-.418c.059-.278.088-.84.088-1.687 0-.498-.028-.839-.084-1.024s-.138-.324-.246-.409c-.076-.061-.176-.092-.299-.092zm4.249-.189v.932c.273-.425.511-.706.716-.844s.403-.211.593-.211a.51.51 0 0 1 .391.154c.1.099.149.242.149.426 0 .196-.048.349-.145.457s-.208.163-.343.163c-.155 0-.29-.05-.404-.15l-.202-.167c-.029-.017-.063-.026-.101-.026-.085 0-.166.032-.242.097-.12.099-.211.241-.272.426a2.99 2.99 0 0 0-.141.94v.945l.004.246c0 .167.01.274.031.321a.36.36 0 0 0 .154.176.97.97 0 0 0 .352.066V163H44.35v-.158c.179-.015.299-.063.36-.145s.097-.306.097-.664v-2.272c0-.234-.012-.384-.035-.448-.029-.082-.072-.142-.127-.18a.67.67 0 0 0-.294-.079v-.163h1.679zM20 164.406h28.015v.857H20v-.857z" fill="#0000e4"/><g fill="#000"><path d="M25.127 61.747V62H20.28v-.253h.308c.269 0 .485-.048.649-.144.118-.064.21-.173.273-.328.05-.109.075-.396.075-.861v-6.098c0-.474-.025-.77-.075-.889s-.153-.221-.308-.308-.355-.137-.615-.137h-.308v-.253h4.847v.253h-.308c-.269 0-.485.048-.649.144-.118.064-.212.173-.28.328-.05.109-.075.396-.075.861v6.098c0 .474.025.77.075.889s.157.223.308.314.362.13.622.13h.308zm3.411-6.139v.827c.328-.355.643-.613.943-.772s.624-.246.971-.246c.415 0 .759.116 1.032.349s.456.513.547.855c.073.26.109.759.109 1.497v2.488c0 .492.043.8.13.923s.278.194.561.226V62h-3.233v-.246c.242-.032.415-.132.52-.301.073-.114.109-.396.109-.848v-2.844c0-.524-.021-.854-.062-.991a.58.58 0 0 0-.212-.314c-.096-.078-.203-.116-.321-.116-.392 0-.756.28-1.094.841v3.425c0 .479.043.782.13.909s.258.207.499.239V62h-3.233v-.246c.269-.027.46-.114.574-.26.078-.1.116-.396.116-.889v-3.609c0-.483-.046-.784-.137-.902s-.271-.196-.554-.233v-.253h2.605zm9.283.075h2.153v.752h-1.224c.223.223.378.426.465.608a1.88 1.88 0 0 1 .164.773c0 .456-.128.852-.383 1.189s-.595.595-1.032.786-.818.28-1.155.28c-.027 0-.301-.011-.82-.034a.72.72 0 0 0-.52.205.64.64 0 0 0-.205.478c0 .164.062.299.185.403s.333.157.615.157l1.183-.014c.957 0 1.615.105 1.976.314.515.292.772.741.772 1.347 0 .387-.118.738-.355 1.053s-.549.554-.937.704c-.588.223-1.265.335-2.03.335-.574 0-1.098-.057-1.572-.171s-.813-.264-1.019-.465-.308-.403-.308-.622c0-.21.078-.399.232-.567s.453-.303.882-.417c-.593-.292-.889-.697-.889-1.217 0-.315.121-.62.362-.916s.624-.554 1.148-.773c-.611-.223-1.053-.517-1.326-.882a2.05 2.05 0 0 1-.41-1.265c0-.624.255-1.164.766-1.62s1.167-.69 1.969-.69c.424 0 .861.089 1.313.267zm-1.183.157c-.264 0-.488.134-.67.403s-.273.816-.273 1.654c0 .679.089 1.146.267 1.401s.397.376.643.376c.273 0 .501-.125.684-.376s.273-.738.273-1.463c0-.816-.102-1.372-.308-1.668-.146-.219-.351-.328-.615-.328zm-.403 7.103c-.465 0-.773.039-.923.116-.26.141-.39.333-.39.574 0 .232.134.442.403.629s.775.287 1.518.287c.633 0 1.13-.084 1.49-.253s.547-.406.547-.711c0-.114-.034-.21-.103-.287-.123-.137-.31-.23-.561-.28s-.907-.075-1.982-.075zm7.137-7.335v1.449c.424-.661.795-1.098 1.114-1.312s.627-.328.923-.328c.255 0 .458.08.608.239s.232.376.232.663c0 .305-.075.542-.226.711a.68.68 0 0 1-.533.253c-.242 0-.451-.078-.629-.232l-.314-.26a.3.3 0 0 0-.157-.041c-.132 0-.258.05-.376.15-.187.155-.328.376-.424.663a4.65 4.65 0 0 0-.219 1.463v1.47l.007.383c0 .26.016.426.048.499.055.123.134.214.239.274s.292.089.547.102V62h-3.452v-.246c.278-.023.465-.098.561-.226s.15-.476.15-1.032v-3.534c0-.365-.018-.597-.055-.697a.55.55 0 0 0-.198-.28c-.087-.059-.239-.1-.458-.123v-.253h2.611zm8.982 2.967h-3.507c.041.848.267 1.518.677 2.01.315.378.693.567 1.135.567.273 0 .522-.075.745-.225s.463-.431.718-.827l.232.15c-.346.706-.729 1.208-1.148 1.504s-.905.438-1.456.438c-.948 0-1.666-.365-2.153-1.094-.392-.588-.588-1.317-.588-2.187 0-1.066.287-1.914.861-2.543s1.256-.95 2.03-.95c.647 0 1.208.267 1.682.8s.736 1.315.773 2.358zm-1.682-.458c0-.734-.041-1.237-.123-1.511s-.2-.481-.369-.622c-.096-.082-.223-.123-.383-.123-.237 0-.431.116-.581.349-.269.406-.403.962-.403 1.668v.239h1.859zm8.702-5.387v7.355l.041.882c.037.15.105.262.205.335s.285.118.54.137v.225l-2.7.526V61.18c-.324.392-.613.659-.868.8a1.71 1.71 0 0 1-.854.212c-.816 0-1.461-.365-1.935-1.094-.383-.593-.574-1.319-.574-2.181 0-.688.118-1.303.355-1.846s.56-.959.971-1.237a2.35 2.35 0 0 1 1.333-.417c.305 0 .577.059.813.178s.49.326.759.622v-1.928c0-.488-.021-.782-.062-.882-.055-.132-.137-.23-.246-.294s-.314-.096-.615-.096v-.287h2.837zm-1.914 4.334c-.337-.647-.75-.971-1.237-.971a.63.63 0 0 0-.417.137c-.169.141-.308.39-.417.745s-.157.9-.157 1.634c0 .807.059 1.404.178 1.791s.28.668.485.841c.105.087.248.13.431.13.401 0 .779-.314 1.135-.943v-3.363zm5.031-4.553a1.01 1.01 0 0 1 .752.315c.205.205.308.453.308.745s-.105.54-.315.745-.453.308-.745.308-.54-.102-.745-.308-.308-.453-.308-.745.102-.54.308-.745.453-.315.745-.315zm.957 3.097v5.065c0 .451.052.741.157.868s.31.194.615.212V62H60.77v-.246c.283-.009.492-.091.629-.246.091-.105.137-.383.137-.834v-3.732c0-.451-.053-.738-.157-.861s-.308-.2-.608-.219v-.253h2.68zm6.815 2.967h-3.507c.041.848.267 1.518.677 2.01.314.378.693.567 1.135.567.273 0 .522-.075.745-.225s.463-.431.718-.827l.232.15c-.346.706-.729 1.208-1.148 1.504s-.905.438-1.456.438c-.948 0-1.666-.365-2.153-1.094-.392-.588-.588-1.317-.588-2.187 0-1.066.287-1.914.861-2.543s1.255-.95 2.03-.95c.647 0 1.208.267 1.682.8s.736 1.315.772 2.358zm-1.682-.458c0-.734-.041-1.237-.123-1.511s-.201-.481-.369-.622c-.096-.082-.223-.123-.383-.123-.237 0-.431.116-.581.349-.269.406-.403.962-.403 1.668v.239h1.859zm5.1-2.509v.827c.328-.355.643-.613.943-.772s.624-.246.971-.246c.415 0 .759.116 1.032.349s.456.513.547.855c.073.26.109.759.109 1.497v2.488c0 .492.043.8.13.923s.278.194.561.226V62h-3.233v-.246c.242-.032.415-.132.52-.301.073-.114.109-.396.109-.848v-2.844c0-.524-.02-.854-.061-.991a.58.58 0 0 0-.212-.314c-.096-.078-.203-.116-.321-.116-.392 0-.756.28-1.094.841v3.425c0 .479.043.782.13.909s.257.207.499.239V62h-3.233v-.246c.269-.027.46-.114.574-.26.078-.1.116-.396.116-.889v-3.609c0-.483-.046-.784-.137-.902s-.271-.196-.554-.233v-.253h2.604zm7.718-2.338v2.338h1.518v.677H81.4v3.944c0 .369.016.608.048.718s.098.191.185.26.166.096.239.096c.296 0 .576-.226.841-.677l.205.15c-.369.875-.969 1.313-1.798 1.313-.406 0-.75-.112-1.032-.335s-.456-.481-.533-.759c-.046-.155-.068-.574-.068-1.258v-3.452h-.834v-.239c.574-.406 1.062-.832 1.463-1.278s.759-.946 1.06-1.497h.226zm6.166 2.16l.102 2.181h-.232c-.278-.647-.567-1.089-.868-1.326s-.593-.356-.889-.356c-.187 0-.346.064-.478.191a.57.57 0 0 0-.198.431c0 .123.046.242.137.355.146.187.554.508 1.224.964s1.11.836 1.319 1.155a1.84 1.84 0 0 1 .321 1.06c0 .355-.089.704-.267 1.046a1.87 1.87 0 0 1-.752.786 2.15 2.15 0 0 1-1.073.273c-.305 0-.713-.096-1.224-.287a1.02 1.02 0 0 0-.28-.075c-.15 0-.276.114-.376.342h-.226l-.109-2.297h.232c.205.602.485 1.053.841 1.353s.7.451 1.019.451c.219 0 .396-.066.533-.198a.66.66 0 0 0 .212-.492c0-.219-.068-.408-.205-.567s-.442-.401-.916-.725c-.697-.483-1.148-.852-1.353-1.107-.301-.374-.451-.786-.451-1.237 0-.492.169-.937.506-1.333s.834-.602 1.477-.602a2.15 2.15 0 0 1 1.005.253c.123.068.223.103.301.103s.148-.016.198-.048.13-.134.239-.294h.232zm3.281-.007c.314 0 .581.112.8.335s.335.485.335.8a1.1 1.1 0 0 1-.335.807c-.219.219-.485.328-.8.328a1.11 1.11 0 0 1-1.135-1.135c0-.314.109-.581.328-.8a1.1 1.1 0 0 1 .807-.335zm-.007 4.471c.319 0 .588.112.807.335a1.1 1.1 0 0 1 .335.807 1.1 1.1 0 0 1-.335.807 1.11 1.11 0 0 1-.807.328 1.11 1.11 0 0 1-1.135-1.135 1.11 1.11 0 0 1 .328-.807 1.1 1.1 0 0 1 .807-.335z"/><path d="M25.127 107.747V108H20.28v-.253h.308c.269 0 .485-.048.649-.143.118-.064.21-.174.273-.329.05-.109.075-.396.075-.861v-6.098c0-.474-.025-.77-.075-.888s-.153-.221-.308-.308-.355-.137-.615-.137h-.308v-.253h4.847v.253h-.308c-.269 0-.485.048-.649.144-.118.064-.212.173-.28.328-.05.109-.075.397-.075.861v6.098c0 .474.025.77.075.889a.75.75 0 0 0 .308.314c.155.087.362.13.622.13h.308zm3.411-6.139v.828c.328-.356.643-.613.943-.773s.624-.246.971-.246c.415 0 .759.116 1.032.349a1.63 1.63 0 0 1 .547.854c.073.26.109.759.109 1.497v2.488c0 .493.043.8.13.923s.278.194.561.226V108h-3.233v-.246c.242-.032.415-.132.52-.301.073-.114.109-.396.109-.848v-2.843c0-.524-.021-.855-.062-.991a.58.58 0 0 0-.212-.315.5.5 0 0 0-.321-.116c-.392 0-.756.28-1.094.841v3.424c0 .479.043.782.13.91s.258.207.499.239V108h-3.233v-.246c.269-.027.46-.114.574-.26.078-.1.116-.396.116-.889v-3.609c0-.483-.046-.784-.137-.902s-.271-.196-.554-.233v-.253h2.605zm9.222-.177l.102 2.18h-.232c-.278-.647-.567-1.089-.868-1.326s-.592-.355-.889-.355a.66.66 0 0 0-.478.191c-.132.123-.198.267-.198.431 0 .123.046.241.137.355.146.187.554.508 1.224.964s1.11.836 1.319 1.155a1.84 1.84 0 0 1 .321 1.06c0 .355-.089.704-.267 1.046s-.428.604-.752.786a2.15 2.15 0 0 1-1.073.273c-.305 0-.713-.095-1.224-.287a1.02 1.02 0 0 0-.28-.075c-.15 0-.276.114-.376.342H34l-.109-2.297h.232c.205.602.485 1.053.841 1.354s.7.451 1.018.451c.219 0 .397-.066.533-.199s.212-.3.212-.492c0-.218-.068-.408-.205-.567s-.442-.401-.916-.725c-.697-.483-1.148-.852-1.354-1.107-.301-.374-.451-.786-.451-1.237 0-.493.169-.937.506-1.333.342-.401.834-.602 1.477-.602.346 0 .681.084 1.005.253.123.068.223.102.301.102s.148-.015.198-.047.13-.135.239-.294h.233zm3.951-2.16v2.338h1.518v.677h-1.518v3.944c0 .37.016.609.048.718s.098.192.185.26.166.096.239.096c.296 0 .576-.226.841-.677l.205.15c-.369.875-.968 1.313-1.798 1.313-.406 0-.75-.112-1.032-.335-.278-.228-.456-.481-.533-.759-.046-.155-.068-.574-.068-1.258v-3.452h-.834v-.239c.574-.406 1.062-.832 1.463-1.278s.759-.946 1.06-1.498h.226zm4.778 2.338v1.45c.424-.661.795-1.099 1.114-1.313.319-.219.627-.328.923-.328.255 0 .458.08.608.239s.232.376.232.663c0 .306-.075.543-.226.711s-.324.253-.533.253c-.242 0-.451-.077-.629-.232l-.315-.26c-.045-.027-.098-.041-.157-.041-.132 0-.258.05-.376.15-.187.155-.328.376-.424.663-.146.443-.219.93-.219 1.463v1.47l.007.383c0 .26.016.426.048.499.055.123.135.214.239.273s.292.089.547.103V108h-3.452v-.246c.278-.023.465-.098.561-.226s.15-.476.15-1.032v-3.534c0-.365-.018-.597-.055-.697-.046-.128-.112-.221-.198-.281s-.239-.1-.458-.123v-.253h2.611zm9.741 0v5.004c0 .488.046.793.137.916s.276.194.554.226V108h-2.605v-.854c-.305.364-.611.631-.916.799s-.647.246-1.025.246a1.53 1.53 0 0 1-.964-.328c-.278-.223-.465-.483-.56-.779s-.144-.813-.144-1.552v-2.536c0-.483-.046-.784-.137-.902s-.271-.196-.554-.233v-.253h2.605v4.369c0 .455.02.749.062.881s.114.233.205.301.205.103.328.103a.8.8 0 0 0 .444-.13c.182-.119.401-.358.656-.718v-3.418c0-.483-.046-.784-.137-.902s-.271-.196-.554-.233v-.253h2.605zm6.836 4.745l.212.164c-.301.565-.677.986-1.128 1.264s-.923.41-1.429.41c-.852 0-1.533-.321-2.044-.963s-.766-1.416-.766-2.318c0-.87.232-1.636.697-2.297.56-.797 1.333-1.196 2.317-1.196.661 0 1.185.166 1.572.499s.588.704.588 1.114c0 .26-.08.467-.239.622s-.36.233-.615.233c-.269 0-.492-.089-.67-.267s-.28-.494-.321-.95c-.027-.287-.093-.488-.198-.602s-.228-.17-.369-.17c-.219 0-.406.116-.56.348-.237.351-.355.889-.355 1.613a5.24 5.24 0 0 0 .287 1.73c.191.547.453.955.786 1.224.251.196.547.293.889.293a1.35 1.35 0 0 0 .636-.157c.2-.105.438-.303.711-.594zm3.541-7.082v2.338h1.518v.677h-1.518v3.944c0 .37.016.609.048.718s.098.192.184.26.166.096.239.096c.296 0 .577-.226.841-.677l.205.15c-.369.875-.968 1.313-1.798 1.313-.406 0-.75-.112-1.032-.335-.278-.228-.456-.481-.533-.759-.046-.155-.068-.574-.068-1.258v-3.452h-.834v-.239c.574-.406 1.062-.832 1.463-1.278s.759-.946 1.06-1.498h.226zm3.664-.759a1.01 1.01 0 0 1 .752.314c.205.205.308.453.308.745a1 1 0 0 1-.315.745c-.205.205-.453.308-.745.308s-.54-.103-.745-.308-.308-.453-.308-.745.102-.54.308-.745.453-.314.745-.314zm.957 3.096v5.066c0 .451.052.74.157.868s.31.194.615.212V108h-3.452v-.246c.283-.009.492-.091.629-.246.091-.105.137-.383.137-.834v-3.733c0-.451-.052-.738-.157-.861s-.308-.2-.608-.219v-.253h2.68zm4.416-.191c.556 0 1.073.144 1.552.431s.841.695 1.087 1.223.376 1.108.376 1.737c0 .907-.23 1.665-.69 2.276-.556.738-1.324 1.107-2.304 1.107-.962 0-1.702-.337-2.222-1.011s-.779-1.456-.779-2.345c0-.916.264-1.714.793-2.393s1.262-1.025 2.188-1.025zm.027.485a.8.8 0 0 0-.602.267c-.164.173-.273.519-.328 1.039s-.075 1.233-.075 2.153c0 .488.032.944.096 1.368.05.323.157.569.321.738s.351.253.56.253.376-.057.513-.171c.178-.155.296-.372.355-.65.091-.433.137-1.308.137-2.625 0-.774-.043-1.305-.13-1.592-.087-.292-.214-.504-.383-.636-.119-.096-.273-.144-.465-.144zm6.569-.294v.828c.328-.356.643-.613.943-.773s.624-.246.971-.246c.415 0 .759.116 1.032.349a1.63 1.63 0 0 1 .547.854c.073.26.109.759.109 1.497v2.488c0 .493.043.8.13.923s.278.194.561.226V108h-3.233v-.246c.242-.032.415-.132.52-.301.073-.114.109-.396.109-.848v-2.843c0-.524-.02-.855-.061-.991a.58.58 0 0 0-.212-.315.5.5 0 0 0-.321-.116c-.392 0-.756.28-1.094.841v3.424c0 .479.043.782.13.91s.258.207.499.239V108h-3.233v-.246c.269-.027.46-.114.574-.26.078-.1.116-.396.116-.889v-3.609c0-.483-.046-.784-.137-.902s-.271-.196-.554-.233v-.253h2.605zm9.222-.177l.102 2.18h-.232c-.278-.647-.567-1.089-.868-1.326s-.592-.355-.889-.355a.66.66 0 0 0-.478.191c-.132.123-.198.267-.198.431 0 .123.046.241.137.355.146.187.554.508 1.224.964s1.11.836 1.319 1.155a1.84 1.84 0 0 1 .321 1.06c0 .355-.089.704-.267 1.046s-.428.604-.752.786a2.15 2.15 0 0 1-1.073.273c-.305 0-.713-.095-1.224-.287-.137-.05-.23-.075-.28-.075-.15 0-.276.114-.376.342h-.226l-.109-2.297h.232c.205.602.485 1.053.841 1.354s.7.451 1.019.451c.219 0 .396-.066.533-.199a.66.66 0 0 0 .212-.492c0-.218-.068-.408-.205-.567s-.442-.401-.916-.725c-.697-.483-1.148-.852-1.353-1.107-.301-.374-.451-.786-.451-1.237 0-.493.169-.937.506-1.333.342-.401.834-.602 1.477-.602.346 0 .681.084 1.005.253.123.068.223.102.301.102s.148-.015.198-.047.13-.135.239-.294h.232zm3.281-.007c.314 0 .581.111.8.335.223.219.335.485.335.8s-.112.583-.335.806-.485.328-.8.328a1.11 1.11 0 0 1-1.135-1.134c0-.315.109-.581.328-.8.223-.224.492-.335.807-.335zm-.007 4.471c.319 0 .588.111.807.334a1.1 1.1 0 0 1 .335.807 1.1 1.1 0 0 1-.335.807 1.11 1.11 0 0 1-.807.328 1.11 1.11 0 0 1-1.135-1.135c0-.314.109-.583.328-.807a1.1 1.1 0 0 1 .807-.334z"/></g></svg>