<svg width="300" height="180" viewBox="0 0 300 180" fill="none" xmlns="http://www.w3.org/2000/svg">
<rect width="300" height="180" fill="#3E416D"/>
<rect x="30" y="56" width="240" height="20" rx="2" fill="white"/>
<rect x="30.25" y="56.25" width="239.5" height="19.5" rx="1.75" stroke="black" stroke-opacity="0.12" stroke-width="0.5"/>
<path d="M38.924 68.384C39.1613 68.384 39.3733 68.344 39.56 68.264C39.7467 68.184 39.904 68.072 40.032 67.928C40.1627 67.784 40.2613 67.612 40.328 67.412C40.3973 67.212 40.432 66.992 40.432 66.752V63.268H41.204V66.752C41.204 67.0827 41.1507 67.3893 41.044 67.672C40.94 67.9547 40.7893 68.2 40.592 68.408C40.3973 68.6133 40.1587 68.7747 39.876 68.892C39.5933 69.0093 39.276 69.068 38.924 69.068C38.572 69.068 38.2547 69.0093 37.972 68.892C37.6893 68.7747 37.4493 68.6133 37.252 68.408C37.0547 68.2 36.9027 67.9547 36.796 67.672C36.692 67.3893 36.64 67.0827 36.64 66.752V63.268H37.412V66.748C37.412 66.988 37.4453 67.208 37.512 67.408C37.5813 67.608 37.68 67.78 37.808 67.924C37.9387 68.068 38.0973 68.1813 38.284 68.264C38.4733 68.344 38.6867 68.384 38.924 68.384ZM44.7478 65.616C44.7158 65.6747 44.6664 65.704 44.5998 65.704C44.5598 65.704 44.5144 65.6893 44.4638 65.66C44.4131 65.6307 44.3504 65.5987 44.2758 65.564C44.2038 65.5267 44.1171 65.4933 44.0158 65.464C43.9144 65.432 43.7944 65.416 43.6558 65.416C43.5358 65.416 43.4278 65.432 43.3318 65.464C43.2358 65.4933 43.1531 65.5347 43.0838 65.588C43.0171 65.6413 42.9651 65.704 42.9278 65.776C42.8931 65.8453 42.8758 65.9213 42.8758 66.004C42.8758 66.108 42.9051 66.1947 42.9638 66.264C43.0251 66.3333 43.1051 66.3933 43.2038 66.444C43.3024 66.4947 43.4144 66.54 43.5398 66.58C43.6651 66.6173 43.7931 66.6587 43.9238 66.704C44.0571 66.7467 44.1864 66.7947 44.3118 66.848C44.4371 66.9013 44.5491 66.968 44.6478 67.048C44.7464 67.128 44.8251 67.2267 44.8838 67.344C44.9451 67.4587 44.9758 67.5973 44.9758 67.76C44.9758 67.9467 44.9424 68.12 44.8758 68.28C44.8091 68.4373 44.7104 68.5747 44.5798 68.692C44.4491 68.8067 44.2891 68.8973 44.0998 68.964C43.9104 69.0307 43.6918 69.064 43.4438 69.064C43.1611 69.064 42.9051 69.0187 42.6758 68.928C42.4464 68.8347 42.2518 68.716 42.0918 68.572L42.2598 68.3C42.2811 68.2653 42.3064 68.2387 42.3358 68.22C42.3651 68.2013 42.4038 68.192 42.4518 68.192C42.4998 68.192 42.5504 68.2107 42.6038 68.248C42.6571 68.2853 42.7211 68.3267 42.7958 68.372C42.8731 68.4173 42.9651 68.4587 43.0718 68.496C43.1811 68.5333 43.3171 68.552 43.4798 68.552C43.6184 68.552 43.7398 68.5347 43.8438 68.5C43.9478 68.4627 44.0344 68.4133 44.1037 68.352C44.1731 68.2907 44.2238 68.22 44.2558 68.14C44.2904 68.06 44.3078 67.9747 44.3078 67.884C44.3078 67.772 44.2771 67.68 44.2158 67.608C44.1571 67.5333 44.0784 67.4707 43.9798 67.42C43.8811 67.3667 43.7678 67.3213 43.6398 67.284C43.5144 67.244 43.3851 67.2027 43.2518 67.16C43.1211 67.1173 42.9918 67.0693 42.8638 67.016C42.7384 66.96 42.6264 66.8907 42.5278 66.808C42.4291 66.7253 42.3491 66.624 42.2878 66.504C42.2291 66.3813 42.1998 66.2333 42.1998 66.06C42.1998 65.9053 42.2318 65.7573 42.2958 65.616C42.3598 65.472 42.4531 65.3467 42.5758 65.24C42.6984 65.1307 42.8491 65.044 43.0278 64.98C43.2064 64.916 43.4104 64.884 43.6398 64.884C43.9064 64.884 44.1451 64.9267 44.3558 65.012C44.5691 65.0947 44.7531 65.2093 44.9078 65.356L44.7478 65.616ZM47.5005 64.884C47.7432 64.884 47.9672 64.9253 48.1725 65.008C48.3778 65.088 48.5552 65.2053 48.7045 65.36C48.8538 65.512 48.9698 65.7013 49.0525 65.928C49.1378 66.152 49.1805 66.408 49.1805 66.696C49.1805 66.808 49.1685 66.8827 49.1445 66.92C49.1205 66.9573 49.0752 66.976 49.0085 66.976H46.3125C46.3178 67.232 46.3525 67.4547 46.4165 67.644C46.4805 67.8333 46.5685 67.992 46.6805 68.12C46.7925 68.2453 46.9258 68.34 47.0805 68.404C47.2352 68.4653 47.4085 68.496 47.6005 68.496C47.7792 68.496 47.9325 68.476 48.0605 68.436C48.1912 68.3933 48.3032 68.348 48.3965 68.3C48.4898 68.252 48.5672 68.208 48.6285 68.168C48.6925 68.1253 48.7472 68.104 48.7925 68.104C48.8512 68.104 48.8965 68.1267 48.9285 68.172L49.1285 68.432C49.0405 68.5387 48.9352 68.632 48.8125 68.712C48.6898 68.7893 48.5578 68.8533 48.4165 68.904C48.2778 68.9547 48.1338 68.992 47.9845 69.016C47.8352 69.0427 47.6872 69.056 47.5405 69.056C47.2605 69.056 47.0018 69.0093 46.7645 68.916C46.5298 68.82 46.3258 68.6813 46.1525 68.5C45.9818 68.316 45.8485 68.0893 45.7525 67.82C45.6565 67.5507 45.6085 67.2413 45.6085 66.892C45.6085 66.6093 45.6512 66.3453 45.7365 66.1C45.8245 65.8547 45.9498 65.6427 46.1125 65.464C46.2752 65.2827 46.4738 65.1413 46.7085 65.04C46.9432 64.936 47.2072 64.884 47.5005 64.884ZM47.5165 65.408C47.1725 65.408 46.9018 65.508 46.7045 65.708C46.5072 65.9053 46.3845 66.18 46.3365 66.532H48.5405C48.5405 66.3667 48.5178 66.216 48.4725 66.08C48.4272 65.9413 48.3605 65.8227 48.2725 65.724C48.1845 65.6227 48.0765 65.5453 47.9485 65.492C47.8232 65.436 47.6792 65.408 47.5165 65.408ZM50.0918 69V64.948H50.4998C50.5771 64.948 50.6305 64.9627 50.6598 64.992C50.6891 65.0213 50.7091 65.072 50.7198 65.144L50.7678 65.776C50.9065 65.4933 51.0771 65.2733 51.2798 65.116C51.4851 64.956 51.7251 64.876 51.9998 64.876C52.1118 64.876 52.2131 64.8893 52.3038 64.916C52.3945 64.94 52.4785 64.9747 52.5558 65.02L52.4638 65.552C52.4451 65.6187 52.4038 65.652 52.3398 65.652C52.3025 65.652 52.2451 65.64 52.1678 65.616C52.0905 65.5893 51.9825 65.576 51.8438 65.576C51.5958 65.576 51.3878 65.648 51.2198 65.792C51.0545 65.936 50.9158 66.1453 50.8038 66.42V69H50.0918ZM53.3184 69V64.948H53.7424C53.8437 64.948 53.9077 64.9973 53.9344 65.096L53.9904 65.536C54.1664 65.3413 54.3624 65.184 54.5784 65.064C54.797 64.944 55.049 64.884 55.3344 64.884C55.5557 64.884 55.7504 64.9213 55.9184 64.996C56.089 65.068 56.2304 65.172 56.3424 65.308C56.457 65.4413 56.5437 65.6027 56.6024 65.792C56.661 65.9813 56.6904 66.1907 56.6904 66.42V69H55.9784V66.42C55.9784 66.1133 55.9077 65.876 55.7664 65.708C55.6277 65.5373 55.4144 65.452 55.1264 65.452C54.9157 65.452 54.7184 65.5027 54.5344 65.604C54.353 65.7053 54.185 65.8427 54.0304 66.016V69H53.3184ZM60.7397 69H60.4237C60.3544 69 60.2984 68.9893 60.2557 68.968C60.213 68.9467 60.185 68.9013 60.1717 68.832L60.0917 68.456C59.985 68.552 59.881 68.6387 59.7797 68.716C59.6784 68.7907 59.5717 68.8547 59.4597 68.908C59.3477 68.9587 59.2277 68.9973 59.0997 69.024C58.9744 69.0507 58.8344 69.064 58.6797 69.064C58.5224 69.064 58.3744 69.0427 58.2357 69C58.0997 68.9547 57.981 68.888 57.8797 68.8C57.7784 68.712 57.697 68.6013 57.6357 68.468C57.577 68.332 57.5477 68.172 57.5477 67.988C57.5477 67.828 57.5917 67.6747 57.6797 67.528C57.7677 67.3787 57.909 67.2467 58.1037 67.132C58.301 67.0173 58.5584 66.924 58.8757 66.852C59.193 66.7773 59.581 66.7347 60.0397 66.724V66.408C60.0397 66.0933 59.9717 65.856 59.8357 65.696C59.7024 65.5333 59.5037 65.452 59.2397 65.452C59.0664 65.452 58.9197 65.4747 58.7997 65.52C58.6824 65.5627 58.5797 65.612 58.4917 65.668C58.4064 65.7213 58.3317 65.7707 58.2677 65.816C58.2064 65.8587 58.145 65.88 58.0837 65.88C58.0357 65.88 57.993 65.868 57.9557 65.844C57.921 65.8173 57.893 65.7853 57.8717 65.748L57.7437 65.52C57.9677 65.304 58.209 65.1427 58.4677 65.036C58.7264 64.9293 59.013 64.876 59.3277 64.876C59.5544 64.876 59.7557 64.9133 59.9317 64.988C60.1077 65.0627 60.2557 65.1667 60.3757 65.3C60.4957 65.4333 60.5864 65.5947 60.6477 65.784C60.709 65.9733 60.7397 66.1813 60.7397 66.408V69ZM58.8917 68.564C59.017 68.564 59.1317 68.552 59.2357 68.528C59.3397 68.5013 59.437 68.4653 59.5277 68.42C59.621 68.372 59.709 68.3147 59.7917 68.248C59.877 68.1813 59.9597 68.1053 60.0397 68.02V67.176C59.7117 67.1867 59.433 67.2133 59.2037 67.256C58.9744 67.296 58.7877 67.3493 58.6437 67.416C58.4997 67.4827 58.3944 67.5613 58.3277 67.652C58.2637 67.7427 58.2317 67.844 58.2317 67.956C58.2317 68.0627 58.249 68.1547 58.2837 68.232C58.3184 68.3093 58.365 68.3733 58.4237 68.424C58.4824 68.472 58.5517 68.508 58.6317 68.532C58.7117 68.5533 58.7984 68.564 58.8917 68.564ZM61.8184 69V64.948H62.2424C62.3437 64.948 62.4077 64.9973 62.4344 65.096L62.4864 65.512C62.6357 65.328 62.8024 65.1773 62.9864 65.06C63.173 64.9427 63.389 64.884 63.6344 64.884C63.909 64.884 64.1304 64.96 64.2984 65.112C64.469 65.264 64.5917 65.4693 64.6664 65.728C64.7224 65.5813 64.7957 65.4547 64.8864 65.348C64.9797 65.2413 65.0837 65.1533 65.1984 65.084C65.313 65.0147 65.4344 64.964 65.5624 64.932C65.693 64.9 65.825 64.884 65.9584 64.884C66.1717 64.884 66.361 64.9187 66.5264 64.988C66.6944 65.0547 66.8357 65.1533 66.9504 65.284C67.0677 65.4147 67.157 65.576 67.2184 65.768C67.2797 65.9573 67.3104 66.1747 67.3104 66.42V69H66.5984V66.42C66.5984 66.1027 66.529 65.8627 66.3904 65.7C66.2517 65.5347 66.0504 65.452 65.7864 65.452C65.669 65.452 65.557 65.4733 65.4504 65.516C65.3464 65.556 65.2544 65.616 65.1744 65.696C65.0944 65.776 65.0304 65.8773 64.9824 66C64.937 66.12 64.9144 66.26 64.9144 66.42V69H64.2024V66.42C64.2024 66.0947 64.137 65.852 64.0064 65.692C63.8757 65.532 63.685 65.452 63.4344 65.452C63.2584 65.452 63.0944 65.5 62.9424 65.596C62.793 65.6893 62.6557 65.8173 62.5304 65.98V69H61.8184ZM69.9927 64.884C70.2354 64.884 70.4594 64.9253 70.6647 65.008C70.87 65.088 71.0474 65.2053 71.1967 65.36C71.346 65.512 71.462 65.7013 71.5447 65.928C71.63 66.152 71.6727 66.408 71.6727 66.696C71.6727 66.808 71.6607 66.8827 71.6367 66.92C71.6127 66.9573 71.5674 66.976 71.5007 66.976H68.8047C68.81 67.232 68.8447 67.4547 68.9087 67.644C68.9727 67.8333 69.0607 67.992 69.1727 68.12C69.2847 68.2453 69.418 68.34 69.5727 68.404C69.7274 68.4653 69.9007 68.496 70.0927 68.496C70.2714 68.496 70.4247 68.476 70.5527 68.436C70.6834 68.3933 70.7954 68.348 70.8887 68.3C70.982 68.252 71.0594 68.208 71.1207 68.168C71.1847 68.1253 71.2394 68.104 71.2847 68.104C71.3434 68.104 71.3887 68.1267 71.4207 68.172L71.6207 68.432C71.5327 68.5387 71.4274 68.632 71.3047 68.712C71.182 68.7893 71.05 68.8533 70.9087 68.904C70.77 68.9547 70.626 68.992 70.4767 69.016C70.3274 69.0427 70.1794 69.056 70.0327 69.056C69.7527 69.056 69.494 69.0093 69.2567 68.916C69.022 68.82 68.818 68.6813 68.6447 68.5C68.474 68.316 68.3407 68.0893 68.2447 67.82C68.1487 67.5507 68.1007 67.2413 68.1007 66.892C68.1007 66.6093 68.1434 66.3453 68.2287 66.1C68.3167 65.8547 68.442 65.6427 68.6047 65.464C68.7674 65.2827 68.966 65.1413 69.2007 65.04C69.4354 64.936 69.6994 64.884 69.9927 64.884ZM70.0087 65.408C69.6647 65.408 69.394 65.508 69.1967 65.708C68.9994 65.9053 68.8767 66.18 68.8287 66.532H71.0327C71.0327 66.3667 71.01 66.216 70.9647 66.08C70.9194 65.9413 70.8527 65.8227 70.7647 65.724C70.6767 65.6227 70.5687 65.5453 70.4407 65.492C70.3154 65.436 70.1714 65.408 70.0087 65.408Z" fill="#808080"/>
<rect x="30" y="84" width="240" height="20" rx="2" fill="white"/>
<rect x="30.25" y="84.25" width="239.5" height="19.5" rx="1.75" stroke="black" stroke-opacity="0.12" stroke-width="0.5"/>
<path d="M40.228 91.268V91.9H37.476V93.804H39.704V94.412H37.476V96.368H40.228V97H36.696V91.268H40.228ZM41.2324 97V92.948H41.6564C41.7578 92.948 41.8218 92.9973 41.8484 93.096L41.9004 93.512C42.0498 93.328 42.2164 93.1773 42.4004 93.06C42.5871 92.9427 42.8031 92.884 43.0484 92.884C43.3231 92.884 43.5444 92.96 43.7124 93.112C43.8831 93.264 44.0058 93.4693 44.0804 93.728C44.1364 93.5813 44.2098 93.4547 44.3004 93.348C44.3938 93.2413 44.4978 93.1533 44.6124 93.084C44.7271 93.0147 44.8484 92.964 44.9764 92.932C45.1071 92.9 45.2391 92.884 45.3724 92.884C45.5858 92.884 45.7751 92.9187 45.9404 92.988C46.1084 93.0547 46.2498 93.1533 46.3644 93.284C46.4818 93.4147 46.5711 93.576 46.6324 93.768C46.6938 93.9573 46.7244 94.1747 46.7244 94.42V97H46.0124V94.42C46.0124 94.1027 45.9431 93.8627 45.8044 93.7C45.6658 93.5347 45.4644 93.452 45.2004 93.452C45.0831 93.452 44.9711 93.4733 44.8644 93.516C44.7604 93.556 44.6684 93.616 44.5884 93.696C44.5084 93.776 44.4444 93.8773 44.3964 94C44.3511 94.12 44.3284 94.26 44.3284 94.42V97H43.6164V94.42C43.6164 94.0947 43.5511 93.852 43.4204 93.692C43.2898 93.532 43.0991 93.452 42.8484 93.452C42.6724 93.452 42.5084 93.5 42.3564 93.596C42.2071 93.6893 42.0698 93.8173 41.9444 93.98V97H41.2324ZM50.7788 97H50.4628C50.3934 97 50.3374 96.9893 50.2948 96.968C50.2521 96.9467 50.2241 96.9013 50.2108 96.832L50.1308 96.456C50.0241 96.552 49.9201 96.6387 49.8188 96.716C49.7174 96.7907 49.6108 96.8547 49.4988 96.908C49.3868 96.9587 49.2668 96.9973 49.1388 97.024C49.0134 97.0507 48.8734 97.064 48.7188 97.064C48.5614 97.064 48.4134 97.0427 48.2747 97C48.1388 96.9547 48.0201 96.888 47.9188 96.8C47.8174 96.712 47.7361 96.6013 47.6748 96.468C47.6161 96.332 47.5868 96.172 47.5868 95.988C47.5868 95.828 47.6308 95.6747 47.7188 95.528C47.8068 95.3787 47.9481 95.2467 48.1428 95.132C48.3401 95.0173 48.5974 94.924 48.9148 94.852C49.2321 94.7773 49.6201 94.7347 50.0788 94.724V94.408C50.0788 94.0933 50.0108 93.856 49.8748 93.696C49.7414 93.5333 49.5428 93.452 49.2788 93.452C49.1054 93.452 48.9588 93.4747 48.8388 93.52C48.7214 93.5627 48.6188 93.612 48.5308 93.668C48.4454 93.7213 48.3708 93.7707 48.3068 93.816C48.2454 93.8587 48.1841 93.88 48.1228 93.88C48.0748 93.88 48.0321 93.868 47.9948 93.844C47.9601 93.8173 47.9321 93.7853 47.9108 93.748L47.7828 93.52C48.0068 93.304 48.2481 93.1427 48.5068 93.036C48.7654 92.9293 49.0521 92.876 49.3668 92.876C49.5934 92.876 49.7948 92.9133 49.9708 92.988C50.1468 93.0627 50.2948 93.1667 50.4148 93.3C50.5348 93.4333 50.6254 93.5947 50.6868 93.784C50.7481 93.9733 50.7788 94.1813 50.7788 94.408V97ZM48.9308 96.564C49.0561 96.564 49.1708 96.552 49.2747 96.528C49.3788 96.5013 49.4761 96.4653 49.5668 96.42C49.6601 96.372 49.7481 96.3147 49.8308 96.248C49.9161 96.1813 49.9988 96.1053 50.0788 96.02V95.176C49.7508 95.1867 49.4721 95.2133 49.2428 95.256C49.0134 95.296 48.8268 95.3493 48.6828 95.416C48.5388 95.4827 48.4334 95.5613 48.3668 95.652C48.3028 95.7427 48.2708 95.844 48.2708 95.956C48.2708 96.0627 48.2881 96.1547 48.3228 96.232C48.3574 96.3093 48.4041 96.3733 48.4628 96.424C48.5214 96.472 48.5908 96.508 48.6708 96.532C48.7508 96.5533 48.8374 96.564 48.9308 96.564ZM52.6494 92.948V97H51.9374V92.948H52.6494ZM52.8094 91.676C52.8094 91.7453 52.7948 91.8107 52.7654 91.872C52.7388 91.9307 52.7014 91.984 52.6534 92.032C52.6081 92.0773 52.5548 92.1133 52.4934 92.14C52.4321 92.1667 52.3668 92.18 52.2974 92.18C52.2281 92.18 52.1628 92.1667 52.1014 92.14C52.0428 92.1133 51.9894 92.0773 51.9414 92.032C51.8961 91.984 51.8601 91.9307 51.8334 91.872C51.8068 91.8107 51.7934 91.7453 51.7934 91.676C51.7934 91.6067 51.8068 91.5413 51.8334 91.48C51.8601 91.416 51.8961 91.3613 51.9414 91.316C51.9894 91.268 52.0428 91.2307 52.1014 91.204C52.1628 91.1773 52.2281 91.164 52.2974 91.164C52.3668 91.164 52.4321 91.1773 52.4934 91.204C52.5548 91.2307 52.6081 91.268 52.6534 91.316C52.7014 91.3613 52.7388 91.416 52.7654 91.48C52.7948 91.5413 52.8094 91.6067 52.8094 91.676ZM54.6963 91.108V97H53.9843V91.108H54.6963Z" fill="#808080"/>
<rect x="30" y="112" width="240" height="20" rx="2" fill="white"/>
<rect x="30.25" y="112.25" width="239.5" height="19.5" rx="1.75" stroke="black" stroke-opacity="0.12" stroke-width="0.5"/>
<path d="M37.548 122.856V125H36.776V119.268H38.468C38.8307 119.268 39.1453 119.311 39.412 119.396C39.6813 119.479 39.904 119.597 40.08 119.752C40.256 119.907 40.3867 120.093 40.472 120.312C40.56 120.531 40.604 120.775 40.604 121.044C40.604 121.311 40.5573 121.555 40.464 121.776C40.3707 121.997 40.2333 122.188 40.052 122.348C39.8733 122.508 39.6507 122.633 39.384 122.724C39.1173 122.812 38.812 122.856 38.468 122.856H37.548ZM37.548 122.24H38.468C38.6893 122.24 38.884 122.211 39.052 122.152C39.2227 122.093 39.3653 122.012 39.48 121.908C39.5947 121.801 39.6813 121.675 39.74 121.528C39.7987 121.381 39.828 121.22 39.828 121.044C39.828 120.679 39.7147 120.393 39.488 120.188C39.264 119.983 38.924 119.88 38.468 119.88H37.548V122.24ZM44.2475 125H43.9315C43.8622 125 43.8062 124.989 43.7635 124.968C43.7208 124.947 43.6928 124.901 43.6795 124.832L43.5995 124.456C43.4928 124.552 43.3888 124.639 43.2875 124.716C43.1862 124.791 43.0795 124.855 42.9675 124.908C42.8555 124.959 42.7355 124.997 42.6075 125.024C42.4822 125.051 42.3422 125.064 42.1875 125.064C42.0302 125.064 41.8822 125.043 41.7435 125C41.6075 124.955 41.4888 124.888 41.3875 124.8C41.2862 124.712 41.2048 124.601 41.1435 124.468C41.0848 124.332 41.0555 124.172 41.0555 123.988C41.0555 123.828 41.0995 123.675 41.1875 123.528C41.2755 123.379 41.4168 123.247 41.6115 123.132C41.8088 123.017 42.0662 122.924 42.3835 122.852C42.7008 122.777 43.0888 122.735 43.5475 122.724V122.408C43.5475 122.093 43.4795 121.856 43.3435 121.696C43.2102 121.533 43.0115 121.452 42.7475 121.452C42.5742 121.452 42.4275 121.475 42.3075 121.52C42.1902 121.563 42.0875 121.612 41.9995 121.668C41.9142 121.721 41.8395 121.771 41.7755 121.816C41.7142 121.859 41.6528 121.88 41.5915 121.88C41.5435 121.88 41.5008 121.868 41.4635 121.844C41.4288 121.817 41.4008 121.785 41.3795 121.748L41.2515 121.52C41.4755 121.304 41.7168 121.143 41.9755 121.036C42.2342 120.929 42.5208 120.876 42.8355 120.876C43.0622 120.876 43.2635 120.913 43.4395 120.988C43.6155 121.063 43.7635 121.167 43.8835 121.3C44.0035 121.433 44.0942 121.595 44.1555 121.784C44.2168 121.973 44.2475 122.181 44.2475 122.408V125ZM42.3995 124.564C42.5248 124.564 42.6395 124.552 42.7435 124.528C42.8475 124.501 42.9448 124.465 43.0355 124.42C43.1288 124.372 43.2168 124.315 43.2995 124.248C43.3848 124.181 43.4675 124.105 43.5475 124.02V123.176C43.2195 123.187 42.9408 123.213 42.7115 123.256C42.4822 123.296 42.2955 123.349 42.1515 123.416C42.0075 123.483 41.9022 123.561 41.8355 123.652C41.7715 123.743 41.7395 123.844 41.7395 123.956C41.7395 124.063 41.7568 124.155 41.7915 124.232C41.8262 124.309 41.8728 124.373 41.9315 124.424C41.9902 124.472 42.0595 124.508 42.1395 124.532C42.2195 124.553 42.3062 124.564 42.3995 124.564ZM47.6462 121.616C47.6142 121.675 47.5649 121.704 47.4982 121.704C47.4582 121.704 47.4129 121.689 47.3622 121.66C47.3115 121.631 47.2489 121.599 47.1742 121.564C47.1022 121.527 47.0155 121.493 46.9142 121.464C46.8129 121.432 46.6929 121.416 46.5542 121.416C46.4342 121.416 46.3262 121.432 46.2302 121.464C46.1342 121.493 46.0515 121.535 45.9822 121.588C45.9155 121.641 45.8635 121.704 45.8262 121.776C45.7915 121.845 45.7742 121.921 45.7742 122.004C45.7742 122.108 45.8035 122.195 45.8622 122.264C45.9235 122.333 46.0035 122.393 46.1022 122.444C46.2009 122.495 46.3129 122.54 46.4382 122.58C46.5635 122.617 46.6915 122.659 46.8222 122.704C46.9555 122.747 47.0849 122.795 47.2102 122.848C47.3355 122.901 47.4475 122.968 47.5462 123.048C47.6449 123.128 47.7235 123.227 47.7822 123.344C47.8435 123.459 47.8742 123.597 47.8742 123.76C47.8742 123.947 47.8409 124.12 47.7742 124.28C47.7075 124.437 47.6089 124.575 47.4782 124.692C47.3475 124.807 47.1875 124.897 46.9982 124.964C46.8089 125.031 46.5902 125.064 46.3422 125.064C46.0595 125.064 45.8035 125.019 45.5742 124.928C45.3449 124.835 45.1502 124.716 44.9902 124.572L45.1582 124.3C45.1795 124.265 45.2049 124.239 45.2342 124.22C45.2635 124.201 45.3022 124.192 45.3502 124.192C45.3982 124.192 45.4489 124.211 45.5022 124.248C45.5555 124.285 45.6195 124.327 45.6942 124.372C45.7715 124.417 45.8635 124.459 45.9702 124.496C46.0795 124.533 46.2155 124.552 46.3782 124.552C46.5169 124.552 46.6382 124.535 46.7422 124.5C46.8462 124.463 46.9329 124.413 47.0022 124.352C47.0715 124.291 47.1222 124.22 47.1542 124.14C47.1889 124.06 47.2062 123.975 47.2062 123.884C47.2062 123.772 47.1755 123.68 47.1142 123.608C47.0555 123.533 46.9769 123.471 46.8782 123.42C46.7795 123.367 46.6662 123.321 46.5382 123.284C46.4129 123.244 46.2835 123.203 46.1502 123.16C46.0195 123.117 45.8902 123.069 45.7622 123.016C45.6369 122.96 45.5249 122.891 45.4262 122.808C45.3275 122.725 45.2475 122.624 45.1862 122.504C45.1275 122.381 45.0982 122.233 45.0982 122.06C45.0982 121.905 45.1302 121.757 45.1942 121.616C45.2582 121.472 45.3515 121.347 45.4742 121.24C45.5969 121.131 45.7475 121.044 45.9262 120.98C46.1049 120.916 46.3089 120.884 46.5382 120.884C46.8049 120.884 47.0435 120.927 47.2542 121.012C47.4675 121.095 47.6515 121.209 47.8062 121.356L47.6462 121.616ZM51.1149 121.616C51.0829 121.675 51.0336 121.704 50.9669 121.704C50.9269 121.704 50.8816 121.689 50.8309 121.66C50.7803 121.631 50.7176 121.599 50.6429 121.564C50.5709 121.527 50.4843 121.493 50.3829 121.464C50.2816 121.432 50.1616 121.416 50.0229 121.416C49.9029 121.416 49.7949 121.432 49.6989 121.464C49.6029 121.493 49.5203 121.535 49.4509 121.588C49.3843 121.641 49.3323 121.704 49.2949 121.776C49.2603 121.845 49.2429 121.921 49.2429 122.004C49.2429 122.108 49.2723 122.195 49.3309 122.264C49.3923 122.333 49.4723 122.393 49.5709 122.444C49.6696 122.495 49.7816 122.54 49.9069 122.58C50.0323 122.617 50.1603 122.659 50.2909 122.704C50.4243 122.747 50.5536 122.795 50.6789 122.848C50.8043 122.901 50.9163 122.968 51.0149 123.048C51.1136 123.128 51.1923 123.227 51.2509 123.344C51.3123 123.459 51.3429 123.597 51.3429 123.76C51.3429 123.947 51.3096 124.12 51.2429 124.28C51.1763 124.437 51.0776 124.575 50.9469 124.692C50.8163 124.807 50.6563 124.897 50.4669 124.964C50.2776 125.031 50.0589 125.064 49.8109 125.064C49.5283 125.064 49.2723 125.019 49.0429 124.928C48.8136 124.835 48.6189 124.716 48.4589 124.572L48.6269 124.3C48.6483 124.265 48.6736 124.239 48.7029 124.22C48.7323 124.201 48.7709 124.192 48.8189 124.192C48.8669 124.192 48.9176 124.211 48.9709 124.248C49.0243 124.285 49.0883 124.327 49.1629 124.372C49.2403 124.417 49.3323 124.459 49.4389 124.496C49.5483 124.533 49.6843 124.552 49.8469 124.552C49.9856 124.552 50.1069 124.535 50.2109 124.5C50.3149 124.463 50.4016 124.413 50.4709 124.352C50.5403 124.291 50.5909 124.22 50.6229 124.14C50.6576 124.06 50.6749 123.975 50.6749 123.884C50.6749 123.772 50.6443 123.68 50.5829 123.608C50.5243 123.533 50.4456 123.471 50.3469 123.42C50.2483 123.367 50.1349 123.321 50.0069 123.284C49.8816 123.244 49.7523 123.203 49.6189 123.16C49.4883 123.117 49.3589 123.069 49.2309 123.016C49.1056 122.96 48.9936 122.891 48.8949 122.808C48.7963 122.725 48.7163 122.624 48.6549 122.504C48.5963 122.381 48.5669 122.233 48.5669 122.06C48.5669 121.905 48.5989 121.757 48.6629 121.616C48.7269 121.472 48.8203 121.347 48.9429 121.24C49.0656 121.131 49.2163 121.044 49.3949 120.98C49.5736 120.916 49.7776 120.884 50.0069 120.884C50.2736 120.884 50.5123 120.927 50.7229 121.012C50.9363 121.095 51.1203 121.209 51.2749 121.356L51.1149 121.616ZM51.7357 120.948H52.2957C52.3544 120.948 52.4024 120.963 52.4397 120.992C52.477 121.021 52.5024 121.056 52.5157 121.096L53.2917 123.704C53.313 123.8 53.333 123.893 53.3517 123.984C53.3704 124.072 53.3864 124.161 53.3997 124.252C53.421 124.161 53.445 124.072 53.4717 123.984C53.4984 123.893 53.5264 123.8 53.5557 123.704L54.4117 121.08C54.425 121.04 54.4477 121.007 54.4797 120.98C54.5144 120.953 54.557 120.94 54.6077 120.94H54.9157C54.969 120.94 55.013 120.953 55.0477 120.98C55.0824 121.007 55.1064 121.04 55.1197 121.08L55.9557 123.704C55.985 123.797 56.0104 123.889 56.0317 123.98C56.0557 124.071 56.0784 124.16 56.0997 124.248C56.113 124.16 56.1304 124.068 56.1517 123.972C56.173 123.876 56.1957 123.787 56.2197 123.704L57.0117 121.096C57.025 121.053 57.0504 121.019 57.0877 120.992C57.125 120.963 57.169 120.948 57.2197 120.948H57.7557L56.4437 125H55.8797C55.8104 125 55.7624 124.955 55.7357 124.864L54.8397 122.116C54.8184 122.055 54.801 121.993 54.7877 121.932C54.7744 121.868 54.761 121.805 54.7477 121.744C54.7344 121.805 54.721 121.868 54.7077 121.932C54.6944 121.996 54.677 122.059 54.6557 122.12L53.7477 124.864C53.7184 124.955 53.6637 125 53.5837 125H53.0477L51.7357 120.948ZM60.0287 120.884C60.3247 120.884 60.5914 120.933 60.8287 121.032C61.0687 121.131 61.2714 121.271 61.4367 121.452C61.6047 121.633 61.7327 121.853 61.8207 122.112C61.9114 122.368 61.9567 122.655 61.9567 122.972C61.9567 123.292 61.9114 123.58 61.8207 123.836C61.7327 124.092 61.6047 124.311 61.4367 124.492C61.2714 124.673 61.0687 124.813 60.8287 124.912C60.5914 125.008 60.3247 125.056 60.0287 125.056C59.7327 125.056 59.4647 125.008 59.2247 124.912C58.9874 124.813 58.7847 124.673 58.6167 124.492C58.4487 124.311 58.3194 124.092 58.2287 123.836C58.138 123.58 58.0927 123.292 58.0927 122.972C58.0927 122.655 58.138 122.368 58.2287 122.112C58.3194 121.853 58.4487 121.633 58.6167 121.452C58.7847 121.271 58.9874 121.131 59.2247 121.032C59.4647 120.933 59.7327 120.884 60.0287 120.884ZM60.0287 124.5C60.4287 124.5 60.7274 124.367 60.9247 124.1C61.122 123.831 61.2207 123.456 61.2207 122.976C61.2207 122.493 61.122 122.117 60.9247 121.848C60.7274 121.579 60.4287 121.444 60.0287 121.444C59.826 121.444 59.65 121.479 59.5007 121.548C59.3514 121.617 59.226 121.717 59.1247 121.848C59.026 121.979 58.9514 122.14 58.9007 122.332C58.8527 122.521 58.8287 122.736 58.8287 122.976C58.8287 123.216 58.8527 123.431 58.9007 123.62C58.9514 123.809 59.026 123.969 59.1247 124.1C59.226 124.228 59.3514 124.327 59.5007 124.396C59.65 124.465 59.826 124.5 60.0287 124.5ZM62.834 125V120.948H63.242C63.3193 120.948 63.3727 120.963 63.402 120.992C63.4313 121.021 63.4513 121.072 63.462 121.144L63.51 121.776C63.6487 121.493 63.8193 121.273 64.022 121.116C64.2273 120.956 64.4673 120.876 64.742 120.876C64.854 120.876 64.9553 120.889 65.046 120.916C65.1367 120.94 65.2207 120.975 65.298 121.02L65.206 121.552C65.1873 121.619 65.146 121.652 65.082 121.652C65.0447 121.652 64.9873 121.64 64.91 121.616C64.8327 121.589 64.7247 121.576 64.586 121.576C64.338 121.576 64.13 121.648 63.962 121.792C63.7967 121.936 63.658 122.145 63.546 122.42V125H62.834ZM68.9126 125C68.8112 125 68.7472 124.951 68.7206 124.852L68.6566 124.36C68.4832 124.571 68.2846 124.74 68.0606 124.868C67.8392 124.993 67.5846 125.056 67.2966 125.056C67.0646 125.056 66.8539 125.012 66.6646 124.924C66.4752 124.833 66.3139 124.701 66.1806 124.528C66.0472 124.355 65.9446 124.139 65.8726 123.88C65.8006 123.621 65.7646 123.324 65.7646 122.988C65.7646 122.689 65.8046 122.412 65.8846 122.156C65.9646 121.897 66.0792 121.673 66.2286 121.484C66.3806 121.295 66.5646 121.147 66.7806 121.04C66.9966 120.931 67.2419 120.876 67.5166 120.876C67.7646 120.876 67.9766 120.919 68.1526 121.004C68.3286 121.087 68.4859 121.204 68.6246 121.356V119.108H69.3366V125H68.9126ZM67.5326 124.48C67.7646 124.48 67.9672 124.427 68.1406 124.32C68.3166 124.213 68.4779 124.063 68.6246 123.868V121.908C68.4939 121.732 68.3499 121.609 68.1926 121.54C68.0379 121.468 67.8659 121.432 67.6766 121.432C67.2979 121.432 67.0072 121.567 66.8046 121.836C66.6019 122.105 66.5006 122.489 66.5006 122.988C66.5006 123.252 66.5232 123.479 66.5686 123.668C66.6139 123.855 66.6806 124.009 66.7686 124.132C66.8566 124.252 66.9646 124.34 67.0926 124.396C67.2206 124.452 67.3672 124.48 67.5326 124.48Z" fill="#808080"/>
<rect x="30" y="140" width="240" height="20" rx="10" fill="#62D76B"/>
<path d="M115.236 151.816C115.279 151.816 115.317 151.833 115.352 151.868L115.656 152.2C115.421 152.472 115.136 152.684 114.8 152.836C114.467 152.988 114.064 153.064 113.592 153.064C113.179 153.064 112.804 152.993 112.468 152.852C112.132 152.708 111.845 152.508 111.608 152.252C111.371 151.993 111.187 151.684 111.056 151.324C110.925 150.964 110.86 150.568 110.86 150.136C110.86 149.704 110.929 149.308 111.068 148.948C111.209 148.588 111.407 148.279 111.66 148.02C111.913 147.761 112.216 147.561 112.568 147.42C112.923 147.276 113.313 147.204 113.74 147.204C114.161 147.204 114.524 147.269 114.828 147.4C115.135 147.531 115.407 147.708 115.644 147.932L115.392 148.288C115.373 148.315 115.352 148.337 115.328 148.356C115.304 148.372 115.269 148.38 115.224 148.38C115.189 148.38 115.152 148.368 115.112 148.344C115.075 148.317 115.029 148.285 114.976 148.248C114.923 148.211 114.86 148.171 114.788 148.128C114.716 148.085 114.631 148.045 114.532 148.008C114.433 147.971 114.319 147.94 114.188 147.916C114.057 147.889 113.907 147.876 113.736 147.876C113.429 147.876 113.148 147.929 112.892 148.036C112.639 148.14 112.42 148.289 112.236 148.484C112.052 148.679 111.908 148.916 111.804 149.196C111.703 149.476 111.652 149.789 111.652 150.136C111.652 150.493 111.703 150.812 111.804 151.092C111.908 151.372 112.048 151.609 112.224 151.804C112.403 151.996 112.613 152.143 112.856 152.244C113.099 152.345 113.36 152.396 113.64 152.396C113.811 152.396 113.964 152.387 114.1 152.368C114.236 152.347 114.361 152.315 114.476 152.272C114.593 152.229 114.701 152.176 114.8 152.112C114.901 152.045 115.003 151.967 115.104 151.876C115.149 151.836 115.193 151.816 115.236 151.816ZM118.201 148.884C118.497 148.884 118.763 148.933 119.001 149.032C119.241 149.131 119.443 149.271 119.609 149.452C119.777 149.633 119.905 149.853 119.993 150.112C120.083 150.368 120.129 150.655 120.129 150.972C120.129 151.292 120.083 151.58 119.993 151.836C119.905 152.092 119.777 152.311 119.609 152.492C119.443 152.673 119.241 152.813 119.001 152.912C118.763 153.008 118.497 153.056 118.201 153.056C117.905 153.056 117.637 153.008 117.397 152.912C117.159 152.813 116.957 152.673 116.789 152.492C116.621 152.311 116.491 152.092 116.401 151.836C116.31 151.58 116.265 151.292 116.265 150.972C116.265 150.655 116.31 150.368 116.401 150.112C116.491 149.853 116.621 149.633 116.789 149.452C116.957 149.271 117.159 149.131 117.397 149.032C117.637 148.933 117.905 148.884 118.201 148.884ZM118.201 152.5C118.601 152.5 118.899 152.367 119.097 152.1C119.294 151.831 119.393 151.456 119.393 150.976C119.393 150.493 119.294 150.117 119.097 149.848C118.899 149.579 118.601 149.444 118.201 149.444C117.998 149.444 117.822 149.479 117.673 149.548C117.523 149.617 117.398 149.717 117.297 149.848C117.198 149.979 117.123 150.14 117.073 150.332C117.025 150.521 117.001 150.736 117.001 150.976C117.001 151.216 117.025 151.431 117.073 151.62C117.123 151.809 117.198 151.969 117.297 152.1C117.398 152.228 117.523 152.327 117.673 152.396C117.822 152.465 117.998 152.5 118.201 152.5ZM121.006 153V148.948H121.43C121.531 148.948 121.595 148.997 121.622 149.096L121.674 149.512C121.823 149.328 121.99 149.177 122.174 149.06C122.361 148.943 122.577 148.884 122.822 148.884C123.097 148.884 123.318 148.96 123.486 149.112C123.657 149.264 123.779 149.469 123.854 149.728C123.91 149.581 123.983 149.455 124.074 149.348C124.167 149.241 124.271 149.153 124.386 149.084C124.501 149.015 124.622 148.964 124.75 148.932C124.881 148.9 125.013 148.884 125.146 148.884C125.359 148.884 125.549 148.919 125.714 148.988C125.882 149.055 126.023 149.153 126.138 149.284C126.255 149.415 126.345 149.576 126.406 149.768C126.467 149.957 126.498 150.175 126.498 150.42V153H125.786V150.42C125.786 150.103 125.717 149.863 125.578 149.7C125.439 149.535 125.238 149.452 124.974 149.452C124.857 149.452 124.745 149.473 124.638 149.516C124.534 149.556 124.442 149.616 124.362 149.696C124.282 149.776 124.218 149.877 124.17 150C124.125 150.12 124.102 150.26 124.102 150.42V153H123.39V150.42C123.39 150.095 123.325 149.852 123.194 149.692C123.063 149.532 122.873 149.452 122.622 149.452C122.446 149.452 122.282 149.5 122.13 149.596C121.981 149.689 121.843 149.817 121.718 149.98V153H121.006ZM127.576 154.372V148.948H128C128.102 148.948 128.166 148.997 128.192 149.096L128.252 149.576C128.426 149.365 128.623 149.196 128.844 149.068C129.068 148.94 129.326 148.876 129.616 148.876C129.848 148.876 130.059 148.921 130.248 149.012C130.438 149.1 130.599 149.232 130.732 149.408C130.866 149.581 130.968 149.797 131.04 150.056C131.112 150.315 131.148 150.612 131.148 150.948C131.148 151.247 131.108 151.525 131.028 151.784C130.948 152.04 130.834 152.263 130.684 152.452C130.535 152.639 130.351 152.787 130.132 152.896C129.916 153.003 129.672 153.056 129.4 153.056C129.15 153.056 128.935 153.015 128.756 152.932C128.58 152.849 128.424 152.732 128.288 152.58V154.372H127.576ZM129.38 149.452C129.148 149.452 128.944 149.505 128.768 149.612C128.595 149.719 128.435 149.869 128.288 150.064V152.024C128.419 152.2 128.562 152.324 128.716 152.396C128.874 152.468 129.048 152.504 129.24 152.504C129.616 152.504 129.906 152.369 130.108 152.1C130.311 151.831 130.412 151.447 130.412 150.948C130.412 150.684 130.388 150.457 130.34 150.268C130.295 150.079 130.228 149.924 130.14 149.804C130.052 149.681 129.944 149.592 129.816 149.536C129.688 149.48 129.543 149.452 129.38 149.452ZM132.782 147.108V153H132.07V147.108H132.782ZM135.641 148.884C135.884 148.884 136.108 148.925 136.313 149.008C136.518 149.088 136.696 149.205 136.845 149.36C136.994 149.512 137.11 149.701 137.193 149.928C137.278 150.152 137.321 150.408 137.321 150.696C137.321 150.808 137.309 150.883 137.285 150.92C137.261 150.957 137.216 150.976 137.149 150.976H134.453C134.458 151.232 134.493 151.455 134.557 151.644C134.621 151.833 134.709 151.992 134.821 152.12C134.933 152.245 135.066 152.34 135.221 152.404C135.376 152.465 135.549 152.496 135.741 152.496C135.92 152.496 136.073 152.476 136.201 152.436C136.332 152.393 136.444 152.348 136.537 152.3C136.63 152.252 136.708 152.208 136.769 152.168C136.833 152.125 136.888 152.104 136.933 152.104C136.992 152.104 137.037 152.127 137.069 152.172L137.269 152.432C137.181 152.539 137.076 152.632 136.953 152.712C136.83 152.789 136.698 152.853 136.557 152.904C136.418 152.955 136.274 152.992 136.125 153.016C135.976 153.043 135.828 153.056 135.681 153.056C135.401 153.056 135.142 153.009 134.905 152.916C134.67 152.82 134.466 152.681 134.293 152.5C134.122 152.316 133.989 152.089 133.893 151.82C133.797 151.551 133.749 151.241 133.749 150.892C133.749 150.609 133.792 150.345 133.877 150.1C133.965 149.855 134.09 149.643 134.253 149.464C134.416 149.283 134.614 149.141 134.849 149.04C135.084 148.936 135.348 148.884 135.641 148.884ZM135.657 149.408C135.313 149.408 135.042 149.508 134.845 149.708C134.648 149.905 134.525 150.18 134.477 150.532H136.681C136.681 150.367 136.658 150.216 136.613 150.08C136.568 149.941 136.501 149.823 136.413 149.724C136.325 149.623 136.217 149.545 136.089 149.492C135.964 149.436 135.82 149.408 135.657 149.408ZM139.46 153.064C139.14 153.064 138.894 152.975 138.72 152.796C138.55 152.617 138.464 152.36 138.464 152.024V149.544H137.976C137.934 149.544 137.898 149.532 137.868 149.508C137.839 149.481 137.824 149.441 137.824 149.388V149.104L138.488 149.02L138.652 147.768C138.658 147.728 138.675 147.696 138.704 147.672C138.734 147.645 138.771 147.632 138.816 147.632H139.176V149.028H140.336V149.544H139.176V151.976C139.176 152.147 139.218 152.273 139.3 152.356C139.383 152.439 139.49 152.48 139.62 152.48C139.695 152.48 139.759 152.471 139.812 152.452C139.868 152.431 139.916 152.408 139.956 152.384C139.996 152.36 140.03 152.339 140.056 152.32C140.086 152.299 140.111 152.288 140.132 152.288C140.17 152.288 140.203 152.311 140.232 152.356L140.44 152.696C140.318 152.811 140.17 152.901 139.996 152.968C139.823 153.032 139.644 153.064 139.46 153.064ZM142.821 148.884C143.063 148.884 143.287 148.925 143.493 149.008C143.698 149.088 143.875 149.205 144.025 149.36C144.174 149.512 144.29 149.701 144.373 149.928C144.458 150.152 144.501 150.408 144.501 150.696C144.501 150.808 144.489 150.883 144.465 150.92C144.441 150.957 144.395 150.976 144.329 150.976H141.633C141.638 151.232 141.673 151.455 141.737 151.644C141.801 151.833 141.889 151.992 142.001 152.12C142.113 152.245 142.246 152.34 142.401 152.404C142.555 152.465 142.729 152.496 142.921 152.496C143.099 152.496 143.253 152.476 143.381 152.436C143.511 152.393 143.623 152.348 143.717 152.3C143.81 152.252 143.887 152.208 143.949 152.168C144.013 152.125 144.067 152.104 144.113 152.104C144.171 152.104 144.217 152.127 144.249 152.172L144.449 152.432C144.361 152.539 144.255 152.632 144.133 152.712C144.01 152.789 143.878 152.853 143.737 152.904C143.598 152.955 143.454 152.992 143.305 153.016C143.155 153.043 143.007 153.056 142.861 153.056C142.581 153.056 142.322 153.009 142.085 152.916C141.85 152.82 141.646 152.681 141.473 152.5C141.302 152.316 141.169 152.089 141.073 151.82C140.977 151.551 140.929 151.241 140.929 150.892C140.929 150.609 140.971 150.345 141.057 150.1C141.145 149.855 141.27 149.643 141.433 149.464C141.595 149.283 141.794 149.141 142.029 149.04C142.263 148.936 142.527 148.884 142.821 148.884ZM142.837 149.408C142.493 149.408 142.222 149.508 142.025 149.708C141.827 149.905 141.705 150.18 141.657 150.532H143.861C143.861 150.367 143.838 150.216 143.793 150.08C143.747 149.941 143.681 149.823 143.593 149.724C143.505 149.623 143.397 149.545 143.269 149.492C143.143 149.436 142.999 149.408 142.837 149.408ZM147.923 150.608V153H147.151V147.268H148.771C149.134 147.268 149.447 147.305 149.711 147.38C149.975 147.452 150.192 147.557 150.363 147.696C150.536 147.835 150.664 148.003 150.747 148.2C150.83 148.395 150.871 148.613 150.871 148.856C150.871 149.059 150.839 149.248 150.775 149.424C150.711 149.6 150.618 149.759 150.495 149.9C150.375 150.039 150.227 150.157 150.051 150.256C149.878 150.355 149.68 150.429 149.459 150.48C149.555 150.536 149.64 150.617 149.715 150.724L151.387 153H150.699C150.558 153 150.454 152.945 150.387 152.836L148.899 150.788C148.854 150.724 148.804 150.679 148.751 150.652C148.698 150.623 148.618 150.608 148.511 150.608H147.923ZM147.923 150.044H148.735C148.962 150.044 149.16 150.017 149.331 149.964C149.504 149.908 149.648 149.831 149.763 149.732C149.88 149.631 149.968 149.511 150.027 149.372C150.086 149.233 150.115 149.08 150.115 148.912C150.115 148.571 150.002 148.313 149.775 148.14C149.551 147.967 149.216 147.88 148.771 147.88H147.923V150.044ZM153.711 148.884C153.954 148.884 154.178 148.925 154.383 149.008C154.589 149.088 154.766 149.205 154.915 149.36C155.065 149.512 155.181 149.701 155.263 149.928C155.349 150.152 155.391 150.408 155.391 150.696C155.391 150.808 155.379 150.883 155.355 150.92C155.331 150.957 155.286 150.976 155.219 150.976H152.523C152.529 151.232 152.563 151.455 152.627 151.644C152.691 151.833 152.779 151.992 152.891 152.12C153.003 152.245 153.137 152.34 153.291 152.404C153.446 152.465 153.619 152.496 153.811 152.496C153.99 152.496 154.143 152.476 154.271 152.436C154.402 152.393 154.514 152.348 154.607 152.3C154.701 152.252 154.778 152.208 154.839 152.168C154.903 152.125 154.958 152.104 155.003 152.104C155.062 152.104 155.107 152.127 155.139 152.172L155.339 152.432C155.251 152.539 155.146 152.632 155.023 152.712C154.901 152.789 154.769 152.853 154.627 152.904C154.489 152.955 154.345 152.992 154.195 153.016C154.046 153.043 153.898 153.056 153.751 153.056C153.471 153.056 153.213 153.009 152.975 152.916C152.741 152.82 152.537 152.681 152.363 152.5C152.193 152.316 152.059 152.089 151.963 151.82C151.867 151.551 151.819 151.241 151.819 150.892C151.819 150.609 151.862 150.345 151.947 150.1C152.035 149.855 152.161 149.643 152.323 149.464C152.486 149.283 152.685 149.141 152.919 149.04C153.154 148.936 153.418 148.884 153.711 148.884ZM153.727 149.408C153.383 149.408 153.113 149.508 152.915 149.708C152.718 149.905 152.595 150.18 152.547 150.532H154.751C154.751 150.367 154.729 150.216 154.683 150.08C154.638 149.941 154.571 149.823 154.483 149.724C154.395 149.623 154.287 149.545 154.159 149.492C154.034 149.436 153.89 149.408 153.727 149.408ZM157.667 148.88C157.843 148.88 158.007 148.9 158.159 148.94C158.313 148.977 158.453 149.033 158.579 149.108H159.679V149.372C159.679 149.46 159.623 149.516 159.511 149.54L159.051 149.604C159.141 149.777 159.187 149.971 159.187 150.184C159.187 150.381 159.148 150.561 159.071 150.724C158.996 150.884 158.891 151.021 158.755 151.136C158.621 151.251 158.461 151.339 158.275 151.4C158.091 151.461 157.888 151.492 157.667 151.492C157.477 151.492 157.299 151.469 157.131 151.424C157.045 151.477 156.98 151.535 156.935 151.596C156.892 151.657 156.871 151.717 156.871 151.776C156.871 151.872 156.909 151.945 156.987 151.996C157.064 152.044 157.167 152.079 157.295 152.1C157.423 152.121 157.568 152.135 157.731 152.14C157.893 152.145 158.059 152.155 158.227 152.168C158.397 152.179 158.564 152.199 158.727 152.228C158.889 152.257 159.035 152.305 159.163 152.372C159.291 152.439 159.393 152.531 159.471 152.648C159.548 152.765 159.587 152.917 159.587 153.104C159.587 153.277 159.543 153.445 159.455 153.608C159.369 153.771 159.245 153.915 159.083 154.04C158.92 154.168 158.721 154.269 158.487 154.344C158.252 154.421 157.987 154.46 157.691 154.46C157.395 154.46 157.135 154.431 156.911 154.372C156.689 154.313 156.505 154.235 156.359 154.136C156.212 154.037 156.101 153.923 156.027 153.792C155.955 153.664 155.919 153.529 155.919 153.388C155.919 153.188 155.981 153.019 156.107 152.88C156.235 152.739 156.409 152.627 156.631 152.544C156.516 152.491 156.424 152.42 156.355 152.332C156.288 152.241 156.255 152.121 156.255 151.972C156.255 151.913 156.265 151.853 156.287 151.792C156.308 151.728 156.34 151.665 156.383 151.604C156.428 151.543 156.483 151.484 156.547 151.428C156.611 151.372 156.685 151.323 156.771 151.28C156.571 151.168 156.413 151.02 156.299 150.836C156.187 150.649 156.131 150.432 156.131 150.184C156.131 149.987 156.168 149.808 156.243 149.648C156.32 149.485 156.427 149.348 156.563 149.236C156.699 149.121 156.86 149.033 157.047 148.972C157.236 148.911 157.443 148.88 157.667 148.88ZM158.931 153.22C158.931 153.119 158.903 153.037 158.847 152.976C158.791 152.915 158.715 152.868 158.619 152.836C158.523 152.801 158.412 152.776 158.287 152.76C158.161 152.744 158.029 152.733 157.891 152.728C157.752 152.72 157.611 152.712 157.467 152.704C157.323 152.696 157.185 152.681 157.055 152.66C156.903 152.732 156.779 152.82 156.683 152.924C156.589 153.028 156.543 153.152 156.543 153.296C156.543 153.387 156.565 153.471 156.611 153.548C156.659 153.628 156.731 153.696 156.827 153.752C156.923 153.811 157.043 153.856 157.187 153.888C157.333 153.923 157.505 153.94 157.703 153.94C157.895 153.94 158.067 153.923 158.219 153.888C158.371 153.853 158.499 153.804 158.603 153.74C158.709 153.676 158.791 153.6 158.847 153.512C158.903 153.424 158.931 153.327 158.931 153.22ZM157.667 151.02C157.811 151.02 157.937 151 158.047 150.96C158.159 150.92 158.252 150.864 158.327 150.792C158.401 150.72 158.457 150.635 158.495 150.536C158.532 150.435 158.551 150.324 158.551 150.204C158.551 149.956 158.475 149.759 158.323 149.612C158.173 149.465 157.955 149.392 157.667 149.392C157.381 149.392 157.163 149.465 157.011 149.612C156.861 149.759 156.787 149.956 156.787 150.204C156.787 150.324 156.805 150.435 156.843 150.536C156.883 150.635 156.94 150.72 157.015 150.792C157.089 150.864 157.181 150.92 157.291 150.96C157.4 151 157.525 151.02 157.667 151.02ZM161.181 148.948V153H160.469V148.948H161.181ZM161.341 147.676C161.341 147.745 161.326 147.811 161.297 147.872C161.27 147.931 161.233 147.984 161.185 148.032C161.139 148.077 161.086 148.113 161.025 148.14C160.963 148.167 160.898 148.18 160.829 148.18C160.759 148.18 160.694 148.167 160.633 148.14C160.574 148.113 160.521 148.077 160.473 148.032C160.427 147.984 160.391 147.931 160.365 147.872C160.338 147.811 160.325 147.745 160.325 147.676C160.325 147.607 160.338 147.541 160.365 147.48C160.391 147.416 160.427 147.361 160.473 147.316C160.521 147.268 160.574 147.231 160.633 147.204C160.694 147.177 160.759 147.164 160.829 147.164C160.898 147.164 160.963 147.177 161.025 147.204C161.086 147.231 161.139 147.268 161.185 147.316C161.233 147.361 161.27 147.416 161.297 147.48C161.326 147.541 161.341 147.607 161.341 147.676ZM164.756 149.616C164.724 149.675 164.674 149.704 164.608 149.704C164.568 149.704 164.522 149.689 164.472 149.66C164.421 149.631 164.358 149.599 164.284 149.564C164.212 149.527 164.125 149.493 164.024 149.464C163.922 149.432 163.802 149.416 163.664 149.416C163.544 149.416 163.436 149.432 163.34 149.464C163.244 149.493 163.161 149.535 163.092 149.588C163.025 149.641 162.973 149.704 162.936 149.776C162.901 149.845 162.884 149.921 162.884 150.004C162.884 150.108 162.913 150.195 162.972 150.264C163.033 150.333 163.113 150.393 163.212 150.444C163.31 150.495 163.422 150.54 163.548 150.58C163.673 150.617 163.801 150.659 163.932 150.704C164.065 150.747 164.194 150.795 164.32 150.848C164.445 150.901 164.557 150.968 164.656 151.048C164.754 151.128 164.833 151.227 164.892 151.344C164.953 151.459 164.984 151.597 164.984 151.76C164.984 151.947 164.95 152.12 164.884 152.28C164.817 152.437 164.718 152.575 164.588 152.692C164.457 152.807 164.297 152.897 164.108 152.964C163.918 153.031 163.7 153.064 163.452 153.064C163.169 153.064 162.913 153.019 162.684 152.928C162.454 152.835 162.26 152.716 162.1 152.572L162.268 152.3C162.289 152.265 162.314 152.239 162.344 152.22C162.373 152.201 162.412 152.192 162.46 152.192C162.508 152.192 162.558 152.211 162.612 152.248C162.665 152.285 162.729 152.327 162.804 152.372C162.881 152.417 162.973 152.459 163.08 152.496C163.189 152.533 163.325 152.552 163.488 152.552C163.626 152.552 163.748 152.535 163.852 152.5C163.956 152.463 164.042 152.413 164.112 152.352C164.181 152.291 164.232 152.22 164.264 152.14C164.298 152.06 164.316 151.975 164.316 151.884C164.316 151.772 164.285 151.68 164.224 151.608C164.165 151.533 164.086 151.471 163.988 151.42C163.889 151.367 163.776 151.321 163.648 151.284C163.522 151.244 163.393 151.203 163.26 151.16C163.129 151.117 163 151.069 162.872 151.016C162.746 150.96 162.634 150.891 162.536 150.808C162.437 150.725 162.357 150.624 162.296 150.504C162.237 150.381 162.208 150.233 162.208 150.06C162.208 149.905 162.24 149.757 162.304 149.616C162.368 149.472 162.461 149.347 162.584 149.24C162.706 149.131 162.857 149.044 163.036 148.98C163.214 148.916 163.418 148.884 163.648 148.884C163.914 148.884 164.153 148.927 164.364 149.012C164.577 149.095 164.761 149.209 164.916 149.356L164.756 149.616ZM167.132 153.064C166.812 153.064 166.566 152.975 166.392 152.796C166.222 152.617 166.136 152.36 166.136 152.024V149.544H165.648C165.606 149.544 165.57 149.532 165.54 149.508C165.511 149.481 165.496 149.441 165.496 149.388V149.104L166.16 149.02L166.324 147.768C166.33 147.728 166.347 147.696 166.376 147.672C166.406 147.645 166.443 147.632 166.488 147.632H166.848V149.028H168.008V149.544H166.848V151.976C166.848 152.147 166.89 152.273 166.972 152.356C167.055 152.439 167.162 152.48 167.292 152.48C167.367 152.48 167.431 152.471 167.484 152.452C167.54 152.431 167.588 152.408 167.628 152.384C167.668 152.36 167.702 152.339 167.728 152.32C167.758 152.299 167.783 152.288 167.804 152.288C167.842 152.288 167.875 152.311 167.904 152.356L168.112 152.696C167.99 152.811 167.842 152.901 167.668 152.968C167.495 153.032 167.316 153.064 167.132 153.064ZM168.889 153V148.948H169.297C169.374 148.948 169.427 148.963 169.457 148.992C169.486 149.021 169.506 149.072 169.517 149.144L169.565 149.776C169.703 149.493 169.874 149.273 170.077 149.116C170.282 148.956 170.522 148.876 170.797 148.876C170.909 148.876 171.01 148.889 171.101 148.916C171.191 148.94 171.275 148.975 171.353 149.02L171.261 149.552C171.242 149.619 171.201 149.652 171.137 149.652C171.099 149.652 171.042 149.64 170.965 149.616C170.887 149.589 170.779 149.576 170.641 149.576C170.393 149.576 170.185 149.648 170.017 149.792C169.851 149.936 169.713 150.145 169.601 150.42V153H168.889ZM174.943 153H174.627C174.557 153 174.501 152.989 174.459 152.968C174.416 152.947 174.388 152.901 174.375 152.832L174.295 152.456C174.188 152.552 174.084 152.639 173.983 152.716C173.881 152.791 173.775 152.855 173.663 152.908C173.551 152.959 173.431 152.997 173.303 153.024C173.177 153.051 173.037 153.064 172.883 153.064C172.725 153.064 172.577 153.043 172.439 153C172.303 152.955 172.184 152.888 172.083 152.8C171.981 152.712 171.9 152.601 171.839 152.468C171.78 152.332 171.751 152.172 171.751 151.988C171.751 151.828 171.795 151.675 171.883 151.528C171.971 151.379 172.112 151.247 172.307 151.132C172.504 151.017 172.761 150.924 173.079 150.852C173.396 150.777 173.784 150.735 174.243 150.724V150.408C174.243 150.093 174.175 149.856 174.039 149.696C173.905 149.533 173.707 149.452 173.443 149.452C173.269 149.452 173.123 149.475 173.003 149.52C172.885 149.563 172.783 149.612 172.695 149.668C172.609 149.721 172.535 149.771 172.471 149.816C172.409 149.859 172.348 149.88 172.287 149.88C172.239 149.88 172.196 149.868 172.159 149.844C172.124 149.817 172.096 149.785 172.075 149.748L171.947 149.52C172.171 149.304 172.412 149.143 172.671 149.036C172.929 148.929 173.216 148.876 173.531 148.876C173.757 148.876 173.959 148.913 174.135 148.988C174.311 149.063 174.459 149.167 174.579 149.3C174.699 149.433 174.789 149.595 174.851 149.784C174.912 149.973 174.943 150.181 174.943 150.408V153ZM173.095 152.564C173.22 152.564 173.335 152.552 173.439 152.528C173.543 152.501 173.64 152.465 173.731 152.42C173.824 152.372 173.912 152.315 173.995 152.248C174.08 152.181 174.163 152.105 174.243 152.02V151.176C173.915 151.187 173.636 151.213 173.407 151.256C173.177 151.296 172.991 151.349 172.847 151.416C172.703 151.483 172.597 151.561 172.531 151.652C172.467 151.743 172.435 151.844 172.435 151.956C172.435 152.063 172.452 152.155 172.487 152.232C172.521 152.309 172.568 152.373 172.627 152.424C172.685 152.472 172.755 152.508 172.835 152.532C172.915 152.553 173.001 152.564 173.095 152.564ZM177.25 153.064C176.93 153.064 176.683 152.975 176.51 152.796C176.339 152.617 176.254 152.36 176.254 152.024V149.544H175.766C175.723 149.544 175.687 149.532 175.658 149.508C175.628 149.481 175.614 149.441 175.614 149.388V149.104L176.278 149.02L176.442 147.768C176.447 147.728 176.464 147.696 176.493 147.672C176.523 147.645 176.56 147.632 176.606 147.632H176.966V149.028H178.126V149.544H176.966V151.976C176.966 152.147 177.007 152.273 177.09 152.356C177.172 152.439 177.279 152.48 177.41 152.48C177.484 152.48 177.548 152.471 177.602 152.452C177.658 152.431 177.706 152.408 177.746 152.384C177.786 152.36 177.819 152.339 177.846 152.32C177.875 152.299 177.9 152.288 177.922 152.288C177.959 152.288 177.992 152.311 178.022 152.356L178.23 152.696C178.107 152.811 177.959 152.901 177.786 152.968C177.612 153.032 177.434 153.064 177.25 153.064ZM179.798 148.948V153H179.086V148.948H179.798ZM179.958 147.676C179.958 147.745 179.943 147.811 179.914 147.872C179.887 147.931 179.85 147.984 179.802 148.032C179.757 148.077 179.703 148.113 179.642 148.14C179.581 148.167 179.515 148.18 179.446 148.18C179.377 148.18 179.311 148.167 179.25 148.14C179.191 148.113 179.138 148.077 179.09 148.032C179.045 147.984 179.009 147.931 178.982 147.872C178.955 147.811 178.942 147.745 178.942 147.676C178.942 147.607 178.955 147.541 178.982 147.48C179.009 147.416 179.045 147.361 179.09 147.316C179.138 147.268 179.191 147.231 179.25 147.204C179.311 147.177 179.377 147.164 179.446 147.164C179.515 147.164 179.581 147.177 179.642 147.204C179.703 147.231 179.757 147.268 179.802 147.316C179.85 147.361 179.887 147.416 179.914 147.48C179.943 147.541 179.958 147.607 179.958 147.676ZM182.693 148.884C182.989 148.884 183.255 148.933 183.493 149.032C183.733 149.131 183.935 149.271 184.101 149.452C184.269 149.633 184.397 149.853 184.485 150.112C184.575 150.368 184.621 150.655 184.621 150.972C184.621 151.292 184.575 151.58 184.485 151.836C184.397 152.092 184.269 152.311 184.101 152.492C183.935 152.673 183.733 152.813 183.493 152.912C183.255 153.008 182.989 153.056 182.693 153.056C182.397 153.056 182.129 153.008 181.889 152.912C181.651 152.813 181.449 152.673 181.281 152.492C181.113 152.311 180.983 152.092 180.893 151.836C180.802 151.58 180.757 151.292 180.757 150.972C180.757 150.655 180.802 150.368 180.893 150.112C180.983 149.853 181.113 149.633 181.281 149.452C181.449 149.271 181.651 149.131 181.889 149.032C182.129 148.933 182.397 148.884 182.693 148.884ZM182.693 152.5C183.093 152.5 183.391 152.367 183.589 152.1C183.786 151.831 183.885 151.456 183.885 150.976C183.885 150.493 183.786 150.117 183.589 149.848C183.391 149.579 183.093 149.444 182.693 149.444C182.49 149.444 182.314 149.479 182.165 149.548C182.015 149.617 181.89 149.717 181.789 149.848C181.69 149.979 181.615 150.14 181.565 150.332C181.517 150.521 181.493 150.736 181.493 150.976C181.493 151.216 181.517 151.431 181.565 151.62C181.615 151.809 181.69 151.969 181.789 152.1C181.89 152.228 182.015 152.327 182.165 152.396C182.314 152.465 182.49 152.5 182.693 152.5ZM185.498 153V148.948H185.922C186.023 148.948 186.087 148.997 186.114 149.096L186.17 149.536C186.346 149.341 186.542 149.184 186.758 149.064C186.977 148.944 187.229 148.884 187.514 148.884C187.735 148.884 187.93 148.921 188.098 148.996C188.269 149.068 188.41 149.172 188.522 149.308C188.637 149.441 188.723 149.603 188.782 149.792C188.841 149.981 188.87 150.191 188.87 150.42V153H188.158V150.42C188.158 150.113 188.087 149.876 187.946 149.708C187.807 149.537 187.594 149.452 187.306 149.452C187.095 149.452 186.898 149.503 186.714 149.604C186.533 149.705 186.365 149.843 186.21 150.016V153H185.498Z" fill="black"/>
<path d="M104.533 31.48V36H102.381V24.432H105.909C106.698 24.432 107.373 24.5147 107.933 24.68C108.498 24.84 108.959 25.0667 109.317 25.36C109.679 25.6533 109.943 26.0053 110.109 26.416C110.279 26.8213 110.365 27.2693 110.365 27.76C110.365 28.1493 110.306 28.5173 110.189 28.864C110.077 29.2107 109.911 29.5253 109.693 29.808C109.479 30.0907 109.213 30.3387 108.893 30.552C108.578 30.7653 108.218 30.936 107.813 31.064C108.085 31.2187 108.319 31.44 108.517 31.728L111.413 36H109.477C109.29 36 109.13 35.9627 108.997 35.888C108.869 35.8133 108.759 35.7067 108.669 35.568L106.237 31.864C106.146 31.7253 106.045 31.6267 105.933 31.568C105.826 31.5093 105.666 31.48 105.453 31.48H104.533ZM104.533 29.936H105.877C106.282 29.936 106.634 29.8853 106.933 29.784C107.237 29.6827 107.485 29.544 107.677 29.368C107.874 29.1867 108.021 28.9733 108.117 28.728C108.213 28.4827 108.261 28.2133 108.261 27.92C108.261 27.3333 108.066 26.8827 107.677 26.568C107.293 26.2533 106.703 26.096 105.909 26.096H104.533V29.936ZM116.073 27.664C116.59 27.664 117.065 27.7467 117.497 27.912C117.934 28.0773 118.31 28.32 118.625 28.64C118.94 28.9547 119.185 29.344 119.361 29.808C119.537 30.2667 119.625 30.792 119.625 31.384C119.625 31.5333 119.617 31.6587 119.601 31.76C119.59 31.856 119.566 31.9333 119.529 31.992C119.497 32.0453 119.452 32.0853 119.393 32.112C119.334 32.1333 119.26 32.144 119.169 32.144H114.097C114.156 32.9867 114.382 33.6053 114.777 34C115.172 34.3947 115.694 34.592 116.345 34.592C116.665 34.592 116.94 34.5547 117.169 34.48C117.404 34.4053 117.606 34.3227 117.777 34.232C117.953 34.1413 118.105 34.0587 118.233 33.984C118.366 33.9093 118.494 33.872 118.617 33.872C118.697 33.872 118.766 33.888 118.825 33.92C118.884 33.952 118.934 33.9973 118.977 34.056L119.553 34.776C119.334 35.032 119.089 35.248 118.817 35.424C118.545 35.5947 118.26 35.7333 117.961 35.84C117.668 35.9413 117.366 36.0133 117.057 36.056C116.753 36.0987 116.457 36.12 116.169 36.12C115.598 36.12 115.068 36.0267 114.577 35.84C114.086 35.648 113.66 35.368 113.297 35C112.934 34.6267 112.649 34.168 112.441 33.624C112.233 33.0747 112.129 32.44 112.129 31.72C112.129 31.16 112.22 30.6347 112.401 30.144C112.582 29.648 112.841 29.2187 113.177 28.856C113.518 28.488 113.932 28.1973 114.417 27.984C114.908 27.7707 115.46 27.664 116.073 27.664ZM116.113 29.08C115.537 29.08 115.086 29.2427 114.761 29.568C114.436 29.8933 114.228 30.3547 114.137 30.952H117.849C117.849 30.696 117.814 30.456 117.745 30.232C117.676 30.0027 117.569 29.8027 117.425 29.632C117.281 29.4613 117.1 29.328 116.881 29.232C116.662 29.1307 116.406 29.08 116.113 29.08ZM124.068 27.648C124.42 27.648 124.751 27.6853 125.06 27.76C125.369 27.8293 125.652 27.9333 125.908 28.072H128.268V28.808C128.268 28.9307 128.236 29.0267 128.172 29.096C128.108 29.1653 127.999 29.2133 127.844 29.24L127.108 29.376C127.161 29.5147 127.201 29.6613 127.228 29.816C127.26 29.9707 127.276 30.1333 127.276 30.304C127.276 30.7093 127.193 31.0773 127.028 31.408C126.868 31.7333 126.644 32.0107 126.356 32.24C126.073 32.4693 125.735 32.648 125.34 32.776C124.951 32.8987 124.527 32.96 124.068 32.96C123.759 32.96 123.457 32.9307 123.164 32.872C122.908 33.0267 122.78 33.2 122.78 33.392C122.78 33.5573 122.855 33.68 123.004 33.76C123.159 33.8347 123.359 33.888 123.604 33.92C123.855 33.952 124.137 33.9733 124.452 33.984C124.767 33.9893 125.089 34.0053 125.42 34.032C125.751 34.0587 126.073 34.1067 126.388 34.176C126.703 34.24 126.983 34.344 127.228 34.488C127.479 34.632 127.679 34.8293 127.828 35.08C127.983 35.3253 128.06 35.6427 128.06 36.032C128.06 36.3947 127.969 36.7467 127.788 37.088C127.612 37.4293 127.353 37.7333 127.012 38C126.676 38.2667 126.263 38.48 125.772 38.64C125.281 38.8053 124.721 38.888 124.092 38.888C123.468 38.888 122.927 38.8267 122.468 38.704C122.009 38.5867 121.628 38.4267 121.324 38.224C121.025 38.0267 120.801 37.7973 120.652 37.536C120.503 37.2747 120.428 37.0027 120.428 36.72C120.428 36.336 120.545 36.0133 120.78 35.752C121.015 35.4907 121.34 35.2827 121.756 35.128C121.553 35.016 121.391 34.8667 121.268 34.68C121.145 34.4933 121.084 34.2507 121.084 33.952C121.084 33.8293 121.105 33.704 121.148 33.576C121.191 33.4427 121.255 33.312 121.34 33.184C121.431 33.056 121.543 32.936 121.676 32.824C121.809 32.7067 121.967 32.6027 122.148 32.512C121.732 32.288 121.404 31.9893 121.164 31.616C120.929 31.2427 120.812 30.8053 120.812 30.304C120.812 29.8987 120.892 29.5333 121.052 29.208C121.217 28.8773 121.444 28.5973 121.732 28.368C122.025 28.1333 122.369 27.9547 122.764 27.832C123.164 27.7093 123.599 27.648 124.068 27.648ZM126.236 36.368C126.236 36.208 126.188 36.0773 126.092 35.976C125.996 35.8747 125.865 35.7973 125.7 35.744C125.535 35.6853 125.34 35.6427 125.116 35.616C124.897 35.5893 124.663 35.5707 124.412 35.56C124.167 35.544 123.911 35.5307 123.644 35.52C123.383 35.504 123.129 35.48 122.884 35.448C122.66 35.5707 122.479 35.7173 122.34 35.888C122.207 36.0533 122.14 36.2453 122.14 36.464C122.14 36.608 122.175 36.7413 122.244 36.864C122.319 36.992 122.433 37.1013 122.588 37.192C122.748 37.2827 122.953 37.352 123.204 37.4C123.455 37.4533 123.761 37.48 124.124 37.48C124.492 37.48 124.809 37.4507 125.076 37.392C125.343 37.3387 125.561 37.2613 125.732 37.16C125.908 37.064 126.036 36.9467 126.116 36.808C126.196 36.6747 126.236 36.528 126.236 36.368ZM124.068 31.696C124.313 31.696 124.527 31.664 124.708 31.6C124.889 31.5307 125.039 31.4373 125.156 31.32C125.279 31.2027 125.369 31.0613 125.428 30.896C125.492 30.7307 125.524 30.5493 125.524 30.352C125.524 29.9467 125.401 29.6267 125.156 29.392C124.916 29.152 124.553 29.032 124.068 29.032C123.583 29.032 123.217 29.152 122.972 29.392C122.732 29.6267 122.612 29.9467 122.612 30.352C122.612 30.544 122.641 30.7227 122.7 30.888C122.764 31.0533 122.855 31.1973 122.972 31.32C123.095 31.4373 123.247 31.5307 123.428 31.6C123.615 31.664 123.828 31.696 124.068 31.696ZM131.613 27.792V36H129.637V27.792H131.613ZM131.909 25.4C131.909 25.5707 131.874 25.7307 131.805 25.88C131.736 26.0293 131.642 26.16 131.525 26.272C131.413 26.384 131.28 26.4747 131.125 26.544C130.97 26.608 130.805 26.64 130.629 26.64C130.458 26.64 130.296 26.608 130.141 26.544C129.992 26.4747 129.861 26.384 129.749 26.272C129.637 26.16 129.546 26.0293 129.477 25.88C129.413 25.7307 129.381 25.5707 129.381 25.4C129.381 25.224 129.413 25.0587 129.477 24.904C129.546 24.7493 129.637 24.616 129.749 24.504C129.861 24.392 129.992 24.304 130.141 24.24C130.296 24.1707 130.458 24.136 130.629 24.136C130.805 24.136 130.97 24.1707 131.125 24.24C131.28 24.304 131.413 24.392 131.525 24.504C131.642 24.616 131.736 24.7493 131.805 24.904C131.874 25.0587 131.909 25.224 131.909 25.4ZM138.725 29.392C138.672 29.4773 138.616 29.5387 138.557 29.576C138.498 29.608 138.424 29.624 138.333 29.624C138.237 29.624 138.133 29.5973 138.021 29.544C137.914 29.4907 137.789 29.432 137.645 29.368C137.501 29.2987 137.336 29.2373 137.149 29.184C136.968 29.1307 136.752 29.104 136.501 29.104C136.112 29.104 135.805 29.1867 135.581 29.352C135.357 29.5173 135.245 29.7333 135.245 30C135.245 30.176 135.301 30.3253 135.413 30.448C135.53 30.5653 135.682 30.6693 135.869 30.76C136.061 30.8507 136.277 30.9333 136.517 31.008C136.757 31.0773 137.002 31.1547 137.253 31.24C137.504 31.3253 137.749 31.424 137.989 31.536C138.229 31.6427 138.442 31.7813 138.629 31.952C138.821 32.1173 138.973 32.3173 139.085 32.552C139.202 32.7867 139.261 33.0693 139.261 33.4C139.261 33.7947 139.189 34.16 139.045 34.496C138.901 34.8267 138.69 35.1147 138.413 35.36C138.136 35.6 137.792 35.7893 137.381 35.928C136.976 36.0613 136.509 36.128 135.981 36.128C135.698 36.128 135.421 36.1013 135.149 36.048C134.882 36 134.624 35.9307 134.373 35.84C134.128 35.7493 133.898 35.6427 133.685 35.52C133.477 35.3973 133.293 35.264 133.133 35.12L133.589 34.368C133.648 34.2773 133.717 34.208 133.797 34.16C133.877 34.112 133.978 34.088 134.101 34.088C134.224 34.088 134.338 34.1227 134.445 34.192C134.557 34.2613 134.685 34.336 134.829 34.416C134.973 34.496 135.141 34.5707 135.333 34.64C135.53 34.7093 135.778 34.744 136.077 34.744C136.312 34.744 136.512 34.7173 136.677 34.664C136.848 34.6053 136.986 34.5307 137.093 34.44C137.205 34.3493 137.285 34.2453 137.333 34.128C137.386 34.0053 137.413 33.88 137.413 33.752C137.413 33.56 137.354 33.4027 137.237 33.28C137.125 33.1573 136.973 33.0507 136.781 32.96C136.594 32.8693 136.378 32.7893 136.133 32.72C135.893 32.6453 135.645 32.5653 135.389 32.48C135.138 32.3947 134.89 32.296 134.645 32.184C134.405 32.0667 134.189 31.92 133.997 31.744C133.81 31.568 133.658 31.352 133.541 31.096C133.429 30.84 133.373 30.5307 133.373 30.168C133.373 29.832 133.44 29.512 133.573 29.208C133.706 28.904 133.901 28.64 134.157 28.416C134.418 28.1867 134.741 28.0053 135.125 27.872C135.514 27.7333 135.962 27.664 136.469 27.664C137.034 27.664 137.549 27.7573 138.013 27.944C138.477 28.1307 138.864 28.376 139.173 28.68L138.725 29.392ZM143.533 36.128C142.824 36.128 142.277 35.928 141.893 35.528C141.509 35.1227 141.317 34.5653 141.317 33.856V29.272H140.485C140.379 29.272 140.285 29.2373 140.205 29.168C140.131 29.0987 140.093 28.9947 140.093 28.856V28.072L141.413 27.856L141.829 25.616C141.851 25.5093 141.899 25.4267 141.973 25.368C142.053 25.3093 142.152 25.28 142.269 25.28H143.293V27.864H145.453V29.272H143.293V33.72C143.293 33.976 143.357 34.176 143.485 34.32C143.613 34.464 143.784 34.536 143.997 34.536C144.12 34.536 144.221 34.5227 144.301 34.496C144.387 34.464 144.459 34.432 144.517 34.4C144.581 34.368 144.637 34.3387 144.685 34.312C144.733 34.28 144.781 34.264 144.829 34.264C144.888 34.264 144.936 34.28 144.973 34.312C145.011 34.3387 145.051 34.3813 145.093 34.44L145.685 35.4C145.397 35.64 145.067 35.8213 144.693 35.944C144.32 36.0667 143.933 36.128 143.533 36.128ZM150.417 27.664C150.934 27.664 151.409 27.7467 151.841 27.912C152.278 28.0773 152.654 28.32 152.969 28.64C153.283 28.9547 153.529 29.344 153.705 29.808C153.881 30.2667 153.969 30.792 153.969 31.384C153.969 31.5333 153.961 31.6587 153.945 31.76C153.934 31.856 153.91 31.9333 153.873 31.992C153.841 32.0453 153.795 32.0853 153.737 32.112C153.678 32.1333 153.603 32.144 153.513 32.144H148.441C148.499 32.9867 148.726 33.6053 149.121 34C149.515 34.3947 150.038 34.592 150.689 34.592C151.009 34.592 151.283 34.5547 151.513 34.48C151.747 34.4053 151.95 34.3227 152.121 34.232C152.297 34.1413 152.449 34.0587 152.577 33.984C152.71 33.9093 152.838 33.872 152.961 33.872C153.041 33.872 153.11 33.888 153.169 33.92C153.227 33.952 153.278 33.9973 153.321 34.056L153.897 34.776C153.678 35.032 153.433 35.248 153.161 35.424C152.889 35.5947 152.603 35.7333 152.305 35.84C152.011 35.9413 151.71 36.0133 151.401 36.056C151.097 36.0987 150.801 36.12 150.513 36.12C149.942 36.12 149.411 36.0267 148.921 35.84C148.43 35.648 148.003 35.368 147.641 35C147.278 34.6267 146.993 34.168 146.785 33.624C146.577 33.0747 146.473 32.44 146.473 31.72C146.473 31.16 146.563 30.6347 146.745 30.144C146.926 29.648 147.185 29.2187 147.521 28.856C147.862 28.488 148.275 28.1973 148.761 27.984C149.251 27.7707 149.803 27.664 150.417 27.664ZM150.457 29.08C149.881 29.08 149.43 29.2427 149.105 29.568C148.779 29.8933 148.571 30.3547 148.481 30.952H152.193C152.193 30.696 152.158 30.456 152.089 30.232C152.019 30.0027 151.913 29.8027 151.769 29.632C151.625 29.4613 151.443 29.328 151.225 29.232C151.006 29.1307 150.75 29.08 150.457 29.08ZM155.572 36V27.792H156.732C156.934 27.792 157.076 27.8293 157.156 27.904C157.236 27.9787 157.289 28.1067 157.316 28.288L157.436 29.28C157.729 28.7733 158.073 28.3733 158.468 28.08C158.862 27.7867 159.305 27.64 159.796 27.64C160.201 27.64 160.537 27.7333 160.804 27.92L160.548 29.4C160.532 29.496 160.497 29.5653 160.444 29.608C160.39 29.6453 160.318 29.664 160.228 29.664C160.148 29.664 160.038 29.6453 159.9 29.608C159.761 29.5707 159.577 29.552 159.348 29.552C158.937 29.552 158.585 29.6667 158.292 29.896C157.998 30.12 157.75 30.4507 157.548 30.888V36H155.572ZM175.069 36H172.901V30.944H167.477V36H165.309V24.432H167.477V29.408H172.901V24.432H175.069V36ZM180.682 27.664C181.2 27.664 181.674 27.7467 182.106 27.912C182.544 28.0773 182.92 28.32 183.234 28.64C183.549 28.9547 183.794 29.344 183.97 29.808C184.146 30.2667 184.234 30.792 184.234 31.384C184.234 31.5333 184.226 31.6587 184.21 31.76C184.2 31.856 184.176 31.9333 184.138 31.992C184.106 32.0453 184.061 32.0853 184.002 32.112C183.944 32.1333 183.869 32.144 183.778 32.144H178.706C178.765 32.9867 178.992 33.6053 179.386 34C179.781 34.3947 180.304 34.592 180.954 34.592C181.274 34.592 181.549 34.5547 181.778 34.48C182.013 34.4053 182.216 34.3227 182.386 34.232C182.562 34.1413 182.714 34.0587 182.842 33.984C182.976 33.9093 183.104 33.872 183.226 33.872C183.306 33.872 183.376 33.888 183.434 33.92C183.493 33.952 183.544 33.9973 183.586 34.056L184.162 34.776C183.944 35.032 183.698 35.248 183.426 35.424C183.154 35.5947 182.869 35.7333 182.57 35.84C182.277 35.9413 181.976 36.0133 181.666 36.056C181.362 36.0987 181.066 36.12 180.778 36.12C180.208 36.12 179.677 36.0267 179.186 35.84C178.696 35.648 178.269 35.368 177.906 35C177.544 34.6267 177.258 34.168 177.05 33.624C176.842 33.0747 176.738 32.44 176.738 31.72C176.738 31.16 176.829 30.6347 177.01 30.144C177.192 29.648 177.45 29.2187 177.786 28.856C178.128 28.488 178.541 28.1973 179.026 27.984C179.517 27.7707 180.069 27.664 180.682 27.664ZM180.722 29.08C180.146 29.08 179.696 29.2427 179.37 29.568C179.045 29.8933 178.837 30.3547 178.746 30.952H182.458C182.458 30.696 182.424 30.456 182.354 30.232C182.285 30.0027 182.178 29.8027 182.034 29.632C181.89 29.4613 181.709 29.328 181.49 29.232C181.272 29.1307 181.016 29.08 180.722 29.08ZM185.837 36V27.792H186.997C187.2 27.792 187.341 27.8293 187.421 27.904C187.501 27.9787 187.555 28.1067 187.581 28.288L187.701 29.28C187.995 28.7733 188.339 28.3733 188.733 28.08C189.128 27.7867 189.571 27.64 190.061 27.64C190.467 27.64 190.803 27.7333 191.069 27.92L190.813 29.4C190.797 29.496 190.763 29.5653 190.709 29.608C190.656 29.6453 190.584 29.664 190.493 29.664C190.413 29.664 190.304 29.6453 190.165 29.608C190.027 29.5707 189.843 29.552 189.613 29.552C189.203 29.552 188.851 29.6667 188.557 29.896C188.264 30.12 188.016 30.4507 187.813 30.888V36H185.837ZM195.761 27.664C196.278 27.664 196.753 27.7467 197.185 27.912C197.622 28.0773 197.998 28.32 198.313 28.64C198.627 28.9547 198.873 29.344 199.049 29.808C199.225 30.2667 199.312 30.792 199.312 31.384C199.312 31.5333 199.305 31.6587 199.289 31.76C199.278 31.856 199.254 31.9333 199.217 31.992C199.185 32.0453 199.139 32.0853 199.081 32.112C199.022 32.1333 198.947 32.144 198.857 32.144H193.785C193.843 32.9867 194.07 33.6053 194.465 34C194.859 34.3947 195.382 34.592 196.033 34.592C196.353 34.592 196.627 34.5547 196.857 34.48C197.091 34.4053 197.294 34.3227 197.465 34.232C197.641 34.1413 197.793 34.0587 197.921 33.984C198.054 33.9093 198.182 33.872 198.305 33.872C198.385 33.872 198.454 33.888 198.513 33.92C198.571 33.952 198.622 33.9973 198.665 34.056L199.241 34.776C199.022 35.032 198.777 35.248 198.505 35.424C198.233 35.5947 197.947 35.7333 197.649 35.84C197.355 35.9413 197.054 36.0133 196.745 36.056C196.441 36.0987 196.145 36.12 195.857 36.12C195.286 36.12 194.755 36.0267 194.265 35.84C193.774 35.648 193.347 35.368 192.985 35C192.622 34.6267 192.337 34.168 192.129 33.624C191.921 33.0747 191.817 32.44 191.817 31.72C191.817 31.16 191.907 30.6347 192.089 30.144C192.27 29.648 192.529 29.2187 192.865 28.856C193.206 28.488 193.619 28.1973 194.105 27.984C194.595 27.7707 195.147 27.664 195.761 27.664ZM195.801 29.08C195.225 29.08 194.774 29.2427 194.449 29.568C194.123 29.8933 193.915 30.3547 193.825 30.952H197.537C197.537 30.696 197.502 30.456 197.433 30.232C197.363 30.0027 197.257 29.8027 197.113 29.632C196.969 29.4613 196.787 29.328 196.569 29.232C196.35 29.1307 196.094 29.08 195.801 29.08Z" fill="white"/>
</svg>
