<svg width="300" height="180" viewBox="0 0 300 180" fill="none" xmlns="http://www.w3.org/2000/svg">
<g clip-path="url(#clip0_1368_874)">
<rect width="300" height="180" fill="#DADADA"/>
<path d="M117.043 33V25.8633H114.494V24.4102H121.32V25.8633H118.777V33H117.043ZM125.146 31.0195L126.787 31.2949C126.576 31.8965 126.242 32.3555 125.785 32.6719C125.332 32.9844 124.764 33.1406 124.08 33.1406C122.998 33.1406 122.197 32.7871 121.678 32.0801C121.268 31.5137 121.062 30.7988 121.062 29.9355C121.062 28.9043 121.332 28.0977 121.871 27.5156C122.41 26.9297 123.092 26.6367 123.916 26.6367C124.842 26.6367 125.572 26.9434 126.107 27.5566C126.643 28.166 126.898 29.1016 126.875 30.3633H122.75C122.762 30.8516 122.895 31.2324 123.148 31.5059C123.402 31.7754 123.719 31.9102 124.098 31.9102C124.355 31.9102 124.572 31.8398 124.748 31.6992C124.924 31.5586 125.057 31.332 125.146 31.0195ZM125.24 29.3555C125.229 28.8789 125.105 28.5176 124.871 28.2715C124.637 28.0215 124.352 27.8965 124.016 27.8965C123.656 27.8965 123.359 28.0273 123.125 28.2891C122.891 28.5508 122.775 28.9062 122.779 29.3555H125.24ZM127.643 31.2246L129.295 30.9727C129.365 31.293 129.508 31.5371 129.723 31.7051C129.938 31.8691 130.238 31.9512 130.625 31.9512C131.051 31.9512 131.371 31.873 131.586 31.7168C131.73 31.6074 131.803 31.4609 131.803 31.2773C131.803 31.1523 131.764 31.0488 131.686 30.9668C131.604 30.8887 131.42 30.8164 131.135 30.75C129.807 30.457 128.965 30.1895 128.609 29.9473C128.117 29.6113 127.871 29.1445 127.871 28.5469C127.871 28.0078 128.084 27.5547 128.51 27.1875C128.936 26.8203 129.596 26.6367 130.49 26.6367C131.342 26.6367 131.975 26.7754 132.389 27.0527C132.803 27.3301 133.088 27.7402 133.244 28.2832L131.691 28.5703C131.625 28.3281 131.498 28.1426 131.311 28.0137C131.127 27.8848 130.863 27.8203 130.52 27.8203C130.086 27.8203 129.775 27.8809 129.588 28.002C129.463 28.0879 129.4 28.1992 129.4 28.3359C129.4 28.4531 129.455 28.5527 129.564 28.6348C129.713 28.7441 130.225 28.8984 131.1 29.0977C131.979 29.2969 132.592 29.541 132.939 29.8301C133.283 30.123 133.455 30.5312 133.455 31.0547C133.455 31.625 133.217 32.1152 132.74 32.5254C132.264 32.9355 131.559 33.1406 130.625 33.1406C129.777 33.1406 129.105 32.9688 128.609 32.625C128.117 32.2812 127.795 31.8145 127.643 31.2246ZM137.756 26.7773V28.0898H136.631V30.5977C136.631 31.1055 136.641 31.4023 136.66 31.4883C136.684 31.5703 136.732 31.6387 136.807 31.6934C136.885 31.748 136.979 31.7754 137.088 31.7754C137.24 31.7754 137.461 31.7227 137.75 31.6172L137.891 32.8945C137.508 33.0586 137.074 33.1406 136.59 33.1406C136.293 33.1406 136.025 33.0918 135.787 32.9941C135.549 32.8926 135.373 32.7637 135.26 32.6074C135.15 32.4473 135.074 32.2324 135.031 31.9629C134.996 31.7715 134.979 31.3848 134.979 30.8027V28.0898H134.223V26.7773H134.979V25.541L136.631 24.5801V26.7773H137.756ZM138.898 25.9336V24.4102H140.545V25.9336H138.898ZM138.898 33V26.7773H140.545V33H138.898ZM142.115 26.7773H143.633V27.627C144.176 26.9668 144.822 26.6367 145.572 26.6367C145.971 26.6367 146.316 26.7188 146.609 26.8828C146.902 27.0469 147.143 27.2949 147.33 27.627C147.604 27.2949 147.898 27.0469 148.215 26.8828C148.531 26.7188 148.869 26.6367 149.229 26.6367C149.686 26.6367 150.072 26.7305 150.389 26.918C150.705 27.1016 150.941 27.373 151.098 27.7324C151.211 27.998 151.268 28.4277 151.268 29.0215V33H149.621V29.4434C149.621 28.8262 149.564 28.4277 149.451 28.248C149.299 28.0137 149.064 27.8965 148.748 27.8965C148.518 27.8965 148.301 27.9668 148.098 28.1074C147.895 28.248 147.748 28.4551 147.658 28.7285C147.568 28.998 147.523 29.4258 147.523 30.0117V33H145.877V29.5898C145.877 28.9844 145.848 28.5938 145.789 28.418C145.73 28.2422 145.639 28.1113 145.514 28.0254C145.393 27.9395 145.227 27.8965 145.016 27.8965C144.762 27.8965 144.533 27.9648 144.33 28.1016C144.127 28.2383 143.98 28.4355 143.891 28.6934C143.805 28.9512 143.762 29.3789 143.762 29.9766V33H142.115V26.7773ZM152.533 29.8008C152.533 29.2539 152.668 28.7246 152.938 28.2129C153.207 27.7012 153.588 27.3105 154.08 27.041C154.576 26.7715 155.129 26.6367 155.738 26.6367C156.68 26.6367 157.451 26.9434 158.053 27.5566C158.654 28.166 158.955 28.9375 158.955 29.8711C158.955 30.8125 158.65 31.5938 158.041 32.2148C157.436 32.832 156.672 33.1406 155.75 33.1406C155.18 33.1406 154.635 33.0117 154.115 32.7539C153.6 32.4961 153.207 32.1191 152.938 31.623C152.668 31.123 152.533 30.5156 152.533 29.8008ZM154.221 29.8887C154.221 30.5059 154.367 30.9785 154.66 31.3066C154.953 31.6348 155.314 31.7988 155.744 31.7988C156.174 31.7988 156.533 31.6348 156.822 31.3066C157.115 30.9785 157.262 30.502 157.262 29.877C157.262 29.2676 157.115 28.7988 156.822 28.4707C156.533 28.1426 156.174 27.9785 155.744 27.9785C155.314 27.9785 154.953 28.1426 154.66 28.4707C154.367 28.7988 154.221 29.2715 154.221 29.8887ZM165.91 33H164.264V29.8242C164.264 29.1523 164.229 28.7188 164.158 28.5234C164.088 28.3242 163.973 28.1699 163.812 28.0605C163.656 27.9512 163.467 27.8965 163.244 27.8965C162.959 27.8965 162.703 27.9746 162.477 28.1309C162.25 28.2871 162.094 28.4941 162.008 28.752C161.926 29.0098 161.885 29.4863 161.885 30.1816V33H160.238V26.7773H161.768V27.6914C162.311 26.9883 162.994 26.6367 163.818 26.6367C164.182 26.6367 164.514 26.7031 164.814 26.8359C165.115 26.9648 165.342 27.1309 165.494 27.334C165.65 27.5371 165.758 27.7676 165.816 28.0254C165.879 28.2832 165.91 28.6523 165.91 29.1328V33ZM167.586 25.9336V24.4102H169.232V25.9336H167.586ZM167.586 33V26.7773H169.232V33H167.586ZM172.156 28.6758L170.662 28.4062C170.83 27.8047 171.119 27.3594 171.529 27.0703C171.939 26.7812 172.549 26.6367 173.357 26.6367C174.092 26.6367 174.639 26.7246 174.998 26.9004C175.357 27.0723 175.609 27.293 175.754 27.5625C175.902 27.8281 175.977 28.3184 175.977 29.0332L175.959 30.9551C175.959 31.502 175.984 31.9062 176.035 32.168C176.09 32.4258 176.189 32.7031 176.334 33H174.705C174.662 32.8906 174.609 32.7285 174.547 32.5137C174.52 32.416 174.5 32.3516 174.488 32.3203C174.207 32.5938 173.906 32.7988 173.586 32.9355C173.266 33.0723 172.924 33.1406 172.561 33.1406C171.92 33.1406 171.414 32.9668 171.043 32.6191C170.676 32.2715 170.492 31.832 170.492 31.3008C170.492 30.9492 170.576 30.6367 170.744 30.3633C170.912 30.0859 171.146 29.875 171.447 29.7305C171.752 29.582 172.189 29.4531 172.76 29.3438C173.529 29.1992 174.062 29.0645 174.359 28.9395V28.7754C174.359 28.459 174.281 28.2344 174.125 28.1016C173.969 27.9648 173.674 27.8965 173.24 27.8965C172.947 27.8965 172.719 27.9551 172.555 28.0723C172.391 28.1855 172.258 28.3867 172.156 28.6758ZM174.359 30.0117C174.148 30.082 173.814 30.166 173.357 30.2637C172.9 30.3613 172.602 30.457 172.461 30.5508C172.246 30.7031 172.139 30.8965 172.139 31.1309C172.139 31.3613 172.225 31.5605 172.396 31.7285C172.568 31.8965 172.787 31.9805 173.053 31.9805C173.35 31.9805 173.633 31.8828 173.902 31.6875C174.102 31.5391 174.232 31.3574 174.295 31.1426C174.338 31.002 174.359 30.7344 174.359 30.3398V30.0117ZM177.605 33V24.4102H179.252V33H177.605ZM180.365 31.2246L182.018 30.9727C182.088 31.293 182.23 31.5371 182.445 31.7051C182.66 31.8691 182.961 31.9512 183.348 31.9512C183.773 31.9512 184.094 31.873 184.309 31.7168C184.453 31.6074 184.525 31.4609 184.525 31.2773C184.525 31.1523 184.486 31.0488 184.408 30.9668C184.326 30.8887 184.143 30.8164 183.857 30.75C182.529 30.457 181.688 30.1895 181.332 29.9473C180.84 29.6113 180.594 29.1445 180.594 28.5469C180.594 28.0078 180.807 27.5547 181.232 27.1875C181.658 26.8203 182.318 26.6367 183.213 26.6367C184.064 26.6367 184.697 26.7754 185.111 27.0527C185.525 27.3301 185.811 27.7402 185.967 28.2832L184.414 28.5703C184.348 28.3281 184.221 28.1426 184.033 28.0137C183.85 27.8848 183.586 27.8203 183.242 27.8203C182.809 27.8203 182.498 27.8809 182.311 28.002C182.186 28.0879 182.123 28.1992 182.123 28.3359C182.123 28.4531 182.178 28.5527 182.287 28.6348C182.436 28.7441 182.947 28.8984 183.822 29.0977C184.701 29.2969 185.314 29.541 185.662 29.8301C186.006 30.123 186.178 30.5312 186.178 31.0547C186.178 31.625 185.939 32.1152 185.463 32.5254C184.986 32.9355 184.281 33.1406 183.348 33.1406C182.5 33.1406 181.828 32.9688 181.332 32.625C180.84 32.2812 180.518 31.8145 180.365 31.2246Z" fill="black"/>
<g filter="url(#filter0_d_1368_874)">
<rect x="29" y="46" width="240" height="104" fill="white"/>
</g>
<g filter="url(#filter1_d_1368_874)">
<rect x="29" y="160" width="240" height="104" fill="white"/>
</g>
<path d="M85.8047 76.7891V74.8594H90.7891V79.4219C90.3047 79.8906 89.6016 80.3047 88.6797 80.6641C87.763 81.0182 86.8333 81.1953 85.8906 81.1953C84.6927 81.1953 83.6484 80.9453 82.7578 80.4453C81.8672 79.9401 81.1979 79.2214 80.75 78.2891C80.3021 77.3516 80.0781 76.3333 80.0781 75.2344C80.0781 74.0417 80.3281 72.9818 80.8281 72.0547C81.3281 71.1276 82.0599 70.4167 83.0234 69.9219C83.7578 69.5417 84.6719 69.3516 85.7656 69.3516C87.1875 69.3516 88.2969 69.651 89.0938 70.25C89.8958 70.8438 90.4115 71.6667 90.6406 72.7188L88.3438 73.1484C88.1823 72.5859 87.8776 72.1432 87.4297 71.8203C86.987 71.4922 86.4323 71.3281 85.7656 71.3281C84.7552 71.3281 83.9505 71.6484 83.3516 72.2891C82.7578 72.9297 82.4609 73.8802 82.4609 75.1406C82.4609 76.5 82.763 77.5208 83.3672 78.2031C83.9714 78.8802 84.763 79.2188 85.7422 79.2188C86.2266 79.2188 86.7109 79.125 87.1953 78.9375C87.6849 78.7448 88.1042 78.513 88.4531 78.2422V76.7891H85.8047ZM95.0156 81H92.8203V72.7031H94.8594V73.8828C95.2083 73.3255 95.5208 72.9583 95.7969 72.7812C96.0781 72.6042 96.3958 72.5156 96.75 72.5156C97.25 72.5156 97.7318 72.6536 98.1953 72.9297L97.5156 74.8438C97.1458 74.6042 96.8021 74.4844 96.4844 74.4844C96.1771 74.4844 95.9167 74.5703 95.7031 74.7422C95.4896 74.9089 95.3203 75.2135 95.1953 75.6562C95.0755 76.099 95.0156 77.026 95.0156 78.4375V81ZM103.953 78.3594L106.141 78.7266C105.859 79.5286 105.414 80.1406 104.805 80.5625C104.201 80.9792 103.443 81.1875 102.531 81.1875C101.089 81.1875 100.021 80.7161 99.3281 79.7734C98.7812 79.0182 98.5078 78.0651 98.5078 76.9141C98.5078 75.5391 98.8672 74.4635 99.5859 73.6875C100.305 72.9062 101.214 72.5156 102.312 72.5156C103.547 72.5156 104.521 72.9245 105.234 73.7422C105.948 74.5547 106.289 75.8021 106.258 77.4844H100.758C100.773 78.1354 100.951 78.6432 101.289 79.0078C101.628 79.3672 102.049 79.5469 102.555 79.5469C102.898 79.5469 103.188 79.4531 103.422 79.2656C103.656 79.0781 103.833 78.776 103.953 78.3594ZM104.078 76.1406C104.062 75.5052 103.898 75.0234 103.586 74.6953C103.273 74.362 102.893 74.1953 102.445 74.1953C101.966 74.1953 101.57 74.3698 101.258 74.7188C100.945 75.0677 100.792 75.5417 100.797 76.1406H104.078ZM109.695 75.2344L107.703 74.875C107.927 74.0729 108.312 73.4792 108.859 73.0938C109.406 72.7083 110.219 72.5156 111.297 72.5156C112.276 72.5156 113.005 72.6328 113.484 72.8672C113.964 73.0964 114.299 73.3906 114.492 73.75C114.69 74.1042 114.789 74.7578 114.789 75.7109L114.766 78.2734C114.766 79.0026 114.799 79.5417 114.867 79.8906C114.94 80.2344 115.073 80.6042 115.266 81H113.094C113.036 80.8542 112.966 80.638 112.883 80.3516C112.846 80.2214 112.82 80.1354 112.805 80.0938C112.43 80.4583 112.029 80.7318 111.602 80.9141C111.174 81.0964 110.719 81.1875 110.234 81.1875C109.38 81.1875 108.706 80.9557 108.211 80.4922C107.721 80.0286 107.477 79.4427 107.477 78.7344C107.477 78.2656 107.589 77.849 107.812 77.4844C108.036 77.1146 108.349 76.8333 108.75 76.6406C109.156 76.4427 109.74 76.2708 110.5 76.125C111.526 75.9323 112.237 75.7526 112.633 75.5859V75.3672C112.633 74.9453 112.529 74.6458 112.32 74.4688C112.112 74.2865 111.719 74.1953 111.141 74.1953C110.75 74.1953 110.445 74.2734 110.227 74.4297C110.008 74.5807 109.831 74.849 109.695 75.2344ZM112.633 77.0156C112.352 77.1094 111.906 77.2214 111.297 77.3516C110.688 77.4818 110.289 77.6094 110.102 77.7344C109.815 77.9375 109.672 78.1953 109.672 78.5078C109.672 78.8151 109.786 79.0807 110.016 79.3047C110.245 79.5286 110.536 79.6406 110.891 79.6406C111.286 79.6406 111.664 79.5104 112.023 79.25C112.289 79.0521 112.464 78.8099 112.547 78.5234C112.604 78.3359 112.633 77.9792 112.633 77.4531V77.0156ZM120.766 72.7031V74.4531H119.266V77.7969C119.266 78.474 119.279 78.8698 119.305 78.9844C119.336 79.0938 119.401 79.1849 119.5 79.2578C119.604 79.3307 119.729 79.3672 119.875 79.3672C120.078 79.3672 120.372 79.2969 120.758 79.1562L120.945 80.8594C120.435 81.0781 119.857 81.1875 119.211 81.1875C118.815 81.1875 118.458 81.1224 118.141 80.9922C117.823 80.8568 117.589 80.6849 117.438 80.4766C117.292 80.263 117.19 79.9766 117.133 79.6172C117.086 79.362 117.062 78.8464 117.062 78.0703V74.4531H116.055V72.7031H117.062V71.0547L119.266 69.7734V72.7031H120.766ZM128.383 75.2344L126.391 74.875C126.615 74.0729 127 73.4792 127.547 73.0938C128.094 72.7083 128.906 72.5156 129.984 72.5156C130.964 72.5156 131.693 72.6328 132.172 72.8672C132.651 73.0964 132.987 73.3906 133.18 73.75C133.378 74.1042 133.477 74.7578 133.477 75.7109L133.453 78.2734C133.453 79.0026 133.487 79.5417 133.555 79.8906C133.628 80.2344 133.76 80.6042 133.953 81H131.781C131.724 80.8542 131.654 80.638 131.57 80.3516C131.534 80.2214 131.508 80.1354 131.492 80.0938C131.117 80.4583 130.716 80.7318 130.289 80.9141C129.862 81.0964 129.406 81.1875 128.922 81.1875C128.068 81.1875 127.393 80.9557 126.898 80.4922C126.409 80.0286 126.164 79.4427 126.164 78.7344C126.164 78.2656 126.276 77.849 126.5 77.4844C126.724 77.1146 127.036 76.8333 127.438 76.6406C127.844 76.4427 128.427 76.2708 129.188 76.125C130.214 75.9323 130.924 75.7526 131.32 75.5859V75.3672C131.32 74.9453 131.216 74.6458 131.008 74.4688C130.799 74.2865 130.406 74.1953 129.828 74.1953C129.438 74.1953 129.133 74.2734 128.914 74.4297C128.695 74.5807 128.518 74.849 128.383 75.2344ZM131.32 77.0156C131.039 77.1094 130.594 77.2214 129.984 77.3516C129.375 77.4818 128.977 77.6094 128.789 77.7344C128.503 77.9375 128.359 78.1953 128.359 78.5078C128.359 78.8151 128.474 79.0807 128.703 79.3047C128.932 79.5286 129.224 79.6406 129.578 79.6406C129.974 79.6406 130.352 79.5104 130.711 79.25C130.977 79.0521 131.151 78.8099 131.234 78.5234C131.292 78.3359 131.32 77.9792 131.32 77.4531V77.0156ZM139.453 72.7031V74.4531H137.953V77.7969C137.953 78.474 137.966 78.8698 137.992 78.9844C138.023 79.0938 138.089 79.1849 138.188 79.2578C138.292 79.3307 138.417 79.3672 138.562 79.3672C138.766 79.3672 139.06 79.2969 139.445 79.1562L139.633 80.8594C139.122 81.0781 138.544 81.1875 137.898 81.1875C137.503 81.1875 137.146 81.1224 136.828 80.9922C136.51 80.8568 136.276 80.6849 136.125 80.4766C135.979 80.263 135.878 79.9766 135.82 79.6172C135.773 79.362 135.75 78.8464 135.75 78.0703V74.4531H134.742V72.7031H135.75V71.0547L137.953 69.7734V72.7031H139.453ZM140.812 72.7031H142.836V73.8359C143.56 72.9557 144.422 72.5156 145.422 72.5156C145.953 72.5156 146.414 72.625 146.805 72.8438C147.195 73.0625 147.516 73.3932 147.766 73.8359C148.13 73.3932 148.523 73.0625 148.945 72.8438C149.367 72.625 149.818 72.5156 150.297 72.5156C150.906 72.5156 151.422 72.6406 151.844 72.8906C152.266 73.1354 152.581 73.4974 152.789 73.9766C152.94 74.3307 153.016 74.9036 153.016 75.6953V81H150.82V76.2578C150.82 75.4349 150.745 74.9036 150.594 74.6641C150.391 74.3516 150.078 74.1953 149.656 74.1953C149.349 74.1953 149.06 74.2891 148.789 74.4766C148.518 74.6641 148.323 74.9401 148.203 75.3047C148.083 75.6641 148.023 76.2344 148.023 77.0156V81H145.828V76.4531C145.828 75.6458 145.789 75.125 145.711 74.8906C145.633 74.6562 145.51 74.4818 145.344 74.3672C145.182 74.2526 144.961 74.1953 144.68 74.1953C144.341 74.1953 144.036 74.2865 143.766 74.4688C143.495 74.651 143.299 74.9141 143.18 75.2578C143.065 75.6016 143.008 76.1719 143.008 76.9688V81H140.812V72.7031ZM154.703 76.7344C154.703 76.0052 154.883 75.2995 155.242 74.6172C155.602 73.9349 156.109 73.4141 156.766 73.0547C157.427 72.6953 158.164 72.5156 158.977 72.5156C160.232 72.5156 161.26 72.9245 162.062 73.7422C162.865 74.5547 163.266 75.5833 163.266 76.8281C163.266 78.0833 162.859 79.125 162.047 79.9531C161.24 80.776 160.221 81.1875 158.992 81.1875C158.232 81.1875 157.505 81.0156 156.812 80.6719C156.125 80.3281 155.602 79.8255 155.242 79.1641C154.883 78.4974 154.703 77.6875 154.703 76.7344ZM156.953 76.8516C156.953 77.6745 157.148 78.3047 157.539 78.7422C157.93 79.1797 158.411 79.3984 158.984 79.3984C159.557 79.3984 160.036 79.1797 160.422 78.7422C160.812 78.3047 161.008 77.6693 161.008 76.8359C161.008 76.0234 160.812 75.3984 160.422 74.9609C160.036 74.5234 159.557 74.3047 158.984 74.3047C158.411 74.3047 157.93 74.5234 157.539 74.9609C157.148 75.3984 156.953 76.0286 156.953 76.8516ZM164.219 78.6328L166.422 78.2969C166.516 78.724 166.706 79.0495 166.992 79.2734C167.279 79.4922 167.68 79.6016 168.195 79.6016C168.763 79.6016 169.19 79.4974 169.477 79.2891C169.669 79.1432 169.766 78.9479 169.766 78.7031C169.766 78.5365 169.714 78.3984 169.609 78.2891C169.5 78.1849 169.255 78.0885 168.875 78C167.104 77.6094 165.982 77.2526 165.508 76.9297C164.852 76.4818 164.523 75.8594 164.523 75.0625C164.523 74.3438 164.807 73.7396 165.375 73.25C165.943 72.7604 166.823 72.5156 168.016 72.5156C169.151 72.5156 169.995 72.7005 170.547 73.0703C171.099 73.4401 171.479 73.987 171.688 74.7109L169.617 75.0938C169.529 74.7708 169.359 74.5234 169.109 74.3516C168.865 74.1797 168.513 74.0938 168.055 74.0938C167.477 74.0938 167.062 74.1745 166.812 74.3359C166.646 74.4505 166.562 74.599 166.562 74.7812C166.562 74.9375 166.635 75.0703 166.781 75.1797C166.979 75.3255 167.661 75.5312 168.828 75.7969C170 76.0625 170.818 76.388 171.281 76.7734C171.74 77.1641 171.969 77.7083 171.969 78.4062C171.969 79.1667 171.651 79.8203 171.016 80.3672C170.38 80.9141 169.44 81.1875 168.195 81.1875C167.065 81.1875 166.169 80.9583 165.508 80.5C164.852 80.0417 164.422 79.4193 164.219 78.6328ZM173.836 72.7031H175.883V73.9219C176.148 73.5052 176.508 73.1667 176.961 72.9062C177.414 72.6458 177.917 72.5156 178.469 72.5156C179.432 72.5156 180.25 72.8932 180.922 73.6484C181.594 74.4036 181.93 75.4557 181.93 76.8047C181.93 78.1901 181.591 79.2682 180.914 80.0391C180.237 80.8047 179.417 81.1875 178.453 81.1875C177.995 81.1875 177.578 81.0964 177.203 80.9141C176.833 80.7318 176.443 80.4193 176.031 79.9766V84.1562H173.836V72.7031ZM176.008 76.7109C176.008 77.6432 176.193 78.3333 176.562 78.7812C176.932 79.224 177.383 79.4453 177.914 79.4453C178.424 79.4453 178.849 79.2422 179.188 78.8359C179.526 78.4245 179.695 77.7526 179.695 76.8203C179.695 75.9505 179.521 75.3047 179.172 74.8828C178.823 74.4609 178.391 74.25 177.875 74.25C177.339 74.25 176.893 74.4583 176.539 74.875C176.185 75.2865 176.008 75.8984 176.008 76.7109ZM185.867 69.5469V73.7578C186.576 72.9297 187.422 72.5156 188.406 72.5156C188.911 72.5156 189.367 72.6094 189.773 72.7969C190.18 72.9844 190.484 73.224 190.688 73.5156C190.896 73.8073 191.036 74.1302 191.109 74.4844C191.188 74.8385 191.227 75.388 191.227 76.1328V81H189.031V76.6172C189.031 75.7474 188.99 75.1953 188.906 74.9609C188.823 74.7266 188.674 74.5417 188.461 74.4062C188.253 74.2656 187.99 74.1953 187.672 74.1953C187.307 74.1953 186.982 74.2839 186.695 74.4609C186.409 74.638 186.198 74.9062 186.062 75.2656C185.932 75.6198 185.867 76.1458 185.867 76.8438V81H183.672V69.5469H185.867ZM198.266 78.3594L200.453 78.7266C200.172 79.5286 199.727 80.1406 199.117 80.5625C198.513 80.9792 197.755 81.1875 196.844 81.1875C195.401 81.1875 194.333 80.7161 193.641 79.7734C193.094 79.0182 192.82 78.0651 192.82 76.9141C192.82 75.5391 193.18 74.4635 193.898 73.6875C194.617 72.9062 195.526 72.5156 196.625 72.5156C197.859 72.5156 198.833 72.9245 199.547 73.7422C200.26 74.5547 200.602 75.8021 200.57 77.4844H195.07C195.086 78.1354 195.263 78.6432 195.602 79.0078C195.94 79.3672 196.362 79.5469 196.867 79.5469C197.211 79.5469 197.5 79.4531 197.734 79.2656C197.969 79.0781 198.146 78.776 198.266 78.3594ZM198.391 76.1406C198.375 75.5052 198.211 75.0234 197.898 74.6953C197.586 74.362 197.206 74.1953 196.758 74.1953C196.279 74.1953 195.883 74.3698 195.57 74.7188C195.258 75.0677 195.104 75.5417 195.109 76.1406H198.391ZM204.469 81H202.273V72.7031H204.312V73.8828C204.661 73.3255 204.974 72.9583 205.25 72.7812C205.531 72.6042 205.849 72.5156 206.203 72.5156C206.703 72.5156 207.185 72.6536 207.648 72.9297L206.969 74.8438C206.599 74.6042 206.255 74.4844 205.938 74.4844C205.63 74.4844 205.37 74.5703 205.156 74.7422C204.943 74.9089 204.773 75.2135 204.648 75.6562C204.529 76.099 204.469 77.026 204.469 78.4375V81ZM213.406 78.3594L215.594 78.7266C215.312 79.5286 214.867 80.1406 214.258 80.5625C213.654 80.9792 212.896 81.1875 211.984 81.1875C210.542 81.1875 209.474 80.7161 208.781 79.7734C208.234 79.0182 207.961 78.0651 207.961 76.9141C207.961 75.5391 208.32 74.4635 209.039 73.6875C209.758 72.9062 210.667 72.5156 211.766 72.5156C213 72.5156 213.974 72.9245 214.688 73.7422C215.401 74.5547 215.742 75.8021 215.711 77.4844H210.211C210.227 78.1354 210.404 78.6432 210.742 79.0078C211.081 79.3672 211.503 79.5469 212.008 79.5469C212.352 79.5469 212.641 79.4531 212.875 79.2656C213.109 79.0781 213.286 78.776 213.406 78.3594ZM213.531 76.1406C213.516 75.5052 213.352 75.0234 213.039 74.6953C212.727 74.362 212.346 74.1953 211.898 74.1953C211.419 74.1953 211.023 74.3698 210.711 74.7188C210.398 75.0677 210.245 75.5417 210.25 76.1406H213.531ZM218.367 78.0469L217.797 72.2344V69.5469H220.172V72.2344L219.609 78.0469H218.367ZM217.891 81V78.8047H220.086V81H217.891Z" fill="black"/>
<path d="M84.6562 95.1367L85.7812 95.0273C85.849 95.4049 85.9857 95.6823 86.1914 95.8594C86.3997 96.0365 86.6797 96.125 87.0312 96.125C87.4036 96.125 87.6836 96.0469 87.8711 95.8906C88.0612 95.7318 88.1562 95.5469 88.1562 95.3359C88.1562 95.2005 88.1159 95.0859 88.0352 94.9922C87.957 94.8958 87.819 94.8125 87.6211 94.7422C87.4857 94.6953 87.1771 94.612 86.6953 94.4922C86.0755 94.3385 85.6406 94.1497 85.3906 93.9258C85.0391 93.6107 84.8633 93.2266 84.8633 92.7734C84.8633 92.4818 84.9453 92.2096 85.1094 91.957C85.276 91.7018 85.5143 91.5078 85.8242 91.375C86.1367 91.2422 86.513 91.1758 86.9531 91.1758C87.6719 91.1758 88.2122 91.3333 88.5742 91.6484C88.9388 91.9635 89.1302 92.3841 89.1484 92.9102L87.9922 92.9609C87.9427 92.6667 87.8359 92.4557 87.6719 92.3281C87.5104 92.1979 87.2669 92.1328 86.9414 92.1328C86.6055 92.1328 86.3424 92.2018 86.1523 92.3398C86.0299 92.4284 85.9688 92.5469 85.9688 92.6953C85.9688 92.8307 86.026 92.9466 86.1406 93.043C86.2865 93.1654 86.6406 93.293 87.2031 93.4258C87.7656 93.5586 88.181 93.6966 88.4492 93.8398C88.7201 93.9805 88.931 94.1745 89.082 94.4219C89.2357 94.6667 89.3125 94.9701 89.3125 95.332C89.3125 95.6602 89.2214 95.9674 89.0391 96.2539C88.8568 96.5404 88.599 96.7539 88.2656 96.8945C87.9323 97.0326 87.5169 97.1016 87.0195 97.1016C86.2956 97.1016 85.7396 96.9349 85.3516 96.6016C84.9635 96.2656 84.7318 95.7773 84.6562 95.1367ZM93.0078 97V96.3789C92.8568 96.6003 92.6576 96.7747 92.4102 96.9023C92.1654 97.0299 91.9062 97.0938 91.6328 97.0938C91.3542 97.0938 91.1042 97.0326 90.8828 96.9102C90.6615 96.7878 90.5013 96.6159 90.4023 96.3945C90.3034 96.1732 90.2539 95.8672 90.2539 95.4766V92.8516H91.3516V94.7578C91.3516 95.3411 91.3711 95.6992 91.4102 95.832C91.4518 95.9622 91.526 96.0664 91.6328 96.1445C91.7396 96.2201 91.875 96.2578 92.0391 96.2578C92.2266 96.2578 92.3945 96.207 92.543 96.1055C92.6914 96.0013 92.793 95.8737 92.8477 95.7227C92.9023 95.569 92.9297 95.1953 92.9297 94.6016V92.8516H94.0273V97H93.0078ZM95.1211 97V91.2734H96.2188V93.3359C96.5573 92.9505 96.9583 92.7578 97.4219 92.7578C97.9271 92.7578 98.3451 92.9414 98.6758 93.3086C99.0065 93.6732 99.1719 94.1979 99.1719 94.8828C99.1719 95.5911 99.0026 96.1367 98.6641 96.5195C98.3281 96.9023 97.9193 97.0938 97.4375 97.0938C97.2005 97.0938 96.9661 97.0352 96.7344 96.918C96.5052 96.7982 96.3073 96.6224 96.1406 96.3906V97H95.1211ZM96.2109 94.8359C96.2109 95.2656 96.2786 95.5833 96.4141 95.7891C96.6042 96.0807 96.8568 96.2266 97.1719 96.2266C97.4141 96.2266 97.6198 96.1237 97.7891 95.918C97.9609 95.7096 98.0469 95.3828 98.0469 94.9375C98.0469 94.4635 97.9609 94.1224 97.7891 93.9141C97.6172 93.7031 97.3971 93.5977 97.1289 93.5977C96.8659 93.5977 96.6471 93.7005 96.4727 93.9062C96.2982 94.1094 96.2109 94.4193 96.2109 94.8359ZM99.9766 92.8516H100.988V93.418C101.35 92.9779 101.781 92.7578 102.281 92.7578C102.547 92.7578 102.777 92.8125 102.973 92.9219C103.168 93.0312 103.328 93.1966 103.453 93.418C103.635 93.1966 103.832 93.0312 104.043 92.9219C104.254 92.8125 104.479 92.7578 104.719 92.7578C105.023 92.7578 105.281 92.8203 105.492 92.9453C105.703 93.0677 105.861 93.2487 105.965 93.4883C106.04 93.6654 106.078 93.9518 106.078 94.3477V97H104.98V94.6289C104.98 94.2174 104.943 93.9518 104.867 93.832C104.766 93.6758 104.609 93.5977 104.398 93.5977C104.245 93.5977 104.1 93.6445 103.965 93.7383C103.829 93.832 103.732 93.9701 103.672 94.1523C103.612 94.332 103.582 94.6172 103.582 95.0078V97H102.484V94.7266C102.484 94.3229 102.465 94.0625 102.426 93.9453C102.387 93.8281 102.326 93.7409 102.242 93.6836C102.161 93.6263 102.051 93.5977 101.91 93.5977C101.741 93.5977 101.589 93.6432 101.453 93.7344C101.318 93.8255 101.22 93.957 101.16 94.1289C101.103 94.3008 101.074 94.5859 101.074 94.9844V97H99.9766V92.8516ZM107.176 92.2891V91.2734H108.273V92.2891H107.176ZM107.176 97V92.8516H108.273V97H107.176ZM111.305 92.8516V93.7266H110.555V95.3984C110.555 95.737 110.561 95.9349 110.574 95.9922C110.59 96.0469 110.622 96.0924 110.672 96.1289C110.724 96.1654 110.786 96.1836 110.859 96.1836C110.961 96.1836 111.108 96.1484 111.301 96.0781L111.395 96.9297C111.139 97.0391 110.85 97.0938 110.527 97.0938C110.329 97.0938 110.151 97.0612 109.992 96.9961C109.833 96.9284 109.716 96.8424 109.641 96.7383C109.568 96.6315 109.517 96.4883 109.488 96.3086C109.465 96.181 109.453 95.9232 109.453 95.5352V93.7266H108.949V92.8516H109.453V92.0273L110.555 91.3867V92.8516H111.305ZM113.969 92.8516V93.7266H113.219V95.3984C113.219 95.737 113.225 95.9349 113.238 95.9922C113.254 96.0469 113.286 96.0924 113.336 96.1289C113.388 96.1654 113.451 96.1836 113.523 96.1836C113.625 96.1836 113.772 96.1484 113.965 96.0781L114.059 96.9297C113.803 97.0391 113.514 97.0938 113.191 97.0938C112.993 97.0938 112.815 97.0612 112.656 96.9961C112.497 96.9284 112.38 96.8424 112.305 96.7383C112.232 96.6315 112.181 96.4883 112.152 96.3086C112.129 96.181 112.117 95.9232 112.117 95.5352V93.7266H111.613V92.8516H112.117V92.0273L113.219 91.3867V92.8516H113.969ZM117.133 95.6797L118.227 95.8633C118.086 96.2643 117.863 96.5703 117.559 96.7812C117.257 96.9896 116.878 97.0938 116.422 97.0938C115.701 97.0938 115.167 96.8581 114.82 96.3867C114.547 96.0091 114.41 95.5326 114.41 94.957C114.41 94.2695 114.59 93.7318 114.949 93.3438C115.309 92.9531 115.763 92.7578 116.312 92.7578C116.93 92.7578 117.417 92.9622 117.773 93.3711C118.13 93.7773 118.301 94.401 118.285 95.2422H115.535C115.543 95.5677 115.632 95.8216 115.801 96.0039C115.97 96.1836 116.181 96.2734 116.434 96.2734C116.605 96.2734 116.75 96.2266 116.867 96.1328C116.984 96.0391 117.073 95.888 117.133 95.6797ZM117.195 94.5703C117.188 94.2526 117.105 94.0117 116.949 93.8477C116.793 93.681 116.603 93.5977 116.379 93.5977C116.139 93.5977 115.941 93.6849 115.785 93.8594C115.629 94.0339 115.552 94.2708 115.555 94.5703H117.195ZM122.988 97H121.969V96.3906C121.799 96.6276 121.599 96.8047 121.367 96.9219C121.138 97.0365 120.906 97.0938 120.672 97.0938C120.195 97.0938 119.786 96.9023 119.445 96.5195C119.107 96.1341 118.938 95.5977 118.938 94.9102C118.938 94.207 119.103 93.6732 119.434 93.3086C119.764 92.9414 120.182 92.7578 120.688 92.7578C121.151 92.7578 121.552 92.9505 121.891 93.3359V91.2734H122.988V97ZM120.059 94.8359C120.059 95.2786 120.12 95.599 120.242 95.7969C120.419 96.0833 120.667 96.2266 120.984 96.2266C121.237 96.2266 121.452 96.1198 121.629 95.9062C121.806 95.6901 121.895 95.3685 121.895 94.9414C121.895 94.4648 121.809 94.1224 121.637 93.9141C121.465 93.7031 121.245 93.5977 120.977 93.5977C120.716 93.5977 120.497 93.7018 120.32 93.9102C120.146 94.1159 120.059 94.4245 120.059 94.8359ZM126.254 97V91.2734H127.352V93.3359C127.69 92.9505 128.091 92.7578 128.555 92.7578C129.06 92.7578 129.478 92.9414 129.809 93.3086C130.139 93.6732 130.305 94.1979 130.305 94.8828C130.305 95.5911 130.135 96.1367 129.797 96.5195C129.461 96.9023 129.052 97.0938 128.57 97.0938C128.333 97.0938 128.099 97.0352 127.867 96.918C127.638 96.7982 127.44 96.6224 127.273 96.3906V97H126.254ZM127.344 94.8359C127.344 95.2656 127.411 95.5833 127.547 95.7891C127.737 96.0807 127.99 96.2266 128.305 96.2266C128.547 96.2266 128.753 96.1237 128.922 95.918C129.094 95.7096 129.18 95.3828 129.18 94.9375C129.18 94.4635 129.094 94.1224 128.922 93.9141C128.75 93.7031 128.53 93.5977 128.262 93.5977C127.999 93.5977 127.78 93.7005 127.605 93.9062C127.431 94.1094 127.344 94.4193 127.344 94.8359ZM130.672 92.8516H131.84L132.832 95.7969L133.801 92.8516H134.938L133.473 96.8438L133.211 97.5664C133.115 97.8086 133.022 97.9935 132.934 98.1211C132.848 98.2487 132.747 98.3516 132.633 98.4297C132.521 98.5104 132.382 98.5729 132.215 98.6172C132.051 98.6615 131.865 98.6836 131.656 98.6836C131.445 98.6836 131.238 98.6615 131.035 98.6172L130.938 97.7578C131.109 97.7917 131.264 97.8086 131.402 97.8086C131.658 97.8086 131.846 97.7331 131.969 97.582C132.091 97.4336 132.185 97.2435 132.25 97.0117L130.672 92.8516ZM137.586 95.1367L138.711 95.0273C138.779 95.4049 138.915 95.6823 139.121 95.8594C139.329 96.0365 139.609 96.125 139.961 96.125C140.333 96.125 140.613 96.0469 140.801 95.8906C140.991 95.7318 141.086 95.5469 141.086 95.3359C141.086 95.2005 141.046 95.0859 140.965 94.9922C140.887 94.8958 140.749 94.8125 140.551 94.7422C140.415 94.6953 140.107 94.612 139.625 94.4922C139.005 94.3385 138.57 94.1497 138.32 93.9258C137.969 93.6107 137.793 93.2266 137.793 92.7734C137.793 92.4818 137.875 92.2096 138.039 91.957C138.206 91.7018 138.444 91.5078 138.754 91.375C139.066 91.2422 139.443 91.1758 139.883 91.1758C140.602 91.1758 141.142 91.3333 141.504 91.6484C141.868 91.9635 142.06 92.3841 142.078 92.9102L140.922 92.9609C140.872 92.6667 140.766 92.4557 140.602 92.3281C140.44 92.1979 140.197 92.1328 139.871 92.1328C139.535 92.1328 139.272 92.2018 139.082 92.3398C138.96 92.4284 138.898 92.5469 138.898 92.6953C138.898 92.8307 138.956 92.9466 139.07 93.043C139.216 93.1654 139.57 93.293 140.133 93.4258C140.695 93.5586 141.111 93.6966 141.379 93.8398C141.65 93.9805 141.861 94.1745 142.012 94.4219C142.165 94.6667 142.242 94.9701 142.242 95.332C142.242 95.6602 142.151 95.9674 141.969 96.2539C141.786 96.5404 141.529 96.7539 141.195 96.8945C140.862 97.0326 140.447 97.1016 139.949 97.1016C139.225 97.1016 138.669 96.9349 138.281 96.6016C137.893 96.2656 137.661 95.7773 137.586 95.1367ZM144.301 91.2734V93.3789C144.655 92.9648 145.078 92.7578 145.57 92.7578C145.823 92.7578 146.051 92.8047 146.254 92.8984C146.457 92.9922 146.609 93.112 146.711 93.2578C146.815 93.4036 146.885 93.5651 146.922 93.7422C146.961 93.9193 146.98 94.194 146.98 94.5664V97H145.883V94.8086C145.883 94.3737 145.862 94.0977 145.82 93.9805C145.779 93.8633 145.704 93.7708 145.598 93.7031C145.493 93.6328 145.362 93.5977 145.203 93.5977C145.021 93.5977 144.858 93.6419 144.715 93.7305C144.572 93.819 144.466 93.9531 144.398 94.1328C144.333 94.3099 144.301 94.5729 144.301 94.9219V97H143.203V91.2734H144.301ZM150.5 95.6797L151.594 95.8633C151.453 96.2643 151.23 96.5703 150.926 96.7812C150.624 96.9896 150.245 97.0938 149.789 97.0938C149.068 97.0938 148.534 96.8581 148.188 96.3867C147.914 96.0091 147.777 95.5326 147.777 94.957C147.777 94.2695 147.957 93.7318 148.316 93.3438C148.676 92.9531 149.13 92.7578 149.68 92.7578C150.297 92.7578 150.784 92.9622 151.141 93.3711C151.497 93.7773 151.668 94.401 151.652 95.2422H148.902C148.91 95.5677 148.999 95.8216 149.168 96.0039C149.337 96.1836 149.548 96.2734 149.801 96.2734C149.973 96.2734 150.117 96.2266 150.234 96.1328C150.352 96.0391 150.44 95.888 150.5 95.6797ZM150.562 94.5703C150.555 94.2526 150.473 94.0117 150.316 93.8477C150.16 93.681 149.97 93.5977 149.746 93.5977C149.507 93.5977 149.309 93.6849 149.152 93.8594C148.996 94.0339 148.919 94.2708 148.922 94.5703H150.562ZM152.551 92.2891V91.2734H153.648V92.2891H152.551ZM152.551 97V92.8516H153.648V97H152.551ZM154.777 97V91.2734H155.875V97H154.777ZM157.824 94.1172L156.828 93.9375C156.94 93.5365 157.133 93.2396 157.406 93.0469C157.68 92.8542 158.086 92.7578 158.625 92.7578C159.115 92.7578 159.479 92.8164 159.719 92.9336C159.958 93.0482 160.126 93.1953 160.223 93.375C160.322 93.5521 160.371 93.8789 160.371 94.3555L160.359 95.6367C160.359 96.0013 160.376 96.2708 160.41 96.4453C160.447 96.6172 160.513 96.8021 160.609 97H159.523C159.495 96.9271 159.46 96.819 159.418 96.6758C159.4 96.6107 159.387 96.5677 159.379 96.5469C159.191 96.7292 158.991 96.8659 158.777 96.957C158.564 97.0482 158.336 97.0938 158.094 97.0938C157.667 97.0938 157.329 96.9779 157.082 96.7461C156.837 96.5143 156.715 96.2214 156.715 95.8672C156.715 95.6328 156.771 95.4245 156.883 95.2422C156.995 95.0573 157.151 94.9167 157.352 94.8203C157.555 94.7214 157.846 94.6354 158.227 94.5625C158.74 94.4661 159.095 94.3763 159.293 94.293V94.1836C159.293 93.9727 159.241 93.8229 159.137 93.7344C159.033 93.6432 158.836 93.5977 158.547 93.5977C158.352 93.5977 158.199 93.6367 158.09 93.7148C157.98 93.7904 157.892 93.9245 157.824 94.1172ZM159.293 95.0078C159.152 95.0547 158.93 95.1107 158.625 95.1758C158.32 95.2409 158.121 95.3047 158.027 95.3672C157.884 95.4688 157.812 95.5977 157.812 95.7539C157.812 95.9076 157.87 96.0404 157.984 96.1523C158.099 96.2643 158.245 96.3203 158.422 96.3203C158.62 96.3203 158.809 96.2552 158.988 96.125C159.121 96.026 159.208 95.9049 159.25 95.7617C159.279 95.668 159.293 95.4896 159.293 95.2266V95.0078ZM163.398 95.1367L164.523 95.0273C164.591 95.4049 164.728 95.6823 164.934 95.8594C165.142 96.0365 165.422 96.125 165.773 96.125C166.146 96.125 166.426 96.0469 166.613 95.8906C166.803 95.7318 166.898 95.5469 166.898 95.3359C166.898 95.2005 166.858 95.0859 166.777 94.9922C166.699 94.8958 166.561 94.8125 166.363 94.7422C166.228 94.6953 165.919 94.612 165.438 94.4922C164.818 94.3385 164.383 94.1497 164.133 93.9258C163.781 93.6107 163.605 93.2266 163.605 92.7734C163.605 92.4818 163.688 92.2096 163.852 91.957C164.018 91.7018 164.257 91.5078 164.566 91.375C164.879 91.2422 165.255 91.1758 165.695 91.1758C166.414 91.1758 166.954 91.3333 167.316 91.6484C167.681 91.9635 167.872 92.3841 167.891 92.9102L166.734 92.9609C166.685 92.6667 166.578 92.4557 166.414 92.3281C166.253 92.1979 166.009 92.1328 165.684 92.1328C165.348 92.1328 165.085 92.2018 164.895 92.3398C164.772 92.4284 164.711 92.5469 164.711 92.6953C164.711 92.8307 164.768 92.9466 164.883 93.043C165.029 93.1654 165.383 93.293 165.945 93.4258C166.508 93.5586 166.923 93.6966 167.191 93.8398C167.462 93.9805 167.673 94.1745 167.824 94.4219C167.978 94.6667 168.055 94.9701 168.055 95.332C168.055 95.6602 167.964 95.9674 167.781 96.2539C167.599 96.5404 167.341 96.7539 167.008 96.8945C166.674 97.0326 166.259 97.1016 165.762 97.1016C165.038 97.1016 164.482 96.9349 164.094 96.6016C163.706 96.2656 163.474 95.7773 163.398 95.1367ZM169.02 97V95.9023H170.117V97H169.02ZM173.219 94.8672C173.219 94.5026 173.309 94.1497 173.488 93.8086C173.668 93.4674 173.922 93.207 174.25 93.0273C174.581 92.8477 174.949 92.7578 175.355 92.7578C175.983 92.7578 176.497 92.9622 176.898 93.3711C177.299 93.7773 177.5 94.2917 177.5 94.9141C177.5 95.5417 177.297 96.0625 176.891 96.4766C176.487 96.888 175.978 97.0938 175.363 97.0938C174.983 97.0938 174.62 97.0078 174.273 96.8359C173.93 96.6641 173.668 96.4128 173.488 96.082C173.309 95.7487 173.219 95.3438 173.219 94.8672ZM174.344 94.9258C174.344 95.3372 174.441 95.6523 174.637 95.8711C174.832 96.0898 175.073 96.1992 175.359 96.1992C175.646 96.1992 175.885 96.0898 176.078 95.8711C176.273 95.6523 176.371 95.3346 176.371 94.918C176.371 94.5117 176.273 94.1992 176.078 93.9805C175.885 93.7617 175.646 93.6523 175.359 93.6523C175.073 93.6523 174.832 93.7617 174.637 93.9805C174.441 94.1992 174.344 94.5143 174.344 94.9258ZM182.137 97H181.039V94.8828C181.039 94.4349 181.016 94.1458 180.969 94.0156C180.922 93.8828 180.845 93.7799 180.738 93.707C180.634 93.6341 180.508 93.5977 180.359 93.5977C180.169 93.5977 179.999 93.6497 179.848 93.7539C179.697 93.8581 179.592 93.9961 179.535 94.168C179.48 94.3398 179.453 94.6576 179.453 95.1211V97H178.355V92.8516H179.375V93.4609C179.737 92.9922 180.193 92.7578 180.742 92.7578C180.984 92.7578 181.206 92.8021 181.406 92.8906C181.607 92.9766 181.758 93.0872 181.859 93.2227C181.964 93.3581 182.035 93.5117 182.074 93.6836C182.116 93.8555 182.137 94.1016 182.137 94.4219V97ZM188.055 97H186.957V92.8633C186.556 93.2383 186.083 93.5156 185.539 93.6953V92.6992C185.826 92.6055 186.137 92.4284 186.473 92.168C186.809 91.9049 187.039 91.599 187.164 91.25H188.055V97ZM192.062 97H190.965V92.8633C190.564 93.2383 190.091 93.5156 189.547 93.6953V92.6992C189.833 92.6055 190.145 92.4284 190.48 92.168C190.816 91.9049 191.047 91.599 191.172 91.25H192.062V97ZM193.355 97.0977L194.773 91.1758H195.598L194.164 97.0977H193.355ZM198.742 97H197.645V92.8633C197.243 93.2383 196.771 93.5156 196.227 93.6953V92.6992C196.513 92.6055 196.824 92.4284 197.16 92.168C197.496 91.9049 197.727 91.599 197.852 91.25H198.742V97ZM202.242 91.25C202.797 91.25 203.23 91.4479 203.543 91.8438C203.915 92.3125 204.102 93.0898 204.102 94.1758C204.102 95.2591 203.914 96.0378 203.539 96.5117C203.229 96.9023 202.797 97.0977 202.242 97.0977C201.685 97.0977 201.236 96.8841 200.895 96.457C200.553 96.0273 200.383 95.263 200.383 94.1641C200.383 93.0859 200.57 92.3099 200.945 91.8359C201.255 91.4453 201.688 91.25 202.242 91.25ZM202.242 92.1602C202.109 92.1602 201.991 92.2031 201.887 92.2891C201.783 92.3724 201.702 92.5234 201.645 92.7422C201.569 93.026 201.531 93.5039 201.531 94.1758C201.531 94.8477 201.565 95.3099 201.633 95.5625C201.701 95.8125 201.785 95.9792 201.887 96.0625C201.991 96.1458 202.109 96.1875 202.242 96.1875C202.375 96.1875 202.493 96.1458 202.598 96.0625C202.702 95.9766 202.783 95.8242 202.84 95.6055C202.915 95.3242 202.953 94.8477 202.953 94.1758C202.953 93.5039 202.919 93.043 202.852 92.793C202.784 92.5404 202.698 92.3724 202.594 92.2891C202.492 92.2031 202.375 92.1602 202.242 92.1602ZM204.488 97.0977L205.906 91.1758H206.73L205.297 97.0977H204.488ZM210.773 95.9805V97H206.926C206.967 96.6146 207.092 96.25 207.301 95.9062C207.509 95.5599 207.921 95.1016 208.535 94.5312C209.03 94.0703 209.333 93.7578 209.445 93.5938C209.596 93.3672 209.672 93.1432 209.672 92.9219C209.672 92.6771 209.605 92.4896 209.473 92.3594C209.342 92.2266 209.161 92.1602 208.93 92.1602C208.701 92.1602 208.518 92.2292 208.383 92.3672C208.247 92.5052 208.169 92.7344 208.148 93.0547L207.055 92.9453C207.12 92.3411 207.324 91.9076 207.668 91.6445C208.012 91.3815 208.441 91.25 208.957 91.25C209.522 91.25 209.966 91.4023 210.289 91.707C210.612 92.0117 210.773 92.3906 210.773 92.8438C210.773 93.1016 210.727 93.3477 210.633 93.582C210.542 93.8138 210.396 94.0573 210.195 94.3125C210.062 94.4818 209.823 94.7253 209.477 95.043C209.13 95.3607 208.91 95.5716 208.816 95.6758C208.725 95.7799 208.651 95.8815 208.594 95.9805H210.773ZM213.375 91.25C213.93 91.25 214.363 91.4479 214.676 91.8438C215.048 92.3125 215.234 93.0898 215.234 94.1758C215.234 95.2591 215.047 96.0378 214.672 96.5117C214.362 96.9023 213.93 97.0977 213.375 97.0977C212.818 97.0977 212.368 96.8841 212.027 96.457C211.686 96.0273 211.516 95.263 211.516 94.1641C211.516 93.0859 211.703 92.3099 212.078 91.8359C212.388 91.4453 212.82 91.25 213.375 91.25ZM213.375 92.1602C213.242 92.1602 213.124 92.2031 213.02 92.2891C212.915 92.3724 212.835 92.5234 212.777 92.7422C212.702 93.026 212.664 93.5039 212.664 94.1758C212.664 94.8477 212.698 95.3099 212.766 95.5625C212.833 95.8125 212.918 95.9792 213.02 96.0625C213.124 96.1458 213.242 96.1875 213.375 96.1875C213.508 96.1875 213.626 96.1458 213.73 96.0625C213.835 95.9766 213.915 95.8242 213.973 95.6055C214.048 95.3242 214.086 94.8477 214.086 94.1758C214.086 93.5039 214.052 93.043 213.984 92.793C213.917 92.5404 213.831 92.3724 213.727 92.2891C213.625 92.2031 213.508 92.1602 213.375 92.1602ZM133.574 106V104.848H131.23V103.887L133.715 100.25H134.637V103.883H135.348V104.848H134.637V106H133.574ZM133.574 103.883V101.926L132.258 103.883H133.574ZM137.75 106.098L139.168 100.176H139.992L138.559 106.098H137.75ZM142.57 104.527L143.664 104.414C143.695 104.661 143.788 104.858 143.941 105.004C144.095 105.147 144.272 105.219 144.473 105.219C144.702 105.219 144.896 105.126 145.055 104.941C145.214 104.754 145.293 104.473 145.293 104.098C145.293 103.746 145.214 103.483 145.055 103.309C144.898 103.132 144.694 103.043 144.441 103.043C144.126 103.043 143.844 103.182 143.594 103.461L142.703 103.332L143.266 100.352H146.168V101.379H144.098L143.926 102.352C144.171 102.229 144.421 102.168 144.676 102.168C145.163 102.168 145.576 102.345 145.914 102.699C146.253 103.053 146.422 103.513 146.422 104.078C146.422 104.549 146.285 104.97 146.012 105.34C145.639 105.845 145.122 106.098 144.461 106.098C143.932 106.098 143.501 105.956 143.168 105.672C142.835 105.388 142.635 105.007 142.57 104.527ZM149.184 104.137L150.309 104.027C150.376 104.405 150.513 104.682 150.719 104.859C150.927 105.036 151.207 105.125 151.559 105.125C151.931 105.125 152.211 105.047 152.398 104.891C152.589 104.732 152.684 104.547 152.684 104.336C152.684 104.201 152.643 104.086 152.562 103.992C152.484 103.896 152.346 103.812 152.148 103.742C152.013 103.695 151.704 103.612 151.223 103.492C150.603 103.339 150.168 103.15 149.918 102.926C149.566 102.611 149.391 102.227 149.391 101.773C149.391 101.482 149.473 101.21 149.637 100.957C149.803 100.702 150.042 100.508 150.352 100.375C150.664 100.242 151.04 100.176 151.48 100.176C152.199 100.176 152.74 100.333 153.102 100.648C153.466 100.964 153.658 101.384 153.676 101.91L152.52 101.961C152.47 101.667 152.363 101.456 152.199 101.328C152.038 101.198 151.794 101.133 151.469 101.133C151.133 101.133 150.87 101.202 150.68 101.34C150.557 101.428 150.496 101.547 150.496 101.695C150.496 101.831 150.553 101.947 150.668 102.043C150.814 102.165 151.168 102.293 151.73 102.426C152.293 102.559 152.708 102.697 152.977 102.84C153.247 102.98 153.458 103.174 153.609 103.422C153.763 103.667 153.84 103.97 153.84 104.332C153.84 104.66 153.749 104.967 153.566 105.254C153.384 105.54 153.126 105.754 152.793 105.895C152.46 106.033 152.044 106.102 151.547 106.102C150.823 106.102 150.267 105.935 149.879 105.602C149.491 105.266 149.259 104.777 149.184 104.137ZM156.707 101.852V102.727H155.957V104.398C155.957 104.737 155.964 104.935 155.977 104.992C155.992 105.047 156.025 105.092 156.074 105.129C156.126 105.165 156.189 105.184 156.262 105.184C156.363 105.184 156.51 105.148 156.703 105.078L156.797 105.93C156.542 106.039 156.253 106.094 155.93 106.094C155.732 106.094 155.553 106.061 155.395 105.996C155.236 105.928 155.118 105.842 155.043 105.738C154.97 105.632 154.919 105.488 154.891 105.309C154.867 105.181 154.855 104.923 154.855 104.535V102.727H154.352V101.852H154.855V101.027L155.957 100.387V101.852H156.707ZM158.289 103.117L157.293 102.938C157.405 102.536 157.598 102.24 157.871 102.047C158.145 101.854 158.551 101.758 159.09 101.758C159.579 101.758 159.944 101.816 160.184 101.934C160.423 102.048 160.591 102.195 160.688 102.375C160.786 102.552 160.836 102.879 160.836 103.355L160.824 104.637C160.824 105.001 160.841 105.271 160.875 105.445C160.911 105.617 160.978 105.802 161.074 106H159.988C159.96 105.927 159.924 105.819 159.883 105.676C159.865 105.611 159.852 105.568 159.844 105.547C159.656 105.729 159.456 105.866 159.242 105.957C159.029 106.048 158.801 106.094 158.559 106.094C158.132 106.094 157.794 105.978 157.547 105.746C157.302 105.514 157.18 105.221 157.18 104.867C157.18 104.633 157.236 104.424 157.348 104.242C157.46 104.057 157.616 103.917 157.816 103.82C158.02 103.721 158.311 103.635 158.691 103.562C159.204 103.466 159.56 103.376 159.758 103.293V103.184C159.758 102.973 159.706 102.823 159.602 102.734C159.497 102.643 159.301 102.598 159.012 102.598C158.816 102.598 158.664 102.637 158.555 102.715C158.445 102.79 158.357 102.924 158.289 103.117ZM159.758 104.008C159.617 104.055 159.395 104.111 159.09 104.176C158.785 104.241 158.586 104.305 158.492 104.367C158.349 104.469 158.277 104.598 158.277 104.754C158.277 104.908 158.335 105.04 158.449 105.152C158.564 105.264 158.71 105.32 158.887 105.32C159.085 105.32 159.273 105.255 159.453 105.125C159.586 105.026 159.673 104.905 159.715 104.762C159.743 104.668 159.758 104.49 159.758 104.227V104.008ZM162.973 106H161.875V101.852H162.895V102.441C163.069 102.163 163.225 101.979 163.363 101.891C163.504 101.802 163.663 101.758 163.84 101.758C164.09 101.758 164.331 101.827 164.562 101.965L164.223 102.922C164.038 102.802 163.866 102.742 163.707 102.742C163.553 102.742 163.423 102.785 163.316 102.871C163.21 102.954 163.125 103.107 163.062 103.328C163.003 103.549 162.973 104.013 162.973 104.719V106ZM164.652 104.816L165.754 104.648C165.801 104.862 165.896 105.025 166.039 105.137C166.182 105.246 166.383 105.301 166.641 105.301C166.924 105.301 167.138 105.249 167.281 105.145C167.378 105.072 167.426 104.974 167.426 104.852C167.426 104.768 167.4 104.699 167.348 104.645C167.293 104.592 167.171 104.544 166.98 104.5C166.095 104.305 165.534 104.126 165.297 103.965C164.969 103.741 164.805 103.43 164.805 103.031C164.805 102.672 164.947 102.37 165.23 102.125C165.514 101.88 165.954 101.758 166.551 101.758C167.118 101.758 167.54 101.85 167.816 102.035C168.092 102.22 168.283 102.493 168.387 102.855L167.352 103.047C167.307 102.885 167.223 102.762 167.098 102.676C166.975 102.59 166.799 102.547 166.57 102.547C166.281 102.547 166.074 102.587 165.949 102.668C165.866 102.725 165.824 102.799 165.824 102.891C165.824 102.969 165.861 103.035 165.934 103.09C166.033 103.163 166.374 103.266 166.957 103.398C167.543 103.531 167.952 103.694 168.184 103.887C168.413 104.082 168.527 104.354 168.527 104.703C168.527 105.083 168.368 105.41 168.051 105.684C167.733 105.957 167.263 106.094 166.641 106.094C166.076 106.094 165.628 105.979 165.297 105.75C164.969 105.521 164.754 105.21 164.652 104.816Z" fill="black"/>
<path d="M54.6602 124.742L54.7969 124.094H57.3047L56.8164 126.426C56.5013 126.624 56.1419 126.785 55.7383 126.91C55.3346 127.035 54.9375 127.098 54.5469 127.098C53.7135 127.098 53.0911 126.846 52.6797 126.344C52.3333 125.919 52.1602 125.374 52.1602 124.707C52.1602 124.02 52.3112 123.395 52.6133 122.832C52.918 122.267 53.3008 121.85 53.7617 121.582C54.2253 121.311 54.7396 121.176 55.3047 121.176C55.7109 121.176 56.0755 121.25 56.3984 121.398C56.7214 121.544 56.9688 121.741 57.1406 121.988C57.3125 122.233 57.4362 122.553 57.5117 122.949L56.7617 123.031C56.681 122.638 56.513 122.337 56.2578 122.129C56.0052 121.918 55.6797 121.812 55.2812 121.812C54.8672 121.812 54.4805 121.926 54.1211 122.152C53.7617 122.376 53.474 122.716 53.2578 123.172C53.0443 123.625 52.9375 124.141 52.9375 124.719C52.9375 125.294 53.0794 125.729 53.3633 126.023C53.6471 126.318 54.0391 126.465 54.5391 126.465C55.0365 126.465 55.5716 126.301 56.1445 125.973L56.4023 124.742H54.6602ZM57.875 127L58.7422 122.852H59.3672L59.1914 123.699C59.4049 123.379 59.6133 123.142 59.8164 122.988C60.0221 122.835 60.2318 122.758 60.4453 122.758C60.5859 122.758 60.7591 122.809 60.9648 122.91L60.6758 123.566C60.5534 123.478 60.4193 123.434 60.2734 123.434C60.026 123.434 59.7721 123.572 59.5117 123.848C59.2513 124.124 59.0469 124.62 58.8984 125.336L58.5469 127H57.875ZM63.5859 125.59L64.2734 125.66C64.1745 126.001 63.9466 126.326 63.5898 126.633C63.2357 126.94 62.8125 127.094 62.3203 127.094C62.013 127.094 61.7305 127.023 61.4727 126.883C61.2174 126.74 61.0221 126.533 60.8867 126.262C60.7539 125.991 60.6875 125.682 60.6875 125.336C60.6875 124.883 60.7917 124.444 61 124.02C61.2109 123.592 61.4831 123.276 61.8164 123.07C62.1497 122.862 62.5104 122.758 62.8984 122.758C63.3932 122.758 63.7878 122.911 64.082 123.219C64.3789 123.526 64.5273 123.945 64.5273 124.477C64.5273 124.68 64.5091 124.888 64.4727 125.102H61.418C61.4076 125.182 61.4023 125.255 61.4023 125.32C61.4023 125.708 61.4909 126.005 61.668 126.211C61.8477 126.414 62.0664 126.516 62.3242 126.516C62.5664 126.516 62.8047 126.436 63.0391 126.277C63.2734 126.118 63.4557 125.889 63.5859 125.59ZM61.5312 124.562H63.8594C63.862 124.49 63.8633 124.438 63.8633 124.406C63.8633 124.052 63.7747 123.781 63.5977 123.594C63.4206 123.404 63.1927 123.309 62.9141 123.309C62.612 123.309 62.3359 123.413 62.0859 123.621C61.8385 123.829 61.6536 124.143 61.5312 124.562ZM67.7891 126.484C67.5443 126.695 67.3086 126.85 67.082 126.949C66.8555 127.046 66.6133 127.094 66.3555 127.094C65.9727 127.094 65.6641 126.982 65.4297 126.758C65.1953 126.531 65.0781 126.242 65.0781 125.891C65.0781 125.659 65.1302 125.454 65.2344 125.277C65.3411 125.098 65.4818 124.954 65.6562 124.848C65.8307 124.738 66.0443 124.66 66.2969 124.613C66.4557 124.582 66.7565 124.557 67.1992 124.539C67.6445 124.521 67.9635 124.474 68.1562 124.398C68.2109 124.206 68.2383 124.046 68.2383 123.918C68.2383 123.754 68.1784 123.625 68.0586 123.531C67.8945 123.401 67.6549 123.336 67.3398 123.336C67.043 123.336 66.7995 123.402 66.6094 123.535C66.4219 123.665 66.2852 123.852 66.1992 124.094L65.4844 124.031C65.6302 123.62 65.8607 123.305 66.1758 123.086C66.4935 122.867 66.8932 122.758 67.375 122.758C67.888 122.758 68.2943 122.88 68.5938 123.125C68.8229 123.307 68.9375 123.544 68.9375 123.836C68.9375 124.057 68.9049 124.314 68.8398 124.605L68.6094 125.637C68.5365 125.965 68.5 126.232 68.5 126.438C68.5 126.568 68.5286 126.755 68.5859 127H67.8711C67.832 126.865 67.8047 126.693 67.7891 126.484ZM68.0508 124.898C67.9518 124.938 67.8451 124.967 67.7305 124.988C67.6185 125.009 67.4297 125.031 67.1641 125.055C66.7526 125.091 66.4622 125.138 66.293 125.195C66.1237 125.25 65.9961 125.339 65.9102 125.461C65.8242 125.583 65.7812 125.719 65.7812 125.867C65.7812 126.065 65.849 126.228 65.9844 126.355C66.1224 126.483 66.3177 126.547 66.5703 126.547C66.8047 126.547 67.0299 126.486 67.2461 126.363C67.4622 126.238 67.6328 126.065 67.7578 125.844C67.8828 125.622 67.9805 125.307 68.0508 124.898ZM71.0977 126.426L70.9805 127.004C70.8112 127.048 70.6471 127.07 70.4883 127.07C70.207 127.07 69.9831 127.001 69.8164 126.863C69.6914 126.759 69.6289 126.617 69.6289 126.438C69.6289 126.346 69.6628 126.137 69.7305 125.809L70.2344 123.398H69.6758L69.7891 122.852H70.3477L70.5625 121.832L71.3711 121.344L71.0547 122.852H71.75L71.6328 123.398H70.9414L70.4609 125.691C70.401 125.983 70.3711 126.158 70.3711 126.215C70.3711 126.298 70.3945 126.362 70.4414 126.406C70.4909 126.451 70.5703 126.473 70.6797 126.473C70.8359 126.473 70.9753 126.457 71.0977 126.426ZM73.9961 127L74.75 123.398H74.1172L74.2305 122.852H74.8633L74.9844 122.262C75.0469 121.967 75.1107 121.755 75.1758 121.625C75.2435 121.495 75.3516 121.388 75.5 121.305C75.651 121.219 75.8555 121.176 76.1133 121.176C76.293 121.176 76.5534 121.214 76.8945 121.289L76.7656 121.906C76.526 121.844 76.3255 121.812 76.1641 121.812C76.026 121.812 75.9206 121.848 75.8477 121.918C75.7773 121.986 75.7161 122.148 75.6641 122.406L75.5703 122.852H76.3594L76.2461 123.398H75.457L74.7031 127H73.9961ZM76.25 125.426C76.25 124.616 76.4883 123.945 76.9648 123.414C77.3581 122.977 77.8737 122.758 78.5117 122.758C79.0117 122.758 79.4141 122.914 79.7188 123.227C80.026 123.539 80.1797 123.961 80.1797 124.492C80.1797 124.969 80.0833 125.413 79.8906 125.824C79.6979 126.233 79.4232 126.547 79.0664 126.766C78.7122 126.984 78.3385 127.094 77.9453 127.094C77.6224 127.094 77.3281 127.025 77.0625 126.887C76.7995 126.749 76.5977 126.553 76.457 126.301C76.319 126.048 76.25 125.757 76.25 125.426ZM76.957 125.355C76.957 125.746 77.0508 126.043 77.2383 126.246C77.4258 126.447 77.6641 126.547 77.9531 126.547C78.1042 126.547 78.2539 126.517 78.4023 126.457C78.5508 126.395 78.6888 126.301 78.8164 126.176C78.944 126.051 79.0521 125.909 79.1406 125.75C79.2318 125.589 79.3047 125.415 79.3594 125.23C79.4401 124.973 79.4805 124.725 79.4805 124.488C79.4805 124.113 79.3854 123.823 79.1953 123.617C79.0078 123.409 78.7708 123.305 78.4844 123.305C78.263 123.305 78.0612 123.358 77.8789 123.465C77.6966 123.569 77.5312 123.723 77.3828 123.926C77.237 124.129 77.1289 124.366 77.0586 124.637C76.9909 124.905 76.957 125.145 76.957 125.355ZM80.7031 125.426C80.7031 124.616 80.9414 123.945 81.418 123.414C81.8112 122.977 82.3268 122.758 82.9648 122.758C83.4648 122.758 83.8672 122.914 84.1719 123.227C84.4792 123.539 84.6328 123.961 84.6328 124.492C84.6328 124.969 84.5365 125.413 84.3438 125.824C84.151 126.233 83.8763 126.547 83.5195 126.766C83.1654 126.984 82.7917 127.094 82.3984 127.094C82.0755 127.094 81.7812 127.025 81.5156 126.887C81.2526 126.749 81.0508 126.553 80.9102 126.301C80.7721 126.048 80.7031 125.757 80.7031 125.426ZM81.4102 125.355C81.4102 125.746 81.5039 126.043 81.6914 126.246C81.8789 126.447 82.1172 126.547 82.4062 126.547C82.5573 126.547 82.707 126.517 82.8555 126.457C83.0039 126.395 83.1419 126.301 83.2695 126.176C83.3971 126.051 83.5052 125.909 83.5938 125.75C83.6849 125.589 83.7578 125.415 83.8125 125.23C83.8932 124.973 83.9336 124.725 83.9336 124.488C83.9336 124.113 83.8385 123.823 83.6484 123.617C83.4609 123.409 83.224 123.305 82.9375 123.305C82.7161 123.305 82.5143 123.358 82.332 123.465C82.1497 123.569 81.9844 123.723 81.8359 123.926C81.6901 124.129 81.582 124.366 81.5117 124.637C81.444 124.905 81.4102 125.145 81.4102 125.355ZM87.8281 126.398C87.4245 126.862 87.0026 127.094 86.5625 127.094C86.1693 127.094 85.8411 126.949 85.5781 126.66C85.3177 126.368 85.1875 125.947 85.1875 125.395C85.1875 124.889 85.2904 124.428 85.4961 124.012C85.7044 123.592 85.9635 123.279 86.2734 123.07C86.5859 122.862 86.8984 122.758 87.2109 122.758C87.7266 122.758 88.1159 123.007 88.3789 123.504L88.8477 121.273H89.5508L88.3555 127H87.7031L87.8281 126.398ZM85.8906 125.262C85.8906 125.551 85.9193 125.779 85.9766 125.945C86.0339 126.112 86.1315 126.251 86.2695 126.363C86.4076 126.473 86.5729 126.527 86.7656 126.527C87.0859 126.527 87.3763 126.361 87.6367 126.027C87.9857 125.585 88.1602 125.038 88.1602 124.387C88.1602 124.059 88.0742 123.802 87.9023 123.617C87.7305 123.432 87.5143 123.34 87.2539 123.34C87.0846 123.34 86.9297 123.378 86.7891 123.453C86.651 123.529 86.513 123.658 86.375 123.84C86.2396 124.02 86.125 124.249 86.0312 124.527C85.9375 124.806 85.8906 125.051 85.8906 125.262ZM89.6523 127L89.8203 126.199H90.625L90.4805 126.898C90.3919 127.318 90.2539 127.625 90.0664 127.82C89.8815 128.016 89.6628 128.128 89.4102 128.156L89.4766 127.848C89.7865 127.762 89.9909 127.479 90.0898 127H89.6523ZM94.7266 127L94.293 122.852H94.9727L95.1602 124.715L95.2344 125.762C95.2396 125.84 95.2474 125.997 95.2578 126.234C95.3359 125.969 95.4023 125.766 95.457 125.625C95.5117 125.482 95.599 125.279 95.7188 125.016L96.707 122.852H97.4766L97.6133 124.926C97.6341 125.241 97.6471 125.661 97.6523 126.188C97.7826 125.839 97.9948 125.354 98.2891 124.734L99.1797 122.852H99.8867L97.8594 127H97.125L96.9688 124.566C96.9583 124.415 96.9505 124.121 96.9453 123.684C96.8385 123.962 96.7122 124.263 96.5664 124.586L95.4688 127H94.7266ZM102.516 126.484C102.271 126.695 102.035 126.85 101.809 126.949C101.582 127.046 101.34 127.094 101.082 127.094C100.699 127.094 100.391 126.982 100.156 126.758C99.9219 126.531 99.8047 126.242 99.8047 125.891C99.8047 125.659 99.8568 125.454 99.9609 125.277C100.068 125.098 100.208 124.954 100.383 124.848C100.557 124.738 100.771 124.66 101.023 124.613C101.182 124.582 101.483 124.557 101.926 124.539C102.371 124.521 102.69 124.474 102.883 124.398C102.938 124.206 102.965 124.046 102.965 123.918C102.965 123.754 102.905 123.625 102.785 123.531C102.621 123.401 102.382 123.336 102.066 123.336C101.77 123.336 101.526 123.402 101.336 123.535C101.148 123.665 101.012 123.852 100.926 124.094L100.211 124.031C100.357 123.62 100.587 123.305 100.902 123.086C101.22 122.867 101.62 122.758 102.102 122.758C102.615 122.758 103.021 122.88 103.32 123.125C103.549 123.307 103.664 123.544 103.664 123.836C103.664 124.057 103.632 124.314 103.566 124.605L103.336 125.637C103.263 125.965 103.227 126.232 103.227 126.438C103.227 126.568 103.255 126.755 103.312 127H102.598C102.559 126.865 102.531 126.693 102.516 126.484ZM102.777 124.898C102.678 124.938 102.572 124.967 102.457 124.988C102.345 125.009 102.156 125.031 101.891 125.055C101.479 125.091 101.189 125.138 101.02 125.195C100.85 125.25 100.723 125.339 100.637 125.461C100.551 125.583 100.508 125.719 100.508 125.867C100.508 126.065 100.576 126.228 100.711 126.355C100.849 126.483 101.044 126.547 101.297 126.547C101.531 126.547 101.757 126.486 101.973 126.363C102.189 126.238 102.359 126.065 102.484 125.844C102.609 125.622 102.707 125.307 102.777 124.898ZM105.176 122.074L105.344 121.273H106.047L105.879 122.074H105.176ZM104.145 127L105.012 122.852H105.719L104.852 127H104.145ZM107.605 126.426L107.488 127.004C107.319 127.048 107.155 127.07 106.996 127.07C106.715 127.07 106.491 127.001 106.324 126.863C106.199 126.759 106.137 126.617 106.137 126.438C106.137 126.346 106.171 126.137 106.238 125.809L106.742 123.398H106.184L106.297 122.852H106.855L107.07 121.832L107.879 121.344L107.562 122.852H108.258L108.141 123.398H107.449L106.969 125.691C106.909 125.983 106.879 126.158 106.879 126.215C106.879 126.298 106.902 126.362 106.949 126.406C106.999 126.451 107.078 126.473 107.188 126.473C107.344 126.473 107.483 126.457 107.605 126.426ZM110.473 125.582L111.18 125.539C111.18 125.742 111.211 125.915 111.273 126.059C111.336 126.202 111.451 126.319 111.617 126.41C111.786 126.501 111.983 126.547 112.207 126.547C112.52 126.547 112.754 126.484 112.91 126.359C113.066 126.234 113.145 126.087 113.145 125.918C113.145 125.796 113.098 125.68 113.004 125.57C112.908 125.461 112.672 125.327 112.297 125.168C111.924 125.007 111.686 124.893 111.582 124.828C111.408 124.721 111.276 124.596 111.188 124.453C111.099 124.307 111.055 124.141 111.055 123.953C111.055 123.625 111.185 123.344 111.445 123.109C111.706 122.875 112.07 122.758 112.539 122.758C113.06 122.758 113.456 122.879 113.727 123.121C114 123.361 114.142 123.677 114.152 124.07L113.461 124.117C113.451 123.867 113.362 123.669 113.195 123.523C113.029 123.378 112.793 123.305 112.488 123.305C112.243 123.305 112.053 123.361 111.918 123.473C111.783 123.585 111.715 123.706 111.715 123.836C111.715 123.966 111.773 124.081 111.891 124.18C111.969 124.247 112.171 124.352 112.496 124.492C113.038 124.727 113.379 124.911 113.52 125.047C113.743 125.263 113.855 125.526 113.855 125.836C113.855 126.042 113.792 126.243 113.664 126.441C113.539 126.639 113.346 126.798 113.086 126.918C112.828 127.035 112.523 127.094 112.172 127.094C111.693 127.094 111.285 126.975 110.949 126.738C110.613 126.501 110.454 126.116 110.473 125.582ZM116.059 126.426L115.941 127.004C115.772 127.048 115.608 127.07 115.449 127.07C115.168 127.07 114.944 127.001 114.777 126.863C114.652 126.759 114.59 126.617 114.59 126.438C114.59 126.346 114.624 126.137 114.691 125.809L115.195 123.398H114.637L114.75 122.852H115.309L115.523 121.832L116.332 121.344L116.016 122.852H116.711L116.594 123.398H115.902L115.422 125.691C115.362 125.983 115.332 126.158 115.332 126.215C115.332 126.298 115.355 126.362 115.402 126.406C115.452 126.451 115.531 126.473 115.641 126.473C115.797 126.473 115.936 126.457 116.059 126.426ZM119.43 126.484C119.185 126.695 118.949 126.85 118.723 126.949C118.496 127.046 118.254 127.094 117.996 127.094C117.613 127.094 117.305 126.982 117.07 126.758C116.836 126.531 116.719 126.242 116.719 125.891C116.719 125.659 116.771 125.454 116.875 125.277C116.982 125.098 117.122 124.954 117.297 124.848C117.471 124.738 117.685 124.66 117.938 124.613C118.096 124.582 118.397 124.557 118.84 124.539C119.285 124.521 119.604 124.474 119.797 124.398C119.852 124.206 119.879 124.046 119.879 123.918C119.879 123.754 119.819 123.625 119.699 123.531C119.535 123.401 119.296 123.336 118.98 123.336C118.684 123.336 118.44 123.402 118.25 123.535C118.062 123.665 117.926 123.852 117.84 124.094L117.125 124.031C117.271 123.62 117.501 123.305 117.816 123.086C118.134 122.867 118.534 122.758 119.016 122.758C119.529 122.758 119.935 122.88 120.234 123.125C120.464 123.307 120.578 123.544 120.578 123.836C120.578 124.057 120.546 124.314 120.48 124.605L120.25 125.637C120.177 125.965 120.141 126.232 120.141 126.438C120.141 126.568 120.169 126.755 120.227 127H119.512C119.473 126.865 119.445 126.693 119.43 126.484ZM119.691 124.898C119.592 124.938 119.486 124.967 119.371 124.988C119.259 125.009 119.07 125.031 118.805 125.055C118.393 125.091 118.103 125.138 117.934 125.195C117.764 125.25 117.637 125.339 117.551 125.461C117.465 125.583 117.422 125.719 117.422 125.867C117.422 126.065 117.49 126.228 117.625 126.355C117.763 126.483 117.958 126.547 118.211 126.547C118.445 126.547 118.671 126.486 118.887 126.363C119.103 126.238 119.273 126.065 119.398 125.844C119.523 125.622 119.621 125.307 119.691 124.898ZM121.184 127L121.938 123.398H121.305L121.418 122.852H122.051L122.172 122.262C122.234 121.967 122.298 121.755 122.363 121.625C122.431 121.495 122.539 121.388 122.688 121.305C122.839 121.219 123.043 121.176 123.301 121.176C123.48 121.176 123.741 121.214 124.082 121.289L123.953 121.906C123.714 121.844 123.513 121.812 123.352 121.812C123.214 121.812 123.108 121.848 123.035 121.918C122.965 121.986 122.904 122.148 122.852 122.406L122.758 122.852H123.547L123.434 123.398H122.645L121.891 127H121.184ZM123.41 127L124.164 123.398H123.531L123.645 122.852H124.277L124.398 122.262C124.461 121.967 124.525 121.755 124.59 121.625C124.658 121.495 124.766 121.388 124.914 121.305C125.065 121.219 125.27 121.176 125.527 121.176C125.707 121.176 125.967 121.214 126.309 121.289L126.18 121.906C125.94 121.844 125.74 121.812 125.578 121.812C125.44 121.812 125.335 121.848 125.262 121.918C125.191 121.986 125.13 122.148 125.078 122.406L124.984 122.852H125.773L125.66 123.398H124.871L124.117 127H123.41ZM125.707 127L125.875 126.199H126.68L126.535 126.898C126.447 127.318 126.309 127.625 126.121 127.82C125.936 128.016 125.717 128.128 125.465 128.156L125.531 127.848C125.841 127.762 126.046 127.479 126.145 127H125.707ZM132.789 126.484C132.544 126.695 132.309 126.85 132.082 126.949C131.855 127.046 131.613 127.094 131.355 127.094C130.973 127.094 130.664 126.982 130.43 126.758C130.195 126.531 130.078 126.242 130.078 125.891C130.078 125.659 130.13 125.454 130.234 125.277C130.341 125.098 130.482 124.954 130.656 124.848C130.831 124.738 131.044 124.66 131.297 124.613C131.456 124.582 131.757 124.557 132.199 124.539C132.645 124.521 132.964 124.474 133.156 124.398C133.211 124.206 133.238 124.046 133.238 123.918C133.238 123.754 133.178 123.625 133.059 123.531C132.895 123.401 132.655 123.336 132.34 123.336C132.043 123.336 131.799 123.402 131.609 123.535C131.422 123.665 131.285 123.852 131.199 124.094L130.484 124.031C130.63 123.62 130.861 123.305 131.176 123.086C131.493 122.867 131.893 122.758 132.375 122.758C132.888 122.758 133.294 122.88 133.594 123.125C133.823 123.307 133.938 123.544 133.938 123.836C133.938 124.057 133.905 124.314 133.84 124.605L133.609 125.637C133.536 125.965 133.5 126.232 133.5 126.438C133.5 126.568 133.529 126.755 133.586 127H132.871C132.832 126.865 132.805 126.693 132.789 126.484ZM133.051 124.898C132.952 124.938 132.845 124.967 132.73 124.988C132.618 125.009 132.43 125.031 132.164 125.055C131.753 125.091 131.462 125.138 131.293 125.195C131.124 125.25 130.996 125.339 130.91 125.461C130.824 125.583 130.781 125.719 130.781 125.867C130.781 126.065 130.849 126.228 130.984 126.355C131.122 126.483 131.318 126.547 131.57 126.547C131.805 126.547 132.03 126.486 132.246 126.363C132.462 126.238 132.633 126.065 132.758 125.844C132.883 125.622 132.98 125.307 133.051 124.898ZM134.445 127L135.312 122.852H135.953L135.801 123.574C136.079 123.29 136.34 123.083 136.582 122.953C136.824 122.823 137.072 122.758 137.324 122.758C137.66 122.758 137.923 122.849 138.113 123.031C138.306 123.214 138.402 123.457 138.402 123.762C138.402 123.915 138.368 124.158 138.301 124.488L137.773 127H137.066L137.617 124.371C137.672 124.116 137.699 123.927 137.699 123.805C137.699 123.667 137.651 123.555 137.555 123.469C137.461 123.383 137.324 123.34 137.145 123.34C136.783 123.34 136.46 123.47 136.176 123.73C135.895 123.991 135.688 124.438 135.555 125.07L135.152 127H134.445ZM141.695 126.398C141.292 126.862 140.87 127.094 140.43 127.094C140.036 127.094 139.708 126.949 139.445 126.66C139.185 126.368 139.055 125.947 139.055 125.395C139.055 124.889 139.158 124.428 139.363 124.012C139.572 123.592 139.831 123.279 140.141 123.07C140.453 122.862 140.766 122.758 141.078 122.758C141.594 122.758 141.983 123.007 142.246 123.504L142.715 121.273H143.418L142.223 127H141.57L141.695 126.398ZM139.758 125.262C139.758 125.551 139.786 125.779 139.844 125.945C139.901 126.112 139.999 126.251 140.137 126.363C140.275 126.473 140.44 126.527 140.633 126.527C140.953 126.527 141.243 126.361 141.504 126.027C141.853 125.585 142.027 125.038 142.027 124.387C142.027 124.059 141.941 123.802 141.77 123.617C141.598 123.432 141.382 123.34 141.121 123.34C140.952 123.34 140.797 123.378 140.656 123.453C140.518 123.529 140.38 123.658 140.242 123.84C140.107 124.02 139.992 124.249 139.898 124.527C139.805 124.806 139.758 125.051 139.758 125.262ZM148.375 126.484C148.13 126.695 147.895 126.85 147.668 126.949C147.441 127.046 147.199 127.094 146.941 127.094C146.559 127.094 146.25 126.982 146.016 126.758C145.781 126.531 145.664 126.242 145.664 125.891C145.664 125.659 145.716 125.454 145.82 125.277C145.927 125.098 146.068 124.954 146.242 124.848C146.417 124.738 146.63 124.66 146.883 124.613C147.042 124.582 147.342 124.557 147.785 124.539C148.23 124.521 148.549 124.474 148.742 124.398C148.797 124.206 148.824 124.046 148.824 123.918C148.824 123.754 148.764 123.625 148.645 123.531C148.48 123.401 148.241 123.336 147.926 123.336C147.629 123.336 147.385 123.402 147.195 123.535C147.008 123.665 146.871 123.852 146.785 124.094L146.07 124.031C146.216 123.62 146.447 123.305 146.762 123.086C147.079 122.867 147.479 122.758 147.961 122.758C148.474 122.758 148.88 122.88 149.18 123.125C149.409 123.307 149.523 123.544 149.523 123.836C149.523 124.057 149.491 124.314 149.426 124.605L149.195 125.637C149.122 125.965 149.086 126.232 149.086 126.438C149.086 126.568 149.115 126.755 149.172 127H148.457C148.418 126.865 148.391 126.693 148.375 126.484ZM148.637 124.898C148.538 124.938 148.431 124.967 148.316 124.988C148.204 125.009 148.016 125.031 147.75 125.055C147.339 125.091 147.048 125.138 146.879 125.195C146.71 125.25 146.582 125.339 146.496 125.461C146.41 125.583 146.367 125.719 146.367 125.867C146.367 126.065 146.435 126.228 146.57 126.355C146.708 126.483 146.904 126.547 147.156 126.547C147.391 126.547 147.616 126.486 147.832 126.363C148.048 126.238 148.219 126.065 148.344 125.844C148.469 125.622 148.566 125.307 148.637 124.898ZM150.027 127L150.895 122.852H151.602L151.457 123.535C151.72 123.241 151.954 123.038 152.16 122.926C152.368 122.814 152.594 122.758 152.836 122.758C153.094 122.758 153.309 122.827 153.48 122.965C153.655 123.1 153.77 123.29 153.824 123.535C154.035 123.275 154.257 123.081 154.488 122.953C154.723 122.823 154.969 122.758 155.227 122.758C155.573 122.758 155.832 122.84 156.004 123.004C156.178 123.168 156.266 123.398 156.266 123.695C156.266 123.823 156.236 124.034 156.176 124.328L155.617 127H154.91L155.48 124.258C155.53 124.034 155.555 123.874 155.555 123.777C155.555 123.642 155.512 123.535 155.426 123.457C155.34 123.379 155.219 123.34 155.062 123.34C154.852 123.34 154.637 123.404 154.418 123.531C154.199 123.659 154.029 123.827 153.906 124.035C153.786 124.241 153.681 124.559 153.59 124.988L153.168 127H152.461L153.047 124.199C153.089 124.009 153.109 123.874 153.109 123.793C153.109 123.658 153.066 123.548 152.98 123.465C152.897 123.382 152.788 123.34 152.652 123.34C152.452 123.34 152.241 123.404 152.02 123.531C151.801 123.659 151.622 123.837 151.484 124.066C151.346 124.293 151.233 124.617 151.145 125.039L150.734 127H150.027ZM156.695 127L157.891 121.273H158.598L158.172 123.32C158.396 123.115 158.599 122.97 158.781 122.887C158.964 122.801 159.154 122.758 159.352 122.758C159.74 122.758 160.062 122.902 160.32 123.191C160.581 123.48 160.711 123.901 160.711 124.453C160.711 124.82 160.659 125.156 160.555 125.461C160.451 125.766 160.322 126.022 160.168 126.23C160.014 126.436 159.855 126.602 159.691 126.727C159.527 126.849 159.359 126.94 159.188 127C159.016 127.062 158.85 127.094 158.691 127.094C158.418 127.094 158.177 127.022 157.969 126.879C157.76 126.733 157.598 126.512 157.48 126.215L157.316 127H156.695ZM157.742 125.297L157.738 125.43C157.738 125.784 157.823 126.053 157.992 126.238C158.161 126.423 158.372 126.516 158.625 126.516C158.872 126.516 159.099 126.43 159.305 126.258C159.513 126.083 159.684 125.812 159.816 125.445C159.949 125.078 160.016 124.74 160.016 124.43C160.016 124.081 159.931 123.81 159.762 123.617C159.595 123.424 159.388 123.328 159.141 123.328C158.885 123.328 158.651 123.427 158.438 123.625C158.224 123.82 158.046 124.122 157.902 124.531C157.796 124.836 157.742 125.091 157.742 125.297ZM162.152 122.074L162.32 121.273H163.023L162.855 122.074H162.152ZM161.121 127L161.988 122.852H162.695L161.828 127H161.121ZM165.977 125.59L166.664 125.66C166.565 126.001 166.337 126.326 165.98 126.633C165.626 126.94 165.203 127.094 164.711 127.094C164.404 127.094 164.121 127.023 163.863 126.883C163.608 126.74 163.413 126.533 163.277 126.262C163.145 125.991 163.078 125.682 163.078 125.336C163.078 124.883 163.182 124.444 163.391 124.02C163.602 123.592 163.874 123.276 164.207 123.07C164.54 122.862 164.901 122.758 165.289 122.758C165.784 122.758 166.178 122.911 166.473 123.219C166.77 123.526 166.918 123.945 166.918 124.477C166.918 124.68 166.9 124.888 166.863 125.102H163.809C163.798 125.182 163.793 125.255 163.793 125.32C163.793 125.708 163.882 126.005 164.059 126.211C164.238 126.414 164.457 126.516 164.715 126.516C164.957 126.516 165.195 126.436 165.43 126.277C165.664 126.118 165.846 125.889 165.977 125.59ZM163.922 124.562H166.25C166.253 124.49 166.254 124.438 166.254 124.406C166.254 124.052 166.165 123.781 165.988 123.594C165.811 123.404 165.583 123.309 165.305 123.309C165.003 123.309 164.727 123.413 164.477 123.621C164.229 123.829 164.044 124.143 163.922 124.562ZM167.383 127L168.25 122.852H168.891L168.738 123.574C169.017 123.29 169.277 123.083 169.52 122.953C169.762 122.823 170.009 122.758 170.262 122.758C170.598 122.758 170.861 122.849 171.051 123.031C171.243 123.214 171.34 123.457 171.34 123.762C171.34 123.915 171.306 124.158 171.238 124.488L170.711 127H170.004L170.555 124.371C170.609 124.116 170.637 123.927 170.637 123.805C170.637 123.667 170.589 123.555 170.492 123.469C170.398 123.383 170.262 123.34 170.082 123.34C169.72 123.34 169.397 123.47 169.113 123.73C168.832 123.991 168.625 124.438 168.492 125.07L168.09 127H167.383ZM174.699 125.488L175.406 125.562C175.229 126.081 174.977 126.466 174.648 126.719C174.323 126.969 173.952 127.094 173.535 127.094C173.085 127.094 172.719 126.948 172.438 126.656C172.159 126.365 172.02 125.957 172.02 125.434C172.02 124.98 172.109 124.535 172.289 124.098C172.469 123.66 172.725 123.328 173.059 123.102C173.395 122.872 173.777 122.758 174.207 122.758C174.652 122.758 175.005 122.884 175.266 123.137C175.526 123.387 175.656 123.719 175.656 124.133L174.961 124.18C174.958 123.917 174.882 123.711 174.73 123.562C174.582 123.414 174.385 123.34 174.141 123.34C173.857 123.34 173.611 123.43 173.402 123.609C173.194 123.789 173.03 124.062 172.91 124.43C172.793 124.794 172.734 125.146 172.734 125.484C172.734 125.839 172.812 126.104 172.969 126.281C173.125 126.458 173.318 126.547 173.547 126.547C173.776 126.547 173.995 126.46 174.203 126.285C174.414 126.111 174.579 125.845 174.699 125.488ZM178.883 125.59L179.57 125.66C179.471 126.001 179.243 126.326 178.887 126.633C178.533 126.94 178.109 127.094 177.617 127.094C177.31 127.094 177.027 127.023 176.77 126.883C176.514 126.74 176.319 126.533 176.184 126.262C176.051 125.991 175.984 125.682 175.984 125.336C175.984 124.883 176.089 124.444 176.297 124.02C176.508 123.592 176.78 123.276 177.113 123.07C177.447 122.862 177.807 122.758 178.195 122.758C178.69 122.758 179.085 122.911 179.379 123.219C179.676 123.526 179.824 123.945 179.824 124.477C179.824 124.68 179.806 124.888 179.77 125.102H176.715C176.704 125.182 176.699 125.255 176.699 125.32C176.699 125.708 176.788 126.005 176.965 126.211C177.145 126.414 177.363 126.516 177.621 126.516C177.863 126.516 178.102 126.436 178.336 126.277C178.57 126.118 178.753 125.889 178.883 125.59ZM176.828 124.562H179.156C179.159 124.49 179.16 124.438 179.16 124.406C179.16 124.052 179.072 123.781 178.895 123.594C178.717 123.404 178.49 123.309 178.211 123.309C177.909 123.309 177.633 123.413 177.383 123.621C177.135 123.829 176.951 124.143 176.828 124.562ZM180.484 127L180.652 126.199H181.453L181.281 127H180.484ZM185.828 127L185.477 121.273H186.254L186.387 124.105C186.395 124.241 186.408 124.608 186.426 125.207C186.431 125.374 186.434 125.491 186.434 125.559C186.434 125.603 186.432 125.732 186.43 125.945C186.747 125.294 186.977 124.836 187.117 124.57L188.859 121.273H189.648L189.84 124.621C189.861 125.004 189.875 125.465 189.883 126.004C189.93 125.871 190.013 125.673 190.133 125.41C190.323 124.986 190.464 124.682 190.555 124.5L192.188 121.273H192.969L190.055 127H189.234L189.043 123.531C189.025 123.234 189.01 122.87 189 122.438C188.841 122.799 188.708 123.081 188.602 123.281L186.617 127H185.828ZM195.195 125.59L195.883 125.66C195.784 126.001 195.556 126.326 195.199 126.633C194.845 126.94 194.422 127.094 193.93 127.094C193.622 127.094 193.34 127.023 193.082 126.883C192.827 126.74 192.632 126.533 192.496 126.262C192.363 125.991 192.297 125.682 192.297 125.336C192.297 124.883 192.401 124.444 192.609 124.02C192.82 123.592 193.092 123.276 193.426 123.07C193.759 122.862 194.12 122.758 194.508 122.758C195.003 122.758 195.397 122.911 195.691 123.219C195.988 123.526 196.137 123.945 196.137 124.477C196.137 124.68 196.118 124.888 196.082 125.102H193.027C193.017 125.182 193.012 125.255 193.012 125.32C193.012 125.708 193.1 126.005 193.277 126.211C193.457 126.414 193.676 126.516 193.934 126.516C194.176 126.516 194.414 126.436 194.648 126.277C194.883 126.118 195.065 125.889 195.195 125.59ZM193.141 124.562H195.469C195.471 124.49 195.473 124.438 195.473 124.406C195.473 124.052 195.384 123.781 195.207 123.594C195.03 123.404 194.802 123.309 194.523 123.309C194.221 123.309 193.945 123.413 193.695 123.621C193.448 123.829 193.263 124.143 193.141 124.562ZM197.352 123.301L197.398 122.23L197.602 121.273H198.406L198.199 122.23L197.789 123.301H197.352ZM198.078 127L199.273 121.273H199.98L198.785 127H198.078ZM199.859 127L201.055 121.273H201.762L200.566 127H199.859ZM203.922 127L205.117 121.273H205.824L205.398 123.32C205.622 123.115 205.826 122.97 206.008 122.887C206.19 122.801 206.38 122.758 206.578 122.758C206.966 122.758 207.289 122.902 207.547 123.191C207.807 123.48 207.938 123.901 207.938 124.453C207.938 124.82 207.885 125.156 207.781 125.461C207.677 125.766 207.548 126.022 207.395 126.23C207.241 126.436 207.082 126.602 206.918 126.727C206.754 126.849 206.586 126.94 206.414 127C206.242 127.062 206.077 127.094 205.918 127.094C205.645 127.094 205.404 127.022 205.195 126.879C204.987 126.733 204.824 126.512 204.707 126.215L204.543 127H203.922ZM204.969 125.297L204.965 125.43C204.965 125.784 205.049 126.053 205.219 126.238C205.388 126.423 205.599 126.516 205.852 126.516C206.099 126.516 206.326 126.43 206.531 126.258C206.74 126.083 206.91 125.812 207.043 125.445C207.176 125.078 207.242 124.74 207.242 124.43C207.242 124.081 207.158 123.81 206.988 123.617C206.822 123.424 206.615 123.328 206.367 123.328C206.112 123.328 205.878 123.427 205.664 123.625C205.451 123.82 205.272 124.122 205.129 124.531C205.022 124.836 204.969 125.091 204.969 125.297ZM211.422 125.59L212.109 125.66C212.01 126.001 211.783 126.326 211.426 126.633C211.072 126.94 210.648 127.094 210.156 127.094C209.849 127.094 209.566 127.023 209.309 126.883C209.053 126.74 208.858 126.533 208.723 126.262C208.59 125.991 208.523 125.682 208.523 125.336C208.523 124.883 208.628 124.444 208.836 124.02C209.047 123.592 209.319 123.276 209.652 123.07C209.986 122.862 210.346 122.758 210.734 122.758C211.229 122.758 211.624 122.911 211.918 123.219C212.215 123.526 212.363 123.945 212.363 124.477C212.363 124.68 212.345 124.888 212.309 125.102H209.254C209.243 125.182 209.238 125.255 209.238 125.32C209.238 125.708 209.327 126.005 209.504 126.211C209.684 126.414 209.902 126.516 210.16 126.516C210.402 126.516 210.641 126.436 210.875 126.277C211.109 126.118 211.292 125.889 211.422 125.59ZM209.367 124.562H211.695C211.698 124.49 211.699 124.438 211.699 124.406C211.699 124.052 211.611 123.781 211.434 123.594C211.257 123.404 211.029 123.309 210.75 123.309C210.448 123.309 210.172 123.413 209.922 123.621C209.674 123.829 209.49 124.143 209.367 124.562ZM215.055 127L215.922 122.852H216.547L216.371 123.699C216.585 123.379 216.793 123.142 216.996 122.988C217.202 122.835 217.411 122.758 217.625 122.758C217.766 122.758 217.939 122.809 218.145 122.91L217.855 123.566C217.733 123.478 217.599 123.434 217.453 123.434C217.206 123.434 216.952 123.572 216.691 123.848C216.431 124.124 216.227 124.62 216.078 125.336L215.727 127H215.055ZM220.766 125.59L221.453 125.66C221.354 126.001 221.126 126.326 220.77 126.633C220.415 126.94 219.992 127.094 219.5 127.094C219.193 127.094 218.91 127.023 218.652 126.883C218.397 126.74 218.202 126.533 218.066 126.262C217.934 125.991 217.867 125.682 217.867 125.336C217.867 124.883 217.971 124.444 218.18 124.02C218.391 123.592 218.663 123.276 218.996 123.07C219.329 122.862 219.69 122.758 220.078 122.758C220.573 122.758 220.967 122.911 221.262 123.219C221.559 123.526 221.707 123.945 221.707 124.477C221.707 124.68 221.689 124.888 221.652 125.102H218.598C218.587 125.182 218.582 125.255 218.582 125.32C218.582 125.708 218.671 126.005 218.848 126.211C219.027 126.414 219.246 126.516 219.504 126.516C219.746 126.516 219.984 126.436 220.219 126.277C220.453 126.118 220.635 125.889 220.766 125.59ZM218.711 124.562H221.039C221.042 124.49 221.043 124.438 221.043 124.406C221.043 124.052 220.954 123.781 220.777 123.594C220.6 123.404 220.372 123.309 220.094 123.309C219.792 123.309 219.516 123.413 219.266 123.621C219.018 123.829 218.833 124.143 218.711 124.562ZM223.824 126.426L223.707 127.004C223.538 127.048 223.374 127.07 223.215 127.07C222.934 127.07 222.71 127.001 222.543 126.863C222.418 126.759 222.355 126.617 222.355 126.438C222.355 126.346 222.389 126.137 222.457 125.809L222.961 123.398H222.402L222.516 122.852H223.074L223.289 121.832L224.098 121.344L223.781 122.852H224.477L224.359 123.398H223.668L223.188 125.691C223.128 125.983 223.098 126.158 223.098 126.215C223.098 126.298 223.121 126.362 223.168 126.406C223.217 126.451 223.297 126.473 223.406 126.473C223.562 126.473 223.702 126.457 223.824 126.426ZM227.23 126.25C226.733 126.812 226.224 127.094 225.703 127.094C225.383 127.094 225.124 127.003 224.926 126.82C224.73 126.635 224.633 126.41 224.633 126.145C224.633 125.97 224.677 125.671 224.766 125.246L225.266 122.852H225.973L225.418 125.504C225.371 125.725 225.348 125.897 225.348 126.02C225.348 126.176 225.395 126.298 225.488 126.387C225.585 126.473 225.725 126.516 225.91 126.516C226.108 126.516 226.301 126.467 226.488 126.371C226.678 126.275 226.841 126.145 226.977 125.98C227.115 125.816 227.227 125.622 227.312 125.398C227.37 125.255 227.436 125.004 227.512 124.645L227.887 122.852H228.594L227.727 127H227.074L227.23 126.25ZM228.852 127L229.719 122.852H230.344L230.168 123.699C230.382 123.379 230.59 123.142 230.793 122.988C230.999 122.835 231.208 122.758 231.422 122.758C231.562 122.758 231.736 122.809 231.941 122.91L231.652 123.566C231.53 123.478 231.396 123.434 231.25 123.434C231.003 123.434 230.749 123.572 230.488 123.848C230.228 124.124 230.023 124.62 229.875 125.336L229.523 127H228.852ZM231.516 127L232.383 122.852H233.023L232.871 123.574C233.15 123.29 233.41 123.083 233.652 122.953C233.895 122.823 234.142 122.758 234.395 122.758C234.73 122.758 234.993 122.849 235.184 123.031C235.376 123.214 235.473 123.457 235.473 123.762C235.473 123.915 235.439 124.158 235.371 124.488L234.844 127H234.137L234.688 124.371C234.742 124.116 234.77 123.927 234.77 123.805C234.77 123.667 234.721 123.555 234.625 123.469C234.531 123.383 234.395 123.34 234.215 123.34C233.853 123.34 233.53 123.47 233.246 123.73C232.965 123.991 232.758 124.438 232.625 125.07L232.223 127H231.516ZM236.973 122.074L237.141 121.273H237.844L237.676 122.074H236.973ZM235.941 127L236.809 122.852H237.516L236.648 127H235.941ZM237.75 127L238.617 122.852H239.258L239.105 123.574C239.384 123.29 239.645 123.083 239.887 122.953C240.129 122.823 240.376 122.758 240.629 122.758C240.965 122.758 241.228 122.849 241.418 123.031C241.611 123.214 241.707 123.457 241.707 123.762C241.707 123.915 241.673 124.158 241.605 124.488L241.078 127H240.371L240.922 124.371C240.977 124.116 241.004 123.927 241.004 123.805C241.004 123.667 240.956 123.555 240.859 123.469C240.766 123.383 240.629 123.34 240.449 123.34C240.087 123.34 239.764 123.47 239.48 123.73C239.199 123.991 238.992 124.438 238.859 125.07L238.457 127H237.75ZM242.164 127.375L242.879 127.441C242.874 127.603 242.893 127.724 242.938 127.805C242.982 127.885 243.052 127.948 243.148 127.992C243.276 128.049 243.441 128.078 243.645 128.078C244.072 128.078 244.379 127.967 244.566 127.746C244.689 127.598 244.802 127.275 244.906 126.777L244.977 126.441C244.609 126.814 244.219 127 243.805 127C243.385 127 243.034 126.846 242.75 126.539C242.469 126.229 242.328 125.792 242.328 125.227C242.328 124.76 242.439 124.332 242.66 123.941C242.884 123.551 243.15 123.257 243.457 123.059C243.764 122.858 244.081 122.758 244.406 122.758C244.951 122.758 245.37 123.016 245.664 123.531L245.805 122.852H246.453L245.617 126.855C245.526 127.296 245.406 127.638 245.258 127.883C245.109 128.13 244.902 128.322 244.637 128.457C244.374 128.592 244.069 128.66 243.723 128.66C243.389 128.66 243.102 128.617 242.859 128.531C242.62 128.445 242.44 128.319 242.32 128.152C242.203 127.988 242.145 127.799 242.145 127.586C242.145 127.521 242.151 127.451 242.164 127.375ZM243.047 125.164C243.047 125.448 243.074 125.661 243.129 125.805C243.207 126.005 243.318 126.159 243.461 126.266C243.607 126.37 243.768 126.422 243.945 126.422C244.177 126.422 244.408 126.341 244.637 126.18C244.866 126.016 245.051 125.763 245.191 125.422C245.335 125.081 245.406 124.755 245.406 124.445C245.406 124.104 245.311 123.833 245.121 123.633C244.934 123.43 244.701 123.328 244.422 123.328C244.25 123.328 244.083 123.375 243.922 123.469C243.76 123.56 243.609 123.701 243.469 123.891C243.331 124.078 243.225 124.303 243.152 124.566C243.082 124.829 243.047 125.029 243.047 125.164ZM247.285 125.555L247.719 122.445L247.965 121.273H248.82L248.555 122.543L247.727 125.555H247.285ZM246.84 127L247.008 126.199H247.805L247.637 127H246.84Z" fill="black"/>
</g>
<defs>
<filter id="filter0_d_1368_874" x="17" y="37" width="264" height="128" filterUnits="userSpaceOnUse" color-interpolation-filters="sRGB">
<feFlood flood-opacity="0" result="BackgroundImageFix"/>
<feColorMatrix in="SourceAlpha" type="matrix" values="0 0 0 0 0 0 0 0 0 0 0 0 0 0 0 0 0 0 127 0" result="hardAlpha"/>
<feOffset dy="3"/>
<feGaussianBlur stdDeviation="6"/>
<feComposite in2="hardAlpha" operator="out"/>
<feColorMatrix type="matrix" values="0 0 0 0 0 0 0 0 0 0 0 0 0 0 0 0 0 0 0.25 0"/>
<feBlend mode="normal" in2="BackgroundImageFix" result="effect1_dropShadow_1368_874"/>
<feBlend mode="normal" in="SourceGraphic" in2="effect1_dropShadow_1368_874" result="shape"/>
</filter>
<filter id="filter1_d_1368_874" x="17" y="151" width="264" height="128" filterUnits="userSpaceOnUse" color-interpolation-filters="sRGB">
<feFlood flood-opacity="0" result="BackgroundImageFix"/>
<feColorMatrix in="SourceAlpha" type="matrix" values="0 0 0 0 0 0 0 0 0 0 0 0 0 0 0 0 0 0 127 0" result="hardAlpha"/>
<feOffset dy="3"/>
<feGaussianBlur stdDeviation="6"/>
<feComposite in2="hardAlpha" operator="out"/>
<feColorMatrix type="matrix" values="0 0 0 0 0 0 0 0 0 0 0 0 0 0 0 0 0 0 0.25 0"/>
<feBlend mode="normal" in2="BackgroundImageFix" result="effect1_dropShadow_1368_874"/>
<feBlend mode="normal" in="SourceGraphic" in2="effect1_dropShadow_1368_874" result="shape"/>
</filter>
<clipPath id="clip0_1368_874">
<rect width="300" height="180" fill="white"/>
</clipPath>
</defs>
</svg>
