<svg width="300" height="180" viewBox="0 0 300 180" fill="none" xmlns="http://www.w3.org/2000/svg">
<rect width="300" height="180" fill="#84ADAD"/>
<path d="M86.7305 58V43.6836H89.6211V50.041L95.4609 43.6836H99.3477L93.957 49.2598L99.6406 58H95.9004L91.9648 51.2812L89.6211 53.6738V58H86.7305ZM99.8262 47.6289H102.746L105.227 54.9922L107.648 47.6289H110.49L106.828 57.6094L106.174 59.416C105.933 60.0215 105.702 60.4837 105.48 60.8027C105.266 61.1217 105.015 61.3789 104.729 61.5742C104.449 61.776 104.1 61.9323 103.684 62.043C103.273 62.1536 102.808 62.209 102.287 62.209C101.76 62.209 101.242 62.1536 100.734 62.043L100.49 59.8945C100.92 59.9792 101.307 60.0215 101.652 60.0215C102.29 60.0215 102.762 59.8327 103.068 59.4551C103.374 59.084 103.609 58.6087 103.771 58.0293L99.8262 47.6289ZM112.258 58V43.6836H115.002V58H112.258ZM123.83 54.6992L126.564 55.1582C126.213 56.1608 125.656 56.9258 124.895 57.4531C124.139 57.974 123.192 58.2344 122.053 58.2344C120.249 58.2344 118.915 57.6452 118.049 56.4668C117.365 55.5228 117.023 54.3314 117.023 52.8926C117.023 51.1738 117.473 49.8294 118.371 48.8594C119.27 47.8828 120.406 47.3945 121.779 47.3945C123.322 47.3945 124.54 47.9056 125.432 48.9277C126.324 49.9434 126.75 51.5026 126.711 53.6055H119.836C119.855 54.4193 120.077 55.054 120.5 55.5098C120.923 55.959 121.451 56.1836 122.082 56.1836C122.512 56.1836 122.873 56.0664 123.166 55.832C123.459 55.5977 123.68 55.2201 123.83 54.6992ZM123.986 51.9258C123.967 51.1315 123.762 50.5293 123.371 50.1191C122.98 49.7025 122.505 49.4941 121.945 49.4941C121.346 49.4941 120.852 49.7122 120.461 50.1484C120.07 50.5846 119.878 51.1771 119.885 51.9258H123.986ZM128.938 48.7715L128.42 46.1055V43.6836H131.408V46.1055L130.959 48.7715H128.938ZM132.756 55.041L135.51 54.6211C135.627 55.1549 135.865 55.5618 136.223 55.8418C136.581 56.1152 137.082 56.252 137.727 56.252C138.436 56.252 138.97 56.1217 139.328 55.8613C139.569 55.679 139.689 55.4349 139.689 55.1289C139.689 54.9206 139.624 54.748 139.494 54.6113C139.357 54.4811 139.051 54.3607 138.576 54.25C136.363 53.7617 134.96 53.3158 134.367 52.9121C133.547 52.3522 133.137 51.5742 133.137 50.5781C133.137 49.6797 133.492 48.9245 134.201 48.3125C134.911 47.7005 136.011 47.3945 137.502 47.3945C138.921 47.3945 139.976 47.6257 140.666 48.0879C141.356 48.5501 141.831 49.2337 142.092 50.1387L139.504 50.6172C139.393 50.2135 139.182 49.9043 138.869 49.6895C138.563 49.4746 138.124 49.3672 137.551 49.3672C136.828 49.3672 136.311 49.4681 135.998 49.6699C135.79 49.8132 135.686 49.9987 135.686 50.2266C135.686 50.4219 135.777 50.5879 135.959 50.7246C136.206 50.9069 137.059 51.1641 138.518 51.4961C139.982 51.8281 141.005 52.235 141.584 52.7168C142.157 53.2051 142.443 53.8854 142.443 54.7578C142.443 55.7083 142.046 56.5254 141.252 57.209C140.458 57.8926 139.283 58.2344 137.727 58.2344C136.314 58.2344 135.194 57.9479 134.367 57.375C133.547 56.8021 133.01 56.0241 132.756 55.041ZM150.451 43.6836H156.174C157.307 43.6836 158.15 43.7324 158.703 43.8301C159.263 43.9212 159.761 44.1165 160.197 44.416C160.64 44.7155 161.008 45.1159 161.301 45.6172C161.594 46.112 161.74 46.6686 161.74 47.2871C161.74 47.9577 161.558 48.5729 161.193 49.1328C160.835 49.6927 160.347 50.1126 159.729 50.3926C160.601 50.6465 161.271 51.0794 161.74 51.6914C162.209 52.3034 162.443 53.0228 162.443 53.8496C162.443 54.5007 162.29 55.1354 161.984 55.7539C161.685 56.3659 161.271 56.8574 160.744 57.2285C160.223 57.5931 159.579 57.8177 158.811 57.9023C158.329 57.9544 157.167 57.987 155.324 58H150.451V43.6836ZM153.342 46.0664V49.377H155.236C156.363 49.377 157.062 49.3607 157.336 49.3281C157.831 49.2695 158.218 49.1003 158.498 48.8203C158.785 48.5339 158.928 48.1595 158.928 47.6973C158.928 47.2546 158.804 46.8965 158.557 46.623C158.316 46.3431 157.954 46.1738 157.473 46.1152C157.186 46.0827 156.363 46.0664 155.002 46.0664H153.342ZM153.342 51.7598V55.5879H156.018C157.059 55.5879 157.72 55.5586 158 55.5C158.43 55.4219 158.778 55.2331 159.045 54.9336C159.318 54.6276 159.455 54.2207 159.455 53.7129C159.455 53.2832 159.351 52.9186 159.143 52.6191C158.934 52.3197 158.632 52.1016 158.234 51.9648C157.844 51.8281 156.991 51.7598 155.676 51.7598H153.342ZM166.926 50.793L164.436 50.3438C164.715 49.3411 165.197 48.599 165.881 48.1172C166.564 47.6354 167.58 47.3945 168.928 47.3945C170.152 47.3945 171.063 47.541 171.662 47.834C172.261 48.1204 172.681 48.4883 172.922 48.9375C173.169 49.3802 173.293 50.1973 173.293 51.3887L173.264 54.5918C173.264 55.5033 173.306 56.1771 173.391 56.6133C173.482 57.043 173.648 57.5052 173.889 58H171.174C171.102 57.8177 171.014 57.5475 170.91 57.1895C170.865 57.0267 170.832 56.9193 170.812 56.8672C170.344 57.3229 169.842 57.6647 169.309 57.8926C168.775 58.1204 168.205 58.2344 167.6 58.2344C166.532 58.2344 165.689 57.9447 165.07 57.3652C164.458 56.7858 164.152 56.0534 164.152 55.168C164.152 54.582 164.292 54.0612 164.572 53.6055C164.852 53.1432 165.243 52.7917 165.744 52.5508C166.252 52.3034 166.981 52.0885 167.932 51.9062C169.214 51.6654 170.103 51.4408 170.598 51.2324V50.959C170.598 50.4316 170.467 50.0573 170.207 49.8359C169.947 49.6081 169.455 49.4941 168.732 49.4941C168.244 49.4941 167.863 49.5918 167.59 49.7871C167.316 49.9759 167.095 50.3112 166.926 50.793ZM170.598 53.0195C170.246 53.1367 169.689 53.2767 168.928 53.4395C168.166 53.6022 167.668 53.7617 167.434 53.918C167.076 54.1719 166.896 54.4941 166.896 54.8848C166.896 55.2689 167.04 55.6009 167.326 55.8809C167.613 56.1608 167.977 56.3008 168.42 56.3008C168.915 56.3008 169.387 56.138 169.836 55.8125C170.168 55.5651 170.386 55.2624 170.49 54.9043C170.562 54.6699 170.598 54.224 170.598 53.5664V53.0195ZM175.91 58V43.6836H178.654V51.2812L181.867 47.6289H185.246L181.701 51.418L185.5 58H182.541L179.934 53.3418L178.654 54.6797V58H175.91ZM193.146 54.6992L195.881 55.1582C195.529 56.1608 194.973 56.9258 194.211 57.4531C193.456 57.974 192.508 58.2344 191.369 58.2344C189.566 58.2344 188.231 57.6452 187.365 56.4668C186.682 55.5228 186.34 54.3314 186.34 52.8926C186.34 51.1738 186.789 49.8294 187.688 48.8594C188.586 47.8828 189.722 47.3945 191.096 47.3945C192.639 47.3945 193.856 47.9056 194.748 48.9277C195.64 49.9434 196.066 51.5026 196.027 53.6055H189.152C189.172 54.4193 189.393 55.054 189.816 55.5098C190.24 55.959 190.767 56.1836 191.398 56.1836C191.828 56.1836 192.189 56.0664 192.482 55.832C192.775 55.5977 192.997 55.2201 193.146 54.6992ZM193.303 51.9258C193.283 51.1315 193.078 50.5293 192.688 50.1191C192.297 49.7025 191.822 49.4941 191.262 49.4941C190.663 49.4941 190.168 49.7122 189.777 50.1484C189.387 50.5846 189.195 51.1771 189.201 51.9258H193.303ZM200.9 58H198.156V47.6289H200.705V49.1035C201.141 48.4069 201.532 47.9479 201.877 47.7266C202.229 47.5052 202.626 47.3945 203.068 47.3945C203.693 47.3945 204.296 47.5671 204.875 47.9121L204.025 50.3047C203.563 50.0052 203.133 49.8555 202.736 49.8555C202.352 49.8555 202.027 49.9629 201.76 50.1777C201.493 50.3861 201.281 50.7669 201.125 51.3203C200.975 51.8737 200.9 53.0326 200.9 54.7969V58ZM204.768 47.6289H207.688L210.168 54.9922L212.59 47.6289H215.432L211.77 57.6094L211.115 59.416C210.874 60.0215 210.643 60.4837 210.422 60.8027C210.207 61.1217 209.956 61.3789 209.67 61.5742C209.39 61.776 209.042 61.9323 208.625 62.043C208.215 62.1536 207.749 62.209 207.229 62.209C206.701 62.209 206.184 62.1536 205.676 62.043L205.432 59.8945C205.861 59.9792 206.249 60.0215 206.594 60.0215C207.232 60.0215 207.704 59.8327 208.01 59.4551C208.316 59.084 208.55 58.6087 208.713 58.0293L204.768 47.6289Z" fill="white"/>
<path d="M135.447 125V116.41H136.584V119.938H141.049V116.41H142.186V125H141.049V120.951H136.584V125H135.447ZM143.557 121.889C143.557 120.736 143.877 119.883 144.518 119.328C145.053 118.867 145.705 118.637 146.475 118.637C147.33 118.637 148.029 118.918 148.572 119.48C149.115 120.039 149.387 120.812 149.387 121.801C149.387 122.602 149.266 123.232 149.023 123.693C148.785 124.15 148.436 124.506 147.975 124.76C147.518 125.014 147.018 125.141 146.475 125.141C145.604 125.141 144.898 124.861 144.359 124.303C143.824 123.744 143.557 122.939 143.557 121.889ZM144.641 121.889C144.641 122.686 144.814 123.283 145.162 123.682C145.51 124.076 145.947 124.273 146.475 124.273C146.998 124.273 147.434 124.074 147.781 123.676C148.129 123.277 148.303 122.67 148.303 121.854C148.303 121.084 148.127 120.502 147.775 120.107C147.428 119.709 146.994 119.51 146.475 119.51C145.947 119.51 145.51 119.707 145.162 120.102C144.814 120.496 144.641 121.092 144.641 121.889ZM150.629 125V118.777H151.572V119.65C151.768 119.346 152.027 119.102 152.352 118.918C152.676 118.73 153.045 118.637 153.459 118.637C153.92 118.637 154.297 118.732 154.59 118.924C154.887 119.115 155.096 119.383 155.217 119.727C155.709 119 156.35 118.637 157.139 118.637C157.756 118.637 158.23 118.809 158.562 119.152C158.895 119.492 159.061 120.018 159.061 120.729V125H158.012V121.08C158.012 120.658 157.977 120.355 157.906 120.172C157.84 119.984 157.717 119.834 157.537 119.721C157.357 119.607 157.146 119.551 156.904 119.551C156.467 119.551 156.104 119.697 155.814 119.99C155.525 120.279 155.381 120.744 155.381 121.385V125H154.326V120.957C154.326 120.488 154.24 120.137 154.068 119.902C153.896 119.668 153.615 119.551 153.225 119.551C152.928 119.551 152.652 119.629 152.398 119.785C152.148 119.941 151.967 120.17 151.854 120.471C151.74 120.771 151.684 121.205 151.684 121.771V125H150.629ZM164.885 122.996L165.975 123.131C165.803 123.768 165.484 124.262 165.02 124.613C164.555 124.965 163.961 125.141 163.238 125.141C162.328 125.141 161.605 124.861 161.07 124.303C160.539 123.74 160.273 122.953 160.273 121.941C160.273 120.895 160.543 120.082 161.082 119.504C161.621 118.926 162.32 118.637 163.18 118.637C164.012 118.637 164.691 118.92 165.219 119.486C165.746 120.053 166.01 120.85 166.01 121.877C166.01 121.939 166.008 122.033 166.004 122.158H161.363C161.402 122.842 161.596 123.365 161.943 123.729C162.291 124.092 162.725 124.273 163.244 124.273C163.631 124.273 163.961 124.172 164.234 123.969C164.508 123.766 164.725 123.441 164.885 122.996ZM161.422 121.291H164.896C164.85 120.768 164.717 120.375 164.498 120.113C164.162 119.707 163.727 119.504 163.191 119.504C162.707 119.504 162.299 119.666 161.967 119.99C161.639 120.314 161.457 120.748 161.422 121.291Z" fill="white"/>
<path d="M20.6719 95V89.2734H21.7969L24.1406 93.0977V89.2734H25.2148V95H24.0547L21.7461 91.2656V95H20.6719ZM27.2539 92.1172L26.2578 91.9375C26.3698 91.5365 26.5625 91.2396 26.8359 91.0469C27.1094 90.8542 27.5156 90.7578 28.0547 90.7578C28.5443 90.7578 28.9089 90.8164 29.1484 90.9336C29.388 91.0482 29.556 91.1953 29.6523 91.375C29.7513 91.5521 29.8008 91.8789 29.8008 92.3555L29.7891 93.6367C29.7891 94.0013 29.806 94.2708 29.8398 94.4453C29.8763 94.6172 29.9427 94.8021 30.0391 95H28.9531C28.9245 94.9271 28.8893 94.819 28.8477 94.6758C28.8294 94.6107 28.8164 94.5677 28.8086 94.5469C28.6211 94.7292 28.4206 94.8659 28.207 94.957C27.9935 95.0482 27.7656 95.0938 27.5234 95.0938C27.0964 95.0938 26.7591 94.9779 26.5117 94.7461C26.2669 94.5143 26.1445 94.2214 26.1445 93.8672C26.1445 93.6328 26.2005 93.4245 26.3125 93.2422C26.4245 93.0573 26.5807 92.9167 26.7812 92.8203C26.9844 92.7214 27.276 92.6354 27.6562 92.5625C28.1693 92.4661 28.5247 92.3763 28.7227 92.293V92.1836C28.7227 91.9727 28.6706 91.8229 28.5664 91.7344C28.4622 91.6432 28.2656 91.5977 27.9766 91.5977C27.7812 91.5977 27.6289 91.6367 27.5195 91.7148C27.4102 91.7904 27.3216 91.9245 27.2539 92.1172ZM28.7227 93.0078C28.582 93.0547 28.3594 93.1107 28.0547 93.1758C27.75 93.2409 27.5508 93.3047 27.457 93.3672C27.3138 93.4688 27.2422 93.5977 27.2422 93.7539C27.2422 93.9076 27.2995 94.0404 27.4141 94.1523C27.5286 94.2643 27.6745 94.3203 27.8516 94.3203C28.0495 94.3203 28.2383 94.2552 28.418 94.125C28.5508 94.026 28.638 93.9049 28.6797 93.7617C28.7083 93.668 28.7227 93.4896 28.7227 93.2266V93.0078ZM32.0273 95L30.3555 90.8516H31.5078L32.2891 92.9688L32.5156 93.6758C32.5755 93.4961 32.6133 93.3776 32.6289 93.3203C32.6654 93.2031 32.7044 93.0859 32.7461 92.9688L33.5352 90.8516H34.6641L33.0156 95H32.0273ZM35.293 95V89.2734H36.3906V91.3359C36.7292 90.9505 37.1302 90.7578 37.5938 90.7578C38.099 90.7578 38.5169 90.9414 38.8477 91.3086C39.1784 91.6732 39.3438 92.1979 39.3438 92.8828C39.3438 93.5911 39.1745 94.1367 38.8359 94.5195C38.5 94.9023 38.0911 95.0938 37.6094 95.0938C37.3724 95.0938 37.138 95.0352 36.9062 94.918C36.6771 94.7982 36.4792 94.6224 36.3125 94.3906V95H35.293ZM36.3828 92.8359C36.3828 93.2656 36.4505 93.5833 36.5859 93.7891C36.776 94.0807 37.0286 94.2266 37.3438 94.2266C37.5859 94.2266 37.7917 94.1237 37.9609 93.918C38.1328 93.7096 38.2188 93.3828 38.2188 92.9375C38.2188 92.4635 38.1328 92.1224 37.9609 91.9141C37.7891 91.7031 37.569 91.5977 37.3008 91.5977C37.0378 91.5977 36.819 91.7005 36.6445 91.9062C36.4701 92.1094 36.3828 92.4193 36.3828 92.8359ZM41.0508 92.1172L40.0547 91.9375C40.1667 91.5365 40.3594 91.2396 40.6328 91.0469C40.9062 90.8542 41.3125 90.7578 41.8516 90.7578C42.3411 90.7578 42.7057 90.8164 42.9453 90.9336C43.1849 91.0482 43.3529 91.1953 43.4492 91.375C43.5482 91.5521 43.5977 91.8789 43.5977 92.3555L43.5859 93.6367C43.5859 94.0013 43.6029 94.2708 43.6367 94.4453C43.6732 94.6172 43.7396 94.8021 43.8359 95H42.75C42.7214 94.9271 42.6862 94.819 42.6445 94.6758C42.6263 94.6107 42.6133 94.5677 42.6055 94.5469C42.418 94.7292 42.2174 94.8659 42.0039 94.957C41.7904 95.0482 41.5625 95.0938 41.3203 95.0938C40.8932 95.0938 40.556 94.9779 40.3086 94.7461C40.0638 94.5143 39.9414 94.2214 39.9414 93.8672C39.9414 93.6328 39.9974 93.4245 40.1094 93.2422C40.2214 93.0573 40.3776 92.9167 40.5781 92.8203C40.7812 92.7214 41.0729 92.6354 41.4531 92.5625C41.9661 92.4661 42.3216 92.3763 42.5195 92.293V92.1836C42.5195 91.9727 42.4674 91.8229 42.3633 91.7344C42.2591 91.6432 42.0625 91.5977 41.7734 91.5977C41.5781 91.5977 41.4258 91.6367 41.3164 91.7148C41.207 91.7904 41.1185 91.9245 41.0508 92.1172ZM42.5195 93.0078C42.3789 93.0547 42.1562 93.1107 41.8516 93.1758C41.5469 93.2409 41.3477 93.3047 41.2539 93.3672C41.1107 93.4688 41.0391 93.5977 41.0391 93.7539C41.0391 93.9076 41.0964 94.0404 41.2109 94.1523C41.3255 94.2643 41.4714 94.3203 41.6484 94.3203C41.8464 94.3203 42.0352 94.2552 42.2148 94.125C42.3477 94.026 42.4349 93.9049 42.4766 93.7617C42.5052 93.668 42.5195 93.4896 42.5195 93.2266V93.0078ZM45.7344 95H44.6367V90.8516H45.6562V91.4414C45.8307 91.1628 45.987 90.9792 46.125 90.8906C46.2656 90.8021 46.4245 90.7578 46.6016 90.7578C46.8516 90.7578 47.0924 90.8268 47.3242 90.9648L46.9844 91.9219C46.7995 91.8021 46.6276 91.7422 46.4688 91.7422C46.3151 91.7422 46.1849 91.7852 46.0781 91.8711C45.9714 91.9544 45.8867 92.1068 45.8242 92.3281C45.7643 92.5495 45.7344 93.013 45.7344 93.7188V95ZM49.8008 92.1719C49.8008 91.5885 49.888 91.099 50.0625 90.7031C50.1927 90.4115 50.3698 90.1497 50.5938 89.918C50.8203 89.6862 51.0677 89.5143 51.3359 89.4023C51.6927 89.2513 52.1042 89.1758 52.5703 89.1758C53.4141 89.1758 54.0885 89.4375 54.5938 89.9609C55.1016 90.4844 55.3555 91.2122 55.3555 92.1445C55.3555 93.069 55.1042 93.793 54.6016 94.3164C54.099 94.8372 53.4271 95.0977 52.5859 95.0977C51.7344 95.0977 51.0573 94.8385 50.5547 94.3203C50.0521 93.7995 49.8008 93.0833 49.8008 92.1719ZM50.9922 92.1328C50.9922 92.7812 51.1419 93.2734 51.4414 93.6094C51.7409 93.9427 52.1211 94.1094 52.582 94.1094C53.043 94.1094 53.4206 93.944 53.7148 93.6133C54.0117 93.2799 54.1602 92.7812 54.1602 92.1172C54.1602 91.4609 54.0156 90.9714 53.7266 90.6484C53.4401 90.3255 53.0586 90.1641 52.582 90.1641C52.1055 90.1641 51.7214 90.3281 51.4297 90.6562C51.138 90.9818 50.9922 91.474 50.9922 92.1328ZM56.2227 90.8516H57.2461V91.4609C57.3789 91.2526 57.5586 91.0833 57.7852 90.9531C58.0117 90.8229 58.263 90.7578 58.5391 90.7578C59.0208 90.7578 59.4297 90.9466 59.7656 91.3242C60.1016 91.7018 60.2695 92.2279 60.2695 92.9023C60.2695 93.5951 60.1003 94.1341 59.7617 94.5195C59.4232 94.9023 59.013 95.0938 58.5312 95.0938C58.3021 95.0938 58.0938 95.0482 57.9062 94.957C57.7214 94.8659 57.526 94.7096 57.3203 94.4883V96.5781H56.2227V90.8516ZM57.3086 92.8555C57.3086 93.3216 57.401 93.6667 57.5859 93.8906C57.7708 94.112 57.9961 94.2227 58.2617 94.2227C58.5169 94.2227 58.7292 94.1211 58.8984 93.918C59.0677 93.7122 59.1523 93.3763 59.1523 92.9102C59.1523 92.4753 59.0651 92.1523 58.8906 91.9414C58.7161 91.7305 58.5 91.625 58.2422 91.625C57.974 91.625 57.7513 91.7292 57.5742 91.9375C57.3971 92.1432 57.3086 92.4492 57.3086 92.8555ZM63.0469 90.8516V91.7266H62.2969V93.3984C62.2969 93.737 62.3034 93.9349 62.3164 93.9922C62.332 94.0469 62.3646 94.0924 62.4141 94.1289C62.4661 94.1654 62.5286 94.1836 62.6016 94.1836C62.7031 94.1836 62.8503 94.1484 63.043 94.0781L63.1367 94.9297C62.8815 95.0391 62.5924 95.0938 62.2695 95.0938C62.0716 95.0938 61.8932 95.0612 61.7344 94.9961C61.5755 94.9284 61.4583 94.8424 61.3828 94.7383C61.3099 94.6315 61.2591 94.4883 61.2305 94.3086C61.207 94.181 61.1953 93.9232 61.1953 93.5352V91.7266H60.6914V90.8516H61.1953V90.0273L62.2969 89.3867V90.8516H63.0469ZM63.8086 90.2891V89.2734H64.9062V90.2891H63.8086ZM63.8086 95V90.8516H64.9062V95H63.8086ZM65.7812 92.8672C65.7812 92.5026 65.8711 92.1497 66.0508 91.8086C66.2305 91.4674 66.4844 91.207 66.8125 91.0273C67.1432 90.8477 67.5117 90.7578 67.918 90.7578C68.5456 90.7578 69.0599 90.9622 69.4609 91.3711C69.862 91.7773 70.0625 92.2917 70.0625 92.9141C70.0625 93.5417 69.8594 94.0625 69.4531 94.4766C69.0495 94.888 68.5404 95.0938 67.9258 95.0938C67.5456 95.0938 67.1823 95.0078 66.8359 94.8359C66.4922 94.6641 66.2305 94.4128 66.0508 94.082C65.8711 93.7487 65.7812 93.3438 65.7812 92.8672ZM66.9062 92.9258C66.9062 93.3372 67.0039 93.6523 67.1992 93.8711C67.3945 94.0898 67.6354 94.1992 67.9219 94.1992C68.2083 94.1992 68.4479 94.0898 68.6406 93.8711C68.8359 93.6523 68.9336 93.3346 68.9336 92.918C68.9336 92.5117 68.8359 92.1992 68.6406 91.9805C68.4479 91.7617 68.2083 91.6523 67.9219 91.6523C67.6354 91.6523 67.3945 91.7617 67.1992 91.9805C67.0039 92.1992 66.9062 92.5143 66.9062 92.9258ZM74.6992 95H73.6016V92.8828C73.6016 92.4349 73.5781 92.1458 73.5312 92.0156C73.4844 91.8828 73.4076 91.7799 73.3008 91.707C73.1966 91.6341 73.0703 91.5977 72.9219 91.5977C72.7318 91.5977 72.5612 91.6497 72.4102 91.7539C72.2591 91.8581 72.1549 91.9961 72.0977 92.168C72.043 92.3398 72.0156 92.6576 72.0156 93.1211V95H70.918V90.8516H71.9375V91.4609C72.2995 90.9922 72.7552 90.7578 73.3047 90.7578C73.5469 90.7578 73.7682 90.8021 73.9688 90.8906C74.1693 90.9766 74.3203 91.0872 74.4219 91.2227C74.526 91.3581 74.5977 91.5117 74.6367 91.6836C74.6784 91.8555 74.6992 92.1016 74.6992 92.4219V95ZM81.5156 93.9805V95H77.668C77.7096 94.6146 77.8346 94.25 78.043 93.9062C78.2513 93.5599 78.6628 93.1016 79.2773 92.5312C79.7721 92.0703 80.0755 91.7578 80.1875 91.5938C80.3385 91.3672 80.4141 91.1432 80.4141 90.9219C80.4141 90.6771 80.3477 90.4896 80.2148 90.3594C80.0846 90.2266 79.9036 90.1602 79.6719 90.1602C79.4427 90.1602 79.2604 90.2292 79.125 90.3672C78.9896 90.5052 78.9115 90.7344 78.8906 91.0547L77.7969 90.9453C77.862 90.3411 78.0664 89.9076 78.4102 89.6445C78.7539 89.3815 79.1836 89.25 79.6992 89.25C80.2643 89.25 80.7083 89.4023 81.0312 89.707C81.3542 90.0117 81.5156 90.3906 81.5156 90.8438C81.5156 91.1016 81.4688 91.3477 81.375 91.582C81.2839 91.8138 81.138 92.0573 80.9375 92.3125C80.8047 92.4818 80.5651 92.7253 80.2188 93.043C79.8724 93.3607 79.6523 93.5716 79.5586 93.6758C79.4674 93.7799 79.3932 93.8815 79.3359 93.9805H81.5156Z" fill="white"/>
<rect x="20.5" y="105.5" width="259" height="31" rx="5.5" stroke="white"/>
<rect x="213" y="109" width="63" height="24" rx="4" fill="white"/>
<path d="M217.793 122.452L218.662 122.315C218.711 122.664 218.846 122.931 219.067 123.116C219.292 123.302 219.604 123.395 220.005 123.395C220.409 123.395 220.708 123.313 220.903 123.15C221.099 122.984 221.196 122.791 221.196 122.569C221.196 122.371 221.11 122.215 220.938 122.101C220.817 122.022 220.518 121.923 220.039 121.803C219.395 121.64 218.947 121.5 218.696 121.383C218.449 121.262 218.26 121.098 218.13 120.89C218.003 120.678 217.939 120.445 217.939 120.191C217.939 119.96 217.992 119.747 218.096 119.552C218.203 119.353 218.348 119.189 218.53 119.059C218.667 118.958 218.853 118.873 219.087 118.805C219.325 118.733 219.578 118.697 219.849 118.697C220.256 118.697 220.612 118.756 220.918 118.873C221.227 118.99 221.455 119.15 221.602 119.352C221.748 119.55 221.849 119.817 221.904 120.152L221.045 120.27C221.006 120.003 220.892 119.794 220.703 119.645C220.518 119.495 220.254 119.42 219.912 119.42C219.508 119.42 219.22 119.487 219.048 119.62C218.875 119.754 218.789 119.91 218.789 120.089C218.789 120.203 218.825 120.305 218.896 120.396C218.968 120.491 219.08 120.569 219.233 120.631C219.321 120.663 219.58 120.738 220.01 120.855C220.632 121.021 221.064 121.158 221.309 121.266C221.556 121.37 221.75 121.523 221.89 121.725C222.03 121.926 222.1 122.177 222.1 122.477C222.1 122.77 222.013 123.046 221.841 123.307C221.672 123.564 221.426 123.764 221.104 123.907C220.781 124.047 220.417 124.117 220.01 124.117C219.336 124.117 218.822 123.977 218.467 123.697C218.115 123.417 217.891 123.002 217.793 122.452ZM226.694 122.33L227.603 122.442C227.459 122.973 227.194 123.385 226.807 123.678C226.419 123.971 225.924 124.117 225.322 124.117C224.564 124.117 223.962 123.884 223.516 123.419C223.073 122.95 222.852 122.294 222.852 121.451C222.852 120.579 223.076 119.902 223.525 119.42C223.975 118.938 224.557 118.697 225.273 118.697C225.967 118.697 226.533 118.933 226.973 119.405C227.412 119.877 227.632 120.541 227.632 121.397C227.632 121.45 227.63 121.528 227.627 121.632H223.76C223.792 122.201 223.953 122.638 224.243 122.94C224.533 123.243 224.894 123.395 225.327 123.395C225.649 123.395 225.924 123.31 226.152 123.141C226.38 122.971 226.561 122.701 226.694 122.33ZM223.809 120.909H226.704C226.665 120.473 226.554 120.146 226.372 119.928C226.092 119.589 225.729 119.42 225.283 119.42C224.88 119.42 224.539 119.555 224.263 119.825C223.989 120.095 223.838 120.457 223.809 120.909ZM232.095 123.36C231.769 123.637 231.455 123.832 231.152 123.946C230.853 124.06 230.531 124.117 230.186 124.117C229.616 124.117 229.178 123.979 228.872 123.702C228.566 123.422 228.413 123.066 228.413 122.633C228.413 122.379 228.47 122.148 228.584 121.939C228.701 121.728 228.853 121.559 229.038 121.432C229.227 121.305 229.438 121.209 229.673 121.144C229.845 121.098 230.106 121.054 230.454 121.012C231.164 120.927 231.686 120.826 232.021 120.709C232.025 120.589 232.026 120.512 232.026 120.479C232.026 120.121 231.943 119.869 231.777 119.723C231.553 119.524 231.219 119.425 230.776 119.425C230.363 119.425 230.057 119.498 229.858 119.645C229.663 119.788 229.518 120.043 229.424 120.411L228.564 120.294C228.643 119.926 228.771 119.63 228.95 119.405C229.129 119.177 229.388 119.003 229.727 118.883C230.065 118.759 230.457 118.697 230.903 118.697C231.346 118.697 231.706 118.749 231.982 118.854C232.259 118.958 232.463 119.09 232.593 119.249C232.723 119.405 232.814 119.604 232.866 119.845C232.896 119.994 232.91 120.265 232.91 120.655V121.827C232.91 122.644 232.928 123.162 232.964 123.38C233.003 123.595 233.078 123.801 233.188 124H232.271C232.179 123.818 232.121 123.604 232.095 123.36ZM232.021 121.397C231.702 121.528 231.224 121.638 230.586 121.729C230.225 121.782 229.969 121.84 229.819 121.905C229.67 121.97 229.554 122.066 229.473 122.193C229.391 122.317 229.351 122.455 229.351 122.608C229.351 122.843 229.438 123.038 229.614 123.194C229.793 123.351 230.054 123.429 230.396 123.429C230.734 123.429 231.035 123.355 231.299 123.209C231.562 123.059 231.756 122.856 231.88 122.599C231.974 122.4 232.021 122.107 232.021 121.72V121.397ZM234.268 124V118.814H235.059V119.601C235.26 119.233 235.446 118.99 235.615 118.873C235.788 118.756 235.977 118.697 236.182 118.697C236.478 118.697 236.779 118.792 237.085 118.98L236.782 119.796C236.567 119.669 236.353 119.605 236.138 119.605C235.946 119.605 235.773 119.664 235.62 119.781C235.467 119.895 235.358 120.055 235.293 120.26C235.195 120.572 235.146 120.914 235.146 121.285V124H234.268ZM240.991 122.101L241.855 122.213C241.761 122.809 241.519 123.276 241.128 123.614C240.741 123.95 240.264 124.117 239.697 124.117C238.988 124.117 238.416 123.886 237.983 123.424C237.554 122.958 237.339 122.293 237.339 121.427C237.339 120.867 237.432 120.377 237.617 119.957C237.803 119.537 238.084 119.223 238.462 119.015C238.843 118.803 239.256 118.697 239.702 118.697C240.265 118.697 240.726 118.84 241.084 119.127C241.442 119.41 241.672 119.814 241.772 120.338L240.918 120.47C240.837 120.121 240.692 119.859 240.483 119.684C240.278 119.508 240.029 119.42 239.736 119.42C239.294 119.42 238.934 119.579 238.657 119.898C238.381 120.214 238.242 120.715 238.242 121.402C238.242 122.099 238.376 122.605 238.643 122.921C238.91 123.237 239.258 123.395 239.688 123.395C240.033 123.395 240.321 123.289 240.552 123.077C240.783 122.866 240.929 122.54 240.991 122.101ZM242.607 124V116.842H243.486V119.41C243.896 118.935 244.414 118.697 245.039 118.697C245.423 118.697 245.757 118.774 246.04 118.927C246.323 119.076 246.525 119.285 246.646 119.552C246.769 119.819 246.831 120.206 246.831 120.714V124H245.952V120.714C245.952 120.274 245.856 119.955 245.664 119.757C245.475 119.555 245.207 119.454 244.858 119.454C244.598 119.454 244.352 119.522 244.121 119.659C243.893 119.793 243.73 119.975 243.633 120.206C243.535 120.437 243.486 120.756 243.486 121.163V124H242.607Z" fill="black"/>
<rect x="10" y="10" width="49" height="16" rx="2" fill="white"/>
<path d="M13.75 18.2109C13.75 17.2604 14.0052 16.5169 14.5156 15.9805C15.026 15.4414 15.6849 15.1719 16.4922 15.1719C17.0208 15.1719 17.4974 15.2982 17.9219 15.5508C18.3464 15.8034 18.6693 16.1562 18.8906 16.6094C19.1146 17.0599 19.2266 17.5716 19.2266 18.1445C19.2266 18.7253 19.1094 19.2448 18.875 19.7031C18.6406 20.1615 18.3086 20.5091 17.8789 20.7461C17.4492 20.9805 16.9857 21.0977 16.4883 21.0977C15.9492 21.0977 15.4674 20.9674 15.043 20.707C14.6185 20.4466 14.2969 20.0911 14.0781 19.6406C13.8594 19.1901 13.75 18.7135 13.75 18.2109ZM14.5312 18.2227C14.5312 18.9128 14.7161 19.457 15.0859 19.8555C15.4583 20.2513 15.9245 20.4492 16.4844 20.4492C17.0547 20.4492 17.5234 20.2487 17.8906 19.8477C18.2604 19.4466 18.4453 18.8776 18.4453 18.1406C18.4453 17.6745 18.3659 17.2682 18.207 16.9219C18.0508 16.5729 17.8203 16.3034 17.5156 16.1133C17.2135 15.9206 16.8737 15.8242 16.4961 15.8242C15.9596 15.8242 15.4974 16.0091 15.1094 16.3789C14.724 16.7461 14.5312 17.3607 14.5312 18.2227ZM20.1172 22.5898V16.8516H20.7578V17.3906C20.9089 17.1797 21.0794 17.0221 21.2695 16.918C21.4596 16.8112 21.6901 16.7578 21.9609 16.7578C22.3151 16.7578 22.6276 16.849 22.8984 17.0312C23.1693 17.2135 23.3737 17.4714 23.5117 17.8047C23.6497 18.1354 23.7188 18.4987 23.7188 18.8945C23.7188 19.319 23.6419 19.7018 23.4883 20.043C23.3372 20.3815 23.1159 20.6419 22.8242 20.8242C22.5352 21.0039 22.2305 21.0938 21.9102 21.0938C21.6758 21.0938 21.4648 21.0443 21.2773 20.9453C21.0924 20.8464 20.9401 20.7214 20.8203 20.5703V22.5898H20.1172ZM20.7539 18.9492C20.7539 19.4831 20.862 19.8776 21.0781 20.1328C21.2943 20.388 21.556 20.5156 21.8633 20.5156C22.1758 20.5156 22.4427 20.3841 22.6641 20.1211C22.888 19.8555 23 19.4453 23 18.8906C23 18.362 22.8906 17.9661 22.6719 17.7031C22.4557 17.4401 22.1966 17.3086 21.8945 17.3086C21.5951 17.3086 21.3294 17.4492 21.0977 17.7305C20.8685 18.0091 20.7539 18.4154 20.7539 18.9492ZM26.1055 20.3711L26.207 20.9922C26.0091 21.0339 25.832 21.0547 25.6758 21.0547C25.4206 21.0547 25.2227 21.0143 25.082 20.9336C24.9414 20.8529 24.8424 20.7474 24.7852 20.6172C24.7279 20.4844 24.6992 20.207 24.6992 19.7852V17.3984H24.1836V16.8516H24.6992V15.8242L25.3984 15.4023V16.8516H26.1055V17.3984H25.3984V19.8242C25.3984 20.0247 25.4102 20.1536 25.4336 20.2109C25.4596 20.2682 25.5 20.3138 25.5547 20.3477C25.612 20.3815 25.6927 20.3984 25.7969 20.3984C25.875 20.3984 25.9779 20.3893 26.1055 20.3711ZM26.8008 16.082V15.2734H27.5039V16.082H26.8008ZM26.8008 21V16.8516H27.5039V21H26.8008ZM28.3164 18.9258C28.3164 18.1576 28.5299 17.5885 28.957 17.2188C29.3138 16.9115 29.7487 16.7578 30.2617 16.7578C30.832 16.7578 31.2982 16.9453 31.6602 17.3203C32.0221 17.6927 32.2031 18.2083 32.2031 18.8672C32.2031 19.401 32.1224 19.8216 31.9609 20.1289C31.8021 20.4336 31.569 20.6706 31.2617 20.8398C30.957 21.0091 30.6237 21.0938 30.2617 21.0938C29.681 21.0938 29.2109 20.9076 28.8516 20.5352C28.4948 20.1628 28.3164 19.6263 28.3164 18.9258ZM29.0391 18.9258C29.0391 19.457 29.1549 19.8555 29.3867 20.1211C29.6185 20.3841 29.9102 20.5156 30.2617 20.5156C30.6107 20.5156 30.901 20.3828 31.1328 20.1172C31.3646 19.8516 31.4805 19.4466 31.4805 18.9023C31.4805 18.3893 31.3633 18.0013 31.1289 17.7383C30.8971 17.4727 30.6081 17.3398 30.2617 17.3398C29.9102 17.3398 29.6185 17.4714 29.3867 17.7344C29.1549 17.9974 29.0391 18.3945 29.0391 18.9258ZM33.0312 21V16.8516H33.6641V17.4414C33.9688 16.9857 34.4089 16.7578 34.9844 16.7578C35.2344 16.7578 35.4635 16.8034 35.6719 16.8945C35.8828 16.9831 36.0404 17.1003 36.1445 17.2461C36.2487 17.3919 36.3216 17.5651 36.3633 17.7656C36.3893 17.8958 36.4023 18.1237 36.4023 18.4492V21H35.6992V18.4766C35.6992 18.1901 35.6719 17.9766 35.6172 17.8359C35.5625 17.6927 35.4648 17.5794 35.3242 17.4961C35.1862 17.4102 35.0234 17.3672 34.8359 17.3672C34.5365 17.3672 34.2773 17.4622 34.0586 17.6523C33.8424 17.8424 33.7344 18.2031 33.7344 18.7344V21H33.0312ZM43.2109 20.3242V21H39.4258C39.4206 20.8307 39.4479 20.668 39.5078 20.5117C39.6042 20.2539 39.7578 20 39.9688 19.75C40.1823 19.5 40.4896 19.2109 40.8906 18.8828C41.513 18.3724 41.9336 17.9688 42.1523 17.6719C42.3711 17.3724 42.4805 17.0898 42.4805 16.8242C42.4805 16.5456 42.3802 16.3112 42.1797 16.1211C41.9818 15.9284 41.7227 15.832 41.4023 15.832C41.0638 15.832 40.793 15.9336 40.5898 16.1367C40.3867 16.3398 40.2839 16.6211 40.2812 16.9805L39.5586 16.9062C39.6081 16.3672 39.7943 15.957 40.1172 15.6758C40.4401 15.3919 40.8737 15.25 41.418 15.25C41.9674 15.25 42.4023 15.4023 42.7227 15.707C43.043 16.0117 43.2031 16.3893 43.2031 16.8398C43.2031 17.069 43.1562 17.2943 43.0625 17.5156C42.9688 17.737 42.8125 17.9701 42.5938 18.2148C42.3776 18.4596 42.0169 18.7956 41.5117 19.2227C41.0898 19.5768 40.819 19.8177 40.6992 19.9453C40.5794 20.0703 40.4805 20.1966 40.4023 20.3242H43.2109Z" fill="black"/>
<path d="M51 20.02C50.84 20.02 50.68 19.96 50.5575 19.8375L47.61 16.89L48.14 16.36L51 19.22L53.86 16.36L54.39 16.89L51.4425 19.8375C51.32 19.96 51.16 20.02 51 20.02Z" fill="#202023"/>
</svg>
