<svg width="300" height="180" viewBox="0 0 300 180" fill="none" xmlns="http://www.w3.org/2000/svg">
<rect width="300" height="180" fill="#3E416D"/>
<path d="M28.8491 34.488L28.8411 36H21.6571V24.48H28.8411V25.992H23.5371V29.464H27.7771V30.928H23.5371V34.488H28.8491ZM30.3683 36V27.84H31.4083C31.643 27.84 31.7923 27.9493 31.8563 28.168L31.9683 28.88C32.1176 28.7093 32.2723 28.5547 32.4323 28.416C32.5923 28.272 32.763 28.1493 32.9443 28.048C33.131 27.9413 33.3283 27.8587 33.5363 27.8C33.7496 27.7413 33.979 27.712 34.2243 27.712C34.4856 27.712 34.7256 27.7493 34.9443 27.824C35.163 27.8987 35.355 28.0053 35.5203 28.144C35.691 28.2827 35.8376 28.4507 35.9603 28.648C36.083 28.8453 36.1843 29.0667 36.2643 29.312C36.387 29.0293 36.5416 28.7867 36.7283 28.584C36.915 28.3813 37.123 28.216 37.3523 28.088C37.5816 27.96 37.8243 27.8667 38.0803 27.808C38.3416 27.744 38.6056 27.712 38.8723 27.712C39.3096 27.712 39.699 27.7813 40.0403 27.92C40.387 28.0587 40.6776 28.2613 40.9123 28.528C41.1523 28.7893 41.3336 29.112 41.4563 29.496C41.579 29.88 41.6403 30.3173 41.6403 30.808V36H39.9203V30.808C39.9203 30.232 39.795 29.8 39.5443 29.512C39.299 29.2187 38.9336 29.072 38.4483 29.072C38.2296 29.072 38.0243 29.1093 37.8323 29.184C37.6403 29.2587 37.4723 29.368 37.3283 29.512C37.1843 29.656 37.0696 29.8373 36.9843 30.056C36.9043 30.2693 36.8643 30.52 36.8643 30.808V36H35.1443V30.808C35.1443 30.2107 35.0243 29.7733 34.7843 29.496C34.5443 29.2133 34.1923 29.072 33.7283 29.072C33.4083 29.072 33.1123 29.1547 32.8403 29.32C32.5683 29.48 32.3176 29.7013 32.0883 29.984V36H30.3683ZM45.3696 33.952C45.6096 34.2613 45.8709 34.48 46.1536 34.608C46.4416 34.7307 46.7589 34.792 47.1056 34.792C47.7776 34.792 48.3002 34.5467 48.6736 34.056C49.0522 33.5653 49.2416 32.8347 49.2416 31.864C49.2416 31.3627 49.1989 30.936 49.1136 30.584C49.0282 30.2267 48.9056 29.936 48.7456 29.712C48.5856 29.488 48.3909 29.3253 48.1616 29.224C47.9322 29.1227 47.6736 29.072 47.3856 29.072C46.9482 29.072 46.5696 29.168 46.2496 29.36C45.9349 29.5467 45.6416 29.816 45.3696 30.168V33.952ZM45.2816 29.024C45.6229 28.624 46.0096 28.3013 46.4416 28.056C46.8789 27.8107 47.3856 27.688 47.9616 27.688C48.4202 27.688 48.8362 27.7813 49.2096 27.968C49.5829 28.1493 49.9029 28.416 50.1696 28.768C50.4362 29.12 50.6416 29.5573 50.7856 30.08C50.9349 30.5973 51.0096 31.192 51.0096 31.864C51.0096 32.4667 50.9269 33.0293 50.7616 33.552C50.6016 34.0693 50.3696 34.52 50.0656 34.904C49.7616 35.2827 49.3936 35.5813 48.9616 35.8C48.5296 36.0133 48.0416 36.12 47.4976 36.12C47.0176 36.12 46.6096 36.0427 46.2736 35.888C45.9429 35.7333 45.6416 35.52 45.3696 35.248V38.712H43.6496V27.84H44.6896C44.9242 27.84 45.0736 27.9493 45.1376 28.168L45.2816 29.024ZM54.4328 24.16V36H52.7128V24.16H54.4328ZM60.0838 27.712C60.6865 27.712 61.2305 27.8107 61.7158 28.008C62.2065 28.2053 62.6225 28.4853 62.9638 28.848C63.3105 29.2107 63.5771 29.6507 63.7638 30.168C63.9505 30.6853 64.0438 31.2667 64.0438 31.912C64.0438 32.5573 63.9505 33.1387 63.7638 33.656C63.5771 34.1733 63.3105 34.616 62.9638 34.984C62.6225 35.3467 62.2065 35.6267 61.7158 35.824C61.2305 36.0213 60.6865 36.12 60.0838 36.12C59.4758 36.12 58.9265 36.0213 58.4358 35.824C57.9505 35.6267 57.5345 35.3467 57.1878 34.984C56.8411 34.616 56.5745 34.1733 56.3878 33.656C56.2011 33.1387 56.1078 32.5573 56.1078 31.912C56.1078 31.2667 56.2011 30.6853 56.3878 30.168C56.5745 29.6507 56.8411 29.2107 57.1878 28.848C57.5345 28.4853 57.9505 28.2053 58.4358 28.008C58.9265 27.8107 59.4758 27.712 60.0838 27.712ZM60.0838 34.776C60.8198 34.776 61.3665 34.5307 61.7238 34.04C62.0865 33.544 62.2678 32.8373 62.2678 31.92C62.2678 31.0027 62.0865 30.296 61.7238 29.8C61.3665 29.2987 60.8198 29.048 60.0838 29.048C59.3371 29.048 58.7825 29.2987 58.4198 29.8C58.0571 30.296 57.8758 31.0027 57.8758 31.92C57.8758 32.8373 58.0571 33.544 58.4198 34.04C58.7825 34.5307 59.3371 34.776 60.0838 34.776ZM72.6708 27.84L68.1748 38.32C68.1161 38.4427 68.0441 38.5387 67.9588 38.608C67.8788 38.6773 67.7535 38.712 67.5828 38.712H66.3108L67.8148 35.448L64.4868 27.84H65.9828C66.1268 27.84 66.2361 27.8747 66.3108 27.944C66.3908 28.008 66.4495 28.0853 66.4868 28.176L68.4308 32.808C68.4788 32.9413 68.5215 33.0747 68.5588 33.208C68.6015 33.336 68.6415 33.4693 68.6788 33.608C68.7215 33.4693 68.7641 33.3333 68.8068 33.2C68.8495 33.0667 68.8975 32.9333 68.9508 32.8L70.8148 28.176C70.8521 28.08 70.9135 28 70.9988 27.936C71.0895 27.872 71.1881 27.84 71.2948 27.84H72.6708ZM78.9078 31C78.9078 30.712 78.8651 30.4453 78.7798 30.2C78.6998 29.9493 78.5798 29.7333 78.4198 29.552C78.2598 29.3653 78.0598 29.2213 77.8198 29.12C77.5851 29.0133 77.3131 28.96 77.0038 28.96C76.3798 28.96 75.8891 29.1387 75.5318 29.496C75.1745 29.8533 74.9478 30.3547 74.8518 31H78.9078ZM74.8038 32.056C74.8251 32.52 74.8971 32.9227 75.0198 33.264C75.1425 33.6 75.3051 33.88 75.5078 34.104C75.7158 34.328 75.9611 34.496 76.2438 34.608C76.5318 34.7147 76.8518 34.768 77.2038 34.768C77.5398 34.768 77.8305 34.7307 78.0758 34.656C78.3211 34.576 78.5345 34.4907 78.7158 34.4C78.8971 34.304 79.0518 34.2187 79.1798 34.144C79.3078 34.064 79.4251 34.024 79.5318 34.024C79.6705 34.024 79.7771 34.0773 79.8518 34.184L80.3398 34.816C80.1371 35.056 79.9078 35.2587 79.6518 35.424C79.3958 35.5893 79.1238 35.7253 78.8358 35.832C78.5478 35.9333 78.2518 36.0053 77.9478 36.048C77.6438 36.096 77.3478 36.12 77.0598 36.12C76.4945 36.12 75.9691 36.0267 75.4838 35.84C75.0038 35.648 74.5851 35.368 74.2278 35C73.8758 34.632 73.5985 34.176 73.3958 33.632C73.1985 33.088 73.0998 32.4613 73.0998 31.752C73.0998 31.1867 73.1878 30.6587 73.3638 30.168C73.5451 29.6773 73.8011 29.2507 74.1318 28.888C74.4678 28.5253 74.8731 28.24 75.3478 28.032C75.8278 27.8187 76.3691 27.712 76.9718 27.712C77.4731 27.712 77.9371 27.7947 78.3638 27.96C78.7905 28.12 79.1585 28.3573 79.4678 28.672C79.7771 28.9867 80.0171 29.3733 80.1878 29.832C80.3638 30.2853 80.4518 30.8027 80.4518 31.384C80.4518 31.6507 80.4225 31.8293 80.3638 31.92C80.3051 32.0107 80.1985 32.056 80.0438 32.056H74.8038ZM87.4078 31C87.4078 30.712 87.3651 30.4453 87.2798 30.2C87.1998 29.9493 87.0798 29.7333 86.9198 29.552C86.7598 29.3653 86.5598 29.2213 86.3198 29.12C86.0851 29.0133 85.8131 28.96 85.5038 28.96C84.8798 28.96 84.3891 29.1387 84.0318 29.496C83.6745 29.8533 83.4478 30.3547 83.3518 31H87.4078ZM83.3038 32.056C83.3251 32.52 83.3971 32.9227 83.5198 33.264C83.6425 33.6 83.8051 33.88 84.0078 34.104C84.2158 34.328 84.4611 34.496 84.7438 34.608C85.0318 34.7147 85.3518 34.768 85.7038 34.768C86.0398 34.768 86.3305 34.7307 86.5758 34.656C86.8211 34.576 87.0345 34.4907 87.2158 34.4C87.3971 34.304 87.5518 34.2187 87.6798 34.144C87.8078 34.064 87.9251 34.024 88.0318 34.024C88.1705 34.024 88.2771 34.0773 88.3518 34.184L88.8398 34.816C88.6371 35.056 88.4078 35.2587 88.1518 35.424C87.8958 35.5893 87.6238 35.7253 87.3358 35.832C87.0478 35.9333 86.7518 36.0053 86.4478 36.048C86.1438 36.096 85.8478 36.12 85.5598 36.12C84.9945 36.12 84.4691 36.0267 83.9838 35.84C83.5038 35.648 83.0851 35.368 82.7278 35C82.3758 34.632 82.0985 34.176 81.8958 33.632C81.6985 33.088 81.5998 32.4613 81.5998 31.752C81.5998 31.1867 81.6878 30.6587 81.8638 30.168C82.0451 29.6773 82.3011 29.2507 82.6318 28.888C82.9678 28.5253 83.3731 28.24 83.8478 28.032C84.3278 27.8187 84.8691 27.712 85.4718 27.712C85.9731 27.712 86.4371 27.7947 86.8638 27.96C87.2905 28.12 87.6585 28.3573 87.9678 28.672C88.2771 28.9867 88.5171 29.3733 88.6878 29.832C88.8638 30.2853 88.9518 30.8027 88.9518 31.384C88.9518 31.6507 88.9225 31.8293 88.8638 31.92C88.8051 32.0107 88.6985 32.056 88.5438 32.056H83.3038ZM96.7402 36H94.8602V24.48H96.7402V36ZM100.633 28.92C100.809 28.7387 100.99 28.576 101.177 28.432C101.369 28.2827 101.571 28.1547 101.785 28.048C101.998 27.9413 102.225 27.8587 102.465 27.8C102.705 27.7413 102.966 27.712 103.249 27.712C103.697 27.712 104.089 27.7867 104.425 27.936C104.766 28.0853 105.051 28.296 105.281 28.568C105.515 28.84 105.691 29.168 105.809 29.552C105.926 29.9307 105.985 30.3493 105.985 30.808V36H104.273V30.808C104.273 30.2587 104.145 29.832 103.889 29.528C103.638 29.224 103.254 29.072 102.737 29.072C102.353 29.072 101.995 29.16 101.665 29.336C101.339 29.512 101.033 29.752 100.745 30.056V36H99.0246V27.84H100.065C100.299 27.84 100.449 27.9493 100.513 28.168L100.633 28.92ZM108.405 36V29.208L107.605 29.096C107.471 29.0693 107.362 29.0213 107.277 28.952C107.197 28.8827 107.157 28.784 107.157 28.656V27.952H108.405V27.264C108.405 26.8 108.471 26.384 108.605 26.016C108.743 25.648 108.938 25.336 109.189 25.08C109.445 24.824 109.754 24.6293 110.117 24.496C110.479 24.3573 110.887 24.288 111.341 24.288C111.527 24.288 111.703 24.3013 111.869 24.328C112.039 24.3547 112.205 24.3947 112.365 24.448L112.333 25.312C112.322 25.456 112.25 25.5413 112.117 25.568C111.989 25.5947 111.826 25.608 111.629 25.608C111.389 25.608 111.173 25.6373 110.981 25.696C110.789 25.7493 110.623 25.8427 110.485 25.976C110.351 26.1093 110.247 26.2853 110.173 26.504C110.103 26.7227 110.069 26.9947 110.069 27.32V27.952H112.301V29.192H110.125V36H108.405ZM116.818 27.712C117.421 27.712 117.965 27.8107 118.45 28.008C118.941 28.2053 119.357 28.4853 119.698 28.848C120.045 29.2107 120.312 29.6507 120.498 30.168C120.685 30.6853 120.778 31.2667 120.778 31.912C120.778 32.5573 120.685 33.1387 120.498 33.656C120.312 34.1733 120.045 34.616 119.698 34.984C119.357 35.3467 118.941 35.6267 118.45 35.824C117.965 36.0213 117.421 36.12 116.818 36.12C116.21 36.12 115.661 36.0213 115.17 35.824C114.685 35.6267 114.269 35.3467 113.922 34.984C113.576 34.616 113.309 34.1733 113.122 33.656C112.936 33.1387 112.842 32.5573 112.842 31.912C112.842 31.2667 112.936 30.6853 113.122 30.168C113.309 29.6507 113.576 29.2107 113.922 28.848C114.269 28.4853 114.685 28.2053 115.17 28.008C115.661 27.8107 116.21 27.712 116.818 27.712ZM116.818 34.776C117.554 34.776 118.101 34.5307 118.458 34.04C118.821 33.544 119.002 32.8373 119.002 31.92C119.002 31.0027 118.821 30.296 118.458 29.8C118.101 29.2987 117.554 29.048 116.818 29.048C116.072 29.048 115.517 29.2987 115.154 29.8C114.792 30.296 114.61 31.0027 114.61 31.92C114.61 32.8373 114.792 33.544 115.154 34.04C115.517 34.5307 116.072 34.776 116.818 34.776ZM124.055 29.352C124.311 28.8347 124.62 28.4293 124.983 28.136C125.345 27.8373 125.78 27.688 126.287 27.688C126.463 27.688 126.628 27.7093 126.783 27.752C126.937 27.7893 127.076 27.848 127.199 27.928L127.079 29.224C127.057 29.3147 127.023 29.3787 126.975 29.416C126.932 29.448 126.873 29.464 126.799 29.464C126.719 29.464 126.604 29.4507 126.455 29.424C126.305 29.392 126.148 29.376 125.983 29.376C125.743 29.376 125.529 29.4107 125.343 29.48C125.161 29.5493 124.996 29.6507 124.847 29.784C124.703 29.9173 124.575 30.08 124.463 30.272C124.351 30.464 124.247 30.6827 124.151 30.928V36H122.431V27.84H123.431C123.612 27.84 123.737 27.8747 123.807 27.944C123.876 28.008 123.924 28.1227 123.951 28.288L124.055 29.352ZM128.337 36V27.84H129.377C129.612 27.84 129.761 27.9493 129.825 28.168L129.937 28.88C130.086 28.7093 130.241 28.5547 130.401 28.416C130.561 28.272 130.732 28.1493 130.913 28.048C131.1 27.9413 131.297 27.8587 131.505 27.8C131.718 27.7413 131.948 27.712 132.193 27.712C132.454 27.712 132.694 27.7493 132.913 27.824C133.132 27.8987 133.324 28.0053 133.489 28.144C133.66 28.2827 133.806 28.4507 133.929 28.648C134.052 28.8453 134.153 29.0667 134.233 29.312C134.356 29.0293 134.51 28.7867 134.697 28.584C134.884 28.3813 135.092 28.216 135.321 28.088C135.55 27.96 135.793 27.8667 136.049 27.808C136.31 27.744 136.574 27.712 136.841 27.712C137.278 27.712 137.668 27.7813 138.009 27.92C138.356 28.0587 138.646 28.2613 138.881 28.528C139.121 28.7893 139.302 29.112 139.425 29.496C139.548 29.88 139.609 30.3173 139.609 30.808V36H137.889V30.808C137.889 30.232 137.764 29.8 137.513 29.512C137.268 29.2187 136.902 29.072 136.417 29.072C136.198 29.072 135.993 29.1093 135.801 29.184C135.609 29.2587 135.441 29.368 135.297 29.512C135.153 29.656 135.038 29.8373 134.953 30.056C134.873 30.2693 134.833 30.52 134.833 30.808V36H133.113V30.808C133.113 30.2107 132.993 29.7733 132.753 29.496C132.513 29.2133 132.161 29.072 131.697 29.072C131.377 29.072 131.081 29.1547 130.809 29.32C130.537 29.48 130.286 29.7013 130.057 29.984V36H128.337ZM145.978 32.432C145.365 32.4533 144.848 32.504 144.426 32.584C144.005 32.6587 143.664 32.7573 143.402 32.88C143.141 32.9973 142.952 33.1387 142.834 33.304C142.722 33.4693 142.666 33.6507 142.666 33.848C142.666 34.04 142.696 34.2053 142.754 34.344C142.818 34.4773 142.904 34.5893 143.01 34.68C143.122 34.7653 143.25 34.8293 143.394 34.872C143.544 34.9093 143.706 34.928 143.882 34.928C144.33 34.928 144.714 34.8453 145.034 34.68C145.36 34.5093 145.674 34.264 145.978 33.944V32.432ZM141.418 28.976C142.341 28.1173 143.44 27.688 144.714 27.688C145.184 27.688 145.6 27.7653 145.962 27.92C146.33 28.0693 146.637 28.2827 146.882 28.56C147.133 28.8373 147.322 29.168 147.45 29.552C147.584 29.9307 147.65 30.352 147.65 30.816V36H146.882C146.717 36 146.592 35.976 146.506 35.928C146.421 35.8747 146.349 35.7707 146.29 35.616L146.122 34.952C145.914 35.1387 145.709 35.3067 145.506 35.456C145.304 35.6 145.093 35.7227 144.874 35.824C144.661 35.9253 144.429 36 144.178 36.048C143.933 36.1013 143.661 36.128 143.362 36.128C143.032 36.128 142.722 36.0827 142.434 35.992C142.152 35.9013 141.906 35.7653 141.698 35.584C141.49 35.3973 141.325 35.168 141.202 34.896C141.085 34.624 141.026 34.304 141.026 33.936C141.026 33.6213 141.109 33.3147 141.274 33.016C141.445 32.7173 141.722 32.4507 142.106 32.216C142.496 31.976 143.005 31.7787 143.634 31.624C144.269 31.4693 145.05 31.3813 145.978 31.36V30.816C145.978 30.2293 145.853 29.792 145.602 29.504C145.352 29.216 144.984 29.072 144.498 29.072C144.168 29.072 143.89 29.1147 143.666 29.2C143.442 29.28 143.248 29.368 143.082 29.464C142.917 29.56 142.77 29.6507 142.642 29.736C142.514 29.816 142.378 29.856 142.234 29.856C142.117 29.856 142.016 29.8267 141.93 29.768C141.85 29.704 141.784 29.6267 141.73 29.536L141.418 28.976ZM157.476 36H155.756V29.192H151.78V33.824C151.78 34.1173 151.852 34.3413 151.996 34.496C152.14 34.6507 152.332 34.728 152.572 34.728C152.705 34.728 152.82 34.712 152.916 34.68C153.012 34.6427 153.094 34.6053 153.164 34.568C153.233 34.5253 153.292 34.488 153.34 34.456C153.393 34.4187 153.444 34.4 153.492 34.4C153.588 34.4 153.665 34.4533 153.724 34.56L154.236 35.4C153.969 35.6347 153.654 35.816 153.292 35.944C152.929 36.0667 152.556 36.128 152.172 36.128C151.494 36.128 150.972 35.9387 150.604 35.56C150.241 35.176 150.06 34.6373 150.06 33.944V29.192H149.164C149.068 29.192 148.985 29.1627 148.916 29.104C148.846 29.04 148.812 28.9467 148.812 28.824V28.128L150.132 27.936L150.508 25.576C150.534 25.4853 150.58 25.4133 150.644 25.36C150.708 25.3013 150.793 25.272 150.9 25.272H151.78V27.952H157.476V36ZM157.828 25.336C157.828 25.4907 157.796 25.6373 157.732 25.776C157.673 25.9093 157.59 26.0293 157.484 26.136C157.377 26.2373 157.252 26.32 157.108 26.384C156.969 26.4427 156.822 26.472 156.668 26.472C156.513 26.472 156.366 26.4427 156.228 26.384C156.094 26.32 155.974 26.2373 155.868 26.136C155.766 26.0293 155.684 25.9093 155.62 25.776C155.561 25.6373 155.532 25.4907 155.532 25.336C155.532 25.176 155.561 25.0267 155.62 24.888C155.684 24.744 155.766 24.6213 155.868 24.52C155.974 24.4133 156.094 24.3307 156.228 24.272C156.366 24.208 156.513 24.176 156.668 24.176C156.822 24.176 156.969 24.208 157.108 24.272C157.252 24.3307 157.377 24.4133 157.484 24.52C157.59 24.6213 157.673 24.744 157.732 24.888C157.796 25.0267 157.828 25.176 157.828 25.336ZM163.178 27.712C163.78 27.712 164.324 27.8107 164.81 28.008C165.3 28.2053 165.716 28.4853 166.058 28.848C166.404 29.2107 166.671 29.6507 166.858 30.168C167.044 30.6853 167.138 31.2667 167.138 31.912C167.138 32.5573 167.044 33.1387 166.858 33.656C166.671 34.1733 166.404 34.616 166.058 34.984C165.716 35.3467 165.3 35.6267 164.81 35.824C164.324 36.0213 163.78 36.12 163.178 36.12C162.57 36.12 162.02 36.0213 161.53 35.824C161.044 35.6267 160.628 35.3467 160.282 34.984C159.935 34.616 159.668 34.1733 159.482 33.656C159.295 33.1387 159.202 32.5573 159.202 31.912C159.202 31.2667 159.295 30.6853 159.482 30.168C159.668 29.6507 159.935 29.2107 160.282 28.848C160.628 28.4853 161.044 28.2053 161.53 28.008C162.02 27.8107 162.57 27.712 163.178 27.712ZM163.178 34.776C163.914 34.776 164.46 34.5307 164.818 34.04C165.18 33.544 165.362 32.8373 165.362 31.92C165.362 31.0027 165.18 30.296 164.818 29.8C164.46 29.2987 163.914 29.048 163.178 29.048C162.431 29.048 161.876 29.2987 161.514 29.8C161.151 30.296 160.97 31.0027 160.97 31.92C160.97 32.8373 161.151 33.544 161.514 34.04C161.876 34.5307 162.431 34.776 163.178 34.776ZM170.398 28.92C170.574 28.7387 170.756 28.576 170.942 28.432C171.134 28.2827 171.337 28.1547 171.55 28.048C171.764 27.9413 171.99 27.8587 172.23 27.8C172.47 27.7413 172.732 27.712 173.014 27.712C173.462 27.712 173.854 27.7867 174.19 27.936C174.532 28.0853 174.817 28.296 175.046 28.568C175.281 28.84 175.457 29.168 175.574 29.552C175.692 29.9307 175.75 30.3493 175.75 30.808V36H174.038V30.808C174.038 30.2587 173.91 29.832 173.654 29.528C173.404 29.224 173.02 29.072 172.502 29.072C172.118 29.072 171.761 29.16 171.43 29.336C171.105 29.512 170.798 29.752 170.51 30.056V36H168.79V27.84H169.83C170.065 27.84 170.214 27.9493 170.278 28.168L170.398 28.92Z" fill="white"/>
<path d="M21.548 57.856V60H20.776V54.268H22.468C22.8307 54.268 23.1453 54.3107 23.412 54.396C23.6813 54.4787 23.904 54.5973 24.08 54.752C24.256 54.9067 24.3867 55.0933 24.472 55.312C24.56 55.5307 24.604 55.7747 24.604 56.044C24.604 56.3107 24.5573 56.5547 24.464 56.776C24.3707 56.9973 24.2333 57.188 24.052 57.348C23.8733 57.508 23.6507 57.6333 23.384 57.724C23.1173 57.812 22.812 57.856 22.468 57.856H21.548ZM21.548 57.24H22.468C22.6893 57.24 22.884 57.2107 23.052 57.152C23.2227 57.0933 23.3653 57.012 23.48 56.908C23.5947 56.8013 23.6813 56.6747 23.74 56.528C23.7987 56.3813 23.828 56.22 23.828 56.044C23.828 55.6787 23.7147 55.3933 23.488 55.188C23.264 54.9827 22.924 54.88 22.468 54.88H21.548V57.24ZM26.2666 54.108V60H25.5546V54.108H26.2666ZM29.1255 55.884C29.3682 55.884 29.5922 55.9253 29.7975 56.008C30.0028 56.088 30.1802 56.2053 30.3295 56.36C30.4788 56.512 30.5948 56.7013 30.6775 56.928C30.7628 57.152 30.8055 57.408 30.8055 57.696C30.8055 57.808 30.7935 57.8827 30.7695 57.92C30.7455 57.9573 30.7002 57.976 30.6335 57.976H27.9375C27.9428 58.232 27.9775 58.4547 28.0415 58.644C28.1055 58.8333 28.1935 58.992 28.3055 59.12C28.4175 59.2453 28.5508 59.34 28.7055 59.404C28.8602 59.4653 29.0335 59.496 29.2255 59.496C29.4042 59.496 29.5575 59.476 29.6855 59.436C29.8162 59.3933 29.9282 59.348 30.0215 59.3C30.1148 59.252 30.1922 59.208 30.2535 59.168C30.3175 59.1253 30.3722 59.104 30.4175 59.104C30.4762 59.104 30.5215 59.1267 30.5535 59.172L30.7535 59.432C30.6655 59.5387 30.5602 59.632 30.4375 59.712C30.3148 59.7893 30.1828 59.8533 30.0415 59.904C29.9028 59.9547 29.7588 59.992 29.6095 60.016C29.4602 60.0427 29.3122 60.056 29.1655 60.056C28.8855 60.056 28.6268 60.0093 28.3895 59.916C28.1548 59.82 27.9508 59.6813 27.7775 59.5C27.6068 59.316 27.4735 59.0893 27.3775 58.82C27.2815 58.5507 27.2335 58.2413 27.2335 57.892C27.2335 57.6093 27.2762 57.3453 27.3615 57.1C27.4495 56.8547 27.5748 56.6427 27.7375 56.464C27.9002 56.2827 28.0988 56.1413 28.3335 56.04C28.5682 55.936 28.8322 55.884 29.1255 55.884ZM29.1415 56.408C28.7975 56.408 28.5268 56.508 28.3295 56.708C28.1322 56.9053 28.0095 57.18 27.9615 57.532H30.1655C30.1655 57.3667 30.1428 57.216 30.0975 57.08C30.0522 56.9413 29.9855 56.8227 29.8975 56.724C29.8095 56.6227 29.7015 56.5453 29.5735 56.492C29.4482 56.436 29.3042 56.408 29.1415 56.408ZM34.6928 60H34.3768C34.3075 60 34.2515 59.9893 34.2088 59.968C34.1661 59.9467 34.1381 59.9013 34.1248 59.832L34.0448 59.456C33.9381 59.552 33.8341 59.6387 33.7328 59.716C33.6315 59.7907 33.5248 59.8547 33.4128 59.908C33.3008 59.9587 33.1808 59.9973 33.0528 60.024C32.9275 60.0507 32.7875 60.064 32.6328 60.064C32.4755 60.064 32.3275 60.0427 32.1888 60C32.0528 59.9547 31.9341 59.888 31.8328 59.8C31.7315 59.712 31.6501 59.6013 31.5888 59.468C31.5301 59.332 31.5008 59.172 31.5008 58.988C31.5008 58.828 31.5448 58.6747 31.6328 58.528C31.7208 58.3787 31.8621 58.2467 32.0568 58.132C32.2541 58.0173 32.5115 57.924 32.8288 57.852C33.1461 57.7773 33.5341 57.7347 33.9928 57.724V57.408C33.9928 57.0933 33.9248 56.856 33.7888 56.696C33.6555 56.5333 33.4568 56.452 33.1928 56.452C33.0195 56.452 32.8728 56.4747 32.7528 56.52C32.6355 56.5627 32.5328 56.612 32.4448 56.668C32.3595 56.7213 32.2848 56.7707 32.2208 56.816C32.1595 56.8587 32.0981 56.88 32.0368 56.88C31.9888 56.88 31.9461 56.868 31.9088 56.844C31.8741 56.8173 31.8461 56.7853 31.8248 56.748L31.6968 56.52C31.9208 56.304 32.1621 56.1427 32.4208 56.036C32.6795 55.9293 32.9661 55.876 33.2808 55.876C33.5075 55.876 33.7088 55.9133 33.8848 55.988C34.0608 56.0627 34.2088 56.1667 34.3288 56.3C34.4488 56.4333 34.5395 56.5947 34.6008 56.784C34.6621 56.9733 34.6928 57.1813 34.6928 57.408V60ZM32.8448 59.564C32.9701 59.564 33.0848 59.552 33.1888 59.528C33.2928 59.5013 33.3901 59.4653 33.4808 59.42C33.5741 59.372 33.6621 59.3147 33.7448 59.248C33.8301 59.1813 33.9128 59.1053 33.9928 59.02V58.176C33.6648 58.1867 33.3861 58.2133 33.1568 58.256C32.9275 58.296 32.7408 58.3493 32.5968 58.416C32.4528 58.4827 32.3475 58.5613 32.2808 58.652C32.2168 58.7427 32.1848 58.844 32.1848 58.956C32.1848 59.0627 32.2021 59.1547 32.2368 59.232C32.2715 59.3093 32.3181 59.3733 32.3768 59.424C32.4355 59.472 32.5048 59.508 32.5848 59.532C32.6648 59.5533 32.7515 59.564 32.8448 59.564ZM38.0915 56.616C38.0595 56.6747 38.0102 56.704 37.9435 56.704C37.9035 56.704 37.8582 56.6893 37.8075 56.66C37.7568 56.6307 37.6942 56.5987 37.6195 56.564C37.5475 56.5267 37.4608 56.4933 37.3595 56.464C37.2582 56.432 37.1382 56.416 36.9995 56.416C36.8795 56.416 36.7715 56.432 36.6755 56.464C36.5795 56.4933 36.4968 56.5347 36.4275 56.588C36.3608 56.6413 36.3088 56.704 36.2715 56.776C36.2368 56.8453 36.2195 56.9213 36.2195 57.004C36.2195 57.108 36.2488 57.1947 36.3075 57.264C36.3688 57.3333 36.4488 57.3933 36.5475 57.444C36.6462 57.4947 36.7582 57.54 36.8835 57.58C37.0088 57.6173 37.1368 57.6587 37.2675 57.704C37.4008 57.7467 37.5302 57.7947 37.6555 57.848C37.7808 57.9013 37.8928 57.968 37.9915 58.048C38.0902 58.128 38.1688 58.2267 38.2275 58.344C38.2888 58.4587 38.3195 58.5973 38.3195 58.76C38.3195 58.9467 38.2862 59.12 38.2195 59.28C38.1528 59.4373 38.0542 59.5747 37.9235 59.692C37.7928 59.8067 37.6328 59.8973 37.4435 59.964C37.2542 60.0307 37.0355 60.064 36.7875 60.064C36.5048 60.064 36.2488 60.0187 36.0195 59.928C35.7902 59.8347 35.5955 59.716 35.4355 59.572L35.6035 59.3C35.6248 59.2653 35.6502 59.2387 35.6795 59.22C35.7088 59.2013 35.7475 59.192 35.7955 59.192C35.8435 59.192 35.8942 59.2107 35.9475 59.248C36.0008 59.2853 36.0648 59.3267 36.1395 59.372C36.2168 59.4173 36.3088 59.4587 36.4155 59.496C36.5248 59.5333 36.6608 59.552 36.8235 59.552C36.9622 59.552 37.0835 59.5347 37.1875 59.5C37.2915 59.4627 37.3782 59.4133 37.4475 59.352C37.5168 59.2907 37.5675 59.22 37.5995 59.14C37.6342 59.06 37.6515 58.9747 37.6515 58.884C37.6515 58.772 37.6208 58.68 37.5595 58.608C37.5008 58.5333 37.4222 58.4707 37.3235 58.42C37.2248 58.3667 37.1115 58.3213 36.9835 58.284C36.8582 58.244 36.7288 58.2027 36.5955 58.16C36.4648 58.1173 36.3355 58.0693 36.2075 58.016C36.0822 57.96 35.9702 57.8907 35.8715 57.808C35.7728 57.7253 35.6928 57.624 35.6315 57.504C35.5728 57.3813 35.5435 57.2333 35.5435 57.06C35.5435 56.9053 35.5755 56.7573 35.6395 56.616C35.7035 56.472 35.7968 56.3467 35.9195 56.24C36.0422 56.1307 36.1928 56.044 36.3715 55.98C36.5502 55.916 36.7542 55.884 36.9835 55.884C37.2502 55.884 37.4888 55.9267 37.6995 56.012C37.9128 56.0947 38.0968 56.2093 38.2515 56.356L38.0915 56.616ZM40.8443 55.884C41.0869 55.884 41.3109 55.9253 41.5163 56.008C41.7216 56.088 41.8989 56.2053 42.0483 56.36C42.1976 56.512 42.3136 56.7013 42.3963 56.928C42.4816 57.152 42.5243 57.408 42.5243 57.696C42.5243 57.808 42.5123 57.8827 42.4883 57.92C42.4643 57.9573 42.4189 57.976 42.3523 57.976H39.6562C39.6616 58.232 39.6963 58.4547 39.7603 58.644C39.8243 58.8333 39.9123 58.992 40.0243 59.12C40.1363 59.2453 40.2696 59.34 40.4243 59.404C40.5789 59.4653 40.7523 59.496 40.9443 59.496C41.1229 59.496 41.2763 59.476 41.4043 59.436C41.5349 59.3933 41.6469 59.348 41.7403 59.3C41.8336 59.252 41.9109 59.208 41.9723 59.168C42.0363 59.1253 42.0909 59.104 42.1363 59.104C42.1949 59.104 42.2403 59.1267 42.2723 59.172L42.4723 59.432C42.3843 59.5387 42.2789 59.632 42.1563 59.712C42.0336 59.7893 41.9016 59.8533 41.7603 59.904C41.6216 59.9547 41.4776 59.992 41.3283 60.016C41.1789 60.0427 41.0309 60.056 40.8843 60.056C40.6043 60.056 40.3456 60.0093 40.1083 59.916C39.8736 59.82 39.6696 59.6813 39.4963 59.5C39.3256 59.316 39.1923 59.0893 39.0963 58.82C39.0003 58.5507 38.9523 58.2413 38.9523 57.892C38.9523 57.6093 38.9949 57.3453 39.0803 57.1C39.1683 56.8547 39.2936 56.6427 39.4563 56.464C39.6189 56.2827 39.8176 56.1413 40.0523 56.04C40.2869 55.936 40.5509 55.884 40.8443 55.884ZM40.8602 56.408C40.5163 56.408 40.2456 56.508 40.0483 56.708C39.8509 56.9053 39.7283 57.18 39.6803 57.532H41.8843C41.8843 57.3667 41.8616 57.216 41.8163 57.08C41.7709 56.9413 41.7043 56.8227 41.6163 56.724C41.5283 56.6227 41.4203 56.5453 41.2923 56.492C41.1669 56.436 41.0229 56.408 40.8602 56.408ZM47.3024 56.616C47.2704 56.6747 47.2211 56.704 47.1544 56.704C47.1144 56.704 47.0691 56.6893 47.0184 56.66C46.9678 56.6307 46.9051 56.5987 46.8304 56.564C46.7584 56.5267 46.6718 56.4933 46.5704 56.464C46.4691 56.432 46.3491 56.416 46.2104 56.416C46.0904 56.416 45.9824 56.432 45.8864 56.464C45.7904 56.4933 45.7078 56.5347 45.6384 56.588C45.5718 56.6413 45.5198 56.704 45.4824 56.776C45.4478 56.8453 45.4304 56.9213 45.4304 57.004C45.4304 57.108 45.4598 57.1947 45.5184 57.264C45.5798 57.3333 45.6598 57.3933 45.7584 57.444C45.8571 57.4947 45.9691 57.54 46.0944 57.58C46.2198 57.6173 46.3478 57.6587 46.4784 57.704C46.6118 57.7467 46.7411 57.7947 46.8664 57.848C46.9918 57.9013 47.1038 57.968 47.2024 58.048C47.3011 58.128 47.3798 58.2267 47.4384 58.344C47.4998 58.4587 47.5304 58.5973 47.5304 58.76C47.5304 58.9467 47.4971 59.12 47.4304 59.28C47.3638 59.4373 47.2651 59.5747 47.1344 59.692C47.0038 59.8067 46.8438 59.8973 46.6544 59.964C46.4651 60.0307 46.2464 60.064 45.9984 60.064C45.7158 60.064 45.4598 60.0187 45.2304 59.928C45.0011 59.8347 44.8064 59.716 44.6464 59.572L44.8144 59.3C44.8358 59.2653 44.8611 59.2387 44.8904 59.22C44.9198 59.2013 44.9584 59.192 45.0064 59.192C45.0544 59.192 45.1051 59.2107 45.1584 59.248C45.2118 59.2853 45.2758 59.3267 45.3504 59.372C45.4278 59.4173 45.5198 59.4587 45.6264 59.496C45.7358 59.5333 45.8718 59.552 46.0344 59.552C46.1731 59.552 46.2944 59.5347 46.3984 59.5C46.5024 59.4627 46.5891 59.4133 46.6584 59.352C46.7278 59.2907 46.7784 59.22 46.8104 59.14C46.8451 59.06 46.8624 58.9747 46.8624 58.884C46.8624 58.772 46.8318 58.68 46.7704 58.608C46.7118 58.5333 46.6331 58.4707 46.5344 58.42C46.4358 58.3667 46.3224 58.3213 46.1944 58.284C46.0691 58.244 45.9398 58.2027 45.8064 58.16C45.6758 58.1173 45.5464 58.0693 45.4184 58.016C45.2931 57.96 45.1811 57.8907 45.0824 57.808C44.9838 57.7253 44.9038 57.624 44.8424 57.504C44.7838 57.3813 44.7544 57.2333 44.7544 57.06C44.7544 56.9053 44.7864 56.7573 44.8504 56.616C44.9144 56.472 45.0078 56.3467 45.1304 56.24C45.2531 56.1307 45.4038 56.044 45.5824 55.98C45.7611 55.916 45.9651 55.884 46.1944 55.884C46.4611 55.884 46.6998 55.9267 46.9104 56.012C47.1238 56.0947 47.3078 56.2093 47.4624 56.356L47.3024 56.616ZM50.0552 55.884C50.2979 55.884 50.5219 55.9253 50.7272 56.008C50.9325 56.088 51.1099 56.2053 51.2592 56.36C51.4085 56.512 51.5245 56.7013 51.6072 56.928C51.6925 57.152 51.7352 57.408 51.7352 57.696C51.7352 57.808 51.7232 57.8827 51.6992 57.92C51.6752 57.9573 51.6299 57.976 51.5632 57.976H48.8672C48.8725 58.232 48.9072 58.4547 48.9712 58.644C49.0352 58.8333 49.1232 58.992 49.2352 59.12C49.3472 59.2453 49.4805 59.34 49.6352 59.404C49.7899 59.4653 49.9632 59.496 50.1552 59.496C50.3339 59.496 50.4872 59.476 50.6152 59.436C50.7459 59.3933 50.8579 59.348 50.9512 59.3C51.0445 59.252 51.1219 59.208 51.1832 59.168C51.2472 59.1253 51.3019 59.104 51.3472 59.104C51.4059 59.104 51.4512 59.1267 51.4832 59.172L51.6832 59.432C51.5952 59.5387 51.4899 59.632 51.3672 59.712C51.2445 59.7893 51.1125 59.8533 50.9712 59.904C50.8325 59.9547 50.6885 59.992 50.5392 60.016C50.3899 60.0427 50.2419 60.056 50.0952 60.056C49.8152 60.056 49.5565 60.0093 49.3192 59.916C49.0845 59.82 48.8805 59.6813 48.7072 59.5C48.5365 59.316 48.4032 59.0893 48.3072 58.82C48.2112 58.5507 48.1632 58.2413 48.1632 57.892C48.1632 57.6093 48.2059 57.3453 48.2912 57.1C48.3792 56.8547 48.5045 56.6427 48.6672 56.464C48.8299 56.2827 49.0285 56.1413 49.2632 56.04C49.4979 55.936 49.7619 55.884 50.0552 55.884ZM50.0712 56.408C49.7272 56.408 49.4565 56.508 49.2592 56.708C49.0619 56.9053 48.9392 57.18 48.8912 57.532H51.0952C51.0952 57.3667 51.0725 57.216 51.0272 57.08C50.9819 56.9413 50.9152 56.8227 50.8272 56.724C50.7392 56.6227 50.6312 56.5453 50.5032 56.492C50.3779 56.436 50.2339 56.408 50.0712 56.408ZM53.4385 54.108V60H52.7265V54.108H53.4385ZM56.2974 55.884C56.54 55.884 56.764 55.9253 56.9694 56.008C57.1747 56.088 57.352 56.2053 57.5014 56.36C57.6507 56.512 57.7667 56.7013 57.8494 56.928C57.9347 57.152 57.9774 57.408 57.9774 57.696C57.9774 57.808 57.9654 57.8827 57.9414 57.92C57.9174 57.9573 57.872 57.976 57.8054 57.976H55.1094C55.1147 58.232 55.1494 58.4547 55.2134 58.644C55.2774 58.8333 55.3654 58.992 55.4774 59.12C55.5894 59.2453 55.7227 59.34 55.8774 59.404C56.032 59.4653 56.2054 59.496 56.3974 59.496C56.576 59.496 56.7294 59.476 56.8574 59.436C56.988 59.3933 57.1 59.348 57.1934 59.3C57.2867 59.252 57.364 59.208 57.4254 59.168C57.4894 59.1253 57.544 59.104 57.5894 59.104C57.648 59.104 57.6934 59.1267 57.7254 59.172L57.9254 59.432C57.8374 59.5387 57.732 59.632 57.6094 59.712C57.4867 59.7893 57.3547 59.8533 57.2134 59.904C57.0747 59.9547 56.9307 59.992 56.7814 60.016C56.632 60.0427 56.484 60.056 56.3374 60.056C56.0574 60.056 55.7987 60.0093 55.5614 59.916C55.3267 59.82 55.1227 59.6813 54.9494 59.5C54.7787 59.316 54.6454 59.0893 54.5494 58.82C54.4534 58.5507 54.4054 58.2413 54.4054 57.892C54.4054 57.6093 54.448 57.3453 54.5334 57.1C54.6214 56.8547 54.7467 56.6427 54.9094 56.464C55.072 56.2827 55.2707 56.1413 55.5054 56.04C55.74 55.936 56.004 55.884 56.2974 55.884ZM56.3134 56.408C55.9694 56.408 55.6987 56.508 55.5014 56.708C55.304 56.9053 55.1814 57.18 55.1334 57.532H57.3374C57.3374 57.3667 57.3147 57.216 57.2694 57.08C57.224 56.9413 57.1574 56.8227 57.0694 56.724C56.9814 56.6227 56.8734 56.5453 56.7454 56.492C56.62 56.436 56.476 56.408 56.3134 56.408ZM61.6527 56.668C61.6314 56.6973 61.61 56.72 61.5887 56.736C61.5674 56.752 61.5367 56.76 61.4967 56.76C61.4567 56.76 61.4127 56.744 61.3647 56.712C61.3194 56.6773 61.2607 56.64 61.1887 56.6C61.1167 56.56 61.0287 56.524 60.9247 56.492C60.8234 56.4573 60.698 56.44 60.5487 56.44C60.3514 56.44 60.1767 56.476 60.0247 56.548C59.8727 56.6173 59.7447 56.7187 59.6407 56.852C59.5394 56.9853 59.462 57.1467 59.4087 57.336C59.358 57.5253 59.3327 57.7373 59.3327 57.972C59.3327 58.2173 59.3607 58.436 59.4167 58.628C59.4727 58.8173 59.5514 58.9773 59.6527 59.108C59.754 59.236 59.8767 59.3347 60.0207 59.404C60.1674 59.4707 60.3314 59.504 60.5127 59.504C60.686 59.504 60.8287 59.484 60.9407 59.444C61.0527 59.4013 61.146 59.3547 61.2207 59.304C61.2954 59.2533 61.3567 59.208 61.4047 59.168C61.4527 59.1253 61.5007 59.104 61.5487 59.104C61.61 59.104 61.6554 59.1267 61.6847 59.172L61.8847 59.432C61.7087 59.648 61.4887 59.8067 61.2247 59.908C60.9607 60.0067 60.682 60.056 60.3887 60.056C60.1354 60.056 59.8994 60.0093 59.6807 59.916C59.4647 59.8227 59.2767 59.688 59.1167 59.512C58.9567 59.3333 58.83 59.1147 58.7367 58.856C58.646 58.5973 58.6007 58.3027 58.6007 57.972C58.6007 57.6707 58.642 57.392 58.7247 57.136C58.81 56.88 58.9327 56.66 59.0927 56.476C59.2554 56.2893 59.4554 56.144 59.6927 56.04C59.93 55.936 60.202 55.884 60.5087 55.884C60.7914 55.884 61.042 55.9307 61.2607 56.024C61.4794 56.1147 61.6727 56.244 61.8407 56.412L61.6527 56.668ZM63.8511 60.064C63.5311 60.064 63.2844 59.9747 63.1111 59.796C62.9404 59.6173 62.8551 59.36 62.8551 59.024V56.544H62.3671C62.3244 56.544 62.2884 56.532 62.2591 56.508C62.2297 56.4813 62.2151 56.4413 62.2151 56.388V56.104L62.8791 56.02L63.0431 54.768C63.0484 54.728 63.0657 54.696 63.0951 54.672C63.1244 54.6453 63.1617 54.632 63.2071 54.632H63.5671V56.028H64.7271V56.544H63.5671V58.976C63.5671 59.1467 63.6084 59.2733 63.6911 59.356C63.7737 59.4387 63.8804 59.48 64.0111 59.48C64.0857 59.48 64.1497 59.4707 64.2031 59.452C64.2591 59.4307 64.3071 59.408 64.3471 59.384C64.3871 59.36 64.4204 59.3387 64.4471 59.32C64.4764 59.2987 64.5017 59.288 64.5231 59.288C64.5604 59.288 64.5937 59.3107 64.6231 59.356L64.8311 59.696C64.7084 59.8107 64.5604 59.9013 64.3871 59.968C64.2137 60.032 64.0351 60.064 63.8511 60.064ZM68.7583 55.884C69.001 55.884 69.225 55.9253 69.4303 56.008C69.6356 56.088 69.813 56.2053 69.9623 56.36C70.1116 56.512 70.2276 56.7013 70.3103 56.928C70.3956 57.152 70.4383 57.408 70.4383 57.696C70.4383 57.808 70.4263 57.8827 70.4023 57.92C70.3783 57.9573 70.333 57.976 70.2663 57.976H67.5703C67.5756 58.232 67.6103 58.4547 67.6743 58.644C67.7383 58.8333 67.8263 58.992 67.9383 59.12C68.0503 59.2453 68.1836 59.34 68.3383 59.404C68.493 59.4653 68.6663 59.496 68.8583 59.496C69.037 59.496 69.1903 59.476 69.3183 59.436C69.449 59.3933 69.561 59.348 69.6543 59.3C69.7476 59.252 69.825 59.208 69.8863 59.168C69.9503 59.1253 70.005 59.104 70.0503 59.104C70.109 59.104 70.1543 59.1267 70.1863 59.172L70.3863 59.432C70.2983 59.5387 70.193 59.632 70.0703 59.712C69.9476 59.7893 69.8156 59.8533 69.6743 59.904C69.5356 59.9547 69.3916 59.992 69.2423 60.016C69.093 60.0427 68.945 60.056 68.7983 60.056C68.5183 60.056 68.2596 60.0093 68.0223 59.916C67.7876 59.82 67.5836 59.6813 67.4103 59.5C67.2396 59.316 67.1063 59.0893 67.0103 58.82C66.9143 58.5507 66.8663 58.2413 66.8663 57.892C66.8663 57.6093 66.909 57.3453 66.9943 57.1C67.0823 56.8547 67.2076 56.6427 67.3703 56.464C67.533 56.2827 67.7316 56.1413 67.9663 56.04C68.201 55.936 68.465 55.884 68.7583 55.884ZM68.7743 56.408C68.4303 56.408 68.1596 56.508 67.9623 56.708C67.765 56.9053 67.6423 57.18 67.5943 57.532H69.7983C69.7983 57.3667 69.7756 57.216 69.7303 57.08C69.685 56.9413 69.6183 56.8227 69.5303 56.724C69.4423 56.6227 69.3343 56.5453 69.2063 56.492C69.081 56.436 68.937 56.408 68.7743 56.408ZM71.3496 60V55.948H71.7736C71.875 55.948 71.939 55.9973 71.9656 56.096L72.0176 56.512C72.167 56.328 72.3336 56.1773 72.5176 56.06C72.7043 55.9427 72.9203 55.884 73.1656 55.884C73.4403 55.884 73.6616 55.96 73.8296 56.112C74.0003 56.264 74.123 56.4693 74.1976 56.728C74.2536 56.5813 74.327 56.4547 74.4176 56.348C74.511 56.2413 74.615 56.1533 74.7296 56.084C74.8443 56.0147 74.9656 55.964 75.0936 55.932C75.2243 55.9 75.3563 55.884 75.4896 55.884C75.703 55.884 75.8923 55.9187 76.0576 55.988C76.2256 56.0547 76.367 56.1533 76.4816 56.284C76.599 56.4147 76.6883 56.576 76.7496 56.768C76.811 56.9573 76.8416 57.1747 76.8416 57.42V60H76.1296V57.42C76.1296 57.1027 76.0603 56.8627 75.9216 56.7C75.783 56.5347 75.5816 56.452 75.3176 56.452C75.2003 56.452 75.0883 56.4733 74.9816 56.516C74.8776 56.556 74.7856 56.616 74.7056 56.696C74.6256 56.776 74.5616 56.8773 74.5136 57C74.4683 57.12 74.4456 57.26 74.4456 57.42V60H73.7336V57.42C73.7336 57.0947 73.6683 56.852 73.5376 56.692C73.407 56.532 73.2163 56.452 72.9656 56.452C72.7896 56.452 72.6256 56.5 72.4736 56.596C72.3243 56.6893 72.187 56.8173 72.0616 56.98V60H71.3496ZM77.9199 61.372V55.948H78.3439C78.4453 55.948 78.5093 55.9973 78.5359 56.096L78.5959 56.576C78.7693 56.3653 78.9666 56.196 79.1879 56.068C79.4119 55.94 79.6693 55.876 79.9599 55.876C80.1919 55.876 80.4026 55.9213 80.5919 56.012C80.7813 56.1 80.9426 56.232 81.0759 56.408C81.2093 56.5813 81.3119 56.7973 81.3839 57.056C81.4559 57.3147 81.4919 57.612 81.4919 57.948C81.4919 58.2467 81.4519 58.5253 81.3719 58.784C81.2919 59.04 81.1773 59.2627 81.0279 59.452C80.8786 59.6387 80.6946 59.7867 80.4759 59.896C80.2599 60.0027 80.0159 60.056 79.7439 60.056C79.4933 60.056 79.2786 60.0147 79.0999 59.932C78.9239 59.8493 78.7679 59.732 78.6319 59.58V61.372H77.9199ZM79.7239 56.452C79.4919 56.452 79.2879 56.5053 79.1119 56.612C78.9386 56.7187 78.7786 56.8693 78.6319 57.064V59.024C78.7626 59.2 78.9053 59.324 79.0599 59.396C79.2173 59.468 79.3919 59.504 79.5839 59.504C79.9599 59.504 80.2493 59.3693 80.4519 59.1C80.6546 58.8307 80.7559 58.4467 80.7559 57.948C80.7559 57.684 80.7319 57.4573 80.6839 57.268C80.6386 57.0787 80.5719 56.924 80.4839 56.804C80.3959 56.6813 80.2879 56.592 80.1599 56.536C80.0319 56.48 79.8866 56.452 79.7239 56.452ZM83.126 54.108V60H82.414V54.108H83.126ZM86.0209 55.884C86.3169 55.884 86.5835 55.9333 86.8209 56.032C87.0609 56.1307 87.2635 56.2707 87.4289 56.452C87.5969 56.6333 87.7249 56.8533 87.8129 57.112C87.9035 57.368 87.9489 57.6547 87.9489 57.972C87.9489 58.292 87.9035 58.58 87.8129 58.836C87.7249 59.092 87.5969 59.3107 87.4289 59.492C87.2635 59.6733 87.0609 59.8133 86.8209 59.912C86.5835 60.008 86.3169 60.056 86.0209 60.056C85.7249 60.056 85.4569 60.008 85.2169 59.912C84.9795 59.8133 84.7769 59.6733 84.6089 59.492C84.4409 59.3107 84.3115 59.092 84.2209 58.836C84.1302 58.58 84.0849 58.292 84.0849 57.972C84.0849 57.6547 84.1302 57.368 84.2209 57.112C84.3115 56.8533 84.4409 56.6333 84.6089 56.452C84.7769 56.2707 84.9795 56.1307 85.2169 56.032C85.4569 55.9333 85.7249 55.884 86.0209 55.884ZM86.0209 59.5C86.4209 59.5 86.7195 59.3667 86.9169 59.1C87.1142 58.8307 87.2129 58.456 87.2129 57.976C87.2129 57.4933 87.1142 57.1173 86.9169 56.848C86.7195 56.5787 86.4209 56.444 86.0209 56.444C85.8182 56.444 85.6422 56.4787 85.4929 56.548C85.3435 56.6173 85.2182 56.7173 85.1169 56.848C85.0182 56.9787 84.9435 57.14 84.8929 57.332C84.8449 57.5213 84.8209 57.736 84.8209 57.976C84.8209 58.216 84.8449 58.4307 84.8929 58.62C84.9435 58.8093 85.0182 58.9693 85.1169 59.1C85.2182 59.228 85.3435 59.3267 85.4929 59.396C85.6422 59.4653 85.8182 59.5 86.0209 59.5ZM89.9126 61.196C89.8886 61.2493 89.858 61.292 89.8206 61.324C89.786 61.356 89.7313 61.372 89.6566 61.372H89.1286L89.8686 59.764L88.1966 55.948H88.8126C88.874 55.948 88.922 55.964 88.9566 55.996C88.9913 56.0253 89.0166 56.0587 89.0326 56.096L90.1166 58.648C90.1406 58.7067 90.1606 58.7653 90.1766 58.824C90.1953 58.8827 90.2113 58.9427 90.2246 59.004C90.2433 58.9427 90.262 58.8827 90.2806 58.824C90.2993 58.7653 90.3206 58.7053 90.3446 58.644L91.3966 56.096C91.4126 56.0533 91.4393 56.0187 91.4766 55.992C91.5166 55.9627 91.5593 55.948 91.6046 55.948H92.1726L89.9126 61.196ZM92.8184 60V55.948H93.2424C93.3437 55.948 93.4077 55.9973 93.4344 56.096L93.4864 56.512C93.6357 56.328 93.8024 56.1773 93.9864 56.06C94.173 55.9427 94.389 55.884 94.6344 55.884C94.909 55.884 95.1304 55.96 95.2984 56.112C95.469 56.264 95.5917 56.4693 95.6664 56.728C95.7224 56.5813 95.7957 56.4547 95.8864 56.348C95.9797 56.2413 96.0837 56.1533 96.1984 56.084C96.313 56.0147 96.4344 55.964 96.5624 55.932C96.693 55.9 96.825 55.884 96.9584 55.884C97.1717 55.884 97.361 55.9187 97.5264 55.988C97.6944 56.0547 97.8357 56.1533 97.9504 56.284C98.0677 56.4147 98.157 56.576 98.2184 56.768C98.2797 56.9573 98.3104 57.1747 98.3104 57.42V60H97.5984V57.42C97.5984 57.1027 97.529 56.8627 97.3904 56.7C97.2517 56.5347 97.0504 56.452 96.7864 56.452C96.669 56.452 96.557 56.4733 96.4504 56.516C96.3464 56.556 96.2544 56.616 96.1744 56.696C96.0944 56.776 96.0304 56.8773 95.9824 57C95.937 57.12 95.9144 57.26 95.9144 57.42V60H95.2024V57.42C95.2024 57.0947 95.137 56.852 95.0064 56.692C94.8757 56.532 94.685 56.452 94.4344 56.452C94.2584 56.452 94.0944 56.5 93.9424 56.596C93.793 56.6893 93.6557 56.8173 93.5304 56.98V60H92.8184ZM100.993 55.884C101.235 55.884 101.459 55.9253 101.665 56.008C101.87 56.088 102.047 56.2053 102.197 56.36C102.346 56.512 102.462 56.7013 102.545 56.928C102.63 57.152 102.673 57.408 102.673 57.696C102.673 57.808 102.661 57.8827 102.637 57.92C102.613 57.9573 102.567 57.976 102.501 57.976H99.8047C99.81 58.232 99.8447 58.4547 99.9087 58.644C99.9727 58.8333 100.061 58.992 100.173 59.12C100.285 59.2453 100.418 59.34 100.573 59.404C100.727 59.4653 100.901 59.496 101.093 59.496C101.271 59.496 101.425 59.476 101.553 59.436C101.683 59.3933 101.795 59.348 101.889 59.3C101.982 59.252 102.059 59.208 102.121 59.168C102.185 59.1253 102.239 59.104 102.285 59.104C102.343 59.104 102.389 59.1267 102.421 59.172L102.621 59.432C102.533 59.5387 102.427 59.632 102.305 59.712C102.182 59.7893 102.05 59.8533 101.909 59.904C101.77 59.9547 101.626 59.992 101.477 60.016C101.327 60.0427 101.179 60.056 101.033 60.056C100.753 60.056 100.494 60.0093 100.257 59.916C100.022 59.82 99.818 59.6813 99.6447 59.5C99.474 59.316 99.3407 59.0893 99.2447 58.82C99.1487 58.5507 99.1007 58.2413 99.1007 57.892C99.1007 57.6093 99.1434 57.3453 99.2287 57.1C99.3167 56.8547 99.442 56.6427 99.6047 56.464C99.7674 56.2827 99.966 56.1413 100.201 56.04C100.435 55.936 100.699 55.884 100.993 55.884ZM101.009 56.408C100.665 56.408 100.394 56.508 100.197 56.708C99.9994 56.9053 99.8767 57.18 99.8287 57.532H102.033C102.033 57.3667 102.01 57.216 101.965 57.08C101.919 56.9413 101.853 56.8227 101.765 56.724C101.677 56.6227 101.569 56.5453 101.441 56.492C101.315 56.436 101.171 56.408 101.009 56.408ZM103.584 60V55.948H104.008C104.109 55.948 104.173 55.9973 104.2 56.096L104.256 56.536C104.432 56.3413 104.628 56.184 104.844 56.064C105.063 55.944 105.315 55.884 105.6 55.884C105.821 55.884 106.016 55.9213 106.184 55.996C106.355 56.068 106.496 56.172 106.608 56.308C106.723 56.4413 106.809 56.6027 106.868 56.792C106.927 56.9813 106.956 57.1907 106.956 57.42V60H106.244V57.42C106.244 57.1133 106.173 56.876 106.032 56.708C105.893 56.5373 105.68 56.452 105.392 56.452C105.181 56.452 104.984 56.5027 104.8 56.604C104.619 56.7053 104.451 56.8427 104.296 57.016V60H103.584ZM109.257 60.064C108.937 60.064 108.691 59.9747 108.517 59.796C108.347 59.6173 108.261 59.36 108.261 59.024V56.544H107.773C107.731 56.544 107.695 56.532 107.665 56.508C107.636 56.4813 107.621 56.4413 107.621 56.388V56.104L108.285 56.02L108.449 54.768C108.455 54.728 108.472 54.696 108.501 54.672C108.531 54.6453 108.568 54.632 108.613 54.632H108.973V56.028H110.133V56.544H108.973V58.976C108.973 59.1467 109.015 59.2733 109.097 59.356C109.18 59.4387 109.287 59.48 109.417 59.48C109.492 59.48 109.556 59.4707 109.609 59.452C109.665 59.4307 109.713 59.408 109.753 59.384C109.793 59.36 109.827 59.3387 109.853 59.32C109.883 59.2987 109.908 59.288 109.929 59.288C109.967 59.288 110 59.3107 110.029 59.356L110.237 59.696C110.115 59.8107 109.967 59.9013 109.793 59.968C109.62 60.032 109.441 60.064 109.257 60.064ZM114.881 56.616C114.849 56.6747 114.799 56.704 114.733 56.704C114.693 56.704 114.647 56.6893 114.597 56.66C114.546 56.6307 114.483 56.5987 114.409 56.564C114.337 56.5267 114.25 56.4933 114.149 56.464C114.047 56.432 113.927 56.416 113.789 56.416C113.669 56.416 113.561 56.432 113.465 56.464C113.369 56.4933 113.286 56.5347 113.217 56.588C113.15 56.6413 113.098 56.704 113.061 56.776C113.026 56.8453 113.009 56.9213 113.009 57.004C113.009 57.108 113.038 57.1947 113.097 57.264C113.158 57.3333 113.238 57.3933 113.337 57.444C113.435 57.4947 113.547 57.54 113.673 57.58C113.798 57.6173 113.926 57.6587 114.057 57.704C114.19 57.7467 114.319 57.7947 114.445 57.848C114.57 57.9013 114.682 57.968 114.781 58.048C114.879 58.128 114.958 58.2267 115.017 58.344C115.078 58.4587 115.109 58.5973 115.109 58.76C115.109 58.9467 115.075 59.12 115.009 59.28C114.942 59.4373 114.843 59.5747 114.713 59.692C114.582 59.8067 114.422 59.8973 114.233 59.964C114.043 60.0307 113.825 60.064 113.577 60.064C113.294 60.064 113.038 60.0187 112.809 59.928C112.579 59.8347 112.385 59.716 112.225 59.572L112.393 59.3C112.414 59.2653 112.439 59.2387 112.469 59.22C112.498 59.2013 112.537 59.192 112.585 59.192C112.633 59.192 112.683 59.2107 112.737 59.248C112.79 59.2853 112.854 59.3267 112.929 59.372C113.006 59.4173 113.098 59.4587 113.205 59.496C113.314 59.5333 113.45 59.552 113.613 59.552C113.751 59.552 113.873 59.5347 113.977 59.5C114.081 59.4627 114.167 59.4133 114.237 59.352C114.306 59.2907 114.357 59.22 114.389 59.14C114.423 59.06 114.441 58.9747 114.441 58.884C114.441 58.772 114.41 58.68 114.349 58.608C114.29 58.5333 114.211 58.4707 114.113 58.42C114.014 58.3667 113.901 58.3213 113.773 58.284C113.647 58.244 113.518 58.2027 113.385 58.16C113.254 58.1173 113.125 58.0693 112.997 58.016C112.871 57.96 112.759 57.8907 112.661 57.808C112.562 57.7253 112.482 57.624 112.421 57.504C112.362 57.3813 112.333 57.2333 112.333 57.06C112.333 56.9053 112.365 56.7573 112.429 56.616C112.493 56.472 112.586 56.3467 112.709 56.24C112.831 56.1307 112.982 56.044 113.161 55.98C113.339 55.916 113.543 55.884 113.773 55.884C114.039 55.884 114.278 55.9267 114.489 56.012C114.702 56.0947 114.886 56.2093 115.041 56.356L114.881 56.616ZM117.257 60.064C116.937 60.064 116.691 59.9747 116.517 59.796C116.347 59.6173 116.261 59.36 116.261 59.024V56.544H115.773C115.731 56.544 115.695 56.532 115.665 56.508C115.636 56.4813 115.621 56.4413 115.621 56.388V56.104L116.285 56.02L116.449 54.768C116.455 54.728 116.472 54.696 116.501 54.672C116.531 54.6453 116.568 54.632 116.613 54.632H116.973V56.028H118.133V56.544H116.973V58.976C116.973 59.1467 117.015 59.2733 117.097 59.356C117.18 59.4387 117.287 59.48 117.417 59.48C117.492 59.48 117.556 59.4707 117.609 59.452C117.665 59.4307 117.713 59.408 117.753 59.384C117.793 59.36 117.827 59.3387 117.853 59.32C117.883 59.2987 117.908 59.288 117.929 59.288C117.967 59.288 118 59.3107 118.029 59.356L118.237 59.696C118.115 59.8107 117.967 59.9013 117.793 59.968C117.62 60.032 117.441 60.064 117.257 60.064ZM121.99 60H121.674C121.604 60 121.548 59.9893 121.506 59.968C121.463 59.9467 121.435 59.9013 121.422 59.832L121.342 59.456C121.235 59.552 121.131 59.6387 121.03 59.716C120.928 59.7907 120.822 59.8547 120.71 59.908C120.598 59.9587 120.478 59.9973 120.35 60.024C120.224 60.0507 120.084 60.064 119.93 60.064C119.772 60.064 119.624 60.0427 119.486 60C119.35 59.9547 119.231 59.888 119.13 59.8C119.028 59.712 118.947 59.6013 118.886 59.468C118.827 59.332 118.798 59.172 118.798 58.988C118.798 58.828 118.842 58.6747 118.93 58.528C119.018 58.3787 119.159 58.2467 119.354 58.132C119.551 58.0173 119.808 57.924 120.126 57.852C120.443 57.7773 120.831 57.7347 121.29 57.724V57.408C121.29 57.0933 121.222 56.856 121.086 56.696C120.952 56.5333 120.754 56.452 120.49 56.452C120.316 56.452 120.17 56.4747 120.05 56.52C119.932 56.5627 119.83 56.612 119.742 56.668C119.656 56.7213 119.582 56.7707 119.518 56.816C119.456 56.8587 119.395 56.88 119.334 56.88C119.286 56.88 119.243 56.868 119.206 56.844C119.171 56.8173 119.143 56.7853 119.122 56.748L118.994 56.52C119.218 56.304 119.459 56.1427 119.718 56.036C119.976 55.9293 120.263 55.876 120.578 55.876C120.804 55.876 121.006 55.9133 121.182 55.988C121.358 56.0627 121.506 56.1667 121.626 56.3C121.746 56.4333 121.836 56.5947 121.898 56.784C121.959 56.9733 121.99 57.1813 121.99 57.408V60ZM120.142 59.564C120.267 59.564 120.382 59.552 120.486 59.528C120.59 59.5013 120.687 59.4653 120.778 59.42C120.871 59.372 120.959 59.3147 121.042 59.248C121.127 59.1813 121.21 59.1053 121.29 59.02V58.176C120.962 58.1867 120.683 58.2133 120.454 58.256C120.224 58.296 120.038 58.3493 119.894 58.416C119.75 58.4827 119.644 58.5613 119.578 58.652C119.514 58.7427 119.482 58.844 119.482 58.956C119.482 59.0627 119.499 59.1547 119.534 59.232C119.568 59.3093 119.615 59.3733 119.674 59.424C119.732 59.472 119.802 59.508 119.882 59.532C119.962 59.5533 120.048 59.564 120.142 59.564ZM124.296 60.064C123.976 60.064 123.73 59.9747 123.556 59.796C123.386 59.6173 123.3 59.36 123.3 59.024V56.544H122.812C122.77 56.544 122.734 56.532 122.704 56.508C122.675 56.4813 122.66 56.4413 122.66 56.388V56.104L123.324 56.02L123.488 54.768C123.494 54.728 123.511 54.696 123.54 54.672C123.57 54.6453 123.607 54.632 123.652 54.632H124.012V56.028H125.172V56.544H124.012V58.976C124.012 59.1467 124.054 59.2733 124.136 59.356C124.219 59.4387 124.326 59.48 124.456 59.48C124.531 59.48 124.595 59.4707 124.648 59.452C124.704 59.4307 124.752 59.408 124.792 59.384C124.832 59.36 124.866 59.3387 124.892 59.32C124.922 59.2987 124.947 59.288 124.968 59.288C125.006 59.288 125.039 59.3107 125.068 59.356L125.276 59.696C125.154 59.8107 125.006 59.9013 124.832 59.968C124.659 60.032 124.48 60.064 124.296 60.064ZM126.669 55.948V58.532C126.669 58.8387 126.739 59.076 126.881 59.244C127.022 59.412 127.235 59.496 127.521 59.496C127.729 59.496 127.925 59.4467 128.109 59.348C128.293 59.2493 128.462 59.112 128.617 58.936V55.948H129.329V60H128.905C128.803 60 128.739 59.9507 128.713 59.852L128.657 59.416C128.481 59.6107 128.283 59.768 128.065 59.888C127.846 60.0053 127.595 60.064 127.313 60.064C127.091 60.064 126.895 60.028 126.725 59.956C126.557 59.8813 126.415 59.7773 126.301 59.644C126.186 59.5107 126.099 59.3493 126.041 59.16C125.985 58.9707 125.957 58.7613 125.957 58.532V55.948H126.669ZM132.818 56.616C132.786 56.6747 132.737 56.704 132.67 56.704C132.63 56.704 132.585 56.6893 132.534 56.66C132.483 56.6307 132.421 56.5987 132.346 56.564C132.274 56.5267 132.187 56.4933 132.086 56.464C131.985 56.432 131.865 56.416 131.726 56.416C131.606 56.416 131.498 56.432 131.402 56.464C131.306 56.4933 131.223 56.5347 131.154 56.588C131.087 56.6413 131.035 56.704 130.998 56.776C130.963 56.8453 130.946 56.9213 130.946 57.004C130.946 57.108 130.975 57.1947 131.034 57.264C131.095 57.3333 131.175 57.3933 131.274 57.444C131.373 57.4947 131.485 57.54 131.61 57.58C131.735 57.6173 131.863 57.6587 131.994 57.704C132.127 57.7467 132.257 57.7947 132.382 57.848C132.507 57.9013 132.619 57.968 132.718 58.048C132.817 58.128 132.895 58.2267 132.954 58.344C133.015 58.4587 133.046 58.5973 133.046 58.76C133.046 58.9467 133.013 59.12 132.946 59.28C132.879 59.4373 132.781 59.5747 132.65 59.692C132.519 59.8067 132.359 59.8973 132.17 59.964C131.981 60.0307 131.762 60.064 131.514 60.064C131.231 60.064 130.975 60.0187 130.746 59.928C130.517 59.8347 130.322 59.716 130.162 59.572L130.33 59.3C130.351 59.2653 130.377 59.2387 130.406 59.22C130.435 59.2013 130.474 59.192 130.522 59.192C130.57 59.192 130.621 59.2107 130.674 59.248C130.727 59.2853 130.791 59.3267 130.866 59.372C130.943 59.4173 131.035 59.4587 131.142 59.496C131.251 59.5333 131.387 59.552 131.55 59.552C131.689 59.552 131.81 59.5347 131.914 59.5C132.018 59.4627 132.105 59.4133 132.174 59.352C132.243 59.2907 132.294 59.22 132.326 59.14C132.361 59.06 132.378 58.9747 132.378 58.884C132.378 58.772 132.347 58.68 132.286 58.608C132.227 58.5333 132.149 58.4707 132.05 58.42C131.951 58.3667 131.838 58.3213 131.71 58.284C131.585 58.244 131.455 58.2027 131.322 58.16C131.191 58.1173 131.062 58.0693 130.934 58.016C130.809 57.96 130.697 57.8907 130.598 57.808C130.499 57.7253 130.419 57.624 130.358 57.504C130.299 57.3813 130.27 57.2333 130.27 57.06C130.27 56.9053 130.302 56.7573 130.366 56.616C130.43 56.472 130.523 56.3467 130.646 56.24C130.769 56.1307 130.919 56.044 131.098 55.98C131.277 55.916 131.481 55.884 131.71 55.884C131.977 55.884 132.215 55.9267 132.426 56.012C132.639 56.0947 132.823 56.2093 132.978 56.356L132.818 56.616ZM133.895 59.56C133.895 59.4907 133.907 59.4253 133.931 59.364C133.957 59.3027 133.992 59.2493 134.035 59.204C134.08 59.1587 134.133 59.1227 134.195 59.096C134.256 59.0693 134.321 59.056 134.391 59.056C134.46 59.056 134.525 59.0693 134.587 59.096C134.648 59.1227 134.701 59.1587 134.747 59.204C134.792 59.2493 134.827 59.3027 134.851 59.364C134.877 59.4253 134.891 59.4907 134.891 59.56C134.891 59.632 134.877 59.6987 134.851 59.76C134.827 59.8187 134.792 59.8707 134.747 59.916C134.701 59.9613 134.648 59.996 134.587 60.02C134.525 60.0467 134.46 60.06 134.391 60.06C134.321 60.06 134.256 60.0467 134.195 60.02C134.133 59.996 134.08 59.9613 134.035 59.916C133.992 59.8707 133.957 59.8187 133.931 59.76C133.907 59.6987 133.895 59.632 133.895 59.56ZM133.895 56.56C133.895 56.4907 133.907 56.4253 133.931 56.364C133.957 56.3027 133.992 56.2493 134.035 56.204C134.08 56.1587 134.133 56.1227 134.195 56.096C134.256 56.0693 134.321 56.056 134.391 56.056C134.46 56.056 134.525 56.0693 134.587 56.096C134.648 56.1227 134.701 56.1587 134.747 56.204C134.792 56.2493 134.827 56.3027 134.851 56.364C134.877 56.4253 134.891 56.4907 134.891 56.56C134.891 56.632 134.877 56.6987 134.851 56.76C134.827 56.8187 134.792 56.8707 134.747 56.916C134.701 56.9613 134.648 56.9973 134.587 57.024C134.525 57.048 134.46 57.06 134.391 57.06C134.321 57.06 134.256 57.048 134.195 57.024C134.133 56.9973 134.08 56.9613 134.035 56.916C133.992 56.8707 133.957 56.8187 133.931 56.76C133.907 56.6987 133.895 56.632 133.895 56.56Z" fill="white"/>
<path d="M24.228 98.268V98.9H21.476V100.804H23.704V101.412H21.476V103.368H24.228V104H20.696V98.268H24.228ZM25.2324 104V99.948H25.6564C25.7578 99.948 25.8218 99.9973 25.8484 100.096L25.9044 100.536C26.0804 100.341 26.2764 100.184 26.4924 100.064C26.7111 99.944 26.9631 99.884 27.2484 99.884C27.4698 99.884 27.6644 99.9213 27.8324 99.996C28.0031 100.068 28.1444 100.172 28.2564 100.308C28.3711 100.441 28.4578 100.603 28.5164 100.792C28.5751 100.981 28.6044 101.191 28.6044 101.42V104H27.8924V101.42C27.8924 101.113 27.8218 100.876 27.6804 100.708C27.5418 100.537 27.3284 100.452 27.0404 100.452C26.8298 100.452 26.6324 100.503 26.4484 100.604C26.2671 100.705 26.0991 100.843 25.9444 101.016V104H25.2324ZM30.9058 104.064C30.5858 104.064 30.3391 103.975 30.1658 103.796C29.9951 103.617 29.9098 103.36 29.9098 103.024V100.544H29.4218C29.3791 100.544 29.3431 100.532 29.3138 100.508C29.2844 100.481 29.2698 100.441 29.2698 100.388V100.104L29.9338 100.02L30.0978 98.768C30.1031 98.728 30.1204 98.696 30.1497 98.672C30.1791 98.6453 30.2164 98.632 30.2618 98.632H30.6218V100.028H31.7818V100.544H30.6218V102.976C30.6218 103.147 30.6631 103.273 30.7458 103.356C30.8284 103.439 30.9351 103.48 31.0658 103.48C31.1404 103.48 31.2044 103.471 31.2578 103.452C31.3138 103.431 31.3618 103.408 31.4018 103.384C31.4418 103.36 31.4751 103.339 31.5018 103.32C31.5311 103.299 31.5564 103.288 31.5778 103.288C31.6151 103.288 31.6484 103.311 31.6778 103.356L31.8858 103.696C31.7631 103.811 31.6151 103.901 31.4418 103.968C31.2684 104.032 31.0898 104.064 30.9058 104.064ZM34.2661 99.884C34.5088 99.884 34.7328 99.9253 34.9381 100.008C35.1435 100.088 35.3208 100.205 35.4701 100.36C35.6195 100.512 35.7355 100.701 35.8181 100.928C35.9035 101.152 35.9461 101.408 35.9461 101.696C35.9461 101.808 35.9341 101.883 35.9101 101.92C35.8861 101.957 35.8408 101.976 35.7741 101.976H33.0781C33.0835 102.232 33.1181 102.455 33.1821 102.644C33.2461 102.833 33.3341 102.992 33.4461 103.12C33.5581 103.245 33.6915 103.34 33.8461 103.404C34.0008 103.465 34.1741 103.496 34.3661 103.496C34.5448 103.496 34.6981 103.476 34.8261 103.436C34.9568 103.393 35.0688 103.348 35.1621 103.3C35.2555 103.252 35.3328 103.208 35.3941 103.168C35.4581 103.125 35.5128 103.104 35.5581 103.104C35.6168 103.104 35.6621 103.127 35.6941 103.172L35.8941 103.432C35.8061 103.539 35.7008 103.632 35.5781 103.712C35.4555 103.789 35.3235 103.853 35.1821 103.904C35.0435 103.955 34.8995 103.992 34.7501 104.016C34.6008 104.043 34.4528 104.056 34.3061 104.056C34.0261 104.056 33.7675 104.009 33.5301 103.916C33.2955 103.82 33.0915 103.681 32.9181 103.5C32.7475 103.316 32.6141 103.089 32.5181 102.82C32.4221 102.551 32.3741 102.241 32.3741 101.892C32.3741 101.609 32.4168 101.345 32.5021 101.1C32.5901 100.855 32.7155 100.643 32.8781 100.464C33.0408 100.283 33.2395 100.141 33.4741 100.04C33.7088 99.936 33.9728 99.884 34.2661 99.884ZM34.2821 100.408C33.9381 100.408 33.6675 100.508 33.4701 100.708C33.2728 100.905 33.1501 101.18 33.1021 101.532H35.3061C35.3061 101.367 35.2835 101.216 35.2381 101.08C35.1928 100.941 35.1261 100.823 35.0381 100.724C34.9501 100.623 34.8421 100.545 34.7141 100.492C34.5888 100.436 34.4448 100.408 34.2821 100.408ZM36.8574 104V99.948H37.2654C37.3428 99.948 37.3961 99.9627 37.4254 99.992C37.4548 100.021 37.4748 100.072 37.4854 100.144L37.5334 100.776C37.6721 100.493 37.8428 100.273 38.0454 100.116C38.2508 99.956 38.4908 99.876 38.7654 99.876C38.8774 99.876 38.9788 99.8893 39.0694 99.916C39.1601 99.94 39.2441 99.9747 39.3214 100.02L39.2294 100.552C39.2108 100.619 39.1694 100.652 39.1054 100.652C39.0681 100.652 39.0108 100.64 38.9334 100.616C38.8561 100.589 38.7481 100.576 38.6094 100.576C38.3614 100.576 38.1534 100.648 37.9854 100.792C37.8201 100.936 37.6814 101.145 37.5694 101.42V104H36.8574ZM41.7909 104V100.556L41.3429 100.504C41.2869 100.491 41.2402 100.471 41.2029 100.444C41.1682 100.415 41.1509 100.373 41.1509 100.32V100.028H41.7909V99.804C41.7909 99.556 41.8295 99.3293 41.9069 99.124C41.9842 98.916 42.1002 98.7373 42.2549 98.588C42.4095 98.4387 42.6015 98.3227 42.8309 98.24C43.0629 98.1573 43.3322 98.116 43.6389 98.116C43.7402 98.116 43.8429 98.1227 43.9469 98.136C44.0535 98.1493 44.1455 98.1693 44.2229 98.196L44.1989 98.568C44.1935 98.6027 44.1775 98.6253 44.1509 98.636C44.1242 98.644 44.0855 98.648 44.0349 98.648C44.0055 98.648 43.9749 98.648 43.9429 98.648C43.9109 98.6453 43.8749 98.644 43.8349 98.644C43.3629 98.644 43.0189 98.7427 42.8029 98.94C42.5895 99.1347 42.4829 99.4293 42.4829 99.824V100.028H44.9309V104H44.2189V100.544H42.5069V104H41.7909ZM46.1934 104V99.948H46.6014C46.6787 99.948 46.732 99.9627 46.7614 99.992C46.7907 100.021 46.8107 100.072 46.8214 100.144L46.8694 100.776C47.008 100.493 47.1787 100.273 47.3814 100.116C47.5867 99.956 47.8267 99.876 48.1014 99.876C48.2134 99.876 48.3147 99.8893 48.4054 99.916C48.496 99.94 48.58 99.9747 48.6574 100.02L48.5654 100.552C48.5467 100.619 48.5054 100.652 48.4414 100.652C48.404 100.652 48.3467 100.64 48.2694 100.616C48.192 100.589 48.084 100.576 47.9454 100.576C47.6974 100.576 47.4894 100.648 47.3214 100.792C47.156 100.936 47.0174 101.145 46.9054 101.42V104H46.1934ZM51.7399 100.616C51.7079 100.675 51.6586 100.704 51.5919 100.704C51.5519 100.704 51.5066 100.689 51.4559 100.66C51.4053 100.631 51.3426 100.599 51.2679 100.564C51.1959 100.527 51.1093 100.493 51.0079 100.464C50.9066 100.432 50.7866 100.416 50.6479 100.416C50.5279 100.416 50.4199 100.432 50.3239 100.464C50.2279 100.493 50.1453 100.535 50.0759 100.588C50.0093 100.641 49.9573 100.704 49.9199 100.776C49.8853 100.845 49.8679 100.921 49.8679 101.004C49.8679 101.108 49.8973 101.195 49.9559 101.264C50.0173 101.333 50.0973 101.393 50.1959 101.444C50.2946 101.495 50.4066 101.54 50.5319 101.58C50.6573 101.617 50.7853 101.659 50.9159 101.704C51.0493 101.747 51.1786 101.795 51.3039 101.848C51.4293 101.901 51.5413 101.968 51.6399 102.048C51.7386 102.128 51.8173 102.227 51.8759 102.344C51.9373 102.459 51.9679 102.597 51.9679 102.76C51.9679 102.947 51.9346 103.12 51.8679 103.28C51.8013 103.437 51.7026 103.575 51.5719 103.692C51.4413 103.807 51.2813 103.897 51.0919 103.964C50.9026 104.031 50.6839 104.064 50.4359 104.064C50.1533 104.064 49.8973 104.019 49.6679 103.928C49.4386 103.835 49.2439 103.716 49.0839 103.572L49.2519 103.3C49.2733 103.265 49.2986 103.239 49.3279 103.22C49.3573 103.201 49.3959 103.192 49.4439 103.192C49.4919 103.192 49.5426 103.211 49.5959 103.248C49.6493 103.285 49.7133 103.327 49.7879 103.372C49.8653 103.417 49.9573 103.459 50.0639 103.496C50.1733 103.533 50.3093 103.552 50.4719 103.552C50.6106 103.552 50.7319 103.535 50.8359 103.5C50.9399 103.463 51.0266 103.413 51.0959 103.352C51.1653 103.291 51.2159 103.22 51.2479 103.14C51.2826 103.06 51.2999 102.975 51.2999 102.884C51.2999 102.772 51.2693 102.68 51.2079 102.608C51.1493 102.533 51.0706 102.471 50.9719 102.42C50.8733 102.367 50.7599 102.321 50.6319 102.284C50.5066 102.244 50.3773 102.203 50.2439 102.16C50.1133 102.117 49.9839 102.069 49.8559 102.016C49.7306 101.96 49.6186 101.891 49.5199 101.808C49.4213 101.725 49.3413 101.624 49.2799 101.504C49.2213 101.381 49.1919 101.233 49.1919 101.06C49.1919 100.905 49.2239 100.757 49.2879 100.616C49.3519 100.472 49.4453 100.347 49.5679 100.24C49.6906 100.131 49.8413 100.044 50.0199 99.98C50.1986 99.916 50.4026 99.884 50.6319 99.884C50.8986 99.884 51.1373 99.9267 51.3479 100.012C51.5613 100.095 51.7453 100.209 51.8999 100.356L51.7399 100.616ZM54.1167 104.064C53.7967 104.064 53.55 103.975 53.3767 103.796C53.206 103.617 53.1207 103.36 53.1207 103.024V100.544H52.6327C52.59 100.544 52.554 100.532 52.5247 100.508C52.4954 100.481 52.4807 100.441 52.4807 100.388V100.104L53.1447 100.02L53.3087 98.768C53.314 98.728 53.3314 98.696 53.3607 98.672C53.39 98.6453 53.4274 98.632 53.4727 98.632H53.8327V100.028H54.9927V100.544H53.8327V102.976C53.8327 103.147 53.874 103.273 53.9567 103.356C54.0394 103.439 54.146 103.48 54.2767 103.48C54.3514 103.48 54.4154 103.471 54.4687 103.452C54.5247 103.431 54.5727 103.408 54.6127 103.384C54.6527 103.36 54.686 103.339 54.7127 103.32C54.742 103.299 54.7674 103.288 54.7887 103.288C54.826 103.288 54.8594 103.311 54.8887 103.356L55.0967 103.696C54.974 103.811 54.826 103.901 54.6527 103.968C54.4794 104.032 54.3007 104.064 54.1167 104.064ZM57.4199 104V99.948H57.8439C57.9453 99.948 58.0093 99.9973 58.0359 100.096L58.0919 100.536C58.2679 100.341 58.4639 100.184 58.6799 100.064C58.8986 99.944 59.1506 99.884 59.4359 99.884C59.6573 99.884 59.8519 99.9213 60.0199 99.996C60.1906 100.068 60.3319 100.172 60.4439 100.308C60.5586 100.441 60.6453 100.603 60.7039 100.792C60.7626 100.981 60.7919 101.191 60.7919 101.42V104H60.0799V101.42C60.0799 101.113 60.0093 100.876 59.8679 100.708C59.7293 100.537 59.5159 100.452 59.2279 100.452C59.0173 100.452 58.8199 100.503 58.6359 100.604C58.4546 100.705 58.2866 100.843 58.1319 101.016V104H57.4199ZM64.8413 104H64.5253C64.4559 104 64.3999 103.989 64.3573 103.968C64.3146 103.947 64.2866 103.901 64.2733 103.832L64.1933 103.456C64.0866 103.552 63.9826 103.639 63.8813 103.716C63.7799 103.791 63.6733 103.855 63.5613 103.908C63.4493 103.959 63.3293 103.997 63.2013 104.024C63.0759 104.051 62.9359 104.064 62.7813 104.064C62.6239 104.064 62.4759 104.043 62.3372 104C62.2013 103.955 62.0826 103.888 61.9813 103.8C61.8799 103.712 61.7986 103.601 61.7373 103.468C61.6786 103.332 61.6493 103.172 61.6493 102.988C61.6493 102.828 61.6933 102.675 61.7812 102.528C61.8693 102.379 62.0106 102.247 62.2053 102.132C62.4026 102.017 62.6599 101.924 62.9773 101.852C63.2946 101.777 63.6826 101.735 64.1413 101.724V101.408C64.1413 101.093 64.0733 100.856 63.9373 100.696C63.8039 100.533 63.6053 100.452 63.3413 100.452C63.1679 100.452 63.0213 100.475 62.9013 100.52C62.7839 100.563 62.6813 100.612 62.5933 100.668C62.5079 100.721 62.4333 100.771 62.3693 100.816C62.3079 100.859 62.2466 100.88 62.1853 100.88C62.1373 100.88 62.0946 100.868 62.0573 100.844C62.0226 100.817 61.9946 100.785 61.9733 100.748L61.8453 100.52C62.0693 100.304 62.3106 100.143 62.5693 100.036C62.8279 99.9293 63.1146 99.876 63.4293 99.876C63.6559 99.876 63.8573 99.9133 64.0333 99.988C64.2093 100.063 64.3573 100.167 64.4773 100.3C64.5973 100.433 64.6879 100.595 64.7493 100.784C64.8106 100.973 64.8413 101.181 64.8413 101.408V104ZM62.9933 103.564C63.1186 103.564 63.2333 103.552 63.3372 103.528C63.4413 103.501 63.5386 103.465 63.6293 103.42C63.7226 103.372 63.8106 103.315 63.8933 103.248C63.9786 103.181 64.0613 103.105 64.1413 103.02V102.176C63.8133 102.187 63.5346 102.213 63.3053 102.256C63.0759 102.296 62.8893 102.349 62.7453 102.416C62.6013 102.483 62.4959 102.561 62.4293 102.652C62.3653 102.743 62.3333 102.844 62.3333 102.956C62.3333 103.063 62.3506 103.155 62.3853 103.232C62.4199 103.309 62.4666 103.373 62.5253 103.424C62.5839 103.472 62.6533 103.508 62.7333 103.532C62.8133 103.553 62.8999 103.564 62.9933 103.564ZM65.9199 104V99.948H66.3439C66.4453 99.948 66.5093 99.9973 66.5359 100.096L66.5879 100.512C66.7373 100.328 66.9039 100.177 67.0879 100.06C67.2746 99.9427 67.4906 99.884 67.7359 99.884C68.0106 99.884 68.2319 99.96 68.3999 100.112C68.5706 100.264 68.6933 100.469 68.7679 100.728C68.8239 100.581 68.8973 100.455 68.9879 100.348C69.0813 100.241 69.1853 100.153 69.2999 100.084C69.4146 100.015 69.5359 99.964 69.6639 99.932C69.7946 99.9 69.9266 99.884 70.0599 99.884C70.2733 99.884 70.4626 99.9187 70.6279 99.988C70.7959 100.055 70.9373 100.153 71.0519 100.284C71.1693 100.415 71.2586 100.576 71.3199 100.768C71.3813 100.957 71.4119 101.175 71.4119 101.42V104H70.6999V101.42C70.6999 101.103 70.6306 100.863 70.4919 100.7C70.3533 100.535 70.1519 100.452 69.8879 100.452C69.7706 100.452 69.6586 100.473 69.5519 100.516C69.4479 100.556 69.3559 100.616 69.2759 100.696C69.1959 100.776 69.1319 100.877 69.0839 101C69.0386 101.12 69.0159 101.26 69.0159 101.42V104H68.3039V101.42C68.3039 101.095 68.2386 100.852 68.1079 100.692C67.9773 100.532 67.7866 100.452 67.5359 100.452C67.3599 100.452 67.1959 100.5 67.0439 100.596C66.8946 100.689 66.7573 100.817 66.6319 100.98V104H65.9199ZM74.0943 99.884C74.3369 99.884 74.5609 99.9253 74.7663 100.008C74.9716 100.088 75.1489 100.205 75.2983 100.36C75.4476 100.512 75.5636 100.701 75.6463 100.928C75.7316 101.152 75.7743 101.408 75.7743 101.696C75.7743 101.808 75.7623 101.883 75.7383 101.92C75.7143 101.957 75.6689 101.976 75.6023 101.976H72.9062C72.9116 102.232 72.9463 102.455 73.0103 102.644C73.0743 102.833 73.1623 102.992 73.2743 103.12C73.3863 103.245 73.5196 103.34 73.6743 103.404C73.8289 103.465 74.0023 103.496 74.1943 103.496C74.3729 103.496 74.5263 103.476 74.6543 103.436C74.7849 103.393 74.8969 103.348 74.9903 103.3C75.0836 103.252 75.1609 103.208 75.2223 103.168C75.2863 103.125 75.3409 103.104 75.3863 103.104C75.4449 103.104 75.4903 103.127 75.5223 103.172L75.7223 103.432C75.6343 103.539 75.5289 103.632 75.4063 103.712C75.2836 103.789 75.1516 103.853 75.0103 103.904C74.8716 103.955 74.7276 103.992 74.5783 104.016C74.4289 104.043 74.2809 104.056 74.1343 104.056C73.8543 104.056 73.5956 104.009 73.3583 103.916C73.1236 103.82 72.9196 103.681 72.7463 103.5C72.5756 103.316 72.4423 103.089 72.3463 102.82C72.2503 102.551 72.2023 102.241 72.2023 101.892C72.2023 101.609 72.2449 101.345 72.3303 101.1C72.4183 100.855 72.5436 100.643 72.7063 100.464C72.8689 100.283 73.0676 100.141 73.3023 100.04C73.5369 99.936 73.8009 99.884 74.0943 99.884ZM74.1102 100.408C73.7663 100.408 73.4956 100.508 73.2983 100.708C73.1009 100.905 72.9783 101.18 72.9303 101.532H75.1343C75.1343 101.367 75.1116 101.216 75.0663 101.08C75.0209 100.941 74.9543 100.823 74.8663 100.724C74.7783 100.623 74.6703 100.545 74.5423 100.492C74.4169 100.436 74.2729 100.408 74.1102 100.408ZM76.6136 103.56C76.6136 103.491 76.6256 103.425 76.6496 103.364C76.6762 103.303 76.7109 103.249 76.7536 103.204C76.7989 103.159 76.8522 103.123 76.9136 103.096C76.9749 103.069 77.0402 103.056 77.1096 103.056C77.1789 103.056 77.2442 103.069 77.3056 103.096C77.3669 103.123 77.4202 103.159 77.4656 103.204C77.5109 103.249 77.5456 103.303 77.5696 103.364C77.5962 103.425 77.6096 103.491 77.6096 103.56C77.6096 103.632 77.5962 103.699 77.5696 103.76C77.5456 103.819 77.5109 103.871 77.4656 103.916C77.4202 103.961 77.3669 103.996 77.3056 104.02C77.2442 104.047 77.1789 104.06 77.1096 104.06C77.0402 104.06 76.9749 104.047 76.9136 104.02C76.8522 103.996 76.7989 103.961 76.7536 103.916C76.7109 103.871 76.6762 103.819 76.6496 103.76C76.6256 103.699 76.6136 103.632 76.6136 103.56ZM76.6136 100.56C76.6136 100.491 76.6256 100.425 76.6496 100.364C76.6762 100.303 76.7109 100.249 76.7536 100.204C76.7989 100.159 76.8522 100.123 76.9136 100.096C76.9749 100.069 77.0402 100.056 77.1096 100.056C77.1789 100.056 77.2442 100.069 77.3056 100.096C77.3669 100.123 77.4202 100.159 77.4656 100.204C77.5109 100.249 77.5456 100.303 77.5696 100.364C77.5962 100.425 77.6096 100.491 77.6096 100.56C77.6096 100.632 77.5962 100.699 77.5696 100.76C77.5456 100.819 77.5109 100.871 77.4656 100.916C77.4202 100.961 77.3669 100.997 77.3056 101.024C77.2442 101.048 77.1789 101.06 77.1096 101.06C77.0402 101.06 76.9749 101.048 76.9136 101.024C76.8522 100.997 76.7989 100.961 76.7536 100.916C76.7109 100.871 76.6762 100.819 76.6496 100.76C76.6256 100.699 76.6136 100.632 76.6136 100.56Z" fill="white"/>
<rect x="20" y="113" width="120" height="16" rx="1" fill="white"/>
<path d="M24.228 142.268V142.9H21.476V144.804H23.704V145.412H21.476V147.368H24.228V148H20.696V142.268H24.228ZM25.2324 148V143.948H25.6564C25.7578 143.948 25.8218 143.997 25.8484 144.096L25.9044 144.536C26.0804 144.341 26.2764 144.184 26.4924 144.064C26.7111 143.944 26.9631 143.884 27.2484 143.884C27.4698 143.884 27.6644 143.921 27.8324 143.996C28.0031 144.068 28.1444 144.172 28.2564 144.308C28.3711 144.441 28.4578 144.603 28.5164 144.792C28.5751 144.981 28.6044 145.191 28.6044 145.42V148H27.8924V145.42C27.8924 145.113 27.8218 144.876 27.6804 144.708C27.5418 144.537 27.3284 144.452 27.0404 144.452C26.8298 144.452 26.6324 144.503 26.4484 144.604C26.2671 144.705 26.0991 144.843 25.9444 145.016V148H25.2324ZM30.9058 148.064C30.5858 148.064 30.3391 147.975 30.1658 147.796C29.9951 147.617 29.9098 147.36 29.9098 147.024V144.544H29.4218C29.3791 144.544 29.3431 144.532 29.3138 144.508C29.2844 144.481 29.2698 144.441 29.2698 144.388V144.104L29.9338 144.02L30.0978 142.768C30.1031 142.728 30.1204 142.696 30.1497 142.672C30.1791 142.645 30.2164 142.632 30.2618 142.632H30.6218V144.028H31.7818V144.544H30.6218V146.976C30.6218 147.147 30.6631 147.273 30.7458 147.356C30.8284 147.439 30.9351 147.48 31.0658 147.48C31.1404 147.48 31.2044 147.471 31.2578 147.452C31.3138 147.431 31.3618 147.408 31.4018 147.384C31.4418 147.36 31.4751 147.339 31.5018 147.32C31.5311 147.299 31.5564 147.288 31.5778 147.288C31.6151 147.288 31.6484 147.311 31.6778 147.356L31.8858 147.696C31.7631 147.811 31.6151 147.901 31.4418 147.968C31.2684 148.032 31.0898 148.064 30.9058 148.064ZM34.2661 143.884C34.5088 143.884 34.7328 143.925 34.9381 144.008C35.1435 144.088 35.3208 144.205 35.4701 144.36C35.6195 144.512 35.7355 144.701 35.8181 144.928C35.9035 145.152 35.9461 145.408 35.9461 145.696C35.9461 145.808 35.9341 145.883 35.9101 145.92C35.8861 145.957 35.8408 145.976 35.7741 145.976H33.0781C33.0835 146.232 33.1181 146.455 33.1821 146.644C33.2461 146.833 33.3341 146.992 33.4461 147.12C33.5581 147.245 33.6915 147.34 33.8461 147.404C34.0008 147.465 34.1741 147.496 34.3661 147.496C34.5448 147.496 34.6981 147.476 34.8261 147.436C34.9568 147.393 35.0688 147.348 35.1621 147.3C35.2555 147.252 35.3328 147.208 35.3941 147.168C35.4581 147.125 35.5128 147.104 35.5581 147.104C35.6168 147.104 35.6621 147.127 35.6941 147.172L35.8941 147.432C35.8061 147.539 35.7008 147.632 35.5781 147.712C35.4555 147.789 35.3235 147.853 35.1821 147.904C35.0435 147.955 34.8995 147.992 34.7501 148.016C34.6008 148.043 34.4528 148.056 34.3061 148.056C34.0261 148.056 33.7675 148.009 33.5301 147.916C33.2955 147.82 33.0915 147.681 32.9181 147.5C32.7475 147.316 32.6141 147.089 32.5181 146.82C32.4221 146.551 32.3741 146.241 32.3741 145.892C32.3741 145.609 32.4168 145.345 32.5021 145.1C32.5901 144.855 32.7155 144.643 32.8781 144.464C33.0408 144.283 33.2395 144.141 33.4741 144.04C33.7088 143.936 33.9728 143.884 34.2661 143.884ZM34.2821 144.408C33.9381 144.408 33.6675 144.508 33.4701 144.708C33.2728 144.905 33.1501 145.18 33.1021 145.532H35.3061C35.3061 145.367 35.2835 145.216 35.2381 145.08C35.1928 144.941 35.1261 144.823 35.0381 144.724C34.9501 144.623 34.8421 144.545 34.7141 144.492C34.5888 144.436 34.4448 144.408 34.2821 144.408ZM36.8574 148V143.948H37.2654C37.3428 143.948 37.3961 143.963 37.4254 143.992C37.4548 144.021 37.4748 144.072 37.4854 144.144L37.5334 144.776C37.6721 144.493 37.8428 144.273 38.0454 144.116C38.2508 143.956 38.4908 143.876 38.7654 143.876C38.8774 143.876 38.9788 143.889 39.0694 143.916C39.1601 143.94 39.2441 143.975 39.3214 144.02L39.2294 144.552C39.2108 144.619 39.1694 144.652 39.1054 144.652C39.0681 144.652 39.0108 144.64 38.9334 144.616C38.8561 144.589 38.7481 144.576 38.6094 144.576C38.3614 144.576 38.1534 144.648 37.9854 144.792C37.8201 144.936 37.6814 145.145 37.5694 145.42V148H36.8574ZM42.4229 142.108V148H41.7109V142.108H42.4229ZM46.6538 148H46.3378C46.2684 148 46.2124 147.989 46.1698 147.968C46.1271 147.947 46.0991 147.901 46.0858 147.832L46.0058 147.456C45.8991 147.552 45.7951 147.639 45.6938 147.716C45.5924 147.791 45.4858 147.855 45.3738 147.908C45.2618 147.959 45.1418 147.997 45.0138 148.024C44.8884 148.051 44.7484 148.064 44.5938 148.064C44.4364 148.064 44.2884 148.043 44.1497 148C44.0138 147.955 43.8951 147.888 43.7938 147.8C43.6924 147.712 43.6111 147.601 43.5498 147.468C43.4911 147.332 43.4618 147.172 43.4618 146.988C43.4618 146.828 43.5058 146.675 43.5938 146.528C43.6818 146.379 43.8231 146.247 44.0178 146.132C44.2151 146.017 44.4724 145.924 44.7898 145.852C45.1071 145.777 45.4951 145.735 45.9538 145.724V145.408C45.9538 145.093 45.8858 144.856 45.7498 144.696C45.6164 144.533 45.4178 144.452 45.1538 144.452C44.9804 144.452 44.8338 144.475 44.7138 144.52C44.5964 144.563 44.4938 144.612 44.4058 144.668C44.3204 144.721 44.2458 144.771 44.1818 144.816C44.1204 144.859 44.0591 144.88 43.9978 144.88C43.9498 144.88 43.9071 144.868 43.8698 144.844C43.8351 144.817 43.8071 144.785 43.7858 144.748L43.6578 144.52C43.8818 144.304 44.1231 144.143 44.3818 144.036C44.6404 143.929 44.9271 143.876 45.2418 143.876C45.4684 143.876 45.6698 143.913 45.8458 143.988C46.0218 144.063 46.1698 144.167 46.2898 144.3C46.4098 144.433 46.5004 144.595 46.5618 144.784C46.6231 144.973 46.6538 145.181 46.6538 145.408V148ZM44.8058 147.564C44.9311 147.564 45.0458 147.552 45.1497 147.528C45.2538 147.501 45.3511 147.465 45.4418 147.42C45.5351 147.372 45.6231 147.315 45.7058 147.248C45.7911 147.181 45.8738 147.105 45.9538 147.02V146.176C45.6258 146.187 45.3471 146.213 45.1178 146.256C44.8884 146.296 44.7018 146.349 44.5578 146.416C44.4138 146.483 44.3084 146.561 44.2418 146.652C44.1778 146.743 44.1458 146.844 44.1458 146.956C44.1458 147.063 44.1631 147.155 44.1978 147.232C44.2324 147.309 44.2791 147.373 44.3378 147.424C44.3964 147.472 44.4658 147.508 44.5458 147.532C44.6258 147.553 44.7124 147.564 44.8058 147.564ZM50.0524 144.616C50.0204 144.675 49.9711 144.704 49.9044 144.704C49.8644 144.704 49.8191 144.689 49.7684 144.66C49.7178 144.631 49.6551 144.599 49.5804 144.564C49.5084 144.527 49.4218 144.493 49.3204 144.464C49.2191 144.432 49.0991 144.416 48.9604 144.416C48.8404 144.416 48.7324 144.432 48.6364 144.464C48.5404 144.493 48.4578 144.535 48.3884 144.588C48.3218 144.641 48.2698 144.704 48.2324 144.776C48.1978 144.845 48.1804 144.921 48.1804 145.004C48.1804 145.108 48.2098 145.195 48.2684 145.264C48.3298 145.333 48.4098 145.393 48.5084 145.444C48.6071 145.495 48.7191 145.54 48.8444 145.58C48.9698 145.617 49.0978 145.659 49.2284 145.704C49.3618 145.747 49.4911 145.795 49.6164 145.848C49.7418 145.901 49.8538 145.968 49.9524 146.048C50.0511 146.128 50.1298 146.227 50.1884 146.344C50.2498 146.459 50.2804 146.597 50.2804 146.76C50.2804 146.947 50.2471 147.12 50.1804 147.28C50.1138 147.437 50.0151 147.575 49.8844 147.692C49.7538 147.807 49.5938 147.897 49.4044 147.964C49.2151 148.031 48.9964 148.064 48.7484 148.064C48.4658 148.064 48.2098 148.019 47.9804 147.928C47.7511 147.835 47.5564 147.716 47.3964 147.572L47.5644 147.3C47.5858 147.265 47.6111 147.239 47.6404 147.22C47.6698 147.201 47.7084 147.192 47.7564 147.192C47.8044 147.192 47.8551 147.211 47.9084 147.248C47.9618 147.285 48.0258 147.327 48.1004 147.372C48.1778 147.417 48.2698 147.459 48.3764 147.496C48.4858 147.533 48.6218 147.552 48.7844 147.552C48.9231 147.552 49.0444 147.535 49.1484 147.5C49.2524 147.463 49.3391 147.413 49.4084 147.352C49.4778 147.291 49.5284 147.22 49.5604 147.14C49.5951 147.06 49.6124 146.975 49.6124 146.884C49.6124 146.772 49.5818 146.68 49.5204 146.608C49.4618 146.533 49.3831 146.471 49.2844 146.42C49.1858 146.367 49.0724 146.321 48.9444 146.284C48.8191 146.244 48.6898 146.203 48.5564 146.16C48.4258 146.117 48.2964 146.069 48.1684 146.016C48.0431 145.96 47.9311 145.891 47.8324 145.808C47.7338 145.725 47.6538 145.624 47.5924 145.504C47.5338 145.381 47.5044 145.233 47.5044 145.06C47.5044 144.905 47.5364 144.757 47.6004 144.616C47.6644 144.472 47.7578 144.347 47.8804 144.24C48.0031 144.131 48.1538 144.044 48.3324 143.98C48.5111 143.916 48.7151 143.884 48.9444 143.884C49.2111 143.884 49.4498 143.927 49.6604 144.012C49.8738 144.095 50.0578 144.209 50.2124 144.356L50.0524 144.616ZM52.4292 148.064C52.1092 148.064 51.8625 147.975 51.6892 147.796C51.5185 147.617 51.4332 147.36 51.4332 147.024V144.544H50.9452C50.9025 144.544 50.8665 144.532 50.8372 144.508C50.8079 144.481 50.7932 144.441 50.7932 144.388V144.104L51.4572 144.02L51.6212 142.768C51.6265 142.728 51.6439 142.696 51.6732 142.672C51.7025 142.645 51.7399 142.632 51.7852 142.632H52.1452V144.028H53.3052V144.544H52.1452V146.976C52.1452 147.147 52.1865 147.273 52.2692 147.356C52.3519 147.439 52.4585 147.48 52.5892 147.48C52.6639 147.48 52.7279 147.471 52.7812 147.452C52.8372 147.431 52.8852 147.408 52.9252 147.384C52.9652 147.36 52.9985 147.339 53.0252 147.32C53.0545 147.299 53.0799 147.288 53.1012 147.288C53.1385 147.288 53.1719 147.311 53.2012 147.356L53.4092 147.696C53.2865 147.811 53.1385 147.901 52.9652 147.968C52.7919 148.032 52.6132 148.064 52.4292 148.064ZM55.7324 148V143.948H56.1564C56.2578 143.948 56.3218 143.997 56.3484 144.096L56.4044 144.536C56.5804 144.341 56.7764 144.184 56.9924 144.064C57.2111 143.944 57.4631 143.884 57.7484 143.884C57.9698 143.884 58.1644 143.921 58.3324 143.996C58.5031 144.068 58.6444 144.172 58.7564 144.308C58.8711 144.441 58.9578 144.603 59.0164 144.792C59.0751 144.981 59.1044 145.191 59.1044 145.42V148H58.3924V145.42C58.3924 145.113 58.3218 144.876 58.1804 144.708C58.0418 144.537 57.8284 144.452 57.5404 144.452C57.3298 144.452 57.1324 144.503 56.9484 144.604C56.7671 144.705 56.5991 144.843 56.4444 145.016V148H55.7324ZM63.1538 148H62.8378C62.7684 148 62.7124 147.989 62.6698 147.968C62.6271 147.947 62.5991 147.901 62.5858 147.832L62.5058 147.456C62.3991 147.552 62.2951 147.639 62.1938 147.716C62.0924 147.791 61.9858 147.855 61.8738 147.908C61.7618 147.959 61.6418 147.997 61.5138 148.024C61.3884 148.051 61.2484 148.064 61.0938 148.064C60.9364 148.064 60.7884 148.043 60.6497 148C60.5138 147.955 60.3951 147.888 60.2938 147.8C60.1924 147.712 60.1111 147.601 60.0498 147.468C59.9911 147.332 59.9618 147.172 59.9618 146.988C59.9618 146.828 60.0058 146.675 60.0938 146.528C60.1818 146.379 60.3231 146.247 60.5178 146.132C60.7151 146.017 60.9724 145.924 61.2898 145.852C61.6071 145.777 61.9951 145.735 62.4538 145.724V145.408C62.4538 145.093 62.3858 144.856 62.2498 144.696C62.1164 144.533 61.9178 144.452 61.6538 144.452C61.4804 144.452 61.3338 144.475 61.2138 144.52C61.0964 144.563 60.9938 144.612 60.9058 144.668C60.8204 144.721 60.7458 144.771 60.6818 144.816C60.6204 144.859 60.5591 144.88 60.4978 144.88C60.4498 144.88 60.4071 144.868 60.3698 144.844C60.3351 144.817 60.3071 144.785 60.2858 144.748L60.1578 144.52C60.3818 144.304 60.6231 144.143 60.8818 144.036C61.1404 143.929 61.4271 143.876 61.7418 143.876C61.9684 143.876 62.1698 143.913 62.3458 143.988C62.5218 144.063 62.6698 144.167 62.7898 144.3C62.9098 144.433 63.0004 144.595 63.0618 144.784C63.1231 144.973 63.1538 145.181 63.1538 145.408V148ZM61.3058 147.564C61.4311 147.564 61.5458 147.552 61.6497 147.528C61.7538 147.501 61.8511 147.465 61.9418 147.42C62.0351 147.372 62.1231 147.315 62.2058 147.248C62.2911 147.181 62.3738 147.105 62.4538 147.02V146.176C62.1258 146.187 61.8471 146.213 61.6178 146.256C61.3884 146.296 61.2018 146.349 61.0578 146.416C60.9138 146.483 60.8084 146.561 60.7418 146.652C60.6778 146.743 60.6458 146.844 60.6458 146.956C60.6458 147.063 60.6631 147.155 60.6978 147.232C60.7324 147.309 60.7791 147.373 60.8378 147.424C60.8964 147.472 60.9658 147.508 61.0458 147.532C61.1258 147.553 61.2124 147.564 61.3058 147.564ZM64.2324 148V143.948H64.6564C64.7578 143.948 64.8218 143.997 64.8484 144.096L64.9004 144.512C65.0498 144.328 65.2164 144.177 65.4004 144.06C65.5871 143.943 65.8031 143.884 66.0484 143.884C66.3231 143.884 66.5444 143.96 66.7124 144.112C66.8831 144.264 67.0058 144.469 67.0804 144.728C67.1364 144.581 67.2098 144.455 67.3004 144.348C67.3938 144.241 67.4978 144.153 67.6124 144.084C67.7271 144.015 67.8484 143.964 67.9764 143.932C68.1071 143.9 68.2391 143.884 68.3724 143.884C68.5858 143.884 68.7751 143.919 68.9404 143.988C69.1084 144.055 69.2498 144.153 69.3644 144.284C69.4818 144.415 69.5711 144.576 69.6324 144.768C69.6938 144.957 69.7244 145.175 69.7244 145.42V148H69.0124V145.42C69.0124 145.103 68.9431 144.863 68.8044 144.7C68.6658 144.535 68.4644 144.452 68.2004 144.452C68.0831 144.452 67.9711 144.473 67.8644 144.516C67.7604 144.556 67.6684 144.616 67.5884 144.696C67.5084 144.776 67.4444 144.877 67.3964 145C67.3511 145.12 67.3284 145.26 67.3284 145.42V148H66.6164V145.42C66.6164 145.095 66.5511 144.852 66.4204 144.692C66.2898 144.532 66.0991 144.452 65.8484 144.452C65.6724 144.452 65.5084 144.5 65.3564 144.596C65.2071 144.689 65.0698 144.817 64.9444 144.98V148H64.2324ZM72.4068 143.884C72.6494 143.884 72.8734 143.925 73.0788 144.008C73.2841 144.088 73.4614 144.205 73.6108 144.36C73.7601 144.512 73.8761 144.701 73.9588 144.928C74.0441 145.152 74.0868 145.408 74.0868 145.696C74.0868 145.808 74.0748 145.883 74.0508 145.92C74.0268 145.957 73.9814 145.976 73.9148 145.976H71.2188C71.2241 146.232 71.2588 146.455 71.3228 146.644C71.3868 146.833 71.4748 146.992 71.5868 147.12C71.6988 147.245 71.8321 147.34 71.9868 147.404C72.1414 147.465 72.3148 147.496 72.5068 147.496C72.6854 147.496 72.8388 147.476 72.9668 147.436C73.0974 147.393 73.2094 147.348 73.3028 147.3C73.3961 147.252 73.4734 147.208 73.5348 147.168C73.5988 147.125 73.6534 147.104 73.6988 147.104C73.7574 147.104 73.8028 147.127 73.8348 147.172L74.0348 147.432C73.9468 147.539 73.8414 147.632 73.7188 147.712C73.5961 147.789 73.4641 147.853 73.3228 147.904C73.1841 147.955 73.0401 147.992 72.8908 148.016C72.7414 148.043 72.5934 148.056 72.4468 148.056C72.1668 148.056 71.9081 148.009 71.6708 147.916C71.4361 147.82 71.2321 147.681 71.0588 147.5C70.8881 147.316 70.7548 147.089 70.6588 146.82C70.5628 146.551 70.5148 146.241 70.5148 145.892C70.5148 145.609 70.5574 145.345 70.6428 145.1C70.7308 144.855 70.8561 144.643 71.0188 144.464C71.1814 144.283 71.3801 144.141 71.6148 144.04C71.8494 143.936 72.1134 143.884 72.4068 143.884ZM72.4227 144.408C72.0788 144.408 71.8081 144.508 71.6108 144.708C71.4134 144.905 71.2908 145.18 71.2428 145.532H73.4468C73.4468 145.367 73.4241 145.216 73.3788 145.08C73.3334 144.941 73.2668 144.823 73.1788 144.724C73.0908 144.623 72.9828 144.545 72.8548 144.492C72.7294 144.436 72.5854 144.408 72.4227 144.408ZM74.9261 147.56C74.9261 147.491 74.9381 147.425 74.9621 147.364C74.9887 147.303 75.0234 147.249 75.0661 147.204C75.1114 147.159 75.1647 147.123 75.2261 147.096C75.2874 147.069 75.3527 147.056 75.4221 147.056C75.4914 147.056 75.5567 147.069 75.6181 147.096C75.6794 147.123 75.7327 147.159 75.7781 147.204C75.8234 147.249 75.8581 147.303 75.8821 147.364C75.9087 147.425 75.9221 147.491 75.9221 147.56C75.9221 147.632 75.9087 147.699 75.8821 147.76C75.8581 147.819 75.8234 147.871 75.7781 147.916C75.7327 147.961 75.6794 147.996 75.6181 148.02C75.5567 148.047 75.4914 148.06 75.4221 148.06C75.3527 148.06 75.2874 148.047 75.2261 148.02C75.1647 147.996 75.1114 147.961 75.0661 147.916C75.0234 147.871 74.9887 147.819 74.9621 147.76C74.9381 147.699 74.9261 147.632 74.9261 147.56ZM74.9261 144.56C74.9261 144.491 74.9381 144.425 74.9621 144.364C74.9887 144.303 75.0234 144.249 75.0661 144.204C75.1114 144.159 75.1647 144.123 75.2261 144.096C75.2874 144.069 75.3527 144.056 75.4221 144.056C75.4914 144.056 75.5567 144.069 75.6181 144.096C75.6794 144.123 75.7327 144.159 75.7781 144.204C75.8234 144.249 75.8581 144.303 75.8821 144.364C75.9087 144.425 75.9221 144.491 75.9221 144.56C75.9221 144.632 75.9087 144.699 75.8821 144.76C75.8581 144.819 75.8234 144.871 75.7781 144.916C75.7327 144.961 75.6794 144.997 75.6181 145.024C75.5567 145.048 75.4914 145.06 75.4221 145.06C75.3527 145.06 75.2874 145.048 75.2261 145.024C75.1647 144.997 75.1114 144.961 75.0661 144.916C75.0234 144.871 74.9887 144.819 74.9621 144.76C74.9381 144.699 74.9261 144.632 74.9261 144.56Z" fill="white"/>
<rect x="20" y="157" width="120" height="16" rx="1" fill="white"/>
<rect x="20" y="69" width="120" height="16" rx="1" fill="white"/>
<path d="M27.0915 76.616C27.0595 76.6747 27.0102 76.704 26.9435 76.704C26.9035 76.704 26.8582 76.6893 26.8075 76.66C26.7568 76.6307 26.6942 76.5987 26.6195 76.564C26.5475 76.5267 26.4608 76.4933 26.3595 76.464C26.2582 76.432 26.1382 76.416 25.9995 76.416C25.8795 76.416 25.7715 76.432 25.6755 76.464C25.5795 76.4933 25.4968 76.5347 25.4275 76.588C25.3608 76.6413 25.3088 76.704 25.2715 76.776C25.2368 76.8453 25.2195 76.9213 25.2195 77.004C25.2195 77.108 25.2488 77.1947 25.3075 77.264C25.3688 77.3333 25.4488 77.3933 25.5475 77.444C25.6462 77.4947 25.7582 77.54 25.8835 77.58C26.0088 77.6173 26.1368 77.6587 26.2675 77.704C26.4008 77.7467 26.5302 77.7947 26.6555 77.848C26.7808 77.9013 26.8928 77.968 26.9915 78.048C27.0902 78.128 27.1688 78.2267 27.2275 78.344C27.2888 78.4587 27.3195 78.5973 27.3195 78.76C27.3195 78.9467 27.2862 79.12 27.2195 79.28C27.1528 79.4373 27.0542 79.5747 26.9235 79.692C26.7928 79.8067 26.6328 79.8973 26.4435 79.964C26.2542 80.0307 26.0355 80.064 25.7875 80.064C25.5048 80.064 25.2488 80.0187 25.0195 79.928C24.7902 79.8347 24.5955 79.716 24.4355 79.572L24.6035 79.3C24.6248 79.2653 24.6502 79.2387 24.6795 79.22C24.7088 79.2013 24.7475 79.192 24.7955 79.192C24.8435 79.192 24.8942 79.2107 24.9475 79.248C25.0008 79.2853 25.0648 79.3267 25.1395 79.372C25.2168 79.4173 25.3088 79.4587 25.4155 79.496C25.5248 79.5333 25.6608 79.552 25.8235 79.552C25.9622 79.552 26.0835 79.5347 26.1875 79.5C26.2915 79.4627 26.3782 79.4133 26.4475 79.352C26.5168 79.2907 26.5675 79.22 26.5995 79.14C26.6342 79.06 26.6515 78.9747 26.6515 78.884C26.6515 78.772 26.6208 78.68 26.5595 78.608C26.5008 78.5333 26.4222 78.4707 26.3235 78.42C26.2248 78.3667 26.1115 78.3213 25.9835 78.284C25.8582 78.244 25.7288 78.2027 25.5955 78.16C25.4648 78.1173 25.3355 78.0693 25.2075 78.016C25.0822 77.96 24.9702 77.8907 24.8715 77.808C24.7728 77.7253 24.6928 77.624 24.6315 77.504C24.5728 77.3813 24.5435 77.2333 24.5435 77.06C24.5435 76.9053 24.5755 76.7573 24.6395 76.616C24.7035 76.472 24.7968 76.3467 24.9195 76.24C25.0422 76.1307 25.1928 76.044 25.3715 75.98C25.5502 75.916 25.7542 75.884 25.9835 75.884C26.2502 75.884 26.4888 75.9267 26.6995 76.012C26.9128 76.0947 27.0968 76.2093 27.2515 76.356L27.0915 76.616ZM29.8443 75.884C30.0869 75.884 30.3109 75.9253 30.5163 76.008C30.7216 76.088 30.8989 76.2053 31.0483 76.36C31.1976 76.512 31.3136 76.7013 31.3963 76.928C31.4816 77.152 31.5243 77.408 31.5243 77.696C31.5243 77.808 31.5123 77.8827 31.4883 77.92C31.4643 77.9573 31.4189 77.976 31.3523 77.976H28.6562C28.6616 78.232 28.6963 78.4547 28.7603 78.644C28.8243 78.8333 28.9123 78.992 29.0243 79.12C29.1363 79.2453 29.2696 79.34 29.4243 79.404C29.5789 79.4653 29.7523 79.496 29.9443 79.496C30.1229 79.496 30.2763 79.476 30.4043 79.436C30.5349 79.3933 30.6469 79.348 30.7403 79.3C30.8336 79.252 30.9109 79.208 30.9723 79.168C31.0363 79.1253 31.0909 79.104 31.1363 79.104C31.1949 79.104 31.2403 79.1267 31.2723 79.172L31.4723 79.432C31.3843 79.5387 31.2789 79.632 31.1563 79.712C31.0336 79.7893 30.9016 79.8533 30.7603 79.904C30.6216 79.9547 30.4776 79.992 30.3283 80.016C30.1789 80.0427 30.0309 80.056 29.8843 80.056C29.6043 80.056 29.3456 80.0093 29.1083 79.916C28.8736 79.82 28.6696 79.6813 28.4963 79.5C28.3256 79.316 28.1923 79.0893 28.0963 78.82C28.0003 78.5507 27.9523 78.2413 27.9523 77.892C27.9523 77.6093 27.9949 77.3453 28.0803 77.1C28.1683 76.8547 28.2936 76.6427 28.4563 76.464C28.6189 76.2827 28.8176 76.1413 29.0523 76.04C29.2869 75.936 29.5509 75.884 29.8443 75.884ZM29.8602 76.408C29.5163 76.408 29.2456 76.508 29.0483 76.708C28.8509 76.9053 28.7283 77.18 28.6803 77.532H30.8843C30.8843 77.3667 30.8616 77.216 30.8163 77.08C30.7709 76.9413 30.7043 76.8227 30.6163 76.724C30.5283 76.6227 30.4203 76.5453 30.2923 76.492C30.1669 76.436 30.0229 76.408 29.8602 76.408ZM33.2276 74.108V80H32.5156V74.108H33.2276ZM36.0864 75.884C36.3291 75.884 36.5531 75.9253 36.7584 76.008C36.9638 76.088 37.1411 76.2053 37.2904 76.36C37.4398 76.512 37.5558 76.7013 37.6384 76.928C37.7238 77.152 37.7664 77.408 37.7664 77.696C37.7664 77.808 37.7544 77.8827 37.7304 77.92C37.7064 77.9573 37.6611 77.976 37.5944 77.976H34.8984C34.9038 78.232 34.9384 78.4547 35.0024 78.644C35.0664 78.8333 35.1544 78.992 35.2664 79.12C35.3784 79.2453 35.5118 79.34 35.6664 79.404C35.8211 79.4653 35.9944 79.496 36.1864 79.496C36.3651 79.496 36.5184 79.476 36.6464 79.436C36.7771 79.3933 36.8891 79.348 36.9824 79.3C37.0758 79.252 37.1531 79.208 37.2144 79.168C37.2784 79.1253 37.3331 79.104 37.3784 79.104C37.4371 79.104 37.4824 79.1267 37.5144 79.172L37.7144 79.432C37.6264 79.5387 37.5211 79.632 37.3984 79.712C37.2758 79.7893 37.1438 79.8533 37.0024 79.904C36.8638 79.9547 36.7198 79.992 36.5704 80.016C36.4211 80.0427 36.2731 80.056 36.1264 80.056C35.8464 80.056 35.5878 80.0093 35.3504 79.916C35.1158 79.82 34.9118 79.6813 34.7384 79.5C34.5678 79.316 34.4344 79.0893 34.3384 78.82C34.2424 78.5507 34.1944 78.2413 34.1944 77.892C34.1944 77.6093 34.2371 77.3453 34.3224 77.1C34.4104 76.8547 34.5358 76.6427 34.6984 76.464C34.8611 76.2827 35.0598 76.1413 35.2944 76.04C35.5291 75.936 35.7931 75.884 36.0864 75.884ZM36.1024 76.408C35.7584 76.408 35.4878 76.508 35.2904 76.708C35.0931 76.9053 34.9704 77.18 34.9224 77.532H37.1264C37.1264 77.3667 37.1038 77.216 37.0584 77.08C37.0131 76.9413 36.9464 76.8227 36.8584 76.724C36.7704 76.6227 36.6624 76.5453 36.5344 76.492C36.4091 76.436 36.2651 76.408 36.1024 76.408ZM41.4418 76.668C41.4204 76.6973 41.3991 76.72 41.3778 76.736C41.3564 76.752 41.3258 76.76 41.2858 76.76C41.2458 76.76 41.2018 76.744 41.1538 76.712C41.1084 76.6773 41.0498 76.64 40.9778 76.6C40.9058 76.56 40.8178 76.524 40.7138 76.492C40.6124 76.4573 40.4871 76.44 40.3378 76.44C40.1404 76.44 39.9658 76.476 39.8138 76.548C39.6618 76.6173 39.5338 76.7187 39.4298 76.852C39.3284 76.9853 39.2511 77.1467 39.1978 77.336C39.1471 77.5253 39.1217 77.7373 39.1217 77.972C39.1217 78.2173 39.1498 78.436 39.2058 78.628C39.2618 78.8173 39.3404 78.9773 39.4418 79.108C39.5431 79.236 39.6658 79.3347 39.8098 79.404C39.9564 79.4707 40.1204 79.504 40.3018 79.504C40.4751 79.504 40.6178 79.484 40.7298 79.444C40.8418 79.4013 40.9351 79.3547 41.0098 79.304C41.0844 79.2533 41.1458 79.208 41.1938 79.168C41.2418 79.1253 41.2898 79.104 41.3378 79.104C41.3991 79.104 41.4444 79.1267 41.4738 79.172L41.6738 79.432C41.4978 79.648 41.2778 79.8067 41.0138 79.908C40.7498 80.0067 40.4711 80.056 40.1778 80.056C39.9244 80.056 39.6884 80.0093 39.4698 79.916C39.2538 79.8227 39.0658 79.688 38.9058 79.512C38.7458 79.3333 38.6191 79.1147 38.5258 78.856C38.4351 78.5973 38.3898 78.3027 38.3898 77.972C38.3898 77.6707 38.4311 77.392 38.5138 77.136C38.5991 76.88 38.7218 76.66 38.8818 76.476C39.0444 76.2893 39.2444 76.144 39.4818 76.04C39.7191 75.936 39.9911 75.884 40.2977 75.884C40.5804 75.884 40.8311 75.9307 41.0498 76.024C41.2684 76.1147 41.4618 76.244 41.6298 76.412L41.4418 76.668ZM43.6401 80.064C43.3201 80.064 43.0735 79.9747 42.9001 79.796C42.7295 79.6173 42.6441 79.36 42.6441 79.024V76.544H42.1561C42.1135 76.544 42.0775 76.532 42.0481 76.508C42.0188 76.4813 42.0041 76.4413 42.0041 76.388V76.104L42.6681 76.02L42.8321 74.768C42.8375 74.728 42.8548 74.696 42.8841 74.672C42.9135 74.6453 42.9508 74.632 42.9961 74.632H43.3561V76.028H44.5161V76.544H43.3561V78.976C43.3561 79.1467 43.3975 79.2733 43.4801 79.356C43.5628 79.4387 43.6695 79.48 43.8001 79.48C43.8748 79.48 43.9388 79.4707 43.9921 79.452C44.0481 79.4307 44.0961 79.408 44.1361 79.384C44.1761 79.36 44.2095 79.3387 44.2361 79.32C44.2655 79.2987 44.2908 79.288 44.3121 79.288C44.3495 79.288 44.3828 79.3107 44.4121 79.356L44.6201 79.696C44.4975 79.8107 44.3495 79.9013 44.1761 79.968C44.0028 80.032 43.8241 80.064 43.6401 80.064Z" fill="black"/>
<path d="M132 79.02C131.84 79.02 131.68 78.96 131.557 78.8375L128.61 75.89L129.14 75.36L132 78.22L134.86 75.36L135.39 75.89L132.442 78.8375C132.32 78.96 132.16 79.02 132 79.02Z" fill="#202023"/>
</svg>
