<svg width="300" height="180" fill="none" xmlns="http://www.w3.org/2000/svg"><path fill="#fff" d="M0 0h300v180H0z"/><path d="m109.62 23.519.075 3.09h-.28c-.132-.775-.458-1.397-.977-1.867-.515-.474-1.074-.71-1.675-.71-.465 0-.834.125-1.108.375-.269.246-.403.531-.403.855 0 .205.048.387.144.547.132.214.344.426.635.635.214.15.709.417 1.484.8 1.084.533 1.816 1.037 2.194 1.51.374.475.561 1.017.561 1.628 0 .775-.304 1.442-.91 2.003-.601.556-1.367.834-2.297.834-.291 0-.567-.03-.827-.09a6.275 6.275 0 0 1-.977-.334c-.219-.091-.399-.137-.54-.137a.668.668 0 0 0-.376.137.966.966 0 0 0-.322.417h-.252v-3.5h.252c.201.984.586 1.736 1.156 2.256.574.515 1.191.772 1.852.772.511 0 .916-.139 1.217-.417.305-.278.458-.601.458-.97 0-.22-.059-.431-.178-.636a1.936 1.936 0 0 0-.526-.581c-.237-.187-.656-.429-1.258-.725-.843-.415-1.449-.768-1.818-1.06a3.308 3.308 0 0 1-.855-.977 2.447 2.447 0 0 1-.294-1.19c0-.738.272-1.367.814-1.886.542-.52 1.226-.78 2.051-.78.3 0 .592.037.875.11.214.055.474.157.779.308.31.145.526.218.649.218a.367.367 0 0 0 .281-.11c.068-.072.132-.247.191-.525h.205zm4.225.752v2.337h1.517v.677h-1.517v3.945c0 .369.016.608.048.717a.557.557 0 0 0 .184.26.415.415 0 0 0 .239.096c.297 0 .577-.226.841-.677l.205.15c-.369.875-.968 1.313-1.798 1.313-.405 0-.749-.112-1.032-.335-.278-.228-.456-.48-.533-.759-.046-.155-.068-.574-.068-1.258v-3.452h-.834v-.24a8.708 8.708 0 0 0 1.463-1.277 7.734 7.734 0 0 0 1.059-1.498h.226zm5.14 2.146c.556 0 1.074.143 1.552.43a2.73 2.73 0 0 1 1.087 1.224c.251.529.376 1.108.376 1.737 0 .907-.23 1.665-.69 2.276-.556.738-1.324 1.107-2.304 1.107-.962 0-1.702-.337-2.222-1.011-.519-.675-.779-1.456-.779-2.345 0-.916.264-1.714.793-2.393.533-.683 1.262-1.025 2.187-1.025zm.028.485a.802.802 0 0 0-.602.267c-.164.173-.273.52-.328 1.039-.05.515-.075 1.233-.075 2.153 0 .488.032.944.096 1.367.05.324.157.57.321.739a.762.762 0 0 0 .56.253.775.775 0 0 0 .513-.171c.178-.155.296-.372.356-.65.091-.433.136-1.308.136-2.625 0-.774-.043-1.305-.13-1.592-.086-.292-.214-.504-.382-.636a.72.72 0 0 0-.465-.144zm6.61-.294v1.45c.424-.661.795-1.099 1.114-1.313.319-.219.627-.328.923-.328.255 0 .458.08.609.24.155.154.232.375.232.662 0 .306-.075.543-.226.711a.677.677 0 0 1-.533.253.928.928 0 0 1-.629-.232 3.7 3.7 0 0 0-.314-.26.3.3 0 0 0-.157-.041.571.571 0 0 0-.376.15c-.187.155-.328.376-.424.664-.146.442-.219.93-.219 1.462v1.47l.007.383c0 .26.016.426.048.499a.562.562 0 0 0 .239.273c.109.055.292.09.547.103V33h-3.452v-.246c.278-.023.465-.098.56-.226.101-.132.151-.476.151-1.032v-3.534c0-.365-.019-.597-.055-.697a.555.555 0 0 0-.198-.28c-.087-.06-.24-.1-.458-.124v-.253h2.611zm5.106-3.096c.297 0 .547.104.752.314.206.205.308.454.308.745 0 .292-.105.54-.314.745a1.016 1.016 0 0 1-.746.308c-.291 0-.54-.102-.745-.308a1.014 1.014 0 0 1-.307-.745c0-.291.102-.54.307-.745.205-.21.454-.314.745-.314zm.958 3.096v5.066c0 .451.052.74.157.868.105.123.31.194.615.212V33h-3.452v-.246c.282-.01.492-.091.629-.246.091-.105.136-.383.136-.834V27.94c0-.45-.052-.738-.157-.86-.105-.128-.307-.201-.608-.22v-.253h2.68zm6.815 2.967h-3.507c.041.848.267 1.518.677 2.01.314.378.693.567 1.135.567.273 0 .521-.075.745-.225.223-.155.462-.43.718-.827l.232.15c-.346.706-.729 1.208-1.148 1.504a2.49 2.49 0 0 1-1.457.437c-.947 0-1.665-.364-2.153-1.093-.392-.588-.588-1.317-.588-2.188 0-1.066.287-1.914.862-2.543.578-.633 1.255-.95 2.03-.95.647 0 1.208.267 1.681.8.479.528.736 1.315.773 2.358zm-1.682-.458c0-.733-.041-1.237-.123-1.51-.077-.274-.2-.481-.369-.623a.568.568 0 0 0-.383-.123c-.237 0-.43.116-.581.349-.269.406-.403.962-.403 1.668v.24h1.859zm6.529-2.686.102 2.18h-.232c-.278-.647-.568-1.089-.868-1.326-.297-.237-.593-.355-.889-.355a.666.666 0 0 0-.479.191.572.572 0 0 0-.198.43c0 .124.046.242.137.356.146.187.554.508 1.224.964.669.451 1.109.836 1.319 1.155.214.315.321.668.321 1.06 0 .355-.089.704-.266 1.046a1.875 1.875 0 0 1-.752.786 2.152 2.152 0 0 1-1.074.273c-.305 0-.713-.095-1.223-.287a1.017 1.017 0 0 0-.281-.075c-.15 0-.275.114-.376.342h-.225l-.11-2.297h.233c.205.602.485 1.053.841 1.354.36.3.699.45 1.018.45a.733.733 0 0 0 .533-.197.658.658 0 0 0 .212-.493.842.842 0 0 0-.205-.567c-.136-.16-.442-.401-.916-.725-.697-.483-1.148-.852-1.353-1.107a1.927 1.927 0 0 1-.451-1.237c0-.493.168-.937.505-1.333.342-.401.834-.602 1.477-.602.346 0 .681.084 1.005.253a.665.665 0 0 0 .301.102.364.364 0 0 0 .198-.047c.05-.037.13-.135.239-.294h.233zm7.717.847v4.437c0 .428.046.697.137.807.146.168.415.246.807.232V33h-3.767v-.246c.287-.005.49-.037.609-.096a.513.513 0 0 0 .252-.26c.046-.109.069-.337.069-.683v-4.437h-.93v-.67h.93v-.471l-.007-.322c0-.656.239-1.203.718-1.64.483-.438 1.135-.656 1.955-.656.56 0 .975.104 1.244.314.273.21.41.442.41.697a.692.692 0 0 1-.253.534c-.168.15-.392.225-.67.225-.237 0-.426-.062-.567-.184-.137-.124-.205-.26-.205-.41 0-.042.014-.126.041-.254a.969.969 0 0 0 .027-.218c0-.096-.027-.167-.082-.212a.376.376 0 0 0-.266-.103.42.42 0 0 0-.335.164c-.087.11-.13.285-.13.527l.013 1.196v.813h.944v.67h-.944zm4.874-.861c.556 0 1.074.143 1.552.43a2.73 2.73 0 0 1 1.087 1.224c.251.529.376 1.108.376 1.737 0 .907-.23 1.665-.69 2.276-.556.738-1.324 1.107-2.304 1.107-.962 0-1.702-.337-2.222-1.011-.519-.675-.779-1.456-.779-2.345 0-.916.264-1.714.793-2.393.533-.683 1.262-1.025 2.187-1.025zm.028.485a.802.802 0 0 0-.602.267c-.164.173-.273.52-.328 1.039-.05.515-.075 1.233-.075 2.153 0 .488.032.944.096 1.367.05.324.157.57.321.739a.762.762 0 0 0 .56.253.773.773 0 0 0 .513-.171c.178-.155.296-.372.356-.65.091-.433.136-1.308.136-2.625 0-.774-.043-1.305-.13-1.592-.086-.292-.214-.504-.382-.636a.72.72 0 0 0-.465-.144zm6.61-.294v1.45c.424-.661.795-1.099 1.114-1.313.319-.219.627-.328.923-.328.255 0 .458.08.609.24.155.154.232.375.232.662 0 .306-.075.543-.226.711a.677.677 0 0 1-.533.253.928.928 0 0 1-.629-.232 3.7 3.7 0 0 0-.314-.26.3.3 0 0 0-.157-.041.573.573 0 0 0-.376.15c-.187.155-.328.376-.424.664-.146.442-.219.93-.219 1.462v1.47l.007.383c0 .26.016.426.048.499a.567.567 0 0 0 .239.273c.109.055.292.09.547.103V33h-3.452v-.246c.278-.023.465-.098.56-.226.101-.132.151-.476.151-1.032v-3.534c0-.365-.018-.597-.055-.697a.555.555 0 0 0-.198-.28c-.087-.06-.239-.1-.458-.124v-.253h2.611zm12.168.67 3.261 4.081c.46.575.857.964 1.189 1.17.242.145.497.218.766.218V33h-4.826v-.253c.305-.027.501-.075.588-.144a.306.306 0 0 0 .136-.252c0-.192-.209-.552-.629-1.08l-2.126-2.673-.341.287v2.53c0 .482.027.783.082.901a.702.702 0 0 0 .314.308c.155.082.403.123.745.123V33h-4.676v-.253h.308c.269 0 .485-.048.65-.144a.625.625 0 0 0 .273-.328c.05-.109.075-.396.075-.86v-6.099c0-.474-.025-.77-.075-.888-.05-.119-.153-.221-.308-.308-.15-.091-.355-.137-.615-.137h-.308v-.253h4.615v.253c-.315 0-.554.046-.718.137a.651.651 0 0 0-.28.321c-.055.114-.082.406-.082.875v2.885l3.438-2.782c.479-.387.718-.697.718-.93 0-.173-.098-.31-.294-.41-.1-.05-.349-.082-.745-.096v-.253h3.616v.253c-.323.023-.579.082-.766.178-.182.091-.606.406-1.271.944l-2.714 2.173zm7.075-3.766c.297 0 .547.104.752.314.205.205.308.454.308.745 0 .292-.105.54-.315.745a1.014 1.014 0 0 1-.745.308c-.291 0-.54-.102-.745-.308a1.014 1.014 0 0 1-.307-.745c0-.291.102-.54.307-.745.205-.21.454-.314.745-.314zm.957 3.096v5.066c0 .451.053.74.158.868.104.123.309.194.615.212V33h-3.452v-.246c.282-.01.492-.091.629-.246.091-.105.136-.383.136-.834V27.94c0-.45-.052-.738-.157-.86-.105-.128-.308-.201-.608-.22v-.253h2.679zm7.616-2.878v7.356c0 .497.013.79.041.882.036.15.104.262.205.335.104.073.284.118.54.137v.225l-2.701.526V32.18c-.323.392-.612.658-.868.8-.25.14-.535.211-.854.211-.816 0-1.461-.364-1.935-1.093-.383-.593-.574-1.32-.574-2.181 0-.688.119-1.303.356-1.846.236-.547.56-.959.97-1.237a2.35 2.35 0 0 1 1.333-.417c.306 0 .577.06.814.178s.49.326.758.622v-1.928c0-.488-.02-.782-.061-.882a.59.59 0 0 0-.246-.294c-.11-.064-.315-.095-.615-.095v-.288h2.837zm-1.915 4.334c-.337-.647-.749-.97-1.237-.97a.631.631 0 0 0-.417.136c-.168.142-.307.39-.417.746-.105.355-.157.9-.157 1.633 0 .807.059 1.404.178 1.791.118.388.28.668.485.841.105.087.248.13.431.13.401 0 .779-.314 1.134-.943v-3.364zm7.534-1.633.102 2.18h-.232c-.278-.647-.568-1.089-.868-1.326-.297-.237-.593-.355-.889-.355a.666.666 0 0 0-.479.191.572.572 0 0 0-.198.43c0 .124.046.242.137.356.146.187.554.508 1.224.964.669.451 1.109.836 1.319 1.155.214.315.321.668.321 1.06 0 .355-.089.704-.266 1.046a1.875 1.875 0 0 1-.752.786 2.152 2.152 0 0 1-1.074.273c-.305 0-.713-.095-1.223-.287a1.017 1.017 0 0 0-.281-.075c-.15 0-.275.114-.375.342h-.226l-.109-2.297h.232c.205.602.485 1.053.841 1.354.36.3.699.45 1.018.45a.737.737 0 0 0 .534-.197.66.66 0 0 0 .211-.493.842.842 0 0 0-.205-.567c-.136-.16-.442-.401-.916-.725-.697-.483-1.148-.852-1.353-1.107a1.927 1.927 0 0 1-.451-1.237c0-.493.168-.937.506-1.333.341-.401.834-.602 1.476-.602.346 0 .681.084 1.005.253a.665.665 0 0 0 .301.102.364.364 0 0 0 .198-.047c.05-.037.13-.135.239-.294h.233z" fill="#000"/><path fill="#D9E7FB" d="M20 52h80v108H20z"/><path d="M31.645 66.16h2.46v-1.516c0-.27-.016-.449-.05-.535a.35.35 0 0 0-.164-.168.718.718 0 0 0-.356-.093h-.187v-.145h2.265v.145h-.187a.743.743 0 0 0-.356.09.336.336 0 0 0-.172.19c-.028.084-.043.256-.043.516v3.418c0 .269.017.446.051.532.026.065.08.12.16.168a.74.74 0 0 0 .36.094h.187V69h-2.265v-.144h.187c.216 0 .374-.064.473-.192.065-.083.097-.284.097-.602V66.45h-2.46v1.614c0 .268.017.445.05.53a.35.35 0 0 0 .164.169c.112.062.23.094.356.094h.191V69h-2.27v-.144h.188c.219 0 .378-.064.477-.192.062-.083.094-.284.094-.602v-3.418c0-.27-.017-.449-.051-.535a.353.353 0 0 0-.16-.168.74.74 0 0 0-.36-.093h-.187v-.145h2.27v.145h-.192a.743.743 0 0 0-.356.09.338.338 0 0 0-.168.19c-.03.084-.046.256-.046.516v1.516zm6.136-.844c.542 0 .977.206 1.305.618.279.351.418.755.418 1.21 0 .32-.077.645-.23.973a1.676 1.676 0 0 1-.637.742c-.269.167-.568.25-.899.25-.539 0-.967-.215-1.285-.644a1.997 1.997 0 0 1-.402-1.219c0-.328.08-.654.242-.977a1.638 1.638 0 0 1 1.488-.953zm-.12.254a.815.815 0 0 0-.419.125c-.138.081-.25.224-.336.43-.086.206-.129.47-.129.793 0 .52.103.97.309 1.348.208.377.482.566.82.566a.762.762 0 0 0 .625-.313c.164-.208.246-.566.246-1.074 0-.635-.136-1.135-.41-1.5-.185-.25-.42-.375-.707-.375zm3.433.508c.26-.26.414-.41.46-.45.118-.098.244-.175.38-.23a1.07 1.07 0 0 1 .402-.082c.224 0 .417.066.578.196.161.13.27.319.324.566.269-.312.495-.517.68-.613.185-.1.375-.149.57-.149.19 0 .358.05.504.149.149.096.266.255.352.476.057.151.086.388.086.711v1.54c0 .223.017.377.05.46a.342.342 0 0 0 .145.149c.07.039.185.058.344.058V69h-1.766v-.14h.074c.154 0 .274-.03.36-.09a.347.347 0 0 0 .129-.2c.01-.044.015-.17.015-.379v-1.539c0-.291-.035-.497-.105-.617-.102-.166-.265-.25-.489-.25a.93.93 0 0 0-.417.106c-.139.067-.306.195-.504.382l-.008.043.008.168v1.707c0 .245.013.397.039.457.028.06.08.111.156.153.075.039.204.058.387.058V69h-1.809v-.14c.198 0 .333-.024.406-.07a.363.363 0 0 0 .157-.212 2.08 2.08 0 0 0 .02-.387v-1.539c0-.291-.044-.501-.13-.629a.55.55 0 0 0-.48-.25c-.14 0-.28.038-.418.114a1.607 1.607 0 0 0-.5.386v1.918c0 .235.015.387.047.457.034.07.082.124.144.16.065.034.196.051.39.051V69h-1.769v-.14c.164 0 .279-.018.344-.051a.349.349 0 0 0 .148-.168c.034-.079.051-.228.051-.45v-1.367c0-.393-.011-.647-.035-.761-.018-.086-.047-.145-.086-.176a.236.236 0 0 0-.16-.051c-.073 0-.16.02-.262.058l-.058-.14 1.078-.438h.168v.762zm5.765.691c-.002.532.127.948.387 1.25.26.303.566.454.918.454a.993.993 0 0 0 .61-.192c.174-.13.32-.351.437-.664l.121.078a1.873 1.873 0 0 1-.477.977 1.276 1.276 0 0 1-.988.437c-.43 0-.798-.166-1.105-.5-.305-.336-.457-.786-.457-1.351 0-.612.156-1.089.468-1.43.316-.344.71-.516 1.184-.516.401 0 .73.133.988.399.258.263.387.616.387 1.058h-2.473zm0-.226h1.657c-.013-.23-.04-.39-.082-.484a.772.772 0 0 0-.293-.344.725.725 0 0 0-.403-.125.81.81 0 0 0-.582.254c-.169.166-.268.4-.297.699zM30 70.066h19.559v.391H30v-.39zM33.695 87.297c.367.078.642.203.825.375.252.24.378.532.378.879 0 .263-.083.515-.25.758-.166.24-.395.415-.687.527-.29.11-.732.164-1.328.164h-2.5v-.144h.199c.221 0 .38-.07.477-.212.06-.09.09-.285.09-.582v-3.421c0-.329-.038-.535-.114-.622-.101-.114-.252-.171-.453-.171h-.2v-.145h2.29c.427 0 .77.031 1.027.094.39.094.689.26.895.5.206.237.308.51.308.82 0 .266-.08.504-.242.715-.161.208-.4.363-.715.465zm-2.047-.211c.097.018.206.032.329.043.125.008.261.012.41.012.38 0 .665-.04.855-.122a.928.928 0 0 0 .442-.378c.101-.17.152-.355.152-.555 0-.31-.126-.574-.379-.793-.253-.219-.621-.328-1.105-.328-.26 0-.495.028-.704.086v2.035zm0 2.531c.303.07.6.106.895.106.471 0 .83-.106 1.078-.317.247-.213.371-.476.371-.789 0-.206-.056-.404-.168-.594-.112-.19-.294-.34-.547-.449-.252-.11-.565-.164-.937-.164-.162 0-.3.003-.414.008a2.115 2.115 0 0 0-.278.027v2.172zm4.54-1.848c-.003.532.126.948.386 1.25.26.303.567.454.918.454a.993.993 0 0 0 .61-.192c.174-.13.32-.351.437-.664l.121.078a1.873 1.873 0 0 1-.476.977 1.275 1.275 0 0 1-.989.437c-.43 0-.798-.166-1.105-.5-.305-.336-.457-.786-.457-1.351 0-.612.156-1.089.469-1.43.315-.344.71-.516 1.183-.516.401 0 .73.133.988.399.258.263.387.616.387 1.058h-2.472zm0-.226h1.656c-.013-.23-.04-.39-.082-.484a.772.772 0 0 0-.293-.344.725.725 0 0 0-.403-.125.81.81 0 0 0-.582.254c-.169.166-.268.4-.297.699zm5.48 2.055a1.843 1.843 0 0 1-.512.394 1.254 1.254 0 0 1-.539.117c-.39 0-.732-.162-1.023-.488-.292-.328-.438-.749-.438-1.262s.162-.981.485-1.406c.323-.427.738-.64 1.246-.64.315 0 .575.1.781.3v-.66c0-.409-.01-.66-.031-.754-.019-.093-.048-.157-.09-.191a.24.24 0 0 0-.156-.051.825.825 0 0 0-.27.063l-.05-.137 1.066-.438h.175v4.137c0 .42.01.676.028.77.02.09.052.154.094.191a.233.233 0 0 0 .152.055.85.85 0 0 0 .281-.067l.043.137-1.062.441h-.18v-.511zm0-.274v-1.843a1.246 1.246 0 0 0-.14-.485.793.793 0 0 0-.313-.328.733.733 0 0 0-.375-.113c-.23 0-.434.103-.613.308-.237.271-.356.667-.356 1.188 0 .526.115.93.344 1.21.229.28.484.419.765.419.237 0 .467-.119.688-.356zm2.512-4.078v1.176h.836v.273h-.836v2.32c0 .232.032.389.097.47.068.08.154.12.258.12.086 0 .17-.026.25-.078a.528.528 0 0 0 .188-.238h.152c-.091.255-.22.448-.387.578a.84.84 0 0 1-.515.192.704.704 0 0 1-.352-.098.614.614 0 0 1-.254-.285c-.054-.125-.082-.317-.082-.574v-2.407h-.566v-.129c.143-.057.289-.153.437-.289.151-.138.285-.3.403-.488.06-.099.143-.28.25-.543h.12zm2.097-.8c.11 0 .202.038.278.117a.371.371 0 0 1 .117.277c0 .11-.04.203-.117.281a.371.371 0 0 1-.278.117.384.384 0 0 1-.28-.117.384.384 0 0 1-.118-.281c0-.11.038-.202.113-.278a.388.388 0 0 1 .285-.117zm.325 1.87v2.875c0 .224.015.374.046.45a.359.359 0 0 0 .145.164c.065.036.182.054.352.054V90h-1.739v-.14c.175 0 .292-.018.352-.051a.338.338 0 0 0 .14-.168c.037-.079.055-.228.055-.45v-1.379c0-.388-.012-.639-.035-.753-.018-.084-.047-.141-.086-.172a.236.236 0 0 0-.16-.051.784.784 0 0 0-.266.058l-.054-.14 1.078-.438h.172zm2.054.762c.26-.26.414-.41.461-.45.117-.098.244-.175.38-.23a1.07 1.07 0 0 1 .401-.082c.224 0 .417.066.579.196.161.13.27.319.324.566.268-.312.495-.517.68-.613.184-.1.374-.149.57-.149.19 0 .358.05.504.149.148.096.265.255.351.476.058.151.086.388.086.711v1.54c0 .223.017.377.051.46a.342.342 0 0 0 .145.149c.07.039.184.058.343.058V90h-1.765v-.14h.074c.153 0 .273-.03.36-.09a.347.347 0 0 0 .128-.2c.01-.044.016-.17.016-.379v-1.539c0-.291-.035-.497-.106-.617-.101-.166-.264-.25-.488-.25a.93.93 0 0 0-.418.106c-.138.067-.306.195-.504.382l-.008.043.008.168v1.707c0 .245.013.397.04.457.028.06.08.111.155.153.076.039.205.058.387.058V90h-1.808v-.14c.198 0 .333-.024.406-.07a.363.363 0 0 0 .156-.212 2.08 2.08 0 0 0 .02-.387v-1.539c0-.291-.043-.501-.13-.629a.55.55 0 0 0-.48-.25c-.14 0-.28.038-.418.114a1.61 1.61 0 0 0-.5.386v1.918c0 .235.016.387.047.457.034.07.082.124.145.16.065.034.195.051.39.051V90h-1.77v-.14c.165 0 .28-.018.344-.051a.349.349 0 0 0 .149-.168c.034-.079.05-.228.05-.45v-1.367c0-.393-.011-.647-.034-.761-.019-.086-.047-.145-.086-.176a.236.236 0 0 0-.16-.051c-.073 0-.16.02-.262.058l-.059-.14 1.078-.438h.168v.762zm5.766.691c-.003.532.126.948.387 1.25.26.303.566.454.918.454a.993.993 0 0 0 .609-.192c.174-.13.32-.351.437-.664l.121.078a1.873 1.873 0 0 1-.476.977 1.276 1.276 0 0 1-.988.437c-.43 0-.798-.166-1.106-.5-.304-.336-.457-.786-.457-1.351 0-.612.156-1.089.469-1.43.315-.344.71-.516 1.184-.516.4 0 .73.133.988.399.258.263.386.616.386 1.058h-2.472zm0-.226h1.656c-.013-.23-.04-.39-.082-.484a.772.772 0 0 0-.293-.344.725.725 0 0 0-.402-.125.809.809 0 0 0-.582.254c-.17.166-.269.4-.297.699zM30 91.066h27.121v.391H30v-.39zM31.645 108.16h2.46v-1.515c0-.271-.016-.45-.05-.536a.35.35 0 0 0-.164-.168.723.723 0 0 0-.356-.093h-.187v-.145h2.265v.145h-.187a.742.742 0 0 0-.356.09.333.333 0 0 0-.172.191c-.028.083-.043.255-.043.516v3.417c0 .269.017.446.051.532.026.065.08.121.16.168a.745.745 0 0 0 .36.093h.187V111h-2.265v-.145h.187c.216 0 .374-.063.473-.191.065-.083.097-.284.097-.602v-1.613h-2.46v1.613c0 .269.017.446.05.532a.35.35 0 0 0 .164.168c.112.062.23.093.356.093h.191V111h-2.27v-.145h.188c.219 0 .378-.063.477-.191.062-.083.094-.284.094-.602v-3.417c0-.271-.017-.45-.051-.536a.354.354 0 0 0-.16-.168.745.745 0 0 0-.36-.093h-.187v-.145h2.27v.145h-.192a.742.742 0 0 0-.356.09.335.335 0 0 0-.168.191c-.03.083-.046.255-.046.516v1.515zm7.523-.738v2.168c0 .414.01.668.027.762.021.091.052.155.094.191a.235.235 0 0 0 .152.055c.081 0 .172-.022.274-.067l.054.137-1.07.441h-.176v-.757c-.307.333-.541.543-.703.628a1.073 1.073 0 0 1-.511.129.835.835 0 0 1-.524-.171.917.917 0 0 1-.304-.45c-.058-.182-.087-.44-.087-.773v-1.598c0-.169-.018-.286-.054-.351a.353.353 0 0 0-.164-.149c-.07-.036-.2-.053-.387-.051v-.144h1.254v2.394c0 .334.057.552.172.657a.614.614 0 0 0 .422.156.855.855 0 0 0 .379-.106c.143-.07.312-.204.507-.402v-2.027c0-.203-.037-.34-.113-.41-.073-.073-.226-.112-.46-.118v-.144h1.218zm1.926.656c.26-.26.414-.41.46-.449.118-.099.244-.176.38-.231.135-.054.27-.082.402-.082.224 0 .417.066.578.196.161.13.27.319.324.566.269-.312.495-.517.68-.613.185-.099.375-.149.57-.149.19 0 .358.05.504.149.149.096.266.255.352.476.057.151.086.388.086.711v1.539c0 .224.017.378.05.461a.34.34 0 0 0 .145.149c.07.039.185.058.344.058V111h-1.766v-.141h.074c.154 0 .274-.03.36-.089a.352.352 0 0 0 .129-.2c.01-.044.015-.17.015-.379v-1.539c0-.291-.035-.497-.105-.617-.102-.167-.265-.25-.489-.25a.921.921 0 0 0-.417.106c-.139.067-.306.195-.504.382l-.008.043.008.168v1.707c0 .245.013.398.039.457.028.06.08.111.156.153.075.039.204.058.387.058V111h-1.809v-.141c.198 0 .333-.023.406-.07a.362.362 0 0 0 .157-.211 2.08 2.08 0 0 0 .02-.387v-1.539c0-.291-.044-.501-.13-.629a.552.552 0 0 0-.48-.25c-.14 0-.28.038-.418.114a1.6 1.6 0 0 0-.5.386v1.918c0 .235.015.387.047.457a.363.363 0 0 0 .144.161c.065.033.196.05.39.05V111h-1.769v-.141c.164 0 .279-.017.344-.05a.353.353 0 0 0 .148-.168c.034-.079.051-.228.051-.45v-1.367c0-.393-.011-.647-.035-.762-.018-.085-.047-.144-.086-.175a.235.235 0 0 0-.16-.051.732.732 0 0 0-.262.059l-.058-.141 1.078-.438h.168v.762zm6.914-.762c.541 0 .976.206 1.304.618.28.351.419.755.419 1.211 0 .32-.077.644-.231.972a1.673 1.673 0 0 1-.637.742c-.268.167-.567.25-.898.25-.54 0-.968-.214-1.285-.644a1.997 1.997 0 0 1-.403-1.219c0-.328.081-.654.242-.976.165-.326.38-.566.645-.719a1.64 1.64 0 0 1 .844-.235zm-.121.254a.818.818 0 0 0-.418.125c-.138.081-.25.224-.336.43-.086.206-.13.47-.13.793 0 .521.104.97.31 1.348.208.377.481.566.82.566a.763.763 0 0 0 .625-.312c.164-.209.246-.567.246-1.075 0-.635-.137-1.135-.41-1.5-.185-.25-.42-.375-.707-.375zm3.418-.254v.805c.3-.536.606-.805.922-.805a.5.5 0 0 1 .355.133c.094.086.14.186.14.301a.357.357 0 0 1-.1.258.325.325 0 0 1-.243.105c-.091 0-.194-.044-.309-.133-.112-.091-.195-.136-.25-.136-.047 0-.097.026-.152.078-.117.107-.238.282-.363.527v1.715c0 .198.024.348.074.449a.403.403 0 0 0 .18.176c.086.047.21.07.37.07V111h-1.831v-.141c.182 0 .317-.028.406-.086a.331.331 0 0 0 .137-.199c.013-.044.02-.17.02-.379v-1.386c0-.417-.01-.664-.028-.743a.279.279 0 0 0-.094-.175.253.253 0 0 0-.168-.055.753.753 0 0 0-.273.059l-.04-.141 1.083-.438h.164zM30 112.066h22.672v.391H30v-.391zM31.64 129.52v1.542c0 .334.037.541.11.622.099.114.249.171.45.171h.202V132h-2.27v-.145h.2c.224 0 .384-.072.48-.218.053-.081.079-.272.079-.575v-3.421c0-.334-.035-.541-.106-.621-.101-.115-.252-.172-.453-.172h-.2v-.145h1.942c.474 0 .848.05 1.121.149.274.096.504.26.692.492.187.232.281.506.281.824 0 .432-.143.784-.43 1.055-.284.27-.686.406-1.207.406-.127 0-.265-.009-.414-.027a5.896 5.896 0 0 1-.476-.082zm0-.223c.139.026.261.045.368.058.107.013.198.02.273.02.271 0 .504-.104.7-.313.197-.21.296-.483.296-.816 0-.229-.047-.441-.14-.637a.954.954 0 0 0-.399-.441 1.152 1.152 0 0 0-.586-.148 2.28 2.28 0 0 0-.511.074v2.203zm4.813-.981c.542 0 .977.206 1.305.618.278.351.418.755.418 1.211 0 .32-.077.644-.23.972a1.673 1.673 0 0 1-.637.742c-.269.167-.568.25-.899.25-.539 0-.967-.214-1.285-.644a1.997 1.997 0 0 1-.402-1.219c0-.328.08-.654.242-.976.164-.326.379-.566.644-.719a1.64 1.64 0 0 1 .844-.235zm-.121.254a.818.818 0 0 0-.418.125c-.138.081-.25.224-.336.43-.086.206-.129.47-.129.793 0 .521.103.97.309 1.348.208.377.482.566.82.566a.763.763 0 0 0 .625-.312c.164-.209.246-.567.246-1.075 0-.635-.136-1.135-.41-1.5-.185-.25-.42-.375-.707-.375zm2.973 1.2c-.003.531.126.947.386 1.25.26.302.567.453.918.453a.992.992 0 0 0 .61-.192c.174-.13.32-.351.437-.664l.121.078a1.872 1.872 0 0 1-.476.977 1.274 1.274 0 0 1-.989.437c-.43 0-.798-.166-1.105-.5-.305-.336-.457-.786-.457-1.351 0-.612.156-1.089.469-1.43.315-.344.71-.516 1.183-.516.401 0 .73.133.989.399.257.263.386.616.386 1.059h-2.472zm0-.227h1.656c-.013-.229-.04-.391-.082-.484a.77.77 0 0 0-.293-.344.727.727 0 0 0-.402-.125.806.806 0 0 0-.582.254c-.17.166-.269.399-.297.699zm4.015-.465c.26-.26.414-.41.461-.449.117-.099.244-.176.38-.231.135-.054.269-.082.401-.082.224 0 .417.066.579.196.161.13.27.319.324.566.268-.312.495-.517.68-.613.184-.099.374-.149.57-.149.19 0 .358.05.504.149.148.096.265.255.351.476.058.151.086.388.086.711v1.539c0 .224.017.378.051.461a.341.341 0 0 0 .145.149c.07.039.184.058.343.058V132H46.43v-.141h.074c.154 0 .273-.03.36-.089a.352.352 0 0 0 .128-.2c.01-.044.016-.17.016-.379v-1.539c0-.291-.035-.497-.106-.617-.101-.167-.264-.25-.488-.25a.92.92 0 0 0-.418.106c-.138.067-.306.195-.504.382l-.008.043.008.168v1.707c0 .245.013.398.04.457.028.06.08.111.156.153.075.039.204.058.386.058V132h-1.808v-.141c.198 0 .333-.023.406-.07a.362.362 0 0 0 .156-.211c.013-.044.02-.173.02-.387v-1.539c0-.291-.043-.501-.13-.629a.552.552 0 0 0-.48-.25c-.14 0-.28.038-.418.114a1.602 1.602 0 0 0-.5.386v1.918c0 .235.016.387.047.457a.362.362 0 0 0 .145.161c.065.033.195.05.39.05V132h-1.77v-.141c.165 0 .28-.017.345-.05a.354.354 0 0 0 .148-.168c.034-.079.05-.228.05-.45v-1.367c0-.393-.01-.647-.034-.762-.019-.085-.047-.144-.086-.175a.236.236 0 0 0-.16-.051.732.732 0 0 0-.262.059l-.059-.141 1.078-.438h.168v.762zm7.477-.762v1.219h-.129c-.099-.383-.227-.643-.383-.781a.85.85 0 0 0-.59-.207.655.655 0 0 0-.441.144c-.112.097-.168.204-.168.321 0 .146.042.271.125.375.08.106.245.22.492.34l.57.277c.53.258.793.598.793 1.019a.965.965 0 0 1-.37.789c-.245.198-.52.297-.825.297-.219 0-.469-.039-.75-.117a.763.763 0 0 0-.21-.039c-.06 0-.108.034-.142.102h-.128v-1.278h.129c.072.365.212.64.417.825.206.184.437.277.692.277.18 0 .325-.052.437-.156a.507.507 0 0 0 .172-.383.602.602 0 0 0-.191-.453c-.125-.123-.376-.278-.754-.465-.378-.188-.625-.357-.742-.508a.879.879 0 0 1-.176-.562c0-.295.1-.541.3-.739.204-.198.466-.297.786-.297.14 0 .311.03.512.09.133.039.221.059.265.059a.157.157 0 0 0 .098-.027.385.385 0 0 0 .082-.122h.129zM30 133.066h21.348v.391H30v-.391z" fill="#00F"/><path fill="#FBF4EF" d="M100 52h180v108H100z"/><path d="m109.988 69 2.2-5.727h.816L115.348 69h-.864l-.668-1.734h-2.394L110.793 69h-.805zm1.653-2.352h1.941l-.598-1.585a16.001 16.001 0 0 1-.406-1.188 7.406 7.406 0 0 1-.308 1.094l-.629 1.68zM117.629 69v-5.727h.703V69h-.703zm1.535-2.074c0-.768.214-1.338.641-1.707.356-.307.791-.461 1.304-.461.571 0 1.037.187 1.399.562.362.373.543.888.543 1.547 0 .534-.081.955-.242 1.262a1.686 1.686 0 0 1-.7.71c-.304.17-.638.255-1 .255-.58 0-1.05-.186-1.41-.559-.357-.372-.535-.909-.535-1.61zm.723 0c0 .531.116.93.347 1.195.232.263.524.395.875.395.349 0 .64-.133.871-.399.232-.265.348-.67.348-1.215 0-.513-.117-.9-.351-1.164a1.105 1.105 0 0 0-.868-.398c-.351 0-.643.131-.875.394-.231.263-.347.66-.347 1.192zM123.879 69v-4.148h.633v.59c.304-.456.745-.684 1.32-.684.25 0 .479.045.688.136.21.09.368.206.472.352.104.146.177.32.219.52.026.13.039.358.039.683V69h-.703v-2.523c0-.287-.027-.5-.082-.641a.668.668 0 0 0-.293-.34.905.905 0 0 0-.488-.129c-.3 0-.559.095-.778.285-.216.19-.324.551-.324 1.082V69h-.703zm4.324.344.684.101c.028.211.108.365.238.461.174.13.413.196.715.196.325 0 .577-.066.754-.196a.958.958 0 0 0 .359-.547c.037-.143.054-.444.051-.902-.307.362-.69.543-1.149.543-.57 0-1.011-.206-1.324-.617-.312-.412-.469-.905-.469-1.48 0-.397.072-.761.215-1.094.144-.336.351-.596.621-.778.274-.182.594-.273.961-.273.49 0 .894.198 1.211.594v-.5h.649v3.585c0 .646-.067 1.103-.199 1.372-.131.27-.339.484-.625.64-.284.157-.635.235-1.051.235-.495 0-.895-.112-1.199-.336-.305-.222-.452-.556-.442-1.004zm.582-2.492c0 .544.108.941.324 1.191.217.25.487.375.813.375.323 0 .594-.124.812-.371.219-.25.328-.64.328-1.172 0-.508-.113-.89-.339-1.148-.224-.258-.495-.387-.813-.387-.312 0-.578.127-.797.383-.218.252-.328.629-.328 1.129zm7.762 1.52.101.62a2.598 2.598 0 0 1-.531.063c-.255 0-.453-.04-.594-.121a.68.68 0 0 1-.296-.317c-.058-.133-.086-.41-.086-.832v-2.387h-.516v-.546h.516v-1.028l.699-.422v1.45h.707v.546h-.707v2.426c0 .2.012.33.035.387a.306.306 0 0 0 .121.137c.057.034.138.05.242.05.078 0 .181-.009.309-.027zm.695-4.29v-.809h.703v.809h-.703zm0 4.918v-4.148h.703V69h-.703zm1.778 0v-4.148h.628v.582a1.471 1.471 0 0 1 1.258-.676c.308 0 .559.064.754.191.198.128.337.306.418.535.328-.484.755-.726 1.281-.726.412 0 .728.114.95.344.221.226.332.576.332 1.05V69h-.7v-2.613c0-.281-.023-.483-.07-.606a.575.575 0 0 0-.246-.3.773.773 0 0 0-.422-.114.975.975 0 0 0-.726.293c-.193.193-.289.503-.289.93V69h-.704v-2.695c0-.313-.057-.547-.172-.703-.114-.157-.302-.235-.562-.235-.198 0-.382.052-.551.156a.89.89 0 0 0-.363.458c-.076.2-.113.49-.113.867V69h-.703zm9.503-1.336.727.09c-.115.424-.327.754-.637.988-.31.235-.705.352-1.187.352-.607 0-1.089-.186-1.446-.559-.354-.375-.531-.9-.531-1.574 0-.698.18-1.24.539-1.625.36-.385.826-.578 1.399-.578.554 0 1.008.189 1.359.566.352.378.527.91.527 1.594l-.003.188h-3.094c.026.455.155.804.386 1.046.232.242.521.364.868.364.258 0 .478-.068.66-.204.182-.135.327-.351.433-.648zm-2.308-1.137h2.316c-.031-.349-.12-.61-.265-.785a1.079 1.079 0 0 0-.871-.406c-.323 0-.596.108-.817.324-.219.216-.34.505-.363.867zm8.855 1.961c-.26.222-.511.378-.754.469a2.151 2.151 0 0 1-.773.137c-.456 0-.806-.11-1.051-.332a1.107 1.107 0 0 1-.367-.856 1.165 1.165 0 0 1 .5-.96c.151-.102.32-.18.508-.231.138-.037.346-.072.625-.106.568-.067.985-.148 1.254-.242l.004-.183c0-.287-.067-.489-.2-.606-.179-.159-.446-.238-.8-.238-.331 0-.576.058-.735.176-.156.114-.272.319-.347.613l-.688-.094c.063-.294.165-.531.309-.71.143-.183.35-.322.621-.419.271-.099.584-.148.941-.148.354 0 .642.041.863.125.222.083.385.189.489.316.104.125.177.284.219.477.023.12.035.336.035.648v.938c0 .653.014 1.067.043 1.242.031.172.091.337.179.496h-.734a1.492 1.492 0 0 1-.141-.512zm-.058-1.57c-.255.104-.638.193-1.149.266-.289.041-.493.088-.613.14a.605.605 0 0 0-.375.563.6.6 0 0 0 .211.469c.143.125.352.187.625.187.271 0 .512-.059.723-.176.211-.12.365-.282.464-.488.076-.159.114-.393.114-.703v-.258zm1.676 2.426.683.101c.029.211.108.365.238.461.175.13.413.196.715.196.326 0 .577-.066.754-.196a.965.965 0 0 0 .36-.547c.036-.143.053-.444.05-.902-.307.362-.69.543-1.148.543-.57 0-1.012-.206-1.324-.617-.313-.412-.469-.905-.469-1.48 0-.397.071-.761.215-1.094a1.72 1.72 0 0 1 .621-.778c.273-.182.594-.273.961-.273.489 0 .893.198 1.211.594v-.5h.648v3.585c0 .646-.066 1.103-.199 1.372-.13.27-.339.484-.625.64-.284.157-.634.235-1.051.235-.495 0-.894-.112-1.199-.336-.305-.222-.452-.556-.441-1.004zm.582-2.492c0 .544.108.941.324 1.191.216.25.487.375.812.375.323 0 .594-.124.813-.371.219-.25.328-.64.328-1.172 0-.508-.113-.89-.34-1.148-.224-.258-.495-.387-.812-.387-.313 0-.579.127-.797.383-.219.252-.328.629-.328 1.129zm3.738.074c0-.768.213-1.338.64-1.707.357-.307.792-.461 1.305-.461.57 0 1.037.187 1.399.562.362.373.543.888.543 1.547 0 .534-.081.955-.243 1.262a1.69 1.69 0 0 1-.699.71c-.305.17-.638.255-1 .255-.581 0-1.051-.186-1.41-.559-.357-.372-.535-.909-.535-1.61zm.722 0c0 .531.116.93.348 1.195.232.263.524.395.875.395.349 0 .639-.133.871-.399.232-.265.348-.67.348-1.215 0-.513-.117-.9-.352-1.164a1.103 1.103 0 0 0-.867-.398c-.351 0-.643.131-.875.394-.232.263-.348.66-.348 1.192zm6.223-2.844v-.809h.703v.809h-.703zm0 4.918v-4.148h.703V69h-.703zm1.777 0v-4.148h.633v.59c.305-.456.745-.684 1.321-.684.25 0 .479.045.687.136.211.09.369.206.473.352.104.146.177.32.218.52.027.13.04.358.04.683V69h-.704v-2.523c0-.287-.027-.5-.082-.641a.659.659 0 0 0-.293-.34.903.903 0 0 0-.488-.129c-.299 0-.558.095-.777.285-.216.19-.324.551-.324 1.082V69h-.704zm9.387-.512c-.26.222-.512.378-.754.469a2.151 2.151 0 0 1-.773.137c-.456 0-.806-.11-1.051-.332a1.107 1.107 0 0 1-.367-.856 1.155 1.155 0 0 1 .5-.96c.151-.102.32-.18.508-.231.138-.037.346-.072.625-.106.567-.067.985-.148 1.254-.242l.003-.183c0-.287-.066-.489-.199-.606-.179-.159-.446-.238-.801-.238-.33 0-.575.058-.734.176-.156.114-.272.319-.348.613l-.687-.094c.062-.294.165-.531.309-.71.143-.183.35-.322.621-.419.27-.099.584-.148.941-.148.354 0 .642.041.863.125.222.083.384.189.489.316.104.125.177.284.218.477.024.12.036.336.036.648v.938c0 .653.014 1.067.042 1.242.032.172.092.337.18.496h-.734a1.492 1.492 0 0 1-.141-.512zm-.058-1.57c-.256.104-.638.193-1.149.266-.289.041-.493.088-.613.14a.605.605 0 0 0-.375.563.6.6 0 0 0 .211.469c.143.125.351.187.625.187.271 0 .512-.059.722-.176.211-.12.366-.282.465-.488.076-.159.114-.393.114-.703v-.258zM183.074 69v-5.727h.703V69h-.703zm4.504-.512c-.26.222-.512.378-.754.469a2.151 2.151 0 0 1-.773.137c-.456 0-.806-.11-1.051-.332a1.107 1.107 0 0 1-.367-.856 1.155 1.155 0 0 1 .5-.96c.151-.102.32-.18.508-.231.138-.037.346-.072.625-.106.567-.067.985-.148 1.254-.242l.003-.183c0-.287-.066-.489-.199-.606-.179-.159-.446-.238-.801-.238-.33 0-.575.058-.734.176-.156.114-.272.319-.348.613l-.687-.094c.062-.294.165-.531.308-.71a1.34 1.34 0 0 1 .622-.419c.27-.099.584-.148.941-.148.354 0 .642.041.863.125.222.083.384.189.489.316.104.125.177.284.218.477a3.9 3.9 0 0 1 .035.648v.938c0 .653.015 1.067.043 1.242.032.172.092.337.18.496h-.734a1.492 1.492 0 0 1-.141-.512zm-.058-1.57c-.256.104-.638.193-1.149.266-.289.041-.493.088-.613.14a.612.612 0 0 0-.278.23.591.591 0 0 0-.097.333.6.6 0 0 0 .211.469c.143.125.351.187.625.187.271 0 .511-.059.722-.176.211-.12.366-.282.465-.488.076-.159.114-.393.114-.703v-.258zM189.324 69v-4.148h.633v.59c.305-.456.745-.684 1.32-.684.25 0 .48.045.688.136.211.09.368.206.473.352.104.146.177.32.218.52.026.13.039.358.039.683V69h-.703v-2.523c0-.287-.027-.5-.082-.641a.663.663 0 0 0-.293-.34.905.905 0 0 0-.488-.129c-.3 0-.559.095-.777.285-.217.19-.325.551-.325 1.082V69h-.703zm7.145 0v-.523c-.263.411-.65.617-1.16.617-.331 0-.636-.091-.914-.274a1.816 1.816 0 0 1-.645-.761 2.673 2.673 0 0 1-.227-1.13c0-.413.069-.788.207-1.124.138-.339.346-.598.622-.778.276-.18.584-.27.925-.27.25 0 .473.054.668.161.196.104.354.24.477.41v-2.055h.699V69h-.652zm-2.223-2.07c0 .53.112.928.336 1.191.224.263.488.395.793.395a.99.99 0 0 0 .781-.375c.216-.253.324-.637.324-1.153 0-.567-.109-.984-.328-1.25-.218-.265-.488-.398-.808-.398a.979.979 0 0 0-.785.383c-.209.255-.313.657-.313 1.207zm6.379 2.07v-3.602h-.621v-.546h.621v-.442c0-.278.025-.485.074-.62a.89.89 0 0 1 .356-.442c.172-.115.411-.172.718-.172.198 0 .417.023.657.07l-.106.613a2.357 2.357 0 0 0-.414-.039c-.213 0-.364.046-.453.137-.089.091-.133.262-.133.512v.383h.809v.546h-.809V69h-.699zm4.766-.512a2.619 2.619 0 0 1-.754.469 2.16 2.16 0 0 1-.774.137c-.455 0-.806-.11-1.051-.332a1.11 1.11 0 0 1-.367-.856c0-.203.046-.388.137-.554.094-.17.215-.305.363-.407.151-.101.321-.178.508-.23.138-.037.346-.072.625-.106.568-.067.986-.148 1.254-.242l.004-.183c0-.287-.066-.489-.199-.606-.18-.159-.447-.238-.801-.238-.331 0-.576.058-.734.176-.157.114-.273.319-.348.613l-.688-.094c.063-.294.166-.531.309-.71.143-.183.35-.322.621-.419.271-.099.585-.148.942-.148.354 0 .641.041.863.125.221.083.384.189.488.316.104.125.177.284.219.477.023.12.035.336.035.648v.938c0 .653.014 1.067.043 1.242.031.172.091.337.18.496h-.735a1.47 1.47 0 0 1-.14-.512zm-.059-1.57c-.255.104-.638.193-1.148.266-.289.041-.494.088-.614.14a.61.61 0 0 0-.375.563c0 .187.071.344.211.469.143.125.352.187.625.187.271 0 .512-.059.723-.176.211-.12.366-.282.465-.488.075-.159.113-.393.113-.703v-.258zM207.129 69v-4.148h.633v.629c.161-.295.31-.489.445-.583a.79.79 0 0 1 .453-.14c.237 0 .478.075.723.226l-.242.653a1.008 1.008 0 0 0-.516-.153.662.662 0 0 0-.414.141.743.743 0 0 0-.262.383c-.078.25-.117.523-.117.82V69h-.703zm7.605-.512c-.26.222-.511.378-.754.469a2.151 2.151 0 0 1-.773.137c-.456 0-.806-.11-1.051-.332a1.107 1.107 0 0 1-.367-.856c0-.203.046-.388.137-.554.094-.17.215-.305.363-.407.151-.101.32-.178.508-.23.138-.037.346-.072.625-.106.568-.067.986-.148 1.254-.242l.004-.183c0-.287-.067-.489-.2-.606-.179-.159-.446-.238-.8-.238-.331 0-.576.058-.735.176-.156.114-.272.319-.347.613l-.688-.094c.063-.294.166-.531.309-.71.143-.183.35-.322.621-.419.271-.099.584-.148.941-.148.354 0 .642.041.864.125.221.083.384.189.488.316.104.125.177.284.219.477.023.12.035.336.035.648v.938c0 .653.014 1.067.043 1.242.031.172.091.337.179.496h-.734a1.492 1.492 0 0 1-.141-.512zm-.058-1.57c-.255.104-.638.193-1.149.266-.289.041-.493.088-.613.14a.605.605 0 0 0-.375.563.6.6 0 0 0 .211.469c.143.125.352.187.625.187.271 0 .512-.059.723-.176.211-.12.366-.282.464-.488.076-.159.114-.393.114-.703v-.258zm2.57 2.082-1.269-4.148h.726l.66 2.394.246.89.215-.855.66-2.43h.723l.621 2.407.207.793.238-.801.711-2.398h.684L220.371 69h-.73l-.661-2.484-.16-.707-.84 3.191h-.734zm7.723-.512a2.619 2.619 0 0 1-.754.469 2.16 2.16 0 0 1-.774.137c-.455 0-.806-.11-1.05-.332a1.108 1.108 0 0 1-.368-.856c0-.203.046-.388.137-.554.094-.17.215-.305.363-.407.151-.101.321-.178.508-.23a5.05 5.05 0 0 1 .625-.106c.568-.067.986-.148 1.254-.242l.004-.183c0-.287-.066-.489-.199-.606-.18-.159-.447-.238-.801-.238-.331 0-.575.058-.734.176-.157.114-.272.319-.348.613l-.687-.094c.062-.294.165-.531.308-.71.143-.183.35-.322.621-.419.271-.099.585-.148.942-.148.354 0 .642.041.863.125.221.083.384.189.488.316.104.125.177.284.219.477.023.12.035.336.035.648v.938c0 .653.014 1.067.043 1.242.031.172.091.337.18.496h-.735a1.492 1.492 0 0 1-.14-.512zm-.059-1.57c-.255.104-.638.193-1.148.266-.289.041-.494.088-.614.14a.61.61 0 0 0-.375.563c0 .187.071.344.211.469.144.125.352.187.625.187.271 0 .512-.059.723-.176.211-.12.366-.282.465-.488.075-.159.113-.393.113-.703v-.258zm1.774 3.68-.079-.66c.154.041.288.062.403.062a.773.773 0 0 0 .375-.078.636.636 0 0 0 .23-.219c.045-.07.116-.245.215-.523.013-.04.034-.097.063-.172l-1.575-4.156h.758l.864 2.402c.111.305.212.625.3.96.081-.322.177-.637.289-.945l.887-2.417h.703l-1.578 4.218c-.169.456-.301.77-.394.942-.125.231-.269.4-.43.507-.162.11-.354.165-.578.165-.136 0-.287-.03-.453-.086zM230.305 69v-.8h.8v.8c0 .294-.052.531-.156.71a1.012 1.012 0 0 1-.496.423l-.195-.301a.665.665 0 0 0 .328-.289c.07-.125.109-.306.117-.543h-.398zm4.273-4.918v-.809h.703v.809h-.703zm0 4.918v-4.148h.703V69h-.703zm1.777 0v-4.148h.633v.59c.305-.456.745-.684 1.321-.684.25 0 .479.045.687.136.211.09.369.206.473.352.104.146.177.32.219.52.026.13.039.358.039.683V69h-.704v-2.523c0-.287-.027-.5-.082-.641a.659.659 0 0 0-.293-.34.903.903 0 0 0-.488-.129c-.299 0-.558.095-.777.285-.216.19-.324.551-.324 1.082V69h-.704zm8.215-.629.102.621a2.606 2.606 0 0 1-.531.063c-.256 0-.453-.04-.594-.121a.677.677 0 0 1-.297-.317c-.057-.133-.086-.41-.086-.832v-2.387h-.516v-.546h.516v-1.028l.699-.422v1.45h.707v.546h-.707v2.426c0 .2.012.33.035.387a.308.308 0 0 0 .122.137c.057.034.138.05.242.05.078 0 .181-.009.308-.027zm.692.629v-5.727h.703v2.055a1.57 1.57 0 0 1 1.242-.57c.307 0 .574.061.801.183.226.12.388.287.484.5.099.214.149.524.149.93V69h-.703v-2.629c0-.352-.077-.607-.231-.765-.151-.162-.366-.243-.645-.243-.208 0-.404.055-.589.164a.905.905 0 0 0-.391.438c-.078.185-.117.44-.117.766V69h-.703zm7.293-1.336.726.09c-.114.424-.327.754-.636.988-.31.235-.706.352-1.188.352-.607 0-1.089-.186-1.445-.559-.354-.375-.532-.9-.532-1.574 0-.698.18-1.24.54-1.625.359-.385.825-.578 1.398-.578.555 0 1.008.189 1.359.566.352.378.528.91.528 1.594l-.004.188h-3.094c.026.455.155.804.387 1.046s.521.364.867.364c.258 0 .478-.068.66-.204.182-.135.327-.351.434-.648zm-2.309-1.137h2.316c-.031-.349-.119-.61-.265-.785a1.077 1.077 0 0 0-.871-.406c-.323 0-.595.108-.817.324-.218.216-.339.505-.363.867zM110.586 81v-5.727h.758v2.84l2.844-2.84h1.027l-2.403 2.32L115.32 81h-1l-2.039-2.898-.937.914V81h-.758zm5.281-4.918v-.809h.703v.809h-.703zm0 4.918v-4.148h.703V81h-.703zm1.778 0v-4.148h.632v.59c.305-.456.745-.684 1.321-.684.25 0 .479.045.687.136.211.09.369.206.473.352.104.146.177.32.219.52.026.13.039.358.039.683V81h-.704v-2.523c0-.287-.027-.5-.082-.641a.661.661 0 0 0-.292-.34.909.909 0 0 0-.489-.129c-.299 0-.558.095-.777.285-.216.19-.324.551-.324 1.082V81h-.703zm4.324.344.683.101c.029.211.108.365.239.461.174.13.412.196.714.196.326 0 .577-.066.754-.196a.965.965 0 0 0 .36-.547c.036-.143.053-.444.051-.902-.308.362-.691.543-1.149.543-.57 0-1.012-.206-1.324-.617-.313-.412-.469-.905-.469-1.48 0-.397.072-.761.215-1.094a1.72 1.72 0 0 1 .621-.778c.274-.182.594-.273.961-.273.49 0 .893.198 1.211.594v-.5h.648v3.585c0 .646-.066 1.103-.199 1.372-.13.27-.338.484-.625.64-.284.157-.634.235-1.051.235-.494 0-.894-.112-1.199-.336-.305-.222-.452-.556-.441-1.004zm.582-2.492c0 .544.108.941.324 1.191.216.25.487.375.813.375.322 0 .593-.124.812-.371.219-.25.328-.64.328-1.172 0-.508-.113-.89-.34-1.148-.224-.258-.495-.387-.812-.387-.313 0-.578.127-.797.383-.219.252-.328.629-.328 1.129zM129.242 81v-.523c-.263.411-.65.617-1.16.617-.331 0-.635-.091-.914-.274a1.823 1.823 0 0 1-.645-.761 2.673 2.673 0 0 1-.226-1.13c0-.413.069-.788.207-1.124.138-.339.345-.598.621-.778.276-.18.585-.27.926-.27.25 0 .472.054.668.161.195.104.354.24.476.41v-2.055h.7V81h-.653zm-2.222-2.07c0 .53.112.928.335 1.191.224.263.489.395.793.395a.992.992 0 0 0 .782-.375c.216-.253.324-.637.324-1.153 0-.567-.109-.984-.328-1.25-.219-.265-.488-.398-.809-.398a.98.98 0 0 0-.785.383c-.208.255-.312.657-.312 1.207zm3.722-.004c0-.768.214-1.338.641-1.707.357-.307.791-.461 1.305-.461.57 0 1.036.187 1.398.562.362.373.543.888.543 1.547 0 .534-.081.955-.242 1.262a1.69 1.69 0 0 1-.699.71c-.305.17-.639.255-1 .255-.581 0-1.051-.186-1.411-.559-.356-.372-.535-.909-.535-1.61zm.723 0c0 .531.116.93.347 1.195.232.263.524.395.876.395.348 0 .639-.133.871-.399.231-.265.347-.67.347-1.215 0-.513-.117-.9-.351-1.164a1.105 1.105 0 0 0-.867-.398c-.352 0-.644.131-.876.394-.231.263-.347.66-.347 1.192zM135.457 81v-4.148h.629v.582a1.46 1.46 0 0 1 .519-.489c.217-.125.463-.187.739-.187.307 0 .558.064.754.191.198.128.337.306.418.535.328-.484.755-.726 1.281-.726.411 0 .728.114.949.344.221.226.332.576.332 1.05V81h-.699v-2.613c0-.281-.024-.483-.07-.606a.581.581 0 0 0-.247-.3.77.77 0 0 0-.421-.114.979.979 0 0 0-.727.293c-.193.193-.289.503-.289.93V81h-.703v-2.695c0-.313-.057-.547-.172-.703-.115-.157-.302-.235-.562-.235-.198 0-.382.052-.551.156a.891.891 0 0 0-.364.458c-.075.2-.113.49-.113.867V81h-.703zm8.629-2.074c0-.768.213-1.338.641-1.707.356-.307.791-.461 1.304-.461.571 0 1.037.187 1.399.562.362.373.543.888.543 1.547 0 .534-.081.955-.243 1.262a1.678 1.678 0 0 1-.699.71c-.304.17-.638.255-1 .255-.58 0-1.051-.186-1.41-.559-.357-.372-.535-.909-.535-1.61zm.723 0c0 .531.115.93.347 1.195.232.263.524.395.875.395.349 0 .64-.133.871-.399.232-.265.348-.67.348-1.215 0-.513-.117-.9-.352-1.164a1.102 1.102 0 0 0-.867-.398c-.351 0-.643.131-.875.394-.232.263-.347.66-.347 1.192zm4.16 2.074v-3.602h-.621v-.546h.621v-.442c0-.278.024-.486.074-.62a.894.894 0 0 1 .355-.442c.172-.115.412-.172.719-.172.198 0 .417.023.656.07l-.105.613a2.357 2.357 0 0 0-.414-.039c-.214 0-.365.046-.453.137-.089.091-.133.262-.133.512v.383h.809v.546h-.809V81h-.699zm5.683 0v-5.05h-1.886v-.677h4.539v.676h-1.895V81h-.758zm5.16-.512c-.26.222-.511.378-.753.469a2.16 2.16 0 0 1-.774.137c-.456 0-.806-.11-1.051-.332a1.11 1.11 0 0 1-.367-.856c0-.203.046-.388.137-.554.094-.17.215-.305.363-.407.151-.101.321-.178.508-.23.138-.037.346-.072.625-.106.568-.067.986-.148 1.254-.242l.004-.183c0-.287-.067-.489-.199-.606-.18-.159-.447-.238-.801-.238-.331 0-.576.058-.735.176-.156.114-.272.319-.347.613l-.688-.094c.063-.294.166-.531.309-.71.143-.183.35-.322.621-.419a2.74 2.74 0 0 1 .941-.148c.355 0 .642.041.864.125.221.083.384.189.488.316.104.125.177.284.219.477.023.12.035.336.035.648v.938c0 .653.014 1.067.043 1.242.031.172.091.337.18.496h-.735a1.492 1.492 0 0 1-.141-.512zm-.058-1.57c-.255.104-.638.193-1.149.266-.289.041-.493.088-.613.14a.605.605 0 0 0-.375.563c0 .187.071.344.211.469.143.125.352.187.625.187.271 0 .512-.059.723-.176.211-.12.366-.282.465-.488.075-.159.113-.393.113-.703v-.258zM161.188 81v-.57l2.64-3.032c-.299.016-.564.024-.793.024h-1.691v-.57h3.39v.464l-2.246 2.633-.433.48c.315-.023.61-.035.886-.035h1.918V81h-3.671zm7.078-.512a2.619 2.619 0 0 1-.754.469 2.16 2.16 0 0 1-.774.137c-.455 0-.806-.11-1.05-.332a1.108 1.108 0 0 1-.368-.856c0-.203.046-.388.137-.554.094-.17.215-.305.363-.407.151-.101.321-.178.508-.23.138-.037.346-.072.625-.106.568-.067.986-.148 1.254-.242l.004-.183c0-.287-.066-.489-.199-.606-.18-.159-.447-.238-.801-.238-.331 0-.576.058-.734.176-.157.114-.273.319-.348.613l-.688-.094c.063-.294.166-.531.309-.71.143-.183.35-.322.621-.419a2.74 2.74 0 0 1 .941-.148c.355 0 .642.041.864.125.221.083.384.189.488.316.104.125.177.284.219.477.023.12.035.336.035.648v.938c0 .653.014 1.067.043 1.242.031.172.091.337.18.496h-.735a1.47 1.47 0 0 1-.14-.512zm-.059-1.57c-.255.104-.638.193-1.148.266-.289.041-.494.088-.614.14a.61.61 0 0 0-.375.563c0 .187.071.344.211.469.143.125.352.187.625.187.271 0 .512-.059.723-.176.211-.12.366-.282.465-.488.075-.159.113-.393.113-.703v-.258zM170.012 81v-4.148h.633v.59c.304-.456.744-.684 1.32-.684.25 0 .479.045.687.136.211.09.369.206.473.352.104.146.177.32.219.52.026.13.039.358.039.683V81h-.703v-2.523c0-.287-.028-.5-.082-.641a.668.668 0 0 0-.293-.34.906.906 0 0 0-.489-.129c-.299 0-.558.095-.777.285-.216.19-.324.551-.324 1.082V81h-.703zm7.16-.512a2.619 2.619 0 0 1-.754.469c-.24.091-.497.137-.773.137-.456 0-.806-.11-1.051-.332a1.107 1.107 0 0 1-.367-.856c0-.203.045-.388.136-.554.094-.17.215-.305.364-.407.151-.101.32-.178.507-.23a5.05 5.05 0 0 1 .625-.106c.568-.067.986-.148 1.254-.242l.004-.183c0-.287-.066-.489-.199-.606-.18-.159-.447-.238-.801-.238-.331 0-.575.058-.734.176-.156.114-.272.319-.348.613l-.687-.094c.062-.294.165-.531.308-.71.143-.183.351-.322.621-.419.271-.099.585-.148.942-.148.354 0 .642.041.863.125.221.083.384.189.488.316.104.125.177.284.219.477.023.12.035.336.035.648v.938c0 .653.015 1.067.043 1.242.031.172.091.337.18.496h-.735a1.515 1.515 0 0 1-.14-.512zm-.059-1.57c-.255.104-.638.193-1.148.266-.289.041-.494.088-.613.14a.607.607 0 0 0-.375.563.6.6 0 0 0 .211.469c.143.125.351.187.624.187.271 0 .512-.059.723-.176.211-.12.366-.282.465-.488.076-.159.113-.393.113-.703v-.258zM178.918 81v-5.727h.703v2.055a1.57 1.57 0 0 1 1.242-.57c.308 0 .575.061.801.183.227.12.388.287.484.5.099.214.149.524.149.93V81h-.703v-2.629c0-.352-.077-.607-.231-.765-.151-.162-.366-.243-.644-.243a1.14 1.14 0 0 0-.59.164.91.91 0 0 0-.391.438c-.078.185-.117.44-.117.766V81h-.703zm4.637 0v-.8h.8v.8c0 .294-.052.531-.156.71a1.012 1.012 0 0 1-.496.423l-.195-.301a.665.665 0 0 0 .328-.289c.07-.125.109-.306.117-.543h-.398zm5.804-.629.102.621a2.606 2.606 0 0 1-.531.063c-.256 0-.453-.04-.594-.121a.677.677 0 0 1-.297-.317c-.057-.133-.086-.41-.086-.832v-2.387h-.515v-.546h.515v-1.028l.699-.422v1.45h.707v.546h-.707v2.426c0 .2.012.33.036.387a.306.306 0 0 0 .121.137c.057.034.138.05.242.05.078 0 .181-.009.308-.027zm.692.629v-5.727h.703v2.055a1.57 1.57 0 0 1 1.242-.57c.307 0 .574.061.801.183.226.12.388.287.484.5.099.214.149.524.149.93V81h-.703v-2.629c0-.352-.077-.607-.231-.765-.151-.162-.366-.243-.644-.243a1.14 1.14 0 0 0-.59.164.905.905 0 0 0-.391.438c-.078.185-.117.44-.117.766V81h-.703zm7.293-1.336.726.09c-.114.424-.327.754-.636.988-.31.235-.706.352-1.188.352-.607 0-1.088-.186-1.445-.559-.354-.375-.531-.9-.531-1.574 0-.698.179-1.24.539-1.625.359-.385.825-.578 1.398-.578.555 0 1.008.189 1.359.566.352.378.528.91.528 1.594l-.004.188h-3.094c.026.455.155.804.387 1.046s.521.364.867.364c.258 0 .478-.068.66-.204.182-.135.327-.351.434-.648zm-2.309-1.137h2.317c-.032-.349-.12-.61-.266-.785a1.077 1.077 0 0 0-.871-.406c-.323 0-.595.108-.817.324-.218.216-.339.505-.363.867zM198.949 81v-4.148h.633v.629c.161-.295.31-.489.445-.583a.79.79 0 0 1 .453-.14c.237 0 .478.075.723.226l-.242.653a1.008 1.008 0 0 0-.516-.153.666.666 0 0 0-.414.141.741.741 0 0 0-.261.383 2.71 2.71 0 0 0-.118.82V81h-.703zm5.512-1.336.727.09c-.115.424-.327.754-.637.988-.31.235-.706.352-1.188.352-.606 0-1.088-.186-1.445-.559-.354-.375-.531-.9-.531-1.574 0-.698.179-1.24.539-1.625.359-.385.825-.578 1.398-.578.555 0 1.008.189 1.36.566.351.378.527.91.527 1.594 0 .042-.001.104-.004.188h-3.094c.026.455.155.804.387 1.046s.521.364.867.364c.258 0 .478-.068.66-.204.183-.135.327-.351.434-.648zm-2.309-1.137h2.317c-.031-.349-.12-.61-.266-.785a1.077 1.077 0 0 0-.871-.406c-.323 0-.595.108-.816.324-.219.216-.34.505-.364.867zM211.02 81v-.61c-.323.47-.762.704-1.317.704-.245 0-.474-.047-.687-.14a1.154 1.154 0 0 1-.473-.352 1.36 1.36 0 0 1-.215-.524 3.537 3.537 0 0 1-.043-.656v-2.57h.703v2.3c0 .367.015.615.043.742.045.185.138.331.281.438a.883.883 0 0 0 .532.156c.211 0 .409-.053.594-.16a.902.902 0 0 0 .39-.441c.078-.188.117-.459.117-.813v-2.222h.703V81h-.628zm1.453-1.238.695-.11c.039.279.147.492.324.641.18.148.43.223.75.223.323 0 .563-.066.719-.196a.596.596 0 0 0 .234-.464.427.427 0 0 0-.207-.375c-.096-.063-.336-.142-.718-.239-.516-.13-.874-.242-1.075-.336a1.068 1.068 0 0 1-.453-.394 1.07 1.07 0 0 1-.152-.559c0-.185.042-.355.125-.512a1.16 1.16 0 0 1 .347-.394c.11-.08.258-.149.446-.203.19-.057.393-.086.609-.086.326 0 .611.047.856.14.247.094.429.222.547.383.117.16.197.373.242.64l-.688.095a.748.748 0 0 0-.273-.5c-.149-.12-.36-.18-.633-.18-.323 0-.553.053-.691.16-.138.107-.207.232-.207.375 0 .091.028.173.085.246a.629.629 0 0 0 .27.188c.07.026.277.086.621.18.497.132.844.242 1.039.328.198.083.353.205.465.367.112.161.168.362.168.601 0 .235-.069.456-.207.664a1.327 1.327 0 0 1-.59.48 2.175 2.175 0 0 1-.875.169c-.539 0-.95-.112-1.234-.336-.282-.224-.461-.556-.539-.996zm7.121-.098.726.09c-.114.424-.327.754-.636.988-.31.235-.706.352-1.188.352-.607 0-1.088-.186-1.445-.559-.354-.375-.531-.9-.531-1.574 0-.698.179-1.24.539-1.625.359-.385.825-.578 1.398-.578.555 0 1.008.189 1.359.566.352.378.528.91.528 1.594l-.004.188h-3.094c.026.455.155.804.387 1.046s.521.364.867.364c.258 0 .478-.068.66-.204.182-.135.327-.351.434-.648zm-2.309-1.137h2.317c-.032-.349-.12-.61-.266-.785a1.077 1.077 0 0 0-.871-.406c-.323 0-.595.108-.817.324-.218.216-.339.505-.363.867zM223.898 81v-.523c-.263.411-.649.617-1.16.617-.33 0-.635-.091-.914-.274a1.813 1.813 0 0 1-.644-.761 2.673 2.673 0 0 1-.227-1.13c0-.413.069-.788.207-1.124.138-.339.345-.598.621-.778.276-.18.585-.27.926-.27.25 0 .473.054.668.161.195.104.354.24.477.41v-2.055h.699V81h-.653zm-2.222-2.07c0 .53.112.928.336 1.191.224.263.488.395.793.395a.991.991 0 0 0 .781-.375c.216-.253.324-.637.324-1.153 0-.567-.109-.984-.328-1.25-.219-.265-.488-.398-.809-.398a.98.98 0 0 0-.785.383c-.208.255-.312.657-.312 1.207zm7.746 1.441.101.621a2.598 2.598 0 0 1-.531.063c-.255 0-.453-.04-.594-.121a.68.68 0 0 1-.296-.317c-.058-.133-.086-.41-.086-.832v-2.387h-.516v-.546h.516v-1.028l.699-.422v1.45h.707v.546h-.707v2.426c0 .2.012.33.035.387a.306.306 0 0 0 .121.137c.057.034.138.05.242.05.078 0 .181-.009.309-.027zm.43-1.445c0-.768.213-1.338.64-1.707.357-.307.792-.461 1.305-.461.57 0 1.036.187 1.398.562.362.373.543.888.543 1.547 0 .534-.08.955-.242 1.262a1.69 1.69 0 0 1-.699.71c-.305.17-.638.255-1 .255-.581 0-1.051-.186-1.41-.559-.357-.372-.535-.909-.535-1.61zm.722 0c0 .531.116.93.348 1.195.232.263.523.395.875.395.349 0 .639-.133.871-.399.232-.265.348-.67.348-1.215 0-.513-.118-.9-.352-1.164a1.105 1.105 0 0 0-.867-.398c-.352 0-.643.131-.875.394-.232.263-.348.66-.348 1.192zM237.441 81h-.652v-5.727h.703v2.043c.297-.372.676-.558 1.137-.558.255 0 .496.052.723.156.229.102.416.246.562.434.148.185.264.409.348.671.083.264.125.545.125.844 0 .711-.176 1.26-.528 1.649-.351.388-.773.582-1.265.582-.49 0-.874-.205-1.153-.613V81zm-.007-2.106c0 .498.067.857.203 1.079.221.362.521.543.898.543.307 0 .573-.133.797-.399.224-.268.336-.666.336-1.195 0-.542-.108-.941-.324-1.2-.214-.257-.473-.386-.778-.386-.307 0-.573.134-.796.402-.224.266-.336.651-.336 1.156zm6.652.77.726.09c-.114.424-.326.754-.636.988-.31.235-.706.352-1.188.352-.606 0-1.088-.186-1.445-.559-.354-.375-.531-.9-.531-1.574 0-.698.179-1.24.539-1.625.359-.385.825-.578 1.398-.578.555 0 1.008.189 1.36.566.351.378.527.91.527 1.594 0 .042-.001.104-.004.188h-3.094c.026.455.155.804.387 1.046s.521.364.867.364c.258 0 .478-.068.66-.204.183-.135.327-.351.434-.648zm-2.309-1.137h2.317c-.032-.349-.12-.61-.266-.785a1.077 1.077 0 0 0-.871-.406c-.323 0-.595.108-.816.324-.219.216-.34.505-.364.867zm8.856 1.961a2.619 2.619 0 0 1-.754.469c-.24.091-.497.137-.774.137-.455 0-.806-.11-1.05-.332a1.107 1.107 0 0 1-.367-.856c0-.203.045-.388.136-.554.094-.17.215-.305.364-.407.151-.101.32-.178.507-.23a5.05 5.05 0 0 1 .625-.106c.568-.067.986-.148 1.254-.242l.004-.183c0-.287-.066-.489-.199-.606-.18-.159-.447-.238-.801-.238-.331 0-.575.058-.734.176-.156.114-.272.319-.348.613l-.687-.094c.062-.294.165-.531.308-.71.143-.183.35-.322.621-.419.271-.099.585-.148.942-.148.354 0 .642.041.863.125.221.083.384.189.488.316.104.125.177.284.219.477.023.12.035.336.035.648v.938c0 .653.014 1.067.043 1.242.031.172.091.337.18.496h-.735a1.515 1.515 0 0 1-.14-.512zm-.059-1.57c-.255.104-.638.193-1.148.266-.289.041-.494.088-.614.14a.61.61 0 0 0-.374.563c0 .187.07.344.21.469.144.125.352.187.625.187.271 0 .512-.059.723-.176.211-.12.366-.282.465-.488.075-.159.113-.393.113-.703v-.258zM110.695 93v-3.602h-.621v-.546h.621v-.442c0-.278.025-.486.075-.62a.888.888 0 0 1 .355-.442c.172-.115.411-.172.719-.172.198 0 .416.023.656.07l-.105.613a2.359 2.359 0 0 0-.415-.039c-.213 0-.364.046-.453.137-.088.091-.132.262-.132.512v.383h.808v.546h-.808V93h-.7zm4.766-.512c-.26.222-.512.378-.754.469-.24.091-.497.137-.773.137-.456 0-.806-.11-1.051-.332a1.107 1.107 0 0 1-.367-.856c0-.203.045-.388.136-.554.094-.17.215-.305.364-.407.151-.101.32-.178.507-.23a5.05 5.05 0 0 1 .625-.106c.568-.067.986-.148 1.254-.242l.004-.183c0-.287-.066-.489-.199-.606-.18-.159-.447-.238-.801-.238-.33 0-.575.058-.734.176-.156.114-.272.319-.348.613l-.687-.094c.062-.294.165-.531.308-.71.144-.183.351-.322.621-.419.271-.099.585-.148.942-.148.354 0 .642.041.863.125.221.083.384.189.488.316.105.125.177.284.219.477a3.9 3.9 0 0 1 .035.648v.938c0 .653.015 1.067.043 1.242.032.172.091.337.18.496h-.734a1.492 1.492 0 0 1-.141-.512zm-.059-1.57c-.255.104-.638.193-1.148.266-.289.041-.494.088-.613.14a.607.607 0 0 0-.375.563.6.6 0 0 0 .211.469c.143.125.351.187.625.187.27 0 .511-.059.722-.176.211-.12.366-.282.465-.488.076-.159.113-.393.113-.703v-.258zM117.207 93v-4.148h.629v.582a1.46 1.46 0 0 1 .519-.489c.217-.125.463-.187.739-.187.307 0 .558.064.754.191.198.128.337.306.418.535.328-.484.755-.726 1.281-.726.411 0 .728.114.949.344.221.226.332.576.332 1.05V93h-.699v-2.613c0-.281-.024-.483-.07-.606a.581.581 0 0 0-.247-.3.77.77 0 0 0-.421-.114.979.979 0 0 0-.727.293c-.193.193-.289.503-.289.93V93h-.703v-2.695c0-.313-.057-.547-.172-.703-.115-.157-.302-.235-.562-.235-.198 0-.382.052-.551.156a.891.891 0 0 0-.364.458c-.075.2-.113.49-.113.867V93h-.703zm6.668-4.918v-.809h.703v.809h-.703zm0 4.918v-4.148h.703V93h-.703zm1.762 0v-5.727h.703V93h-.703zm1.765 1.598-.078-.66c.154.041.288.062.403.062a.773.773 0 0 0 .375-.078.644.644 0 0 0 .23-.219c.044-.07.116-.245.215-.523.013-.04.034-.097.062-.172l-1.574-4.156h.758l.863 2.402c.112.305.212.625.301.96.081-.322.177-.637.289-.945l.887-2.417h.703l-1.578 4.218c-.169.456-.301.77-.395.942-.125.231-.268.4-.429.507a1.01 1.01 0 0 1-.579.165c-.135 0-.286-.03-.453-.086zm5.996-3.672c0-.768.214-1.338.641-1.707.357-.307.792-.461 1.305-.461.57 0 1.036.187 1.398.562.362.373.543.888.543 1.547 0 .534-.081.955-.242 1.262a1.69 1.69 0 0 1-.699.71c-.305.17-.638.255-1 .255-.581 0-1.051-.186-1.41-.559-.357-.372-.536-.909-.536-1.61zm.723 0c0 .531.116.93.348 1.195.232.263.523.395.875.395.349 0 .639-.133.871-.399.232-.265.347-.67.347-1.215 0-.513-.117-.9-.351-1.164a1.105 1.105 0 0 0-.867-.398c-.352 0-.643.131-.875.394-.232.263-.348.66-.348 1.192zm4.16 2.074v-3.602h-.621v-.546h.621v-.442c0-.278.025-.486.074-.62a.896.896 0 0 1 .356-.442c.172-.115.411-.172.719-.172.198 0 .416.023.656.07l-.106.613a2.34 2.34 0 0 0-.414-.039c-.213 0-.364.046-.453.137-.088.091-.133.262-.133.512v.383h.809v.546h-.809V93h-.699zm5.821-.629.101.621a2.606 2.606 0 0 1-.531.063c-.255 0-.453-.04-.594-.121a.687.687 0 0 1-.297-.317c-.057-.133-.086-.41-.086-.832v-2.387h-.515v-.546h.515v-1.028l.7-.422v1.45h.707v.546h-.707v2.426c0 .2.011.33.035.387a.306.306 0 0 0 .121.137c.057.034.138.05.242.05.078 0 .181-.009.309-.027zm.691.629v-5.727h.703v2.055a1.57 1.57 0 0 1 1.242-.57c.308 0 .574.061.801.183.227.12.388.287.484.5.099.214.149.524.149.93V93h-.703v-2.629c0-.352-.077-.607-.231-.765-.151-.162-.366-.243-.644-.243a1.14 1.14 0 0 0-.59.164.91.91 0 0 0-.391.438c-.078.185-.117.44-.117.766V93h-.703zm4.445 0v-4.148h.633v.629c.162-.295.31-.489.445-.583a.79.79 0 0 1 .454-.14c.237 0 .477.075.722.226l-.242.653a1.008 1.008 0 0 0-.516-.153.666.666 0 0 0-.414.141.741.741 0 0 0-.261.383 2.71 2.71 0 0 0-.118.82V93h-.703zm5.512-1.336.727.09c-.115.424-.327.754-.637.988-.31.235-.706.352-1.188.352-.606 0-1.088-.186-1.445-.559-.354-.375-.531-.9-.531-1.574 0-.698.179-1.24.539-1.625.359-.385.825-.578 1.398-.578.555 0 1.008.189 1.36.566.351.378.527.91.527 1.594 0 .042-.001.104-.004.188h-3.094c.026.455.155.804.387 1.046s.521.364.867.364c.258 0 .478-.068.66-.204.183-.135.327-.351.434-.648zm-2.309-1.137h2.317c-.031-.349-.12-.61-.266-.785a1.077 1.077 0 0 0-.871-.406c-.323 0-.595.108-.816.324-.219.216-.34.505-.364.867zm6.762 1.137.727.09c-.115.424-.327.754-.637.988-.31.235-.706.352-1.188.352-.606 0-1.088-.186-1.445-.559-.354-.375-.531-.9-.531-1.574 0-.698.18-1.24.539-1.625.359-.385.825-.578 1.398-.578.555 0 1.008.189 1.36.566.351.378.527.91.527 1.594 0 .042-.001.104-.004.188h-3.094c.027.455.155.804.387 1.046s.521.364.867.364c.258 0 .478-.068.661-.204.182-.135.326-.351.433-.648zm-2.308-1.137h2.316c-.031-.349-.12-.61-.266-.785a1.077 1.077 0 0 0-.871-.406c-.323 0-.595.108-.816.324-.219.216-.34.505-.363.867zM161.016 93v-.8h.8v.8h-.8zm-50.629 9.211c0-.951.255-1.694.765-2.23.511-.54 1.17-.81 1.977-.81.529 0 1.005.127 1.43.38.424.252.747.605.968 1.058.224.451.336.963.336 1.536 0 .58-.117 1.1-.351 1.558a2.421 2.421 0 0 1-.996 1.043c-.43.234-.894.352-1.391.352a2.71 2.71 0 0 1-1.445-.391 2.512 2.512 0 0 1-.965-1.066 3.23 3.23 0 0 1-.328-1.43zm.781.012c0 .69.185 1.234.555 1.632.372.396.838.594 1.398.594.57 0 1.039-.2 1.406-.601.37-.401.555-.97.555-1.707 0-.467-.079-.873-.238-1.219a1.784 1.784 0 0 0-.692-.809 1.857 1.857 0 0 0-1.019-.289 1.94 1.94 0 0 0-1.387.555c-.385.367-.578.982-.578 1.844zm5.586 2.777v-4.148h.633v.589c.304-.455.745-.683 1.32-.683.25 0 .479.045.688.137.21.088.368.205.472.351.104.146.177.319.219.52.026.13.039.358.039.683V105h-.703v-2.523c0-.287-.027-.5-.082-.641a.663.663 0 0 0-.293-.34.904.904 0 0 0-.488-.129c-.3 0-.559.095-.778.285-.216.19-.324.551-.324 1.082V105h-.703zm7.293-1.336.726.09c-.114.424-.326.754-.636.988-.31.235-.706.352-1.188.352-.607 0-1.088-.186-1.445-.559-.354-.375-.531-.9-.531-1.574 0-.698.179-1.24.539-1.625.359-.385.825-.578 1.398-.578.555 0 1.008.189 1.36.566.351.378.527.909.527 1.594 0 .042-.001.104-.004.187h-3.094c.026.456.155.805.387 1.047.232.243.521.364.867.364.258 0 .478-.068.66-.204.183-.135.327-.351.434-.648zm-2.309-1.137h2.317c-.032-.349-.12-.61-.266-.785a1.076 1.076 0 0 0-.871-.406c-.323 0-.595.108-.816.324-.219.216-.34.505-.364.867zm8.989 1.137.726.09c-.114.424-.327.754-.637.988-.309.235-.705.352-1.187.352-.607 0-1.089-.186-1.445-.559-.355-.375-.532-.9-.532-1.574 0-.698.18-1.24.539-1.625.36-.385.826-.578 1.399-.578.555 0 1.008.189 1.359.566.352.378.528.909.528 1.594l-.004.187h-3.094c.026.456.155.805.387 1.047.231.243.52.364.867.364.258 0 .478-.068.66-.204.182-.135.327-.351.434-.648zm-2.309-1.137h2.316c-.031-.349-.119-.61-.265-.785a1.078 1.078 0 0 0-.871-.406c-.323 0-.595.108-.817.324-.219.216-.34.505-.363.867zm6.629 1.961a2.603 2.603 0 0 1-.754.469 2.16 2.16 0 0 1-.773.137c-.456 0-.806-.111-1.051-.332a1.108 1.108 0 0 1-.367-.856c0-.203.045-.388.136-.554.094-.17.215-.305.364-.407.151-.101.32-.178.507-.23.138-.037.347-.072.625-.106.568-.067.986-.148 1.254-.242l.004-.183c0-.287-.066-.489-.199-.606-.18-.159-.447-.238-.801-.238-.331 0-.575.058-.734.176-.156.114-.272.319-.348.613l-.687-.094c.062-.294.165-.531.308-.711.143-.182.351-.321.621-.418a2.74 2.74 0 0 1 .942-.148c.354 0 .642.041.863.125.221.083.384.189.488.316.104.125.177.284.219.477a3.9 3.9 0 0 1 .035.648v.938c0 .653.015 1.067.043 1.242.031.172.091.337.18.496h-.734a1.491 1.491 0 0 1-.141-.512zm-.059-1.57c-.255.104-.638.193-1.148.266-.289.041-.494.088-.613.14a.605.605 0 0 0-.375.563c0 .187.07.343.21.468.144.125.352.188.626.188.27 0 .511-.059.722-.176.211-.12.366-.282.465-.488.076-.159.113-.393.113-.703v-.258zm1.797 2.082v-4.148h.633v.628c.161-.294.31-.488.445-.582a.794.794 0 0 1 .453-.14c.237 0 .478.075.723.226l-.242.653a1.004 1.004 0 0 0-.516-.153.665.665 0 0 0-.414.141.749.749 0 0 0-.262.383 2.74 2.74 0 0 0-.117.82V105h-.703zm2.656 0v-5.727h.704V105h-.704zm1.766 1.598-.078-.66c.154.041.288.062.402.062a.772.772 0 0 0 .375-.078.637.637 0 0 0 .231-.219c.044-.07.116-.245.215-.523.013-.039.033-.097.062-.172l-1.574-4.156h.758l.863 2.402c.112.305.212.625.301.961.08-.323.177-.638.289-.945l.887-2.418h.703l-1.579 4.218c-.169.456-.3.77-.394.942-.125.231-.268.401-.43.508a1.007 1.007 0 0 1-.578.164 1.42 1.42 0 0 1-.453-.086zm6.258-1.598v-4.148h.629v.582a1.46 1.46 0 0 1 1.258-.676c.307 0 .558.064.753.191.198.128.338.306.418.535.329-.484.756-.726 1.282-.726.411 0 .728.114.949.344.221.226.332.576.332 1.05V105h-.699v-2.613c0-.282-.024-.483-.071-.606a.577.577 0 0 0-.246-.301.776.776 0 0 0-.422-.113.98.98 0 0 0-.726.293c-.193.193-.289.503-.289.93V105h-.703v-2.695c0-.313-.058-.547-.172-.703-.115-.157-.302-.235-.563-.235a1.03 1.03 0 0 0-.55.156.897.897 0 0 0-.364.457c-.075.201-.113.49-.113.868V105h-.703zm6.402-2.074c0-.768.214-1.337.641-1.707.357-.308.791-.461 1.304-.461.571 0 1.037.187 1.399.562.362.373.543.888.543 1.547 0 .534-.081.955-.242 1.262a1.684 1.684 0 0 1-.7.711 2.026 2.026 0 0 1-1 .254c-.58 0-1.05-.186-1.41-.559-.356-.372-.535-.909-.535-1.609zm.723 0c0 .531.116.929.348 1.195.231.263.523.395.874.395.349 0 .64-.133.872-.399.231-.265.347-.67.347-1.215 0-.513-.117-.901-.351-1.164a1.107 1.107 0 0 0-.868-.398c-.351 0-.643.131-.874.394-.232.263-.348.661-.348 1.192zm3.984 2.074v-4.148h.633v.628c.161-.294.31-.488.445-.582a.794.794 0 0 1 .453-.14c.237 0 .478.075.723.226l-.242.653a1.004 1.004 0 0 0-.516-.153.665.665 0 0 0-.414.141.741.741 0 0 0-.261.383c-.079.25-.118.523-.118.82V105h-.703zm2.672 0v-4.148h.633v.589c.305-.455.745-.683 1.32-.683.25 0 .479.045.688.137.211.088.368.205.472.351.105.146.177.319.219.52.026.13.039.358.039.683V105h-.703v-2.523c0-.287-.027-.5-.082-.641a.663.663 0 0 0-.293-.34.904.904 0 0 0-.488-.129c-.3 0-.559.095-.778.285-.216.19-.324.551-.324 1.082V105h-.703zm4.457-4.918v-.809h.703v.809h-.703zm0 4.918v-4.148h.703V105h-.703zm1.777 0v-4.148h.633v.589c.305-.455.745-.683 1.321-.683.25 0 .479.045.687.137.211.088.369.205.473.351.104.146.177.319.218.52.027.13.04.358.04.683V105h-.704v-2.523c0-.287-.027-.5-.082-.641a.659.659 0 0 0-.293-.34.902.902 0 0 0-.488-.129c-.299 0-.558.095-.777.285-.216.19-.324.551-.324 1.082V105h-.704zm4.325.344.683.101c.029.211.108.365.239.461.174.13.412.196.714.196.326 0 .577-.066.754-.196a.962.962 0 0 0 .36-.547c.036-.143.053-.444.05-.902-.307.362-.69.543-1.148.543-.57 0-1.012-.206-1.324-.617-.313-.412-.469-.905-.469-1.481 0-.395.072-.76.215-1.093.143-.336.35-.595.621-.778.273-.182.594-.273.961-.273.49 0 .893.198 1.211.594v-.5h.648v3.586c0 .645-.066 1.102-.199 1.371-.13.27-.338.484-.625.64-.284.156-.634.235-1.051.235-.494 0-.894-.112-1.199-.336-.305-.222-.452-.556-.441-1.004zm.582-2.492c0 .544.108.941.324 1.191.216.25.487.375.812.375.323 0 .594-.124.813-.371.219-.25.328-.641.328-1.172 0-.508-.113-.891-.34-1.148-.224-.258-.495-.387-.812-.387-.313 0-.578.127-.797.383-.219.252-.328.629-.328 1.129zm6.992 2.148-1.27-4.148h.727l.66 2.394.246.891.215-.856.66-2.429h.723l.621 2.406.207.793.238-.801.711-2.398h.684L182.504 105h-.731l-.66-2.484-.16-.707-.84 3.191h-.734zm5.016 0v-5.727h.703v2.055a1.57 1.57 0 0 1 1.242-.57c.307 0 .574.061.801.183.226.12.388.287.484.5.099.214.148.524.148.93V105h-.703v-2.629c0-.351-.077-.607-.23-.766-.151-.161-.366-.242-.645-.242-.208 0-.405.055-.59.164a.91.91 0 0 0-.39.438c-.078.185-.117.44-.117.765V105h-.703zm7.293-1.336.726.09c-.115.424-.327.754-.637.988-.31.235-.705.352-1.187.352-.607 0-1.089-.186-1.445-.559-.355-.375-.532-.9-.532-1.574 0-.698.18-1.24.539-1.625.36-.385.826-.578 1.399-.578.554 0 1.008.189 1.359.566.352.378.528.909.528 1.594l-.004.187h-3.094c.026.456.155.805.387 1.047.231.243.52.364.867.364.258 0 .478-.068.66-.204.182-.135.327-.351.434-.648zm-2.309-1.137h2.316c-.031-.349-.119-.61-.265-.785a1.078 1.078 0 0 0-.871-.406c-.323 0-.595.108-.817.324-.219.216-.34.505-.363.867zm3.922 2.473v-4.148h.633v.589c.304-.455.744-.683 1.32-.683.25 0 .479.045.687.137.211.088.369.205.473.351.104.146.177.319.219.52.026.13.039.358.039.683V105h-.703v-2.523c0-.287-.028-.5-.082-.641a.668.668 0 0 0-.293-.34.906.906 0 0 0-.489-.129c-.299 0-.558.095-.777.285-.216.19-.324.551-.324 1.082V105h-.703zm8.215-.629.101.621a2.589 2.589 0 0 1-.531.063c-.255 0-.453-.041-.594-.121a.69.69 0 0 1-.297-.317c-.057-.133-.086-.41-.086-.832v-2.387h-.515v-.546h.515v-1.028l.7-.422v1.45h.707v.546h-.707v2.426c0 .201.011.33.035.387a.308.308 0 0 0 .121.137c.057.034.138.05.242.05.078 0 .181-.009.309-.027zm.691.629v-5.727h.703v2.055a1.57 1.57 0 0 1 1.242-.57c.308 0 .575.061.801.183.227.12.388.287.485.5.098.214.148.524.148.93V105h-.703v-2.629c0-.351-.077-.607-.231-.766-.151-.161-.366-.242-.644-.242-.209 0-.405.055-.59.164a.911.911 0 0 0-.391.438c-.078.185-.117.44-.117.765V105h-.703zm7.293-1.336.727.09c-.115.424-.327.754-.637.988-.31.235-.706.352-1.188.352-.606 0-1.088-.186-1.445-.559-.354-.375-.531-.9-.531-1.574 0-.698.179-1.24.539-1.625.359-.385.825-.578 1.398-.578.555 0 1.008.189 1.36.566.351.378.527.909.527 1.594 0 .042-.001.104-.004.187h-3.094c.026.456.155.805.387 1.047.232.243.521.364.867.364.258 0 .478-.068.66-.204.183-.135.327-.351.434-.648zm-2.309-1.137h2.317c-.031-.349-.12-.61-.266-.785a1.076 1.076 0 0 0-.871-.406c-.323 0-.595.108-.816.324-.219.216-.34.505-.364.867zm6.797 2.473h-.652v-5.727h.703v2.043c.297-.372.676-.558 1.137-.558.255 0 .496.052.722.156.23.102.417.246.563.434.148.185.264.409.348.672.083.263.125.544.125.843 0 .711-.176 1.261-.528 1.649-.351.388-.773.582-1.265.582-.49 0-.874-.205-1.153-.614v.52zm-.008-2.105c0 .497.068.856.204 1.078.221.362.52.543.898.543.307 0 .573-.133.797-.399.224-.268.336-.666.336-1.195 0-.542-.108-.942-.324-1.199-.214-.258-.473-.387-.778-.387-.307 0-.573.134-.797.402-.224.266-.336.651-.336 1.157zm3.817-2.813v-.809h.703v.809h-.703zm0 4.918v-4.148h.703V105h-.703zm1.769 0v-4.148h.633v.628c.162-.294.31-.488.446-.582a.794.794 0 0 1 .453-.14c.237 0 .478.075.722.226l-.242.653a1.004 1.004 0 0 0-.516-.153.665.665 0 0 0-.414.141.741.741 0 0 0-.261.383 2.74 2.74 0 0 0-.117.82V105h-.704zm5.364 0v-.523c-.263.411-.65.617-1.16.617-.331 0-.636-.091-.915-.274a1.82 1.82 0 0 1-.644-.761 2.678 2.678 0 0 1-.227-1.129c0-.414.069-.789.207-1.125.138-.339.345-.598.621-.778.277-.179.585-.269.926-.269.25 0 .473.053.668.16.196.104.354.241.477.41v-2.055h.699V105h-.652zm-2.223-2.07c0 .531.112.928.336 1.191.224.263.488.395.793.395a.99.99 0 0 0 .781-.375c.216-.253.324-.637.324-1.153 0-.567-.109-.984-.328-1.25-.218-.265-.488-.398-.808-.398a.975.975 0 0 0-.785.383c-.209.255-.313.657-.313 1.207zm3.703.832.695-.11c.04.279.148.493.325.641.179.148.429.223.75.223.323 0 .562-.065.718-.196a.592.592 0 0 0 .235-.465.429.429 0 0 0-.207-.375c-.097-.062-.336-.141-.719-.238-.516-.13-.874-.242-1.074-.336a1.07 1.07 0 0 1-.453-.394 1.066 1.066 0 0 1-.153-.559c0-.185.042-.355.125-.512.086-.158.202-.29.348-.394a1.4 1.4 0 0 1 .445-.203c.19-.058.394-.086.61-.086.325 0 .61.047.855.14.248.094.43.222.547.383.117.159.198.373.242.641l-.687.094a.75.75 0 0 0-.274-.5c-.148-.12-.359-.18-.633-.18-.322 0-.553.053-.691.16-.138.107-.207.232-.207.375a.39.39 0 0 0 .086.246.62.62 0 0 0 .269.188c.071.026.278.086.622.179.497.133.843.243 1.039.328.198.084.353.206.465.368.111.161.167.362.167.601 0 .235-.069.456-.207.664a1.332 1.332 0 0 1-.589.481c-.258.112-.55.168-.875.168-.539 0-.951-.112-1.235-.336-.281-.224-.461-.556-.539-.996zm7.274 1.238-1.27-4.148h.727l.66 2.394.246.891c.01-.045.082-.33.215-.856l.66-2.429h.723l.621 2.406.207.793.238-.801.711-2.398h.683L236.809 105h-.731l-.66-2.484-.16-.707-.84 3.191h-.734zm7.855-1.336.727.09c-.115.424-.327.754-.637.988-.31.235-.706.352-1.188.352-.606 0-1.088-.186-1.445-.559-.354-.375-.531-.9-.531-1.574 0-.698.18-1.24.539-1.625.359-.385.825-.578 1.398-.578.555 0 1.008.189 1.36.566.351.378.527.909.527 1.594 0 .042-.001.104-.004.187h-3.094c.026.456.155.805.387 1.047.232.243.521.364.867.364.258 0 .478-.068.66-.204.183-.135.327-.351.434-.648zm-2.309-1.137h2.317c-.031-.349-.12-.61-.266-.785a1.076 1.076 0 0 0-.871-.406c-.323 0-.595.108-.816.324-.219.216-.34.505-.364.867zm3.915 2.473v-4.148h.632v.628c.162-.294.31-.488.446-.582a.794.794 0 0 1 .453-.14c.237 0 .478.075.722.226l-.242.653a1.003 1.003 0 0 0-.515-.153.66.66 0 0 0-.414.141.737.737 0 0 0-.262.383 2.74 2.74 0 0 0-.117.82V105h-.703zm5.511-1.336.727.09c-.115.424-.327.754-.637.988-.31.235-.706.352-1.187.352-.607 0-1.089-.186-1.446-.559-.354-.375-.531-.9-.531-1.574 0-.698.18-1.24.539-1.625.359-.385.826-.578 1.399-.578.554 0 1.007.189 1.359.566.351.378.527.909.527 1.594 0 .042-.001.104-.004.187h-3.093c.026.456.155.805.386 1.047.232.243.521.364.867.364.258 0 .478-.068.661-.204.182-.135.326-.351.433-.648zm-2.308-1.137h2.316c-.031-.349-.12-.61-.266-.785a1.076 1.076 0 0 0-.871-.406c-.323 0-.595.108-.816.324-.219.216-.34.505-.363.867zM113.234 115.48l.692.09c-.076.477-.27.851-.582 1.121-.31.269-.692.403-1.145.403-.567 0-1.025-.185-1.371-.555-.344-.372-.516-.905-.516-1.598 0-.448.075-.839.223-1.175.149-.336.374-.588.676-.754.305-.17.635-.254.992-.254.451 0 .819.114 1.106.344.286.226.47.549.55.968l-.683.106c-.065-.279-.181-.488-.348-.629a.885.885 0 0 0-.598-.211 1.09 1.09 0 0 0-.863.383c-.221.252-.332.653-.332 1.203 0 .557.107.962.32 1.215.214.252.493.379.836.379a.988.988 0 0 0 .692-.254c.185-.17.302-.43.351-.782zm1.293 1.52v-5.727h.703v2.055c.329-.38.743-.57 1.243-.57.307 0 .574.061.8.183.227.12.388.287.485.5.099.214.148.524.148.93V117h-.703v-2.629c0-.351-.077-.607-.23-.766-.151-.161-.366-.242-.645-.242-.208 0-.405.055-.59.164a.91.91 0 0 0-.39.438c-.078.185-.118.44-.118.765V117h-.703zm4.457-4.918v-.809h.704v.809h-.704zm0 4.918v-4.148h.704V117h-.704zm1.77 0v-4.148h.633v.628c.161-.294.31-.488.445-.582a.794.794 0 0 1 .453-.14c.237 0 .478.075.723.226l-.242.653a1.004 1.004 0 0 0-.516-.153.66.66 0 0 0-.414.141.743.743 0 0 0-.262.383 2.74 2.74 0 0 0-.117.82V117h-.703zm2.672 1.59v-5.738h.64v.539c.151-.211.322-.369.512-.473.19-.107.421-.16.692-.16.354 0 .666.091.937.273.271.183.475.44.613.774a2.8 2.8 0 0 1 .207 1.09c0 .424-.076.807-.23 1.148a1.72 1.72 0 0 1-.664.781c-.289.18-.594.27-.914.27-.235 0-.446-.05-.633-.149a1.445 1.445 0 0 1-.457-.375v2.02h-.703zm.636-3.641c0 .534.109.929.325 1.184.216.255.478.383.785.383.312 0 .579-.132.801-.395.224-.266.336-.676.336-1.23 0-.529-.11-.925-.329-1.188-.216-.263-.475-.394-.777-.394-.299 0-.565.14-.797.421-.229.279-.344.685-.344 1.219zm3.821-2.867v-.809h.703v.809h-.703zm0 4.918v-4.148h.703V117h-.703zm1.777 0v-4.148h.633v.589c.305-.455.745-.683 1.32-.683.25 0 .479.045.688.137.211.088.368.205.472.351.105.146.178.319.219.52.026.13.039.358.039.683V117h-.703v-2.523c0-.287-.027-.5-.082-.641a.663.663 0 0 0-.293-.34.904.904 0 0 0-.488-.129c-.3 0-.559.095-.777.285-.217.19-.325.551-.325 1.082V117h-.703zm4.324.344.684.101c.029.211.108.365.238.461.175.13.413.196.715.196.326 0 .577-.066.754-.196a.956.956 0 0 0 .359-.547c.037-.143.054-.444.051-.902-.307.362-.69.543-1.148.543-.571 0-1.012-.206-1.325-.617-.312-.412-.468-.905-.468-1.481 0-.395.071-.76.215-1.093.143-.336.35-.595.621-.778.273-.182.593-.273.961-.273.489 0 .893.198 1.211.594v-.5h.648v3.586c0 .645-.066 1.102-.199 1.371a1.43 1.43 0 0 1-.625.64c-.284.156-.634.235-1.051.235-.495 0-.895-.112-1.199-.336-.305-.222-.452-.556-.442-1.004zm.582-2.492c0 .544.108.941.325 1.191.216.25.487.375.812.375.323 0 .594-.124.813-.371.218-.25.328-.641.328-1.172 0-.508-.114-.891-.34-1.148-.224-.258-.495-.387-.813-.387-.312 0-.578.127-.796.383-.219.252-.329.629-.329 1.129zm8.934 1.636a2.59 2.59 0 0 1-.754.469 2.156 2.156 0 0 1-.773.137c-.456 0-.806-.111-1.051-.332a1.108 1.108 0 0 1-.367-.856c0-.203.045-.388.136-.554.094-.17.215-.305.364-.407.151-.101.32-.178.507-.23.139-.037.347-.072.626-.106.567-.067.985-.148 1.253-.242l.004-.183c0-.287-.066-.489-.199-.606-.18-.159-.447-.238-.801-.238-.33 0-.575.058-.734.176-.156.114-.272.319-.348.613l-.687-.094c.062-.294.165-.531.308-.711.144-.182.351-.321.621-.418a2.74 2.74 0 0 1 .942-.148c.354 0 .642.041.863.125.222.083.384.189.488.316.105.125.178.284.219.477a3.9 3.9 0 0 1 .035.648v.938c0 .653.015 1.067.043 1.242.032.172.091.337.18.496h-.734a1.491 1.491 0 0 1-.141-.512zm-.059-1.57c-.255.104-.638.193-1.148.266-.289.041-.494.088-.613.14a.605.605 0 0 0-.375.563.6.6 0 0 0 .211.468c.143.125.351.188.625.188.27 0 .511-.059.722-.176.211-.12.366-.282.465-.488.076-.159.113-.393.113-.703v-.258zm1.805 2.082v-4.148h.633v.589c.305-.455.745-.683 1.32-.683.25 0 .479.045.688.137.211.088.368.205.472.351.105.146.177.319.219.52.026.13.039.358.039.683V117h-.703v-2.523c0-.287-.027-.5-.082-.641a.663.663 0 0 0-.293-.34.904.904 0 0 0-.488-.129c-.3 0-.559.095-.778.285-.216.19-.324.551-.324 1.082V117h-.703zm7.145 0v-.523c-.263.411-.65.617-1.161.617-.33 0-.635-.091-.914-.274a1.82 1.82 0 0 1-.644-.761 2.678 2.678 0 0 1-.227-1.129c0-.414.069-.789.207-1.125.138-.339.345-.598.621-.778.276-.179.585-.269.926-.269a1.388 1.388 0 0 1 1.145.57v-2.055h.699V117h-.652zm-2.223-2.07c0 .531.112.928.336 1.191.224.263.488.395.793.395a.99.99 0 0 0 .781-.375c.216-.253.324-.637.324-1.153 0-.567-.109-.984-.328-1.25-.219-.265-.488-.398-.808-.398a.979.979 0 0 0-.786.383c-.208.255-.312.657-.312 1.207zm5.93.832.695-.11c.039.279.147.493.324.641.18.148.43.223.75.223.323 0 .563-.065.719-.196a.594.594 0 0 0 .234-.465.429.429 0 0 0-.207-.375c-.096-.062-.336-.141-.718-.238-.516-.13-.874-.242-1.075-.336a1.07 1.07 0 0 1-.453-.394 1.074 1.074 0 0 1-.152-.559c0-.185.042-.355.125-.512.086-.158.202-.29.348-.394a1.39 1.39 0 0 1 .445-.203c.19-.058.393-.086.609-.086.326 0 .611.047.856.14.247.094.429.222.547.383.117.159.197.373.242.641l-.688.094a.745.745 0 0 0-.273-.5c-.149-.12-.36-.18-.633-.18-.323 0-.553.053-.691.16-.138.107-.207.232-.207.375a.39.39 0 0 0 .085.246.63.63 0 0 0 .27.188c.07.026.277.086.621.179.497.133.844.243 1.039.328.198.084.353.206.465.368.112.161.168.362.168.601 0 .235-.069.456-.207.664a1.329 1.329 0 0 1-.59.481 2.175 2.175 0 0 1-.875.168c-.539 0-.95-.112-1.234-.336-.282-.224-.461-.556-.539-.996zm4.285-3.68v-.809h.703v.809h-.703zm0 4.918v-4.148h.703V117h-.703zm1.777 0v-4.148h.633v.589c.305-.455.745-.683 1.32-.683.25 0 .479.045.688.137.211.088.368.205.472.351.105.146.178.319.219.52.026.13.039.358.039.683V117h-.703v-2.523c0-.287-.027-.5-.082-.641a.663.663 0 0 0-.293-.34.904.904 0 0 0-.488-.129c-.3 0-.559.095-.777.285-.217.19-.325.551-.325 1.082V117h-.703zm4.324.344.684.101c.029.211.108.365.238.461.175.13.413.196.715.196.326 0 .577-.066.754-.196a.956.956 0 0 0 .359-.547c.037-.143.054-.444.051-.902-.307.362-.69.543-1.148.543-.571 0-1.012-.206-1.325-.617-.312-.412-.468-.905-.468-1.481 0-.395.071-.76.215-1.093.143-.336.35-.595.621-.778.273-.182.593-.273.961-.273.489 0 .893.198 1.211.594v-.5H170v3.586c0 .645-.066 1.102-.199 1.371a1.43 1.43 0 0 1-.625.64c-.284.156-.634.235-1.051.235-.495 0-.895-.112-1.199-.336-.305-.222-.452-.556-.442-1.004zm.582-2.492c0 .544.108.941.325 1.191.216.25.487.375.812.375.323 0 .594-.124.813-.371.218-.25.328-.641.328-1.172 0-.508-.114-.891-.34-1.148-.224-.258-.495-.387-.813-.387-.312 0-.578.127-.796.383-.219.252-.329.629-.329 1.129zm4.004-2.77v-.809h.703v.809h-.703zm0 4.918v-4.148h.703V117h-.703zm1.778 0v-4.148h.632v.589c.305-.455.745-.683 1.321-.683.25 0 .479.045.687.137.211.088.369.205.473.351.104.146.177.319.219.52.026.13.039.358.039.683V117h-.703v-2.523c0-.287-.028-.5-.082-.641a.668.668 0 0 0-.293-.34.906.906 0 0 0-.489-.129c-.299 0-.558.095-.777.285-.216.19-.324.551-.324 1.082V117h-.703zm4.324.344.683.101c.029.211.109.365.239.461.174.13.413.196.715.196.325 0 .576-.066.753-.196a.958.958 0 0 0 .36-.547c.036-.143.053-.444.051-.902-.308.362-.69.543-1.149.543-.57 0-1.012-.206-1.324-.617-.312-.412-.469-.905-.469-1.481 0-.395.072-.76.215-1.093.143-.336.35-.595.621-.778.274-.182.594-.273.961-.273.49 0 .893.198 1.211.594v-.5h.649v3.586c0 .645-.067 1.102-.2 1.371-.13.27-.338.484-.625.64-.284.156-.634.235-1.051.235-.494 0-.894-.112-1.199-.336-.304-.222-.452-.556-.441-1.004zm.582-2.492c0 .544.108.941.324 1.191.216.25.487.375.813.375.323 0 .593-.124.812-.371.219-.25.328-.641.328-1.172 0-.508-.113-.891-.34-1.148-.224-.258-.494-.387-.812-.387-.313 0-.578.127-.797.383-.219.252-.328.629-.328 1.129zm5.945.91.696-.11c.039.279.147.493.324.641.179.148.429.223.75.223.323 0 .562-.065.719-.196a.594.594 0 0 0 .234-.465.429.429 0 0 0-.207-.375c-.097-.062-.336-.141-.719-.238-.516-.13-.874-.242-1.074-.336a1.07 1.07 0 0 1-.453-.394 1.066 1.066 0 0 1-.153-.559c0-.185.042-.355.125-.512.086-.158.202-.29.348-.394a1.4 1.4 0 0 1 .445-.203c.19-.058.394-.086.61-.086.325 0 .61.047.855.14.248.094.43.222.547.383.117.159.198.373.242.641l-.687.094a.746.746 0 0 0-.274-.5c-.148-.12-.359-.18-.632-.18-.323 0-.554.053-.692.16-.138.107-.207.232-.207.375a.39.39 0 0 0 .086.246.617.617 0 0 0 .27.188c.07.026.277.086.621.179.497.133.843.243 1.039.328.198.084.353.206.465.368.112.161.168.362.168.601 0 .235-.069.456-.207.664a1.34 1.34 0 0 1-.59.481c-.258.112-.55.168-.875.168-.539 0-.951-.112-1.235-.336-.281-.224-.461-.556-.539-.996zm5.047 1.238-1.269-4.148h.726l.66 2.394.246.891.215-.856.66-2.429h.723l.621 2.406.207.793.238-.801.711-2.398h.684L191.871 117h-.73l-.661-2.484-.16-.707-.84 3.191h-.734zm7.856-1.336.726.09c-.114.424-.327.754-.637.988-.309.235-.705.352-1.187.352-.607 0-1.089-.186-1.445-.559-.355-.375-.532-.9-.532-1.574 0-.698.18-1.24.539-1.625.36-.385.826-.578 1.399-.578.555 0 1.008.189 1.359.566.352.378.528.909.528 1.594l-.004.187h-3.094c.026.456.155.805.387 1.047.231.243.52.364.867.364.258 0 .478-.068.66-.204.182-.135.327-.351.434-.648zm-2.309-1.137h2.316c-.031-.349-.119-.61-.265-.785a1.078 1.078 0 0 0-.871-.406c-.323 0-.595.108-.817.324-.218.216-.34.505-.363.867zm6.762 1.137.726.09c-.114.424-.327.754-.636.988-.31.235-.706.352-1.188.352-.607 0-1.089-.186-1.445-.559-.354-.375-.532-.9-.532-1.574 0-.698.18-1.24.54-1.625.359-.385.825-.578 1.398-.578.555 0 1.008.189 1.359.566.352.378.528.909.528 1.594l-.004.187h-3.094c.026.456.155.805.387 1.047.232.243.521.364.867.364.258 0 .478-.068.66-.204.182-.135.327-.351.434-.648zm-2.309-1.137h2.316c-.031-.349-.119-.61-.265-.785a1.076 1.076 0 0 0-.871-.406c-.323 0-.595.108-.817.324-.218.216-.339.505-.363.867zm5.457 1.844.102.621a2.59 2.59 0 0 1-.532.063c-.255 0-.453-.041-.593-.121a.68.68 0 0 1-.297-.317c-.057-.133-.086-.41-.086-.832v-2.387h-.516v-.546h.516v-1.028l.699-.422v1.45h.707v.546h-.707v2.426c0 .201.012.33.035.387a.314.314 0 0 0 .121.137c.058.034.138.05.243.05.078 0 .181-.009.308-.027zm.676.629v-5.727h.703V117h-.703zm1.766 1.598-.079-.66c.154.041.288.062.403.062a.774.774 0 0 0 .375-.078.634.634 0 0 0 .23-.219c.044-.07.116-.245.215-.523.013-.039.034-.097.063-.172l-1.575-4.156h.758l.863 2.402c.112.305.213.625.301.961a9.49 9.49 0 0 1 .289-.945l.887-2.418h.703l-1.578 4.218c-.169.456-.301.77-.395.942-.125.231-.268.401-.429.508a1.01 1.01 0 0 1-.578.164 1.41 1.41 0 0 1-.453-.086zm7.793-2.227.101.621a2.589 2.589 0 0 1-.531.063c-.255 0-.453-.041-.594-.121a.68.68 0 0 1-.297-.317c-.057-.133-.086-.41-.086-.832v-2.387h-.515v-.546h.515v-1.028l.699-.422v1.45h.708v.546h-.708v2.426c0 .201.012.33.036.387a.308.308 0 0 0 .121.137c.057.034.138.05.242.05.078 0 .181-.009.309-.027zm.691.629v-5.727h.703v2.055a1.57 1.57 0 0 1 1.242-.57c.308 0 .574.061.801.183.227.12.388.287.484.5.099.214.149.524.149.93V117h-.703v-2.629c0-.351-.077-.607-.231-.766-.151-.161-.366-.242-.644-.242-.209 0-.405.055-.59.164a.911.911 0 0 0-.391.438c-.078.185-.117.44-.117.765V117h-.703zm7.293-1.336.726.09c-.114.424-.326.754-.636.988-.31.235-.706.352-1.188.352-.607 0-1.088-.186-1.445-.559-.354-.375-.531-.9-.531-1.574 0-.698.179-1.24.539-1.625.359-.385.825-.578 1.398-.578.555 0 1.008.189 1.36.566.351.378.527.909.527 1.594 0 .042-.001.104-.004.187h-3.094c.026.456.155.805.387 1.047.232.243.521.364.867.364.258 0 .478-.068.66-.204.183-.135.327-.351.434-.648zm-2.309-1.137h2.317c-.032-.349-.12-.61-.266-.785a1.076 1.076 0 0 0-.871-.406c-.323 0-.595.108-.816.324-.219.216-.34.505-.364.867zM226.43 117v-3.602h-.621v-.546h.621v-.442c0-.278.024-.486.074-.621a.894.894 0 0 1 .355-.441c.172-.115.412-.172.719-.172.198 0 .417.023.656.07l-.105.613a2.366 2.366 0 0 0-.414-.039c-.214 0-.365.046-.453.137-.089.091-.133.262-.133.512v.383h.809v.546h-.809V117h-.699zm4.765-.512c-.26.222-.511.378-.754.469a2.156 2.156 0 0 1-.773.137c-.456 0-.806-.111-1.051-.332a1.108 1.108 0 0 1-.367-.856 1.164 1.164 0 0 1 .5-.961c.151-.101.32-.178.508-.23.138-.037.346-.072.625-.106.568-.067.985-.148 1.254-.242l.004-.183c0-.287-.067-.489-.2-.606-.179-.159-.446-.238-.8-.238-.331 0-.576.058-.735.176-.156.114-.272.319-.347.613l-.688-.094c.063-.294.165-.531.309-.711.143-.182.35-.321.621-.418.271-.099.584-.148.941-.148.354 0 .642.041.863.125.222.083.385.189.489.316.104.125.177.284.218.477.024.12.036.336.036.648v.938c0 .653.014 1.067.043 1.242.031.172.091.337.179.496h-.734a1.491 1.491 0 0 1-.141-.512zm-.058-1.57c-.255.104-.638.193-1.149.266-.289.041-.493.088-.613.14a.603.603 0 0 0-.375.563.6.6 0 0 0 .211.468c.143.125.351.188.625.188.271 0 .512-.059.723-.176.211-.12.365-.282.464-.488.076-.159.114-.393.114-.703v-.258zm3.34 1.453.101.621a2.589 2.589 0 0 1-.531.063c-.255 0-.453-.041-.594-.121a.685.685 0 0 1-.297-.317c-.057-.133-.086-.41-.086-.832v-2.387h-.515v-.546h.515v-1.028l.7-.422v1.45h.707v.546h-.707v2.426c0 .201.011.33.035.387a.308.308 0 0 0 .121.137c.057.034.138.05.242.05.078 0 .181-.009.309-.027zm.691.629v-5.727h.703v2.055a1.57 1.57 0 0 1 1.242-.57c.308 0 .575.061.801.183.227.12.388.287.484.5.099.214.149.524.149.93V117h-.703v-2.629c0-.351-.077-.607-.231-.766-.151-.161-.366-.242-.644-.242-.209 0-.405.055-.59.164a.911.911 0 0 0-.391.438c-.078.185-.117.44-.117.765V117h-.703zm7.293-1.336.727.09c-.115.424-.327.754-.637.988-.31.235-.706.352-1.188.352-.606 0-1.088-.186-1.445-.559-.354-.375-.531-.9-.531-1.574 0-.698.179-1.24.539-1.625.359-.385.825-.578 1.398-.578.555 0 1.008.189 1.36.566.351.378.527.909.527 1.594 0 .042-.001.104-.004.187h-3.094c.026.456.155.805.387 1.047.232.243.521.364.867.364.258 0 .478-.068.66-.204.183-.135.327-.351.434-.648zm-2.309-1.137h2.317c-.031-.349-.12-.61-.266-.785a1.076 1.076 0 0 0-.871-.406c-.323 0-.595.108-.816.324-.219.216-.34.505-.364.867zm3.914 2.473v-4.148h.633v.628c.162-.294.31-.488.446-.582a.794.794 0 0 1 .453-.14c.237 0 .478.075.722.226l-.242.653a1.004 1.004 0 0 0-.516-.153.665.665 0 0 0-.414.141.741.741 0 0 0-.261.383 2.74 2.74 0 0 0-.117.82V117h-.704zm4.637-2.074c0-.768.214-1.337.641-1.707.357-.308.791-.461 1.304-.461.571 0 1.037.187 1.399.562.362.373.543.888.543 1.547 0 .534-.081.955-.242 1.262a1.684 1.684 0 0 1-.7.711 2.026 2.026 0 0 1-1 .254c-.58 0-1.05-.186-1.41-.559-.356-.372-.535-.909-.535-1.609zm.723 0c0 .531.116.929.347 1.195.232.263.524.395.875.395.349 0 .64-.133.872-.399.231-.265.347-.67.347-1.215 0-.513-.117-.901-.351-1.164a1.107 1.107 0 0 0-.868-.398c-.351 0-.643.131-.875.394-.231.263-.347.661-.347 1.192zm4.16 2.074v-3.602h-.621v-.546h.621v-.442c0-.278.025-.486.074-.621a.891.891 0 0 1 .356-.441c.172-.115.411-.172.718-.172.198 0 .417.023.657.07l-.106.613a2.366 2.366 0 0 0-.414-.039c-.213 0-.364.046-.453.137-.089.091-.133.262-.133.512v.383h.809v.546h-.809V117h-.699zm5.82-.629.102.621a2.589 2.589 0 0 1-.531.063c-.256 0-.454-.041-.594-.121a.68.68 0 0 1-.297-.317c-.057-.133-.086-.41-.086-.832v-2.387h-.516v-.546H258v-1.028l.699-.422v1.45h.707v.546h-.707v2.426c0 .201.012.33.035.387a.314.314 0 0 0 .121.137c.058.034.138.05.243.05.078 0 .181-.009.308-.027zm.692.629v-5.727h.703v2.055a1.57 1.57 0 0 1 1.242-.57c.307 0 .574.061.801.183.226.12.388.287.484.5.099.214.149.524.149.93V117h-.704v-2.629c0-.351-.076-.607-.23-.766-.151-.161-.366-.242-.645-.242-.208 0-.405.055-.589.164a.906.906 0 0 0-.391.438c-.078.185-.117.44-.117.765V117h-.703zm7.293-1.336.726.09c-.114.424-.327.754-.637.988-.309.235-.705.352-1.187.352-.607 0-1.089-.186-1.445-.559-.355-.375-.532-.9-.532-1.574 0-.698.18-1.24.539-1.625.36-.385.826-.578 1.399-.578.555 0 1.008.189 1.359.566.352.378.528.909.528 1.594l-.004.187h-3.094c.026.456.155.805.387 1.047.231.243.521.364.867.364.258 0 .478-.068.66-.204.182-.135.327-.351.434-.648zm-2.309-1.137h2.316c-.031-.349-.119-.61-.265-.785a1.078 1.078 0 0 0-.871-.406c-.323 0-.595.108-.817.324-.218.216-.34.505-.363.867zM110.695 129v-3.602h-.621v-.546h.621v-.442c0-.278.025-.486.075-.621a.89.89 0 0 1 .355-.441c.172-.115.411-.172.719-.172.198 0 .416.023.656.07l-.105.613a2.368 2.368 0 0 0-.415-.039c-.213 0-.364.046-.453.137-.088.091-.132.262-.132.512v.383h.808v.546h-.808V129h-.7zm4.766-.512a2.59 2.59 0 0 1-.754.469 2.16 2.16 0 0 1-.773.137c-.456 0-.806-.111-1.051-.332a1.108 1.108 0 0 1-.367-.856c0-.203.045-.388.136-.554.094-.17.215-.305.364-.407.151-.101.32-.178.507-.23.138-.037.347-.072.625-.106.568-.067.986-.148 1.254-.242l.004-.183c0-.287-.066-.489-.199-.606-.18-.159-.447-.238-.801-.238-.33 0-.575.058-.734.176-.156.114-.272.319-.348.613l-.687-.094c.062-.294.165-.531.308-.711.144-.182.351-.321.621-.418a2.74 2.74 0 0 1 .942-.148c.354 0 .642.041.863.125.221.083.384.189.488.316.105.125.177.284.219.477a3.9 3.9 0 0 1 .035.648v.938c0 .653.015 1.067.043 1.242.032.172.091.337.18.496h-.734a1.491 1.491 0 0 1-.141-.512zm-.059-1.57c-.255.104-.638.193-1.148.266-.289.041-.494.088-.613.14a.605.605 0 0 0-.375.563.6.6 0 0 0 .211.468c.143.125.351.188.625.188.27 0 .511-.059.722-.176.211-.12.366-.282.465-.488.076-.159.113-.393.113-.703v-.258zm1.805 2.082v-4.148h.629v.582a1.46 1.46 0 0 1 1.258-.676c.307 0 .558.064.754.191.198.128.337.306.418.535.328-.484.755-.726 1.281-.726.411 0 .728.114.949.344.221.226.332.576.332 1.05V129h-.699v-2.613c0-.282-.024-.483-.07-.606a.584.584 0 0 0-.247-.301.775.775 0 0 0-.421-.113.98.98 0 0 0-.727.293c-.193.193-.289.503-.289.93V129h-.703v-2.695c0-.313-.057-.547-.172-.703-.115-.157-.302-.235-.562-.235-.198 0-.382.052-.551.156a.897.897 0 0 0-.364.457c-.075.201-.113.49-.113.868V129h-.703zm6.668-4.918v-.809h.703v.809h-.703zm0 4.918v-4.148h.703V129h-.703zm1.762 0v-5.727h.703V129h-.703zm1.765 1.598-.078-.66c.154.041.288.062.403.062a.774.774 0 0 0 .375-.078.642.642 0 0 0 .23-.219c.044-.07.116-.245.215-.523l.062-.172-1.574-4.156h.758l.863 2.402c.112.305.212.625.301.961a9.49 9.49 0 0 1 .289-.945l.887-2.418h.703l-1.578 4.218c-.169.456-.301.77-.395.942-.125.231-.268.401-.429.508a1.013 1.013 0 0 1-.579.164 1.42 1.42 0 0 1-.453-.086zm7.024-1.598-1.27-4.148h.727l.66 2.394.246.891c.01-.045.082-.33.215-.856l.66-2.429h.723l.621 2.406.207.793.238-.801.711-2.398h.684L137.551 129h-.731l-.66-2.484-.16-.707-.84 3.191h-.734zm4.754-2.074c0-.768.213-1.337.64-1.707.357-.308.792-.461 1.305-.461.57 0 1.036.187 1.398.562.362.373.543.888.543 1.547 0 .534-.08.955-.242 1.262a1.687 1.687 0 0 1-.699.711 2.029 2.029 0 0 1-1 .254c-.581 0-1.051-.186-1.41-.559-.357-.372-.535-.909-.535-1.609zm.722 0c0 .531.116.929.348 1.195.232.263.523.395.875.395.349 0 .639-.133.871-.399.232-.265.348-.67.348-1.215 0-.513-.117-.901-.352-1.164a1.106 1.106 0 0 0-.867-.398c-.352 0-.643.131-.875.394-.232.263-.348.661-.348 1.192zm3.996 2.074v-5.727h.704v3.266l1.664-1.687h.91l-1.586 1.539 1.746 2.609h-.867l-1.371-2.121-.496.476V129h-.704zm6.836-1.336.727.09c-.115.424-.327.754-.637.988-.31.235-.706.352-1.187.352-.607 0-1.089-.186-1.446-.559-.354-.375-.531-.9-.531-1.574 0-.698.18-1.24.539-1.625.36-.385.826-.578 1.399-.578.554 0 1.007.189 1.359.566.352.378.527.909.527 1.594 0 .042-.001.104-.004.187h-3.093c.026.456.155.805.386 1.047.232.243.521.364.868.364.257 0 .477-.068.66-.204.182-.135.327-.351.433-.648zm-2.308-1.137h2.316c-.031-.349-.12-.61-.265-.785a1.078 1.078 0 0 0-.872-.406c-.322 0-.595.108-.816.324-.219.216-.34.505-.363.867zm8.867 2.473v-.609c-.323.468-.762.703-1.316.703a1.69 1.69 0 0 1-.688-.141 1.168 1.168 0 0 1-.473-.351 1.364 1.364 0 0 1-.214-.524 3.538 3.538 0 0 1-.043-.656v-2.57h.703v2.3c0 .368.014.615.043.743.044.184.138.33.281.437.143.104.32.156.531.156.211 0 .409-.053.594-.16a.902.902 0 0 0 .391-.441c.078-.188.117-.459.117-.813v-2.222h.703V129h-.629zm1.734 1.59v-5.738h.641v.539c.151-.211.322-.369.512-.473.19-.107.42-.16.691-.16.354 0 .667.091.938.273.27.183.475.44.613.774a2.8 2.8 0 0 1 .207 1.09c0 .424-.077.807-.231 1.148a1.714 1.714 0 0 1-.664.781 1.7 1.7 0 0 1-.914.27 1.33 1.33 0 0 1-.632-.149 1.45 1.45 0 0 1-.458-.375v2.02h-.703zm.637-3.641c0 .534.108.929.324 1.184.216.255.478.383.785.383.313 0 .58-.132.801-.395.224-.266.336-.676.336-1.23 0-.529-.109-.925-.328-1.188-.216-.263-.475-.394-.777-.394-.3 0-.565.14-.797.421-.229.279-.344.685-.344 1.219zm8.75 1.539a2.59 2.59 0 0 1-.754.469 2.156 2.156 0 0 1-.773.137c-.456 0-.806-.111-1.051-.332a1.108 1.108 0 0 1-.367-.856c0-.203.045-.388.136-.554.094-.17.215-.305.364-.407.151-.101.32-.178.508-.23.138-.037.346-.072.625-.106.567-.067.985-.148 1.253-.242l.004-.183c0-.287-.066-.489-.199-.606-.18-.159-.446-.238-.801-.238-.33 0-.575.058-.734.176-.156.114-.272.319-.348.613l-.687-.094c.062-.294.165-.531.308-.711.144-.182.351-.321.622-.418a2.73 2.73 0 0 1 .941-.148c.354 0 .642.041.863.125.222.083.384.189.488.316.105.125.178.284.219.477a3.9 3.9 0 0 1 .035.648v.938c0 .653.015 1.067.043 1.242.032.172.092.337.18.496h-.734a1.491 1.491 0 0 1-.141-.512zm-.059-1.57c-.255.104-.638.193-1.148.266-.289.041-.493.088-.613.14a.61.61 0 0 0-.375.563.6.6 0 0 0 .211.468c.143.125.351.188.625.188.271 0 .511-.059.722-.176.211-.12.366-.282.465-.488.076-.159.113-.393.113-.703v-.258zM170.16 129v-4.148h.633v.589c.305-.455.745-.683 1.32-.683.25 0 .479.045.688.137.211.088.368.205.472.351.105.146.178.319.219.52.026.13.039.358.039.683V129h-.703v-2.523c0-.287-.027-.5-.082-.641a.663.663 0 0 0-.293-.34.904.904 0 0 0-.488-.129c-.3 0-.559.095-.777.285-.217.19-.325.551-.325 1.082V129h-.703zm7.145 0v-.523c-.263.411-.65.617-1.16.617-.331 0-.636-.091-.915-.274a1.82 1.82 0 0 1-.644-.761 2.678 2.678 0 0 1-.227-1.129c0-.414.069-.789.207-1.125.138-.339.345-.598.622-.778.276-.179.584-.269.925-.269.25 0 .473.053.668.16.196.104.354.241.477.41v-2.055h.699V129h-.652zm-2.223-2.07c0 .531.112.928.336 1.191.224.263.488.395.793.395a.99.99 0 0 0 .781-.375c.216-.253.324-.637.324-1.153 0-.567-.109-.984-.328-1.25-.218-.265-.488-.398-.808-.398a.975.975 0 0 0-.785.383c-.209.255-.313.657-.313 1.207zm6.977 2.07-1.27-4.148h.727l.66 2.394.246.891c.01-.045.082-.33.215-.856l.66-2.429h.723l.621 2.406.207.793.238-.801.711-2.398h.683L185.184 129h-.731l-.66-2.484-.16-.707-.84 3.191h-.734zm7.855-1.336.727.09c-.115.424-.327.754-.637.988-.31.235-.706.352-1.188.352-.606 0-1.088-.186-1.445-.559-.354-.375-.531-.9-.531-1.574 0-.698.18-1.24.539-1.625.359-.385.825-.578 1.398-.578.555 0 1.008.189 1.36.566.351.378.527.909.527 1.594 0 .042-.001.104-.004.187h-3.094c.026.456.155.805.387 1.047.232.243.521.364.867.364.258 0 .478-.068.66-.204.183-.135.327-.351.434-.648zm-2.309-1.137h2.317c-.031-.349-.12-.61-.266-.785a1.076 1.076 0 0 0-.871-.406c-.323 0-.595.108-.816.324-.219.216-.34.505-.364.867zm3.922 2.473v-4.148h.633v.589c.305-.455.745-.683 1.32-.683.25 0 .48.045.688.137.211.088.368.205.473.351.104.146.177.319.218.52.026.13.039.358.039.683V129h-.703v-2.523c0-.287-.027-.5-.082-.641a.659.659 0 0 0-.293-.34.902.902 0 0 0-.488-.129c-.299 0-.559.095-.777.285-.216.19-.325.551-.325 1.082V129h-.703zm5.989-.629.101.621a2.589 2.589 0 0 1-.531.063c-.255 0-.453-.041-.594-.121a.69.69 0 0 1-.297-.317c-.057-.133-.086-.41-.086-.832v-2.387h-.515v-.546h.515v-1.028l.7-.422v1.45h.707v.546h-.707v2.426c0 .201.011.33.035.387a.308.308 0 0 0 .121.137c.057.034.138.05.242.05.078 0 .181-.009.309-.027zm4.453 0 .101.621a2.589 2.589 0 0 1-.531.063c-.255 0-.453-.041-.594-.121a.69.69 0 0 1-.297-.317c-.057-.133-.086-.41-.086-.832v-2.387h-.515v-.546h.515v-1.028l.7-.422v1.45h.707v.546h-.707v2.426c0 .201.011.33.035.387a.308.308 0 0 0 .121.137c.057.034.138.05.242.05.078 0 .181-.009.309-.027zm.429-1.445c0-.768.214-1.337.641-1.707.357-.308.792-.461 1.305-.461.57 0 1.036.187 1.398.562.362.373.543.888.543 1.547 0 .534-.081.955-.242 1.262a1.687 1.687 0 0 1-.699.711 2.029 2.029 0 0 1-1 .254c-.581 0-1.051-.186-1.41-.559-.357-.372-.536-.909-.536-1.609zm.723 0c0 .531.116.929.348 1.195.232.263.523.395.875.395.349 0 .639-.133.871-.399.232-.265.347-.67.347-1.215 0-.513-.117-.901-.351-1.164a1.106 1.106 0 0 0-.867-.398c-.352 0-.643.131-.875.394-.232.263-.348.661-.348 1.192zm5.957 0c0-.768.214-1.337.641-1.707.357-.308.791-.461 1.304-.461.571 0 1.037.187 1.399.562.362.373.543.888.543 1.547 0 .534-.081.955-.242 1.262a1.684 1.684 0 0 1-.7.711 2.026 2.026 0 0 1-1 .254c-.58 0-1.05-.186-1.41-.559-.356-.372-.535-.909-.535-1.609zm.723 0c0 .531.116.929.347 1.195.232.263.524.395.875.395.349 0 .64-.133.872-.399.231-.265.347-.67.347-1.215 0-.513-.117-.901-.351-1.164a1.107 1.107 0 0 0-.868-.398c-.351 0-.643.131-.875.394-.231.263-.347.661-.347 1.192zm3.992 3.664v-5.738h.641v.539c.151-.211.321-.369.511-.473.19-.107.421-.16.692-.16.354 0 .666.091.937.273.271.183.475.44.614.774a2.8 2.8 0 0 1 .207 1.09c0 .424-.077.807-.231 1.148a1.714 1.714 0 0 1-.664.781c-.289.18-.594.27-.914.27-.234 0-.445-.05-.633-.149a1.445 1.445 0 0 1-.457-.375v2.02h-.703zm.637-3.641c0 .534.108.929.324 1.184.216.255.478.383.785.383.313 0 .579-.132.801-.395.224-.266.336-.676.336-1.23 0-.529-.11-.925-.328-1.188-.216-.263-.476-.394-.778-.394-.299 0-.565.14-.797.421-.229.279-.343.685-.343 1.219zm6.656.715.726.09c-.114.424-.326.754-.636.988-.31.235-.706.352-1.188.352-.606 0-1.088-.186-1.445-.559-.354-.375-.531-.9-.531-1.574 0-.698.179-1.24.539-1.625.359-.385.825-.578 1.398-.578.555 0 1.008.189 1.36.566.351.378.527.909.527 1.594 0 .042-.001.104-.004.187h-3.094c.026.456.155.805.387 1.047.232.243.521.364.867.364.258 0 .478-.068.66-.204.183-.135.327-.351.434-.648zm-2.309-1.137h2.317c-.032-.349-.12-.61-.266-.785a1.076 1.076 0 0 0-.871-.406c-.323 0-.595.108-.816.324-.219.216-.34.505-.364.867zm3.922 2.473v-4.148h.633v.589c.305-.455.745-.683 1.32-.683.25 0 .48.045.688.137.211.088.368.205.472.351.105.146.178.319.219.52.026.13.039.358.039.683V129h-.703v-2.523c0-.287-.027-.5-.082-.641a.663.663 0 0 0-.293-.34.904.904 0 0 0-.488-.129c-.3 0-.559.095-.777.285-.217.19-.325.551-.325 1.082V129h-.703zm8.215-.629.102.621a2.59 2.59 0 0 1-.532.063c-.255 0-.453-.041-.593-.121a.68.68 0 0 1-.297-.317c-.058-.133-.086-.41-.086-.832v-2.387h-.516v-.546h.516v-1.028l.699-.422v1.45h.707v.546h-.707v2.426c0 .201.012.33.035.387a.314.314 0 0 0 .121.137.48.48 0 0 0 .242.05c.079 0 .181-.009.309-.027zm.691.629v-5.727h.704v2.055a1.57 1.57 0 0 1 1.242-.57c.307 0 .574.061.801.183.226.12.388.287.484.5.099.214.148.524.148.93V129h-.703v-2.629c0-.351-.077-.607-.23-.766-.151-.161-.366-.242-.645-.242-.208 0-.405.055-.59.164a.91.91 0 0 0-.39.438c-.078.185-.117.44-.117.765V129h-.704zm7.293-1.336.727.09c-.115.424-.327.754-.637.988-.31.235-.705.352-1.187.352-.607 0-1.089-.186-1.446-.559-.354-.375-.531-.9-.531-1.574 0-.698.18-1.24.539-1.625.36-.385.826-.578 1.399-.578.554 0 1.008.189 1.359.566.352.378.527.909.527 1.594l-.003.187h-3.094c.026.456.155.805.387 1.047.231.243.52.364.867.364.257 0 .478-.068.66-.204.182-.135.327-.351.433-.648zm-2.308-1.137h2.316c-.031-.349-.12-.61-.265-.785a1.078 1.078 0 0 0-.871-.406c-.323 0-.596.108-.817.324-.219.216-.34.505-.363.867zm6.019 2.817.684.101c.029.211.108.365.238.461.175.13.413.196.715.196.326 0 .577-.066.754-.196a.956.956 0 0 0 .359-.547c.037-.143.054-.444.051-.902-.307.362-.69.543-1.148.543-.571 0-1.012-.206-1.324-.617-.313-.412-.469-.905-.469-1.481 0-.395.071-.76.215-1.093.143-.336.35-.595.621-.778.273-.182.593-.273.961-.273.489 0 .893.198 1.211.594v-.5h.648v3.586c0 .645-.066 1.102-.199 1.371a1.43 1.43 0 0 1-.625.64c-.284.156-.634.235-1.051.235-.495 0-.895-.112-1.199-.336-.305-.222-.452-.556-.442-1.004zm.582-2.492c0 .544.108.941.325 1.191.216.25.487.375.812.375.323 0 .594-.124.813-.371.218-.25.328-.641.328-1.172 0-.508-.114-.891-.34-1.148-.224-.258-.495-.387-.813-.387-.312 0-.578.127-.796.383-.219.252-.329.629-.329 1.129zm6.707 1.636c-.26.222-.511.378-.753.469-.24.091-.498.137-.774.137-.456 0-.806-.111-1.051-.332a1.111 1.111 0 0 1-.367-.856c0-.203.046-.388.137-.554.094-.17.215-.305.363-.407.151-.101.32-.178.508-.23.138-.037.346-.072.625-.106.568-.067.986-.148 1.254-.242l.004-.183c0-.287-.067-.489-.199-.606-.18-.159-.447-.238-.801-.238-.331 0-.576.058-.735.176-.156.114-.272.319-.347.613l-.688-.094a1.7 1.7 0 0 1 .309-.711c.143-.182.35-.321.621-.418.271-.099.585-.148.941-.148.354 0 .642.041.864.125.221.083.384.189.488.316.104.125.177.284.219.477.023.12.035.336.035.648v.938c0 .653.014 1.067.043 1.242.031.172.091.337.179.496h-.734a1.491 1.491 0 0 1-.141-.512zm-.058-1.57c-.255.104-.638.193-1.149.266-.289.041-.493.088-.613.14a.603.603 0 0 0-.375.563.6.6 0 0 0 .211.468c.143.125.352.188.625.188.271 0 .512-.059.723-.176.211-.12.366-.282.465-.488.075-.159.113-.393.113-.703v-.258zm3.34 1.453.101.621a2.589 2.589 0 0 1-.531.063c-.255 0-.453-.041-.594-.121a.69.69 0 0 1-.297-.317c-.057-.133-.086-.41-.086-.832v-2.387h-.515v-.546h.515v-1.028l.7-.422v1.45h.707v.546h-.707v2.426c0 .201.011.33.035.387a.308.308 0 0 0 .121.137c.057.034.138.05.242.05.078 0 .181-.009.309-.027zm3.531-.707.727.09c-.115.424-.327.754-.637.988-.31.235-.706.352-1.188.352-.606 0-1.088-.186-1.445-.559-.354-.375-.531-.9-.531-1.574 0-.698.179-1.24.539-1.625.359-.385.825-.578 1.398-.578.555 0 1.008.189 1.36.566.351.378.527.909.527 1.594 0 .042-.001.104-.004.187h-3.094c.026.456.155.805.387 1.047.232.243.521.364.867.364.258 0 .478-.068.66-.204.183-.135.327-.351.434-.648zm-2.309-1.137h2.317c-.031-.349-.12-.61-.266-.785a1.076 1.076 0 0 0-.871-.406c-.323 0-.595.108-.816.324-.219.216-.34.505-.364.867zm4.121 2.473v-.801h.801V129h-.801z" fill="#000"/></svg>