<svg width="300" height="180" fill="none" xmlns="http://www.w3.org/2000/svg"><path fill="#fff" d="M0 0h300v180H0z"/><path d="M32.617 25.758v3.584h-.351c-.209-.827-.44-1.42-.694-1.777a2.653 2.653 0 0 0-1.045-.87c-.247-.117-.68-.175-1.299-.175h-.986v10.214c0 .677.036 1.1.108 1.27.078.17.224.319.44.45.22.123.52.185.898.185h.439V39h-6.934v-.361h.44c.384 0 .693-.069.928-.205.169-.092.302-.248.4-.47.072-.155.107-.566.107-1.23V26.52h-.957c-.892 0-1.54.19-1.943.567-.566.527-.924 1.28-1.074 2.256h-.371v-3.584h11.894Zm8.076-.186c2.11-.078 3.822.537 5.137 1.846 1.322 1.309 1.983 2.946 1.983 4.912 0 1.68-.492 3.158-1.475 4.434-1.302 1.692-3.141 2.539-5.518 2.539-2.383 0-4.225-.808-5.527-2.422-1.029-1.276-1.543-2.79-1.543-4.541 0-1.966.667-3.604 2.002-4.912 1.341-1.315 2.988-1.934 4.941-1.856Zm.117.625c-1.21 0-2.132.619-2.763 1.856-.514 1.015-.772 2.474-.772 4.375 0 2.259.398 3.929 1.192 5.01.553.755 1.328 1.132 2.324 1.132.67 0 1.23-.162 1.68-.488.573-.417 1.019-1.08 1.338-1.992.319-.918.478-2.113.478-3.584 0-1.751-.163-3.06-.488-3.926-.326-.872-.742-1.488-1.25-1.846-.502-.358-1.08-.537-1.739-.537Zm21.944-.44v.362c-.436.059-.772.186-1.006.381-.325.273-.84 1.019-1.543 2.236l-2.871 4.795v3.203c0 .684.036 1.11.107 1.28.072.162.212.309.42.44.215.123.498.185.85.185h.742V39h-7.431v-.361h.693c.39 0 .7-.069.928-.205.169-.092.302-.248.4-.47.072-.155.107-.566.107-1.23v-2.656l-3.115-5.674c-.618-1.12-1.054-1.777-1.308-1.972-.254-.202-.593-.306-1.016-.313v-.361h6.348v.361h-.284c-.384 0-.654.055-.81.166-.15.11-.225.228-.225.352 0 .234.26.823.782 1.767l2.392 4.385 2.383-3.994c.592-.977.889-1.624.889-1.943 0-.176-.085-.323-.254-.44-.222-.163-.629-.26-1.221-.293v-.361h4.043Zm9.629-.302.107 4.414h-.4c-.189-1.107-.654-1.995-1.397-2.666-.735-.677-1.533-1.015-2.392-1.015-.664 0-1.192.178-1.582.537-.384.351-.576.758-.576 1.22 0 .293.068.554.205.782.189.306.491.608.908.908.306.215 1.012.595 2.119 1.142 1.55.762 2.594 1.481 3.135 2.158.534.678.8 1.452.8 2.325 0 1.107-.432 2.06-1.298 2.861-.86.794-1.953 1.191-3.281 1.191a5.3 5.3 0 0 1-1.182-.127c-.371-.084-.837-.244-1.397-.478-.312-.13-.57-.195-.771-.195-.17 0-.348.065-.537.195-.19.13-.342.329-.46.596h-.36v-5h.36c.287 1.406.837 2.48 1.651 3.222.82.736 1.703 1.104 2.647 1.104.729 0 1.308-.199 1.738-.596.436-.397.654-.86.654-1.386 0-.313-.084-.616-.254-.909-.162-.293-.413-.57-.752-.83-.338-.267-.937-.612-1.796-1.035-1.205-.592-2.07-1.097-2.598-1.514a4.685 4.685 0 0 1-1.22-1.396 3.497 3.497 0 0 1-.42-1.7c0-1.054.387-1.953 1.161-2.695.775-.742 1.752-1.113 2.93-1.113.43 0 .846.052 1.25.156.306.078.677.225 1.113.44.443.208.752.312.928.312a.52.52 0 0 0 .4-.156c.098-.104.19-.355.274-.752h.293Zm4.795 6.494h-.469l-1.025-3.73a4.745 4.745 0 0 1-.196-1.28c0-.423.137-.774.41-1.054a1.38 1.38 0 0 1 1.026-.43c.462 0 .817.15 1.064.45.254.299.381.624.381.976 0 .293-.075.735-.225 1.328l-.966 3.74ZM85 32.965v3.71c0 .717.042 1.17.127 1.358a.997.997 0 0 0 .469.44c.221.11.635.166 1.24.166V39h-6.777v-.361c.612 0 1.025-.056 1.24-.166.221-.117.374-.267.459-.45.091-.182.136-.631.136-1.347v-8.594c0-.716-.045-1.165-.136-1.348a.933.933 0 0 0-.46-.449c-.22-.11-.634-.166-1.24-.166v-.361h6.153c1.602 0 2.773.11 3.516.332a3.531 3.531 0 0 1 1.816 1.23c.469.593.703 1.29.703 2.09 0 .977-.352 1.784-1.055 2.422-.449.404-1.077.706-1.884.908l3.183 4.483c.417.58.713.94.889 1.084.267.201.576.312.928.332V39h-4.17l-4.268-6.035H85Zm0-6.494v5.8h.557c.905 0 1.582-.08 2.03-.244.45-.169.802-.468 1.056-.898.26-.436.39-1.003.39-1.7 0-1.008-.237-1.754-.713-2.236-.468-.481-1.227-.722-2.275-.722H85Zm12.197 5.478h-.469l-1.025-3.73a4.745 4.745 0 0 1-.195-1.28c0-.423.136-.774.41-1.054.28-.287.622-.43 1.025-.43.463 0 .817.15 1.065.45.254.299.38.624.38.976 0 .293-.074.735-.224 1.328l-.967 3.74Zm2.979-6.191h6.836v.361h-.342c-.514 0-.869.055-1.065.166a.93.93 0 0 0-.41.44c-.078.188-.117.66-.117 1.416v6.484c0 1.185.088 1.97.264 2.353.182.385.478.704.888.957.411.255.928.381 1.553.381.716 0 1.325-.16 1.826-.478a2.954 2.954 0 0 0 1.133-1.338c.254-.566.381-1.553.381-2.959v-5.4c0-.593-.062-1.016-.185-1.27-.124-.254-.28-.43-.469-.527-.293-.15-.707-.225-1.24-.225v-.361h4.58v.361h-.274c-.371 0-.68.075-.928.225-.247.15-.426.374-.537.674-.084.208-.127.582-.127 1.123v5.029c0 1.556-.104 2.679-.312 3.37-.202.69-.7 1.324-1.494 1.903-.795.58-1.879.87-3.252.87-1.146 0-2.031-.154-2.656-.46-.853-.416-1.456-.95-1.807-1.601-.352-.651-.527-1.527-.527-2.627v-6.484c0-.762-.043-1.234-.127-1.416a.95.95 0 0 0-.44-.45c-.208-.11-.592-.162-1.152-.156v-.361Zm17.539 8.935h-.43c-.045-.742-.195-1.64-.449-2.695l-.508-2.129c-.306-1.276-.459-2.19-.459-2.744 0-.501.15-.905.449-1.21.3-.307.69-.46 1.172-.46.469 0 .856.156 1.162.469.313.306.469.696.469 1.172 0 .494-.163 1.419-.488 2.773l-.518 2.129c-.182.755-.316 1.654-.4 2.695Zm-.205 1.397a1.5 1.5 0 0 1 1.113.469c.313.306.469.68.469 1.123 0 .436-.156.81-.469 1.123a1.516 1.516 0 0 1-1.113.459c-.436 0-.811-.153-1.123-.46a1.549 1.549 0 0 1-.459-1.122c0-.437.153-.81.459-1.123a1.51 1.51 0 0 1 1.123-.47ZM28.424 54.041v.163a.752.752 0 0 0-.378.083.824.824 0 0 0-.276.312c-.06.103-.151.347-.277.734l-1.662 4.803h-.175l-1.358-3.81-1.35 3.81h-.157l-1.771-4.948a8.241 8.241 0 0 0-.251-.655.56.56 0 0 0-.242-.246.84.84 0 0 0-.408-.083v-.163h2.206v.163h-.106c-.155 0-.274.035-.356.105a.324.324 0 0 0-.123.255c0 .102.065.338.194.708l1.173 3.344.989-2.843-.176-.502-.14-.4a2.176 2.176 0 0 0-.207-.386.535.535 0 0 0-.14-.14.79.79 0 0 0-.22-.115.953.953 0 0 0-.264-.026v-.163h2.32v.163h-.158c-.164 0-.284.035-.36.105a.37.37 0 0 0-.115.286c0 .15.066.41.198.782l1.143 3.239 1.133-3.283c.13-.363.194-.615.194-.756a.31.31 0 0 0-.066-.189.326.326 0 0 0-.158-.123 1.282 1.282 0 0 0-.435-.061v-.163h1.78Zm.312 3.45c-.003.597.142 1.066.435 1.406.293.34.638.51 1.033.51.264 0 .492-.072.686-.216.196-.146.36-.395.492-.747l.136.088c-.062.402-.24.768-.536 1.099a1.434 1.434 0 0 1-1.112.492c-.483 0-.898-.188-1.244-.563-.342-.377-.514-.884-.514-1.52 0-.688.176-1.225.528-1.608a1.73 1.73 0 0 1 1.331-.58c.451 0 .822.149 1.112.448.29.296.435.693.435 1.19h-2.782Zm0-.255H30.6c-.015-.258-.046-.44-.093-.545a.868.868 0 0 0-.33-.387.814.814 0 0 0-.452-.14.91.91 0 0 0-.655.285c-.19.188-.301.45-.334.787Zm4.707-3.485v5.34c0 .251.017.418.053.5a.414.414 0 0 0 .171.19c.076.04.218.06.426.06V60H32.12v-.158c.185 0 .31-.02.378-.057a.38.38 0 0 0 .158-.19c.038-.087.057-.256.057-.505v-3.656c0-.454-.01-.732-.03-.835-.02-.105-.055-.177-.102-.215a.252.252 0 0 0-.17-.057.82.82 0 0 0-.29.07l-.076-.154 1.2-.492h.198Zm4.54 4.72c-.109.53-.321.939-.638 1.226-.316.284-.666.426-1.05.426-.457 0-.855-.192-1.195-.576-.34-.383-.51-.902-.51-1.555 0-.633.187-1.147.562-1.543.378-.395.83-.593 1.358-.593.396 0 .721.105.976.316.255.208.382.425.382.65a.36.36 0 0 1-.11.273c-.07.068-.17.101-.299.101-.172 0-.303-.055-.39-.167-.05-.061-.084-.178-.102-.351a.569.569 0 0 0-.175-.396c-.103-.088-.245-.132-.427-.132a.872.872 0 0 0-.707.326c-.238.287-.356.666-.356 1.138 0 .48.117.905.351 1.274.238.366.557.55.958.55.287 0 .545-.099.774-.295.16-.135.318-.38.47-.734l.127.062Zm2.548-2.615c.61 0 1.099.231 1.468.694.313.396.47.85.47 1.363 0 .36-.086.725-.259 1.094a1.895 1.895 0 0 1-.716.835 1.877 1.877 0 0 1-1.011.281c-.606 0-1.088-.242-1.446-.725a2.247 2.247 0 0 1-.453-1.371c0-.37.091-.736.273-1.099.184-.366.426-.636.725-.808.299-.176.615-.264.95-.264Zm-.136.286a.918.918 0 0 0-.47.14c-.155.091-.281.252-.378.484-.097.231-.145.528-.145.892 0 .586.116 1.091.347 1.516.234.425.542.637.923.637a.858.858 0 0 0 .703-.352c.185-.234.277-.637.277-1.208 0-.715-.154-1.277-.462-1.688-.208-.28-.473-.421-.795-.421Zm3.863.57c.293-.292.466-.46.518-.505a1.61 1.61 0 0 1 .427-.259c.152-.061.303-.092.452-.092.252 0 .469.073.65.22.182.146.304.359.365.637.302-.352.557-.582.765-.69.208-.111.422-.167.642-.167.214 0 .403.056.567.167.166.108.298.287.395.536.064.17.097.437.097.8v1.731c0 .252.019.425.057.519.03.064.083.12.163.167.079.044.207.066.386.066V60h-1.986v-.158h.083c.173 0 .308-.034.405-.101a.392.392 0 0 0 .145-.224c.011-.05.017-.192.017-.427v-1.73c0-.328-.04-.56-.118-.694-.115-.188-.298-.282-.55-.282-.155 0-.312.04-.47.119-.155.076-.344.22-.567.43l-.009.049.01.189v1.92c0 .276.014.447.043.514a.39.39 0 0 0 .176.172c.085.044.23.066.435.066V60h-2.035v-.158c.223 0 .375-.027.457-.08a.407.407 0 0 0 .176-.237c.015-.05.022-.194.022-.435v-1.73c0-.328-.048-.564-.145-.708a.62.62 0 0 0-.54-.28.97.97 0 0 0-.47.127 1.807 1.807 0 0 0-.563.435v2.157c0 .264.017.435.052.514.039.08.093.14.163.18.073.039.22.058.44.058V60h-1.991v-.158c.184 0 .313-.02.387-.057a.393.393 0 0 0 .167-.19c.038-.087.057-.256.057-.505v-1.538c0-.442-.014-.728-.04-.857-.02-.096-.053-.162-.096-.197a.266.266 0 0 0-.18-.058.845.845 0 0 0-.295.066l-.066-.158 1.213-.492h.189v.857Zm6.486.779c-.003.597.142 1.066.435 1.406.293.34.637.51 1.033.51.264 0 .492-.072.685-.216.197-.146.36-.395.493-.747l.136.088c-.062.402-.24.768-.536 1.099a1.434 1.434 0 0 1-1.112.492c-.483 0-.898-.188-1.244-.563-.343-.377-.514-.884-.514-1.52 0-.688.176-1.225.528-1.608a1.73 1.73 0 0 1 1.331-.58c.451 0 .822.149 1.112.448.29.296.435.693.435 1.19h-2.782Zm0-.255h1.863c-.014-.258-.045-.44-.092-.545a.868.868 0 0 0-.33-.387.814.814 0 0 0-.452-.14.91.91 0 0 0-.655.285c-.19.188-.302.45-.334.787Zm6.741-2.584v1.323h.94v.307h-.94v2.61c0 .261.037.437.11.528.076.09.173.136.29.136.097 0 .19-.03.282-.088a.594.594 0 0 0 .21-.268h.172c-.103.287-.248.504-.435.65a.945.945 0 0 1-.58.216.792.792 0 0 1-.396-.11.692.692 0 0 1-.285-.32c-.062-.141-.093-.357-.093-.647v-2.707h-.637v-.145c.161-.064.325-.173.492-.325.17-.155.321-.338.453-.55a4.84 4.84 0 0 0 .281-.61h.136Zm3.305 1.204c.61 0 1.099.231 1.468.694.313.396.47.85.47 1.363 0 .36-.086.725-.26 1.094-.172.369-.41.647-.716.835a1.876 1.876 0 0 1-1.01.281c-.607 0-1.089-.242-1.446-.725a2.246 2.246 0 0 1-.453-1.371c0-.37.091-.736.273-1.099a1.84 1.84 0 0 1 1.674-1.072Zm-.136.286a.918.918 0 0 0-.47.14c-.156.091-.282.252-.378.484-.097.231-.145.528-.145.892 0 .586.115 1.091.347 1.516.234.425.542.637.923.637a.858.858 0 0 0 .703-.352c.184-.234.277-.637.277-1.208 0-.715-.154-1.277-.462-1.688-.208-.28-.473-.421-.795-.421Zm9.677-2.101.066 1.398h-.168c-.032-.247-.076-.422-.131-.528a.865.865 0 0 0-.365-.373c-.15-.082-.347-.123-.593-.123h-.84v4.552c0 .367.04.595.119.686.111.123.283.184.514.184h.207V60h-2.527v-.163h.21c.253 0 .431-.076.537-.228.064-.094.097-.308.097-.642v-4.552h-.717c-.278 0-.476.02-.593.061a.814.814 0 0 0-.391.32c-.109.16-.173.373-.194.642h-.166l.07-1.397h4.865Zm3.418-.136c.774 0 1.443.294 2.009.883.568.586.852 1.318.852 2.197 0 .906-.285 1.657-.857 2.255-.57.597-1.262.896-2.074.896-.82 0-1.51-.291-2.07-.874-.556-.583-.835-1.338-.835-2.264 0-.946.323-1.718.967-2.315a2.852 2.852 0 0 1 2.008-.778Zm-.083.32c-.533 0-.96.198-1.283.594-.402.492-.602 1.213-.602 2.162 0 .973.208 1.721.624 2.246.32.398.741.597 1.265.597.56 0 1.021-.218 1.385-.655.366-.436.549-1.125.549-2.065 0-1.02-.2-1.78-.602-2.28-.322-.4-.768-.598-1.336-.598Zm7.585-.184h2.079v.163h-.115a.9.9 0 0 0-.334.1c-.146.068-.28.165-.4.29a3.99 3.99 0 0 0-.443.616L80.6 57.473v1.494c0 .367.04.595.123.686.111.123.287.184.527.184h.193V60h-2.53v-.163h.21c.252 0 .43-.076.536-.228.065-.094.097-.308.097-.642v-1.41l-1.635-2.497c-.193-.292-.325-.476-.395-.549-.068-.073-.21-.16-.427-.263a.586.586 0 0 0-.255-.044v-.163h2.55v.163h-.133a.78.78 0 0 0-.382.096.313.313 0 0 0-.171.29c0 .106.089.296.268.572l1.243 1.92 1.17-1.837c.175-.275.263-.48.263-.615a.398.398 0 0 0-.246-.37.856.856 0 0 0-.356-.056v-.163Zm6.341-.136v2.06h-.162c-.053-.395-.148-.71-.286-.944a1.459 1.459 0 0 0-.58-.558 1.611 1.611 0 0 0-.782-.207 1.06 1.06 0 0 0-.756.282c-.2.184-.299.395-.299.632 0 .182.063.348.189.497.182.22.614.513 1.296.879.557.299.936.529 1.139.69.205.158.361.346.47.562.111.217.167.444.167.681 0 .452-.176.841-.528 1.17-.348.325-.798.487-1.349.487-.172 0-.335-.013-.487-.04a5.233 5.233 0 0 1-.567-.157c-.285-.094-.465-.141-.54-.141a.238.238 0 0 0-.177.066c-.04.044-.071.135-.092.272h-.163v-2.043h.163c.076.427.179.748.308.962.129.211.325.387.588.528.267.14.559.21.875.21.366 0 .655-.096.866-.29a.896.896 0 0 0 .32-.685.916.916 0 0 0-.123-.444 1.297 1.297 0 0 0-.373-.418c-.114-.087-.426-.273-.936-.558-.51-.287-.873-.515-1.09-.685a1.853 1.853 0 0 1-.488-.563 1.396 1.396 0 0 1-.167-.676c0-.428.164-.796.492-1.103.329-.31.746-.466 1.253-.466.316 0 .652.077 1.006.233.164.073.28.11.347.11a.259.259 0 0 0 .185-.066c.05-.047.09-.14.119-.277h.162Zm1.578 2.566-.237-1.3c-.068-.36-.102-.604-.102-.73 0-.188.039-.324.115-.409a.398.398 0 0 1 .312-.127.45.45 0 0 1 .457.47c0 .108-.038.375-.114.8l-.238 1.296h-.193ZM96.184 60h-1.591l-2.017-2.786c-.15.006-.271.009-.365.009h-.123l-.136-.01v1.732c0 .375.04.608.123.699.111.129.278.193.5.193h.234V60h-2.554v-.163h.225c.251 0 .432-.082.54-.246.062-.09.092-.306.092-.646v-3.85c0-.374-.04-.607-.123-.698-.114-.129-.284-.193-.51-.193h-.224v-.163h2.171c.633 0 1.099.047 1.398.14.302.092.556.261.764.51.211.246.317.54.317.884 0 .366-.12.684-.36.953-.238.27-.607.46-1.108.572l1.23 1.71c.282.392.523.652.726.781.202.13.465.211.79.246V60Zm-4.232-3.063c.055 0 .104.002.145.004h.1c.57 0 .997-.123 1.284-.369.29-.246.435-.56.435-.94 0-.372-.117-.674-.352-.905-.231-.235-.539-.352-.922-.352-.17 0-.4.028-.69.084v2.478Zm4.847-.466-.238-1.3c-.067-.36-.1-.604-.1-.73 0-.188.038-.324.114-.409a.398.398 0 0 1 .312-.127c.132 0 .24.044.325.132a.45.45 0 0 1 .132.338c0 .108-.038.375-.114.8l-.238 1.296H96.8Zm5.225-2.267v-.163h2.109v.163h-.224a.605.605 0 0 0-.54.294c-.062.09-.093.302-.093.633v2.417c0 .597-.06 1.062-.18 1.393-.117.328-.35.61-.699.848-.345.234-.817.352-1.415.352-.65 0-1.144-.113-1.48-.339a1.832 1.832 0 0 1-.717-.91c-.094-.26-.14-.75-.14-1.467v-2.33c0-.365-.052-.606-.154-.72-.1-.114-.263-.171-.488-.171h-.224v-.163h2.575v.163h-.229c-.246 0-.421.077-.527.233-.073.105-.11.325-.11.659v2.597c0 .231.02.497.062.795.044.3.121.532.233.699.111.167.271.305.479.413.211.108.468.163.773.163.39 0 .738-.085 1.046-.255.308-.17.517-.387.628-.65.115-.267.172-.717.172-1.35v-2.412c0-.372-.041-.605-.123-.699-.114-.129-.284-.193-.51-.193h-.224Zm2.694 7.294v-.193c.302-.1.534-.255.699-.466.166-.208.25-.429.25-.663a.236.236 0 0 0-.04-.14c-.02-.027-.041-.04-.061-.04a.641.641 0 0 0-.211.087.368.368 0 0 1-.167.04.463.463 0 0 1-.343-.127.475.475 0 0 1-.127-.352c0-.143.054-.267.162-.37a.577.577 0 0 1 .405-.153c.193 0 .364.085.514.255.152.167.228.39.228.668a1.3 1.3 0 0 1-.316.84c-.208.26-.539.465-.993.614Zm4.074-5.523h1.687v.162c-.155.012-.258.04-.308.084a.25.25 0 0 0-.07.189c0 .09.025.2.075.33l.861 2.315.866-1.885-.229-.593c-.07-.176-.162-.298-.277-.365-.064-.041-.184-.066-.36-.075v-.162h1.916v.162c-.211.009-.36.047-.448.114-.059.047-.088.122-.088.225 0 .058.012.118.035.18l.914 2.311.848-2.228c.059-.158.088-.284.088-.378 0-.055-.029-.105-.088-.15-.055-.043-.167-.068-.334-.074v-.162h1.27v.162c-.254.038-.442.211-.562.519l-1.345 3.467h-.18l-1.006-2.57-1.174 2.57h-.162l-1.292-3.384c-.085-.214-.169-.357-.251-.43-.082-.077-.211-.134-.386-.172v-.162Zm7.91-2.224v2.944c.325-.357.583-.586.773-.685.191-.103.381-.154.571-.154.229 0 .425.063.589.189.164.126.286.324.365.593.056.188.083.53.083 1.029v1.423c0 .255.021.43.062.523.029.07.079.126.149.167.071.041.2.062.387.062V60h-1.977v-.158h.092c.187 0 .318-.028.391-.084a.466.466 0 0 0 .154-.255 3.45 3.45 0 0 0 .013-.413v-1.424c0-.439-.023-.727-.07-.865a.56.56 0 0 0-.216-.308.606.606 0 0 0-.36-.105c-.144 0-.293.038-.448.114-.156.076-.342.23-.558.461v2.127c0 .276.014.447.044.514a.4.4 0 0 0 .171.172c.085.044.23.066.435.066V60h-1.995v-.158a.891.891 0 0 0 .422-.084.315.315 0 0 0 .14-.167c.036-.082.053-.249.053-.5v-3.644c0-.46-.012-.742-.035-.848-.02-.105-.054-.177-.101-.215a.266.266 0 0 0-.18-.057 1.07 1.07 0 0 0-.299.07l-.062-.154 1.205-.492h.202Zm3.994 3.74c-.003.597.142 1.066.435 1.406.293.34.638.51 1.033.51.264 0 .492-.072.686-.216.196-.146.36-.395.492-.747l.136.088a2.1 2.1 0 0 1-.536 1.099 1.435 1.435 0 0 1-1.112.492c-.483 0-.898-.188-1.244-.563-.342-.377-.514-.884-.514-1.52 0-.688.176-1.225.528-1.608a1.73 1.73 0 0 1 1.331-.58c.451 0 .822.149 1.112.448.29.296.435.693.435 1.19h-2.782Zm0-.255h1.864c-.015-.258-.046-.44-.093-.545a.868.868 0 0 0-.329-.387.817.817 0 0 0-.453-.14.912.912 0 0 0-.655.285c-.19.188-.301.45-.334.787Zm4.5-1.38v.905c.337-.603.683-.905 1.037-.905.162 0 .295.05.4.15a.443.443 0 0 1 .159.338c0 .114-.039.21-.115.29a.365.365 0 0 1-.272.118c-.103 0-.218-.05-.347-.149-.126-.102-.22-.154-.282-.154-.052 0-.109.03-.171.088-.132.12-.268.318-.409.593v1.93c0 .222.028.39.084.505a.455.455 0 0 0 .202.198.898.898 0 0 0 .417.079V60h-2.061v-.158c.205 0 .358-.032.457-.097a.371.371 0 0 0 .154-.224c.015-.05.022-.192.022-.426v-1.56c0-.47-.01-.747-.031-.835a.31.31 0 0 0-.105-.198.288.288 0 0 0-.189-.062.874.874 0 0 0-.308.066l-.044-.158 1.218-.492h.184Zm2.496 1.635c-.003.597.142 1.066.435 1.406.293.34.638.51 1.033.51.264 0 .492-.072.686-.216.196-.146.36-.395.492-.747l.136.088a2.1 2.1 0 0 1-.536 1.099 1.435 1.435 0 0 1-1.112.492c-.483 0-.898-.188-1.243-.563-.343-.377-.515-.884-.515-1.52 0-.688.176-1.225.528-1.608a1.73 1.73 0 0 1 1.331-.58c.451 0 .822.149 1.112.448.29.296.435.693.435 1.19h-2.782Zm0-.255h1.864c-.015-.258-.046-.44-.093-.545a.868.868 0 0 0-.329-.387.817.817 0 0 0-.453-.14.912.912 0 0 0-.655.285c-.19.188-.301.45-.334.787Zm7.853 2.184c-.413.32-.672.504-.777.554-.159.073-.327.11-.506.11a.914.914 0 0 1-.69-.286c-.178-.19-.268-.441-.268-.752 0-.196.044-.366.132-.51.12-.199.328-.386.624-.562.299-.176.794-.39 1.485-.641v-.159c0-.401-.064-.676-.193-.826-.126-.15-.31-.224-.554-.224a.623.623 0 0 0-.439.15.45.45 0 0 0-.167.342l.009.255c0 .135-.035.239-.106.312a.347.347 0 0 1-.268.11.349.349 0 0 1-.268-.114.456.456 0 0 1-.101-.312c0-.252.129-.484.387-.695.258-.21.619-.316 1.085-.316.358 0 .651.06.879.18.173.091.3.233.382.426.053.126.08.384.08.774v1.367c0 .383.007.62.021.707.015.085.039.142.071.171a.18.18 0 0 0 .118.044c.047 0 .088-.01.123-.03a2.66 2.66 0 0 0 .356-.321v.246c-.328.44-.641.66-.94.66a.427.427 0 0 1-.343-.15c-.085-.1-.129-.27-.132-.51Zm0-.286v-1.533c-.442.175-.728.3-.857.373-.231.129-.396.264-.496.404a.78.78 0 0 0-.15.462.76.76 0 0 0 .189.527.575.575 0 0 0 .436.207c.222 0 .515-.147.878-.44Zm3.103-5.383v5.34c0 .251.018.418.053.5a.413.413 0 0 0 .171.19c.076.04.218.06.426.06V60h-1.973v-.158c.185 0 .311-.02.378-.057a.377.377 0 0 0 .158-.19c.038-.087.057-.256.057-.505v-3.656c0-.454-.01-.732-.03-.835-.021-.105-.055-.177-.101-.215a.253.253 0 0 0-.172-.057.82.82 0 0 0-.29.07l-.075-.154 1.2-.492h.198Zm2.505 0v5.34c0 .251.017.418.053.5a.413.413 0 0 0 .171.19c.076.04.218.06.426.06V60h-1.973v-.158c.185 0 .311-.02.378-.057a.382.382 0 0 0 .158-.19c.038-.087.057-.256.057-.505v-3.656c0-.454-.01-.732-.03-.835-.021-.105-.055-.177-.101-.215a.255.255 0 0 0-.172-.057.82.82 0 0 0-.29.07l-.075-.154 1.2-.492h.198Zm3.142 2.224h1.876v.162h-.092c-.132 0-.231.03-.299.088a.268.268 0 0 0-.096.211c0 .114.048.273.145.475l.98 2.03.9-2.224a.921.921 0 0 0 .075-.356c0-.052-.01-.092-.031-.118a.22.22 0 0 0-.109-.075.779.779 0 0 0-.264-.03v-.163h1.309v.162a.626.626 0 0 0-.25.07.718.718 0 0 0-.193.198 2.573 2.573 0 0 0-.15.339l-1.639 4.016c-.158.39-.366.684-.624.884-.255.199-.501.298-.738.298a.618.618 0 0 1-.427-.149.45.45 0 0 1-.167-.343c0-.123.04-.223.119-.299a.482.482 0 0 1 .334-.11c.097 0 .229.033.396.097a.94.94 0 0 0 .219.066c.088 0 .183-.045.286-.136.105-.09.211-.267.316-.527l.286-.7-1.446-3.036a2.41 2.41 0 0 0-.211-.338.983.983 0 0 0-.18-.207.99.99 0 0 0-.325-.123v-.162Zm6.697-.119c.61 0 1.099.231 1.468.694.313.396.47.85.47 1.363 0 .36-.086.725-.259 1.094a1.89 1.89 0 0 1-.716.835 1.878 1.878 0 0 1-1.011.281c-.607 0-1.089-.242-1.446-.725a2.245 2.245 0 0 1-.453-1.371c0-.37.091-.736.273-1.099a1.84 1.84 0 0 1 1.674-1.072Zm-.136.286a.917.917 0 0 0-.47.14c-.156.091-.282.252-.378.484-.097.231-.145.528-.145.892 0 .586.116 1.091.347 1.516.234.425.542.637.923.637a.859.859 0 0 0 .703-.352c.185-.234.277-.637.277-1.208 0-.715-.154-1.277-.462-1.688-.208-.28-.473-.421-.795-.421Zm6.196-.167v2.439c0 .465.01.751.031.856a.403.403 0 0 0 .105.216c.05.04.107.061.172.061a.778.778 0 0 0 .307-.074l.062.154-1.204.496h-.198v-.852c-.346.374-.609.61-.791.707a1.208 1.208 0 0 1-.576.145.935.935 0 0 1-.588-.193 1.027 1.027 0 0 1-.343-.506c-.065-.205-.097-.495-.097-.87v-1.797c0-.19-.02-.322-.061-.396a.397.397 0 0 0-.185-.167c-.079-.04-.224-.06-.435-.057v-.162h1.411v2.694c0 .375.064.62.193.738a.69.69 0 0 0 .475.176.97.97 0 0 0 .426-.12c.161-.078.351-.23.571-.452v-2.28c0-.229-.042-.383-.127-.462-.082-.082-.255-.126-.519-.132v-.162h1.371Zm4.395.733c.471-.568.921-.852 1.349-.852a.96.96 0 0 1 .567.167c.158.108.284.288.378.54.064.176.096.446.096.81v1.717c0 .255.021.428.062.519a.36.36 0 0 0 .154.171c.073.041.206.062.4.062V60h-1.991v-.158h.083c.188 0 .318-.028.392-.084a.46.46 0 0 0 .158-.255 2.7 2.7 0 0 0 .017-.413v-1.648c0-.366-.048-.631-.145-.795-.093-.167-.253-.25-.479-.25-.348 0-.696.19-1.041.57v2.123c0 .273.016.441.048.506a.426.426 0 0 0 .167.189c.073.038.22.057.44.057V60h-1.991v-.158h.088c.205 0 .343-.051.413-.154.073-.105.11-.305.11-.598v-1.494c0-.483-.012-.778-.035-.883-.021-.106-.055-.177-.102-.215a.264.264 0 0 0-.18-.058.842.842 0 0 0-.294.066l-.066-.158 1.213-.492h.189v.852Zm4.003.783c-.003.597.142 1.066.435 1.406.293.34.637.51 1.033.51.264 0 .492-.072.686-.216.196-.146.36-.395.492-.747l.136.088a2.11 2.11 0 0 1-.536 1.099 1.435 1.435 0 0 1-1.112.492c-.483 0-.898-.188-1.244-.563-.342-.377-.514-.884-.514-1.52 0-.688.176-1.225.528-1.608a1.73 1.73 0 0 1 1.331-.58c.451 0 .822.149 1.112.448.29.296.435.693.435 1.19h-2.782Zm0-.255h1.863c-.014-.258-.045-.44-.092-.545a.868.868 0 0 0-.329-.387.817.817 0 0 0-.453-.14.912.912 0 0 0-.655.285c-.19.188-.302.45-.334.787Zm3.999.255c-.003.597.142 1.066.435 1.406.293.34.637.51 1.033.51.264 0 .492-.072.686-.216.196-.146.36-.395.492-.747l.136.088a2.11 2.11 0 0 1-.536 1.099 1.435 1.435 0 0 1-1.112.492c-.483 0-.898-.188-1.244-.563-.342-.377-.514-.884-.514-1.52 0-.688.176-1.225.528-1.608a1.73 1.73 0 0 1 1.331-.58c.451 0 .822.149 1.112.448.29.296.435.693.435 1.19h-2.782Zm0-.255h1.863c-.014-.258-.045-.44-.092-.545a.868.868 0 0 0-.329-.387.817.817 0 0 0-.453-.14.912.912 0 0 0-.655.285c-.19.188-.302.45-.334.787Zm6.166 2.311a2.077 2.077 0 0 1-.576.444 1.41 1.41 0 0 1-.606.132c-.44 0-.824-.183-1.152-.55-.328-.368-.492-.842-.492-1.419 0-.577.182-1.104.545-1.582.363-.48.831-.72 1.402-.72.354 0 .647.112.879.338v-.743c0-.46-.012-.742-.035-.848-.021-.105-.055-.177-.101-.215a.271.271 0 0 0-.176-.057.92.92 0 0 0-.303.07l-.058-.154 1.2-.492h.198v4.654c0 .471.01.76.031.865.023.103.058.175.105.216.05.04.107.061.171.061.08 0 .185-.024.317-.074l.048.154-1.195.496h-.202v-.576Zm0-.307v-2.075a1.42 1.42 0 0 0-.158-.544.897.897 0 0 0-.352-.37.826.826 0 0 0-.422-.127c-.258 0-.488.116-.69.347-.266.305-.4.75-.4 1.336 0 .592.129 1.046.387 1.362.258.314.545.47.861.47.267 0 .525-.133.774-.4Zm4.93-5.489c.123 0 .227.044.312.132a.417.417 0 0 1 .132.312.431.431 0 0 1-.132.316.417.417 0 0 1-.312.132.43.43 0 0 1-.316-.132.431.431 0 0 1-.132-.316c0-.123.043-.227.128-.312a.433.433 0 0 1 .32-.132Zm.365 2.105v3.234c0 .252.018.42.053.506a.403.403 0 0 0 .162.184c.074.041.206.062.396.062V60h-1.956v-.158c.197 0 .329-.02.396-.057a.382.382 0 0 0 .158-.19c.041-.087.062-.256.062-.505v-1.55c0-.438-.014-.72-.04-.85-.02-.093-.053-.157-.097-.192a.266.266 0 0 0-.18-.058.886.886 0 0 0-.299.066l-.061-.158 1.213-.492h.193Zm3.718 0v1.371h-.145c-.111-.43-.255-.724-.431-.879a.955.955 0 0 0-.663-.233.736.736 0 0 0-.497.163c-.126.108-.189.228-.189.36 0 .164.047.305.141.422.091.12.275.248.553.382l.642.312c.595.29.892.673.892 1.147 0 .367-.139.662-.417.888a1.44 1.44 0 0 1-.928.334 3.19 3.19 0 0 1-.843-.132.86.86 0 0 0-.238-.044c-.067 0-.12.038-.158.114h-.145v-1.437h.145c.082.41.239.72.47.928.232.208.491.312.778.312a.694.694 0 0 0 .492-.176.569.569 0 0 0 .194-.43.677.677 0 0 0-.216-.51c-.14-.138-.423-.313-.848-.523-.425-.211-.703-.402-.835-.572-.132-.167-.197-.378-.197-.633 0-.33.112-.607.338-.83.228-.223.523-.334.883-.334.158 0 .35.034.576.101.149.044.249.066.299.066a.18.18 0 0 0 .11-.03.426.426 0 0 0 .092-.137h.145Zm2.927.119h1.876v.162h-.092c-.132 0-.232.03-.299.088a.269.269 0 0 0-.097.211c0 .114.049.273.145.475l.98 2.03.901-2.224a.921.921 0 0 0 .075-.356c0-.052-.01-.092-.031-.118a.219.219 0 0 0-.11-.075.768.768 0 0 0-.263-.03v-.163h1.309v.162a.621.621 0 0 0-.25.07.734.734 0 0 0-.194.198 2.786 2.786 0 0 0-.149.339l-1.639 4.016c-.158.39-.366.684-.624.884-.255.199-.501.298-.739.298a.617.617 0 0 1-.426-.149.45.45 0 0 1-.167-.343c0-.123.04-.223.119-.299a.482.482 0 0 1 .334-.11c.097 0 .228.033.395.097a.96.96 0 0 0 .22.066c.088 0 .183-.045.286-.136.105-.09.211-.267.316-.527l.286-.7-1.446-3.036a2.41 2.41 0 0 0-.211-.338.983.983 0 0 0-.18-.207 1 1 0 0 0-.325-.123v-.162Zm6.697-.119c.609 0 1.099.231 1.468.694.313.396.47.85.47 1.363 0 .36-.086.725-.259 1.094a1.89 1.89 0 0 1-.717.835 1.872 1.872 0 0 1-1.01.281c-.607 0-1.089-.242-1.446-.725a2.245 2.245 0 0 1-.453-1.371c0-.37.091-.736.273-1.099a1.84 1.84 0 0 1 1.674-1.072Zm-.136.286a.914.914 0 0 0-.47.14c-.156.091-.282.252-.378.484-.097.231-.145.528-.145.892 0 .586.115 1.091.347 1.516.234.425.542.637.923.637a.859.859 0 0 0 .703-.352c.184-.234.277-.637.277-1.208 0-.715-.154-1.277-.462-1.688-.208-.28-.473-.421-.795-.421Zm6.196-.167v2.439c0 .465.01.751.031.856.023.103.058.175.105.216.05.04.107.061.172.061.09 0 .193-.024.307-.074l.062.154-1.204.496h-.198v-.852c-.346.374-.609.61-.791.707a1.21 1.21 0 0 1-.576.145.937.937 0 0 1-.589-.193 1.025 1.025 0 0 1-.342-.506c-.065-.205-.097-.495-.097-.87v-1.797c0-.19-.021-.322-.062-.396a.394.394 0 0 0-.184-.167c-.079-.04-.224-.06-.435-.057v-.162h1.41v2.694c0 .375.065.62.194.738a.69.69 0 0 0 .474.176c.126 0 .268-.04.427-.12.161-.078.351-.23.571-.452v-2.28c0-.229-.043-.383-.128-.462-.082-.082-.254-.126-.518-.132v-.162h1.371Zm2.149-.119v.905c.337-.603.683-.905 1.037-.905a.56.56 0 0 1 .4.15.445.445 0 0 1 .158.338c0 .114-.038.21-.114.29a.365.365 0 0 1-.273.118c-.102 0-.218-.05-.347-.149-.126-.102-.219-.154-.281-.154-.053 0-.11.03-.171.088-.132.12-.268.318-.409.593v1.93c0 .222.028.39.083.505a.46.46 0 0 0 .203.198c.096.052.235.079.417.079V60h-2.061v-.158c.205 0 .357-.032.457-.097a.375.375 0 0 0 .154-.224c.015-.05.022-.192.022-.426v-1.56c0-.47-.01-.747-.031-.835a.316.316 0 0 0-.105-.198.288.288 0 0 0-.189-.062.87.87 0 0 0-.308.066l-.044-.158 1.217-.492h.185Zm5.093-2.105c.123 0 .227.044.312.132a.417.417 0 0 1 .132.312.431.431 0 0 1-.132.316.417.417 0 0 1-.312.132.43.43 0 0 1-.316-.132.431.431 0 0 1-.132-.316c0-.123.042-.227.127-.312a.437.437 0 0 1 .321-.132Zm.365 2.105v3.234c0 .252.018.42.053.506a.403.403 0 0 0 .162.184c.074.041.205.062.396.062V60h-1.956v-.158c.197 0 .328-.02.396-.057a.382.382 0 0 0 .158-.19c.041-.087.061-.256.061-.505v-1.55c0-.438-.013-.72-.039-.85-.021-.093-.053-.157-.097-.192a.266.266 0 0 0-.18-.058.88.88 0 0 0-.299.066l-.061-.158 1.213-.492h.193Zm2.311.857c.293-.293.466-.462.519-.505.132-.112.274-.198.426-.26.153-.061.304-.092.453-.092.252 0 .469.073.65.22.182.146.304.359.365.637.302-.352.557-.582.765-.69.208-.111.422-.167.641-.167.214 0 .403.056.567.167.167.108.299.287.396.536.064.17.096.437.096.8v1.731c0 .252.019.425.058.519.029.064.083.12.162.167.079.044.208.066.387.066V60h-1.986v-.158h.083c.173 0 .308-.034.404-.101a.387.387 0 0 0 .145-.224 2.76 2.76 0 0 0 .018-.427v-1.73c0-.328-.04-.56-.119-.694-.114-.188-.297-.282-.549-.282-.155 0-.312.04-.47.119-.156.076-.345.22-.567.43l-.009.049.009.189v1.92c0 .276.014.447.044.514a.397.397 0 0 0 .176.172c.085.044.23.066.435.066V60h-2.035v-.158c.223 0 .375-.027.457-.08a.407.407 0 0 0 .176-.237c.014-.05.022-.194.022-.435v-1.73c0-.328-.049-.564-.145-.708a.62.62 0 0 0-.541-.28.97.97 0 0 0-.47.127 1.816 1.816 0 0 0-.563.435v2.157c0 .264.018.435.053.514.038.08.092.14.163.18.073.039.22.058.439.058V60h-1.99v-.158c.184 0 .313-.02.386-.057a.393.393 0 0 0 .167-.19c.038-.087.057-.256.057-.505v-1.538c0-.442-.013-.728-.039-.857-.021-.096-.053-.162-.097-.197a.266.266 0 0 0-.18-.058.842.842 0 0 0-.294.066l-.066-.158 1.213-.492h.188v.857Zm8.091 2.707c-.413.32-.673.504-.778.554-.158.073-.327.11-.505.11a.91.91 0 0 1-.69-.286c-.179-.19-.268-.441-.268-.752 0-.196.044-.366.131-.51.121-.199.329-.386.624-.562.299-.176.794-.39 1.486-.641v-.159c0-.401-.065-.676-.194-.826-.126-.15-.31-.224-.553-.224a.626.626 0 0 0-.44.15.45.45 0 0 0-.167.342l.009.255c0 .135-.035.239-.105.312a.348.348 0 0 1-.268.11.35.35 0 0 1-.269-.114.456.456 0 0 1-.101-.312c0-.252.129-.484.387-.695.258-.21.62-.316 1.086-.316.357 0 .65.06.878.18a.83.83 0 0 1 .383.426c.053.126.079.384.079.774v1.367c0 .383.007.62.022.707.015.085.038.142.07.171.035.03.075.044.119.044.047 0 .088-.01.123-.03a2.78 2.78 0 0 0 .356-.321v.246c-.328.44-.642.66-.941.66a.427.427 0 0 1-.342-.15c-.085-.1-.129-.27-.132-.51Zm0-.286v-1.533c-.443.175-.728.3-.857.373-.232.129-.397.264-.497.404a.785.785 0 0 0-.149.462.76.76 0 0 0 .189.527.575.575 0 0 0 .435.207c.223 0 .516-.147.879-.44Zm2.795-.602a1.336 1.336 0 0 1-.567-.5 1.35 1.35 0 0 1-.198-.717c0-.398.149-.741.448-1.028.302-.288.687-.431 1.156-.431.384 0 .716.094.998.281h.852c.126 0 .199.005.22.013.02.006.035.018.044.035a.28.28 0 0 1 .026.141.386.386 0 0 1-.022.158.093.093 0 0 1-.048.035.943.943 0 0 1-.22.014h-.523c.164.21.246.48.246.808 0 .375-.143.696-.43.963-.287.266-.673.4-1.156.4-.199 0-.403-.03-.611-.088-.129.111-.217.21-.264.294a.465.465 0 0 0-.066.211c0 .05.024.098.071.145.05.047.145.08.285.101.082.012.288.022.616.03.603.016.994.036 1.173.063.272.038.489.139.65.303a.824.824 0 0 1 .246.606c0 .331-.155.642-.465.932-.457.427-1.054.641-1.789.641-.565 0-1.043-.127-1.433-.382-.219-.146-.329-.299-.329-.457 0-.07.016-.14.048-.21.05-.11.153-.26.308-.453.02-.027.17-.185.448-.475a1.484 1.484 0 0 1-.325-.242.37.37 0 0 1-.092-.246.73.73 0 0 1 .123-.36c.085-.138.278-.333.58-.585Zm.764-2.465a.688.688 0 0 0-.545.26c-.146.172-.219.437-.219.795 0 .462.099.821.299 1.076.152.194.345.29.58.29a.693.693 0 0 0 .549-.25c.144-.167.215-.43.215-.787 0-.466-.101-.83-.303-1.094a.696.696 0 0 0-.576-.29ZM221.072 60a2.14 2.14 0 0 0-.312.417.746.746 0 0 0-.106.356c0 .141.085.264.255.37.293.181.716.272 1.27.272.528 0 .916-.094 1.165-.281.252-.185.378-.383.378-.593 0-.153-.075-.261-.224-.326-.153-.064-.455-.102-.906-.114a14.454 14.454 0 0 1-1.52-.101Zm4.491-6.249c.123 0 .227.044.312.132a.417.417 0 0 1 .132.312.431.431 0 0 1-.132.316.417.417 0 0 1-.312.132.43.43 0 0 1-.316-.132.431.431 0 0 1-.132-.316c0-.123.042-.227.127-.312a.437.437 0 0 1 .321-.132Zm.365 2.105v3.234c0 .252.017.42.052.506a.41.41 0 0 0 .163.184c.073.041.205.062.396.062V60h-1.956v-.158c.196 0 .328-.02.396-.057a.382.382 0 0 0 .158-.19c.041-.087.061-.256.061-.505v-1.55c0-.438-.013-.72-.039-.85-.021-.093-.053-.157-.097-.192a.266.266 0 0 0-.18-.058.88.88 0 0 0-.299.066l-.062-.158 1.213-.492h.194Zm2.289.852c.472-.568.922-.852 1.349-.852a.96.96 0 0 1 .567.167c.159.108.284.288.378.54.065.176.097.446.097.81v1.717c0 .255.02.428.061.519a.37.37 0 0 0 .154.171c.073.041.207.062.4.062V60h-1.991v-.158h.084c.187 0 .318-.028.391-.084a.454.454 0 0 0 .158-.255c.012-.044.018-.181.018-.413v-1.648c0-.366-.049-.631-.145-.795-.094-.167-.254-.25-.479-.25-.349 0-.696.19-1.042.57v2.123c0 .273.016.441.049.506a.42.42 0 0 0 .167.189c.073.038.219.057.439.057V60h-1.991v-.158h.088c.205 0 .343-.051.413-.154.074-.105.11-.305.11-.598v-1.494c0-.483-.012-.778-.035-.883-.02-.106-.054-.177-.101-.215a.266.266 0 0 0-.18-.058.852.852 0 0 0-.295.066l-.066-.158 1.213-.492h.189v.852Zm5.608 2.712c-.413.32-.673.504-.778.554-.158.073-.327.11-.505.11a.91.91 0 0 1-.69-.286c-.179-.19-.269-.441-.269-.752 0-.196.044-.366.132-.51.12-.199.328-.386.624-.562.299-.176.794-.39 1.486-.641v-.159c0-.401-.065-.676-.194-.826-.126-.15-.31-.224-.553-.224a.626.626 0 0 0-.44.15.45.45 0 0 0-.167.342l.009.255c0 .135-.035.239-.105.312a.349.349 0 0 1-.269.11.35.35 0 0 1-.268-.114.456.456 0 0 1-.101-.312c0-.252.129-.484.387-.695.258-.21.62-.316 1.085-.316.358 0 .651.06.879.18a.83.83 0 0 1 .383.426c.052.126.079.384.079.774v1.367c0 .383.007.62.022.707.014.085.038.142.07.171.035.03.075.044.119.044.047 0 .088-.01.123-.03a2.78 2.78 0 0 0 .356-.321v.246c-.328.44-.642.66-.941.66a.427.427 0 0 1-.342-.15c-.085-.1-.129-.27-.132-.51Zm0-.286v-1.533c-.443.175-.728.3-.857.373-.232.129-.397.264-.497.404a.785.785 0 0 0-.149.462.76.76 0 0 0 .189.527.575.575 0 0 0 .435.207c.222 0 .515-.147.879-.44Zm2.887-4.482v1.323h.94v.307h-.94v2.61c0 .261.037.437.11.528.076.09.173.136.29.136.096 0 .19-.03.281-.088a.594.594 0 0 0 .211-.268h.171c-.102.287-.247.504-.435.65a.944.944 0 0 1-.58.216.79.79 0 0 1-.395-.11.695.695 0 0 1-.286-.32c-.061-.141-.092-.357-.092-.647v-2.707h-.637v-.145a1.66 1.66 0 0 0 .492-.325c.17-.155.321-.338.452-.55.068-.11.162-.314.282-.61h.136Zm2.36-.901c.123 0 .227.044.312.132a.417.417 0 0 1 .132.312.431.431 0 0 1-.132.316.417.417 0 0 1-.312.132.433.433 0 0 1-.317-.132.43.43 0 0 1-.131-.316c0-.123.042-.227.127-.312a.437.437 0 0 1 .321-.132Zm.365 2.105v3.234c0 .252.017.42.052.506a.405.405 0 0 0 .163.184c.073.041.205.062.395.062V60h-1.955v-.158c.196 0 .328-.02.395-.057a.384.384 0 0 0 .159-.19c.041-.087.061-.256.061-.505v-1.55c0-.438-.013-.72-.04-.85-.02-.093-.052-.157-.096-.192a.266.266 0 0 0-.18-.058.88.88 0 0 0-.299.066l-.062-.158 1.213-.492h.194Zm3.084 0c.61 0 1.099.231 1.468.694.314.396.47.85.47 1.363 0 .36-.086.725-.259 1.094-.173.369-.411.647-.716.835a1.878 1.878 0 0 1-1.011.281c-.606 0-1.088-.242-1.446-.725a2.25 2.25 0 0 1-.452-1.371c0-.37.091-.736.272-1.099.185-.366.426-.636.725-.808.299-.176.616-.264.949-.264Zm-.136.286a.917.917 0 0 0-.47.14c-.155.091-.281.252-.378.484-.097.231-.145.528-.145.892 0 .586.116 1.091.347 1.516.235.425.542.637.923.637a.857.857 0 0 0 .703-.352c.185-.234.277-.637.277-1.208 0-.715-.154-1.277-.461-1.688-.208-.28-.473-.421-.796-.421Zm3.841.566c.472-.568.921-.852 1.349-.852a.96.96 0 0 1 .567.167c.158.108.284.288.378.54.064.176.097.446.097.81v1.717c0 .255.02.428.061.519.032.073.084.13.154.171.073.041.207.062.4.062V60h-1.991v-.158h.084c.187 0 .318-.028.391-.084a.454.454 0 0 0 .158-.255c.012-.044.018-.181.018-.413v-1.648c0-.366-.049-.631-.145-.795-.094-.167-.254-.25-.479-.25-.349 0-.696.19-1.042.57v2.123c0 .273.016.441.048.506a.426.426 0 0 0 .167.189c.074.038.22.057.44.057V60h-1.991v-.158h.088c.205 0 .343-.051.413-.154.073-.105.11-.305.11-.598v-1.494c0-.483-.012-.778-.035-.883-.021-.106-.054-.177-.101-.215a.266.266 0 0 0-.18-.058.847.847 0 0 0-.295.066l-.066-.158 1.213-.492h.189v.852Zm4.628 1.714h-.167l-.387-3.56a3.322 3.322 0 0 1-.027-.346c0-.185.049-.333.145-.444a.464.464 0 0 1 .356-.167c.138 0 .254.055.348.167.096.111.145.277.145.496 0 .07-.006.169-.018.295l-.395 3.56Zm-.088.73c.134 0 .249.048.342.145a.453.453 0 0 1 .145.338c0 .135-.048.25-.145.347a.465.465 0 0 1-.342.141.483.483 0 0 1-.348-.826.476.476 0 0 1 .348-.145ZM25.419 147.905l.136 2.026h-.136c-.182-.607-.442-1.043-.778-1.31-.337-.267-.742-.4-1.213-.4-.396 0-.753.101-1.073.303-.319.2-.57.519-.755.958-.182.44-.273.986-.273 1.64 0 .539.087 1.006.26 1.401.172.396.432.699.777.91.349.211.746.317 1.191.317.387 0 .728-.083 1.024-.247.296-.167.621-.496.976-.988l.136.088c-.299.53-.647.918-1.046 1.164-.398.246-.872.369-1.42.369-.987 0-1.751-.366-2.293-1.098-.405-.545-.607-1.187-.607-1.925 0-.595.134-1.141.4-1.639a2.88 2.88 0 0 1 1.099-1.156c.468-.276.98-.413 1.533-.413.431 0 .856.105 1.275.316.123.065.21.097.263.097a.29.29 0 0 0 .207-.084.685.685 0 0 0 .163-.329h.154Zm2.25-.154v5.339c0 .252.017.419.052.501a.414.414 0 0 0 .172.189c.076.041.218.062.426.062V154h-1.973v-.158c.184 0 .31-.019.378-.057a.38.38 0 0 0 .158-.189c.038-.088.057-.257.057-.506v-3.656c0-.454-.01-.732-.03-.835-.021-.105-.055-.177-.102-.215a.252.252 0 0 0-.171-.057.817.817 0 0 0-.29.07l-.075-.154 1.2-.492h.198Zm2.144 0c.123 0 .227.044.312.132a.417.417 0 0 1 .132.312.43.43 0 0 1-.132.316.417.417 0 0 1-.312.132.431.431 0 0 1-.316-.132.43.43 0 0 1-.132-.316c0-.123.042-.227.127-.312a.436.436 0 0 1 .321-.132Zm.365 2.105v3.234c0 .252.017.421.052.506a.401.401 0 0 0 .163.184c.073.041.205.062.396.062V154h-1.956v-.158c.196 0 .328-.019.396-.057a.38.38 0 0 0 .158-.189c.04-.088.061-.257.061-.506v-1.551c0-.436-.013-.719-.04-.848-.02-.094-.052-.158-.096-.193a.262.262 0 0 0-.18-.058.879.879 0 0 0-.299.066l-.061-.158 1.212-.492h.194Zm4.535 2.615c-.108.53-.32.939-.637 1.226-.317.284-.667.426-1.05.426-.458 0-.856-.192-1.196-.576-.34-.383-.51-.902-.51-1.555 0-.633.188-1.147.563-1.543.378-.395.83-.593 1.358-.593.395 0 .72.105.975.316.255.208.383.425.383.651a.36.36 0 0 1-.11.272c-.07.068-.17.101-.3.101-.172 0-.302-.055-.39-.167-.05-.061-.084-.178-.101-.351a.57.57 0 0 0-.176-.396c-.103-.088-.245-.132-.426-.132a.872.872 0 0 0-.708.326c-.237.287-.356.666-.356 1.138 0 .48.117.905.352 1.274.237.366.556.55.958.55.287 0 .545-.099.773-.295.161-.135.318-.379.47-.734l.128.062Zm1.77-4.72v4.008l1.025-.936c.217-.199.343-.325.378-.378a.188.188 0 0 0 .035-.106.187.187 0 0 0-.075-.149c-.047-.044-.126-.069-.237-.075v-.14h1.749v.14c-.24.006-.441.043-.602.11a1.962 1.962 0 0 0-.523.36l-1.033.954 1.033 1.305c.287.361.48.589.58.686.14.137.264.227.37.268.072.029.2.044.382.044V154h-1.956v-.158c.111-.003.186-.019.224-.049a.158.158 0 0 0 .062-.131c0-.068-.06-.176-.176-.326l-1.235-1.577v1.336c0 .26.017.432.053.514a.36.36 0 0 0 .158.176c.067.035.214.054.44.057V154h-2.049v-.158c.206 0 .36-.025.462-.075a.317.317 0 0 0 .14-.149c.044-.097.066-.264.066-.501v-3.665c0-.466-.01-.75-.03-.853-.02-.105-.055-.177-.101-.215a.27.27 0 0 0-.185-.062.829.829 0 0 0-.277.075l-.075-.154 1.196-.492h.202Zm6.729.901v1.323h.94v.307h-.94v2.611c0 .26.036.436.11.527a.361.361 0 0 0 .29.136.51.51 0 0 0 .281-.088.592.592 0 0 0 .211-.268h.171c-.102.287-.247.504-.435.651a.947.947 0 0 1-.58.215.795.795 0 0 1-.395-.11.69.69 0 0 1-.286-.321c-.061-.14-.092-.356-.092-.646v-2.707h-.637v-.145c.16-.064.325-.173.492-.325.17-.155.32-.338.452-.549.068-.112.162-.315.282-.611h.136Zm2.518-.901v2.944c.325-.357.583-.586.773-.685a1.19 1.19 0 0 1 .572-.154c.228 0 .424.063.589.189.164.126.285.324.364.593.056.188.084.53.084 1.029v1.423c0 .255.02.43.061.523a.34.34 0 0 0 .15.167c.07.041.199.062.386.062V154h-1.977v-.158h.092c.188 0 .318-.028.391-.084a.462.462 0 0 0 .154-.255c.009-.046.013-.184.013-.413v-1.423c0-.44-.023-.729-.07-.866a.564.564 0 0 0-.576-.413c-.143 0-.293.038-.448.114-.155.076-.341.23-.558.461v2.127c0 .276.015.447.044.514a.4.4 0 0 0 .171.172c.085.044.23.066.435.066V154h-1.995v-.158c.179 0 .32-.028.422-.084a.313.313 0 0 0 .14-.167c.036-.082.053-.249.053-.501v-3.643c0-.46-.011-.742-.035-.848-.02-.105-.054-.177-.1-.215a.266.266 0 0 0-.18-.057c-.062 0-.162.023-.3.07l-.061-.154 1.204-.492h.202Zm3.995 3.74c-.003.597.142 1.066.435 1.406.293.34.637.51 1.032.51.264 0 .493-.072.686-.216.196-.146.36-.395.492-.747l.136.088a2.1 2.1 0 0 1-.536 1.099 1.435 1.435 0 0 1-1.112.492c-.483 0-.898-.187-1.243-.562-.343-.378-.514-.885-.514-1.521 0-.688.175-1.225.527-1.608a1.73 1.73 0 0 1 1.331-.58c.452 0 .822.149 1.112.448.29.296.435.693.435 1.191h-2.781Zm0-.255h1.863c-.015-.258-.046-.44-.092-.545a.87.87 0 0 0-.33-.387.812.812 0 0 0-.453-.14.911.911 0 0 0-.654.285c-.19.188-.302.45-.334.787Zm6.956-3.485v5.339c0 .252.018.419.053.501a.414.414 0 0 0 .171.189c.076.041.218.062.426.062V154h-1.973v-.158c.185 0 .31-.019.378-.057a.38.38 0 0 0 .159-.189c.038-.088.057-.257.057-.506v-3.656c0-.454-.01-.732-.031-.835-.02-.105-.054-.177-.101-.215a.252.252 0 0 0-.172-.057.817.817 0 0 0-.29.07l-.074-.154 1.2-.492h.197Zm2.145 0c.123 0 .227.044.312.132a.417.417 0 0 1 .132.312.43.43 0 0 1-.132.316.417.417 0 0 1-.312.132.431.431 0 0 1-.317-.132.43.43 0 0 1-.132-.316c0-.123.043-.227.128-.312a.436.436 0 0 1 .32-.132Zm.364 2.105v3.234c0 .252.018.421.053.506a.4.4 0 0 0 .163.184c.073.041.205.062.395.062V154h-1.955v-.158c.196 0 .328-.019.395-.057a.38.38 0 0 0 .158-.189c.041-.088.062-.257.062-.506v-1.551c0-.436-.013-.719-.04-.848-.02-.094-.052-.158-.096-.193a.262.262 0 0 0-.18-.058.879.879 0 0 0-.3.066l-.06-.158 1.212-.492h.193Zm2.29.852c.472-.568.921-.852 1.35-.852a.96.96 0 0 1 .566.167c.158.108.284.289.378.54.064.176.097.446.097.809v1.718c0 .255.02.428.061.519.032.073.084.13.154.171.073.041.207.062.4.062V154h-1.99v-.158h.083c.187 0 .318-.028.39-.084a.451.451 0 0 0 .159-.255c.012-.044.017-.181.017-.413v-1.648c0-.366-.048-.631-.145-.795-.093-.167-.253-.251-.478-.251-.35 0-.696.191-1.042.572v2.122c0 .273.016.441.048.506a.424.424 0 0 0 .167.189c.074.038.22.057.44.057V154h-1.991v-.158h.088c.205 0 .343-.051.413-.154.073-.105.11-.305.11-.598v-1.494c0-.483-.012-.778-.035-.883-.02-.106-.054-.177-.101-.215a.262.262 0 0 0-.18-.058.844.844 0 0 0-.295.066l-.066-.158 1.213-.492h.189v.852Zm4.518-2.957v4.008l1.023-.936c.217-.199.343-.325.378-.378a.188.188 0 0 0 .036-.106.187.187 0 0 0-.075-.149c-.047-.044-.126-.069-.237-.075v-.14h1.749v.14c-.24.006-.441.043-.603.11a1.962 1.962 0 0 0-.522.36l-1.033.954 1.033 1.305c.287.361.48.589.58.686.14.137.263.227.369.268.073.029.2.044.382.044V154h-1.955v-.158c.11-.003.186-.019.224-.049a.158.158 0 0 0 .061-.131c0-.068-.058-.176-.176-.326l-1.234-1.577v1.336c0 .26.017.432.052.514a.36.36 0 0 0 .159.176c.067.035.213.054.439.057V154H64.6v-.158c.205 0 .359-.025.462-.075a.317.317 0 0 0 .14-.149c.044-.097.066-.264.066-.501v-3.665c0-.466-.01-.75-.03-.853-.021-.105-.055-.177-.102-.215a.27.27 0 0 0-.184-.062.828.828 0 0 0-.277.075l-.075-.154 1.195-.492h.203Zm7.84 5.669c-.414.319-.673.504-.778.554a1.191 1.191 0 0 1-.506.109.914.914 0 0 1-.69-.285c-.178-.191-.268-.441-.268-.752 0-.196.044-.366.132-.509.12-.2.328-.387.624-.563.299-.176.794-.39 1.485-.641v-.159c0-.401-.064-.676-.193-.826-.126-.149-.31-.224-.554-.224a.627.627 0 0 0-.44.149.45.45 0 0 0-.166.343l.009.255c0 .135-.035.239-.106.312a.348.348 0 0 1-.268.11.35.35 0 0 1-.268-.114.454.454 0 0 1-.101-.312c0-.252.129-.484.387-.695.257-.211.62-.316 1.085-.316.358 0 .65.06.88.18a.83.83 0 0 1 .381.426c.053.126.08.384.08.774v1.367c0 .383.007.619.022.707.014.085.038.142.07.171.035.03.075.044.118.044a.25.25 0 0 0 .124-.03c.061-.038.18-.145.355-.321v.246c-.328.439-.641.659-.94.659a.43.43 0 0 1-.343-.149c-.085-.1-.129-.27-.132-.51Zm0-.286v-1.533c-.443.175-.729.3-.857.373-.232.129-.397.264-.497.404a.784.784 0 0 0-.15.462.76.76 0 0 0 .19.527.575.575 0 0 0 .434.207c.223 0 .516-.147.88-.44Zm2.82-2.465c.39-.542.81-.813 1.262-.813.413 0 .773.177 1.081.532.308.351.461.833.461 1.445 0 .715-.237 1.291-.712 1.728-.407.375-.86.562-1.362.562a2.16 2.16 0 0 1-.716-.127 3.296 3.296 0 0 1-.738-.383v-4.17c0-.457-.012-.738-.036-.844-.02-.105-.054-.177-.1-.215a.27.27 0 0 0-.176-.057.897.897 0 0 0-.308.07l-.062-.154 1.209-.492h.198v2.918Zm0 .281v2.408c.15.147.304.258.462.334.161.074.325.11.492.11.267 0 .514-.146.743-.439.231-.293.347-.719.347-1.279 0-.516-.116-.911-.347-1.187-.229-.278-.49-.417-.782-.417-.155 0-.31.04-.466.119-.117.058-.267.175-.448.351Zm5.366-1.094c.61 0 1.099.231 1.468.694.314.396.47.85.47 1.363 0 .36-.086.725-.259 1.094a1.89 1.89 0 0 1-.716.835 1.88 1.88 0 0 1-1.01.281c-.607 0-1.09-.242-1.447-.725a2.245 2.245 0 0 1-.452-1.371c0-.369.09-.735.272-1.099.185-.366.426-.636.725-.808.299-.176.615-.264.95-.264Zm-.136.286a.914.914 0 0 0-.47.14c-.155.091-.281.252-.378.484-.097.231-.145.528-.145.892 0 .586.116 1.091.347 1.516.235.425.542.637.923.637a.857.857 0 0 0 .703-.352c.185-.234.277-.637.277-1.208 0-.715-.154-1.277-.461-1.688-.208-.281-.474-.421-.796-.421Zm2.461-.167h1.894v.162h-.123a.38.38 0 0 0-.264.084.293.293 0 0 0-.087.224c0 .102.03.224.092.365l.936 2.223.94-2.307c.068-.164.101-.288.101-.373a.15.15 0 0 0-.035-.102.23.23 0 0 0-.123-.087 1.079 1.079 0 0 0-.303-.027v-.162h1.314v.162c-.152.012-.258.043-.317.092-.102.088-.194.235-.276.44l-1.429 3.454h-.18l-1.437-3.397a1.258 1.258 0 0 0-.184-.338.705.705 0 0 0-.224-.176 1.135 1.135 0 0 0-.295-.075v-.162Zm5.383 1.516c-.002.597.142 1.066.436 1.406.292.34.637.51 1.032.51.264 0 .492-.072.686-.216.196-.146.36-.395.492-.747l.136.088a2.1 2.1 0 0 1-.536 1.099 1.435 1.435 0 0 1-1.112.492c-.483 0-.898-.187-1.243-.562-.343-.378-.515-.885-.515-1.521 0-.688.176-1.225.528-1.608a1.73 1.73 0 0 1 1.331-.58c.451 0 .822.149 1.112.448.29.296.435.693.435 1.191h-2.782Zm0-.255h1.864c-.015-.258-.046-.44-.093-.545a.87.87 0 0 0-.33-.387.812.812 0 0 0-.452-.14.911.911 0 0 0-.655.285c-.19.188-.301.45-.334.787Zm6.742-2.584v1.323h.94v.307h-.94v2.611c0 .26.036.436.11.527a.361.361 0 0 0 .29.136.51.51 0 0 0 .28-.088.592.592 0 0 0 .212-.268h.171c-.102.287-.247.504-.435.651a.947.947 0 0 1-.58.215.794.794 0 0 1-.396-.11.69.69 0 0 1-.285-.321c-.062-.14-.092-.356-.092-.646v-2.707h-.638v-.145c.161-.064.325-.173.492-.325.17-.155.321-.338.453-.549a4.98 4.98 0 0 0 .281-.611h.137Zm3.304 1.204c.61 0 1.099.231 1.468.694.314.396.47.85.47 1.363 0 .36-.086.725-.259 1.094a1.895 1.895 0 0 1-.716.835 1.882 1.882 0 0 1-1.011.281c-.606 0-1.088-.242-1.446-.725a2.245 2.245 0 0 1-.453-1.371c0-.369.091-.735.273-1.099.185-.366.426-.636.725-.808.299-.176.615-.264.95-.264Zm-.136.286a.914.914 0 0 0-.47.14c-.155.091-.281.252-.378.484-.097.231-.145.528-.145.892 0 .586.116 1.091.347 1.516.235.425.542.637.923.637a.856.856 0 0 0 .703-.352c.185-.234.277-.637.277-1.208 0-.715-.154-1.277-.461-1.688-.209-.281-.474-.421-.796-.421Zm7.519-.286v1.371h-.145c-.111-.431-.255-.724-.431-.879-.172-.155-.394-.233-.663-.233a.733.733 0 0 0-.497.163c-.126.108-.189.228-.189.36 0 .164.047.305.141.422.091.12.275.248.554.382l.641.312c.595.29.892.673.892 1.147 0 .367-.139.662-.417.888a1.437 1.437 0 0 1-.927.334c-.246 0-.528-.044-.844-.132a.873.873 0 0 0-.237-.044c-.068 0-.121.038-.159.115h-.145v-1.437h.145c.082.41.239.719.471.927.231.208.49.312.777.312a.695.695 0 0 0 .493-.176.568.568 0 0 0 .193-.431.678.678 0 0 0-.215-.509c-.141-.138-.424-.312-.849-.523-.424-.211-.703-.402-.834-.572a.988.988 0 0 1-.198-.632c0-.332.113-.608.338-.831.229-.223.523-.334.883-.334.159 0 .351.034.576.101.15.044.249.066.299.066.047 0 .083-.01.11-.031a.422.422 0 0 0 .092-.136h.145Zm2.074-1.204v1.323h.941v.307h-.941v2.611c0 .26.037.436.11.527a.361.361 0 0 0 .29.136.511.511 0 0 0 .282-.088.59.59 0 0 0 .21-.268h.172c-.103.287-.248.504-.435.651a.949.949 0 0 1-.58.215.796.796 0 0 1-.396-.11.685.685 0 0 1-.285-.321c-.062-.14-.093-.356-.093-.646v-2.707h-.637v-.145c.161-.064.325-.173.492-.325.17-.155.321-.338.453-.549a5.02 5.02 0 0 0 .281-.611h.136Zm3.617 4.768c-.413.319-.672.504-.778.554a1.188 1.188 0 0 1-.505.109.915.915 0 0 1-.69-.285c-.179-.191-.268-.441-.268-.752 0-.196.044-.366.132-.509.12-.2.328-.387.624-.563.299-.176.794-.39 1.485-.641v-.159c0-.401-.064-.676-.193-.826-.126-.149-.311-.224-.554-.224a.624.624 0 0 0-.439.149.448.448 0 0 0-.167.343l.008.255c0 .135-.035.239-.105.312a.349.349 0 0 1-.268.11.348.348 0 0 1-.268-.114.45.45 0 0 1-.101-.312c0-.252.129-.484.386-.695.258-.211.62-.316 1.086-.316.357 0 .65.06.879.18.173.091.3.233.382.426.053.126.079.384.079.774v1.367c0 .383.007.619.022.707.015.085.038.142.07.171a.18.18 0 0 0 .119.044c.047 0 .088-.01.123-.03a2.71 2.71 0 0 0 .356-.321v.246c-.328.439-.642.659-.94.659a.429.429 0 0 1-.343-.149c-.085-.1-.129-.27-.132-.51Zm0-.286v-1.533c-.442.175-.728.3-.857.373-.231.129-.397.264-.496.404a.782.782 0 0 0-.15.462c0 .211.063.387.189.527a.575.575 0 0 0 .435.207c.223 0 .516-.147.879-.44Zm2.896-3.278v.905c.337-.603.683-.905 1.037-.905.161 0 .295.05.4.149.106.097.158.21.158.339a.403.403 0 0 1-.114.29.364.364 0 0 1-.272.118c-.103 0-.219-.049-.348-.149-.126-.103-.219-.154-.281-.154-.053 0-.11.03-.171.088-.132.12-.268.318-.409.593v1.93c0 .222.028.391.084.505a.455.455 0 0 0 .202.198c.096.052.236.079.417.079V154h-2.061v-.158c.205 0 .358-.032.457-.097a.374.374 0 0 0 .154-.224c.015-.05.022-.192.022-.426v-1.56c0-.469-.01-.747-.031-.835a.316.316 0 0 0-.105-.198.289.289 0 0 0-.189-.062.868.868 0 0 0-.308.066l-.044-.158 1.217-.492h.185Zm2.988-1.204v1.323h.941v.307h-.941v2.611c0 .26.037.436.11.527a.361.361 0 0 0 .29.136.506.506 0 0 0 .281-.088.585.585 0 0 0 .211-.268h.172c-.103.287-.248.504-.435.651a.949.949 0 0 1-.58.215.796.796 0 0 1-.396-.11.685.685 0 0 1-.285-.321c-.062-.14-.093-.356-.093-.646v-2.707h-.637v-.145c.161-.064.325-.173.492-.325.17-.155.321-.338.453-.549a5.02 5.02 0 0 0 .281-.611h.136Zm6.43 4.895a2.097 2.097 0 0 1-.576.444c-.188.088-.39.132-.607.132-.439 0-.823-.183-1.151-.549-.328-.369-.492-.843-.492-1.42s.181-1.104.545-1.582c.363-.48.83-.72 1.402-.72.354 0 .647.112.879.338v-.743c0-.46-.012-.742-.036-.848-.02-.105-.054-.177-.101-.215a.269.269 0 0 0-.175-.057.92.92 0 0 0-.304.07l-.057-.154 1.2-.492h.198v4.654c0 .471.01.76.03.866.024.102.059.174.106.215.05.041.107.061.171.061a.977.977 0 0 0 .317-.074l.048.153-1.195.497h-.202v-.576Zm0-.307v-2.074a1.404 1.404 0 0 0-.159-.545.898.898 0 0 0-.351-.37.835.835 0 0 0-.422-.127c-.258 0-.488.116-.69.347-.267.305-.4.75-.4 1.336 0 .592.129 1.046.387 1.362.258.314.545.471.861.471.267 0 .525-.134.774-.4Zm2.333-1.749c-.003.597.142 1.066.435 1.406.293.34.637.51 1.033.51.263 0 .492-.072.685-.216.197-.146.361-.395.493-.747l.136.088c-.062.402-.24.768-.536 1.099a1.436 1.436 0 0 1-1.112.492c-.484 0-.898-.187-1.244-.562-.343-.378-.514-.885-.514-1.521 0-.688.176-1.225.527-1.608.355-.387.799-.58 1.332-.58.451 0 .822.149 1.112.448.29.296.435.693.435 1.191h-2.782Zm0-.255h1.863c-.014-.258-.045-.44-.092-.545a.867.867 0 0 0-.33-.387.81.81 0 0 0-.452-.14.912.912 0 0 0-.655.285c-.19.188-.302.45-.334.787Zm5.924-1.38v1.371h-.145c-.111-.431-.255-.724-.431-.879a.956.956 0 0 0-.663-.233.733.733 0 0 0-.497.163c-.126.108-.189.228-.189.36 0 .164.047.305.141.422.09.12.275.248.553.382l.642.312c.595.29.892.673.892 1.147 0 .367-.139.662-.417.888a1.438 1.438 0 0 1-.928.334c-.246 0-.527-.044-.843-.132a.872.872 0 0 0-.238-.044c-.067 0-.12.038-.158.115h-.145v-1.437h.145c.082.41.239.719.47.927.232.208.491.312.778.312a.695.695 0 0 0 .492-.176.57.57 0 0 0 .194-.431.675.675 0 0 0-.216-.509c-.14-.138-.423-.312-.848-.523-.425-.211-.703-.402-.835-.572a.988.988 0 0 1-.198-.632c0-.332.113-.608.339-.831.228-.223.523-.334.883-.334.158 0 .35.034.576.101.149.044.249.066.299.066.047 0 .083-.01.11-.031a.422.422 0 0 0 .092-.136h.145Zm1.929-2.105c.123 0 .227.044.312.132a.417.417 0 0 1 .132.312.43.43 0 0 1-.132.316.417.417 0 0 1-.312.132.43.43 0 0 1-.316-.132.43.43 0 0 1-.132-.316c0-.123.042-.227.127-.312a.437.437 0 0 1 .321-.132Zm.365 2.105v3.234c0 .252.017.421.053.506a.401.401 0 0 0 .162.184c.073.041.205.062.396.062V154h-1.956v-.158c.196 0 .328-.019.396-.057a.381.381 0 0 0 .158-.189c.041-.088.061-.257.061-.506v-1.551c0-.436-.013-.719-.039-.848-.021-.094-.053-.158-.097-.193a.262.262 0 0 0-.18-.058.879.879 0 0 0-.299.066l-.061-.158 1.212-.492h.194Zm2.193 2.676a1.334 1.334 0 0 1-.567-.501 1.35 1.35 0 0 1-.198-.716c0-.398.149-.741.448-1.028.302-.287.687-.431 1.156-.431.384 0 .716.094.998.281h.852c.126 0 .199.005.22.013a.07.07 0 0 1 .044.036c.017.026.026.073.026.14a.385.385 0 0 1-.022.158.093.093 0 0 1-.048.036 1.001 1.001 0 0 1-.22.013h-.523c.164.211.246.48.246.808 0 .375-.143.696-.43.963-.288.266-.673.4-1.156.4-.199 0-.403-.03-.611-.088a1.177 1.177 0 0 0-.264.294.464.464 0 0 0-.066.211c0 .05.024.098.071.145.05.047.145.081.285.101.082.012.287.022.616.031.603.015.994.035 1.173.061.272.039.489.14.65.304a.824.824 0 0 1 .246.606c0 .331-.155.642-.465.932-.457.428-1.054.641-1.789.641-.565 0-1.043-.127-1.433-.382-.219-.146-.329-.299-.329-.457 0-.07.016-.141.048-.211.05-.108.153-.259.308-.453.02-.026.17-.184.448-.474a1.503 1.503 0 0 1-.325-.242.37.37 0 0 1-.092-.246.73.73 0 0 1 .123-.36c.085-.138.278-.333.58-.585Zm.764-2.465a.688.688 0 0 0-.545.259c-.146.173-.219.438-.219.796 0 .462.099.821.298 1.076.153.194.346.29.581.29a.693.693 0 0 0 .549-.25c.143-.167.215-.429.215-.787 0-.466-.101-.83-.303-1.094a.696.696 0 0 0-.576-.29Zm-.808 3.933a2.153 2.153 0 0 0-.312.417.748.748 0 0 0-.106.356c0 .141.085.264.255.37.293.181.716.272 1.27.272.527 0 .916-.094 1.165-.281.252-.185.378-.383.378-.593 0-.153-.075-.261-.224-.326-.153-.064-.455-.102-.906-.114a14.514 14.514 0 0 1-1.52-.101Zm4.64-3.292c.472-.568.922-.852 1.349-.852.22 0 .409.056.567.167.159.108.285.289.378.54.065.176.097.446.097.809v1.718c0 .255.02.428.061.519a.37.37 0 0 0 .154.171c.074.041.207.062.4.062V154h-1.991v-.158h.084c.187 0 .318-.028.391-.084a.45.45 0 0 0 .158-.255c.012-.044.018-.181.018-.413v-1.648c0-.366-.048-.631-.145-.795-.094-.167-.254-.251-.479-.251-.349 0-.696.191-1.042.572v2.122c0 .273.016.441.049.506a.42.42 0 0 0 .167.189c.073.038.219.057.439.057V154h-1.991v-.158h.088c.205 0 .343-.051.413-.154.074-.105.11-.305.11-.598v-1.494c0-.483-.011-.778-.035-.883-.02-.106-.054-.177-.101-.215a.262.262 0 0 0-.18-.058.85.85 0 0 0-.295.066l-.066-.158 1.213-.492h.189v.852Zm4.351-2.957c.123 0 .227.044.312.132a.417.417 0 0 1 .132.312.43.43 0 0 1-.132.316.417.417 0 0 1-.312.132.429.429 0 0 1-.316-.132.43.43 0 0 1-.132-.316c0-.123.042-.227.127-.312a.437.437 0 0 1 .321-.132Zm.365 2.105v3.234c0 .252.017.421.052.506a.403.403 0 0 0 .163.184c.073.041.205.062.396.062V154h-1.956v-.158c.196 0 .328-.019.395-.057a.378.378 0 0 0 .159-.189c.041-.088.061-.257.061-.506v-1.551c0-.436-.013-.719-.039-.848-.021-.094-.053-.158-.097-.193a.262.262 0 0 0-.18-.058.879.879 0 0 0-.299.066l-.062-.158 1.213-.492h.194Zm2.289.852c.472-.568.922-.852 1.349-.852.22 0 .409.056.567.167.158.108.284.289.378.54.065.176.097.446.097.809v1.718c0 .255.02.428.061.519a.37.37 0 0 0 .154.171c.073.041.207.062.4.062V154h-1.991v-.158h.084c.187 0 .318-.028.391-.084a.45.45 0 0 0 .158-.255c.012-.044.018-.181.018-.413v-1.648c0-.366-.049-.631-.145-.795-.094-.167-.254-.251-.479-.251-.349 0-.696.191-1.042.572v2.122c0 .273.016.441.049.506a.42.42 0 0 0 .167.189c.073.038.219.057.439.057V154h-1.991v-.158h.088c.205 0 .343-.051.413-.154.074-.105.11-.305.11-.598v-1.494c0-.483-.012-.778-.035-.883-.021-.106-.054-.177-.101-.215a.262.262 0 0 0-.18-.058.85.85 0 0 0-.295.066l-.066-.158 1.213-.492h.189v.852Zm4.404 1.824a1.323 1.323 0 0 1-.567-.501 1.35 1.35 0 0 1-.198-.716c0-.398.149-.741.448-1.028.302-.287.687-.431 1.156-.431.384 0 .716.094.997.281h.853c.126 0 .199.005.22.013a.07.07 0 0 1 .044.036c.017.026.026.073.026.14a.385.385 0 0 1-.022.158.093.093 0 0 1-.048.036 1.001 1.001 0 0 1-.22.013h-.523c.164.211.246.48.246.808 0 .375-.143.696-.431.963-.287.266-.672.4-1.155.4-.199 0-.403-.03-.611-.088a1.177 1.177 0 0 0-.264.294.464.464 0 0 0-.066.211c0 .05.024.098.071.145.049.047.145.081.285.101.082.012.287.022.615.031.604.015.995.035 1.174.061.272.039.489.14.65.304a.824.824 0 0 1 .246.606c0 .331-.155.642-.466.932-.457.428-1.053.641-1.788.641-.566 0-1.043-.127-1.433-.382-.219-.146-.329-.299-.329-.457 0-.07.016-.141.048-.211.05-.108.152-.259.308-.453.02-.026.17-.184.448-.474a1.503 1.503 0 0 1-.325-.242.37.37 0 0 1-.093-.246.73.73 0 0 1 .123-.36c.085-.138.279-.333.581-.585Zm.764-2.465a.686.686 0 0 0-.545.259c-.146.173-.219.438-.219.796 0 .462.099.821.298 1.076.153.194.346.29.58.29a.693.693 0 0 0 .55-.25c.143-.167.215-.429.215-.787 0-.466-.101-.83-.303-1.094a.698.698 0 0 0-.576-.29Zm-.808 3.933a2.153 2.153 0 0 0-.312.417.748.748 0 0 0-.106.356c0 .141.085.264.255.37.293.181.716.272 1.27.272.527 0 .916-.094 1.165-.281.252-.185.378-.383.378-.593 0-.153-.075-.261-.225-.326-.152-.064-.454-.102-.905-.114a14.514 14.514 0 0 1-1.52-.101Zm5.488-4.025h1.877v.162h-.092c-.132 0-.232.03-.299.088a.266.266 0 0 0-.097.211c0 .114.048.272.145.475l.98 2.03.901-2.224a.918.918 0 0 0 .075-.356.193.193 0 0 0-.031-.118.222.222 0 0 0-.11-.075.765.765 0 0 0-.264-.031v-.162h1.31v.162a.621.621 0 0 0-.251.071.735.735 0 0 0-.193.197 2.782 2.782 0 0 0-.149.339l-1.64 4.016c-.158.39-.366.684-.624.884-.254.199-.501.298-.738.298a.612.612 0 0 1-.426-.149.452.452 0 0 1-.167-.343c0-.123.039-.222.119-.299a.483.483 0 0 1 .334-.109c.096 0 .228.032.395.096.117.044.19.066.22.066.088 0 .183-.045.285-.136.106-.091.211-.267.317-.527l.285-.699-1.445-3.037a2.51 2.51 0 0 0-.211-.338 1.003 1.003 0 0 0-.18-.207.99.99 0 0 0-.326-.123v-.162Zm6.698-.119c.609 0 1.098.231 1.467.694.314.396.471.85.471 1.363 0 .36-.087.725-.26 1.094-.173.369-.411.647-.716.835a1.882 1.882 0 0 1-1.011.281c-.606 0-1.088-.242-1.446-.725a2.25 2.25 0 0 1-.452-1.371c0-.369.091-.735.272-1.099.185-.366.427-.636.725-.808.299-.176.616-.264.95-.264Zm-.137.286a.913.913 0 0 0-.47.14c-.155.091-.281.252-.378.484-.096.231-.145.528-.145.892 0 .586.116 1.091.347 1.516.235.425.542.637.923.637a.856.856 0 0 0 .703-.352c.185-.234.277-.637.277-1.208 0-.715-.154-1.277-.461-1.688-.208-.281-.473-.421-.796-.421Zm6.197-.167v2.439c0 .465.01.751.03.857.024.102.059.174.106.215.05.041.107.061.171.061a.794.794 0 0 0 .308-.074l.061.153-1.204.497h-.197v-.852c-.346.375-.61.61-.791.707a1.207 1.207 0 0 1-.576.145.935.935 0 0 1-.589-.193 1.036 1.036 0 0 1-.343-.506c-.064-.205-.096-.495-.096-.87v-1.797c0-.191-.021-.322-.062-.396a.392.392 0 0 0-.185-.167c-.079-.041-.224-.06-.435-.057v-.162h1.411v2.693c0 .375.065.622.193.739.132.117.29.176.475.176.126 0 .268-.04.426-.119.161-.079.352-.23.572-.453v-2.281c0-.228-.043-.382-.128-.461-.082-.082-.255-.126-.518-.132v-.162h1.371Zm2.149-.119v.905c.337-.603.682-.905 1.037-.905.161 0 .294.05.4.149.105.097.158.21.158.339a.403.403 0 0 1-.114.29.367.367 0 0 1-.273.118c-.102 0-.218-.049-.347-.149-.126-.103-.22-.154-.281-.154-.053 0-.11.03-.172.088-.132.12-.268.318-.408.593v1.93c0 .222.027.391.083.505a.46.46 0 0 0 .202.198c.097.052.236.079.418.079V154h-2.061v-.158c.205 0 .357-.032.457-.097a.378.378 0 0 0 .154-.224c.014-.05.022-.192.022-.426v-1.56c0-.469-.011-.747-.031-.835a.317.317 0 0 0-.106-.198.287.287 0 0 0-.189-.062.867.867 0 0 0-.307.066l-.044-.158 1.217-.492h.185Zm5.242.852c.472-.568.922-.852 1.349-.852.22 0 .409.056.567.167.159.108.284.289.378.54.065.176.097.446.097.809v1.718c0 .255.02.428.061.519a.37.37 0 0 0 .154.171c.074.041.207.062.4.062V154h-1.991v-.158h.084c.187 0 .318-.028.391-.084a.45.45 0 0 0 .158-.255c.012-.044.018-.181.018-.413v-1.648c0-.366-.049-.631-.145-.795-.094-.167-.254-.251-.479-.251-.349 0-.696.191-1.042.572v2.122c0 .273.016.441.049.506a.42.42 0 0 0 .167.189c.073.038.219.057.439.057V154h-1.991v-.158h.088c.205 0 .343-.051.413-.154.074-.105.11-.305.11-.598v-1.494c0-.483-.012-.778-.035-.883-.02-.106-.054-.177-.101-.215a.262.262 0 0 0-.18-.058.85.85 0 0 0-.295.066l-.066-.158 1.213-.492h.189v.852Zm4.004.783c-.003.597.142 1.066.435 1.406.293.34.637.51 1.032.51.264 0 .493-.072.686-.216.196-.146.36-.395.492-.747l.136.088a2.1 2.1 0 0 1-.536 1.099 1.434 1.434 0 0 1-1.111.492c-.484 0-.898-.187-1.244-.562-.343-.378-.514-.885-.514-1.521 0-.688.175-1.225.527-1.608a1.73 1.73 0 0 1 1.332-.58c.451 0 .821.149 1.111.448.29.296.435.693.435 1.191h-2.781Zm0-.255h1.863c-.015-.258-.045-.44-.092-.545a.873.873 0 0 0-.33-.387.81.81 0 0 0-.453-.14.91.91 0 0 0-.654.285c-.191.188-.302.45-.334.787Zm3.098-1.261h1.687v.162c-.155.012-.257.04-.307.084-.047.044-.071.107-.071.189 0 .09.025.2.075.329l.861 2.316.866-1.885-.228-.593c-.071-.176-.163-.298-.277-.365-.065-.041-.185-.066-.361-.075v-.162h1.916v.162c-.21.009-.36.047-.448.114-.058.047-.088.122-.088.225 0 .058.012.118.036.18l.914 2.311.848-2.228c.058-.158.088-.284.088-.378 0-.055-.03-.105-.088-.149-.056-.044-.167-.069-.334-.075v-.162h1.27v.162c-.255.038-.443.211-.563.519l-1.344 3.467h-.181l-1.006-2.571-1.173 2.571h-.163l-1.292-3.384c-.085-.214-.168-.357-.25-.43-.082-.077-.211-.134-.387-.172v-.162Zm10.147-1.323v1.323h.94v.307h-.94v2.611c0 .26.036.436.11.527a.361.361 0 0 0 .29.136.51.51 0 0 0 .281-.088.592.592 0 0 0 .211-.268h.171c-.102.287-.247.504-.435.651a.947.947 0 0 1-.58.215.792.792 0 0 1-.395-.11.692.692 0 0 1-.286-.321c-.062-.14-.092-.356-.092-.646v-2.707h-.637v-.145c.161-.064.325-.173.492-.325.17-.155.321-.338.452-.549.068-.112.161-.315.282-.611h.136Zm3.305 1.204c.609 0 1.098.231 1.467.694.314.396.471.85.471 1.363 0 .36-.087.725-.26 1.094-.173.369-.411.647-.716.835a1.882 1.882 0 0 1-1.011.281c-.606 0-1.088-.242-1.446-.725a2.25 2.25 0 0 1-.452-1.371c0-.369.091-.735.272-1.099.185-.366.426-.636.725-.808.299-.176.616-.264.95-.264Zm-.137.286a.913.913 0 0 0-.47.14c-.155.091-.281.252-.378.484-.097.231-.145.528-.145.892 0 .586.116 1.091.347 1.516.235.425.542.637.923.637a.856.856 0 0 0 .703-.352c.185-.234.277-.637.277-1.208 0-.715-.154-1.277-.461-1.688-.208-.281-.473-.421-.796-.421Zm2.439-.167h1.877v.162h-.093c-.131 0-.231.03-.298.088a.266.266 0 0 0-.097.211c0 .114.048.272.145.475l.98 2.03.901-2.224a.918.918 0 0 0 .075-.356.193.193 0 0 0-.031-.118.222.222 0 0 0-.11-.075.765.765 0 0 0-.264-.031v-.162h1.31v.162a.616.616 0 0 0-.251.071.735.735 0 0 0-.193.197 2.782 2.782 0 0 0-.149.339l-1.64 4.016c-.158.39-.366.684-.624.884-.255.199-.501.298-.738.298a.612.612 0 0 1-.426-.149.448.448 0 0 1-.167-.343c0-.123.039-.222.118-.299a.485.485 0 0 1 .334-.109c.097 0 .229.032.396.096.117.044.19.066.22.066.088 0 .183-.045.285-.136.106-.091.211-.267.317-.527l.285-.699-1.445-3.037a2.51 2.51 0 0 0-.211-.338 1 1 0 0 0-.181-.207.975.975 0 0 0-.325-.123v-.162Zm6.03 2.447h-.167l-.387-3.559a3.317 3.317 0 0 1-.027-.347c0-.185.049-.333.145-.444a.462.462 0 0 1 .356-.167c.138 0 .254.055.348.167.096.111.145.277.145.496 0 .071-.006.169-.018.295l-.395 3.559Zm-.088.73c.134 0 .249.048.342.145a.453.453 0 0 1 .145.338.47.47 0 0 1-.145.347.464.464 0 0 1-.342.141.483.483 0 0 1-.348-.826.474.474 0 0 1 .348-.145Z" fill="#000"/><path d="M26.768 78.922c.304 0 .563.108.777.325.217.214.326.473.326.778 0 .305-.109.565-.326.782a1.06 1.06 0 0 1-.777.32c-.305 0-.566-.106-.783-.32a1.074 1.074 0 0 1-.32-.782c0-.305.107-.564.32-.778.214-.217.475-.325.783-.325Zm10.85 2.083H35.31l-.404.94c-.1.232-.15.405-.15.519 0 .09.043.171.128.242.088.067.276.11.563.131V83H33.57v-.163c.25-.044.41-.1.484-.171.15-.14.315-.426.496-.857l2.097-4.904h.153l2.075 4.957c.166.398.317.657.452.778.138.117.328.183.571.197V83h-2.35v-.163c.237-.011.396-.05.478-.118a.305.305 0 0 0 .128-.246c0-.13-.059-.333-.176-.611l-.36-.857Zm-.123-.325-1.011-2.409-1.037 2.409h2.048Zm3.893-1.011c.39-.542.81-.813 1.261-.813.413 0 .774.177 1.081.532.308.351.462.833.462 1.445 0 .715-.237 1.291-.712 1.728-.407.374-.861.562-1.362.562-.235 0-.474-.042-.717-.127a3.296 3.296 0 0 1-.738-.383v-4.17c0-.457-.012-.738-.035-.844-.02-.105-.054-.177-.101-.215a.27.27 0 0 0-.176-.057.9.9 0 0 0-.307.07l-.062-.154 1.208-.492h.198v2.918Zm0 .281v2.408c.15.147.303.258.462.334.16.074.325.11.492.11.266 0 .514-.146.742-.44.232-.292.348-.718.348-1.278 0-.516-.116-.911-.348-1.187-.228-.278-.489-.417-.782-.417-.155 0-.31.04-.466.119-.117.058-.266.175-.448.351Zm5.366-1.094c.61 0 1.099.231 1.468.694.313.396.47.85.47 1.363 0 .36-.087.725-.26 1.094a1.882 1.882 0 0 1-.716.835 1.876 1.876 0 0 1-1.01.281c-.607 0-1.089-.242-1.446-.725a2.246 2.246 0 0 1-.453-1.371c0-.37.09-.736.273-1.099.184-.366.426-.635.725-.808.298-.176.615-.264.949-.264Zm-.136.286a.918.918 0 0 0-.47.14c-.156.091-.282.252-.379.484-.096.231-.145.528-.145.892 0 .586.116 1.091.348 1.516.234.425.542.637.922.637a.858.858 0 0 0 .704-.352c.184-.234.276-.637.276-1.208 0-.715-.153-1.277-.46-1.688-.209-.28-.474-.421-.796-.421Zm6.196-.167v2.439c0 .465.01.751.03.856a.41.41 0 0 0 .106.216c.05.04.107.061.172.061.09 0 .193-.025.307-.074l.062.153-1.204.497h-.198v-.853c-.346.376-.61.611-.791.708a1.208 1.208 0 0 1-.576.145.936.936 0 0 1-.589-.193 1.03 1.03 0 0 1-.343-.506c-.064-.205-.096-.495-.096-.87v-1.797c0-.19-.02-.322-.062-.396a.395.395 0 0 0-.184-.167c-.08-.04-.224-.06-.435-.057v-.162h1.41v2.694c0 .374.065.62.194.738a.69.69 0 0 0 .474.175.976.976 0 0 0 .427-.118c.16-.08.351-.23.57-.453v-2.28c0-.229-.042-.383-.127-.462-.082-.082-.255-.126-.518-.132v-.162h1.371Zm2.14-1.323v1.323h.94v.307h-.94v2.61c0 .261.037.437.11.528.076.09.173.136.29.136.097 0 .19-.03.281-.088a.594.594 0 0 0 .211-.268h.172c-.103.287-.248.504-.435.65a.945.945 0 0 1-.58.216.792.792 0 0 1-.396-.11.692.692 0 0 1-.286-.32c-.061-.141-.092-.357-.092-.647v-2.707h-.637v-.145c.16-.064.325-.173.492-.325.17-.155.32-.338.453-.55.067-.11.16-.314.28-.61h.137Zm7.115 1.323v2.439c0 .465.01.751.03.856a.41.41 0 0 0 .106.216c.05.04.107.061.172.061.09 0 .193-.025.307-.074l.062.153-1.205.497h-.197v-.853c-.346.376-.61.611-.791.708a1.207 1.207 0 0 1-.576.145.936.936 0 0 1-.589-.193 1.03 1.03 0 0 1-.343-.506c-.064-.205-.096-.495-.096-.87v-1.797c0-.19-.02-.322-.062-.396a.395.395 0 0 0-.184-.167c-.08-.04-.225-.06-.435-.057v-.162h1.41v2.694c0 .374.065.62.194.738a.69.69 0 0 0 .474.175.976.976 0 0 0 .427-.118c.16-.08.351-.23.57-.453v-2.28c0-.229-.042-.383-.127-.462-.082-.082-.255-.126-.518-.132v-.162h1.37Zm3.573-.119v1.371h-.145c-.112-.43-.255-.724-.431-.879a.957.957 0 0 0-.664-.233.734.734 0 0 0-.496.163c-.126.108-.19.228-.19.36 0 .164.048.305.141.422.091.12.276.248.554.382l.642.312c.594.29.892.673.892 1.147 0 .367-.14.663-.418.888a1.437 1.437 0 0 1-.927.334c-.246 0-.527-.044-.844-.132a.856.856 0 0 0-.237-.044c-.067 0-.12.038-.158.114h-.145v-1.437h.145c.082.41.239.72.47.928.231.208.49.312.778.312a.694.694 0 0 0 .492-.176.569.569 0 0 0 .193-.43.678.678 0 0 0-.215-.51c-.14-.138-.423-.313-.848-.523-.425-.211-.703-.402-.835-.572a.99.99 0 0 1-.198-.633c0-.33.113-.607.339-.83.228-.223.523-.334.883-.334.158 0 .35.034.576.101.149.044.249.066.298.066.047 0 .084-.01.11-.03a.422.422 0 0 0 .093-.137h.145ZM26.768 90.922c.304 0 .563.108.777.325.217.214.326.473.326.778 0 .305-.109.565-.326.782a1.06 1.06 0 0 1-.777.32c-.305 0-.566-.106-.783-.32a1.074 1.074 0 0 1-.32-.782c0-.305.107-.564.32-.778.214-.217.475-.325.783-.325Zm8.578 1.288v1.735c0 .375.04.608.123.699.111.129.28.193.505.193h.229V95h-2.554v-.163h.224c.253 0 .433-.082.541-.246.059-.09.088-.306.088-.646v-3.85c0-.374-.04-.607-.119-.698-.114-.129-.284-.193-.51-.193h-.224v-.163h2.184c.534 0 .954.056 1.262.167.307.108.567.293.778.554.21.26.316.57.316.927 0 .486-.161.882-.483 1.187-.32.304-.772.456-1.358.456-.144 0-.3-.01-.466-.03a6.109 6.109 0 0 1-.536-.093Zm0-.251c.155.03.293.051.413.066.12.015.222.022.307.022.305 0 .567-.117.787-.352.223-.237.334-.543.334-.918 0-.258-.053-.497-.158-.716a1.078 1.078 0 0 0-.448-.497 1.296 1.296 0 0 0-.66-.167 2.6 2.6 0 0 0-.575.084v2.478Zm4.623-1.103v.905c.337-.603.682-.905 1.037-.905a.56.56 0 0 1 .4.15.445.445 0 0 1 .158.338c0 .114-.038.21-.114.29a.365.365 0 0 1-.273.118c-.102 0-.218-.05-.347-.149-.126-.102-.22-.154-.281-.154-.053 0-.11.03-.172.088-.131.12-.268.318-.408.593v1.93c0 .222.028.39.083.505a.46.46 0 0 0 .202.198c.097.052.236.079.418.079V95H38.61v-.158c.205 0 .357-.032.457-.097a.376.376 0 0 0 .154-.224c.014-.05.022-.192.022-.426v-1.56c0-.47-.01-.747-.031-.835a.315.315 0 0 0-.106-.198.287.287 0 0 0-.188-.062.87.87 0 0 0-.308.066l-.044-.158 1.217-.492h.185Zm2.843-2.105c.123 0 .227.044.312.132a.417.417 0 0 1 .132.312.431.431 0 0 1-.132.316.417.417 0 0 1-.312.132.432.432 0 0 1-.316-.132.431.431 0 0 1-.132-.316c0-.123.042-.227.127-.312a.437.437 0 0 1 .321-.132Zm.365 2.105v3.234c0 .252.017.42.053.506a.403.403 0 0 0 .162.184c.073.041.205.062.396.062V95h-1.956v-.158c.196 0 .328-.02.395-.057a.38.38 0 0 0 .159-.19c.04-.087.061-.256.061-.505v-1.55c0-.438-.013-.72-.04-.85-.02-.093-.052-.157-.096-.192a.266.266 0 0 0-.18-.058.88.88 0 0 0-.299.066l-.062-.158 1.213-.492h.194Zm.91.119h1.893v.162h-.123c-.114 0-.202.028-.263.084a.295.295 0 0 0-.088.224c0 .102.03.224.092.365l.936 2.223.94-2.307c.068-.164.102-.288.102-.373a.146.146 0 0 0-.035-.102.23.23 0 0 0-.123-.087 1.102 1.102 0 0 0-.304-.027v-.162h1.314v.162c-.152.012-.258.043-.316.093-.103.087-.195.234-.277.439l-1.428 3.454h-.18l-1.437-3.397a1.267 1.267 0 0 0-.185-.338.713.713 0 0 0-.224-.176 1.098 1.098 0 0 0-.295-.075v-.162Zm6.987 3.445c-.413.32-.673.504-.778.554-.158.073-.327.11-.505.11a.913.913 0 0 1-.69-.286c-.18-.19-.268-.441-.268-.752 0-.196.044-.366.131-.51.12-.199.328-.386.624-.562.3-.176.794-.39 1.486-.642v-.158c0-.401-.065-.676-.194-.826-.126-.15-.31-.224-.553-.224a.624.624 0 0 0-.44.15.45.45 0 0 0-.167.342l.009.255c0 .135-.035.239-.105.312a.347.347 0 0 1-.269.11.349.349 0 0 1-.268-.114.454.454 0 0 1-.1-.312c0-.252.128-.484.386-.695.258-.21.62-.316 1.086-.316.357 0 .65.06.878.18.173.091.3.233.383.426.053.126.079.384.079.774v1.367c0 .383.007.62.022.707.014.085.038.142.07.171a.18.18 0 0 0 .119.044.24.24 0 0 0 .123-.03 2.78 2.78 0 0 0 .356-.321v.246c-.328.44-.642.66-.94.66a.427.427 0 0 1-.343-.15c-.085-.1-.13-.27-.132-.51Zm0-.286v-1.533c-.443.175-.728.3-.857.373-.232.129-.397.264-.497.404a.782.782 0 0 0-.15.462.76.76 0 0 0 .19.527.575.575 0 0 0 .435.207c.222 0 .515-.147.879-.44Zm5.137-.663c-.108.53-.32.939-.637 1.226-.317.284-.667.426-1.05.426-.458 0-.856-.192-1.196-.576-.34-.383-.51-.902-.51-1.555 0-.633.188-1.147.563-1.543.378-.395.83-.593 1.358-.593.395 0 .72.105.975.316.255.208.383.425.383.65a.36.36 0 0 1-.11.273c-.07.068-.17.101-.299.101-.173 0-.303-.055-.391-.167-.05-.061-.084-.178-.101-.351a.568.568 0 0 0-.176-.396c-.103-.088-.245-.132-.426-.132a.872.872 0 0 0-.708.326c-.237.287-.356.666-.356 1.138 0 .48.117.905.352 1.274.237.366.556.55.958.55.287 0 .545-.099.773-.295.161-.135.318-.38.47-.734l.128.062Zm.352-2.496h1.876v.162h-.092c-.132 0-.232.03-.3.088a.267.267 0 0 0-.096.211c0 .114.048.272.145.475l.98 2.03.901-2.224a.925.925 0 0 0 .075-.356c0-.052-.01-.092-.031-.118a.221.221 0 0 0-.11-.075.776.776 0 0 0-.264-.03v-.163h1.31v.162a.625.625 0 0 0-.25.07.729.729 0 0 0-.194.198 2.729 2.729 0 0 0-.15.339l-1.638 4.016c-.159.39-.367.684-.624.884-.255.199-.501.298-.739.298a.616.616 0 0 1-.426-.149.45.45 0 0 1-.167-.343c0-.123.04-.222.119-.299a.483.483 0 0 1 .334-.11c.096 0 .228.033.395.097.117.044.19.066.22.066.088 0 .183-.045.286-.136.105-.09.21-.267.316-.528l.286-.698-1.446-3.037a2.428 2.428 0 0 0-.211-.338.994.994 0 0 0-.18-.207.991.991 0 0 0-.325-.123v-.162Zm-29.795 11.947c.304 0 .563.108.777.325.217.214.326.473.326.778 0 .305-.109.565-.326.782a1.059 1.059 0 0 1-.777.321c-.305 0-.566-.107-.783-.321a1.073 1.073 0 0 1-.32-.782c0-.305.107-.564.32-.778.214-.217.475-.325.783-.325Zm7.629-1.718v-.163h2.553v.163h-.216c-.243 0-.42.071-.531.215-.07.094-.106.319-.106.677v2.913c0 .449-.05.812-.15 1.09a1.694 1.694 0 0 1-.505.73c-.24.205-.53.307-.87.307-.275 0-.492-.067-.65-.202-.158-.138-.237-.294-.237-.47 0-.144.036-.252.11-.325a.479.479 0 0 1 .338-.137c.094 0 .177.031.25.093.076.061.172.225.286.492.067.158.154.237.26.237.078 0 .152-.048.219-.145.07-.096.105-.268.105-.514v-4.069c0-.302-.019-.501-.057-.598a.396.396 0 0 0-.184-.189.811.811 0 0 0-.4-.105h-.215Zm4.86 1.652c.61 0 1.099.231 1.468.694.313.396.47.85.47 1.363 0 .36-.087.725-.26 1.094a1.89 1.89 0 0 1-.716.835 1.88 1.88 0 0 1-1.01.281c-.607 0-1.089-.242-1.446-.725a2.245 2.245 0 0 1-.453-1.371c0-.369.09-.735.273-1.099a1.841 1.841 0 0 1 1.674-1.072Zm-.136.286a.914.914 0 0 0-.47.14c-.156.091-.282.252-.379.484-.096.231-.145.528-.145.892 0 .586.116 1.091.348 1.516.234.425.542.637.922.637a.857.857 0 0 0 .704-.352c.184-.234.276-.637.276-1.208 0-.715-.153-1.277-.461-1.688-.208-.281-.473-.421-.795-.421Zm3.77.527c.39-.542.81-.813 1.261-.813.413 0 .774.177 1.081.532.308.351.462.833.462 1.445 0 .715-.237 1.291-.712 1.728-.407.375-.861.562-1.362.562-.235 0-.474-.042-.717-.127a3.3 3.3 0 0 1-.738-.383v-4.17c0-.457-.012-.738-.035-.844-.02-.105-.054-.177-.101-.215a.27.27 0 0 0-.176-.057.897.897 0 0 0-.308.07l-.061-.154 1.208-.492h.198v2.918Zm0 .281v2.408c.15.147.303.258.462.334.16.074.325.11.492.11.266 0 .514-.146.742-.439.232-.293.348-.719.348-1.279 0-.516-.116-.911-.348-1.187-.228-.278-.489-.417-.782-.417-.155 0-.31.04-.466.119-.117.058-.266.175-.448.351Zm5.999-1.094v1.371h-.145c-.112-.431-.255-.724-.431-.879a.957.957 0 0 0-.664-.233.732.732 0 0 0-.496.163c-.126.108-.19.228-.19.36 0 .164.048.305.142.422.09.12.275.248.553.382l.642.312c.594.29.892.673.892 1.147 0 .367-.14.662-.418.888a1.435 1.435 0 0 1-.927.334c-.246 0-.527-.044-.844-.132a.87.87 0 0 0-.237-.044c-.067 0-.12.038-.158.115h-.145v-1.437h.145c.082.41.239.719.47.927.231.208.49.312.778.312a.695.695 0 0 0 .492-.176.57.57 0 0 0 .194-.431.676.676 0 0 0-.216-.509c-.14-.138-.423-.312-.848-.523-.425-.211-.703-.402-.835-.572a.99.99 0 0 1-.198-.632c0-.332.113-.608.339-.831.228-.223.523-.334.883-.334.158 0 .35.034.576.101.15.044.249.066.298.066.047 0 .084-.01.11-.031a.416.416 0 0 0 .093-.136h.145Z" fill="#551A8B"/><path d="M33.5 84.2h32.761v.44H33.5v-.44Zm0 12h27.51v.44H33.5v-.44Zm0 12h16.01v.439H33.5v-.439ZM20.119 131v-.163h.197c.173 0 .305-.026.396-.079a.503.503 0 0 0 .207-.224c.026-.061.039-.246.039-.554v-3.919c0-.305-.016-.496-.048-.572a.425.425 0 0 0-.198-.197.757.757 0 0 0-.396-.088h-.197v-.163h2.667c.712 0 1.285.097 1.718.29.53.237.932.596 1.204 1.077.276.48.414 1.024.414 1.63 0 .419-.068.806-.203 1.16a2.692 2.692 0 0 1-.523.875 2.6 2.6 0 0 1-.742.553c-.279.138-.62.245-1.024.321-.179.035-.46.053-.844.053H20.12Zm2.272-5.621v4.65c0 .246.011.397.035.452a.25.25 0 0 0 .118.128c.08.044.194.066.343.066.49 0 .863-.167 1.12-.501.352-.451.528-1.152.528-2.101 0-.764-.12-1.375-.36-1.832-.19-.358-.435-.601-.734-.73-.211-.091-.561-.135-1.05-.132Zm7.897 3.419h-2.255c.027.545.172.976.435 1.292.202.243.446.365.73.365a.837.837 0 0 0 .479-.145c.143-.1.297-.277.461-.532l.15.097c-.223.454-.47.776-.739.967-.27.187-.581.281-.936.281-.61 0-1.07-.234-1.384-.703-.252-.378-.378-.847-.378-1.406 0-.686.185-1.231.554-1.635.372-.407.807-.611 1.305-.611.416 0 .776.171 1.081.514.308.34.473.845.497 1.516Zm-1.082-.294c0-.472-.026-.796-.079-.971a.783.783 0 0 0-.237-.4.364.364 0 0 0-.246-.079c-.152 0-.277.074-.373.224-.173.261-.26.618-.26 1.072v.154h1.195Zm4.197-1.727.066 1.402h-.15c-.178-.416-.364-.7-.557-.853-.19-.152-.381-.228-.572-.228a.427.427 0 0 0-.307.123.367.367 0 0 0-.128.277c0 .079.03.155.088.228.094.12.356.327.787.62.43.29.713.537.848.742.138.203.207.43.207.682 0 .228-.058.452-.172.672-.114.22-.275.388-.483.505a1.383 1.383 0 0 1-.69.176c-.196 0-.459-.061-.787-.185a.658.658 0 0 0-.18-.048c-.097 0-.177.073-.242.22h-.145l-.07-1.477h.15c.131.387.311.677.54.87.231.194.45.29.655.29a.47.47 0 0 0 .342-.127.424.424 0 0 0 .137-.316.541.541 0 0 0-.132-.365c-.088-.103-.284-.258-.589-.466-.448-.311-.738-.548-.87-.712a1.238 1.238 0 0 1-.29-.795c0-.317.108-.602.325-.857.22-.258.536-.387.95-.387.222 0 .437.054.645.163.08.044.144.066.194.066a.239.239 0 0 0 .127-.031.942.942 0 0 0 .154-.189h.15Zm1.899-1.877a.65.65 0 0 1 .483.203.65.65 0 0 1 .198.479.647.647 0 0 1-.202.479.655.655 0 0 1-.48.197.655.655 0 0 1-.478-.197.653.653 0 0 1-.198-.479.65.65 0 0 1 .198-.479.645.645 0 0 1 .479-.203Zm.615 1.991v3.256c0 .291.034.477.101.559.067.079.2.124.396.136V131h-2.22v-.158c.182-.006.317-.059.405-.158.058-.068.088-.246.088-.537v-2.399c0-.29-.034-.475-.102-.554-.067-.082-.197-.129-.39-.14v-.163h1.722Zm3.538.048h1.384v.484h-.787c.144.143.243.274.3.391.07.158.105.324.105.497 0 .293-.083.547-.247.764a1.624 1.624 0 0 1-.663.506c-.278.12-.526.18-.743.18l-.527-.022a.462.462 0 0 0-.334.132.411.411 0 0 0-.132.307c0 .106.04.192.119.26.082.067.214.101.395.101l.76-.009c.616 0 1.039.067 1.27.202.332.187.497.476.497.866 0 .249-.076.474-.228.676a1.337 1.337 0 0 1-.602.453 3.651 3.651 0 0 1-1.306.215c-.369 0-.706-.036-1.01-.109-.305-.071-.523-.17-.655-.299-.132-.126-.198-.26-.198-.4 0-.135.05-.257.15-.365.102-.105.29-.195.566-.268-.38-.188-.571-.448-.571-.782 0-.202.078-.399.233-.589.155-.191.401-.356.738-.497-.392-.143-.677-.332-.852-.567a1.317 1.317 0 0 1-.264-.813c0-.401.164-.748.492-1.041.328-.296.75-.444 1.266-.444a2.3 2.3 0 0 1 .844.171Zm-.76.102c-.17 0-.314.086-.431.259-.117.17-.176.524-.176 1.063 0 .437.057.737.171.901.117.161.255.242.413.242a.527.527 0 0 0 .44-.242c.117-.161.176-.474.176-.94 0-.525-.066-.882-.198-1.073a.45.45 0 0 0-.396-.21Zm-.26 4.565c-.299 0-.497.025-.593.075-.167.091-.25.214-.25.369 0 .15.086.284.259.405.172.123.498.184.975.184.407 0 .727-.054.958-.162.235-.109.352-.261.352-.457a.269.269 0 0 0-.066-.185.635.635 0 0 0-.36-.18c-.159-.032-.584-.049-1.275-.049Zm4.562-4.715v.532a2.36 2.36 0 0 1 .606-.497c.193-.105.401-.158.624-.158a.99.99 0 0 1 .664.224c.175.147.293.33.351.55.047.166.07.487.07.962v1.6c0 .316.028.514.084.593.059.076.179.124.36.145V131h-2.078v-.158c.155-.021.266-.085.334-.194.047-.073.07-.254.07-.544v-1.829c0-.337-.013-.549-.04-.637a.373.373 0 0 0-.136-.202.319.319 0 0 0-.206-.075c-.252 0-.487.181-.703.541v2.202c0 .307.027.502.083.584.059.082.166.133.32.154V131h-2.078v-.158c.173-.018.296-.073.37-.167.05-.065.074-.255.074-.571v-2.321c0-.31-.03-.504-.088-.58-.055-.076-.174-.126-.356-.149v-.163h1.675Zm7.848 3.503c-.5.442-.95.663-1.349.663a.802.802 0 0 1-.584-.228.789.789 0 0 1-.233-.58c0-.314.134-.595.404-.844.27-.252.857-.586 1.762-1.002v-.413c0-.311-.017-.506-.053-.585a.447.447 0 0 0-.189-.211.568.568 0 0 0-.316-.092.817.817 0 0 0-.47.127c-.076.053-.114.115-.114.185 0 .062.04.138.123.229.111.126.167.247.167.364a.488.488 0 0 1-.163.369.582.582 0 0 1-.417.15.68.68 0 0 1-.466-.167.512.512 0 0 1-.185-.391c0-.211.084-.412.25-.602.168-.194.4-.342.7-.444.298-.103.609-.154.931-.154.39 0 .697.084.923.251.228.164.376.342.444.536.04.123.061.405.061.848v1.595c0 .188.008.306.022.356a.207.207 0 0 0 .066.105c.03.024.063.036.101.036.076 0 .154-.055.233-.163l.132.106a1.63 1.63 0 0 1-.457.474.983.983 0 0 1-.532.145c-.234 0-.417-.054-.55-.162-.13-.112-.212-.279-.24-.501Zm0-.321v-1.376c-.354.208-.618.431-.79.668a.812.812 0 0 0-.172.479.5.5 0 0 0 .145.356.4.4 0 0 0 .307.119c.147 0 .317-.082.51-.246Zm6.42-5.032 2.94 3.696v-2.562c0-.358-.05-.599-.153-.725-.14-.17-.377-.252-.708-.246v-.163h1.969v.163c-.252.032-.422.074-.51.127a.505.505 0 0 0-.202.251c-.047.114-.07.312-.07.593v4.961h-.15l-4.03-4.961v3.788c0 .343.078.574.233.694a.87.87 0 0 0 .541.18h.14V131h-2.113v-.163c.328-.003.556-.07.685-.202.13-.132.194-.356.194-.672v-4.206l-.128-.158c-.126-.158-.237-.262-.334-.312a.989.989 0 0 0-.417-.083v-.163h2.114Zm8.047 3.757h-2.254c.026.545.171.976.435 1.292.202.243.445.365.73.365a.837.837 0 0 0 .478-.145c.144-.1.298-.277.462-.532l.149.097c-.223.454-.469.776-.738.967-.27.187-.582.281-.936.281-.61 0-1.071-.234-1.385-.703-.252-.378-.377-.847-.377-1.406 0-.686.184-1.231.553-1.635.372-.407.807-.611 1.305-.611.416 0 .777.171 1.081.514.308.34.474.845.497 1.516Zm-1.081-.294c0-.472-.026-.796-.08-.971a.784.784 0 0 0-.236-.4.364.364 0 0 0-.246-.079c-.153 0-.277.074-.374.224-.173.261-.26.618-.26 1.072v.154h1.196Zm5.673 2.619-1.125-3.015-1.103 3.015h-.228l-1.094-2.979c-.165-.455-.304-.75-.418-.888a.612.612 0 0 0-.334-.202v-.163h2.074v.163c-.14 0-.237.02-.29.061-.052.041-.079.088-.079.141 0 .05.047.199.14.448l.603 1.604.58-1.604-.044-.105c-.088-.22-.166-.359-.233-.418a.572.572 0 0 0-.303-.127v-.163h2.105v.163c-.164.008-.268.032-.312.07-.044.035-.066.086-.066.154 0 .064.042.206.127.426l.58 1.604.528-1.476c.076-.211.114-.355.114-.431 0-.114-.028-.198-.084-.251-.055-.052-.164-.085-.325-.096v-.163h1.218v.163a.534.534 0 0 0-.321.145c-.08.076-.182.296-.308.659l-1.151 3.265h-.25Zm9.888-6.082v1.613h-.158c-.094-.372-.198-.639-.312-.8a1.197 1.197 0 0 0-.47-.391c-.112-.053-.307-.079-.585-.079h-.444v4.596c0 .305.016.496.049.572a.484.484 0 0 0 .197.202c.1.056.235.083.405.083h.197V131h-3.12v-.163h.198a.82.82 0 0 0 .418-.092.419.419 0 0 0 .18-.211c.032-.07.048-.255.048-.554v-4.596h-.43c-.402 0-.694.085-.875.255-.255.237-.416.575-.484 1.015h-.166v-1.613h5.352Zm1.74 1.727c.358 0 .69.092.998.277.307.184.54.447.698.787.162.339.242.711.242 1.116 0 .583-.148 1.071-.444 1.463-.357.475-.85.712-1.48.712-.619 0-1.095-.217-1.429-.65a2.402 2.402 0 0 1-.5-1.508c0-.589.17-1.101.509-1.538.343-.439.811-.659 1.406-.659Zm.018.312a.516.516 0 0 0-.387.171c-.105.112-.176.334-.21.668-.033.331-.05.793-.05 1.385 0 .313.021.606.062.879.033.208.101.366.207.474a.488.488 0 0 0 .36.163.499.499 0 0 0 .33-.11.74.74 0 0 0 .228-.418c.059-.278.088-.84.088-1.687 0-.498-.028-.839-.083-1.024-.056-.187-.138-.324-.246-.409a.463.463 0 0 0-.3-.092Zm4.43 4.087-1.328-3.045c-.199-.46-.347-.743-.444-.849a.74.74 0 0 0-.342-.219v-.163h2.184v.163c-.144.006-.245.033-.303.083a.23.23 0 0 0-.088.18c0 .112.073.331.22.66l.703 1.608.479-1.244c.172-.442.259-.75.259-.923a.329.329 0 0 0-.11-.259c-.07-.064-.196-.099-.378-.105v-.163h1.376v.163a.507.507 0 0 0-.33.158c-.085.088-.227.391-.426.91l-1.174 3.045c-.296.762-.515 1.23-.659 1.406a.944.944 0 0 1-.76.369c-.243 0-.441-.07-.593-.211a.654.654 0 0 1-.225-.501.6.6 0 0 1 .154-.421.51.51 0 0 1 .387-.167c.147 0 .264.046.352.14.09.094.137.239.14.435.003.112.016.183.04.216a.118.118 0 0 0 .1.048c.071 0 .146-.043.225-.127.117-.124.255-.405.413-.844l.127-.343Z" fill="#551A8B"/><path d="M20 132.406h68.291v.857H20v-.857Z" fill="#551A8B"/></svg>